<?xml version="1.0" encoding="utf-8"?>
<!-- Generator: Adobe Illustrator 19.0.0, SVG Export Plug-In . SVG Version: 6.00 Build 0)  -->
<svg version="1.1" id="Layer_1" xmlns="http://www.w3.org/2000/svg" xmlns:xlink="http://www.w3.org/1999/xlink" x="0px" y="0px"
	 viewBox="216 308 1043 178" style="enable-background:new 216 308 1043 178;" xml:space="preserve">
<style type="text/css">
	.st0{fill:#CCE7F4;}
	.st1{fill:none;stroke:#008CDC;stroke-width:4;}
	.st2{fill:#FFFFFF;stroke:#008CDC;stroke-width:4;}
	.st3{opacity:0.5;fill:#008CDC;enable-background:new    ;}
	.st4{opacity:0.6;fill:#008CDC;enable-background:new    ;}
	.st5{opacity:0.7;fill:#008CDC;enable-background:new    ;}
	.st6{opacity:0.8;fill:#008CDC;enable-background:new    ;}
	.st7{opacity:0.9;fill:#008CDC;enable-background:new    ;}
	.st8{fill:#008CDC;}
	.st9{opacity:0.4;fill:#008CDC;enable-background:new    ;}
	.st10{opacity:0.3;fill:#008CDC;enable-background:new    ;}
	.st11{opacity:0.2;fill:#008CDC;enable-background:new    ;}
	.st12{opacity:0.1;fill:#008CDC;enable-background:new    ;}
	.st13{fill:#008CDC;stroke:#008CDC;stroke-width:4;}
	.st14{fill:#FFCE29;}
</style>
<title>Dates</title>
<g transform="translate(.453 4.728)">
	<path class="st0" d="M782,416h59c2.8,0,5,2.2,5,5v24c0,2.8-2.2,5-5,5h-59c-2.8,0-5-2.2-5-5v-24C777,418.2,779.2,416,782,416z"/>
	<path class="st1" d="M366.5,394h697 M1135.5,394h102"/>
	<circle class="st2" cx="957.5" cy="394.5" r="9.5"/>
	<circle class="st2" cx="507.5" cy="394" r="6"/>
	<circle class="st2" cx="375.5" cy="394" r="5.8"/>
	<g transform="translate(1 83)">
		<circle class="st3" cx="257.5" cy="311" r="2.5"/>
		<circle class="st4" cx="266.5" cy="311" r="2.5"/>
		<circle class="st5" cx="276.5" cy="311" r="2.5"/>
		<circle class="st6" cx="286.5" cy="311" r="2.5"/>
		<circle class="st7" cx="296.5" cy="311" r="2.5"/>
		<circle class="st8" cx="306.5" cy="311" r="2.5"/>
		<circle class="st8" cx="316.5" cy="311" r="2.5"/>
		<circle class="st8" cx="326.5" cy="311" r="2.5"/>
		<circle class="st8" cx="336.5" cy="311" r="2.5"/>
		<circle class="st8" cx="346.5" cy="311" r="2.5"/>
		<circle class="st8" cx="356.5" cy="311" r="2.5"/>
		<circle class="st9" cx="248.5" cy="311" r="2.5"/>
		<circle class="st10" cx="238.5" cy="311" r="2.5"/>
		<circle class="st11" cx="228.5" cy="311" r="2.5"/>
		<circle class="st12" cx="218.5" cy="311" r="2.5"/>
	</g>
	<circle class="st2" cx="656.5" cy="394" r="6.8"/>
	<path class="st13" d="M1223.9,400.8c0,2.8,2,4,4.4,2.7l14.8-7.6c2.5-1.3,2.4-3.3,0-4.5l-14.7-7.2c-2.5-1.2-4.5,0.1-4.5,2.8
		L1223.9,400.8L1223.9,400.8z"/>
	<path class="st2" d="M805.2,398.1c0,2.8,2,4,4.5,2.7l9.3-4.8c2.5-1.3,2.4-3.3,0-4.5l-9.3-4.5c-2.5-1.2-4.5,0-4.5,2.8V398.1z"/>
	<path d="M941,346.9c-0.1,0-0.2,0.2-0.1,0.3l2.8,6.6c0,0.1,0,0.1,0.1,0.1l0,0l0,0c0,0,0.1,0.1,0.2,0.1c0,0,0.1,0,0.1,0c0,0,0,0,0,0
		c0,0,0,0,0.1-0.1c0,0,0,0,0-0.1l1.8-4.4l1.8,4.4c0,0,0,0,0,0c0,0,0,0.1,0,0.1c0,0,0,0,0,0c0,0,0.1,0,0.1,0h0.1
		c0.1,0,0.2-0.1,0.2-0.2l2.8-6.6c0.1-0.1,0-0.3-0.1-0.3c-0.1-0.1-0.3,0-0.3,0.1l-2.6,6.1l-1.8-4.3c-0.1-0.1-0.1-0.2-0.3-0.2
		c-0.1,0-0.2,0.1-0.2,0.2l-1.8,4.3l-2.6-6.1C941.2,346.9,941.1,346.8,941,346.9L941,346.9z M952.3,353.8c0,0.1,0.1,0.2,0.2,0.2
		c0.1,0,0.3-0.1,0.3-0.2v-4.5c0-0.1-0.1-0.2-0.3-0.2c-0.1,0-0.2,0.1-0.2,0.2L952.3,353.8L952.3,353.8z M952.3,347.8
		c0,0.1,0.1,0.3,0.2,0.3c0.1,0,0.3-0.1,0.3-0.3v-0.2c0-0.1-0.1-0.2-0.3-0.2c-0.1,0-0.2,0.1-0.2,0.2L952.3,347.8L952.3,347.8z
		 M958.8,353.8c0,0.1,0.1,0.2,0.2,0.2s0.2-0.1,0.2-0.2V351c0-1.1-0.9-2-2-2c-0.6,0-1.2,0.3-1.6,0.7v-0.5c0-0.1-0.1-0.2-0.2-0.2
		c-0.1,0-0.2,0.1-0.2,0.2v4.6c0,0,0,0,0,0c0,0,0,0,0,0c0,0.1,0.1,0.1,0.2,0.1h0.1c0.1,0,0.1,0,0.2-0.1c0,0,0-0.1,0.1-0.1V351
		c0-0.9,0.7-1.6,1.6-1.6c0.9,0,1.6,0.7,1.6,1.6L958.8,353.8L958.8,353.8z M963,349h-0.7v-1.9c0-0.1-0.1-0.2-0.3-0.2
		c-0.1,0-0.2,0.1-0.2,0.2v1.9h-0.6c-0.2,0-0.2,0.1-0.2,0.2c0,0.1,0,0.2,0.2,0.2h0.6v3.7c0,0.5,0.4,0.9,0.9,0.9
		c0.1,0,0.3-0.1,0.3-0.2c0-0.1-0.1-0.3-0.3-0.3c-0.1,0-0.4-0.1-0.4-0.4v-3.7h0.7c0.1,0,0.2-0.1,0.2-0.2
		C963.3,349.1,963.1,349,963,349L963,349z M967.3,354c0.9,0,1.6-0.5,2-1.1c0.1-0.1,0-0.3-0.1-0.4c-0.1-0.1-0.3,0-0.3,0.1
		c-0.3,0.6-1,0.9-1.6,0.9c-1,0-1.9-0.8-2-1.9h4.1c0.1,0,0.2-0.1,0.2-0.2v0c-0.1-1.3-1.1-2.3-2.4-2.3c-1.4,0-2.5,1.1-2.5,2.5
		C964.8,352.9,965.9,354,967.3,354L967.3,354z M967.3,349.5c0.9,0,1.7,0.7,1.9,1.6h-3.8C965.6,350.1,966.4,349.5,967.3,349.5
		L967.3,349.5z M971.3,353.8c0,0.1,0.1,0.2,0.3,0.2c0.1,0,0.2-0.1,0.2-0.2v-2.2c0,0,0,0,0-0.1c0.1-0.2,0.3-0.7,0.6-1.2
		c0.3-0.5,0.8-0.8,1.5-0.8c0.1,0,0.2-0.1,0.2-0.2c0-0.1-0.1-0.2-0.2-0.2c-1,0-1.6,0.6-2,1.2c0,0,0,0.1-0.1,0.1v-1.1
		c0-0.1-0.1-0.2-0.2-0.2c-0.1,0-0.3,0.1-0.3,0.2L971.3,353.8L971.3,353.8z M946.3,367.9c0,0,0.1,0.1,0.2,0.1h4.1
		c0.1,0,0.2-0.1,0.2-0.2c0-0.1-0.1-0.3-0.2-0.3h-3.4l2.9-2.6c0.5-0.5,0.8-1.1,0.8-1.8c0-0.6-0.2-1.1-0.6-1.6
		c-0.5-0.5-1.1-0.8-1.7-0.8c-0.6,0-1.1,0.2-1.6,0.6l-0.3,0.3c-0.1,0.1-0.1,0.2,0,0.4c0.1,0.1,0.2,0.1,0.3,0l0.3-0.3
		c0.4-0.3,0.8-0.5,1.3-0.5c0.5,0,1,0.2,1.4,0.6c0.3,0.4,0.5,0.8,0.5,1.2c0,0.5-0.2,1-0.6,1.4l-3.4,3
		C946.3,367.7,946.3,367.8,946.3,367.9L946.3,367.9z M953.2,366.9c0.4,0.7,1.1,1.1,1.8,1.1s1.4-0.4,1.8-1.1c0.4-0.7,0.7-1.5,0.7-2.5
		c0-1-0.3-1.9-0.7-2.5c-0.4-0.6-1.1-1.1-1.8-1.1s-1.4,0.4-1.8,1.1c-0.4,0.7-0.7,1.6-0.7,2.5C952.5,365.4,952.8,366.2,953.2,366.9z
		 M953.6,362.2c0.4-0.6,0.9-0.9,1.4-0.9c0.5,0,1,0.3,1.4,0.9c0.4,0.6,0.6,1.3,0.6,2.2s-0.2,1.7-0.6,2.2c-0.4,0.5-0.9,0.9-1.4,0.9
		c-0.5,0-1-0.3-1.4-0.9c-0.4-0.6-0.6-1.3-0.6-2.2C953,363.5,953.3,362.7,953.6,362.2L953.6,362.2z M960.9,367.8
		c0,0.1,0.1,0.2,0.2,0.2c0.1,0,0.2-0.1,0.2-0.2v-6.6c0-0.1,0-0.1,0-0.2c-0.1-0.1-0.2-0.2-0.3-0.1l-1.4,0.8c-0.1,0.1-0.2,0.2-0.1,0.3
		c0,0.1,0.1,0.1,0.2,0.1c0,0,0.1,0,0.1,0l1-0.6C960.9,361.5,960.9,367.8,960.9,367.8z M963.2,365.2c0,0.2,0,0.3,0,0.5
		c0,1.3,1.1,2.3,2.4,2.3c1.3,0,2.4-1.1,2.4-2.4c0-1.3-1.1-2.4-2.4-2.4c-0.7,0-1.3,0.3-1.8,0.8c0.1-0.5,0.3-1,0.5-1.4
		c0.5-0.8,1.1-1.3,2.1-1.3c0.1,0,0.2-0.1,0.2-0.3c0-0.1-0.1-0.2-0.3-0.2c-1.2,0-2,0.7-2.5,1.6C963.4,363.2,963.2,364.3,963.2,365.2
		L963.2,365.2z M963.8,365.6c0-1,0.8-1.9,1.9-1.9c1,0,1.9,0.8,1.9,1.9c0,1-0.8,1.9-1.9,1.9c-0.9,0-1.7-0.7-1.9-1.6c0,0,0,0,0-0.1
		C963.8,365.8,963.8,365.7,963.8,365.6L963.8,365.6L963.8,365.6z"/>
	<path class="st8" d="M784.7,354.1h1.2c2,0,3.6-1.6,3.6-3.6c0-2-1.6-3.6-3.6-3.6h-1.2c-0.3,0-0.6,0.2-0.6,0.6v6.1
		C784.2,353.8,784.4,354.1,784.7,354.1L784.7,354.1z M785.3,348h0.6c1.4,0,2.5,1.1,2.5,2.4c0,1.4-1.1,2.5-2.5,2.5h-0.6
		C785.3,352.9,785.3,348,785.3,348z M793.6,354.1c0.7,0,1.3-0.2,1.8-0.7c0.2-0.2,0.1-0.5,0-0.7c-0.1-0.2-0.6-0.2-0.8,0
		c-0.3,0.2-0.7,0.3-1.1,0.3c-0.4,0-0.8-0.2-1-0.5c-0.2-0.2-0.3-0.4-0.3-0.7h3.3c0.3,0,0.5-0.2,0.5-0.4c0,0,0-0.1,0-0.1v-0.1
		c-0.1-1.4-1.1-2.4-2.5-2.4c-1.4,0-2.5,1.2-2.5,2.6C791.1,352.9,792.2,354.1,793.6,354.1L793.6,354.1z M793.6,349.9
		c0.9,0.1,1.4,0.7,1.5,1.1h-2.9C792.3,350.6,792.7,349.9,793.6,349.9z M800,354.1c0.6,0,1.2-0.2,1.6-0.5c0.2-0.2,0.3-0.5,0.1-0.8
		c-0.2-0.2-0.5-0.3-0.8-0.1c-0.3,0.2-0.6,0.3-1,0.3c-0.8,0-1.5-0.7-1.5-1.5s0.7-1.5,1.5-1.5c0.4,0,0.7,0.1,1,0.3
		c0.2,0.2,0.6,0.1,0.8-0.1c0.2-0.2,0.1-0.6-0.1-0.8c-0.4-0.3-1-0.6-1.6-0.6c-1.4,0-2.6,1.2-2.6,2.6
		C797.4,352.9,798.6,354.1,800,354.1L800,354.1z M805.6,354.1c0.7,0,1.3-0.2,1.8-0.7c0.2-0.2,0.1-0.5,0-0.7c-0.1-0.2-0.6-0.2-0.8,0
		c-0.3,0.2-0.7,0.3-1.1,0.3c-0.4,0-0.8-0.2-1-0.5c-0.2-0.2-0.3-0.4-0.3-0.7h3.3c0.3,0,0.5-0.2,0.5-0.4c0,0,0-0.1,0-0.1v-0.1
		c-0.1-1.4-1.1-2.4-2.5-2.4c-1.4,0-2.5,1.2-2.5,2.6C803.1,352.9,804.2,354.1,805.6,354.1L805.6,354.1z M805.6,349.9
		c0.9,0.1,1.4,0.7,1.5,1.1h-2.9C804.3,350.6,804.7,349.9,805.6,349.9z M815.1,350c0.6,0,1,0.5,1,1.1v2.4c0,0.3,0.3,0.5,0.6,0.5
		c0.3,0,0.5-0.2,0.5-0.5v-2.4c0-1.2-1-2.2-2.1-2.2c-0.7,0-1.2,0.3-1.6,0.7c-0.4-0.4-1-0.7-1.6-0.7c-0.4,0-0.8,0.1-1.1,0.3
		c-0.1-0.2-0.3-0.3-0.5-0.3c-0.3,0-0.5,0.2-0.5,0.6v4c0,0.3,0.2,0.5,0.4,0.5c0,0,0.1,0,0.1,0c0.2,0,0.4-0.1,0.5-0.3v-0.1
		c0,0,0,0,0-0.1v0c0,0,0-0.1,0-0.1v-2.4c0-0.6,0.5-1.1,1-1.1c0.6,0,1,0.5,1.1,1v2.5c0,0.3,0.3,0.5,0.6,0.5c0.3,0,0.5-0.2,0.5-0.5
		v-2.5C814,350.5,814.5,350,815.1,350L815.1,350z M819.5,353.5c0,0.3,0.2,0.6,0.6,0.6c0.3,0,0.5-0.2,0.5-0.4
		c0.4,0.3,0.9,0.4,1.4,0.4c1.4,0,2.5-1.2,2.5-2.6c0-1.4-1.1-2.6-2.5-2.6c-0.5,0-1,0.2-1.4,0.4v-1.9c0-0.3-0.2-0.6-0.6-0.6
		c-0.3,0-0.6,0.3-0.6,0.6V353.5L819.5,353.5z M821,350.5c0.3-0.3,0.6-0.4,1-0.4c0.4,0,0.7,0.2,1,0.4c0.3,0.3,0.4,0.6,0.4,1
		c0,0.4-0.2,0.8-0.4,1c-0.3,0.3-0.6,0.4-1,0.4c-0.4,0-0.7-0.2-1-0.4c-0.3-0.3-0.4-0.6-0.4-1C820.6,351.1,820.8,350.7,821,350.5
		L821,350.5z M828.4,354.1c0.7,0,1.3-0.2,1.8-0.7c0.2-0.2,0.1-0.5,0-0.7c-0.1-0.2-0.6-0.2-0.8,0c-0.3,0.2-0.7,0.3-1.1,0.3
		c-0.4,0-0.8-0.2-1-0.5c-0.2-0.2-0.3-0.4-0.3-0.7h3.3c0.3,0,0.5-0.2,0.5-0.4c0,0,0-0.1,0-0.1v0c-0.1-1.4-1.1-2.4-2.5-2.4
		c-1.4,0-2.5,1.2-2.5,2.6C825.9,352.9,827,354.1,828.4,354.1L828.4,354.1z M828.4,349.9c0.9,0.1,1.4,0.7,1.5,1.1h-2.9
		C827.1,350.6,827.6,349.9,828.4,349.9L828.4,349.9z M835,348.9c-0.5,0-1,0.2-1.3,0.4c-0.1,0.1-0.2,0.1-0.2,0.2v-0.1
		c0-0.3-0.3-0.5-0.6-0.5c-0.3,0-0.5,0.2-0.5,0.5v4.1c0,0.3,0.2,0.5,0.5,0.5c0.3,0,0.6-0.2,0.6-0.5v-2c0-0.1,0.2-0.5,0.4-0.9
		c0.1-0.2,0.3-0.4,0.5-0.5c0.2-0.1,0.4-0.2,0.6-0.2c0.3,0,0.5-0.3,0.5-0.5C835.5,349.2,835.3,348.9,835,348.9L835,348.9z
		 M802.8,366.9h-2.2l1.9-1.8c0.5-0.5,0.8-1.2,0.8-1.8c0-0.6-0.2-1.2-0.6-1.7c-0.5-0.5-1.2-0.8-1.8-0.8c-0.6,0-1.2,0.2-1.7,0.6
		l-0.3,0.3c-0.2,0.2-0.2,0.6,0,0.8c0.2,0.2,0.6,0.3,0.8,0l0.3-0.3c0.3-0.2,0.6-0.3,0.9-0.3c0.4,0,0.7,0.1,1,0.4
		c0.2,0.3,0.3,0.6,0.3,0.9c0,0.4-0.1,0.7-0.4,1l-3,2.8c-0.2,0.2-0.2,0.6,0,0.8c0.1,0.1,0.3,0.2,0.4,0.2h3.7c0.3,0,0.6-0.2,0.6-0.6
		C803.3,367.2,803.1,366.9,802.8,366.9L802.8,366.9z M805.4,366.9c0.4,0.6,1.1,1.1,1.9,1.1c0.8,0,1.5-0.5,1.9-1.1
		c0.4-0.7,0.7-1.5,0.7-2.5c0-0.9-0.2-1.8-0.7-2.5c-0.4-0.7-1.1-1.1-1.9-1.1c-0.8,0-1.5,0.5-1.9,1.1c-0.5,0.7-0.7,1.5-0.7,2.5
		C804.7,365.4,805,366.3,805.4,366.9z M808.3,366.3c-0.3,0.4-0.6,0.6-1,0.6c-0.3,0-0.7-0.2-1-0.6c-0.3-0.4-0.5-1.1-0.5-1.8
		c0-0.7,0.2-1.4,0.5-1.8c0.3-0.4,0.7-0.6,1-0.6c0.3,0,0.7,0.2,1,0.6c0.3,0.4,0.5,1.1,0.5,1.8C808.8,365.2,808.6,365.9,808.3,366.3
		L808.3,366.3z M814.1,361.4C814.1,361.4,814.1,361.4,814.1,361.4c0-0.1,0-0.1,0-0.1c0,0,0,0,0,0c0,0,0,0,0-0.1c0,0,0,0,0,0l0,0l0,0
		c0,0,0,0,0,0c0,0,0,0,0,0c0,0,0,0,0,0c0,0,0,0,0,0c0,0,0,0-0.1,0c0,0,0,0,0,0c0,0,0,0-0.1,0c0,0,0,0,0,0h-0.1c0,0-0.1,0-0.1,0
		c0,0,0,0,0,0c0,0,0,0-0.1,0c0,0,0,0,0,0c0,0,0,0,0,0l-1.3,0.8c-0.3,0.2-0.4,0.5-0.2,0.8c0.1,0.2,0.3,0.3,0.5,0.3
		c0.1,0,0.2,0,0.3-0.1l0.4-0.2v5.1c0,0.3,0.2,0.6,0.6,0.6c0.3,0,0.6-0.2,0.6-0.6L814.1,361.4L814.1,361.4z M817.4,363
		c-0.2,0-0.5,0-0.7,0.1l0.1-1h2.5c0.3,0,0.6-0.3,0.6-0.6c0-0.3-0.3-0.6-0.6-0.6h-3c-0.1,0-0.2,0-0.3,0.1c0,0,0,0,0,0c0,0,0,0,0,0
		c-0.1,0.1-0.2,0.2-0.3,0.4l-0.3,2.7c0,0,0,0.1,0,0.2c0,0,0,0,0,0c0,0,0,0,0,0.1c0,0,0,0,0,0.1c0,0,0,0,0,0c0,0,0.1,0.1,0.1,0.1
		c0.2,0.2,0.6,0.2,0.8,0c0.3-0.3,0.6-0.4,1-0.4c0.4,0,0.7,0.1,1,0.4c0.3,0.3,0.4,0.6,0.4,1c0,0.4-0.1,0.7-0.4,1
		c-0.3,0.3-0.6,0.4-1,0.4c-0.4,0-0.7-0.1-1-0.4c-0.2-0.2-0.6-0.2-0.8,0c-0.2,0.2-0.2,0.6,0,0.8c0.5,0.5,1.2,0.8,1.8,0.8h0
		c0.7,0,1.3-0.2,1.8-0.8c0.5-0.5,0.8-1.2,0.8-1.8c0-0.7-0.2-1.3-0.8-1.8C818.7,363.2,818.1,363,817.4,363L817.4,363z"/>
	<path d="M635.6,350.3c0,2,1.5,3.7,3.5,3.7c1.9,0,3.4-1.6,3.4-3.7c0-2-1.5-3.7-3.4-3.7C637.2,346.7,635.6,348.3,635.6,350.3z
		 M636.1,350.3c0-1.8,1.3-3.1,3-3.1c1.6,0,2.9,1.4,2.9,3.1c0,1.8-1.4,3.1-2.9,3.1C637.5,353.5,636.1,352.1,636.1,350.3L636.1,350.3z
		 M646.8,354c0.6,0,1.2-0.2,1.6-0.5c0.1-0.1,0.1-0.2,0-0.4c-0.1-0.1-0.2-0.1-0.3,0c-0.4,0.3-0.8,0.4-1.3,0.4c-1.2,0-2.1-0.9-2.1-2
		c0-1.1,0.9-2,2.1-2c0.5,0,0.9,0.2,1.3,0.5c0.1,0.1,0.3,0.1,0.3,0c0.1-0.1,0.1-0.3,0-0.3c-0.4-0.4-1-0.6-1.6-0.6
		c-1.4,0-2.6,1.1-2.6,2.5C644.2,352.9,645.4,354,646.8,354L646.8,354z M652,349h-0.6v-1.9c0-0.1-0.1-0.2-0.3-0.2
		c-0.1,0-0.2,0.1-0.2,0.2v1.9h-0.6c-0.2,0-0.2,0.1-0.2,0.2c0,0.1,0,0.2,0.2,0.2h0.6v3.7c0,0.5,0.4,0.9,0.9,0.9
		c0.1,0,0.3-0.1,0.3-0.2c0-0.1-0.1-0.3-0.3-0.3c-0.1,0-0.4-0.1-0.4-0.4v-3.7h0.6c0.1,0,0.2-0.1,0.2-0.2
		C652.2,349.1,652.1,349,652,349L652,349z M654.2,351.5c0,1.4,1.1,2.5,2.4,2.5c1.3,0,2.4-1.2,2.4-2.5c0-1.4-1.1-2.5-2.4-2.5
		C655.3,349,654.2,350.1,654.2,351.5L654.2,351.5z M654.7,351.5c0-1.1,0.9-2,1.9-2c1,0,1.9,0.9,1.9,2c0,1.1-0.9,2-1.9,2
		C655.6,353.5,654.7,352.6,654.7,351.5L654.7,351.5z M660.9,353.8c0,0.1,0.1,0.2,0.2,0.2c0.1,0,0.3-0.1,0.3-0.2V353
		c0.4,0.6,1.1,1,1.9,1c1.4,0,2.4-1.1,2.4-2.5c0-1.4-1.1-2.5-2.4-2.5c-0.8,0-1.5,0.4-1.9,1V347c0-0.1-0.1-0.2-0.3-0.2
		c-0.1,0-0.2,0.1-0.2,0.2V353.8L660.9,353.8z M661.4,351.4c0-1.1,0.9-1.9,1.9-1.9c1.1,0,1.9,0.9,1.9,2c0,1.1-0.9,2-1.9,2
		C662.2,353.5,661.4,352.6,661.4,351.4L661.4,351.4L661.4,351.4z M669.7,354c0.9,0,1.6-0.5,2-1.1c0.1-0.1,0-0.3-0.1-0.4
		c-0.1-0.1-0.3,0-0.3,0.1c-0.3,0.6-1,0.9-1.6,0.9c-1,0-1.9-0.8-2-1.9h4.1c0.1,0,0.2-0.1,0.2-0.2v0c-0.1-1.3-1.1-2.3-2.4-2.3
		c-1.4,0-2.4,1.1-2.4,2.5C667.3,352.9,668.4,354,669.7,354L669.7,354z M669.7,349.5c0.9,0,1.7,0.7,1.9,1.6h-3.8
		C668,350.1,668.8,349.5,669.7,349.5L669.7,349.5z M673.7,353.8c0,0.1,0.1,0.2,0.3,0.2c0.1,0,0.2-0.1,0.2-0.2v-2.2c0,0,0,0,0-0.1
		c0.1-0.2,0.3-0.7,0.6-1.2c0.3-0.5,0.8-0.8,1.5-0.8c0.1,0,0.2-0.1,0.2-0.2c0-0.1-0.1-0.2-0.2-0.2c-1,0-1.6,0.6-2,1.2
		c0,0-0.1,0.1-0.1,0.1v-1.1c0-0.1-0.1-0.2-0.2-0.2c-0.1,0-0.3,0.1-0.3,0.2L673.7,353.8L673.7,353.8z M645.1,367.9
		c0,0,0.1,0.1,0.2,0.1h4.1c0.1,0,0.2-0.1,0.2-0.2c0-0.1-0.1-0.3-0.2-0.3H646l2.9-2.6c0.5-0.5,0.8-1.1,0.8-1.8c0-0.6-0.2-1.1-0.6-1.6
		c-0.5-0.5-1.1-0.8-1.7-0.8c-0.6,0-1.1,0.2-1.6,0.6l-0.4,0.3c-0.1,0.1-0.1,0.2,0,0.4c0.1,0.1,0.2,0.1,0.4,0l0.3-0.3
		c0.4-0.3,0.8-0.5,1.3-0.5c0.5,0,1,0.2,1.4,0.6c0.3,0.4,0.5,0.8,0.5,1.2c0,0.5-0.2,1-0.6,1.4l-3.4,3
		C645,367.7,645,367.8,645.1,367.9L645.1,367.9z M652,366.9c0.4,0.7,1.1,1.1,1.8,1.1s1.4-0.4,1.8-1.1c0.4-0.7,0.7-1.5,0.7-2.5
		c0-1-0.3-1.9-0.7-2.5c-0.4-0.6-1.1-1.1-1.8-1.1c-0.7,0-1.4,0.4-1.8,1.1c-0.4,0.7-0.7,1.6-0.7,2.5
		C651.3,365.4,651.6,366.2,652,366.9z M652.4,362.2c0.4-0.6,0.9-0.9,1.4-0.9c0.5,0,1,0.3,1.4,0.9c0.4,0.6,0.6,1.3,0.6,2.2
		s-0.2,1.7-0.6,2.2c-0.4,0.5-0.9,0.9-1.4,0.9c-0.5,0-1-0.3-1.4-0.9c-0.4-0.6-0.6-1.3-0.6-2.2C651.8,363.5,652.1,362.7,652.4,362.2
		L652.4,362.2z M659.6,367.8c0,0.1,0.1,0.2,0.2,0.2c0.1,0,0.2-0.1,0.2-0.2v-6.6c0-0.1,0-0.1,0-0.2c-0.1-0.1-0.2-0.2-0.3-0.1
		l-1.4,0.8c-0.1,0.1-0.2,0.2-0.1,0.3c0,0.1,0.1,0.1,0.2,0.1c0,0,0.1,0,0.1,0l1-0.6L659.6,367.8L659.6,367.8z M663.8,368
		c0.6,0,1.3-0.2,1.7-0.7c0.5-0.5,0.7-1.1,0.7-1.7c0-0.6-0.2-1.3-0.7-1.7c-0.5-0.5-1.1-0.7-1.7-0.7c-0.4,0-0.9,0.1-1.2,0.3l0.3-2.1
		h3.1c0.1,0,0.3-0.1,0.3-0.3c0-0.1-0.1-0.3-0.3-0.3h-3.4c-0.1,0-0.1,0-0.2,0.1c-0.1,0-0.1,0.1-0.1,0.2l-0.4,2.9c0,0,0,0,0,0.1
		c0,0,0,0.1,0,0.1c0,0,0,0,0,0v0c0,0,0,0.1,0.1,0.1c0.1,0.1,0.3,0.1,0.4,0c0.4-0.4,0.9-0.6,1.4-0.6c0.5,0,1,0.2,1.4,0.6
		c0.4,0.4,0.6,0.9,0.6,1.4c0,0.5-0.2,1-0.6,1.4c-0.4,0.4-0.9,0.6-1.4,0.6c-0.5,0-1-0.2-1.4-0.6c-0.1-0.1-0.3-0.1-0.4,0
		c-0.1,0.1-0.1,0.3,0,0.4C662.5,367.8,663.2,368,663.8,368L663.8,368z M496,353.9c0,0.1,0.1,0.2,0.2,0.2c0,0,0,0,0.1,0
		c0.1-0.1,0.2-0.2,0.1-0.3l-2.5-6.7c0-0.1-0.1-0.2-0.2-0.2c-0.1,0-0.2,0.1-0.2,0.2l-2.5,6.7c-0.1,0.1,0,0.3,0.1,0.3c0,0,0.1,0,0.1,0
		c0.1,0,0.2-0.1,0.2-0.2l0.6-1.7h3.3L496,353.9L496,353.9z M493.7,347.8l1.5,3.9h-2.9L493.7,347.8L493.7,347.8z M497.7,352
		c0,1.1,0.9,2.1,2,2.1c1.2,0,2.1-0.9,2.1-2.1v-2.7c0-0.1-0.1-0.2-0.3-0.2c-0.1,0-0.2,0.1-0.2,0.2v2.7c0,0.9-0.7,1.6-1.6,1.6
		c-0.9,0-1.5-0.7-1.5-1.6v-2.7c0-0.1-0.1-0.2-0.2-0.2s-0.2,0.1-0.2,0.2V352L497.7,352z M508.5,349.3c0-0.1-0.1-0.2-0.2-0.2
		c-0.1,0-0.3,0.1-0.3,0.2v0.7c-0.4-0.6-1.1-1-1.9-1c-1.3,0-2.4,1.1-2.4,2.5c0,1.4,1,2.5,2.4,2.5c0.8,0,1.5-0.4,1.9-1v0.6
		c0,1-0.8,1.9-1.9,1.9c-0.3,0-0.6-0.1-0.8-0.2c-0.1-0.1-0.3,0-0.3,0.1c-0.1,0.1,0,0.3,0.1,0.3c0.3,0.1,0.7,0.2,1,0.2
		c1.3,0,2.4-1.1,2.4-2.4L508.5,349.3L508.5,349.3z M506.2,353.6c-1,0-1.9-0.9-1.9-2c0-1.1,0.8-2,1.9-2c1,0,1.9,0.9,1.9,2
		C508,352.7,507.2,353.6,506.2,353.6L506.2,353.6z M510.8,352c0,1.1,0.9,2.1,2,2.1c1.2,0,2.1-0.9,2.1-2.1v-2.7
		c0-0.1-0.1-0.2-0.3-0.2c-0.1,0-0.2,0.1-0.2,0.2v2.7c0,0.9-0.7,1.6-1.6,1.6c-0.9,0-1.5-0.7-1.5-1.6v-2.7c0-0.1-0.1-0.2-0.2-0.2
		s-0.2,0.1-0.2,0.2L510.8,352L510.8,352z M516.9,353.4c0.4,0.3,1,0.7,1.9,0.7c0.5,0,0.9-0.1,1.3-0.4c0.3-0.3,0.6-0.6,0.6-1
		s-0.2-0.8-0.6-1c-0.4-0.2-0.7-0.3-1.2-0.4h0c-0.5-0.1-0.8-0.2-1-0.4c-0.2-0.2-0.3-0.3-0.3-0.5c0-0.2,0.1-0.4,0.3-0.6
		c0.2-0.2,0.5-0.3,1-0.3c0.5,0,0.9,0.3,1.2,0.5c0.1,0.1,0.3,0,0.3-0.1c0.1-0.1,0-0.3-0.1-0.4c-0.4-0.2-0.9-0.5-1.5-0.5
		c-0.5,0-0.9,0.1-1.2,0.3c-0.3,0.2-0.5,0.6-0.5,1c0,0.4,0.2,0.7,0.5,0.9c0.3,0.2,0.7,0.3,1.1,0.4l0,0c0.5,0.1,0.9,0.2,1.1,0.4
		c0.3,0.2,0.3,0.4,0.4,0.6c0,0.2-0.1,0.5-0.4,0.6c-0.2,0.2-0.6,0.3-1,0.3c-0.6,0-1.2-0.3-1.5-0.6c-0.1-0.1-0.3-0.1-0.4,0
		C516.8,353.1,516.8,353.3,516.9,353.4L516.9,353.4z M524,349h-0.7v-1.9c0-0.1-0.1-0.2-0.3-0.2c-0.1,0-0.2,0.1-0.2,0.2v1.9h-0.6
		c-0.2,0-0.2,0.1-0.2,0.2c0,0.1,0,0.2,0.2,0.2h0.6v3.7c0,0.5,0.4,0.9,0.9,0.9c0.1,0,0.3-0.1,0.3-0.2c0-0.1-0.1-0.3-0.3-0.3
		c-0.1,0-0.4-0.1-0.4-0.4v-3.7h0.6c0.1,0,0.2-0.1,0.2-0.2C524.2,349.1,524.1,349,524,349L524,349z M497,368c0,0,0.1,0.1,0.2,0.1h4.1
		c0.1,0,0.2-0.1,0.2-0.2c0-0.1-0.1-0.3-0.2-0.3h-3.4l2.9-2.6c0.5-0.5,0.8-1.1,0.8-1.8c0-0.6-0.2-1.1-0.6-1.6
		c-0.5-0.5-1.1-0.8-1.7-0.8c-0.6,0-1.1,0.2-1.6,0.6l-0.4,0.3c-0.1,0.1-0.1,0.2,0,0.4c0.1,0.1,0.2,0.1,0.4,0l0.4-0.3
		c0.4-0.3,0.8-0.5,1.3-0.5c0.5,0,1,0.2,1.4,0.6c0.3,0.3,0.5,0.8,0.5,1.2c0,0.5-0.2,1-0.6,1.4l-3.4,3
		C496.9,367.7,496.9,367.9,497,368L497,368z M503.9,367c0.4,0.6,1.1,1.1,1.8,1.1s1.4-0.4,1.8-1.1c0.4-0.7,0.7-1.5,0.7-2.5
		s-0.3-1.9-0.7-2.5c-0.4-0.6-1.1-1.1-1.8-1.1c-0.7,0-1.4,0.4-1.8,1.1c-0.4,0.7-0.7,1.6-0.7,2.5S503.4,366.3,503.9,367z M504.3,362.2
		c0.4-0.6,0.9-0.9,1.4-0.9c0.5,0,1,0.3,1.4,0.9c0.4,0.6,0.6,1.3,0.6,2.2s-0.2,1.7-0.6,2.2c-0.4,0.5-0.9,0.9-1.4,0.9
		c-0.5,0-1-0.3-1.4-0.9c-0.4-0.6-0.6-1.3-0.6-2.2S503.9,362.8,504.3,362.2z M511.5,367.8c0,0.1,0.1,0.2,0.2,0.2
		c0.1,0,0.2-0.1,0.2-0.2v-6.6c0-0.1,0-0.1,0-0.2c-0.1-0.1-0.2-0.2-0.3-0.1l-1.4,0.8c-0.1,0.1-0.2,0.2-0.1,0.3c0,0.1,0.1,0.1,0.2,0.1
		c0,0,0.1,0,0.1,0l1-0.6L511.5,367.8L511.5,367.8z M515.7,368.1c0.6,0,1.3-0.2,1.7-0.7c0.5-0.5,0.7-1.1,0.7-1.7
		c0-0.6-0.2-1.3-0.7-1.7c-0.5-0.5-1.1-0.7-1.7-0.7c-0.4,0-0.9,0.1-1.2,0.3l0.3-2.1h3.1c0.1,0,0.3-0.1,0.3-0.3c0-0.1-0.1-0.3-0.3-0.3
		h-3.4c-0.1,0-0.1,0-0.2,0.1c-0.1,0-0.1,0.1-0.1,0.2l-0.3,2.9c0,0,0,0,0,0.1c0,0,0,0.1,0,0.1c0,0,0,0,0,0v0c0,0,0,0.1,0.1,0.1
		c0.1,0.1,0.3,0.1,0.4,0c0.4-0.4,0.9-0.6,1.4-0.6c0.5,0,1,0.2,1.4,0.6c0.4,0.4,0.6,0.9,0.6,1.4c0,0.5-0.2,1-0.6,1.4
		c-0.4,0.4-0.9,0.6-1.4,0.6c-0.5,0-1-0.2-1.4-0.6c-0.1-0.1-0.3-0.1-0.4,0c-0.1,0.1-0.1,0.3,0,0.4C514.4,367.8,515,368.1,515.7,368.1
		L515.7,368.1z M363.5,352.4c0.3,1,1.2,1.7,2.3,1.7c1.3,0,2.4-1.1,2.4-2.4v-4.5c0-0.1-0.1-0.2-0.2-0.2s-0.2,0.1-0.2,0.2v4.5
		c0,1.1-0.9,1.9-1.9,1.9c-0.9,0-1.6-0.6-1.9-1.3c0-0.1-0.2-0.2-0.3-0.2C363.6,352.1,363.5,352.2,363.5,352.4L363.5,352.4z M370,352
		c0,1.1,0.9,2.1,2,2.1c1.2,0,2.1-0.9,2.1-2.1v-2.7c0-0.1-0.1-0.2-0.3-0.2c-0.1,0-0.2,0.1-0.2,0.2v2.7c0,0.9-0.7,1.6-1.6,1.6
		c-0.9,0-1.5-0.7-1.5-1.6v-2.7c0-0.1-0.1-0.2-0.2-0.2c-0.1,0-0.2,0.1-0.2,0.2V352L370,352z M379.8,353.8c0,0.1,0.1,0.2,0.2,0.2
		c0.1,0,0.2-0.1,0.2-0.2v-2.7c0-1.1-0.9-2-2-2c-0.6,0-1.2,0.3-1.6,0.7v-0.5c0-0.1-0.1-0.2-0.2-0.2c-0.1,0-0.2,0.1-0.2,0.2v4.6
		c0,0,0,0,0,0c0,0,0,0,0,0c0,0.1,0.1,0.1,0.2,0.1h0.1c0.1,0,0.1,0,0.2-0.1c0,0,0-0.1,0-0.1v-2.8c0-0.9,0.7-1.6,1.6-1.6
		c0.9,0,1.6,0.7,1.6,1.6L379.8,353.8L379.8,353.8z M384.6,354.1c0.9,0,1.6-0.5,2-1.1c0.1-0.1,0-0.3-0.1-0.3c-0.1-0.1-0.3,0-0.3,0.1
		c-0.3,0.6-1,0.9-1.6,0.9c-1,0-1.9-0.8-2-1.9h4.1c0.1,0,0.2-0.1,0.2-0.2v0c-0.1-1.3-1.1-2.3-2.4-2.3c-1.4,0-2.5,1.1-2.5,2.5
		C382.1,352.9,383.2,354.1,384.6,354.1L384.6,354.1z M384.6,349.5c0.9,0,1.7,0.7,1.9,1.6h-3.8C382.8,350.2,383.6,349.5,384.6,349.5
		L384.6,349.5z M364.5,368c0,0,0.1,0.1,0.2,0.1h4.1c0.1,0,0.2-0.1,0.2-0.2c0-0.1-0.1-0.3-0.2-0.3h-3.4l2.9-2.6
		c0.5-0.5,0.8-1.1,0.8-1.8c0-0.6-0.2-1.1-0.6-1.6c-0.5-0.5-1.1-0.8-1.7-0.8c-0.6,0-1.1,0.2-1.6,0.6l-0.4,0.3c-0.1,0.1-0.1,0.2,0,0.4
		c0.1,0.1,0.2,0.1,0.4,0l0.4-0.3c0.4-0.3,0.8-0.5,1.3-0.5c0.5,0,1,0.2,1.4,0.6c0.3,0.3,0.5,0.8,0.5,1.2c0,0.5-0.2,1-0.6,1.4l-3.4,3
		C364.4,367.7,364.4,367.9,364.5,368L364.5,368z M371.4,367c0.4,0.6,1.1,1.1,1.8,1.1c0.7,0,1.4-0.4,1.8-1.1c0.4-0.7,0.7-1.5,0.7-2.5
		s-0.3-1.9-0.7-2.5c-0.4-0.6-1.1-1.1-1.8-1.1c-0.7,0-1.4,0.4-1.8,1.1c-0.4,0.7-0.7,1.6-0.7,2.5S370.9,366.3,371.4,367z M371.8,362.2
		c0.4-0.6,0.9-0.9,1.4-0.9c0.5,0,1,0.3,1.4,0.9c0.4,0.6,0.6,1.3,0.6,2.2s-0.2,1.7-0.6,2.2c-0.4,0.5-0.9,0.9-1.4,0.9
		c-0.5,0-1-0.3-1.4-0.9c-0.4-0.6-0.6-1.3-0.6-2.2S371.4,362.8,371.8,362.2z M379,367.8c0,0.1,0.1,0.2,0.2,0.2c0.1,0,0.2-0.1,0.2-0.2
		v-6.6c0-0.1,0-0.1,0-0.2c-0.1-0.1-0.2-0.2-0.3-0.1l-1.4,0.8c-0.1,0.1-0.2,0.2-0.1,0.3c0,0.1,0.1,0.1,0.2,0.1c0,0,0.1,0,0.1,0l1-0.6
		L379,367.8L379,367.8z M383.2,368.1c0.6,0,1.3-0.2,1.7-0.7c0.5-0.5,0.7-1.1,0.7-1.7c0-0.6-0.2-1.3-0.7-1.7
		c-0.5-0.5-1.1-0.7-1.7-0.7c-0.4,0-0.9,0.1-1.2,0.3l0.3-2.1h3.1c0.1,0,0.3-0.1,0.3-0.3c0-0.1-0.1-0.3-0.3-0.3H382
		c-0.1,0-0.1,0-0.2,0.1c-0.1,0-0.1,0.1-0.1,0.2l-0.4,2.9c0,0,0,0,0,0.1c0,0,0,0.1,0,0.1c0,0,0,0,0,0v0c0,0,0,0.1,0.1,0.1
		c0.1,0.1,0.3,0.1,0.4,0c0.4-0.4,0.9-0.6,1.4-0.6c0.5,0,1,0.2,1.4,0.6c0.4,0.4,0.6,0.9,0.6,1.4c0,0.5-0.2,1-0.6,1.4
		c-0.4,0.4-0.9,0.6-1.4,0.6c-0.5,0-1-0.2-1.4-0.6c-0.1-0.1-0.3-0.1-0.4,0c-0.1,0.1-0.1,0.3,0,0.4
		C381.9,367.8,382.5,368.1,383.2,368.1L383.2,368.1z M257.9,353.9c0,0.1,0.1,0.2,0.2,0.2c0,0,0.1,0,0.1,0c0.1-0.1,0.2-0.2,0.1-0.3
		l-2.5-6.7c0-0.1-0.1-0.2-0.2-0.2c-0.1,0-0.2,0.1-0.2,0.2l-2.5,6.7c-0.1,0.1,0,0.3,0.1,0.3c0,0,0.1,0,0.1,0c0.1,0,0.2-0.1,0.2-0.2
		l0.6-1.7h3.3L257.9,353.9L257.9,353.9z M255.6,347.8l1.4,3.9h-2.9L255.6,347.8z M259.9,355.9c0,0.1,0.1,0.2,0.2,0.2
		c0.1,0,0.3-0.1,0.3-0.2v-2.9c0.4,0.6,1.1,1,1.9,1c1.4,0,2.4-1.1,2.4-2.5c0-1.4-1.1-2.5-2.4-2.5c-0.8,0-1.5,0.4-1.9,1v-0.7
		c0-0.1-0.1-0.2-0.3-0.2c-0.1,0-0.2,0.1-0.2,0.2L259.9,355.9L259.9,355.9z M260.4,351.4c0-1.1,0.9-1.9,1.9-1.9c1.1,0,1.9,0.9,1.9,2
		c0,1.1-0.9,2-1.9,2C261.2,353.5,260.4,352.6,260.4,351.4L260.4,351.4L260.4,351.4z M266.7,353.8c0,0.1,0.1,0.2,0.3,0.2
		c0.1,0,0.2-0.1,0.2-0.2v-2.2c0,0,0,0,0-0.1c0.1-0.2,0.3-0.7,0.6-1.2c0.4-0.5,0.8-0.8,1.5-0.8c0.1,0,0.2-0.1,0.2-0.2
		c0-0.1-0.1-0.2-0.2-0.2c-1,0-1.6,0.6-2,1.2c0,0-0.1,0.1-0.1,0.1v-1.1c0-0.1-0.1-0.2-0.2-0.2c-0.1,0-0.3,0.1-0.3,0.2L266.7,353.8
		L266.7,353.8z M271.2,353.8c0,0.1,0.1,0.2,0.2,0.2c0.1,0,0.3-0.1,0.3-0.2v-4.6c0-0.1-0.1-0.2-0.3-0.2c-0.1,0-0.2,0.1-0.2,0.2
		L271.2,353.8L271.2,353.8z M271.2,347.9c0,0.1,0.1,0.3,0.2,0.3c0.1,0,0.3-0.1,0.3-0.3v-0.2c0-0.1-0.1-0.2-0.3-0.2
		c-0.1,0-0.2,0.1-0.2,0.2L271.2,347.9L271.2,347.9z M273.9,353.8c0,0.1,0.1,0.2,0.2,0.2c0.1,0,0.3-0.1,0.3-0.2v-6.7
		c0-0.1-0.1-0.2-0.3-0.2c-0.1,0-0.2,0.1-0.2,0.2L273.9,353.8L273.9,353.8z M252.9,368c0,0,0.1,0.1,0.2,0.1h4.1
		c0.1,0,0.2-0.1,0.2-0.2c0-0.1-0.1-0.3-0.2-0.3h-3.4l2.9-2.6c0.5-0.5,0.8-1.1,0.8-1.8c0-0.6-0.2-1.1-0.6-1.6
		c-0.5-0.5-1.1-0.8-1.7-0.8c-0.6,0-1.1,0.2-1.6,0.6l-0.4,0.3c-0.1,0.1-0.1,0.2,0,0.4c0.1,0.1,0.2,0.1,0.3,0l0.4-0.3
		c0.4-0.3,0.8-0.5,1.3-0.5c0.5,0,1,0.2,1.4,0.6c0.3,0.3,0.5,0.8,0.5,1.2c0,0.5-0.2,1-0.6,1.4l-3.4,3
		C252.8,367.7,252.8,367.9,252.9,368L252.9,368z M259.8,367c0.4,0.6,1.1,1.1,1.8,1.1c0.7,0,1.4-0.4,1.8-1.1c0.4-0.7,0.7-1.5,0.7-2.5
		s-0.3-1.9-0.7-2.5c-0.4-0.6-1.1-1.1-1.8-1.1c-0.7,0-1.4,0.4-1.8,1.1c-0.4,0.7-0.7,1.6-0.7,2.5S259.3,366.3,259.8,367z M260.2,362.2
		c0.4-0.6,0.9-0.9,1.4-0.9c0.5,0,1,0.3,1.4,0.9c0.4,0.6,0.6,1.3,0.6,2.2s-0.2,1.7-0.6,2.2c-0.4,0.5-0.9,0.9-1.4,0.9
		c-0.5,0-1-0.3-1.4-0.9c-0.4-0.6-0.6-1.3-0.6-2.2S259.8,362.8,260.2,362.2z M267.4,367.8c0,0.1,0.1,0.2,0.2,0.2
		c0.1,0,0.2-0.1,0.2-0.2v-6.6c0-0.1,0-0.1,0-0.2c-0.1-0.1-0.2-0.2-0.3-0.1l-1.4,0.8c-0.1,0.1-0.2,0.2-0.1,0.3c0,0.1,0.1,0.1,0.2,0.1
		c0,0,0.1,0,0.1,0l1-0.6L267.4,367.8L267.4,367.8z M271.6,368.1c0.6,0,1.3-0.2,1.7-0.7c0.5-0.5,0.7-1.1,0.7-1.7
		c0-0.6-0.2-1.3-0.7-1.7c-0.5-0.5-1.1-0.7-1.7-0.7c-0.4,0-0.9,0.1-1.2,0.3l0.3-2.1h3.1c0.1,0,0.3-0.1,0.3-0.3c0-0.1-0.1-0.3-0.3-0.3
		h-3.4c-0.1,0-0.1,0-0.2,0.1c-0.1,0-0.1,0.1-0.1,0.2l-0.4,2.9c0,0,0,0,0,0.1c0,0,0,0.1,0,0.1c0,0,0,0,0,0v0c0,0,0,0.1,0.1,0.1
		c0.1,0.1,0.3,0.1,0.4,0c0.4-0.4,0.9-0.6,1.4-0.6c0.5,0,1,0.2,1.4,0.6c0.4,0.4,0.6,0.9,0.6,1.4c0,0.5-0.2,1-0.6,1.4
		c-0.4,0.4-0.9,0.6-1.4,0.6c-0.5,0-1-0.2-1.4-0.6c-0.1-0.1-0.3-0.1-0.4,0c-0.1,0.1-0.1,0.3,0,0.4
		C270.3,367.8,270.9,368.1,271.6,368.1L271.6,368.1z"/>
	<path class="st8" d="M792.7,425c0-1.2-1-2.2-2.2-2.2h-1.8c-0.3,0-0.6,0.2-0.6,0.6v6.1c0,0.3,0.3,0.6,0.6,0.6c0.3,0,0.6-0.3,0.6-0.6
		v-2.2h1.3C791.8,427.2,792.7,426.2,792.7,425z M789.3,423.9h1.3c0.6,0,1.1,0.5,1.1,1.1c0,0.6-0.5,1.1-1.1,1.1h-1.3L789.3,423.9
		L789.3,423.9z M796.6,424.9c-0.5,0-1,0.2-1.3,0.4c-0.1,0.1-0.2,0.1-0.2,0.2v-0.1c0-0.3-0.3-0.5-0.6-0.5c-0.3,0-0.5,0.2-0.5,0.5v4.1
		c0,0.3,0.2,0.5,0.5,0.5c0.3,0,0.6-0.2,0.6-0.5v-2c0-0.1,0.2-0.5,0.4-0.9c0.1-0.2,0.3-0.4,0.5-0.5c0.2-0.1,0.4-0.2,0.6-0.2
		c0.3,0,0.5-0.3,0.5-0.5C797.2,425.1,796.9,424.9,796.6,424.9L796.6,424.9z M800.2,430c0.7,0,1.3-0.2,1.8-0.7c0.2-0.2,0.1-0.5,0-0.7
		c-0.1-0.2-0.6-0.2-0.8,0c-0.3,0.2-0.7,0.3-1.1,0.3c-0.4,0-0.8-0.2-1-0.5c-0.2-0.2-0.3-0.4-0.3-0.7h3.3c0.3,0,0.5-0.2,0.5-0.4
		c0,0,0-0.1,0-0.1v0c-0.1-1.4-1.1-2.4-2.5-2.4c-1.4,0-2.5,1.2-2.5,2.6C797.7,428.8,798.8,430,800.2,430z M800.2,425.8
		c0.9,0.1,1.4,0.7,1.5,1.1h-2.9C798.9,426.5,799.3,425.9,800.2,425.8L800.2,425.8z M804.6,427.5h1.9c0.3,0,0.6-0.3,0.6-0.6
		c0-0.3-0.3-0.6-0.6-0.6h-1.9c-0.3,0-0.6,0.3-0.6,0.6C804,427.2,804.3,427.5,804.6,427.5L804.6,427.5z M810.7,430
		c0.7,0,1.3-0.3,1.7-0.8c0.5-0.5,0.7-1.1,0.7-1.8c0-0.7-0.3-1.3-0.7-1.8c-0.4-0.5-1-0.8-1.7-0.8c-0.7,0-1.3,0.3-1.8,0.8
		c-0.4,0.5-0.7,1.1-0.7,1.8c0,0.7,0.3,1.4,0.7,1.8C809.4,429.7,810,430,810.7,430z M809.7,426.4c0.3-0.2,0.6-0.4,1-0.4
		c0.4,0,0.7,0.2,0.9,0.4c0.3,0.3,0.4,0.6,0.4,1.1c0,0.4-0.1,0.8-0.4,1.1c-0.3,0.2-0.6,0.4-0.9,0.4c-0.4,0-0.7-0.1-1-0.4
		c-0.2-0.3-0.4-0.6-0.4-1.1C809.4,427,809.5,426.6,809.7,426.4z M817.3,424.9c-0.5,0-1,0.2-1.3,0.4c-0.1,0.1-0.2,0.1-0.2,0.2v-0.1
		c0-0.3-0.3-0.5-0.6-0.5c-0.3,0-0.5,0.2-0.5,0.5v4.1c0,0.3,0.2,0.5,0.5,0.5c0.3,0,0.6-0.2,0.6-0.5v-2c0-0.1,0.2-0.5,0.4-0.9
		c0.1-0.2,0.3-0.4,0.5-0.5c0.2-0.1,0.4-0.2,0.6-0.2c0.3,0,0.5-0.3,0.5-0.5C817.9,425.1,817.6,424.9,817.3,424.9L817.3,424.9z
		 M823.6,427.4v-4.1c0-0.3-0.2-0.6-0.6-0.6c-0.3,0-0.6,0.3-0.6,0.6v1.9c-0.4-0.3-0.9-0.4-1.4-0.4c-1.4,0-2.5,1.2-2.5,2.6
		c0,1.4,1.1,2.6,2.5,2.6c0.5,0,1-0.2,1.4-0.4c0.1,0.2,0.3,0.4,0.5,0.4c0.3,0,0.6-0.3,0.6-0.6L823.6,427.4L823.6,427.4z M822.1,426.4
		c0.3,0.3,0.4,0.6,0.4,1c0,0.4-0.2,0.8-0.4,1c-0.3,0.3-0.6,0.4-1,0.4c-0.4,0-0.7-0.2-1-0.4c-0.3-0.3-0.4-0.6-0.4-1
		c0-0.4,0.2-0.8,0.4-1c0.3-0.3,0.6-0.4,1-0.4C821.5,426,821.8,426.1,822.1,426.4L822.1,426.4z M827.8,430c0.7,0,1.3-0.2,1.8-0.7
		c0.2-0.2,0.1-0.5,0-0.7c-0.1-0.2-0.6-0.2-0.8,0c-0.3,0.2-0.7,0.3-1.1,0.3c-0.4,0-0.8-0.2-1-0.5c-0.2-0.2-0.3-0.4-0.3-0.7h3.3
		c0.3,0,0.5-0.2,0.5-0.4c0,0,0-0.1,0-0.1v0c-0.1-1.4-1.1-2.4-2.5-2.4c-1.4,0-2.5,1.2-2.5,2.6C825.3,428.8,826.3,430,827.8,430
		L827.8,430z M827.8,425.8c0.9,0.1,1.4,0.7,1.5,1.1h-2.9C826.4,426.5,826.9,425.9,827.8,425.8L827.8,425.8z M834.3,424.9
		c-0.5,0-1,0.2-1.3,0.4c-0.1,0.1-0.2,0.1-0.2,0.2v-0.1c0-0.3-0.3-0.5-0.6-0.5c-0.3,0-0.5,0.2-0.5,0.5v4.1c0,0.3,0.2,0.5,0.5,0.5
		c0.3,0,0.6-0.2,0.6-0.5v-2c0-0.1,0.2-0.5,0.4-0.9c0.1-0.2,0.3-0.4,0.5-0.5c0.2-0.1,0.4-0.2,0.6-0.2c0.3,0,0.5-0.3,0.5-0.5
		C834.8,425.1,834.6,424.9,834.3,424.9L834.3,424.9z M799.2,443c0.6,0.5,1.5,1,2.6,1c0.7,0,1.4-0.2,1.9-0.6c0.5-0.4,0.9-0.9,0.9-1.6
		c0-0.3-0.1-0.6-0.2-0.9c-0.2-0.4-0.6-0.6-1-0.9c-0.4-0.2-0.9-0.3-1.4-0.4h0c-0.6-0.1-1-0.3-1.3-0.5c-0.1-0.1-0.2-0.2-0.3-0.3
		c-0.1-0.1-0.1-0.2-0.1-0.3c0-0.2,0.1-0.4,0.4-0.6c0.3-0.2,0.7-0.4,1.2-0.4c0.6,0,1.1,0.3,1.7,0.7c0.2,0.2,0.6,0.1,0.7-0.2
		c0.2-0.2,0.1-0.6-0.1-0.7c-0.5-0.3-1.3-0.8-2.2-0.8c-0.7,0-1.3,0.2-1.8,0.5c-0.5,0.4-0.8,0.9-0.8,1.5c0,0.3,0.1,0.6,0.2,0.8
		c0.2,0.4,0.6,0.6,1,0.8c0.4,0.2,0.8,0.3,1.3,0.4h0c0.6,0.1,1.1,0.3,1.4,0.5c0.2,0.1,0.2,0.2,0.3,0.3c0.1,0.1,0.1,0.2,0.1,0.3
		c0,0.3-0.1,0.5-0.4,0.7c-0.3,0.2-0.8,0.4-1.3,0.4c-0.7,0-1.5-0.4-2-0.8c-0.2-0.2-0.6-0.2-0.8,0.1C799,442.4,799,442.8,799.2,443
		L799.2,443z M807.8,438.9h-0.3v-1.5c0-0.3-0.2-0.6-0.6-0.6c-0.3,0-0.6,0.2-0.6,0.6v1.5h-0.3c-0.3,0-0.6,0.2-0.6,0.6
		c0,0.3,0.2,0.6,0.6,0.6h0.3v2.9c0,0.6,0.5,1.1,1.1,1.1c0.3,0,0.6-0.2,0.6-0.6c0-0.3-0.2-0.6-0.6-0.6V440h0.3c0.3,0,0.6-0.3,0.6-0.6
		C808.4,439.1,808.1,438.9,807.8,438.9L807.8,438.9z M814.2,439.4c0-0.3-0.2-0.6-0.5-0.6c-0.3,0-0.5,0.2-0.5,0.5
		c-0.4-0.3-0.9-0.5-1.4-0.5c-0.7,0-1.3,0.3-1.8,0.8c-0.4,0.5-0.7,1.1-0.7,1.8c0,0.7,0.3,1.3,0.7,1.8c0.4,0.5,1,0.8,1.8,0.8
		c0.5,0,1-0.2,1.4-0.4c0.1,0.2,0.3,0.4,0.5,0.4c0.3,0,0.5-0.2,0.5-0.5L814.2,439.4L814.2,439.4z M812.8,442.5
		c-0.2,0.3-0.6,0.4-1,0.4c-0.4,0-0.7-0.1-1-0.4c-0.2-0.3-0.4-0.6-0.4-1.1c0-0.4,0.1-0.8,0.4-1.1c0.2-0.3,0.6-0.4,1-0.4
		c0.4,0,0.7,0.1,1,0.4c0.2,0.3,0.4,0.6,0.4,1.1C813.2,441.9,813,442.2,812.8,442.5L812.8,442.5z M818.9,438.9c-0.5,0-1,0.2-1.3,0.4
		c-0.1,0.1-0.2,0.1-0.2,0.2v-0.1c0-0.3-0.3-0.5-0.6-0.5c-0.3,0-0.5,0.2-0.5,0.5v4.1c0,0.3,0.2,0.5,0.5,0.5c0.3,0,0.6-0.2,0.6-0.5v-2
		c0.1-0.1,0.2-0.5,0.4-0.9c0.1-0.2,0.3-0.4,0.5-0.5c0.2-0.1,0.4-0.2,0.6-0.2c0.3,0,0.5-0.3,0.5-0.5
		C819.4,439.1,819.2,438.9,818.9,438.9L818.9,438.9z M822.5,438.9h-0.3v-1.5c0-0.3-0.2-0.6-0.6-0.6c-0.3,0-0.6,0.2-0.6,0.6v1.5h-0.3
		c-0.3,0-0.6,0.2-0.6,0.6c0,0.3,0.2,0.6,0.6,0.6h0.3v2.9c0,0.6,0.5,1.1,1.1,1.1c0.3,0,0.6-0.2,0.6-0.6c0-0.3-0.2-0.6-0.6-0.6V440
		h0.3c0.3,0,0.6-0.3,0.6-0.6C823.1,439.1,822.8,438.9,822.5,438.9L822.5,438.9z"/>
	<path d="M496.3,428.8c0,0.1,0.1,0.2,0.2,0.2c0.1,0,0.3-0.1,0.3-0.2v-3.1h3c0.1,0,0.3-0.1,0.3-0.2c0-0.1-0.1-0.3-0.3-0.3h-3v-2.9
		h3.5c0.1,0,0.2-0.1,0.2-0.3c0-0.1-0.1-0.2-0.2-0.2h-3.7c-0.1,0-0.2,0.1-0.2,0.2V428.8L496.3,428.8z M502.4,428.8
		c0,0.1,0.1,0.2,0.2,0.2c0.1,0,0.3-0.1,0.3-0.2v-4.5c0-0.1-0.1-0.2-0.3-0.2c-0.1,0-0.2,0.1-0.2,0.2L502.4,428.8L502.4,428.8z
		 M502.4,422.8c0,0.1,0.1,0.3,0.2,0.3c0.1,0,0.3-0.1,0.3-0.3v-0.2c0-0.1-0.1-0.2-0.3-0.2c-0.1,0-0.2,0.1-0.2,0.2L502.4,422.8
		L502.4,422.8z M507.4,429c0.9,0,1.6-0.5,2-1.1c0.1-0.1,0-0.3-0.1-0.4c-0.1-0.1-0.3,0-0.3,0.1c-0.3,0.6-1,0.9-1.6,0.9
		c-1,0-1.9-0.8-2-1.9h4.1c0.1,0,0.2-0.1,0.2-0.2v0c-0.1-1.3-1.1-2.3-2.4-2.3c-1.4,0-2.5,1.1-2.5,2.5C504.9,427.9,506,429,507.4,429
		L507.4,429z M507.4,424.5c0.9,0,1.7,0.7,1.9,1.6h-3.8C505.6,425.1,506.4,424.5,507.4,424.5L507.4,424.5z M511.6,428.8
		c0,0.1,0.1,0.2,0.2,0.2c0.1,0,0.3-0.1,0.3-0.2V422c0-0.1-0.1-0.2-0.3-0.2c-0.1,0-0.2,0.1-0.2,0.2V428.8z M518.1,428.8
		c0,0.1,0.1,0.2,0.3,0.2c0.1,0,0.2-0.1,0.2-0.2V422c0-0.1-0.1-0.2-0.2-0.2c-0.1,0-0.3,0.1-0.3,0.2v2.9c-0.4-0.6-1.1-1-1.9-1
		c-1.4,0-2.4,1.1-2.4,2.5c0,1.4,1.1,2.5,2.4,2.5c0.8,0,1.5-0.4,1.9-1L518.1,428.8L518.1,428.8z M516.2,428.5c-1.1,0-1.9-0.9-1.9-2
		c0-1.1,0.9-2,1.9-2c1,0,1.9,0.9,1.9,1.9v0.2C518.1,427.6,517.3,428.5,516.2,428.5L516.2,428.5z M482.5,442.8c0,0.1,0.1,0.2,0.2,0.2
		c0.1,0,0.3-0.1,0.3-0.2V436c0-0.1-0.1-0.2-0.3-0.2c-0.1,0-0.2,0.1-0.2,0.2L482.5,442.8L482.5,442.8z M489.1,442.8
		c0,0.1,0.1,0.2,0.2,0.2c0.1,0,0.2-0.1,0.2-0.2V440c0-1.1-0.9-2-2-2c-0.6,0-1.2,0.3-1.6,0.7v-0.5c0-0.1-0.1-0.2-0.2-0.2
		c-0.1,0-0.2,0.1-0.2,0.2v4.6c0,0,0,0,0,0c0,0,0,0,0,0c0,0.1,0.1,0.1,0.2,0.1h0.1c0.1,0,0.1,0,0.2-0.1c0,0,0-0.1,0.1-0.1V440
		c0-0.9,0.7-1.6,1.6-1.6c0.9,0,1.6,0.7,1.6,1.6L489.1,442.8L489.1,442.8z M493.3,438h-0.6v-1.9c0-0.1-0.1-0.2-0.3-0.2
		c-0.1,0-0.2,0.1-0.2,0.2v1.9h-0.6c-0.2,0-0.2,0.1-0.2,0.2c0,0.1,0,0.2,0.2,0.2h0.6v3.7c0,0.5,0.4,0.9,0.9,0.9
		c0.1,0,0.3-0.1,0.3-0.2c0-0.1-0.1-0.3-0.3-0.3c-0.1,0-0.4-0.1-0.4-0.4v-3.7h0.6c0.1,0,0.2-0.1,0.2-0.2
		C493.6,438.1,493.4,438,493.3,438L493.3,438z M497.6,443c0.9,0,1.6-0.5,2-1.1c0.1-0.1,0-0.3-0.1-0.4c-0.1-0.1-0.3,0-0.3,0.1
		c-0.3,0.6-1,0.9-1.6,0.9c-1,0-1.9-0.8-2-1.9h4.1c0.1,0,0.2-0.1,0.2-0.2v0c-0.1-1.3-1.1-2.3-2.4-2.3c-1.4,0-2.5,1.1-2.5,2.5
		C495.1,441.9,496.2,443,497.6,443L497.6,443z M497.6,438.4c0.9,0,1.7,0.7,1.9,1.6h-3.8C495.8,439.1,496.6,438.5,497.6,438.4
		L497.6,438.4z M501.5,442.8c0,0.1,0.1,0.2,0.3,0.2c0.1,0,0.2-0.1,0.2-0.2v-2.2c0,0,0,0,0-0.1c0.1-0.2,0.3-0.7,0.6-1.2
		c0.4-0.5,0.8-0.8,1.5-0.8c0.1,0,0.2-0.1,0.2-0.2c0-0.1-0.1-0.2-0.2-0.2c-1,0-1.6,0.6-2,1.2c0,0,0,0.1-0.1,0.1v-1.1
		c0-0.1-0.1-0.2-0.2-0.2c-0.1,0-0.3,0.1-0.3,0.2L501.5,442.8L501.5,442.8z M507.7,443C507.7,443,507.7,443,507.7,443
		c0.1,0,0.1,0,0.1,0c0.1,0,0.1,0,0.2-0.1c0,0,0-0.1,0.1-0.1l1.9-4.5c0.1-0.1,0-0.3-0.1-0.3c-0.1,0-0.3,0-0.3,0.1l-1.7,4l-1.7-4
		c0-0.1-0.2-0.2-0.3-0.1c-0.1,0-0.2,0.2-0.1,0.3l1.9,4.5C507.6,442.9,507.6,442.9,507.7,443C507.7,443,507.7,443,507.7,443
		L507.7,443z M512.1,442.8c0,0.1,0.1,0.2,0.2,0.2c0.1,0,0.3-0.1,0.3-0.2v-4.5c0-0.1-0.1-0.2-0.3-0.2c-0.1,0-0.2,0.1-0.2,0.2V442.8
		L512.1,442.8z M512.1,436.8c0,0.1,0.1,0.3,0.2,0.3c0.1,0,0.3-0.1,0.3-0.3v-0.2c0-0.1-0.1-0.2-0.3-0.2c-0.1,0-0.2,0.1-0.2,0.2V436.8
		L512.1,436.8z M517,443c0.9,0,1.6-0.5,2-1.1c0.1-0.1,0-0.3-0.1-0.4c-0.1-0.1-0.3,0-0.3,0.1c-0.3,0.6-1,0.9-1.6,0.9
		c-1,0-1.9-0.8-2-1.9h4.1c0.1,0,0.2-0.1,0.2-0.2v0c-0.1-1.3-1.1-2.3-2.4-2.3c-1.4,0-2.4,1.1-2.4,2.5C514.6,441.9,515.7,443,517,443
		L517,443z M517,438.4c0.9,0,1.7,0.7,1.9,1.6h-3.8C515.3,439.1,516.1,438.4,517,438.4L517,438.4z M522.7,443
		C522.7,443,522.7,443,522.7,443c0.2,0,0.3,0,0.3-0.1c0,0,0,0,0,0l1.2-2.8l1.2,2.8l0,0c0,0.1,0.1,0.1,0.2,0.2h0.1c0,0,0.1,0,0.1-0.1
		c0,0,0.1-0.1,0.1-0.1l1.9-4.5c0-0.1,0-0.3-0.1-0.3c-0.1,0-0.3,0-0.3,0.1l-1.7,4l-1.2-2.8c0-0.1-0.1-0.2-0.2-0.2
		c-0.1,0-0.2,0.1-0.2,0.2l-1.2,2.8l-1.7-4c0-0.1-0.2-0.2-0.3-0.1c-0.1,0-0.2,0.2-0.1,0.3l1.9,4.5C522.6,442.9,522.6,442.9,522.7,443
		C522.7,443,522.7,443,522.7,443L522.7,443z M529.3,442.3c0.4,0.3,1,0.7,1.9,0.7c0.5,0,0.9-0.1,1.3-0.4c0.3-0.3,0.6-0.6,0.6-1
		c0-0.4-0.2-0.8-0.6-1c-0.4-0.2-0.7-0.3-1.2-0.4h0c-0.5-0.1-0.8-0.2-1-0.4c-0.2-0.2-0.3-0.3-0.3-0.5s0.1-0.4,0.3-0.6
		c0.2-0.2,0.5-0.3,1-0.3c0.5,0,0.9,0.3,1.2,0.5c0.1,0.1,0.3,0,0.3-0.1c0.1-0.1,0-0.3-0.1-0.4c-0.4-0.2-0.9-0.5-1.5-0.5
		c-0.5,0-0.9,0.1-1.2,0.3c-0.3,0.2-0.5,0.6-0.5,1c0,0.4,0.2,0.7,0.5,0.9c0.3,0.2,0.7,0.3,1.1,0.4l0,0c0.5,0.1,0.9,0.2,1.1,0.4
		c0.3,0.2,0.4,0.4,0.4,0.6c0,0.2-0.1,0.5-0.4,0.6c-0.2,0.2-0.6,0.3-1,0.3c-0.6,0-1.2-0.3-1.5-0.6c-0.1-0.1-0.3-0.1-0.3,0
		C529.2,442,529.2,442.2,529.3,442.3L529.3,442.3z M346.2,425.4c0,2,1.7,3.6,3.7,3.6c0.9,0,1.7-0.3,2.3-0.8c0.1-0.1,0.1-0.3,0-0.4
		c-0.1-0.1-0.2-0.1-0.4-0.1c-0.5,0.5-1.2,0.7-2,0.7c-1.8,0-3.2-1.4-3.2-3.1c0-1.8,1.4-3.2,3.2-3.2c0.8,0,1.5,0.3,2,0.7
		c0.1,0.1,0.3,0.1,0.4-0.1c0.1-0.1,0.1-0.3,0-0.4c-0.6-0.5-1.4-0.8-2.3-0.8C347.9,421.7,346.2,423.3,346.2,425.4L346.2,425.4z
		 M354,426.5c0,1.4,1.1,2.5,2.4,2.5c1.3,0,2.4-1.2,2.4-2.5c0-1.4-1.1-2.5-2.4-2.5C355.1,424,354,425.1,354,426.5L354,426.5z
		 M354.5,426.5c0-1.1,0.9-2,1.9-2c1,0,1.9,0.9,1.9,2c0,1.1-0.9,2-1.9,2C355.4,428.5,354.5,427.6,354.5,426.5L354.5,426.5z
		 M364.3,428.7c0,0.1,0.1,0.2,0.2,0.2c0.1,0,0.2-0.1,0.2-0.2V426c0-1.1-0.9-2-2.1-2c-0.6,0-1.2,0.3-1.6,0.7v-0.5
		c0-0.1-0.1-0.2-0.2-0.2c-0.1,0-0.2,0.1-0.2,0.2v4.6c0,0,0,0,0,0c0,0,0,0,0,0c0,0.1,0.1,0.1,0.2,0.1h0.1c0.1,0,0.1,0,0.2-0.1
		c0,0,0-0.1,0.1-0.1V426c0-0.9,0.7-1.6,1.6-1.6c0.9,0,1.6,0.7,1.6,1.6L364.3,428.7L364.3,428.7z M369.3,429c0.6,0,1.2-0.2,1.6-0.5
		c0.1-0.1,0.1-0.2,0-0.4c-0.1-0.1-0.2-0.1-0.3,0c-0.4,0.3-0.8,0.4-1.3,0.4c-1.2,0-2.1-0.9-2.1-2c0-1.1,0.9-2,2.1-2
		c0.5,0,0.9,0.2,1.3,0.5c0.1,0.1,0.3,0,0.3,0c0.1-0.1,0.1-0.3,0-0.3c-0.4-0.3-1-0.6-1.6-0.6c-1.4,0-2.6,1.1-2.6,2.5
		C366.7,427.9,367.8,429,369.3,429L369.3,429z M374.8,429c0.9,0,1.6-0.5,2-1.1c0.1-0.1,0-0.3-0.1-0.3c-0.1-0.1-0.3,0-0.3,0.1
		c-0.3,0.6-1,0.9-1.6,0.9c-1,0-1.9-0.8-2-1.9h4.1c0.1,0,0.2-0.1,0.2-0.2v0c-0.1-1.3-1.1-2.3-2.4-2.3c-1.4,0-2.5,1.1-2.5,2.5
		C372.4,427.9,373.5,429,374.8,429L374.8,429z M374.8,424.4c0.9,0,1.7,0.7,1.9,1.6h-3.8C373.1,425.1,373.9,424.4,374.8,424.4z
		 M379,430.9c0,0.1,0.1,0.2,0.2,0.2c0.1,0,0.3-0.1,0.3-0.2V428c0.4,0.6,1.1,1,1.9,1c1.4,0,2.4-1.1,2.4-2.5c0-1.4-1.1-2.5-2.4-2.5
		c-0.8,0-1.5,0.4-1.9,1v-0.7c0-0.1-0.1-0.2-0.3-0.2c-0.1,0-0.2,0.1-0.2,0.2L379,430.9L379,430.9z M379.5,426.4
		c0-1.1,0.9-1.9,1.9-1.9c1.1,0,1.9,0.9,1.9,2c0,1.1-0.9,2-1.9,2C380.4,428.5,379.5,427.6,379.5,426.4L379.5,426.4L379.5,426.4z
		 M387.3,424h-0.6v-1.9c0-0.1-0.1-0.2-0.3-0.2c-0.1,0-0.2,0.1-0.2,0.2v1.9h-0.6c-0.2,0-0.2,0.1-0.2,0.2c0,0.1,0,0.2,0.2,0.2h0.6v3.7
		c0,0.5,0.4,0.9,0.9,0.9c0.1,0,0.3-0.1,0.3-0.2c0-0.1-0.1-0.3-0.3-0.3c-0.1,0-0.4-0.1-0.4-0.4v-3.7h0.6c0.1,0,0.2-0.1,0.2-0.2
		C387.6,424.1,387.4,424,387.3,424L387.3,424z M389.8,426.9c0,1.1,0.9,2.1,2,2.1c1.2,0,2.1-0.9,2.1-2.1v-2.7c0-0.1-0.1-0.2-0.3-0.2
		c-0.1,0-0.2,0.1-0.2,0.2v2.7c0,0.9-0.7,1.6-1.6,1.6c-0.9,0-1.5-0.7-1.5-1.6v-2.7c0-0.1-0.1-0.2-0.2-0.2s-0.2,0.1-0.2,0.2
		L389.8,426.9L389.8,426.9z M400.2,424c-0.1,0-0.2,0.1-0.2,0.2v0.7c-0.4-0.6-1.1-1-1.9-1c-1.3,0-2.4,1.1-2.4,2.5
		c0,1.4,1.1,2.5,2.4,2.5c0.8,0,1.5-0.4,1.9-1v0.8c0,0.1,0.1,0.2,0.2,0.2c0.1,0,0.2-0.1,0.2-0.2v-4.6
		C400.5,424.1,400.4,424,400.2,424L400.2,424z M398.1,428.5c-1,0-1.9-0.9-1.9-2c0-1.1,0.9-2,1.9-2c1,0,1.9,0.9,1.9,2
		C400,427.6,399.1,428.5,398.1,428.5L398.1,428.5z M402.5,425.6h2.2c0.1,0,0.2-0.1,0.2-0.2c0-0.1-0.1-0.2-0.2-0.2h-2.2
		c-0.1,0-0.2,0.1-0.2,0.2C402.3,425.5,402.4,425.6,402.5,425.6L402.5,425.6z M358.4,442.7c0,0.1,0.1,0.2,0.2,0.2
		c0.1,0,0.3-0.1,0.3-0.2V436c0-0.1-0.1-0.2-0.3-0.2c-0.1,0-0.2,0.1-0.2,0.2L358.4,442.7L358.4,442.7z M360.9,442.7
		c0,0.1,0.1,0.2,0.2,0.2c0.1,0,0.3-0.1,0.3-0.2v-4.6c0-0.1-0.1-0.2-0.3-0.2c-0.1,0-0.2,0.1-0.2,0.2L360.9,442.7L360.9,442.7z
		 M360.9,436.8c0,0.1,0.1,0.3,0.2,0.3c0.1,0,0.3-0.1,0.3-0.3v-0.2c0-0.1-0.1-0.2-0.3-0.2c-0.1,0-0.2,0.1-0.2,0.2L360.9,436.8
		L360.9,436.8z M363.4,442.3c0.4,0.3,1,0.7,1.9,0.7c0.5,0,0.9-0.1,1.3-0.4c0.3-0.3,0.6-0.6,0.6-1c0-0.4-0.2-0.8-0.6-1
		c-0.4-0.2-0.7-0.3-1.2-0.4h0c-0.5-0.1-0.8-0.2-1-0.4c-0.2-0.2-0.3-0.3-0.3-0.5s0.1-0.4,0.3-0.6c0.2-0.2,0.5-0.3,1-0.3
		c0.5,0,0.9,0.3,1.2,0.5c0.1,0.1,0.3,0,0.3-0.1c0.1-0.1,0-0.3-0.1-0.4c-0.4-0.2-0.9-0.5-1.5-0.5c-0.5,0-0.9,0.1-1.2,0.3
		c-0.3,0.2-0.5,0.6-0.5,1c0,0.4,0.2,0.7,0.5,0.9c0.3,0.2,0.7,0.3,1.1,0.4l0,0c0.5,0.1,0.9,0.2,1.1,0.4c0.3,0.2,0.4,0.4,0.4,0.6
		c0,0.2-0.1,0.5-0.4,0.6c-0.2,0.2-0.6,0.3-1,0.3c-0.6,0-1.2-0.3-1.5-0.6c-0.1-0.1-0.3-0.1-0.4,0C363.3,442,363.3,442.2,363.4,442.3
		L363.4,442.3z M372.8,438c-0.1,0-0.2,0.1-0.2,0.2v0.7c-0.4-0.6-1.1-1-1.9-1c-1.3,0-2.4,1.1-2.4,2.5c0,1.4,1.1,2.5,2.4,2.5
		c0.8,0,1.5-0.4,1.9-1v0.8c0,0.1,0.1,0.2,0.2,0.2s0.2-0.1,0.2-0.2v-4.5C373.1,438.1,372.9,438,372.8,438L372.8,438z M370.7,442.5
		c-1,0-1.9-0.9-1.9-2c0-1.1,0.9-2,1.9-2c1,0,1.9,0.9,1.9,2C372.6,441.6,371.7,442.5,370.7,442.5L370.7,442.5z M376.7,438h-0.6v-1.9
		c0-0.1-0.1-0.2-0.3-0.2c-0.1,0-0.2,0.1-0.2,0.2v1.9h-0.6c-0.2,0-0.2,0.1-0.2,0.2c0,0.1,0,0.2,0.2,0.2h0.6v3.7
		c0,0.5,0.4,0.9,0.9,0.9c0.1,0,0.3-0.1,0.3-0.2c0-0.1-0.1-0.3-0.3-0.3c-0.1,0-0.4-0.1-0.4-0.4v-3.7h0.6c0.1,0,0.2-0.1,0.2-0.2
		C377,438.1,376.8,438,376.7,438L376.7,438z M379.3,442.7c0,0.1,0.1,0.2,0.2,0.2c0.1,0,0.3-0.1,0.3-0.2v-4.6c0-0.1-0.1-0.2-0.3-0.2
		c-0.1,0-0.2,0.1-0.2,0.2L379.3,442.7L379.3,442.7z M379.3,436.8c0,0.1,0.1,0.3,0.2,0.3c0.1,0,0.3-0.1,0.3-0.3v-0.2
		c0-0.1-0.1-0.2-0.3-0.2c-0.1,0-0.2,0.1-0.2,0.2L379.3,436.8L379.3,436.8z M382,440.5c0,1.4,1.1,2.5,2.4,2.5c1.3,0,2.4-1.2,2.4-2.5
		c0-1.4-1.1-2.5-2.4-2.5C383,438,382,439.1,382,440.5L382,440.5z M382.5,440.5c0-1.1,0.9-2,1.9-2c1,0,1.9,0.9,1.9,2
		c0,1.1-0.9,2-1.9,2C383.3,442.5,382.5,441.6,382.5,440.5L382.5,440.5z M392.2,442.7c0,0.1,0.1,0.2,0.2,0.2c0.1,0,0.2-0.1,0.2-0.2
		V440c0-1.1-0.9-2-2-2c-0.6,0-1.2,0.3-1.6,0.7v-0.5c0-0.1-0.1-0.2-0.2-0.2c-0.1,0-0.2,0.1-0.2,0.2v4.6c0,0,0,0,0,0c0,0,0,0,0,0
		c0,0.1,0.1,0.1,0.2,0.1h0.1c0.1,0,0.1,0,0.2-0.1c0,0,0-0.1,0.1-0.1V440c0-0.9,0.7-1.6,1.6-1.6c0.9,0,1.6,0.7,1.6,1.6L392.2,442.7
		L392.2,442.7z M252.9,428.8c0,0.1,0.1,0.2,0.2,0.2h2.1c1.1,0,2.1-0.9,2.1-2.1c0-0.9-0.6-1.7-1.4-1.9c0.4-0.3,0.7-0.8,0.7-1.4
		c0-1-0.8-1.8-1.8-1.8h-1.6c-0.1,0-0.2,0.1-0.2,0.2C252.9,422,252.9,428.8,252.9,428.8z M253.4,428.5v-3.1h1.8
		c0.9,0,1.5,0.7,1.6,1.6c0,0.9-0.7,1.6-1.6,1.6H253.4L253.4,428.5z M253.4,424.9v-2.6h1.3c0.7,0,1.3,0.6,1.3,1.3
		c0,0.7-0.6,1.3-1.3,1.3L253.4,424.9L253.4,424.9z M258.5,428.8c0,0.1,0.1,0.2,0.2,0.2c0.1,0,0.3-0.1,0.3-0.2v-4.6
		c0-0.1-0.1-0.2-0.3-0.2c-0.1,0-0.2,0.1-0.2,0.2L258.5,428.8L258.5,428.8z M258.5,422.8c0,0.1,0.1,0.3,0.2,0.3
		c0.1,0,0.3-0.1,0.3-0.3v-0.2c0-0.1-0.1-0.2-0.3-0.2c-0.1,0-0.2,0.1-0.2,0.2L258.5,422.8L258.5,422.8z M261.4,428.8
		c0,0.1,0.1,0.2,0.3,0.2c0.1,0,0.2-0.1,0.2-0.2v-2.2c0,0,0,0,0-0.1c0.1-0.2,0.3-0.7,0.6-1.2c0.4-0.5,0.8-0.8,1.5-0.8
		c0.1,0,0.2-0.1,0.2-0.2c0-0.1-0.1-0.2-0.2-0.2c-1,0-1.6,0.6-2,1.2c0,0-0.1,0.1-0.1,0.1v-1.1c0-0.1-0.1-0.2-0.2-0.2
		c-0.1,0-0.3,0.1-0.3,0.2V428.8L261.4,428.8z M267.5,424h-0.6v-1.9c0-0.1-0.1-0.2-0.3-0.2c-0.1,0-0.2,0.1-0.2,0.2v1.9h-0.6
		c-0.2,0-0.2,0.1-0.2,0.2c0,0.1,0,0.2,0.2,0.2h0.6v3.7c0,0.5,0.4,0.9,0.9,0.9c0.1,0,0.3-0.1,0.3-0.2c0-0.1-0.1-0.3-0.3-0.3
		c-0.1,0-0.4-0.1-0.4-0.4v-3.7h0.6c0.1,0,0.2-0.1,0.2-0.2C267.7,424.1,267.6,424,267.5,424L267.5,424z M273.6,428.8
		c0,0.1,0.1,0.2,0.2,0.2c0.1,0,0.3-0.1,0.3-0.2v-2.8c0-1.2-0.9-2-2.1-2c-0.6,0-1.2,0.3-1.6,0.7V422c0-0.1-0.1-0.2-0.3-0.2
		c-0.1,0-0.2,0.1-0.2,0.2v6.7c0,0,0,0,0,0.1c0,0,0,0.1,0,0.1c0.1,0.1,0.1,0.1,0.2,0.1h0.1c0,0,0,0,0,0c0.1,0,0.1-0.1,0.2-0.1
		c0,0,0,0,0,0c0,0,0,0,0,0v-2.8c0-0.9,0.7-1.5,1.6-1.5c0.9,0,1.6,0.6,1.6,1.5L273.6,428.8L273.6,428.8z"/>
	<path class="st8" d="M1066.1,458.6c0.8,0.6,2,1.4,3.5,1.4c1,0,1.9-0.3,2.5-0.8c0.7-0.5,1.2-1.2,1.2-2.1c0-0.4-0.1-0.8-0.3-1.2
		c-0.3-0.5-0.8-0.9-1.4-1.1c-0.6-0.3-1.2-0.4-1.9-0.6h0c-0.7-0.1-1.4-0.4-1.7-0.6c-0.2-0.1-0.3-0.2-0.4-0.4
		c-0.1-0.1-0.1-0.2-0.1-0.4c0-0.3,0.2-0.6,0.5-0.9c0.4-0.3,0.9-0.5,1.5-0.5c0.8,0,1.5,0.4,2.2,0.9c0.3,0.2,0.8,0.1,1-0.2
		c0.2-0.3,0.1-0.8-0.2-1c-0.7-0.5-1.7-1.1-3-1.1c-0.9,0-1.7,0.3-2.4,0.7c-0.6,0.5-1.1,1.2-1.1,2c0,0.4,0.1,0.8,0.3,1.1
		c0.3,0.5,0.8,0.8,1.3,1.1c0.5,0.2,1.1,0.4,1.8,0.5h0c0.8,0.2,1.5,0.4,1.9,0.6c0.2,0.1,0.3,0.3,0.4,0.4c0.1,0.1,0.1,0.3,0.1,0.4
		c0,0.3-0.2,0.7-0.6,1c-0.4,0.3-1,0.5-1.7,0.5c-1,0-2-0.6-2.6-1.1c-0.3-0.2-0.8-0.2-1,0.1C1065.7,457.9,1065.8,458.4,1066.1,458.6
		L1066.1,458.6z M1077.5,453.1h-0.3v-2c0-0.4-0.3-0.8-0.8-0.8c-0.4,0-0.8,0.3-0.8,0.8v2h-0.4c-0.4,0-0.8,0.3-0.8,0.8
		c0,0.4,0.3,0.8,0.8,0.8h0.4v3.8c0,0.8,0.7,1.5,1.5,1.5c0.4,0,0.8-0.3,0.8-0.8c0-0.4-0.3-0.8-0.8-0.8v-3.8h0.3
		c0.4,0,0.8-0.3,0.8-0.8C1078.3,453.5,1077.9,453.1,1077.5,453.1L1077.5,453.1z M1086.1,453.9c0-0.4-0.3-0.7-0.7-0.7
		c-0.4,0-0.6,0.3-0.7,0.6c-0.5-0.4-1.1-0.6-1.8-0.6c-0.9,0-1.7,0.4-2.3,1c-0.6,0.6-0.9,1.5-0.9,2.4c0,0.9,0.3,1.8,0.9,2.4
		c0.6,0.6,1.4,1,2.3,1c0.7,0,1.3-0.2,1.8-0.6c0.1,0.3,0.4,0.6,0.7,0.6c0.4,0,0.7-0.3,0.7-0.7L1086.1,453.9L1086.1,453.9z
		 M1084.1,458c-0.3,0.3-0.8,0.5-1.3,0.5c-0.5,0-1-0.2-1.3-0.5c-0.3-0.4-0.5-0.9-0.5-1.4c0-0.6,0.2-1.1,0.5-1.4
		c0.3-0.4,0.8-0.6,1.3-0.6c0.5,0,0.9,0.2,1.3,0.6c0.3,0.3,0.5,0.8,0.5,1.4C1084.6,457.1,1084.4,457.6,1084.1,458L1084.1,458z
		 M1092.3,453.2c-0.7,0-1.3,0.2-1.7,0.5c-0.1,0.1-0.2,0.2-0.3,0.3v-0.1c0-0.4-0.3-0.7-0.8-0.7c-0.4,0-0.7,0.3-0.7,0.7v5.4
		c0,0.4,0.3,0.7,0.7,0.7c0.4,0,0.8-0.3,0.8-0.7v-2.6c0.1-0.2,0.2-0.7,0.6-1.2c0.2-0.3,0.4-0.5,0.6-0.7c0.2-0.2,0.5-0.3,0.8-0.3
		c0.4,0,0.7-0.3,0.7-0.7C1093,453.5,1092.7,453.2,1092.3,453.2L1092.3,453.2z M1097.1,453.1h-0.3v-2c0-0.4-0.3-0.8-0.8-0.8
		c-0.4,0-0.8,0.3-0.8,0.8v2h-0.4c-0.4,0-0.8,0.3-0.8,0.8c0,0.4,0.3,0.8,0.8,0.8h0.4v3.8c0,0.8,0.7,1.5,1.5,1.5
		c0.4,0,0.8-0.3,0.8-0.8c0-0.4-0.3-0.8-0.8-0.8v-3.8h0.3c0.4,0,0.8-0.3,0.8-0.8C1097.9,453.5,1097.5,453.1,1097.1,453.1
		L1097.1,453.1z M1102.6,460c1,0,1.8-0.3,2.5-0.9c0.3-0.3,0.2-0.7,0-0.9c-0.2-0.2-0.7-0.3-1,0c-0.3,0.3-0.9,0.4-1.4,0.3
		c-0.5,0-1-0.3-1.3-0.6c-0.2-0.2-0.4-0.6-0.5-0.9h4.4c0.4,0,0.7-0.2,0.7-0.5c0,0,0-0.1,0-0.1v-0.1c-0.1-1.9-1.5-3.2-3.3-3.2
		c-1.9,0-3.3,1.6-3.3,3.4C1099.3,458.4,1100.7,460,1102.6,460L1102.6,460z M1102.6,454.4c1.2,0.1,1.9,0.9,2,1.5h-3.9
		C1100.9,455.3,1101.5,454.5,1102.6,454.4L1102.6,454.4z M1111.3,453.1c-0.7,0-1.3,0.2-1.7,0.5c-0.1,0.1-0.2,0.2-0.3,0.3v-0.1
		c0-0.4-0.3-0.7-0.8-0.7c-0.4,0-0.7,0.3-0.7,0.7v5.4c0,0.4,0.3,0.7,0.7,0.7c0.4,0,0.8-0.3,0.8-0.7v-2.6c0.1-0.2,0.2-0.7,0.6-1.2
		c0.2-0.3,0.4-0.5,0.6-0.7c0.2-0.2,0.5-0.3,0.8-0.3c0.4,0,0.7-0.3,0.7-0.7C1112,453.5,1111.7,453.2,1111.3,453.1L1111.3,453.1z
		 M1118.9,460c0.4,0,0.8-0.3,0.8-0.8v-1.9l1.4-1.5l3,3.9c0.2,0.2,0.4,0.3,0.6,0.3c0.2,0,0.3-0.1,0.5-0.2c0.3-0.3,0.4-0.7,0.1-1.1
		l-3-4l3-3c0.3-0.3,0.3-0.8,0-1.1c-0.3-0.3-0.8-0.3-1.1,0l-4.4,4.5v-3.9c0-0.4-0.3-0.8-0.8-0.8c-0.4,0-0.8,0.4-0.8,0.8v8
		C1118.1,459.7,1118.4,460,1118.9,460L1118.9,460z M1128.5,453.2c-0.4,0-0.7,0.3-0.7,0.8v5.4c0,0.4,0.3,0.7,0.7,0.7
		c0.4,0,0.7-0.3,0.7-0.7v-5.4C1129.3,453.5,1129,453.2,1128.5,453.2L1128.5,453.2z M1129.3,451.1c0-0.4-0.3-0.7-0.7-0.7
		c-0.4,0-0.7,0.3-0.7,0.7v0.3c0,0.4,0.3,0.8,0.7,0.8c0.4,0,0.7-0.3,0.7-0.8V451.1z M1133.9,453.1h-0.3v-2c0-0.4-0.3-0.8-0.8-0.8
		c-0.4,0-0.8,0.3-0.8,0.8v2h-0.4c-0.4,0-0.8,0.3-0.8,0.8c0,0.4,0.3,0.8,0.8,0.8h0.4v3.8c0,0.8,0.7,1.5,1.5,1.5
		c0.4,0,0.8-0.3,0.8-0.8c0-0.4-0.3-0.8-0.8-0.8v-3.8h0.3c0.4,0,0.8-0.3,0.8-0.8C1134.7,453.5,1134.4,453.1,1133.9,453.1
		L1133.9,453.1z M1081.3,476.4c0-0.1-0.1-0.4-0.1-0.8c0-0.6-0.2-1.1-0.5-1.5c-0.1-0.2-0.3-0.4-0.5-0.5c0.7-0.5,1.1-1.3,1.1-2.2
		c0-1.6-1.3-2.9-2.9-2.9h-2.5c-0.4,0-0.8,0.3-0.8,0.8v8.1c0,0.4,0.3,0.8,0.8,0.8c0.4,0,0.8-0.3,0.8-0.8v-3h1.6
		c0.1,0,0.5,0.1,0.8,0.3c0.2,0.1,0.3,0.2,0.4,0.4c0.1,0.1,0.2,0.3,0.2,0.6c0,0.8,0.1,1.2,0.3,1.6c0.1,0.2,0.3,0.4,0.4,0.5
		c0.2,0.1,0.4,0.1,0.5,0.1h0c0.1,0,0.2,0,0.3,0c0.4-0.1,0.6-0.6,0.5-1C1081.7,476.6,1081.5,476.5,1081.3,476.4L1081.3,476.4z
		 M1078.4,472.7h-1.7v-2.8h1.7c0.8,0,1.4,0.6,1.4,1.4C1079.8,472.1,1079.2,472.7,1078.4,472.7z M1086.5,478c1,0,1.8-0.3,2.5-0.9
		c0.3-0.3,0.2-0.7,0-0.9c-0.2-0.2-0.7-0.3-1,0c-0.3,0.3-0.9,0.4-1.4,0.3c-0.5,0-1-0.3-1.3-0.6c-0.2-0.2-0.4-0.6-0.5-0.9h4.4
		c0.4,0,0.7-0.2,0.7-0.5c0,0,0-0.1,0-0.1v-0.1c-0.1-1.9-1.5-3.2-3.3-3.2c-1.9,0-3.3,1.6-3.3,3.4C1083.2,476.4,1084.7,478,1086.5,478
		L1086.5,478z M1086.5,472.4c1.2,0.1,1.9,0.9,2,1.5h-3.9C1084.8,473.3,1085.4,472.5,1086.5,472.4L1086.5,472.4z M1092.1,469.1v8.1
		c0,0.4,0.3,0.8,0.8,0.8c0.4,0,0.8-0.3,0.8-0.8v-8.1c0-0.4-0.3-0.8-0.8-0.8C1092.5,468.4,1092.1,468.7,1092.1,469.1L1092.1,469.1z
		 M1098.9,478c1,0,1.8-0.3,2.5-0.9c0.3-0.3,0.2-0.7,0-0.9c-0.2-0.2-0.7-0.3-1,0c-0.3,0.3-0.9,0.4-1.4,0.3c-0.5,0-1-0.3-1.3-0.6
		c-0.2-0.2-0.4-0.6-0.5-0.9h4.4c0.4,0,0.7-0.2,0.7-0.5c0,0,0-0.1,0-0.1v-0.1c-0.1-1.9-1.5-3.2-3.3-3.2c-1.9,0-3.3,1.6-3.3,3.4
		C1095.6,476.4,1097.1,478,1098.9,478L1098.9,478z M1098.9,472.4c1.2,0.1,1.9,0.9,2,1.5h-3.9
		C1097.2,473.3,1097.8,472.5,1098.9,472.4L1098.9,472.4z M1110.2,471.9c0-0.4-0.3-0.7-0.7-0.7c-0.4,0-0.6,0.3-0.7,0.6
		c-0.5-0.4-1.1-0.6-1.8-0.6c-0.9,0-1.7,0.4-2.3,1c-0.6,0.6-0.9,1.5-0.9,2.4c0,0.9,0.3,1.8,0.9,2.4c0.6,0.6,1.4,1,2.3,1
		c0.7,0,1.3-0.2,1.8-0.6c0.1,0.3,0.4,0.6,0.7,0.6c0.4,0,0.7-0.3,0.7-0.7L1110.2,471.9L1110.2,471.9z M1108.2,476
		c-0.3,0.3-0.8,0.5-1.3,0.5c-0.5,0-1-0.2-1.3-0.5c-0.3-0.4-0.5-0.9-0.5-1.4c0-0.6,0.2-1.1,0.5-1.4c0.3-0.4,0.8-0.6,1.3-0.6
		c0.5,0,0.9,0.2,1.3,0.6c0.3,0.3,0.5,0.8,0.5,1.4C1108.8,475.1,1108.6,475.6,1108.2,476L1108.2,476z M1112.7,477
		c0.6,0.4,1.4,0.9,2.4,0.9c0.7,0,1.3-0.2,1.8-0.6c0.5-0.4,0.9-0.9,0.9-1.6c0-0.3-0.1-0.6-0.3-0.9c-0.2-0.4-0.6-0.6-1-0.8
		c-0.4-0.2-0.8-0.3-1.3-0.4h0l0,0c-0.5-0.1-0.8-0.2-1-0.3c-0.1-0.1-0.1-0.1-0.2-0.1c0,0,0-0.1,0-0.1c0-0.1,0-0.2,0.2-0.3
		c0.2-0.1,0.5-0.2,0.8-0.2c0.4,0,0.8,0.2,1.3,0.5c0.3,0.2,0.8,0.1,1-0.2c0.2-0.3,0.1-0.8-0.2-1c-0.4-0.3-1.1-0.8-2.1-0.8
		c-0.6,0-1.2,0.2-1.7,0.5c-0.5,0.3-0.8,0.9-0.8,1.5c0,0.3,0.1,0.6,0.2,0.9c0.2,0.4,0.6,0.6,0.9,0.8c0.4,0.2,0.8,0.3,1.2,0.4h0
		c0.5,0.1,0.9,0.2,1.1,0.4c0.1,0.1,0.2,0.1,0.2,0.2c0,0,0,0.1,0,0.1c0,0.1-0.1,0.2-0.2,0.4c-0.2,0.1-0.6,0.3-0.9,0.3
		c-0.5,0-1.2-0.3-1.5-0.6c-0.3-0.3-0.8-0.2-1,0.1C1112.3,476.3,1112.4,476.8,1112.7,477L1112.7,477z M1122.5,478
		c1,0,1.8-0.3,2.5-0.9c0.3-0.3,0.2-0.7,0-0.9c-0.2-0.2-0.7-0.3-1,0c-0.3,0.3-0.9,0.4-1.4,0.3c-0.5,0-1-0.3-1.3-0.6
		c-0.2-0.2-0.4-0.6-0.5-0.9h4.4c0.4,0,0.7-0.2,0.7-0.5c0,0,0-0.1,0-0.1v-0.1c-0.1-1.9-1.5-3.2-3.3-3.2c-1.9,0-3.3,1.6-3.3,3.4
		C1119.2,476.4,1120.7,478,1122.5,478L1122.5,478z M1122.5,472.4c1.2,0.1,1.9,0.9,2,1.5h-3.9
		C1120.8,473.3,1121.4,472.5,1122.5,472.4L1122.5,472.4z"/>
	<path d="M631,428c0.6,0.5,1.6,1,2.7,1c0.7,0,1.4-0.2,1.9-0.6c0.5-0.4,0.8-0.9,0.8-1.4c0-0.6-0.3-1-0.8-1.4
		c-0.5-0.3-1.1-0.5-1.8-0.7h0c-0.7-0.1-1.2-0.3-1.5-0.5c-0.4-0.2-0.5-0.5-0.5-0.9c0-0.4,0.2-0.7,0.6-1c0.4-0.3,0.9-0.4,1.5-0.4
		c0.8,0,1.4,0.4,2,0.8c0.1,0.1,0.2,0,0.3-0.1c0.1-0.1,0-0.2-0.1-0.3c-0.6-0.4-1.3-0.8-2.2-0.8c-0.7,0-1.3,0.2-1.7,0.5
		c-0.5,0.3-0.8,0.8-0.8,1.3c0,0.5,0.3,1,0.7,1.3c0.4,0.3,1,0.5,1.7,0.6h0c0.7,0.1,1.3,0.3,1.7,0.6c0.4,0.3,0.6,0.6,0.6,1
		c0,0.4-0.2,0.8-0.6,1.1c-0.4,0.3-1,0.5-1.6,0.5c-0.9,0-1.8-0.5-2.4-0.9c-0.1-0.1-0.2-0.1-0.3,0C630.9,427.7,630.9,427.9,631,428
		L631,428z M639.6,424h-0.7v-1.9c0-0.1-0.1-0.2-0.3-0.2c-0.1,0-0.2,0.1-0.2,0.2v1.9h-0.6c-0.2,0-0.2,0.1-0.2,0.2
		c0,0.1,0,0.2,0.2,0.2h0.6v3.7c0,0.5,0.4,0.9,0.9,0.9c0.1,0,0.3-0.1,0.3-0.2c0-0.1-0.1-0.3-0.3-0.3c-0.1,0-0.4-0.1-0.4-0.4v-3.7h0.6
		c0.1,0,0.2-0.1,0.2-0.2C639.8,424.1,639.7,424,639.6,424L639.6,424z M645.8,424c-0.1,0-0.2,0.1-0.2,0.2v0.7c-0.4-0.6-1.1-1-1.9-1
		c-1.3,0-2.4,1.1-2.4,2.5c0,1.4,1.1,2.5,2.4,2.5c0.8,0,1.5-0.4,1.9-1v0.8c0,0.1,0.1,0.2,0.2,0.2c0.1,0,0.2-0.1,0.2-0.2v-4.6
		C646.1,424.1,646,424,645.8,424L645.8,424z M643.7,428.5c-1,0-1.9-0.9-1.9-2c0-1.1,0.9-2,1.9-2c1,0,1.9,0.9,1.9,2
		C645.6,427.6,644.7,428.5,643.7,428.5L643.7,428.5z M648.2,428.8c0,0.1,0.1,0.2,0.3,0.2c0.1,0,0.2-0.1,0.2-0.2v-2.2c0,0,0,0,0-0.1
		c0.1-0.2,0.3-0.7,0.6-1.2c0.4-0.5,0.8-0.8,1.5-0.8c0.1,0,0.2-0.1,0.2-0.2c0-0.1-0.1-0.2-0.2-0.2c-1,0-1.6,0.6-2,1.2
		c0,0,0,0.1-0.1,0.1v-1.1c0-0.1-0.1-0.2-0.2-0.2c-0.1,0-0.3,0.1-0.3,0.2L648.2,428.8L648.2,428.8z M654.2,424h-0.6v-1.9
		c0-0.1-0.1-0.2-0.3-0.2c-0.1,0-0.2,0.1-0.2,0.2v1.9h-0.6c-0.2,0-0.2,0.1-0.2,0.2c0,0.1,0,0.2,0.2,0.2h0.6v3.7
		c0,0.5,0.4,0.9,0.9,0.9c0.1,0,0.3-0.1,0.3-0.2c0-0.1-0.1-0.3-0.3-0.3c-0.1,0-0.4-0.1-0.4-0.4v-3.7h0.6c0.1,0,0.2-0.1,0.2-0.2
		C654.5,424.1,654.4,424,654.2,424L654.2,424z M658.5,429c0.9,0,1.6-0.5,2-1.1c0.1-0.1,0-0.3-0.1-0.4c-0.1-0.1-0.3,0-0.3,0.1
		c-0.3,0.6-1,0.9-1.6,0.9c-1,0-1.9-0.8-2-1.9h4.1c0.1,0,0.2-0.1,0.2-0.2v0c-0.1-1.3-1.1-2.3-2.4-2.3c-1.4,0-2.5,1.1-2.5,2.5
		C656.1,427.9,657.2,429,658.5,429L658.5,429z M658.5,424.5c0.9,0,1.7,0.7,1.9,1.6h-3.8C656.8,425.1,657.6,424.5,658.5,424.5
		L658.5,424.5z M662.5,428.8c0,0.1,0.1,0.2,0.3,0.2c0.1,0,0.2-0.1,0.2-0.2v-2.2c0,0,0,0,0-0.1c0.1-0.2,0.3-0.7,0.6-1.2
		c0.4-0.5,0.8-0.8,1.5-0.8c0.1,0,0.2-0.1,0.2-0.2c0-0.1-0.1-0.2-0.2-0.2c-1,0-1.6,0.6-2,1.2c0,0-0.1,0.1-0.1,0.1v-1.1
		c0-0.1-0.1-0.2-0.2-0.2c-0.1,0-0.3,0.1-0.3,0.2L662.5,428.8L662.5,428.8z M670.2,428.8c0,0.1,0.1,0.2,0.2,0.2
		c0.1,0,0.3-0.1,0.3-0.2V427l1.6-1.6l2.8,3.5c0,0.1,0.1,0.1,0.2,0.1c0.1,0,0.1,0,0.2,0c0.1-0.1,0.1-0.2,0-0.4l-2.8-3.6l2.8-2.8
		c0.1-0.1,0.1-0.3,0-0.4c-0.1-0.1-0.2-0.1-0.3,0l-4.4,4.4v-4.2c0-0.1-0.1-0.3-0.3-0.3c-0.1,0-0.2,0.1-0.2,0.3L670.2,428.8
		L670.2,428.8z M677.5,428.8c0,0.1,0.1,0.2,0.2,0.2c0.1,0,0.3-0.1,0.3-0.2v-4.5c0-0.1-0.1-0.2-0.3-0.2c-0.1,0-0.2,0.1-0.2,0.2
		L677.5,428.8L677.5,428.8z M677.5,422.8c0,0.1,0.1,0.3,0.2,0.3c0.1,0,0.3-0.1,0.3-0.3v-0.2c0-0.1-0.1-0.2-0.3-0.2
		c-0.1,0-0.2,0.1-0.2,0.2L677.5,422.8L677.5,422.8z M681.9,424h-0.7v-1.9c0-0.1-0.1-0.2-0.3-0.2c-0.1,0-0.2,0.1-0.2,0.2v1.9h-0.6
		c-0.2,0-0.2,0.1-0.2,0.2c0,0.1,0,0.2,0.2,0.2h0.6v3.7c0,0.5,0.4,0.9,0.9,0.9c0.1,0,0.3-0.1,0.3-0.2c0-0.1-0.1-0.3-0.3-0.3
		c-0.1,0-0.4-0.1-0.4-0.4v-3.7h0.6c0.1,0,0.2-0.1,0.2-0.2C682.1,424.1,682,424,681.9,424L681.9,424z M625.7,443c2,0,3.6-1.6,3.6-3.6
		c0-2-1.6-3.6-3.6-3.6h-1.3c-0.1,0-0.2,0.1-0.2,0.2v6.7c0,0.1,0.1,0.2,0.2,0.2H625.7L625.7,443z M624.6,442.5v-6.2h1.1
		c1.7,0,3.1,1.4,3.1,3.1c0,1.7-1.4,3.1-3.1,3.1H624.6L624.6,442.5z M633.5,443c0.9,0,1.6-0.5,2-1.1c0.1-0.1,0-0.3-0.1-0.4
		c-0.1-0.1-0.3,0-0.3,0.1c-0.3,0.6-1,0.9-1.6,0.9c-1,0-1.9-0.8-2-1.9h4.1c0.1,0,0.2-0.1,0.2-0.2v0c-0.1-1.3-1.1-2.3-2.4-2.3
		c-1.4,0-2.4,1.1-2.4,2.5C631.1,441.9,632.2,443,633.5,443L633.5,443z M633.5,438.5c0.9,0,1.7,0.7,1.9,1.6h-3.8
		C631.8,439.1,632.6,438.5,633.5,438.5L633.5,438.5z M639.1,443C639.1,443,639.1,443,639.1,443c0,0,0.1,0,0.1,0c0.1,0,0.1,0,0.2-0.1
		c0,0,0-0.1,0.1-0.1l1.9-4.5c0-0.1,0-0.3-0.1-0.3c-0.1,0-0.3,0-0.3,0.1l-1.7,4l-1.7-4c0-0.1-0.2-0.2-0.3-0.1c-0.1,0-0.2,0.2-0.1,0.3
		l1.9,4.5C639,442.9,639,442.9,639.1,443C639.1,443,639.1,443,639.1,443L639.1,443z M645.2,443c0.9,0,1.6-0.5,2-1.1
		c0.1-0.1,0-0.3-0.1-0.4c-0.1-0.1-0.3,0-0.3,0.1c-0.3,0.6-1,0.9-1.6,0.9c-1,0-1.9-0.8-2-1.9h4.1c0.1,0,0.2-0.1,0.2-0.2v0
		c-0.1-1.3-1.1-2.3-2.4-2.3c-1.4,0-2.5,1.1-2.5,2.5C642.8,441.9,643.8,443,645.2,443L645.2,443z M645.2,438.5c0.9,0,1.7,0.7,1.9,1.6
		h-3.8C643.5,439.1,644.3,438.5,645.2,438.5L645.2,438.5z M649.5,442.8c0,0.1,0.1,0.2,0.2,0.2c0.1,0,0.3-0.1,0.3-0.2V436
		c0-0.1-0.1-0.2-0.3-0.2c-0.1,0-0.2,0.1-0.2,0.2L649.5,442.8L649.5,442.8z M651.7,440.5c0,1.4,1.1,2.5,2.4,2.5
		c1.3,0,2.4-1.2,2.4-2.5c0-1.4-1.1-2.5-2.4-2.5C652.8,438,651.7,439.1,651.7,440.5L651.7,440.5z M652.2,440.5c0-1.1,0.9-2,1.9-2
		c1,0,1.9,0.9,1.9,2c0,1.1-0.9,2-1.9,2C653.1,442.5,652.2,441.6,652.2,440.5L652.2,440.5z M658.4,444.9c0,0.1,0.1,0.2,0.2,0.2
		c0.1,0,0.3-0.1,0.3-0.2V442c0.4,0.6,1.1,1,1.9,1c1.4,0,2.4-1.1,2.4-2.5c0-1.4-1.1-2.5-2.4-2.5c-0.8,0-1.5,0.4-1.9,1v-0.7
		c0-0.1-0.1-0.2-0.3-0.2c-0.1,0-0.2,0.1-0.2,0.2V444.9L658.4,444.9z M658.9,440.4c0-1.1,0.9-1.9,1.9-1.9c1.1,0,1.9,0.9,1.9,2
		c0,1.1-0.9,2-1.9,2C659.8,442.5,658.9,441.6,658.9,440.4L658.9,440.4L658.9,440.4z M672.4,442.8c0,0.1,0.1,0.2,0.2,0.2
		c0.1,0,0.2-0.1,0.2-0.2V440c0-1.1-0.9-2-2-2c-0.8,0-1.5,0.4-1.8,1.1c-0.4-0.6-1-1.1-1.8-1.1c-0.6,0-1.2,0.3-1.6,0.7v-0.5
		c0-0.1-0.1-0.2-0.2-0.2c-0.1,0-0.2,0.1-0.2,0.2v4.6c0,0.1,0.1,0.2,0.2,0.2h0.1c0,0,0,0,0,0c0,0,0,0,0.1,0c0.1,0,0.1-0.1,0.1-0.2
		V440c0-0.9,0.7-1.6,1.6-1.6c0.9,0,1.6,0.7,1.6,1.6v2.8c0,0,0,0,0,0c0,0,0,0,0,0c0,0,0,0,0,0c0,0,0,0,0,0l0,0c0,0,0,0,0,0
		c0,0,0,0,0.1,0c0,0,0,0,0,0h0.1c0,0,0.1,0,0.1,0c0.1,0,0.1-0.1,0.1-0.1v0c0,0,0,0,0,0V440c0-0.9,0.7-1.6,1.6-1.6
		c0.9,0,1.5,0.7,1.6,1.6L672.4,442.8L672.4,442.8z M677.1,443c0.9,0,1.6-0.5,2-1.1c0.1-0.1,0-0.3-0.1-0.4c-0.1-0.1-0.3,0-0.3,0.1
		c-0.3,0.6-1,0.9-1.6,0.9c-1,0-1.9-0.8-2-1.9h4.1c0.1,0,0.2-0.1,0.2-0.2v0c-0.1-1.3-1.1-2.3-2.4-2.3c-1.4,0-2.5,1.1-2.5,2.5
		C674.6,441.9,675.7,443,677.1,443L677.1,443z M677.1,438.4c0.9,0,1.7,0.7,1.9,1.6h-3.8C675.3,439.1,676.1,438.4,677.1,438.4
		L677.1,438.4z M684.8,442.8c0,0.1,0.1,0.2,0.2,0.2s0.2-0.1,0.2-0.2V440c0-1.1-0.9-2-2-2c-0.6,0-1.2,0.3-1.6,0.7v-0.5
		c0-0.1-0.1-0.2-0.2-0.2c-0.1,0-0.2,0.1-0.2,0.2v4.6c0,0,0,0,0,0c0,0,0,0,0,0c0,0.1,0.1,0.1,0.2,0.1h0.1c0.1,0,0.1,0,0.2-0.1
		c0,0,0-0.1,0-0.1V440c0-0.9,0.7-1.6,1.6-1.6c0.9,0,1.6,0.7,1.6,1.6L684.8,442.8L684.8,442.8z M689.1,438h-0.6v-1.9
		c0-0.1-0.1-0.2-0.3-0.2c-0.1,0-0.2,0.1-0.2,0.2v1.9h-0.6c-0.2,0-0.2,0.1-0.2,0.2c0,0.1,0,0.2,0.2,0.2h0.6v3.7
		c0,0.5,0.4,0.9,0.9,0.9c0.1,0,0.3-0.1,0.3-0.2c0-0.1-0.1-0.3-0.3-0.3c-0.1,0-0.4-0.1-0.4-0.4v-3.7h0.6c0.1,0,0.2-0.1,0.2-0.2
		C689.3,438.1,689.2,438,689.1,438L689.1,438z M1216,428.8c0,0.1,0.1,0.2,0.2,0.2c0.1,0,0.3-0.1,0.3-0.2v-3.1h3
		c0.1,0,0.3-0.1,0.3-0.2c0-0.1-0.1-0.3-0.3-0.3h-3v-2.9h3.5c0.1,0,0.2-0.1,0.2-0.3c0-0.1-0.1-0.2-0.2-0.2h-3.7
		c-0.1,0-0.2,0.1-0.2,0.2L1216,428.8L1216,428.8z M1224.1,429c0.9,0,1.6-0.5,2-1.1c0.1-0.1,0-0.3-0.1-0.4c-0.1-0.1-0.3,0-0.3,0.1
		c-0.3,0.6-1,0.9-1.6,0.9c-1,0-1.9-0.8-2-1.9h4.1c0.1,0,0.2-0.1,0.2-0.2v0c-0.1-1.3-1.1-2.3-2.4-2.3c-1.4,0-2.4,1.1-2.4,2.5
		C1221.6,427.9,1222.7,429,1224.1,429L1224.1,429z M1224.1,424.4c0.9,0,1.7,0.7,1.9,1.6h-3.8
		C1222.3,425.1,1223.1,424.4,1224.1,424.4L1224.1,424.4z M1232.2,424c-0.1,0-0.2,0.1-0.2,0.2v0.7c-0.4-0.6-1.1-1-1.9-1
		c-1.3,0-2.4,1.1-2.4,2.5c0,1.4,1.1,2.5,2.4,2.5c0.8,0,1.5-0.4,1.9-1v0.8c0,0.1,0.1,0.2,0.2,0.2c0.1,0,0.2-0.1,0.2-0.2v-4.6
		C1232.5,424.1,1232.3,424,1232.2,424L1232.2,424z M1230.1,428.5c-1,0-1.9-0.9-1.9-2c0-1.1,0.9-2,1.9-2c1,0,1.9,0.9,1.9,2
		C1232,427.6,1231.1,428.5,1230.1,428.5L1230.1,428.5z M1236.1,424h-0.6v-1.9c0-0.1-0.1-0.2-0.3-0.2c-0.1,0-0.2,0.1-0.2,0.2v1.9
		h-0.6c-0.2,0-0.2,0.1-0.2,0.2c0,0.1,0,0.2,0.2,0.2h0.6v3.7c0,0.5,0.4,0.9,0.9,0.9c0.1,0,0.3-0.1,0.3-0.2c0-0.1-0.1-0.3-0.3-0.3
		c-0.1,0-0.4-0.1-0.4-0.4v-3.7h0.6c0.1,0,0.2-0.1,0.2-0.2C1236.4,424.1,1236.2,424,1236.1,424L1236.1,424z M1238.6,426.9
		c0,1.1,0.9,2.1,2,2.1c1.2,0,2.1-0.9,2.1-2.1v-2.7c0-0.1-0.1-0.2-0.3-0.2c-0.1,0-0.2,0.1-0.2,0.2v2.7c0,0.9-0.7,1.6-1.6,1.6
		c-0.9,0-1.5-0.7-1.5-1.6v-2.7c0-0.1-0.1-0.2-0.2-0.2c-0.1,0-0.2,0.1-0.2,0.2L1238.6,426.9L1238.6,426.9z M1245,428.7
		c0,0.1,0.1,0.2,0.3,0.2c0.1,0,0.2-0.1,0.2-0.2v-2.2c0,0,0,0,0-0.1c0.1-0.2,0.3-0.7,0.6-1.2c0.3-0.5,0.8-0.8,1.5-0.8
		c0.1,0,0.2-0.1,0.2-0.2c0-0.1-0.1-0.2-0.2-0.2c-1,0-1.6,0.6-2,1.2c0,0-0.1,0.1-0.1,0.1v-1.1c0-0.1-0.1-0.2-0.2-0.2
		c-0.1,0-0.3,0.1-0.3,0.2L1245,428.7L1245,428.7z M1251.1,429c0.9,0,1.6-0.5,2-1.1c0.1-0.1,0-0.3-0.1-0.4c-0.1-0.1-0.3,0-0.3,0.1
		c-0.3,0.6-1,0.9-1.6,0.9c-1,0-1.9-0.8-2-1.9h4.1c0.1,0,0.2-0.1,0.2-0.2v0c-0.1-1.3-1.1-2.3-2.4-2.3c-1.4,0-2.4,1.1-2.4,2.5
		C1248.7,427.9,1249.8,429,1251.1,429L1251.1,429z M1251.1,424.4c0.9,0,1.7,0.7,1.9,1.6h-3.8
		C1249.4,425.1,1250.2,424.4,1251.1,424.4L1251.1,424.4z M1217.2,442.6c0.1,0.2,0.3,0.3,0.5,0.3h0c0.1,0,0.1,0,0.1,0
		c0.1-0.1,0.2-0.2,0.2-0.3c0-0.1-0.2-0.2-0.3-0.2c0,0-0.1-0.1-0.1-0.2c-0.1-0.2-0.1-0.4-0.1-0.8c0-0.8-0.5-1.3-1-1.6
		c0,0-0.1,0-0.1-0.1c0.7-0.3,1.2-1,1.2-1.9c0-1.1-0.9-2.1-2-2.1h-2.1c-0.1,0-0.2,0.1-0.2,0.2v6.7c0,0.1,0.1,0.2,0.2,0.2
		c0.1,0,0.3-0.1,0.3-0.2v-2.9h1.8c0,0,0,0,0,0c0.1,0,0.5,0.1,0.8,0.4c0.3,0.2,0.6,0.6,0.6,1.1C1217,442,1217,442.3,1217.2,442.6
		L1217.2,442.6z M1217.1,437.9c0,0.8-0.7,1.5-1.5,1.6h-1.8v-3.1h1.8C1216.4,436.3,1217.1,437,1217.1,437.9L1217.1,437.9z
		 M1221.7,443c0.9,0,1.6-0.5,2-1.1c0.1-0.1,0-0.3-0.1-0.4c-0.1-0.1-0.3,0-0.3,0.1c-0.3,0.6-1,0.9-1.6,0.9c-1,0-1.9-0.8-2-1.9h4.1
		c0.1,0,0.2-0.1,0.2-0.2v0c-0.1-1.3-1.1-2.3-2.4-2.3c-1.4,0-2.4,1.1-2.4,2.5C1219.2,441.9,1220.3,443,1221.7,443L1221.7,443z
		 M1221.7,438.4c0.9,0,1.7,0.7,1.9,1.6h-3.8C1219.9,439.1,1220.7,438.4,1221.7,438.4L1221.7,438.4z M1225.9,442.8
		c0,0.1,0.1,0.2,0.2,0.2c0.1,0,0.3-0.1,0.3-0.2V436c0-0.1-0.1-0.2-0.3-0.2c-0.1,0-0.2,0.1-0.2,0.2L1225.9,442.8L1225.9,442.8z
		 M1231,443c0.9,0,1.6-0.5,2-1.1c0.1-0.1,0-0.3-0.1-0.4c-0.1-0.1-0.3,0-0.3,0.1c-0.3,0.6-1,0.9-1.6,0.9c-1,0-1.9-0.8-2-1.9h4.1
		c0.1,0,0.2-0.1,0.2-0.2v0c-0.1-1.3-1.1-2.3-2.4-2.3c-1.4,0-2.4,1.1-2.4,2.5C1228.5,441.9,1229.6,443,1231,443L1231,443z
		 M1231,438.4c0.9,0,1.7,0.7,1.9,1.6h-3.8C1229.2,439.1,1230,438.4,1231,438.4L1231,438.4z M1239.1,438c-0.1,0-0.2,0.1-0.2,0.2v0.7
		c-0.4-0.6-1.1-1-1.9-1c-1.3,0-2.4,1.1-2.4,2.5c0,1.4,1.1,2.5,2.4,2.5c0.8,0,1.5-0.4,1.9-1v0.8c0,0.1,0.1,0.2,0.2,0.2
		c0.1,0,0.2-0.1,0.2-0.2v-4.5C1239.4,438.1,1239.3,438,1239.1,438L1239.1,438z M1237,442.5c-1,0-1.9-0.9-1.9-2c0-1.1,0.9-2,1.9-2
		c1,0,1.9,0.9,1.9,2C1238.9,441.6,1238,442.5,1237,442.5L1237,442.5z M1241.2,442.3c0.4,0.3,1.1,0.7,1.9,0.7c0.5,0,0.9-0.1,1.3-0.4
		c0.3-0.3,0.6-0.6,0.6-1s-0.2-0.8-0.6-1c-0.3-0.2-0.7-0.3-1.2-0.4h0c-0.5-0.1-0.8-0.2-1-0.4c-0.2-0.2-0.3-0.3-0.3-0.5
		c0-0.2,0.1-0.4,0.3-0.6c0.2-0.2,0.5-0.3,1-0.3c0.5,0,0.9,0.3,1.2,0.5c0.1,0.1,0.3,0,0.3-0.1c0.1-0.1,0-0.3-0.1-0.4
		c-0.4-0.2-0.9-0.5-1.5-0.5c-0.5,0-0.9,0.1-1.2,0.3c-0.3,0.2-0.5,0.6-0.5,1c0,0.4,0.2,0.7,0.5,0.9c0.3,0.2,0.7,0.3,1.1,0.4l0,0
		c0.5,0.1,0.9,0.2,1.1,0.4c0.3,0.2,0.3,0.4,0.4,0.6c0,0.2-0.1,0.5-0.4,0.6c-0.2,0.2-0.6,0.3-1,0.3c-0.6,0-1.2-0.3-1.5-0.6
		c-0.1-0.1-0.3-0.1-0.3,0C1241.1,442,1241.1,442.2,1241.2,442.3L1241.2,442.3z M1248.7,443c0.9,0,1.6-0.5,2-1.1
		c0.1-0.1,0-0.3-0.1-0.4c-0.1-0.1-0.3,0-0.3,0.1c-0.3,0.6-1,0.9-1.6,0.9c-1,0-1.9-0.8-2-1.9h4.1c0.1,0,0.2-0.1,0.2-0.2v0
		c-0.1-1.3-1.1-2.3-2.4-2.3c-1.4,0-2.4,1.1-2.4,2.5C1246.2,441.9,1247.3,443,1248.7,443L1248.7,443z M1248.7,438.4
		c0.9,0,1.7,0.7,1.9,1.6h-3.8C1246.9,439.1,1247.7,438.4,1248.7,438.4L1248.7,438.4z M1252.5,442.3c0.4,0.3,1.1,0.7,1.9,0.7
		c0.5,0,0.9-0.1,1.3-0.4c0.3-0.3,0.6-0.6,0.6-1s-0.2-0.8-0.6-1c-0.3-0.2-0.7-0.3-1.2-0.4h0c-0.5-0.1-0.8-0.2-1-0.4
		c-0.2-0.2-0.3-0.3-0.3-0.5c0-0.2,0.1-0.4,0.3-0.6c0.2-0.2,0.5-0.3,1-0.3c0.5,0,0.9,0.3,1.2,0.5c0.1,0.1,0.3,0,0.3-0.1
		c0.1-0.1,0-0.3-0.1-0.4c-0.4-0.2-0.9-0.5-1.5-0.5c-0.5,0-0.9,0.1-1.2,0.3c-0.3,0.2-0.5,0.6-0.5,1c0,0.4,0.2,0.7,0.5,0.9
		c0.3,0.2,0.7,0.3,1.1,0.4l0,0c0.5,0.1,0.9,0.2,1.1,0.4c0.3,0.2,0.3,0.4,0.4,0.6c0,0.2-0.1,0.5-0.4,0.6c-0.2,0.2-0.6,0.3-1,0.3
		c-0.6,0-1.2-0.3-1.5-0.6c-0.1-0.1-0.3-0.1-0.3,0C1252.4,442,1252.4,442.2,1252.5,442.3L1252.5,442.3z"/>
	<path class="st8" d="M1080,317.6c0.8,0.6,2,1.4,3.5,1.4c1,0,1.9-0.3,2.5-0.8c0.7-0.5,1.2-1.2,1.2-2.1c0-0.4-0.1-0.8-0.3-1.2
		c-0.3-0.5-0.8-0.9-1.4-1.1c-0.5-0.3-1.2-0.4-1.9-0.6h0c-0.7-0.1-1.4-0.4-1.7-0.6c-0.2-0.1-0.3-0.2-0.4-0.4
		c-0.1-0.1-0.1-0.2-0.1-0.4c0-0.3,0.2-0.6,0.5-0.9c0.4-0.3,0.9-0.5,1.5-0.5c0.8,0,1.5,0.4,2.2,0.9c0.3,0.2,0.8,0.1,1-0.2
		c0.2-0.3,0.1-0.8-0.2-1c-0.7-0.5-1.7-1.1-3-1.1c-0.9,0-1.7,0.3-2.4,0.7c-0.6,0.5-1.1,1.2-1.1,2c0,0.4,0.1,0.8,0.3,1.1
		c0.3,0.5,0.8,0.8,1.3,1.1c0.5,0.2,1.1,0.4,1.8,0.5h0c0.8,0.2,1.5,0.4,1.9,0.6c0.2,0.1,0.3,0.3,0.4,0.4c0.1,0.1,0.1,0.3,0.1,0.4
		c0,0.3-0.2,0.7-0.6,1c-0.4,0.3-1,0.5-1.7,0.5c-1,0-2-0.6-2.6-1.1c-0.3-0.2-0.8-0.2-1,0.1C1079.7,316.9,1079.8,317.4,1080,317.6
		L1080,317.6z M1090,321.6c0.4,0,0.8-0.4,0.8-0.7v-2.4c0.5,0.4,1.2,0.6,1.8,0.6c1.8,0,3.3-1.5,3.3-3.4s-1.5-3.4-3.3-3.4
		c-0.7,0-1.4,0.2-1.9,0.6c-0.1-0.3-0.4-0.6-0.8-0.6c-0.4,0-0.7,0.3-0.7,0.7v8C1089.2,321.2,1089.6,321.6,1090,321.6L1090,321.6z
		 M1091.3,314.2c0.3-0.4,0.8-0.6,1.3-0.6c0.5,0,0.9,0.2,1.3,0.6c0.3,0.4,0.5,0.9,0.5,1.4c0,0.5-0.2,1.1-0.5,1.4
		c-0.4,0.4-0.8,0.6-1.3,0.6c-0.5,0-1-0.2-1.3-0.6c-0.4-0.3-0.5-0.8-0.5-1.4S1090.9,314.6,1091.3,314.2L1091.3,314.2z M1101.8,312.2
		c-0.7,0-1.3,0.2-1.7,0.5c-0.1,0.1-0.2,0.2-0.3,0.3v-0.1c0-0.4-0.3-0.7-0.8-0.7c-0.4,0-0.7,0.3-0.7,0.7v5.4c0,0.4,0.3,0.7,0.7,0.7
		c0.4,0,0.8-0.3,0.8-0.7v-2.6c0.1-0.2,0.2-0.7,0.6-1.2c0.2-0.3,0.4-0.5,0.6-0.7c0.2-0.2,0.5-0.3,0.8-0.3c0.4,0,0.7-0.3,0.7-0.7
		C1102.5,312.5,1102.2,312.2,1101.8,312.2L1101.8,312.2z M1105.1,312.2c-0.4,0-0.7,0.3-0.7,0.8v5.4c0,0.4,0.3,0.7,0.7,0.7
		c0.4,0,0.7-0.3,0.7-0.7v-5.4C1105.8,312.5,1105.5,312.2,1105.1,312.2L1105.1,312.2z M1105.8,310.1c0-0.4-0.3-0.7-0.7-0.7
		c-0.4,0-0.7,0.3-0.7,0.7v0.3c0,0.4,0.3,0.8,0.7,0.8c0.4,0,0.7-0.3,0.7-0.8C1105.8,310.4,1105.8,310.1,1105.8,310.1z M1111,312.1
		c-0.5,0-1,0.2-1.5,0.4c-0.1-0.3-0.4-0.4-0.7-0.4c-0.4,0-0.7,0.3-0.7,0.7v5.4c0,0.4,0.3,0.7,0.7,0.7c0.4,0,0.7-0.3,0.7-0.6
		c0-0.1,0-0.1,0-0.1V315c0-0.8,0.6-1.4,1.4-1.4c0.8,0,1.4,0.6,1.4,1.4v3.3c0,0.4,0.3,0.7,0.7,0.7c0.4,0,0.7-0.3,0.7-0.7V315
		C1113.9,313.4,1112.6,312.1,1111,312.1L1111,312.1z M1122.7,315.6v-2.7c0-0.4-0.3-0.7-0.7-0.7c-0.4,0-0.7,0.2-0.7,0.6
		c-0.5-0.4-1.1-0.6-1.8-0.6c-0.9,0-1.7,0.4-2.3,1c-0.6,0.6-1,1.5-1,2.4c0,1,0.4,1.8,1,2.4c0.6,0.6,1.4,1,2.3,1
		c0.7,0,1.3-0.2,1.8-0.5c-0.2,0.8-0.9,1.5-1.8,1.5c-0.3,0-0.5-0.1-0.8-0.2c-0.4-0.2-0.8,0-1,0.3c-0.2,0.4,0,0.8,0.3,1
		c0.4,0.2,0.9,0.3,1.4,0.3c1.8,0,3.3-1.5,3.3-3.3L1122.7,315.6L1122.7,315.6z M1120.7,317c-0.4,0.4-0.8,0.6-1.3,0.6
		c-0.5,0-0.9-0.2-1.3-0.6c-0.3-0.3-0.5-0.8-0.5-1.4c0-0.5,0.2-1.1,0.5-1.4c0.3-0.4,0.8-0.6,1.3-0.6c0.5,0,0.9,0.2,1.3,0.6
		c0.3,0.3,0.5,0.9,0.5,1.4C1121.3,316.2,1121,316.7,1120.7,317L1120.7,317z M1092.3,335.5h-2.9l2.6-2.3c0.7-0.6,1.1-1.6,1.1-2.4
		c0-0.8-0.3-1.6-0.8-2.2c-0.6-0.7-1.5-1.1-2.4-1.1c-0.8,0-1.6,0.3-2.2,0.9l-0.4,0.4c-0.3,0.3-0.3,0.8-0.1,1.1
		c0.3,0.3,0.8,0.3,1.1,0.1l0.4-0.4c0.3-0.3,0.8-0.5,1.2-0.5c0.5,0,1,0.2,1.3,0.6c0.3,0.3,0.5,0.8,0.5,1.2c0,0.5-0.2,1-0.6,1.3
		l-4.1,3.7c-0.3,0.3-0.3,0.8,0,1.1c0.1,0.2,0.4,0.2,0.6,0.2h4.9c0.4,0,0.8-0.3,0.8-0.8S1092.8,335.5,1092.3,335.5L1092.3,335.5z
		 M1095.9,335.5c0.6,0.9,1.5,1.5,2.6,1.5c1.1,0,2-0.7,2.5-1.5c0.6-0.9,0.9-2,0.9-3.3c0-1.3-0.3-2.4-0.9-3.3
		c-0.6-0.9-1.5-1.5-2.5-1.5c-1.1,0-2,0.6-2.6,1.5c-0.6,0.9-0.9,2-0.9,3.3C1095,333.4,1095.3,334.6,1095.9,335.5z M1099.8,334.6
		c-0.4,0.6-0.8,0.9-1.3,0.9c-0.4,0-0.9-0.3-1.3-0.9c-0.4-0.6-0.7-1.5-0.7-2.4c0-1,0.3-1.9,0.7-2.4c0.4-0.6,0.9-0.9,1.3-0.8
		c0.4,0,0.9,0.3,1.3,0.8c0.4,0.6,0.7,1.5,0.7,2.4C1100.4,333.2,1100.1,334,1099.8,334.6z M1107.5,328.1
		C1107.5,328.1,1107.5,328,1107.5,328.1c0-0.1,0-0.1,0-0.2c0,0,0,0,0-0.1c0,0,0,0,0-0.1c0,0,0,0,0,0l0,0l-0.1-0.1c0,0,0,0,0-0.1
		c0,0,0,0-0.1-0.1c0,0,0,0-0.1,0c0,0,0,0-0.1,0c0,0,0,0-0.1,0c0,0,0,0-0.1,0c0,0,0,0-0.1,0c0,0,0,0-0.1,0h-0.2c0,0-0.1,0-0.1,0
		c0,0,0,0-0.1,0c0,0-0.1,0-0.1,0c0,0,0,0-0.1,0c0,0,0,0-0.1,0l-1.7,1c-0.4,0.2-0.5,0.7-0.2,1c0.1,0.2,0.4,0.4,0.6,0.4
		c0.1,0,0.3,0,0.4-0.1l0.6-0.3v6.8c0,0.4,0.3,0.8,0.8,0.8c0.4,0,0.8-0.3,0.8-0.8L1107.5,328.1L1107.5,328.1z M1112.6,330.4
		c-0.5,0-0.9,0.1-1.3,0.3c0.1-0.1,0.1-0.2,0.2-0.4c0.2-0.4,0.5-0.7,0.9-1c0.4-0.2,0.8-0.4,1.3-0.4c0.4,0,0.8-0.4,0.7-0.8
		c0-0.4-0.4-0.7-0.8-0.7c-0.8,0-1.5,0.3-2.1,0.6c-0.9,0.6-1.4,1.4-1.8,2.3c-0.3,0.9-0.5,1.9-0.5,2.8c0,0.3,0,0.5,0,0.8c0,0,0,0,0,0
		c0.2,1.7,1.6,3,3.3,3c1.8,0,3.3-1.5,3.3-3.3C1115.9,331.8,1114.4,330.4,1112.6,330.4L1112.6,330.4z M1112.6,335.5
		c-1,0-1.8-0.8-1.8-1.8c0-1,0.8-1.8,1.8-1.8c1,0,1.8,0.8,1.8,1.8C1114.4,334.7,1113.6,335.5,1112.6,335.5z"/>
	<path d="M1213.5,353c0.6,0.5,1.6,1,2.7,1c0.7,0,1.4-0.2,1.9-0.6c0.5-0.4,0.8-0.9,0.8-1.4c0-0.6-0.3-1-0.8-1.4
		c-0.5-0.3-1.1-0.5-1.8-0.7h0c-0.7-0.1-1.2-0.3-1.5-0.5c-0.4-0.2-0.5-0.5-0.5-0.9c0-0.4,0.2-0.7,0.6-1c0.4-0.3,0.9-0.4,1.5-0.4
		c0.8,0,1.4,0.4,2,0.8c0.1,0.1,0.2,0,0.3-0.1c0.1-0.1,0-0.2-0.1-0.3c-0.6-0.4-1.3-0.8-2.2-0.8c-0.7,0-1.3,0.2-1.7,0.5
		c-0.5,0.3-0.8,0.8-0.8,1.3c0,0.5,0.3,1,0.7,1.3c0.4,0.3,1,0.5,1.7,0.6h0c0.7,0.1,1.3,0.3,1.7,0.6c0.4,0.3,0.6,0.6,0.6,1
		c0,0.4-0.2,0.8-0.6,1.1c-0.4,0.3-1,0.5-1.6,0.5c-0.9,0-1.8-0.5-2.4-0.9c-0.1-0.1-0.2-0.1-0.3,0
		C1213.4,352.7,1213.5,352.9,1213.5,353L1213.5,353z M1220.5,351.9c0,1.1,0.9,2.1,2,2.1c1.2,0,2.1-0.9,2.1-2.1v-2.7
		c0-0.1-0.1-0.2-0.3-0.2c-0.1,0-0.2,0.1-0.2,0.2v2.7c0,0.9-0.7,1.6-1.6,1.6c-0.9,0-1.5-0.7-1.5-1.6v-2.7c0-0.1-0.1-0.2-0.2-0.2
		s-0.2,0.1-0.2,0.2V351.9L1220.5,351.9z M1234.1,353.8c0,0.1,0.1,0.2,0.2,0.2c0.1,0,0.2-0.1,0.2-0.2V351c0-1.1-0.9-2-2-2
		c-0.8,0-1.5,0.4-1.8,1.1c-0.3-0.6-1-1.1-1.8-1.1c-0.6,0-1.2,0.3-1.6,0.7v-0.5c0-0.1-0.1-0.2-0.2-0.2c-0.1,0-0.2,0.1-0.2,0.2v4.6
		c0,0.1,0.1,0.2,0.2,0.2h0.1c0,0,0,0,0,0c0,0,0.1,0,0.1,0c0.1,0,0.1-0.1,0.1-0.2V351c0-0.9,0.7-1.6,1.6-1.6c0.9,0,1.6,0.7,1.6,1.6
		v2.8c0,0,0,0,0,0c0,0,0,0,0,0c0,0,0,0,0,0c0,0,0,0,0,0l0,0c0,0,0,0,0,0c0,0,0,0,0.1,0c0,0,0,0,0,0h0.1c0,0,0.1,0,0.1,0
		c0.1,0,0.1-0.1,0.1-0.1v0c0,0,0,0,0,0V351c0-0.9,0.7-1.6,1.6-1.6c0.9,0,1.5,0.7,1.6,1.6L1234.1,353.8L1234.1,353.8z M1243.9,353.8
		c0,0.1,0.1,0.2,0.2,0.2c0.1,0,0.2-0.1,0.2-0.2V351c0-1.1-0.9-2-2-2c-0.8,0-1.4,0.4-1.8,1.1c-0.3-0.6-1-1.1-1.8-1.1
		c-0.6,0-1.2,0.3-1.6,0.7v-0.5c0-0.1-0.1-0.2-0.2-0.2c-0.1,0-0.2,0.1-0.2,0.2v4.6c0,0.1,0.1,0.2,0.2,0.2h0.1c0,0,0,0,0,0
		c0,0,0.1,0,0.1,0c0.1,0,0.1-0.1,0.1-0.2V351c0-0.9,0.7-1.6,1.6-1.6s1.6,0.7,1.6,1.6v2.8c0,0,0,0,0,0c0,0,0,0,0,0c0,0,0,0,0,0
		c0,0,0,0,0,0l0,0c0,0,0,0,0,0c0,0,0,0,0.1,0c0,0,0,0,0,0h0.1c0,0,0.1,0,0.1,0c0.1,0,0.1-0.1,0.1-0.1v0c0,0,0,0,0,0V351
		c0-0.9,0.7-1.6,1.6-1.6c0.9,0,1.5,0.7,1.6,1.6V353.8L1243.9,353.8z M1248.6,354c0.9,0,1.6-0.5,2-1.1c0.1-0.1,0-0.3-0.1-0.4
		c-0.1-0.1-0.3,0-0.3,0.1c-0.3,0.6-1,0.9-1.6,0.9c-1,0-1.9-0.8-2-1.9h4.1c0.1,0,0.2-0.1,0.2-0.2v0c-0.1-1.3-1.1-2.3-2.4-2.3
		c-1.4,0-2.4,1.1-2.4,2.5C1246.1,352.9,1247.2,354,1248.6,354L1248.6,354z M1248.6,349.5c0.9,0,1.7,0.7,1.9,1.6h-3.8
		C1246.8,350.1,1247.6,349.5,1248.6,349.5L1248.6,349.5z M1252.5,353.8c0,0.1,0.1,0.2,0.3,0.2c0.1,0,0.2-0.1,0.2-0.2v-2.2
		c0,0,0,0,0-0.1c0.1-0.2,0.3-0.7,0.6-1.2c0.3-0.5,0.8-0.8,1.5-0.8c0.1,0,0.2-0.1,0.2-0.2c0-0.1-0.1-0.2-0.2-0.2c-1,0-1.6,0.6-2,1.2
		c0,0-0.1,0.1-0.1,0.1v-1.1c0-0.1-0.1-0.2-0.2-0.2c-0.1,0-0.3,0.1-0.3,0.2L1252.5,353.8L1252.5,353.8z M1223.3,367.9
		c0,0,0.1,0.1,0.2,0.1h4.1c0.1,0,0.2-0.1,0.2-0.2c0-0.1-0.1-0.3-0.2-0.3h-3.4l2.9-2.6c0.5-0.5,0.8-1.1,0.8-1.8
		c0-0.6-0.2-1.1-0.6-1.6c-0.5-0.5-1.1-0.8-1.7-0.8c-0.6,0-1.1,0.2-1.6,0.6l-0.3,0.3c-0.1,0.1-0.1,0.2,0,0.4c0.1,0.1,0.2,0.1,0.3,0
		l0.3-0.3c0.4-0.3,0.8-0.5,1.3-0.5c0.5,0,1,0.2,1.4,0.6c0.3,0.4,0.5,0.8,0.5,1.2c0,0.5-0.2,1-0.6,1.4l-3.4,3
		C1223.2,367.7,1223.2,367.8,1223.3,367.9L1223.3,367.9z M1230.2,366.9c0.4,0.7,1.1,1.1,1.8,1.1c0.7,0,1.4-0.4,1.8-1.1
		c0.4-0.7,0.7-1.5,0.7-2.5c0-1-0.3-1.9-0.7-2.5c-0.4-0.6-1.1-1.1-1.8-1.1s-1.4,0.4-1.8,1.1c-0.4,0.7-0.7,1.6-0.7,2.5
		C1229.5,365.4,1229.7,366.2,1230.2,366.9z M1230.6,362.2c0.4-0.6,0.9-0.9,1.4-0.9c0.5,0,1,0.3,1.4,0.9c0.4,0.6,0.6,1.3,0.6,2.2
		s-0.2,1.7-0.6,2.2c-0.4,0.5-0.9,0.9-1.4,0.9c-0.5,0-1-0.3-1.4-0.9c-0.4-0.6-0.6-1.3-0.6-2.2C1230,363.5,1230.2,362.7,1230.6,362.2
		L1230.6,362.2z M1237.8,367.8c0,0.1,0.1,0.2,0.2,0.2c0.1,0,0.2-0.1,0.2-0.2v-6.6c0-0.1,0-0.1,0-0.2c-0.1-0.1-0.2-0.2-0.3-0.1
		l-1.4,0.8c-0.1,0.1-0.2,0.2-0.1,0.3c0,0.1,0.1,0.1,0.2,0.1c0,0,0.1,0,0.1,0l1-0.6L1237.8,367.8L1237.8,367.8z M1240.2,365.2
		c0,0.2,0,0.3,0,0.5c0,1.3,1.1,2.3,2.4,2.3c1.3,0,2.4-1.1,2.4-2.4c0-1.3-1.1-2.4-2.4-2.4c-0.7,0-1.3,0.3-1.8,0.8
		c0.1-0.5,0.3-1,0.5-1.4c0.5-0.8,1.1-1.3,2.1-1.3c0.1,0,0.2-0.1,0.2-0.3c0-0.1-0.1-0.2-0.3-0.2c-1.2,0-2,0.7-2.5,1.6
		C1240.4,363.2,1240.2,364.3,1240.2,365.2L1240.2,365.2z M1240.7,365.6c0-1,0.8-1.9,1.9-1.9c1.1,0,1.9,0.8,1.9,1.9
		c0,1-0.8,1.9-1.9,1.9c-0.9,0-1.7-0.7-1.9-1.6c0,0,0,0,0-0.1C1240.7,365.8,1240.7,365.7,1240.7,365.6L1240.7,365.6L1240.7,365.6z"/>
	<g transform="translate(860 58)">
		<circle class="st14" cx="241" cy="336" r="13"/>
		<path class="st14" d="M240.9,318.5c-1.3,0-2.4-1.1-2.4-2.4v-4.9c0-1.3,1.1-2.4,2.4-2.4c1.3,0,2.4,1.1,2.4,2.4v4.9
			C243.3,317.4,242.2,318.5,240.9,318.5L240.9,318.5z M256.1,327.3c-0.7-1.2-0.3-2.7,0.9-3.3l4.2-2.4c1.2-0.7,2.6-0.3,3.3,0.9
			c0.7,1.2,0.3,2.7-0.9,3.3l-4.2,2.4C258.2,328.8,256.7,328.4,256.1,327.3L256.1,327.3z M256.1,344.8c0.7-1.2,2.2-1.6,3.3-0.9
			l4.2,2.4c1.2,0.7,1.6,2.1,0.9,3.3c-0.7,1.2-2.2,1.6-3.3,0.9l-4.2-2.4C255.8,347.4,255.4,346,256.1,344.8L256.1,344.8L256.1,344.8z
			 M240.9,353.5c1.3,0,2.4,1.1,2.4,2.4v4.9c0,1.3-1.1,2.4-2.4,2.4c-1.3,0-2.4-1.1-2.4-2.4V356C238.5,354.6,239.5,353.5,240.9,353.5
			L240.9,353.5L240.9,353.5z M225.7,344.8c0.7,1.2,0.3,2.7-0.9,3.3l-4.2,2.4c-1.2,0.7-2.6,0.3-3.3-0.9c-0.7-1.2-0.3-2.7,0.9-3.3
			l4.2-2.4C223.6,343.2,225,343.6,225.7,344.8L225.7,344.8z M225.7,327.3c-0.7,1.2-2.2,1.6-3.3,0.9l-4.2-2.4
			c-1.2-0.7-1.6-2.1-0.9-3.3c0.7-1.2,2.2-1.6,3.3-0.9l4.2,2.4C226,324.6,226.4,326.1,225.7,327.3L225.7,327.3z"/>
	</g>
</g>
<g>
	<path d="M932.6,432.4c0.1-0.1,0.2-0.1,0.3,0c0.5,0.4,1.4,0.9,2.3,0.9c0.6,0,1.2-0.2,1.5-0.5c0.4-0.3,0.6-0.6,0.6-1
		c0-0.4-0.2-0.7-0.6-1c-0.4-0.2-0.9-0.4-1.6-0.6h0c-0.6-0.1-1.2-0.3-1.6-0.6c-0.4-0.3-0.7-0.7-0.7-1.2c0-0.5,0.3-1,0.7-1.3
		c0.4-0.3,1-0.5,1.7-0.5c0.9,0,1.6,0.4,2.2,0.8c0.1,0.1,0.1,0.2,0.1,0.3c-0.1,0.1-0.2,0.1-0.3,0.1c-0.5-0.4-1.1-0.7-1.9-0.7
		c-0.6,0-1.1,0.2-1.4,0.4c-0.3,0.3-0.5,0.6-0.5,1c0,0.3,0.2,0.6,0.5,0.8c0.4,0.2,0.9,0.4,1.5,0.5h0c0.7,0.1,1.3,0.3,1.8,0.6
		c0.5,0.3,0.8,0.8,0.8,1.3c0,0.6-0.3,1.1-0.8,1.4s-1.1,0.5-1.8,0.5c-1.1,0-2-0.5-2.6-1C932.5,432.7,932.5,432.5,932.6,432.4z"/>
	<path d="M941.1,429.1c0,0.1-0.1,0.2-0.2,0.2h-0.6v3.6c0,0.2,0.2,0.4,0.4,0.4s0.2,0.1,0.2,0.2c0,0.1-0.1,0.2-0.2,0.2
		c-0.5,0-0.9-0.4-0.9-0.8v-3.6h-0.6c-0.2,0-0.2-0.1-0.2-0.2s0-0.2,0.2-0.2h0.6V427c0-0.1,0.1-0.2,0.2-0.2c0.1,0,0.3,0.1,0.3,0.2v1.8
		h0.6C941,428.8,941.1,429,941.1,429.1z"/>
	<path d="M947.2,429.1v4.4c0,0.1-0.1,0.2-0.2,0.2c-0.1,0-0.2-0.1-0.2-0.2v-0.7c-0.4,0.6-1.1,1-1.8,1c-1.3,0-2.3-1.1-2.3-2.4
		c0-1.3,1-2.4,2.3-2.4c0.7,0,1.4,0.4,1.8,1v-0.7c0-0.1,0.1-0.2,0.2-0.2C947.1,428.8,947.2,428.9,947.2,429.1z M946.7,431.3
		c0-1.1-0.8-2-1.8-2c-1,0-1.8,0.9-1.8,2c0,1.1,0.8,2,1.8,2C945.9,433.3,946.7,432.4,946.7,431.3z"/>
	<path d="M949.3,429.1c0-0.1,0.1-0.2,0.2-0.2c0.1,0,0.2,0.1,0.2,0.2v1.1c0,0,0-0.1,0.1-0.1c0.4-0.6,1-1.2,2-1.2
		c0.1,0,0.2,0.1,0.2,0.2c0,0.1-0.1,0.2-0.2,0.2c-0.6,0-1.1,0.4-1.4,0.8c-0.3,0.4-0.5,0.9-0.6,1.1c0,0,0,0.1,0,0.1v2.1
		c0,0.1-0.1,0.2-0.2,0.2c-0.1,0-0.2-0.1-0.2-0.2V429.1z"/>
	<path d="M955.4,429.1c0,0.1-0.1,0.2-0.2,0.2h-0.6v3.6c0,0.2,0.2,0.4,0.4,0.4s0.2,0.1,0.2,0.2c0,0.1-0.1,0.2-0.2,0.2
		c-0.5,0-0.9-0.4-0.9-0.8v-3.6h-0.6c-0.2,0-0.2-0.1-0.2-0.2s0-0.2,0.2-0.2h0.6V427c0-0.1,0.1-0.2,0.2-0.2c0.1,0,0.3,0.1,0.3,0.2v1.8
		h0.6C955.2,428.8,955.4,429,955.4,429.1z"/>
	<path d="M956.9,431.3c0-1.4,1.1-2.5,2.4-2.5c1.3,0,2.3,1,2.4,2.3v0v0c0,0.1-0.1,0.2-0.2,0.2h-4c0,1.1,0.9,1.9,1.9,1.9
		c0.7,0,1.2-0.3,1.6-0.9c0.1-0.1,0.2-0.1,0.3-0.1c0.1,0.1,0.1,0.2,0.1,0.3c-0.4,0.7-1.1,1.1-2,1.1
		C958,433.7,956.9,432.6,956.9,431.3z M957.4,430.9h3.7c-0.2-0.9-0.9-1.6-1.8-1.6C958.4,429.3,957.6,430,957.4,430.9z"/>
	<path d="M963.1,429.1c0-0.1,0.1-0.2,0.2-0.2c0.1,0,0.2,0.1,0.2,0.2v1.1c0,0,0-0.1,0.1-0.1c0.4-0.6,1-1.2,2-1.2
		c0.1,0,0.2,0.1,0.2,0.2c0,0.1-0.1,0.2-0.2,0.2c-0.6,0-1.1,0.4-1.4,0.8c-0.3,0.4-0.5,0.9-0.6,1.1c0,0,0,0.1,0,0.1v2.1
		c0,0.1-0.1,0.2-0.2,0.2c-0.1,0-0.2-0.1-0.2-0.2V429.1z"/>
	<path d="M970.6,427c0-0.1,0.1-0.2,0.2-0.2c0.1,0,0.2,0.1,0.2,0.2v4l4.2-4.2c0.1-0.1,0.3-0.1,0.3,0c0.1,0.1,0.1,0.2,0,0.3l-2.7,2.7
		l2.7,3.5c0.1,0.1,0.1,0.2,0,0.3c0,0-0.1,0-0.2,0c-0.1,0-0.1,0-0.2-0.1l-2.7-3.4l-1.5,1.5v1.7c0,0.1-0.1,0.2-0.2,0.2
		c-0.1,0-0.2-0.1-0.2-0.2V427z"/>
	<path d="M977.7,427.5c0-0.1,0.1-0.2,0.2-0.2c0.1,0,0.2,0.1,0.2,0.2v0.2c0,0.1-0.1,0.3-0.2,0.3c-0.1,0-0.2-0.1-0.2-0.3V427.5z
		 M977.7,429.1c0-0.1,0.1-0.2,0.2-0.2c0.1,0,0.2,0.1,0.2,0.2v4.4c0,0.1-0.1,0.2-0.2,0.2c-0.1,0-0.2-0.1-0.2-0.2V429.1z"/>
	<path d="M982.2,429.1c0,0.1-0.1,0.2-0.2,0.2h-0.6v3.6c0,0.2,0.2,0.4,0.4,0.4s0.2,0.1,0.2,0.2c0,0.1-0.1,0.2-0.2,0.2
		c-0.5,0-0.9-0.4-0.9-0.8v-3.6h-0.6c-0.2,0-0.2-0.1-0.2-0.2s0-0.2,0.2-0.2h0.6V427c0-0.1,0.1-0.2,0.2-0.2c0.1,0,0.3,0.1,0.3,0.2v1.8
		h0.6C982.1,428.8,982.2,429,982.2,429.1z"/>
	<path d="M928.6,441c0-0.1,0.1-0.2,0.2-0.2h0h1.5c1,0,1.7,0.8,1.7,1.7c0,0.5-0.3,1-0.7,1.4c0.8,0.3,1.4,1,1.4,1.9c0,1.1-0.9,2-2,2
		h-2h0h0c-0.1,0-0.2-0.1-0.2-0.2V441z M930.4,443.7c0.7,0,1.2-0.6,1.2-1.2c0-0.7-0.6-1.3-1.2-1.3h-1.3v2.5H930.4z M930.8,447.2
		c0.8,0,1.5-0.7,1.5-1.5c0-0.8-0.7-1.5-1.5-1.5h-1.7v3H930.8z"/>
	<path d="M934,445.3c0-1.4,1.1-2.5,2.4-2.5c1.3,0,2.3,1,2.4,2.3v0v0c0,0.1-0.1,0.2-0.2,0.2h-4c0,1.1,0.9,1.9,1.9,1.9
		c0.7,0,1.2-0.3,1.6-0.9c0.1-0.1,0.2-0.1,0.3-0.1c0.1,0.1,0.1,0.2,0.1,0.3c-0.4,0.7-1.1,1.1-2,1.1C935.1,447.7,934,446.6,934,445.3z
		 M934.6,444.9h3.7c-0.2-0.9-0.9-1.6-1.8-1.6C935.5,443.3,934.7,444,934.6,444.9z"/>
	<path d="M941.8,443.1c0,0.1-0.1,0.2-0.2,0.2h-0.6v3.6c0,0.2,0.2,0.4,0.4,0.4s0.2,0.1,0.2,0.2c0,0.1-0.1,0.2-0.2,0.2
		c-0.5,0-0.9-0.4-0.9-0.8v-3.6h-0.6c-0.2,0-0.2-0.1-0.2-0.2s0-0.2,0.2-0.2h0.6V441c0-0.1,0.1-0.2,0.2-0.2c0.1,0,0.3,0.1,0.3,0.2v1.8
		h0.6C941.7,442.8,941.8,443,941.8,443.1z"/>
	<path d="M947.9,443.1v4.4c0,0.1-0.1,0.2-0.2,0.2c-0.1,0-0.2-0.1-0.2-0.2v-0.7c-0.4,0.6-1.1,1-1.8,1c-1.3,0-2.3-1.1-2.3-2.4
		c0-1.3,1-2.4,2.3-2.4c0.7,0,1.4,0.4,1.8,1v-0.7c0-0.1,0.1-0.2,0.2-0.2C947.8,442.8,947.9,442.9,947.9,443.1z M947.4,445.3
		c0-1.1-0.8-2-1.8-2c-1,0-1.8,0.9-1.8,2c0,1.1,0.8,2,1.8,2C946.6,447.3,947.4,446.4,947.4,445.3z"/>
	<path d="M954.9,441.2h-2.1c-0.1,0-0.2-0.1-0.2-0.2c0-0.1,0.1-0.2,0.2-0.2h4.7c0.1,0,0.2,0.1,0.2,0.2c0,0.1-0.1,0.2-0.2,0.2h-2.1
		v6.3c0,0.1-0.1,0.2-0.2,0.2s-0.2-0.1-0.2-0.2V441.2z"/>
	<path d="M957.8,445.3c0-1.4,1.1-2.5,2.4-2.5c1.3,0,2.3,1,2.4,2.3v0v0c0,0.1-0.1,0.2-0.2,0.2h-4c0,1.1,0.9,1.9,1.9,1.9
		c0.7,0,1.2-0.3,1.6-0.9c0.1-0.1,0.2-0.1,0.3-0.1c0.1,0.1,0.1,0.2,0.1,0.3c-0.4,0.7-1.1,1.1-2,1.1
		C958.8,447.7,957.8,446.6,957.8,445.3z M958.3,444.9h3.7c-0.2-0.9-0.9-1.6-1.8-1.6C959.2,443.3,958.4,444,958.3,444.9z"/>
	<path d="M963.9,446.7c0.1-0.1,0.2-0.1,0.3,0c0.3,0.2,0.9,0.6,1.5,0.6c0.4,0,0.7-0.1,0.9-0.3c0.2-0.2,0.4-0.4,0.4-0.6
		c0-0.2-0.1-0.4-0.3-0.6c-0.2-0.2-0.6-0.3-1-0.4l0,0c-0.4-0.1-0.8-0.2-1.1-0.4c-0.3-0.2-0.5-0.5-0.5-0.9c0-0.4,0.2-0.7,0.5-1
		c0.3-0.2,0.7-0.3,1.2-0.3c0.6,0,1.1,0.3,1.5,0.5c0.1,0.1,0.1,0.2,0.1,0.3c-0.1,0.1-0.2,0.1-0.3,0.1c-0.4-0.2-0.7-0.5-1.2-0.5
		c-0.4,0-0.7,0.1-0.9,0.3c-0.2,0.2-0.3,0.4-0.3,0.6c0,0.2,0.1,0.3,0.3,0.5c0.2,0.1,0.5,0.3,1,0.3h0c0.5,0.1,0.8,0.2,1.2,0.4
		c0.3,0.2,0.5,0.6,0.5,1c0,0.4-0.2,0.7-0.6,1c-0.3,0.2-0.7,0.4-1.2,0.4c-0.8,0-1.4-0.4-1.8-0.7C963.8,446.9,963.8,446.8,963.9,446.7
		z"/>
	<path d="M971,443.1c0,0.1-0.1,0.2-0.2,0.2h-0.6v3.6c0,0.2,0.2,0.4,0.4,0.4s0.2,0.1,0.2,0.2c0,0.1-0.1,0.2-0.2,0.2
		c-0.5,0-0.9-0.4-0.9-0.8v-3.6H969c-0.2,0-0.2-0.1-0.2-0.2s0-0.2,0.2-0.2h0.6V441c0-0.1,0.1-0.2,0.2-0.2c0.1,0,0.3,0.1,0.3,0.2v1.8
		h0.6C970.8,442.8,971,443,971,443.1z"/>
	<path d="M973.3,441.5c0-0.1,0.1-0.2,0.2-0.2c0.1,0,0.2,0.1,0.2,0.2v0.2c0,0.1-0.1,0.3-0.2,0.3c-0.1,0-0.2-0.1-0.2-0.3V441.5z
		 M973.3,443.1c0-0.1,0.1-0.2,0.2-0.2c0.1,0,0.2,0.1,0.2,0.2v4.4c0,0.1-0.1,0.2-0.2,0.2c-0.1,0-0.2-0.1-0.2-0.2V443.1z"/>
	<path d="M979.6,444.8c0-0.8-0.7-1.5-1.5-1.5c-0.8,0-1.5,0.7-1.5,1.5v2.7v0c0,0,0,0.1,0,0.1c0,0.1-0.1,0.1-0.2,0.1h-0.1
		c-0.1,0-0.1-0.1-0.2-0.1c0,0,0,0,0,0s0,0,0,0v-0.1v-2.7v-0.1v-1.7c0-0.1,0.1-0.2,0.2-0.2c0.1,0,0.2,0.1,0.2,0.2v0.5
		c0.4-0.4,0.9-0.7,1.5-0.7c1.1,0,2,0.9,2,2v2.7c0,0.1-0.1,0.2-0.2,0.2c-0.1,0-0.2-0.1-0.2-0.2V444.8z"/>
	<path d="M986.5,447.3c0,1.3-1,2.3-2.3,2.3c-0.4,0-0.7-0.1-1-0.2c-0.1-0.1-0.2-0.2-0.1-0.3c0.1-0.1,0.2-0.2,0.3-0.1
		c0.2,0.1,0.5,0.2,0.8,0.2c1,0,1.8-0.8,1.8-1.8v-0.6c-0.4,0.6-1.1,1-1.8,1c-1.3,0-2.3-1.1-2.3-2.4c0-1.3,1-2.4,2.3-2.4
		c0.8,0,1.4,0.4,1.8,1v-0.7c0-0.1,0.1-0.2,0.2-0.2c0.1,0,0.2,0.1,0.2,0.2V447.3z M986,445.3c0-1.1-0.8-1.9-1.8-1.9
		c-1,0-1.8,0.9-1.8,1.9c0,1.1,0.8,2,1.8,2C985.2,447.2,986,446.4,986,445.3z"/>
</g>
</svg>
