<svg width="1043" height="178" viewBox="0 0 1043 178" xmlns="http://www.w3.org/2000/svg">
    <title>
        Dates
    </title>
    <g transform="translate(.453 4.728)" fill="none" fill-rule="evenodd">
        <rect fill="#CCE7F4" x="561" y="108" width="69" height="34" rx="5"/>
        <path d="M150.547 86h697m71.975 0h102.027" stroke="#008CDC" stroke-width="4"/>
        <circle stroke="#008CDC" stroke-width="4" fill="#FFF" cx="741.5" cy="86.5" r="9.5"/>
        <circle stroke="#008CDC" stroke-width="4" fill="#FFF" cx="291.5" cy="86" r="6"/>
        <circle stroke="#008CDC" stroke-width="4" fill="#FFF" cx="159.5" cy="86" r="5.75"/>
        <g transform="translate(1 83)" fill="#008CDC">
            <circle opacity=".5" cx="41.5" cy="3" r="2.5"/>
            <circle opacity=".6" cx="50.5" cy="3" r="2.5"/>
            <circle opacity=".7" cx="60.5" cy="3" r="2.5"/>
            <circle opacity=".8" cx="70.5" cy="3" r="2.5"/>
            <circle opacity=".9" cx="80.5" cy="3" r="2.5"/>
            <circle cx="90.5" cy="3" r="2.5"/>
            <circle cx="100.5" cy="3" r="2.5"/>
            <circle cx="110.5" cy="3" r="2.5"/>
            <circle cx="120.5" cy="3" r="2.5"/>
            <circle cx="130.5" cy="3" r="2.5"/>
            <circle cx="140.5" cy="3" r="2.5"/>
            <circle opacity=".4" cx="32.5" cy="3" r="2.5"/>
            <circle opacity=".3" cx="22.5" cy="3" r="2.5"/>
            <circle opacity=".2" cx="12.5" cy="3" r="2.5"/>
            <circle opacity=".1" cx="2.5" cy="3" r="2.5"/>
        </g>
        <circle stroke="#008CDC" stroke-width="4" fill="#FFF" cx="440.5" cy="86" r="6.75"/>
        <path d="M1007.873 92.823c0 2.762 1.995 3.98 4.448 2.724l14.754-7.552c2.457-1.258 2.432-3.26-.042-4.468l-14.667-7.16c-2.48-1.21-4.49.055-4.49 2.81v13.646z" stroke="#008CDC" stroke-width="4" fill="#008CDC"/>
        <path d="M589.188 90.106c0 2.767 1.987 3.992 4.45 2.73l9.34-4.78c2.46-1.26 2.448-3.258-.034-4.47l-9.27-4.523c-2.478-1.21-4.486.047-4.486 2.82v8.223z" stroke="#008CDC" stroke-width="4" fill="#FFF"/>
        <path d="M724.962 38.858c-.124.05-.186.205-.124.33l2.78 6.606c.01.052.03.093.06.124l.01.01.022.02c.04.03.092.052.154.052.05 0 .103-.01.144-.04 0 0 .01-.01.02-.01.02-.022.042-.043.052-.073.01-.01.02-.03.02-.052l1.843-4.353 1.832 4.353c.01.01.01.02.01.03.01.022.03.052.04.063.012.02.032.03.042.04.042.032.083.042.124.042h.053c.072-.01.165-.072.206-.165l2.8-6.648c.06-.124 0-.278-.125-.33-.144-.06-.278 0-.34.124l-2.573 6.126-1.82-4.333c-.052-.093-.144-.154-.257-.154-.093 0-.186.06-.237.153l-1.832 4.333-2.573-6.124c-.05-.122-.205-.184-.328-.122zm11.35 6.895c0 .134.115.247.248.247.144 0 .258-.113.258-.247v-4.55c0-.143-.114-.246-.258-.246-.133 0-.247.103-.247.247v4.55zm0-5.96c0 .145.115.27.248.27.144 0 .258-.125.258-.27v-.236c0-.133-.114-.247-.258-.247-.133 0-.247.114-.247.247v.237zm6.485 5.96c0 .144.113.247.247.247s.247-.103.247-.247v-2.738c0-1.12-.914-2.048-2.046-2.048-.628 0-1.194.29-1.564.73v-.483c0-.133-.104-.247-.238-.247-.144 0-.247.114-.247.247v4.6s.01.01.01.02c0 .012 0 .022.01.032.03.062.093.113.165.134h.062c.072 0 .144-.03.185-.093.03-.03.04-.072.052-.113v-2.78c.02-.853.71-1.553 1.562-1.553.864 0 1.554.7 1.554 1.556v2.738zm4.22-4.796h-.65v-1.873c0-.123-.133-.247-.266-.247-.122 0-.245.124-.245.247v1.873h-.628c-.247 0-.247.124-.247.247 0 .124 0 .247.246.247h.628v3.676c0 .505.38.875.885.875.12 0 .255-.122.255-.246 0-.123-.134-.257-.257-.257-.125 0-.372-.124-.372-.37V41.45h.65c.122 0 .246-.122.246-.246 0-.123-.124-.247-.247-.247zm4.28 5.043c.855 0 1.606-.453 2.04-1.142.07-.124.03-.268-.084-.35-.103-.062-.257-.04-.33.082-.34.566-.956.916-1.625.916-1.04 0-1.904-.834-1.956-1.935h4.138c.133 0 .247-.09.247-.224v-.04c-.103-1.32-1.132-2.348-2.43-2.348-1.358 0-2.45 1.132-2.45 2.532 0 1.378 1.092 2.51 2.45 2.51zm0-4.55c.927 0 1.73.69 1.895 1.637h-3.82c.187-.957.98-1.636 1.926-1.636zm3.963 4.303c0 .144.113.247.257.247.124 0 .237-.103.237-.247V43.54c0-.02 0-.04.02-.082.073-.206.268-.72.608-1.173.35-.453.803-.824 1.46-.824.135 0 .248-.11.248-.245 0-.144-.113-.247-.247-.247-.967 0-1.636.638-2.017 1.235-.03.042-.05.083-.072.124v-1.112c0-.144-.113-.247-.237-.247-.144 0-.257.103-.257.247v4.54zm-24.916 14.175c.04.05.113.072.185.072h4.053c.134 0 .247-.113.247-.247 0-.144-.112-.257-.246-.257h-3.406l2.88-2.604c.516-.473.773-1.112.773-1.75 0-.555-.193-1.12-.615-1.574-.463-.525-1.1-.772-1.73-.772-.565 0-1.14.206-1.594.607l-.35.33c-.102.082-.112.246-.01.35.083.102.247.113.35.01l.35-.32c.36-.318.803-.473 1.256-.473.504 0 1.008.206 1.37.607.318.35.482.793.482 1.235 0 .515-.216 1.01-.617 1.38l-3.364 3.035c-.103.103-.103.258-.01.37zm6.885-1.02c.44.65 1.07 1.092 1.8 1.092s1.36-.443 1.8-1.09c.433-.66.7-1.545.7-2.512 0-.967-.267-1.853-.7-2.52-.44-.64-1.07-1.082-1.8-1.082s-1.36.442-1.8 1.08c-.444.67-.69 1.555-.69 2.522 0 .967.246 1.852.69 2.51zm.42-4.743c.37-.566.865-.865 1.38-.865.514 0 1 .3 1.38.865.37.555.616 1.348.616 2.233s-.247 1.677-.618 2.233c-.38.548-.865.867-1.38.867-.514 0-1.008-.32-1.38-.865-.37-.555-.606-1.347-.606-2.232 0-.885.237-1.678.607-2.233zm7.215 5.588c0 .134.113.247.247.247.144 0 .247-.113.247-.247v-6.617c.01-.062 0-.124-.03-.186-.064-.113-.23-.154-.34-.092l-1.39.844c-.125.06-.166.205-.094.34.04.07.124.123.216.123.04 0 .093-.02.124-.04l1.02-.598v6.226zm2.367-2.52c0 .163 0 .318.02.472.04 1.276 1.09 2.295 2.378 2.295 1.328 0 2.388-1.06 2.388-2.377 0-1.307-1.06-2.378-2.387-2.378-.71 0-1.347.32-1.78.813.104-.514.27-1.02.516-1.44.453-.752 1.09-1.266 2.1-1.308.133-.01.246-.123.246-.267-.01-.134-.122-.247-.256-.237-1.194.04-2.027.69-2.52 1.565-.495.856-.69 1.905-.7 2.863zm.525.39c0-1.03.843-1.873 1.873-1.873 1.05 0 1.894.843 1.894 1.873s-.844 1.873-1.893 1.873c-.945 0-1.74-.71-1.86-1.626.01-.02.01-.042.01-.072-.01-.042-.02-.083-.02-.134v-.04z" fill="#000"/>
        <path d="M568.73 46.072h1.216c1.986 0 3.59-1.616 3.59-3.612 0-1.976-1.604-3.592-3.59-3.592h-1.215c-.317 0-.564.247-.564.566v6.072c0 .31.247.566.566.566zm.578-6.062h.638c1.358 0 2.45 1.1 2.45 2.45 0 1.368-1.092 2.46-2.45 2.47h-.638v-4.92zm8.295 6.062c.73 0 1.338-.216 1.842-.68.237-.215.134-.524 0-.668-.134-.165-.556-.196-.772.03-.257.196-.7.29-1.07.258-.36-.03-.772-.216-.988-.463-.186-.177-.3-.445-.35-.68h3.272c.29 0 .505-.166.536-.413.01-.02.01-.072.01-.093v-.05c-.082-1.39-1.142-2.39-2.48-2.39-1.41 0-2.5 1.174-2.51 2.574.01 1.4 1.1 2.562 2.51 2.572zm0-4.168c.895.072 1.42.68 1.523 1.09h-2.913c.083-.42.515-1.05 1.39-1.09zm6.37 4.168c.618 0 1.194-.226 1.637-.545.236-.206.277-.536.113-.762-.206-.247-.546-.288-.772-.113-.266.195-.605.33-.976.33-.833 0-1.523-.68-1.523-1.473s.69-1.484 1.524-1.484c.38 0 .71.134.978.33.238.185.567.144.773-.103.164-.227.123-.577-.113-.762-.443-.34-1.02-.565-1.637-.565-1.42.01-2.614 1.153-2.614 2.583 0 1.41 1.194 2.562 2.614 2.562zm5.62 0c.73 0 1.337-.216 1.842-.68.236-.215.133-.524 0-.668-.134-.165-.556-.196-.772.03-.258.196-.7.29-1.07.258-.36-.03-.773-.216-.99-.463-.184-.177-.297-.445-.35-.68h3.274c.288 0 .504-.166.535-.413.01-.02.01-.072.01-.093v-.05c-.082-1.39-1.142-2.39-2.48-2.39-1.41 0-2.5 1.174-2.51 2.574.01 1.4 1.1 2.562 2.51 2.572zm0-4.168c.895.072 1.42.68 1.523 1.09h-2.913c.082-.42.515-1.05 1.39-1.09zm9.488.123c.568 0 1.04.474 1.04 1.06v2.44c0 .298.26.545.557.545.3 0 .546-.247.546-.545v-2.44c0-1.193-.957-2.16-2.14-2.16-.65 0-1.236.267-1.617.71-.39-.443-.967-.71-1.615-.71-.39 0-.77.112-1.1.308-.083-.196-.278-.31-.495-.31-.298 0-.545.238-.545.557v4.045c0 .267.195.473.442.535.03 0 .06.01.102.01.217 0 .422-.144.515-.33v-.05c.02-.02.02-.042.03-.063v-.03c0-.023.01-.054.01-.074v-2.44c0-.586.473-1.06 1.04-1.06.575 0 1.05.464 1.06 1.03v2.47c0 .3.266.546.554.546.3 0 .546-.247.546-.545v-2.47c.02-.566.485-1.03 1.07-1.03zm4.417 3.49c0 .298.247.555.556.555.278 0 .494-.196.545-.443.392.266.886.44 1.4.44 1.39 0 2.5-1.172 2.5-2.562 0-1.41-1.11-2.584-2.5-2.584-.504 0-.998.165-1.38.432v-1.934c0-.3-.246-.556-.565-.556-.31 0-.556.257-.556.556v6.093zm1.534-3.047c.258-.268.587-.422.968-.422.37 0 .71.154.968.422.257.257.41.628.41 1.04 0 .39-.153.76-.41 1.018-.258.268-.597.422-.968.422-.38 0-.71-.154-.967-.422-.257-.257-.41-.628-.41-1.02 0-.41.153-.78.41-1.038zm7.41 3.602c.73 0 1.34-.216 1.843-.68.237-.215.134-.524 0-.668-.134-.165-.556-.196-.772.03-.256.196-.7.29-1.07.258-.36-.03-.77-.216-.987-.463-.186-.177-.3-.445-.35-.68h3.272c.29 0 .505-.166.536-.413.01-.02.01-.072.01-.093v-.05c-.08-1.39-1.14-2.39-2.48-2.39-1.41 0-2.5 1.174-2.51 2.574.01 1.4 1.1 2.562 2.51 2.572zm0-4.168c.896.072 1.42.68 1.524 1.09h-2.913c.084-.42.516-1.05 1.39-1.09zm6.526-.967c-.515-.01-.958.174-1.297.4-.073.052-.156.135-.217.207v-.072c0-.3-.258-.535-.566-.535-.3 0-.546.236-.546.535v4.055c0 .298.248.545.547.545.308 0 .566-.247.566-.545V43.57c.05-.143.175-.534.422-.863.123-.196.277-.37.473-.494.175-.134.38-.196.618-.196.308 0 .545-.257.545-.545 0-.3-.236-.535-.544-.535zM586.752 58.93h-2.193l1.944-1.76c.535-.484.813-1.163.813-1.832 0-.587-.206-1.194-.638-1.657-.485-.534-1.164-.81-1.833-.81-.587 0-1.194.204-1.657.637l-.318.288c-.237.216-.247.566-.042.803.216.236.566.257.803.04l.32-.287c.256-.226.576-.34.895-.34.36 0 .72.135.988.433.226.258.34.566.34.896 0 .37-.135.72-.433.987l-3.046 2.758c-.227.216-.247.566-.03.803.102.123.266.185.42.185h3.665c.32 0 .566-.247.566-.566 0-.32-.247-.576-.566-.576zm2.686 0c.432.648 1.1 1.142 1.914 1.142.793 0 1.472-.494 1.904-1.142.443-.66.69-1.524.69-2.46 0-.947-.247-1.8-.69-2.46-.432-.66-1.11-1.142-1.904-1.142-.813 0-1.482.483-1.914 1.142-.453.66-.69 1.513-.7 2.46.01.936.247 1.8.7 2.46zm2.87-.64c-.297.444-.637.64-.956.64-.32 0-.67-.196-.978-.64-.288-.43-.494-1.09-.494-1.82 0-.74.206-1.39.494-1.832.31-.432.66-.638.978-.628.32-.01.66.196.957.628.286.442.492 1.09.492 1.832 0 .73-.206 1.39-.494 1.82zm5.827-4.887c-.02-.02-.02-.04-.02-.072 0-.01-.01-.03-.01-.05-.012-.01-.012-.03-.022-.05 0-.02-.01-.03-.02-.053 0-.01-.01-.02-.01-.03l-.01-.02-.042-.042c-.01-.02-.02-.03-.03-.04-.01-.012-.02-.032-.04-.043-.01-.01-.03-.02-.04-.03-.02-.01-.03-.02-.043-.03-.02 0-.03-.01-.06-.03-.012-.012-.032-.012-.043-.012-.02-.01-.03-.02-.06-.02-.012 0-.032 0-.042-.01h-.112c-.02 0-.052 0-.073.01-.01 0-.03 0-.04.01-.02 0-.042.01-.063.01-.02.01-.03.03-.05.03-.01.012-.032.012-.042.022l-1.266.75c-.268.156-.36.516-.185.773.1.185.288.288.483.288.093 0 .196-.02.288-.08l.413-.238v5.064c0 .32.247.565.566.565.31 0 .576-.247.576-.566v-6.103zm3.303 1.554c-.226 0-.463.03-.69.093l.124-1.02h2.532c.33 0 .587-.267.587-.576 0-.33-.256-.586-.585-.586h-3.036c-.104 0-.186.02-.27.06-.01.012-.02.012-.03.022-.01.01-.02.01-.04.02-.135.093-.227.237-.258.412l-.308 2.666c-.01.05-.01.113 0 .175 0 .01.01.01.01.02 0 .02.01.042.01.072.01.01.02.03.02.052.012 0 .012.01.012.03.04.042.072.093.113.135.225.226.596.226.822 0 .268-.278.638-.402.988-.402.36 0 .71.124.978.402.278.267.412.617.412.988 0 .35-.144.71-.412.977-.268.278-.628.412-.978.412-.37 0-.72-.136-.988-.414-.226-.226-.607-.226-.823 0-.238.237-.238.608 0 .824.483.505 1.152.752 1.79.752h.02c.65 0 1.307-.247 1.8-.75.494-.495.75-1.154.75-1.802 0-.66-.245-1.318-.75-1.812-.494-.504-1.152-.75-1.8-.75z" fill="#008CDC"/>
        <path d="M419.637 42.346c.01 2.018 1.533 3.654 3.478 3.654 1.925 0 3.438-1.636 3.448-3.654-.01-2.017-1.523-3.653-3.448-3.653-1.945 0-3.468 1.636-3.478 3.653zm.504 0c0-1.78 1.34-3.138 2.976-3.138 1.585 0 2.923 1.358 2.934 3.138-.012 1.76-1.35 3.15-2.935 3.15-1.636 0-2.974-1.39-2.974-3.15zM430.826 46c.597 0 1.163-.206 1.585-.535.122-.093.143-.247.05-.36-.082-.093-.226-.124-.34-.042-.36.278-.812.443-1.296.443-1.173 0-2.1-.906-2.1-2.038 0-1.11.927-2.027 2.1-2.027.484 0 .936.166 1.297.455.115.082.26.05.34-.042.094-.113.073-.267-.03-.34-.442-.35-1.01-.555-1.605-.555-1.44 0-2.594 1.112-2.594 2.51 0 1.422 1.154 2.533 2.595 2.533zm5.156-5.043h-.647v-1.873c0-.123-.134-.247-.268-.247-.123 0-.247.124-.247.247v1.873h-.628c-.248 0-.248.124-.248.247 0 .124 0 .247.247.247h.626v3.676c0 .505.38.875.885.875.125 0 .258-.122.258-.246 0-.123-.134-.257-.258-.257-.123 0-.37-.124-.37-.37V41.45h.648c.123 0 .247-.122.247-.246 0-.123-.124-.247-.247-.247zm2.214 2.522c0 1.366 1.07 2.52 2.387 2.52 1.33 0 2.39-1.154 2.39-2.52 0-1.37-1.06-2.524-2.39-2.524-1.316 0-2.386 1.153-2.386 2.522zm.494 0c0-1.124.864-2.04 1.893-2.04 1.03 0 1.895.916 1.895 2.04 0 1.12-.865 2.025-1.894 2.025-1.03 0-1.892-.906-1.892-2.027zm6.175 2.272c0 .134.113.247.247.247.143 0 .256-.114.256-.248v-.73c.442.596 1.142.977 1.935.977 1.36 0 2.44-1.133 2.44-2.51 0-1.4-1.08-2.534-2.44-2.534-.79 0-1.49.39-1.933.988v-2.902c0-.134-.113-.247-.257-.247-.135 0-.248.113-.248.247v6.708zm.504-2.346c.04-1.08.895-1.946 1.935-1.946 1.07 0 1.936.907 1.936 2.03 0 1.11-.865 2.006-1.935 2.006-1.06 0-1.934-.896-1.934-2.007v-.084zM453.743 46c.854 0 1.606-.453 2.038-1.142.074-.124.033-.268-.08-.35-.103-.062-.26-.04-.33.082-.34.566-.957.916-1.626.916-1.04 0-1.904-.834-1.955-1.935h4.136c.134 0 .247-.09.247-.224v-.04c-.103-1.32-1.132-2.348-2.43-2.348-1.357 0-2.448 1.132-2.448 2.532 0 1.378 1.09 2.51 2.45 2.51zm0-4.55c.926 0 1.73.69 1.894 1.637h-3.818c.183-.957.975-1.636 1.922-1.636zm3.962 4.303c0 .144.114.247.258.247.123 0 .236-.103.236-.247V43.54c0-.02 0-.04.02-.082.07-.206.267-.72.606-1.173.35-.453.803-.824 1.462-.824.132 0 .246-.11.246-.245 0-.144-.114-.247-.247-.247-.97 0-1.638.638-2.018 1.235-.03.042-.053.083-.074.124v-1.112c0-.144-.114-.247-.237-.247-.145 0-.26.103-.26.247v4.54zM429.12 59.928c.042.05.114.072.186.072h4.055c.136 0 .25-.113.25-.247 0-.144-.114-.257-.248-.257h-3.406l2.882-2.604c.514-.473.772-1.112.772-1.75 0-.555-.196-1.12-.618-1.574-.463-.525-1.1-.772-1.73-.772-.565 0-1.14.206-1.594.607l-.35.33c-.103.082-.113.246-.01.35.082.102.247.113.35.01l.35-.32c.36-.318.802-.473 1.255-.473.506 0 1.01.206 1.37.607.32.35.484.793.484 1.235 0 .515-.216 1.01-.618 1.38l-3.366 3.035c-.102.103-.102.258-.01.37zm6.886-1.02c.442.65 1.07 1.092 1.8 1.092s1.36-.443 1.802-1.09c.432-.66.7-1.545.7-2.512 0-.967-.268-1.853-.7-2.52-.443-.64-1.07-1.082-1.8-1.082-.732 0-1.36.442-1.802 1.08-.443.67-.69 1.555-.69 2.522 0 .967.247 1.852.69 2.51zm.422-4.743c.37-.566.864-.865 1.38-.865.513 0 .997.3 1.378.865.37.555.617 1.348.617 2.233s-.247 1.677-.617 2.233c-.38.548-.865.867-1.38.867-.514 0-1.008-.32-1.378-.865-.37-.555-.608-1.347-.608-2.232 0-.885.237-1.678.608-2.233zm7.214 5.588c0 .134.113.247.247.247.142 0 .245-.113.245-.247v-6.617c.01-.062 0-.124-.03-.186-.063-.113-.227-.154-.34-.092l-1.39.844c-.123.06-.164.205-.092.34.04.07.123.123.216.123.04 0 .09-.02.122-.04l1.02-.598v6.226zM447.8 60c.617 0 1.255-.247 1.73-.71.483-.474.71-1.112.71-1.73 0-.637-.227-1.255-.71-1.728-.475-.484-1.092-.71-1.72-.71-.432 0-.854.113-1.225.33l.258-2.142h3.14c.143 0 .256-.102.256-.257 0-.144-.115-.257-.26-.257h-3.354c-.062 0-.124.02-.165.062-.06.04-.102.103-.102.185l-.35 2.902c0 .02-.01.04-.01.052 0 .03 0 .06.01.082 0 .01 0 .02.01.03v.01c.01.03.03.06.06.08.094.104.258.104.36 0 .382-.38.866-.565 1.37-.565.494 0 .988.186 1.36.556.37.37.554.866.554 1.37 0 .494-.185.978-.566 1.358-.38.38-.864.565-1.358.565-.494 0-.978-.185-1.36-.555-.102-.103-.266-.103-.37 0-.102.092-.102.257 0 .36.474.473 1.102.71 1.73.71zM279.96 45.907c.042.103.145.165.238.165.03 0 .05-.01.093-.01.125-.052.187-.206.135-.33l-2.5-6.68c-.03-.09-.134-.153-.248-.153-.102 0-.205.06-.247.152l-2.5 6.68c-.053.123.02.277.143.33.03 0 .072.01.092.01.103 0 .196-.063.237-.166l.638-1.698h3.283l.638 1.697zm-2.273-6.072l1.45 3.87h-2.912l1.462-3.87zm4.024 4.18c0 1.13.907 2.057 2.04 2.057 1.152 0 2.07-.926 2.07-2.058v-2.748c0-.144-.115-.247-.26-.247-.123 0-.246.1-.246.245v2.748c0 .864-.7 1.554-1.565 1.564-.855-.01-1.544-.7-1.544-1.564v-2.748c0-.144-.113-.247-.247-.247s-.248.102-.248.246v2.748zm10.818-2.74c0-.133-.113-.246-.237-.246-.143 0-.256.11-.256.245v.74c-.422-.596-1.11-.987-1.883-.987-1.316 0-2.366 1.14-2.366 2.5 0 1.39 1.05 2.51 2.367 2.51.773 0 1.46-.38 1.884-.987v.62c0 1.04-.833 1.873-1.883 1.873-.31 0-.565-.062-.822-.186-.124-.072-.268-.02-.33.114-.062.114 0 .258.103.33.33.144.68.237 1.05.237 1.318 0 2.378-1.06 2.378-2.367v-4.394zm-2.377 4.282c-1.03 0-1.872-.895-1.872-2.027 0-1.122.844-2.007 1.873-2.007 1.04 0 1.884.885 1.884 2.007 0 1.132-.844 2.027-1.883 2.027zm4.663-1.543c0 1.132.906 2.058 2.038 2.058 1.153 0 2.07-.926 2.07-2.058v-2.748c0-.144-.114-.247-.258-.247-.123 0-.246.1-.246.245v2.748c0 .864-.7 1.554-1.564 1.564-.855-.01-1.544-.7-1.544-1.564v-2.748c0-.144-.113-.247-.247-.247s-.247.102-.247.246v2.748zm6.093 1.338c.41.33 1.05.71 1.862.72.494 0 .906-.144 1.256-.4.34-.26.576-.598.576-1.02 0-.422-.238-.813-.567-1.03-.35-.195-.74-.34-1.225-.41h-.02c-.463-.073-.803-.197-1.03-.35-.195-.155-.287-.3-.287-.505 0-.206.115-.412.32-.577.217-.175.546-.288.958-.288.494 0 .864.258 1.235.505.113.072.267.04.34-.073.07-.113.04-.267-.073-.35-.392-.246-.855-.545-1.503-.545-.515 0-.937.132-1.235.34-.32.234-.546.584-.546.986 0 .39.227.72.546.905.288.207.69.31 1.142.39l.02.013c.495.082.855.206 1.07.37.258.216.35.38.36.618 0 .227-.133.454-.38.618-.226.185-.566.308-.957.308-.638 0-1.194-.33-1.543-.587-.114-.09-.268-.07-.35.03-.083.104-.072.238.03.33zm7.05-4.323h-.65v-1.875c0-.123-.133-.247-.267-.247-.124 0-.248.123-.248.246v1.873h-.626c-.247 0-.247.123-.247.246 0 .124 0 .247.246.247h.627v3.674c0 .505.382.875.886.875.123 0 .257-.124.257-.248 0-.123-.134-.257-.258-.257s-.37-.124-.37-.37V41.52h.647c.124 0 .247-.123.247-.247 0-.123-.122-.247-.246-.247zM281 60c.042.05.114.072.186.072h4.055c.136 0 .25-.113.25-.247 0-.144-.114-.257-.248-.257h-3.406l2.882-2.604c.514-.473.772-1.112.772-1.75 0-.555-.196-1.12-.618-1.574-.463-.525-1.1-.772-1.73-.772-.565 0-1.14.206-1.594.607l-.35.33c-.103.082-.113.246-.01.35.082.102.247.113.35.01l.35-.32c.36-.318.802-.473 1.255-.473.506 0 1.01.206 1.37.607.32.35.484.79.484 1.233 0 .515-.216 1.01-.618 1.38l-3.366 3.035c-.102.102-.102.257-.01.37zm6.886-1.02c.442.65 1.07 1.092 1.8 1.092s1.36-.443 1.802-1.09c.432-.66.7-1.545.7-2.512 0-.967-.268-1.853-.7-2.52-.443-.64-1.07-1.082-1.8-1.082-.732 0-1.36.442-1.802 1.08-.443.67-.69 1.555-.69 2.522 0 .967.247 1.852.69 2.51zm.422-4.743c.37-.566.864-.865 1.38-.865.513 0 .997.3 1.378.865.37.555.617 1.348.617 2.233s-.247 1.677-.617 2.233c-.38.546-.865.865-1.38.865-.514 0-1.008-.32-1.378-.865-.37-.556-.608-1.348-.608-2.233s.237-1.678.608-2.233zm7.214 5.588c0 .134.113.247.247.247.142 0 .245-.113.245-.247v-6.617c.01-.062 0-.124-.03-.186-.063-.113-.227-.154-.34-.092l-1.39.844c-.123.06-.164.205-.092.34.04.07.123.123.216.123.04 0 .09-.02.122-.04l1.02-.598v6.224zm4.158.247c.617 0 1.255-.247 1.73-.71.483-.474.71-1.112.71-1.73 0-.637-.227-1.255-.71-1.728-.475-.484-1.092-.71-1.72-.71-.432 0-.854.113-1.225.33l.258-2.142h3.14c.143 0 .256-.102.256-.257 0-.144-.115-.257-.26-.257h-3.354c-.062 0-.124.02-.165.062-.06.04-.102.103-.102.185l-.35 2.902c0 .02-.01.04-.01.052 0 .03 0 .06.01.08 0 .01 0 .02.01.03v.01c.01.03.03.063.06.083.094.103.258.103.36 0 .382-.38.866-.566 1.37-.566.494 0 .988.186 1.36.556.37.37.554.865.554 1.37 0 .493-.185.977-.566 1.357-.38.382-.864.567-1.358.567-.494 0-.978-.185-1.36-.555-.102-.103-.266-.103-.37 0-.102.092-.102.257 0 .36.474.473 1.102.71 1.73.71zM147.524 44.384c.31.978 1.245 1.688 2.326 1.688 1.348 0 2.44-1.08 2.44-2.44v-4.517c0-.134-.114-.247-.248-.247s-.247.113-.247.247v4.518c0 1.07-.875 1.935-1.945 1.935-.865.01-1.596-.556-1.853-1.348-.03-.124-.175-.196-.31-.155-.132.04-.204.185-.163.32zm6.494-.37c0 1.132.905 2.058 2.038 2.058 1.152 0 2.068-.926 2.068-2.058v-2.748c0-.144-.113-.247-.257-.247-.124 0-.247.1-.247.245v2.748c0 .864-.7 1.554-1.564 1.564-.855-.01-1.544-.7-1.544-1.564v-2.748c0-.144-.113-.247-.247-.247s-.247.102-.247.246v2.748zm9.766 1.81c0 .145.114.248.247.248.136 0 .25-.103.25-.247v-2.738c0-1.12-.916-2.048-2.05-2.048-.626 0-1.192.287-1.563.73v-.485c0-.133-.103-.247-.237-.247-.145 0-.248.113-.248.246v4.6s.01.01.01.02c0 .012 0 .022.01.032.032.062.094.113.166.134h.06c.073 0 .146-.03.187-.093.03-.03.04-.073.05-.114v-2.777c.022-.853.71-1.553 1.565-1.553.865 0 1.554.7 1.554 1.554v2.738zm4.796.248c.855 0 1.606-.453 2.038-1.142.072-.124.03-.268-.082-.35-.103-.062-.258-.04-.33.082-.34.566-.957.916-1.626.916-1.04 0-1.904-.834-1.955-1.935h4.137c.134 0 .247-.092.247-.226v-.04c-.105-1.32-1.134-2.348-2.43-2.348-1.36 0-2.45 1.13-2.45 2.53 0 1.38 1.09 2.51 2.45 2.51zm0-4.55c.927 0 1.73.69 1.894 1.637h-3.818c.185-.96.978-1.638 1.924-1.638zM148.47 60c.042.05.114.072.186.072h4.055c.136 0 .25-.113.25-.247 0-.144-.114-.257-.248-.257h-3.406l2.882-2.604c.514-.473.772-1.112.772-1.75 0-.555-.196-1.12-.618-1.574-.463-.525-1.1-.772-1.73-.772-.565 0-1.14.206-1.594.607l-.35.33c-.103.082-.113.246-.01.35.082.102.247.113.35.01l.35-.32c.36-.318.802-.473 1.255-.473.506 0 1.01.206 1.37.607.32.35.484.79.484 1.233 0 .515-.216 1.01-.618 1.38l-3.366 3.035c-.102.102-.102.257-.01.37zm6.886-1.02c.442.65 1.07 1.092 1.8 1.092s1.36-.443 1.802-1.09c.432-.66.7-1.545.7-2.512 0-.967-.268-1.853-.7-2.52-.443-.64-1.07-1.082-1.8-1.082-.732 0-1.36.442-1.802 1.08-.443.67-.69 1.555-.69 2.522 0 .967.247 1.852.69 2.51zm.422-4.743c.37-.566.864-.865 1.38-.865.513 0 .997.3 1.378.865.37.555.617 1.348.617 2.233s-.247 1.677-.617 2.233c-.38.546-.865.865-1.38.865-.514 0-1.008-.32-1.378-.865-.37-.556-.608-1.348-.608-2.233s.237-1.678.608-2.233zm7.214 5.588c0 .134.113.247.247.247.142 0 .245-.113.245-.247v-6.617c.01-.062 0-.124-.03-.186-.063-.113-.227-.154-.34-.092l-1.39.844c-.123.06-.164.205-.092.34.04.07.123.123.216.123.04 0 .09-.02.122-.04l1.02-.598v6.224zm4.158.247c.617 0 1.255-.247 1.73-.71.483-.474.71-1.112.71-1.73 0-.637-.227-1.255-.71-1.728-.475-.484-1.092-.71-1.72-.71-.432 0-.854.113-1.225.33l.258-2.142h3.14c.143 0 .256-.102.256-.257 0-.144-.115-.257-.26-.257h-3.354c-.062 0-.124.02-.165.062-.06.04-.102.103-.102.185l-.35 2.902c0 .02-.01.04-.01.052 0 .03 0 .06.01.08 0 .01 0 .02.01.03v.01c.01.03.03.063.06.083.094.103.258.103.36 0 .382-.38.866-.566 1.37-.566.494 0 .988.186 1.36.556.37.37.554.865.554 1.37 0 .493-.185.977-.566 1.357-.38.382-.864.567-1.358.567-.494 0-.978-.185-1.36-.555-.102-.103-.266-.103-.37 0-.102.092-.102.257 0 .36.474.473 1.102.71 1.73.71zM41.9 45.907c.043.103.146.165.238.165.03 0 .052-.01.093-.01.125-.052.187-.206.136-.33l-2.5-6.68c-.032-.09-.135-.153-.248-.153-.103 0-.206.06-.247.152l-2.5 6.68c-.052.123.02.277.144.33.03 0 .072.01.093.01.103 0 .195-.063.236-.166l.638-1.698h3.284l.638 1.697zm-2.273-6.072l1.45 3.87h-2.91l1.46-3.87zm4.23 8.1c0 .134.113.247.247.247.144 0 .257-.113.257-.247v-2.882c.434.597 1.134.988 1.916.988 1.36 0 2.44-1.14 2.44-2.51 0-1.38-1.08-2.5-2.44-2.5-.782 0-1.482.39-1.914.978v-.73c0-.135-.112-.248-.256-.248-.134 0-.247.112-.247.246v6.66zm.504-4.487c.043-1.07.898-1.915 1.916-1.915 1.07 0 1.935.885 1.935 1.997 0 1.11-.863 2.007-1.934 2.017-1.04-.01-1.914-.906-1.914-2.017v-.082zm6.29 2.377c0 .144.114.247.258.247.123 0 .236-.103.236-.247v-2.213c0-.02 0-.04.02-.082.073-.206.268-.72.608-1.173.35-.453.804-.824 1.462-.824.134 0 .247-.113.247-.247 0-.144-.113-.247-.247-.247-.967 0-1.636.636-2.017 1.233-.03.042-.05.083-.072.124v-1.112c0-.144-.113-.247-.236-.247-.144 0-.258.102-.258.246v4.54zm4.53 0c0 .134.112.247.246.247.144 0 .257-.113.257-.247v-4.55c0-.143-.113-.246-.257-.246-.134 0-.247.1-.247.245v4.55zm0-5.96c0 .145.112.27.246.27.144 0 .257-.125.257-.27v-.236c0-.135-.113-.25-.257-.25-.134 0-.247.115-.247.248v.236zm2.736 5.96c0 .134.113.247.247.247.144 0 .257-.113.257-.247v-6.71c0-.134-.114-.247-.258-.247-.134 0-.247.113-.247.247v6.71zM36.896 60c.04.05.112.072.184.072h4.055c.134 0 .247-.113.247-.247 0-.144-.113-.257-.247-.257h-3.407l2.882-2.604c.514-.473.772-1.112.772-1.75 0-.555-.196-1.12-.618-1.574-.463-.525-1.1-.772-1.73-.772-.565 0-1.14.206-1.594.607l-.35.33c-.103.082-.113.246-.01.35.082.102.247.113.35.01l.35-.32c.36-.318.802-.473 1.255-.473.505 0 1.01.206 1.37.607.318.35.483.79.483 1.233 0 .515-.216 1.01-.618 1.38l-3.365 3.035c-.103.102-.103.257-.01.37zm6.884-1.02c.442.65 1.07 1.092 1.8 1.092s1.36-.443 1.802-1.09c.432-.66.7-1.545.7-2.512 0-.967-.268-1.853-.7-2.52-.443-.64-1.07-1.082-1.8-1.082-.732 0-1.36.442-1.802 1.08-.443.67-.69 1.555-.69 2.522 0 .967.247 1.852.69 2.51zm.422-4.743c.37-.566.864-.865 1.38-.865.513 0 .997.3 1.378.865.37.555.617 1.348.617 2.233s-.247 1.677-.617 2.233c-.38.546-.865.865-1.38.865-.514 0-1.008-.32-1.378-.865-.37-.556-.608-1.348-.608-2.233s.237-1.678.608-2.233zm7.214 5.588c0 .134.113.247.247.247.144 0 .247-.113.247-.247v-6.617c.01-.062 0-.124-.03-.186-.063-.113-.227-.154-.34-.092l-1.39.844c-.123.06-.164.205-.092.34.04.07.123.123.216.123.04 0 .092-.02.123-.04l1.02-.598v6.224zm4.158.247c.617 0 1.255-.247 1.73-.71.483-.474.71-1.112.71-1.73 0-.637-.227-1.255-.71-1.728-.475-.484-1.092-.71-1.72-.71-.432 0-.854.113-1.225.33l.256-2.142h3.14c.143 0 .256-.102.256-.257 0-.144-.113-.257-.257-.257H54.4c-.06 0-.123.02-.164.062-.062.04-.103.103-.103.185l-.35 2.902c0 .02-.01.04-.01.052 0 .03 0 .06.01.08 0 .01 0 .02.01.03v.01c.01.03.03.063.062.083.093.103.257.103.36 0 .38-.38.865-.566 1.37-.566.493 0 .987.186 1.358.556.37.37.555.865.555 1.37 0 .493-.185.977-.566 1.357-.38.382-.864.567-1.358.567-.494 0-.978-.185-1.36-.555-.102-.103-.266-.103-.37 0-.102.092-.102.257 0 .36.474.473 1.102.71 1.73.71z" fill="#000"/>
        <path d="M576.743 117.01c0-1.226-.988-2.214-2.213-2.214h-1.842c-.31 0-.566.247-.566.566v6.072c0 .31.257.566.566.566.32 0 .576-.257.576-.566V119.2h1.266c1.225 0 2.213-.987 2.213-2.19zm-3.48-1.072h1.267c.597 0 1.06.474 1.07 1.07-.01.577-.473 1.05-1.07 1.05h-1.266v-2.12zm7.37.927c-.514-.01-.957.174-1.297.4-.072.052-.154.135-.216.207v-.072c0-.3-.257-.535-.566-.535-.298 0-.545.236-.545.535v4.055c0 .298.245.545.543.545.31 0 .566-.247.566-.545V119.5c.05-.145.174-.536.42-.865.125-.196.28-.37.475-.494.175-.132.38-.194.617-.194.31 0 .546-.257.546-.545 0-.3-.238-.534-.547-.534zm3.53 5.135c.73 0 1.338-.216 1.842-.68.237-.215.134-.524 0-.668-.133-.165-.555-.196-.77.03-.26.196-.7.29-1.072.258-.36-.03-.772-.216-.988-.463-.185-.175-.298-.443-.35-.68h3.273c.288 0 .504-.164.535-.41.01-.022.01-.073.01-.094v-.05c-.082-1.39-1.142-2.39-2.48-2.39-1.41 0-2.5 1.174-2.51 2.574.01 1.4 1.1 2.563 2.51 2.573zm0-4.168c.896.072 1.42.68 1.523 1.09h-2.912c.082-.42.514-1.05 1.39-1.09zm4.446 1.626h1.933c.33 0 .607-.278.607-.607 0-.34-.277-.616-.606-.616h-1.935c-.33 0-.61.278-.61.618 0 .33.28.608.608.608zm6.11 2.573c.68 0 1.298-.297 1.72-.78.463-.453.72-1.09.72-1.812 0-.7-.257-1.307-.72-1.8-.422-.484-1.04-.783-1.72-.783-.71 0-1.306.3-1.77.782-.44.494-.71 1.102-.71 1.8 0 .722.27 1.36.71 1.813.464.482 1.06.78 1.77.78zm-.987-3.662c.258-.226.597-.39.988-.39.36 0 .69.164.948.39.256.278.4.648.4 1.07 0 .443-.144.803-.4 1.09-.258.248-.587.382-.948.382-.39 0-.73-.135-.988-.382-.236-.288-.37-.648-.37-1.09 0-.423.134-.793.37-1.07zm7.596-1.502c-.516-.01-.96.174-1.298.4-.072.052-.155.135-.216.207v-.072c0-.3-.258-.534-.566-.534-.298 0-.545.236-.545.535v4.056c0 .298.247.545.546.545.31 0 .568-.246.568-.544V119.5c.05-.145.175-.536.422-.865.122-.196.276-.37.472-.494.175-.132.38-.194.618-.194.308 0 .545-.257.545-.545 0-.3-.237-.534-.545-.534zm6.297 2.572v-4.085c0-.3-.247-.556-.556-.556-.32 0-.565.257-.565.556v1.934c-.38-.267-.875-.432-1.38-.432-1.388 0-2.5 1.173-2.5 2.583 0 1.39 1.112 2.563 2.5 2.563.516 0 1.01-.174 1.4-.442.052.247.268.443.546.443.31 0 .557-.256.557-.555v-2.007zm-1.533-1.04c.257.258.41.63.41 1.04 0 .39-.153.762-.41 1.02-.258.267-.587.42-.968.42-.37 0-.71-.153-.967-.42-.26-.258-.413-.63-.413-1.02 0-.41.154-.782.412-1.04.256-.267.596-.42.966-.42.38 0 .71.153.968.42zm5.66 3.603c.73 0 1.338-.215 1.842-.68.237-.214.134-.523 0-.667-.134-.165-.556-.196-.772.03-.257.196-.7.29-1.07.258-.36-.03-.772-.215-.988-.462-.185-.175-.3-.443-.35-.68h3.273c.287 0 .503-.164.534-.41.01-.022.01-.073.01-.094v-.05c-.082-1.39-1.142-2.39-2.48-2.39-1.41 0-2.5 1.174-2.51 2.574.01 1.4 1.1 2.563 2.51 2.573zm0-4.167c.895.072 1.42.68 1.523 1.09h-2.912c.082-.42.514-1.05 1.39-1.09zm6.525-.967c-.516-.01-.958.174-1.298.4-.072.052-.154.135-.216.207v-.072c0-.3-.257-.534-.566-.534-.298 0-.545.236-.545.535v4.056c0 .298.247.545.546.545.31 0 .568-.246.568-.544V119.5c.05-.145.175-.536.422-.865.122-.196.277-.37.472-.494.175-.132.38-.194.618-.194.308 0 .545-.257.545-.545 0-.3-.237-.534-.545-.534zm-35.034 18.096c.587.464 1.523 1.02 2.635 1.03.73 0 1.4-.216 1.905-.587.514-.37.885-.936.885-1.595 0-.32-.092-.628-.246-.875-.237-.38-.607-.648-1.03-.854-.41-.196-.895-.33-1.42-.432h-.02c-.556-.103-1.02-.268-1.287-.453-.133-.093-.226-.185-.277-.268-.052-.082-.072-.164-.072-.288 0-.217.113-.443.39-.65.28-.205.69-.35 1.153-.35.63 0 1.134.31 1.66.66.246.164.576.092.73-.155.165-.237.093-.566-.144-.73-.525-.34-1.256-.824-2.244-.824-.668 0-1.295.197-1.78.547-.473.35-.822.885-.822 1.502 0 .31.082.596.236.843.227.36.566.617.957.803.392.185.845.308 1.33.4h.02c.607.114 1.11.29 1.41.485.154.104.246.207.308.31.063.1.094.195.094.33 0 .256-.133.513-.442.74-.308.226-.772.38-1.286.38-.73.01-1.513-.42-1.966-.792-.226-.185-.566-.154-.75.072-.176.226-.145.565.08.75zm8.583-4.106h-.258v-1.492c0-.32-.247-.566-.566-.566-.32 0-.576.247-.576.566v1.492h-.298c-.32 0-.566.247-.566.566 0 .31.247.566.566.566h.3v2.872c0 .627.513 1.142 1.14 1.142.32 0 .567-.247.567-.566 0-.32-.25-.576-.568-.576v-2.872h.257c.31 0 .576-.257.576-.566 0-.32-.268-.566-.577-.566zm6.42.556c0-.31-.246-.556-.544-.556-.268 0-.474.196-.535.453-.39-.28-.853-.454-1.37-.454-.7 0-1.305.3-1.75.772-.44.463-.697 1.1-.697 1.81 0 .7.257 1.34.7 1.813.442.463 1.05.75 1.75.75.514 0 .977-.164 1.368-.442.06.247.268.443.536.443.298 0 .545-.246.545-.544v-4.045zm-1.49 3.087c-.248.257-.598.4-.958.4-.37 0-.72-.144-.957-.402-.247-.267-.39-.638-.39-1.06 0-.432.143-.802.39-1.06.237-.278.586-.422.957-.422.36 0 .71.144.957.422.246.258.4.628.4 1.06 0 .422-.154.793-.4 1.06zm6.133-3.633c-.515-.01-.957.174-1.297.4-.072.052-.154.135-.216.207v-.072c0-.3-.256-.535-.565-.535-.3 0-.546.236-.546.535v4.055c0 .298.245.545.544.545.31 0 .566-.247.566-.545V133.5c.052-.145.176-.536.423-.865.123-.196.278-.37.473-.494.175-.132.38-.194.618-.194.31 0 .545-.257.545-.545 0-.3-.238-.534-.547-.534zm3.633-.01h-.258v-1.493c0-.32-.248-.566-.567-.566-.32 0-.575.247-.575.566v1.492h-.298c-.32 0-.567.247-.567.566 0 .31.247.566.566.566h.297v2.872c0 .627.515 1.142 1.142 1.142.32 0 .566-.247.566-.566 0-.32-.246-.576-.566-.576v-2.872h.257c.31 0 .577-.257.577-.566 0-.32-.267-.566-.576-.566z" fill="#008CDC"/>
        <path d="M715.024 119.97c.597.474 1.554 1.03 2.655 1.04.72 0 1.367-.216 1.85-.566s.814-.864.814-1.44c0-.577-.32-1.05-.793-1.36-.472-.318-1.11-.524-1.83-.658h-.02c-.65-.123-1.185-.298-1.545-.545-.36-.245-.525-.513-.535-.873 0-.37.207-.72.567-.988.36-.258.885-.433 1.472-.433.79 0 1.41.39 1.974.76.103.073.247.043.31-.06.07-.114.04-.247-.063-.32-.565-.37-1.275-.833-2.222-.833-.68 0-1.288.196-1.74.525-.453.33-.752.802-.752 1.347 0 .535.3.967.74 1.256.444.298 1.03.483 1.7.607h.02c.7.133 1.276.328 1.667.585.39.268.587.577.587.988 0 .402-.216.783-.618 1.07-.39.29-.957.474-1.585.474-.937.01-1.832-.494-2.368-.926-.093-.08-.237-.07-.32.033-.07.092-.06.237.03.32zm8.51-4.013h-.647v-1.873c0-.123-.134-.247-.268-.247-.125 0-.25.124-.25.247v1.873h-.626c-.247 0-.247.124-.247.247 0 .124 0 .247.247.247h.627v3.676c0 .505.38.875.886.875.124 0 .258-.122.258-.246 0-.123-.134-.257-.258-.257-.123 0-.37-.124-.37-.37v-3.675h.648c.124 0 .247-.122.247-.246 0-.123-.122-.247-.246-.247zm6.28 0c-.135 0-.248.103-.248.247v.74c-.432-.596-1.122-.987-1.893-.987-1.328 0-2.388 1.142-2.388 2.522 0 1.377 1.06 2.52 2.388 2.52.77 0 1.46-.4 1.893-1v.75c0 .136.113.25.247.25s.247-.114.247-.248v-4.55c0-.143-.113-.246-.247-.246zm-2.14 4.55c-1.03 0-1.895-.896-1.895-2.028 0-1.135.862-2.04 1.892-2.04 1.04 0 1.893.905 1.893 2.04 0 1.13-.854 2.025-1.893 2.025zm4.527.246c0 .144.115.247.26.247.123 0 .236-.103.236-.247v-2.213c0-.02 0-.04.02-.082.072-.206.268-.72.608-1.173.35-.453.802-.824 1.46-.824.135 0 .248-.11.248-.245 0-.144-.112-.247-.246-.247-.967 0-1.636.638-2.017 1.235-.03.042-.053.083-.073.124v-1.112c0-.144-.113-.247-.237-.247-.144 0-.257.103-.257.247v4.54zm6.033-4.796h-.65v-1.873c0-.123-.132-.247-.266-.247-.124 0-.247.124-.247.247v1.873h-.63c-.246 0-.246.124-.246.247 0 .124 0 .247.247.247h.63v3.676c0 .505.38.875.885.875.123 0 .257-.122.257-.246 0-.123-.133-.257-.256-.257-.124 0-.37-.124-.37-.37v-3.675h.648c.123 0 .247-.122.247-.246 0-.123-.124-.247-.247-.247zm4.28 5.043c.855 0 1.606-.453 2.04-1.142.07-.124.03-.268-.084-.35-.104-.062-.258-.04-.33.082-.34.566-.957.916-1.626.916-1.04 0-1.904-.834-1.955-1.935h4.136c.134 0 .247-.09.247-.224v-.04c-.103-1.32-1.132-2.348-2.43-2.348-1.357 0-2.448 1.132-2.448 2.532 0 1.378 1.09 2.51 2.45 2.51zm0-4.55c.927 0 1.73.69 1.895 1.637h-3.82c.187-.957.98-1.636 1.926-1.636zm3.963 4.303c0 .144.113.247.258.247.123 0 .236-.103.236-.247v-2.213c0-.02 0-.04.02-.082.072-.206.267-.72.607-1.173.35-.453.803-.824 1.46-.824.135 0 .248-.11.248-.245 0-.144-.113-.247-.247-.247-.967 0-1.636.638-2.017 1.235-.03.042-.05.083-.07.124v-1.112c0-.144-.113-.247-.236-.247-.145 0-.258.103-.258.247v4.54zm7.72 0c0 .134.112.247.246.247.145 0 .258-.113.258-.247v-1.8l1.585-1.586 2.79 3.54c.05.072.112.093.184.093.06 0 .113-.01.164-.05.103-.104.124-.248.04-.362l-2.82-3.58 2.76-2.76c.102-.102.102-.267 0-.36-.083-.092-.248-.092-.35 0l-4.354 4.354v-4.168c0-.144-.113-.258-.257-.258-.133 0-.246.114-.246.258v6.68zm7.254 0c0 .134.113.247.246.247.145 0 .258-.113.258-.247v-4.55c0-.143-.113-.246-.258-.246-.133 0-.247.103-.247.247v4.55zm0-5.96c0 .145.113.27.246.27.145 0 .258-.125.258-.27v-.236c0-.133-.113-.247-.258-.247-.133 0-.247.114-.247.247v.237zm4.394 1.164h-.648v-1.873c0-.123-.134-.247-.268-.247-.123 0-.247.124-.247.247v1.873h-.626c-.247 0-.247.124-.247.247 0 .124 0 .247.247.247h.628v3.676c0 .505.382.875.886.875.124 0 .257-.122.257-.246 0-.123-.133-.257-.257-.257-.123 0-.37-.124-.37-.37v-3.675h.648c.123 0 .247-.122.247-.246 0-.123-.123-.247-.246-.247zm-40.477 18.796c0 .134.113.247.247.247s.247-.113.247-.247V128.3h2.174c.134 0 .247-.113.247-.257 0-.134-.112-.247-.246-.247h-4.837c-.134 0-.247.113-.247.247 0 .144.112.257.246.257h2.17v6.453zm5.393.247c.854 0 1.606-.453 2.038-1.142.072-.124.03-.268-.083-.35-.102-.062-.257-.04-.33.082-.34.566-.956.916-1.625.916-1.04 0-1.904-.834-1.955-1.935h4.137c.134 0 .247-.09.247-.224v-.04c-.105-1.32-1.134-2.348-2.43-2.348-1.36 0-2.45 1.132-2.45 2.532 0 1.378 1.09 2.51 2.45 2.51zm0-4.55c.926 0 1.73.69 1.894 1.637h-3.82c.187-.957.98-1.636 1.926-1.636zm3.86 3.83c.41.33 1.05.71 1.862.72.494 0 .906-.144 1.256-.4.34-.26.576-.598.576-1.02 0-.422-.237-.813-.566-1.03-.35-.195-.74-.34-1.225-.41h-.02c-.463-.073-.803-.197-1.03-.35-.195-.155-.288-.3-.288-.505 0-.206.114-.412.32-.577.216-.175.545-.288.957-.288.494 0 .864.258 1.235.505.113.072.267.04.34-.073.07-.113.04-.267-.073-.35-.39-.246-.854-.545-1.502-.545-.515 0-.937.134-1.235.34-.32.236-.546.586-.546.988 0 .39.23.72.548.905.288.206.69.31 1.142.39l.02.012c.494.082.854.206 1.07.37.257.216.35.38.36.618 0 .226-.134.453-.38.617-.227.186-.567.31-.958.31-.638 0-1.194-.33-1.544-.588-.113-.094-.267-.074-.35.03-.082.102-.072.236.03.33zm7.05-4.323h-.65v-1.873c0-.123-.133-.247-.267-.247-.123 0-.247.124-.247.247v1.873h-.628c-.247 0-.247.124-.247.247 0 .124 0 .247.25.247h.627v3.676c0 .505.38.875.885.875.125 0 .26-.122.26-.246 0-.123-.135-.257-.26-.257-.122 0-.37-.124-.37-.37v-3.675h.65c.123 0 .246-.122.246-.246 0-.123-.123-.247-.247-.247zm2.613 4.796c0 .134.113.247.247.247.144 0 .257-.113.257-.247v-4.55c0-.143-.113-.246-.257-.246-.134 0-.247.103-.247.247v4.55zm0-5.96c0 .145.113.27.247.27.144 0 .257-.125.257-.27v-.236c0-.133-.113-.247-.257-.247-.134 0-.247.114-.247.247v.237zm6.484 5.96c0 .144.113.247.247.247s.247-.103.247-.247v-2.738c0-1.12-.914-2.048-2.046-2.048-.628 0-1.194.29-1.565.73v-.483c0-.133-.103-.247-.237-.247-.144 0-.247.114-.247.247v4.6s.01.01.01.02c0 .012 0 .022.01.032.03.062.093.113.165.134h.063c.072 0 .144-.03.185-.093.03-.03.04-.072.05-.113v-2.78c.022-.853.712-1.553 1.566-1.553.864 0 1.554.7 1.554 1.556v2.738zm7.11-4.55c0-.133-.112-.246-.235-.246-.144 0-.258.113-.258.247v.74c-.422-.596-1.11-.987-1.883-.987-1.315 0-2.365 1.142-2.365 2.5 0 1.39 1.05 2.512 2.367 2.512.773 0 1.462-.383 1.884-.99v.62c0 1.037-.833 1.87-1.883 1.87-.308 0-.565-.06-.822-.185-.123-.072-.267-.02-.33.114-.06.112 0 .256.104.33.33.142.68.235 1.05.235 1.318 0 2.378-1.06 2.378-2.367v-4.396zm-2.376 4.282c-1.027 0-1.87-.895-1.87-2.027 0-1.122.843-2.007 1.872-2.007 1.04 0 1.884.887 1.884 2.01 0 1.13-.844 2.026-1.883 2.026zm-475.224-13.732c0 .134.113.247.247.247.144 0 .257-.113.257-.247v-3.098h3.026c.144 0 .257-.113.257-.247 0-.144-.113-.257-.257-.257h-3.026v-2.85h3.458c.134 0 .247-.112.247-.256 0-.134-.113-.247-.247-.247h-3.724c-.135.01-.238.113-.238.247v6.71zm6.123 0c0 .134.112.247.245.247.144 0 .258-.113.258-.247v-4.55c0-.143-.114-.246-.258-.246-.133 0-.247.103-.247.247v4.55zm0-5.96c0 .145.112.27.245.27.144 0 .258-.125.258-.27v-.236c0-.133-.114-.247-.258-.247-.133 0-.247.114-.247.247v.237zm4.97 6.207c.853 0 1.605-.453 2.037-1.142.072-.124.03-.268-.082-.35-.103-.062-.258-.04-.33.082-.34.566-.957.916-1.626.916-1.04 0-1.905-.834-1.956-1.935h4.137c.135 0 .248-.09.248-.224v-.04c-.104-1.32-1.133-2.348-2.43-2.348-1.358 0-2.45 1.132-2.45 2.532 0 1.378 1.092 2.51 2.45 2.51zm0-4.55c.925 0 1.73.69 1.893 1.637h-3.818c.185-.957.977-1.636 1.924-1.636zm4.25 4.303c0 .134.113.247.247.247.144 0 .257-.113.257-.247v-6.71c0-.134-.113-.247-.257-.247-.134 0-.247.113-.247.247v6.71zm6.524 0c0 .134.114.247.258.247.134 0 .247-.113.247-.247v-6.71c0-.135-.114-.248-.248-.248-.144 0-.258.113-.258.247v2.902c-.442-.597-1.142-.988-1.934-.988-1.358 0-2.438 1.132-2.438 2.532 0 1.378 1.08 2.51 2.44 2.51.79 0 1.49-.38 1.933-.978v.73zm-1.934-.257c-1.06 0-1.934-.896-1.934-2.007 0-1.124.875-2.03 1.935-2.03 1.04 0 1.895.865 1.936 1.946v.164c-.04 1.072-.895 1.926-1.934 1.926zm-33.684 14.257c0 .134.114.247.247.247.144 0 .258-.113.258-.247v-6.71c0-.134-.112-.247-.256-.247-.133 0-.247.113-.247.247v6.71zm6.556 0c0 .144.113.247.247.247.132 0 .245-.103.245-.247v-2.738c0-1.12-.916-2.048-2.048-2.048-.628 0-1.194.29-1.564.73v-.483c0-.133-.103-.247-.237-.247-.144 0-.247.114-.247.247v4.6s.01.01.01.02c0 .012 0 .022.01.032.03.062.092.113.164.134h.062c.072 0 .144-.03.185-.093.03-.03.04-.072.053-.113v-2.78c.02-.853.71-1.553 1.564-1.553.865 0 1.554.7 1.554 1.556v2.738zm4.22-4.796h-.65v-1.873c0-.123-.133-.247-.266-.247-.124 0-.247.124-.247.247v1.873h-.63c-.247 0-.247.124-.247.247 0 .124 0 .247.247.247h.63v3.676c0 .505.38.875.884.875.123 0 .257-.122.257-.246 0-.123-.132-.257-.255-.257-.124 0-.37-.124-.37-.37v-3.675h.648c.123 0 .247-.122.247-.246 0-.123-.125-.247-.248-.247zm4.28 5.043c.855 0 1.606-.453 2.04-1.142.07-.124.03-.268-.084-.35-.103-.062-.257-.04-.33.082-.34.566-.956.916-1.625.916-1.04 0-1.904-.834-1.956-1.935h4.138c.133 0 .247-.09.247-.224v-.04c-.103-1.32-1.132-2.348-2.43-2.348-1.358 0-2.45 1.132-2.45 2.532 0 1.378 1.092 2.51 2.45 2.51zm0-4.55c.927 0 1.73.69 1.895 1.637h-3.82c.187-.957.98-1.636 1.926-1.636zm3.963 4.303c0 .144.113.247.257.247.124 0 .237-.103.237-.247v-2.213c0-.02 0-.04.02-.082.07-.206.266-.72.606-1.173.35-.453.803-.824 1.46-.824.135 0 .248-.11.248-.245 0-.144-.113-.247-.247-.247-.967 0-1.636.638-2.017 1.235-.03.042-.05.083-.07.124v-1.112c0-.144-.114-.247-.238-.247-.144 0-.257.103-.257.247v4.54zm6.185.226c.01.01.01.01.02.01.032.01.052.01.083.01.052 0 .124-.02.165-.073.03-.04.05-.082.062-.124l1.883-4.466c.052-.124 0-.268-.123-.32-.124-.05-.278.01-.32.135l-1.677 3.972-1.678-3.972c-.04-.124-.195-.186-.32-.134-.112.05-.174.194-.122.318l1.894 4.508c.02.05.05.082.082.113.02.01.03.02.05.02zm4.333-.228c0 .134.113.247.247.247.144 0 .257-.114.257-.248v-4.55c0-.143-.113-.246-.257-.246-.134 0-.247.103-.247.247v4.55zm0-5.96c0 .145.113.27.247.27.144 0 .257-.125.257-.27v-.236c0-.133-.113-.247-.257-.247-.134 0-.247.113-.247.246v.237zm4.97 6.207c.855 0 1.606-.454 2.04-1.143.07-.124.03-.268-.084-.35-.105-.062-.26-.04-.33.082-.34.565-.958.915-1.627.915-1.04 0-1.904-.834-1.955-1.935h4.136c.134 0 .247-.09.247-.225v-.04c-.102-1.32-1.13-2.348-2.43-2.348-1.357 0-2.447 1.132-2.447 2.532 0 1.377 1.09 2.51 2.45 2.51zm0-4.55c.927 0 1.73.69 1.895 1.636h-3.82c.187-.957.98-1.636 1.926-1.636zm5.65 4.53c.032.01.063.02.094.02.082 0 .185-.063.216-.155 0-.01.01-.02.01-.02l1.163-2.78 1.173 2.79.01.01c.02.082.112.144.194.154h.052c.04 0 .082-.02.123-.05.04-.033.07-.074.092-.126l1.883-4.487c.05-.124-.01-.268-.134-.32-.112-.05-.266.01-.32.135l-1.665 3.972-1.163-2.768c-.04-.093-.144-.155-.247-.155-.093 0-.196.063-.237.156l-1.164 2.768-1.677-3.972c-.042-.124-.197-.186-.32-.134-.113.05-.175.194-.124.318l1.894 4.508c.02.05.05.092.103.113.01.01.02.02.04.02zm6.66-.7c.41.33 1.05.71 1.862.72.494 0 .906-.145 1.256-.4.34-.26.578-.6.578-1.02 0-.423-.236-.814-.566-1.03-.35-.196-.74-.34-1.223-.41h-.02c-.465-.074-.805-.198-1.03-.35-.197-.156-.29-.3-.29-.506 0-.206.113-.412.32-.577.215-.175.544-.288.956-.288.494 0 .864.257 1.235.504.114.072.268.04.34-.073.073-.112.04-.266-.072-.35-.39-.245-.854-.544-1.502-.544-.515 0-.937.134-1.235.34-.32.236-.545.586-.545.988 0 .39.227.72.546.905.29.205.69.31 1.143.39l.02.01c.495.083.855.207 1.07.37.258.217.35.38.36.62 0 .225-.132.452-.38.616-.226.186-.565.31-.957.31-.638 0-1.193-.33-1.543-.588-.113-.093-.268-.073-.35.03-.083.103-.072.237.03.33zm-183.1-16.913c0 2.007 1.677 3.633 3.746 3.633.883 0 1.696-.298 2.323-.782.114-.082.134-.268.03-.36-.07-.124-.235-.144-.36-.062-.534.453-1.234.7-1.995.7-1.803 0-3.243-1.41-3.243-3.13 0-1.76 1.44-3.17 3.242-3.17.76 0 1.46.27 2.016.7.103.083.267.073.35-.05.092-.093.072-.268-.042-.36-.626-.484-1.44-.793-2.324-.793-2.07.01-3.748 1.626-3.748 3.674zm7.8 1.112c0 1.366 1.07 2.52 2.39 2.52 1.326 0 2.386-1.154 2.386-2.52 0-1.37-1.06-2.524-2.39-2.524-1.317 0-2.388 1.153-2.388 2.522zm.494 0c0-1.124.865-2.04 1.894-2.04 1.03 0 1.896.916 1.896 2.04 0 1.12-.865 2.025-1.894 2.025-1.028 0-1.893-.906-1.893-2.027zm9.777 2.272c0 .144.114.247.247.247.136 0 .25-.104.25-.248v-2.738c0-1.12-.917-2.048-2.05-2.048-.626 0-1.192.29-1.563.73v-.483c0-.133-.103-.247-.237-.247-.145 0-.248.114-.248.247v4.6s.01.01.01.02c0 .012 0 .022.01.032.032.062.094.113.166.134h.06c.073 0 .145-.03.187-.094.03-.03.04-.072.05-.113v-2.78c.022-.852.71-1.552 1.565-1.552.865 0 1.554.7 1.554 1.556v2.738zm4.94.247c.597 0 1.163-.207 1.585-.536.122-.093.142-.247.05-.36-.083-.093-.227-.124-.34-.042-.36.278-.813.443-1.297.443-1.173 0-2.1-.906-2.1-2.038 0-1.11.927-2.027 2.1-2.027.484 0 .937.165 1.297.454.114.082.258.05.34-.042.093-.113.073-.267-.03-.34-.443-.35-1.01-.555-1.606-.555-1.44 0-2.593 1.112-2.593 2.51 0 1.422 1.155 2.533 2.595 2.533zm5.578 0c.855 0 1.606-.454 2.038-1.143.072-.124.03-.268-.082-.35-.103-.062-.258-.04-.33.082-.34.565-.957.915-1.626.915-1.04 0-1.904-.834-1.955-1.935h4.137c.134 0 .247-.09.247-.225v-.04c-.1-1.32-1.13-2.348-2.427-2.348-1.358 0-2.45 1.132-2.45 2.532 0 1.377 1.092 2.51 2.45 2.51zm0-4.55c.927 0 1.73.69 1.894 1.636h-3.818c.185-.957.978-1.636 1.924-1.636zm4.18 6.412c0 .134.112.247.246.247.144 0 .257-.114.257-.248v-2.882c.432.598 1.132.99 1.914.99 1.357 0 2.437-1.143 2.437-2.512 0-1.38-1.08-2.5-2.44-2.5-.78 0-1.48.39-1.913.977v-.73c0-.135-.113-.248-.257-.248-.134 0-.247.113-.247.247v6.66zm.503-4.487c.04-1.07.895-1.915 1.914-1.915 1.07 0 1.933.886 1.933 1.998 0 1.11-.864 2.007-1.935 2.017-1.04-.01-1.915-.906-1.915-2.017v-.082zm7.8-2.42h-.647v-1.872c0-.123-.134-.247-.268-.247-.123 0-.247.124-.247.247v1.873h-.628c-.247 0-.247.124-.247.247 0 .124 0 .247.247.247h.628v3.675c0 .505.38.875.885.875.124 0 .257-.123.257-.247 0-.123-.133-.257-.257-.257-.123 0-.37-.124-.37-.37v-3.675h.648c.124 0 .247-.12.247-.245 0-.123-.123-.247-.247-.247zm2.502 2.986c0 1.133.906 2.06 2.038 2.06 1.152 0 2.068-.927 2.068-2.06v-2.747c0-.144-.113-.247-.257-.247-.124 0-.247.103-.247.247v2.748c0 .865-.7 1.555-1.566 1.565-.855-.01-1.544-.7-1.544-1.564v-2.747c0-.144-.112-.247-.246-.247s-.247.103-.247.247v2.748zm10.394-2.984c-.13 0-.245.103-.245.247v.74c-.432-.596-1.12-.987-1.893-.987-1.327 0-2.387 1.142-2.387 2.522 0 1.378 1.06 2.52 2.388 2.52.773 0 1.462-.4 1.894-.998v.75c0 .135.114.248.247.248.135 0 .248-.113.248-.247v-4.55c0-.142-.113-.245-.247-.245zm-2.14 4.55c-1.027 0-1.892-.896-1.892-2.028 0-1.134.865-2.04 1.894-2.04 1.04 0 1.894.906 1.894 2.04 0 1.13-.854 2.026-1.893 2.026zm4.448-2.883h2.192c.102 0 .194-.082.194-.205 0-.115-.092-.187-.195-.187h-2.194c-.113 0-.196.073-.196.187 0 .122.084.204.197.204zm-44.14 17.13c0 .133.112.246.246.246.144 0 .257-.114.257-.248v-6.71c0-.134-.112-.247-.256-.247-.134 0-.247.113-.247.247v6.71zm2.5 0c0 .133.113.246.247.246.144 0 .257-.114.257-.248v-4.55c0-.143-.112-.246-.256-.246-.134 0-.247.103-.247.247v4.55zm0-5.96c0 .144.113.268.247.268.144 0 .257-.123.257-.267v-.237c0-.133-.112-.247-.256-.247-.134 0-.247.113-.247.246v.237zm2.563 5.486c.41.33 1.05.71 1.863.72.494 0 .906-.145 1.256-.4.34-.26.575-.6.575-1.02 0-.423-.236-.814-.566-1.03-.35-.196-.74-.34-1.225-.41h-.02c-.464-.074-.804-.198-1.03-.35-.196-.156-.288-.3-.288-.506 0-.206.113-.412.32-.577.215-.175.544-.288.956-.288.494 0 .864.257 1.235.504.113.072.267.04.34-.073.07-.112.04-.266-.073-.35-.39-.245-.854-.544-1.502-.544-.515 0-.937.134-1.235.34-.32.236-.546.586-.546.988 0 .39.228.72.547.905.287.205.69.31 1.14.39l.02.01c.495.083.855.207 1.07.37.258.217.35.38.36.62 0 .225-.133.452-.38.616-.226.186-.566.31-.957.31-.638 0-1.193-.33-1.543-.588-.115-.093-.27-.073-.35.03-.084.103-.073.237.03.33zm9.366-4.324c-.134 0-.247.103-.247.247v.74c-.433-.596-1.123-.987-1.895-.987-1.327 0-2.387 1.142-2.387 2.522 0 1.378 1.06 2.52 2.387 2.52.772 0 1.462-.4 1.894-.998v.75c0 .135.112.248.246.248s.247-.113.247-.247v-4.55c0-.142-.113-.245-.247-.245zm-2.14 4.55c-1.03 0-1.894-.896-1.894-2.028 0-1.134.865-2.04 1.894-2.04 1.04 0 1.894.906 1.894 2.04 0 1.13-.854 2.026-1.894 2.026zm6.04-4.55h-.648v-1.873c0-.123-.134-.247-.268-.247-.124 0-.247.124-.247.247v1.873h-.628c-.247 0-.247.124-.247.247 0 .124 0 .247.247.247h.628v3.675c0 .505.38.875.885.875.123 0 .257-.123.257-.247 0-.123-.134-.257-.257-.257-.124 0-.37-.124-.37-.37v-3.675h.647c.124 0 .247-.12.247-.245 0-.123-.123-.247-.247-.247zm2.615 4.796c0 .134.114.247.248.247.144 0 .257-.114.257-.248v-4.55c0-.143-.113-.246-.257-.246-.134 0-.247.103-.247.247v4.55zm0-5.96c0 .145.114.27.248.27.144 0 .257-.125.257-.27v-.236c0-.133-.113-.247-.257-.247-.134 0-.247.113-.247.246v.237zm2.645 3.686c0 1.367 1.07 2.52 2.388 2.52 1.328 0 2.388-1.153 2.388-2.52 0-1.37-1.06-2.523-2.387-2.523-1.317 0-2.388 1.153-2.388 2.522zm.494 0c0-1.123.864-2.04 1.893-2.04 1.03 0 1.894.917 1.894 2.04 0 1.12-.865 2.026-1.894 2.026-1.03 0-1.894-.906-1.894-2.027zm9.776 2.273c0 .145.114.248.247.248.134 0 .247-.103.247-.247v-2.737c0-1.12-.917-2.048-2.05-2.048-.626 0-1.192.29-1.563.73v-.483c0-.133-.103-.247-.237-.247-.144 0-.247.114-.247.247v4.6s.01.01.01.02c0 .012 0 .022.01.032.032.062.094.113.166.134h.06c.07 0 .143-.03.185-.093.03-.03.04-.072.05-.113v-2.778c.022-.853.71-1.553 1.565-1.553.866 0 1.555.7 1.555 1.556v2.738zM36.943 120.754c0 .134.103.247.237.247h2.068c1.132 0 2.058-.916 2.058-2.058 0-.906-.596-1.668-1.41-1.945.412-.33.69-.834.69-1.4 0-.998-.803-1.8-1.79-1.8H37.19c-.134 0-.247.112-.247.246v6.71zm.504-.257v-3.108h1.8c.855 0 1.545.7 1.555 1.554-.01.864-.7 1.554-1.554 1.554h-1.8zm0-3.623V114.3h1.348c.71 0 1.287.577 1.287 1.297 0 .7-.577 1.276-1.287 1.276h-1.348zm5.094 3.88c0 .134.116.247.25.247.144 0 .257-.113.257-.247v-4.55c0-.143-.113-.246-.258-.246-.134 0-.248.103-.248.247v4.55zm0-5.96c0 .145.116.27.25.27.144 0 .257-.125.257-.27v-.236c0-.133-.113-.247-.258-.247-.134 0-.248.114-.248.247v.237zm2.884 5.96c0 .144.113.247.257.247.125 0 .238-.103.238-.247v-2.213c0-.02 0-.04.02-.082.073-.206.268-.72.608-1.173.35-.453.803-.824 1.46-.824.135 0 .248-.11.248-.245 0-.144-.113-.247-.247-.247-.967 0-1.636.638-2.017 1.235-.032.042-.052.083-.073.124v-1.112c0-.144-.113-.247-.237-.247-.144 0-.257.103-.257.247v4.54zm6.03-4.796h-.647v-1.873c0-.123-.134-.247-.268-.247-.125 0-.248.124-.248.247v1.873h-.627c-.247 0-.247.124-.247.247 0 .124 0 .247.247.247h.628v3.676c0 .505.382.875.886.875.123 0 .256-.122.256-.246 0-.123-.133-.257-.257-.257s-.37-.124-.37-.37v-3.675h.647c.123 0 .247-.122.247-.246 0-.123-.123-.247-.246-.247zm6.104 4.796c0 .134.113.247.247.247.144 0 .257-.113.257-.247v-2.81c0-1.163-.946-1.986-2.11-1.986-.637 0-1.213.288-1.594.74v-2.654c0-.134-.113-.247-.257-.247-.134 0-.247.113-.247.247v6.71c0 .03 0 .05.01.083.01.03.02.052.04.083.053.05.125.08.197.08h.05c.01 0 .02-.01.02-.01.073-.02.124-.06.155-.123.01-.01.01-.02.02-.04 0-.01.01-.022.01-.042v-2.84c0-.886.722-1.483 1.596-1.483.887 0 1.608.598 1.608 1.483v2.81z" fill="#000"/>
        <path d="M850.09 150.614c.783.618 2.032 1.36 3.514 1.372.974 0 1.866-.288 2.538-.782.686-.494 1.18-1.25 1.18-2.127 0-.425-.123-.837-.33-1.166-.315-.506-.81-.863-1.37-1.137-.55-.26-1.195-.44-1.895-.576h-.027c-.74-.138-1.36-.357-1.716-.604-.178-.124-.3-.247-.37-.357-.07-.11-.096-.22-.096-.384 0-.287.15-.59.52-.864.372-.274.92-.466 1.538-.466.837 0 1.51.41 2.21.878.33.22.768.123.974-.206.22-.315.123-.755-.192-.974-.7-.453-1.674-1.098-2.992-1.098-.892 0-1.73.26-2.374.727-.63.466-1.097 1.18-1.097 2.003 0 .412.11.797.315 1.126.302.48.755.822 1.276 1.07.522.246 1.125.41 1.77.534h.028c.81.152 1.482.386 1.88.646.206.138.33.275.41.412.084.137.125.26.125.44 0 .342-.18.685-.59.987-.414.3-1.03.507-1.717.507-.975.014-2.018-.563-2.62-1.057-.303-.247-.756-.206-1.003.096-.232.302-.19.755.11 1.002zm11.445-5.475h-.343v-1.99c0-.427-.33-.756-.755-.756s-.768.33-.768.754v1.99h-.4c-.426 0-.755.328-.755.754 0 .41.33.754.755.754h.4v3.83c0 .836.685 1.522 1.522 1.522.425 0 .755-.33.755-.755s-.33-.768-.755-.768v-3.83h.343c.412 0 .768-.342.768-.753 0-.426-.356-.755-.768-.755zm8.563.74c0-.413-.33-.74-.728-.74-.356 0-.63.26-.713.602-.522-.37-1.14-.604-1.825-.604-.933 0-1.743.397-2.333 1.028-.59.618-.935 1.468-.935 2.415 0 .934.343 1.785.933 2.416.59.618 1.4 1.002 2.332 1.002.686 0 1.303-.22 1.825-.59.082.33.357.59.713.59.398 0 .728-.33.728-.727v-5.392zm-1.99 4.116c-.33.343-.796.535-1.276.535-.494 0-.96-.19-1.276-.534-.33-.357-.522-.85-.522-1.414 0-.576.192-1.07.522-1.413.315-.37.782-.564 1.276-.564.48 0 .947.192 1.276.563.33.342.535.836.535 1.412 0 .563-.206 1.057-.535 1.414zm8.178-4.844c-.686-.014-1.276.233-1.73.535-.095.068-.205.178-.287.274v-.095c0-.398-.345-.713-.757-.713-.398 0-.727.315-.727.713v5.407c0 .398.33.727.727.727.412 0 .755-.33.755-.728v-2.607c.068-.193.232-.714.562-1.153.164-.26.37-.494.63-.66.234-.177.51-.26.824-.26.412 0 .728-.343.728-.727 0-.398-.316-.713-.728-.713zm4.844-.014h-.343v-1.99c0-.426-.33-.755-.755-.755s-.768.33-.768.754v1.99h-.398c-.425 0-.755.328-.755.754 0 .41.33.755.757.755h.398v3.83c0 .836.686 1.522 1.523 1.522.426 0 .755-.33.755-.755s-.33-.768-.755-.768v-3.83h.343c.413 0 .77-.342.77-.753 0-.425-.357-.754-.77-.754zm5.49 6.86c.973 0 1.783-.288 2.455-.906.316-.288.18-.7 0-.892-.178-.22-.74-.26-1.03.042-.342.26-.932.384-1.426.343-.48-.042-1.03-.29-1.32-.618-.246-.234-.397-.59-.466-.907h4.364c.383 0 .67-.22.712-.548.014-.028.014-.096.014-.124v-.068c-.11-1.852-1.523-3.183-3.307-3.183-1.88 0-3.335 1.563-3.35 3.43.015 1.866 1.47 3.416 3.35 3.43zm0-5.557c1.193.097 1.893.906 2.03 1.455h-3.883c.11-.563.686-1.4 1.852-1.454zm8.7-1.29c-.687-.013-1.277.234-1.73.536-.096.068-.206.178-.288.274v-.096c0-.398-.343-.713-.755-.713-.398 0-.727.316-.727.714v5.407c0 .4.33.728.727.728.412 0 .755-.33.755-.727v-2.606c.068-.193.233-.714.562-1.153.165-.26.37-.493.63-.66.235-.176.51-.26.825-.26.41 0 .725-.342.725-.726 0-.398-.316-.713-.727-.713zm7.546 6.848c.425 0 .755-.343.755-.755v-1.948l1.43-1.455 2.963 3.884c.15.178.357.274.562.274.18 0 .343-.055.48-.178.33-.26.385-.74.11-1.057l-3.046-3.993 3.02-3.005c.286-.302.286-.782 0-1.07-.304-.302-.77-.302-1.07 0l-4.448 4.46v-3.94c0-.397-.33-.754-.754-.754-.425 0-.755.358-.755.756v8.027c0 .412.33.755.756.755zm9.66-6.847c-.41 0-.74.316-.74.755v5.352c0 .41.33.74.74.74.426 0 .74-.33.74-.74v-5.353c0-.44-.314-.754-.74-.754zm.74-2.016c0-.412-.314-.74-.74-.74-.41 0-.74.328-.74.74v.288c0 .41.33.754.74.754.426 0 .74-.343.74-.754v-.288zm4.68 2.003h-.342v-1.99c0-.426-.33-.755-.755-.755-.428 0-.77.33-.77.754v1.99h-.4c-.424 0-.753.328-.753.754 0 .41.33.754.754.754h.4v3.83c0 .836.685 1.522 1.523 1.522.425 0 .754-.33.754-.755s-.33-.767-.754-.767v-3.83h.343c.41 0 .768-.342.768-.753 0-.426-.357-.755-.768-.755zm-52.692 23.255c-.028-.138-.07-.398-.055-.81 0-.576-.18-1.084-.455-1.482-.137-.206-.302-.37-.48-.508.658-.55 1.07-1.345 1.07-2.25 0-1.633-1.304-2.95-2.936-2.95h-2.458c-.425 0-.754.33-.754.754v8.095c0 .413.328.756.753.756.427 0 .77-.343.77-.755v-2.976h1.62c.123.027.48.137.77.33.163.11.33.246.41.397.096.15.15.33.165.59 0 .756.096 1.25.288 1.648.11.192.26.37.44.48.19.123.397.15.534.15h.014c.138 0 .248-.027.303-.04.398-.138.617-.563.48-.96-.082-.234-.26-.4-.48-.467zm-2.854-3.65h-1.688v-2.827h1.688c.782 0 1.413.63 1.413 1.427 0 .768-.63 1.4-1.413 1.4zm8.137 5.255c.974 0 1.784-.288 2.456-.906.316-.287.178-.7 0-.89-.178-.22-.74-.26-1.03.04-.342.26-.932.385-1.426.344-.48-.042-1.03-.29-1.318-.618-.25-.234-.4-.59-.468-.907h4.363c.385 0 .673-.22.714-.55.013-.027.013-.095.013-.123v-.068c-.11-1.853-1.523-3.184-3.307-3.184-1.88 0-3.335 1.563-3.348 3.43.012 1.866 1.467 3.416 3.347 3.43zm0-5.557c1.194.096 1.893.905 2.03 1.454h-3.883c.11-.563.686-1.4 1.853-1.454zm5.585-3.294v8.095c0 .413.343.756.754.756.426 0 .77-.343.77-.755v-8.095c0-.412-.344-.755-.77-.755-.41 0-.754.343-.754.754zm6.806 8.85c.974 0 1.784-.288 2.456-.906.316-.288.178-.7 0-.892-.178-.22-.74-.26-1.03.042-.342.26-.932.384-1.426.343-.48-.042-1.03-.29-1.318-.618-.247-.234-.397-.59-.466-.907h4.364c.384 0 .672-.22.713-.548.016-.028.016-.096.016-.124v-.068c-.11-1.852-1.523-3.183-3.307-3.183-1.88 0-3.336 1.563-3.35 3.43.014 1.866 1.47 3.416 3.35 3.43zm0-5.557c1.194.095 1.893.904 2.03 1.453h-3.883c.11-.563.686-1.4 1.853-1.454zm11.293-.564c0-.412-.327-.74-.725-.74-.357 0-.63.26-.714.603-.52-.37-1.14-.605-1.824-.605-.933 0-1.743.397-2.333 1.028-.59.618-.933 1.468-.933 2.415 0 .933.342 1.784.932 2.415.59.618 1.4 1.002 2.333 1.002.686 0 1.304-.22 1.825-.59.083.33.357.59.714.59.398 0 .727-.33.727-.727v-5.393zm-1.99 4.117c-.327.343-.794.535-1.274.535-.494 0-.96-.192-1.276-.535-.33-.357-.522-.85-.522-1.414 0-.577.192-1.07.52-1.414.317-.37.783-.563 1.277-.563.48 0 .947.192 1.276.563.33.343.538.837.538 1.413 0 .562-.206 1.056-.536 1.413zm4.448 1.056c.55.44 1.373.932 2.443.946.673 0 1.29-.206 1.785-.55.494-.356.864-.918.864-1.59 0-.316-.097-.632-.26-.906-.235-.385-.605-.645-.976-.81-.398-.192-.823-.316-1.276-.398h-.014l-.013-.014c-.466-.082-.823-.205-1-.33-.097-.054-.138-.11-.15-.136-.03-.04-.03-.055-.03-.11 0-.07.04-.192.22-.316.178-.137.48-.247.823-.247.44 0 .824.22 1.263.507.343.234.796.138 1.015-.19.207-.344.11-.797-.22-1.016-.437-.3-1.11-.754-2.057-.754-.63 0-1.207.177-1.687.507-.453.343-.81.878-.81 1.51 0 .315.082.617.233.864.246.37.576.618.946.796.357.165.77.275 1.194.357h.013c.494.096.905.247 1.097.384.11.07.165.124.18.165.026.04.04.07.04.136 0 .11-.055.246-.247.41-.22.138-.563.262-.933.262-.535.013-1.153-.302-1.51-.604-.3-.26-.782-.22-1.03.11-.246.302-.205.768.097 1.015zm9.853.946c.975 0 1.785-.288 2.457-.906.316-.288.178-.7 0-.892-.178-.22-.74-.26-1.03.042-.342.26-.932.384-1.426.343-.48-.042-1.03-.29-1.317-.618-.247-.234-.397-.59-.466-.907h4.364c.385 0 .673-.22.714-.548.014-.028.014-.096.014-.124v-.068c-.11-1.852-1.523-3.183-3.307-3.183-1.88 0-3.334 1.563-3.347 3.43.013 1.866 1.468 3.416 3.348 3.43zm0-5.557c1.195.095 1.894.904 2.03 1.453h-3.882c.11-.563.686-1.4 1.853-1.454z" fill="#008CDC"/>
        <path d="M415.04 119.97c.596.474 1.553 1.03 2.654 1.04.72 0 1.37-.216 1.852-.566.484-.35.813-.864.813-1.44 0-.577-.32-1.05-.794-1.36-.473-.318-1.11-.524-1.832-.658h-.02c-.65-.123-1.184-.298-1.544-.545-.36-.245-.524-.513-.534-.873 0-.37.205-.72.566-.988.36-.258.885-.433 1.47-.433.794 0 1.41.39 1.977.76.1.073.245.043.307-.06.072-.114.04-.247-.062-.32-.566-.37-1.276-.833-2.223-.833-.68 0-1.286.196-1.74.525-.452.33-.75.802-.75 1.347 0 .535.298.967.74 1.256.443.298 1.03.483 1.7.607h.02c.7.133 1.276.328 1.667.585.39.268.585.577.585.988 0 .402-.216.783-.617 1.07-.392.29-.958.474-1.586.474-.937.01-1.832-.494-2.367-.926-.093-.08-.237-.07-.32.033-.07.092-.06.237.032.32zm8.51-4.013h-.65v-1.873c0-.123-.132-.247-.266-.247-.124 0-.247.124-.247.247v1.873h-.628c-.25 0-.25.124-.25.247 0 .124 0 .247.248.247h.627v3.676c0 .505.38.875.885.875.123 0 .257-.122.257-.246 0-.123-.135-.257-.258-.257-.125 0-.37-.124-.37-.37v-3.675h.647c.123 0 .247-.122.247-.246 0-.123-.124-.247-.247-.247zm6.278 0c-.134 0-.247.103-.247.247v.74c-.43-.596-1.12-.987-1.892-.987-1.328 0-2.388 1.142-2.388 2.522 0 1.377 1.06 2.52 2.387 2.52.772 0 1.46-.4 1.894-1v.75c0 .136.115.25.25.25.132 0 .246-.114.246-.248v-4.55c0-.143-.114-.246-.247-.246zm-2.14 4.55c-1.03 0-1.895-.896-1.895-2.028 0-1.135.865-2.04 1.894-2.04 1.04 0 1.894.905 1.894 2.04 0 1.13-.852 2.025-1.892 2.025zm4.527.246c0 .144.114.247.258.247.123 0 .236-.103.236-.247v-2.213c0-.02 0-.04.02-.082.07-.206.267-.72.606-1.173.35-.453.803-.824 1.462-.824.132 0 .246-.11.246-.245 0-.144-.114-.247-.247-.247-.97 0-1.638.638-2.02 1.235-.03.042-.05.083-.07.124v-1.112c0-.144-.114-.247-.237-.247-.144 0-.258.103-.258.247v4.54zm6.03-4.796h-.647v-1.873c0-.123-.134-.247-.268-.247-.123 0-.247.124-.247.247v1.873h-.628c-.247 0-.247.124-.247.247 0 .124 0 .247.247.247h.628v3.676c0 .505.38.875.885.875.124 0 .258-.122.258-.246 0-.123-.134-.257-.258-.257-.123 0-.37-.124-.37-.37v-3.675h.648c.124 0 .247-.122.247-.246 0-.123-.123-.247-.247-.247zM442.53 121c.854 0 1.605-.453 2.037-1.142.072-.124.03-.268-.082-.35-.103-.062-.257-.04-.33.082-.34.566-.957.916-1.625.916-1.04 0-1.904-.834-1.956-1.935h4.137c.134 0 .247-.09.247-.224v-.04c-.103-1.32-1.132-2.348-2.428-2.348-1.36 0-2.45 1.132-2.45 2.532 0 1.378 1.09 2.51 2.45 2.51zm0-4.55c.926 0 1.728.69 1.893 1.637h-3.817c.185-.957.978-1.636 1.925-1.636zm3.962 4.303c0 .144.113.247.257.247.123 0 .236-.103.236-.247v-2.213c0-.02 0-.04.02-.082.072-.206.268-.72.608-1.173.35-.453.802-.824 1.46-.824.135 0 .248-.11.248-.245 0-.144-.113-.247-.247-.247-.967 0-1.636.638-2.017 1.235-.03.042-.052.083-.072.124v-1.112c0-.144-.113-.247-.237-.247-.145 0-.258.103-.258.247v4.54zm7.718 0c0 .134.114.247.247.247.145 0 .258-.113.258-.247v-1.8l1.585-1.586 2.79 3.54c.05.072.112.093.184.093.062 0 .113-.01.165-.05.1-.104.122-.248.04-.362l-2.82-3.58 2.76-2.76c.1-.102.1-.267 0-.36-.084-.092-.25-.092-.35 0l-4.355 4.354v-4.168c0-.144-.113-.258-.258-.258-.133 0-.247.114-.247.258v6.68zm7.256 0c0 .134.113.247.247.247.145 0 .258-.113.258-.247v-4.55c0-.143-.112-.246-.256-.246-.133 0-.246.103-.246.247v4.55zm0-5.96c0 .145.113.27.247.27.145 0 .258-.125.258-.27v-.236c0-.133-.112-.247-.256-.247-.133 0-.246.114-.246.247v.237zm4.395 1.164h-.65v-1.873c0-.123-.133-.247-.266-.247-.124 0-.247.124-.247.247v1.873h-.628c-.248 0-.248.124-.248.247 0 .124 0 .247.248.247h.628v3.676c0 .505.38.875.885.875.124 0 .258-.122.258-.246 0-.123-.133-.257-.256-.257s-.37-.124-.37-.37v-3.675h.65c.122 0 .246-.122.246-.246 0-.123-.124-.247-.247-.247zM409.74 135c1.985 0 3.6-1.605 3.6-3.592 0-1.986-1.615-3.612-3.6-3.612h-1.35c-.133 0-.247.113-.247.247v6.71c0 .134.103.237.227.247h1.37zm-1.092-.504V128.3h1.09c1.71.01 3.098 1.39 3.098 3.108 0 1.71-1.39 3.088-3.097 3.088h-1.093zm8.87.504c.855 0 1.606-.453 2.04-1.142.07-.124.03-.268-.084-.35-.103-.062-.257-.04-.33.082-.34.566-.956.916-1.625.916-1.04 0-1.906-.834-1.957-1.935h4.137c.135 0 .248-.09.248-.224v-.04c-.103-1.32-1.132-2.348-2.43-2.348-1.358 0-2.448 1.132-2.448 2.532 0 1.378 1.09 2.51 2.45 2.51zm0-4.55c.927 0 1.73.69 1.895 1.637h-3.82c.187-.957.98-1.636 1.926-1.636zm5.59 4.53c.01.01.01.01.02.01.03.01.05.01.082.01.052 0 .124-.02.165-.072.03-.04.05-.082.062-.124l1.883-4.466c.05-.124 0-.268-.124-.32-.123-.05-.277.01-.32.135l-1.676 3.972-1.678-3.972c-.04-.124-.195-.186-.32-.134-.112.05-.174.193-.122.317l1.894 4.508c.02.05.05.082.082.113.02.01.03.02.05.02zm6.102.02c.854 0 1.606-.453 2.038-1.142.072-.124.03-.268-.082-.35-.103-.062-.258-.04-.33.082-.34.566-.957.916-1.626.916-1.04 0-1.904-.834-1.955-1.935h4.137c.134 0 .247-.09.247-.224v-.04c-.105-1.32-1.134-2.348-2.43-2.348-1.36 0-2.45 1.132-2.45 2.532 0 1.378 1.09 2.51 2.45 2.51zm0-4.55c.926 0 1.73.69 1.894 1.637h-3.818c.185-.957.977-1.636 1.924-1.636zm4.25 4.303c0 .134.114.247.248.247.144 0 .257-.113.257-.247v-6.71c0-.134-.113-.247-.257-.247-.134 0-.247.113-.247.247v6.71zm2.254-2.274c0 1.366 1.07 2.52 2.388 2.52 1.328 0 2.388-1.154 2.388-2.52 0-1.37-1.06-2.524-2.388-2.524-1.317 0-2.388 1.153-2.388 2.522zm.494 0c0-1.124.865-2.04 1.894-2.04 1.03 0 1.894.916 1.894 2.04 0 1.12-.865 2.025-1.894 2.025-1.03 0-1.894-.906-1.894-2.027zm6.175 4.382c0 .134.114.247.247.247.145 0 .258-.114.258-.248v-2.882c.432.598 1.132.99 1.914.99 1.358 0 2.44-1.143 2.44-2.512 0-1.38-1.082-2.5-2.44-2.5-.782 0-1.482.39-1.914.977v-.73c0-.135-.113-.248-.258-.248-.133 0-.247.113-.247.247v6.66zm.505-4.487c.04-1.07.895-1.915 1.914-1.915 1.07 0 1.935.886 1.935 1.998 0 1.11-.865 2.007-1.935 2.017-1.04-.01-1.914-.906-1.914-2.017v-.082zm13.502 2.387c0 .124.103.237.237.237.144 0 .247-.114.247-.238v-2.748c0-1.132-.916-2.048-2.048-2.048-.772 0-1.45.433-1.81 1.07-.35-.637-1.02-1.07-1.802-1.07-.628 0-1.184.278-1.554.72v-.483c0-.134-.103-.237-.247-.237-.124 0-.237.103-.237.237v4.61c.03.093.113.176.206.186h.06c.022 0 .032 0 .043-.01.02 0 .05-.02.06-.03.073-.043.115-.115.115-.198v-2.748c0-.854.69-1.564 1.554-1.564.864 0 1.554.71 1.554 1.565v2.8c.01.01.01.02.01.03.01.01.01.02.01.02.01.012.01.012.01.022.01 0 .01.01.02.02l.032.03c.01.012.02.022.03.022.02.01.042.03.063.03 0 0 .01.01.02.01h.052c.04 0 .082-.01.123-.03.052-.033.103-.074.124-.136v-.02s.01-.01.01-.02v-2.78c0-.854.7-1.564 1.554-1.564.864 0 1.544.71 1.564 1.565v2.748zm4.662.237c.855 0 1.606-.454 2.038-1.143.072-.124.03-.268-.082-.35-.103-.062-.258-.04-.33.082-.34.565-.957.915-1.626.915-1.04 0-1.904-.834-1.955-1.935h4.137c.134 0 .247-.09.247-.225v-.04c-.1-1.32-1.13-2.348-2.427-2.348-1.358 0-2.45 1.132-2.45 2.532 0 1.377 1.092 2.51 2.45 2.51zm0-4.55c.927 0 1.73.69 1.894 1.636h-3.818c.185-.957.978-1.636 1.924-1.636zm7.78 4.302c0 .144.114.247.248.247s.247-.104.247-.248v-2.738c0-1.12-.916-2.048-2.048-2.048-.63 0-1.196.29-1.567.73v-.483c0-.133-.102-.247-.236-.247-.144 0-.247.114-.247.247v4.6s.01.01.01.02c0 .012 0 .022.01.032.032.062.094.113.166.134h.062c.072 0 .144-.03.185-.094.03-.03.04-.072.05-.113v-2.78c.022-.852.712-1.552 1.566-1.552.862 0 1.552.7 1.552 1.556v2.738zm4.22-4.796h-.648v-1.873c0-.123-.134-.247-.268-.247-.123 0-.247.124-.247.247v1.873h-.63c-.246 0-.246.124-.246.247 0 .124 0 .247.247.247h.628v3.675c0 .505.38.875.884.875.124 0 .258-.123.258-.247 0-.123-.134-.257-.258-.257-.123 0-.37-.124-.37-.37v-3.675h.648c.124 0 .247-.12.247-.245 0-.123-.124-.247-.248-.247zm526.95-9.203c0 .134.114.247.248.247.144 0 .257-.113.257-.247v-3.098h3.026c.144 0 .257-.113.257-.247 0-.144-.113-.257-.257-.257h-3.026v-2.85h3.458c.134 0 .247-.112.247-.256 0-.134-.113-.247-.247-.247h-3.724c-.133.01-.236.113-.236.247v6.71zm8.05.247c.854 0 1.606-.453 2.04-1.142.07-.124.03-.268-.084-.35-.103-.062-.258-.04-.33.082-.34.566-.957.916-1.626.916-1.038 0-1.903-.834-1.954-1.935h4.137c.134 0 .247-.09.247-.224v-.04c-.103-1.32-1.132-2.348-2.43-2.348-1.357 0-2.448 1.132-2.448 2.532 0 1.378 1.09 2.51 2.45 2.51zm0-4.55c.926 0 1.73.69 1.894 1.637h-3.818c.185-.957.977-1.636 1.924-1.636zm8.16-.493c-.132 0-.246.103-.246.247v.74c-.432-.596-1.12-.987-1.893-.987-1.328 0-2.388 1.142-2.388 2.522 0 1.377 1.06 2.52 2.388 2.52.772 0 1.46-.4 1.893-1v.75c0 .136.114.25.247.25.134 0 .247-.114.247-.248v-4.55c0-.143-.114-.246-.248-.246zm-2.14 4.55c-1.03 0-1.893-.896-1.893-2.028 0-1.135.864-2.04 1.893-2.04 1.04 0 1.893.905 1.893 2.04 0 1.13-.854 2.025-1.893 2.025zm6.04-4.55h-.647v-1.873c0-.123-.133-.247-.267-.247-.124 0-.247.124-.247.247v1.873h-.627c-.247 0-.247.124-.247.247 0 .124 0 .247.247.247h.628v3.676c0 .505.38.875.886.875.123 0 .257-.122.257-.246 0-.123-.134-.257-.257-.257-.124 0-.37-.124-.37-.37v-3.675h.648c.123 0 .247-.122.247-.246 0-.123-.123-.247-.246-.247zm2.503 2.985c0 1.132.905 2.058 2.037 2.058 1.154 0 2.07-.926 2.07-2.058v-2.748c0-.144-.113-.247-.257-.247-.124 0-.247.103-.247.247v2.748c0 .864-.7 1.554-1.565 1.564-.853-.01-1.542-.7-1.542-1.564v-2.748c0-.144-.113-.247-.246-.247s-.246.103-.246.247v2.748zm6.41 1.81c0 .145.115.248.26.248.122 0 .235-.103.235-.247v-2.213c0-.02 0-.04.02-.082.072-.206.268-.72.607-1.173.35-.453.803-.824 1.462-.824.13 0 .245-.11.245-.245 0-.144-.114-.247-.247-.247-.97 0-1.638.638-2.02 1.235-.03.042-.05.083-.07.124v-1.112c0-.144-.114-.247-.237-.247-.143 0-.257.103-.257.247v4.54zm6.094.248c.853 0 1.604-.453 2.037-1.142.072-.124.03-.268-.083-.35-.103-.062-.257-.04-.33.082-.34.566-.956.916-1.625.916-1.04 0-1.905-.834-1.956-1.935h4.137c.135 0 .248-.09.248-.224v-.04c-.103-1.32-1.132-2.348-2.43-2.348-1.358 0-2.448 1.132-2.448 2.532 0 1.378 1.09 2.51 2.448 2.51zm0-4.55c.925 0 1.73.69 1.893 1.637h-3.82c.187-.957.98-1.636 1.926-1.636zm-33.963 18.107c.113.227.33.33.463.33h.02c.06 0 .113-.01.123-.01.134-.052.196-.196.165-.33-.042-.113-.165-.175-.278-.164-.01-.01-.062-.052-.103-.175-.052-.155-.093-.412-.093-.834 0-.813-.494-1.338-.967-1.606-.04-.02-.072-.03-.103-.05.7-.33 1.183-1.04 1.183-1.864 0-1.142-.916-2.058-2.048-2.058h-2.06c-.122.01-.225.123-.225.247v6.71c0 .134.113.247.247.247.144 0 .257-.113.257-.247v-2.85h1.75c.01 0 .02.01.05.02.133.02.514.134.833.36.32.237.586.566.586 1.09 0 .608.07.948.195 1.184zm-.083-4.703c0 .844-.68 1.534-1.512 1.554h-1.822V128.3h1.78c.856 0 1.555.69 1.555 1.554zm4.61 5.146c.855 0 1.607-.453 2.04-1.142.07-.124.03-.268-.084-.35-.103-.062-.258-.04-.33.082-.34.566-.957.916-1.626.916-1.04 0-1.904-.834-1.955-1.935h4.135c.134 0 .247-.09.247-.224v-.04c-.103-1.32-1.132-2.348-2.43-2.348-1.357 0-2.448 1.132-2.448 2.532 0 1.378 1.09 2.51 2.45 2.51zm0-4.55c.927 0 1.73.69 1.895 1.637h-3.82c.186-.957.978-1.636 1.925-1.636zm4.25 4.303c0 .134.115.247.248.247.146 0 .26-.113.26-.247v-6.71c0-.134-.114-.247-.26-.247-.132 0-.246.113-.246.247v6.71zm5.044.247c.855 0 1.606-.453 2.038-1.142.072-.124.03-.268-.082-.35-.103-.062-.258-.04-.33.082-.34.566-.957.916-1.626.916-1.04 0-1.904-.834-1.955-1.935h4.137c.133 0 .246-.09.246-.224v-.04c-.103-1.32-1.132-2.348-2.43-2.348-1.357 0-2.448 1.132-2.448 2.532 0 1.378 1.09 2.51 2.45 2.51zm0-4.55c.927 0 1.73.69 1.894 1.637h-3.817c.185-.957.978-1.636 1.924-1.636zm8.162-.493c-.135 0-.248.103-.248.247v.74c-.433-.596-1.122-.987-1.894-.987-1.328 0-2.388 1.142-2.388 2.522 0 1.377 1.06 2.52 2.388 2.52.772 0 1.46-.4 1.894-1v.75c0 .136.113.25.247.25.13 0 .245-.114.245-.248v-4.55c0-.143-.114-.246-.247-.246zm-2.142 4.55c-1.03 0-1.894-.896-1.894-2.028 0-1.135.865-2.04 1.894-2.04 1.04 0 1.894.905 1.894 2.04 0 1.13-.855 2.025-1.894 2.025zm4.21-.227c.41.33 1.05.71 1.862.72.494 0 .906-.144 1.256-.4.34-.26.576-.598.576-1.02 0-.422-.237-.813-.566-1.03-.35-.195-.74-.34-1.225-.41h-.02c-.462-.073-.8-.197-1.03-.35-.193-.155-.286-.3-.286-.505 0-.206.113-.412.32-.577.215-.175.545-.288.956-.288.493 0 .864.258 1.234.505.114.072.268.04.34-.073.072-.113.04-.267-.072-.35-.39-.246-.854-.545-1.503-.545-.516 0-.938.134-1.237.34-.32.236-.545.586-.545.988 0 .39.225.72.544.905.29.206.69.31 1.143.39l.02.012c.494.082.855.206 1.07.37.258.216.35.38.36.618 0 .226-.133.453-.38.617-.226.186-.566.31-.957.31-.638 0-1.194-.33-1.544-.588-.113-.094-.267-.074-.35.03-.082.102-.072.236.03.33zm7.47.72c.855 0 1.606-.453 2.04-1.142.07-.124.03-.268-.084-.35-.103-.062-.257-.04-.33.082-.34.566-.956.916-1.625.916-1.04 0-1.906-.834-1.958-1.935h4.138c.134 0 .248-.09.248-.224v-.04c-.103-1.32-1.132-2.348-2.43-2.348-1.358 0-2.45 1.132-2.45 2.532 0 1.378 1.092 2.51 2.45 2.51zm0-4.55c.927 0 1.73.69 1.895 1.637h-3.82c.187-.957.98-1.636 1.926-1.636zm3.86 3.83c.412.33 1.05.71 1.863.72.496 0 .908-.144 1.258-.4.34-.26.576-.598.576-1.02 0-.422-.237-.813-.566-1.03-.35-.195-.74-.34-1.225-.41h-.02c-.464-.073-.803-.197-1.03-.35-.195-.155-.288-.3-.288-.505 0-.206.113-.412.32-.577.215-.175.545-.288.956-.288.495 0 .866.258 1.236.505.114.072.268.04.34-.073.072-.113.04-.267-.072-.35-.39-.246-.854-.545-1.503-.545-.513 0-.935.134-1.234.34-.32.236-.545.586-.545.988 0 .39.227.72.546.905.29.206.69.31 1.143.39l.02.012c.493.082.854.206 1.07.37.257.216.35.38.36.618 0 .226-.134.453-.38.617-.227.186-.567.31-.958.31-.637 0-1.193-.33-1.543-.588-.114-.094-.268-.074-.35.03-.083.102-.073.236.03.33z" fill="#000"/>
        <path d="M864.048 9.614c.782.618 2.03 1.36 3.513 1.372.976 0 1.868-.288 2.54-.782.687-.494 1.18-1.25 1.18-2.127 0-.425-.123-.837-.33-1.166-.314-.506-.81-.863-1.37-1.137-.55-.26-1.195-.44-1.894-.576h-.028c-.74-.138-1.358-.357-1.715-.604-.178-.124-.302-.247-.37-.357-.07-.11-.097-.22-.097-.384 0-.287.15-.59.522-.864.37-.274.92-.466 1.537-.466.837 0 1.51.41 2.21.878.328.22.767.123.973-.206.22-.315.124-.755-.192-.974-.7-.453-1.674-1.098-2.99-1.098-.893 0-1.73.26-2.375.727-.63.466-1.097 1.18-1.097 2.003 0 .412.11.797.316 1.126.3.48.753.822 1.275 1.07.52.246 1.125.41 1.77.534h.027c.81.152 1.483.386 1.88.646.207.138.33.275.413.412.082.137.123.26.123.44 0 .342-.178.685-.59.987-.41.3-1.03.507-1.715.507-.973.014-2.016-.563-2.62-1.057-.302-.247-.754-.206-1 .096-.235.302-.194.755.108 1.002zm9.92 3.966c.44 0 .784-.357.784-.74v-2.416c.494.356 1.152.562 1.838.562 1.825 0 3.32-1.523 3.32-3.403 0-1.88-1.495-3.444-3.32-3.444-.7 0-1.358.23-1.866.56-.055-.3-.37-.562-.755-.562-.4 0-.73.328-.73.726v7.973c0 .383.33.74.728.74zm1.32-7.383c.342-.37.795-.562 1.302-.562.467 0 .933.192 1.29.562.316.357.535.85.535 1.386 0 .535-.22 1.057-.535 1.372-.357.385-.823.577-1.29.577-.507 0-.96-.192-1.303-.577-.357-.315-.535-.837-.535-1.372 0-.535.178-1.03.535-1.386zm10.51-2.044c-.686-.014-1.276.233-1.73.535-.095.068-.205.178-.287.274v-.096c0-.398-.34-.713-.753-.713-.398 0-.727.315-.727.713v5.407c0 .398.328.727.726.727.412 0 .755-.33.755-.727V7.666c.07-.193.235-.714.564-1.153.165-.26.37-.494.632-.66.233-.177.507-.26.823-.26.41 0 .726-.343.726-.727 0-.398-.316-.713-.727-.713zm3.28 0c-.412 0-.742.315-.742.754v5.352c0 .41.33.74.74.74.427 0 .742-.33.742-.74V4.905c0-.44-.315-.754-.74-.754zm.74-2.017c0-.412-.315-.74-.74-.74-.412 0-.742.328-.742.74v.288c0 .41.33.754.74.754.427 0 .742-.343.742-.754v-.288zm5.215 2.003c-.535 0-1.043.163-1.455.423-.123-.26-.384-.425-.672-.425-.412 0-.727.328-.727.726v5.407c0 .4.313.728.725.728.357 0 .66-.26.727-.59.028-.055.028-.096.028-.137V6.99c0-.767.604-1.385 1.373-1.385.782 0 1.427.618 1.427 1.386v3.28c0 .4.343.728.727.728.398 0 .714-.33.714-.727V6.99c0-1.55-1.274-2.853-2.866-2.853zm11.69 3.456v-2.73c0-.4-.315-.728-.726-.728-.357 0-.66.246-.728.575-.496-.356-1.127-.576-1.84-.576-.906 0-1.743.397-2.333 1.014-.59.646-.96 1.497-.96 2.444 0 .96.37 1.81.96 2.415.59.644 1.427 1.042 2.333 1.042.673 0 1.304-.206 1.798-.55-.178.838-.905 1.47-1.797 1.47-.286 0-.547-.07-.78-.193-.385-.166-.81-.028-.99.342-.19.37-.026.824.33.988.426.22.934.343 1.44.343 1.827 0 3.295-1.495 3.295-3.293V7.598zm-1.99 1.413c-.355.37-.78.562-1.302.562-.48 0-.93-.192-1.26-.563-.33-.316-.55-.838-.55-1.414 0-.55.22-1.07.55-1.4.33-.384.78-.59 1.262-.59.522 0 .948.206 1.304.59.302.33.522.85.522 1.4 0 .576-.22 1.098-.522 1.413zm-28.39 18.466h-2.923l2.594-2.347c.714-.646 1.084-1.55 1.084-2.443 0-.782-.274-1.592-.85-2.21-.646-.713-1.55-1.083-2.443-1.083-.782 0-1.592.274-2.21.85l-.425.385c-.316.287-.33.753-.055 1.07.288.314.755.342 1.07.054l.426-.384c.345-.3.77-.452 1.196-.452.48 0 .96.178 1.317.576.302.343.453.755.453 1.194 0 .494-.18.96-.576 1.317l-4.063 3.678c-.302.288-.33.754-.04 1.07.136.165.355.247.56.247h4.886c.426 0 .755-.33.755-.755s-.33-.768-.755-.768zm3.582 0c.576.864 1.468 1.523 2.552 1.523 1.057 0 1.962-.66 2.54-1.524.59-.878.918-2.03.918-3.28 0-1.262-.33-2.4-.92-3.28-.576-.878-1.48-1.522-2.538-1.522-1.084 0-1.976.644-2.552 1.523-.604.878-.92 2.017-.933 3.28.013 1.248.33 2.4.933 3.28zm3.828-.85c-.398.59-.85.85-1.276.85-.425 0-.892-.26-1.304-.85-.384-.577-.658-1.455-.658-2.43 0-.988.274-1.852.658-2.442.412-.577.88-.85 1.304-.837.425-.014.878.26 1.276.837.384.59.66 1.454.66 2.442 0 .975-.276 1.853-.66 2.43zm7.767-6.52c-.027-.026-.027-.054-.027-.095 0-.013-.014-.04-.014-.07-.016-.01-.016-.04-.03-.066 0-.028-.013-.04-.027-.07 0-.013-.014-.026-.014-.04l-.015-.027-.054-.055c-.013-.028-.027-.04-.04-.055-.014-.014-.028-.04-.055-.055-.014-.014-.042-.028-.055-.04-.027-.015-.04-.03-.054-.042-.028 0-.04-.013-.083-.04-.013-.014-.04-.014-.054-.014-.03-.014-.044-.028-.085-.028-.014 0-.04 0-.055-.013h-.15c-.027 0-.068 0-.096.013-.013 0-.04 0-.055.014-.03 0-.056.014-.084.014-.027.013-.04.04-.07.04-.012.015-.04.015-.053.028l-1.688 1.002c-.357.206-.48.686-.247 1.03.136.246.383.383.644.383.123 0 .26-.03.384-.11l.55-.317v6.75c0 .427.328.756.754.756.41 0 .768-.33.768-.756v-8.138zm5.077 2.252c-.466 0-.92.095-1.317.273.055-.123.11-.246.178-.356.233-.41.522-.727.865-.96.356-.22.768-.37 1.29-.385.425-.04.754-.384.74-.795-.027-.426-.37-.74-.795-.728-.782.028-1.482.26-2.06.645-.863.577-1.426 1.44-1.77 2.347-.342.904-.48 1.892-.48 2.812 0 .26.015.52.028.782.014.014.014.014.014.027.165 1.675 1.578 2.98 3.307 2.98 1.84 0 3.335-1.483 3.335-3.32 0-1.84-1.496-3.32-3.335-3.32zm0 5.117c-1.002 0-1.797-.796-1.797-1.798 0-.99.795-1.812 1.797-1.812 1.002 0 1.81.823 1.81 1.81 0 1.003-.808 1.8-1.81 1.8z" fill="#008CDC"/>
        <path d="M997.54 44.97c.596.474 1.553 1.03 2.654 1.04.72 0 1.37-.216 1.853-.566.484-.35.813-.864.813-1.44 0-.577-.32-1.05-.792-1.36-.474-.318-1.112-.524-1.832-.658h-.02c-.65-.123-1.184-.298-1.545-.545-.36-.245-.523-.513-.533-.873 0-.37.206-.72.566-.988.36-.258.885-.433 1.472-.433.792 0 1.41.39 1.976.76.104.073.248.043.31-.06.07-.114.04-.247-.062-.32-.566-.37-1.276-.833-2.223-.833-.68 0-1.287.196-1.74.525-.452.33-.75.802-.75 1.347 0 .535.298.967.74 1.256.443.298 1.03.483 1.698.607h.02c.7.133 1.277.328 1.668.585.39.268.588.577.588.988 0 .402-.216.783-.618 1.07-.392.29-.958.474-1.586.474-.936.01-1.83-.494-2.367-.926-.092-.08-.236-.07-.32.033-.07.092-.06.237.032.32zm6.946-1.028c0 1.132.906 2.058 2.038 2.058 1.152 0 2.068-.926 2.068-2.058v-2.748c0-.144-.113-.247-.257-.247-.123 0-.247.103-.247.247v2.748c0 .864-.7 1.554-1.564 1.564-.854-.01-1.544-.7-1.544-1.564v-2.748c0-.144-.113-.247-.247-.247s-.247.103-.247.247v2.748zm13.626 1.82c0 .125.103.238.237.238.142 0 .245-.113.245-.237v-2.748c0-1.132-.916-2.048-2.048-2.048-.772 0-1.45.433-1.812 1.07-.35-.637-1.018-1.07-1.8-1.07-.628 0-1.184.278-1.555.72v-.483c0-.134-.1-.237-.246-.237-.123 0-.236.103-.236.237v4.61c.03.093.113.176.206.186h.06c.022 0 .032 0 .042-.01.02 0 .052-.02.062-.03.072-.042.113-.114.113-.197v-2.748c0-.854.69-1.564 1.556-1.564s1.554.71 1.554 1.566v2.8c.01.01.01.02.01.03.01.01.01.02.01.02.01.01.01.01.01.02.01 0 .01.01.02.02l.032.03c.01.013.02.023.03.023.02.01.042.03.062.03 0 0 .01.01.02.01h.052c.042 0 .083-.01.124-.03.05-.033.103-.074.123-.136v-.02s.01-.01.01-.02v-2.78c0-.854.7-1.564 1.555-1.564.864 0 1.544.71 1.564 1.565v2.748zm9.787 0c0 .125.1.238.235.238.144 0 .247-.113.247-.237v-2.748c0-1.132-.916-2.048-2.048-2.048-.772 0-1.45.433-1.81 1.07-.35-.637-1.02-1.07-1.802-1.07-.628 0-1.184.278-1.554.72v-.483c0-.134-.104-.237-.248-.237-.124 0-.237.103-.237.237v4.61c.03.093.113.176.206.186h.06c.02 0 .03 0 .043-.01.02 0 .05-.02.06-.03.074-.042.115-.114.115-.197v-2.748c0-.854.688-1.564 1.553-1.564s1.555.71 1.555 1.566v2.8c.01.01.01.02.01.03.01.01.01.02.01.02.01.01.01.01.01.02.01 0 .01.01.02.02l.032.03c.01.013.02.023.03.023.02.01.04.03.062.03 0 0 .01.01.02.01h.054c.04 0 .082-.01.123-.03.052-.033.103-.074.124-.136v-.02s.01-.01.01-.02v-2.78c0-.854.7-1.564 1.556-1.564.865 0 1.544.71 1.564 1.565v2.748zm4.66.238c.855 0 1.606-.453 2.04-1.142.07-.124.03-.268-.084-.35-.103-.062-.257-.04-.33.082-.34.566-.957.916-1.626.916-1.038 0-1.902-.834-1.954-1.935h4.137c.134 0 .247-.09.247-.224v-.04c-.103-1.32-1.132-2.348-2.43-2.348-1.357 0-2.448 1.132-2.448 2.532 0 1.378 1.09 2.51 2.45 2.51zm0-4.55c.927 0 1.73.69 1.894 1.637h-3.818c.185-.957.978-1.636 1.924-1.636zm3.963 4.303c0 .144.113.247.257.247.125 0 .238-.103.238-.247V43.54c0-.02 0-.04.02-.082.072-.206.268-.72.608-1.173.35-.453.802-.824 1.46-.824.135 0 .248-.11.248-.245 0-.144-.113-.247-.247-.247-.967 0-1.636.638-2.017 1.235-.03.042-.052.083-.072.124v-1.112c0-.144-.113-.247-.237-.247-.142 0-.255.103-.255.247v4.54zm-29.244 14.175c.04.05.112.072.184.072h4.055c.133 0 .246-.113.246-.247 0-.144-.113-.257-.247-.257h-3.407l2.88-2.604c.516-.473.773-1.112.773-1.75 0-.555-.195-1.12-.617-1.574-.464-.525-1.1-.772-1.73-.772-.566 0-1.14.206-1.595.607l-.35.33c-.103.082-.113.246-.01.35.082.102.246.113.35.01l.35-.32c.36-.318.802-.473 1.255-.473.505 0 1.01.206 1.37.607.32.35.483.793.483 1.235 0 .515-.216 1.01-.617 1.38l-3.365 3.035c-.1.103-.1.258-.01.37zm6.884-1.02c.443.65 1.07 1.092 1.8 1.092.732 0 1.36-.443 1.802-1.09.433-.66.7-1.545.7-2.512 0-.967-.267-1.853-.7-2.52-.442-.64-1.07-1.082-1.8-1.082s-1.36.442-1.802 1.08c-.442.67-.69 1.555-.69 2.522 0 .967.248 1.852.69 2.51zm.422-4.743c.37-.566.865-.865 1.38-.865.514 0 .998.3 1.378.865.37.555.618 1.348.618 2.233s-.247 1.677-.618 2.233c-.38.548-.864.867-1.38.867-.513 0-1.007-.32-1.378-.865-.37-.555-.607-1.347-.607-2.232 0-.885.236-1.678.606-2.233zm7.215 5.588c0 .134.114.247.248.247.143 0 .246-.113.246-.247v-6.617c.01-.062 0-.124-.03-.186-.063-.113-.228-.154-.34-.092l-1.39.844c-.124.06-.165.205-.093.34.04.07.125.123.217.123.04 0 .092-.02.123-.04l1.02-.598v6.226zm2.368-2.52c0 .163 0 .318.02.472.04 1.276 1.09 2.295 2.377 2.295 1.327 0 2.387-1.06 2.387-2.377 0-1.307-1.06-2.378-2.387-2.378-.71 0-1.35.32-1.78.813.102-.514.267-1.02.514-1.44.453-.752 1.09-1.266 2.1-1.308.133-.01.246-.123.246-.267-.01-.134-.123-.247-.257-.237-1.195.04-2.028.69-2.52 1.565-.496.856-.69 1.905-.7 2.863zm.524.39c0-1.03.843-1.873 1.873-1.873 1.05 0 1.893.843 1.893 1.873s-.844 1.873-1.893 1.873c-.947 0-1.74-.71-1.863-1.626.01-.02.01-.042.01-.072-.01-.042-.02-.083-.02-.134v-.04z" fill="#000"/>
        <g transform="translate(860 58)" fill="#FFCE29">
            <circle cx="25" cy="28" r="13"/>
            <path d="M24.888 10.504c-1.343 0-2.433-1.097-2.433-2.43v-4.87c0-1.344 1.08-2.432 2.433-2.432 1.344 0 2.433 1.097 2.433 2.43v4.87c0 1.344-1.08 2.432-2.43 2.432zm15.17 8.76c-.67-1.165-.265-2.657.89-3.323l4.218-2.433c1.163-.67 2.645-.28 3.322.892.67 1.163.266 2.655-.89 3.32l-4.217 2.436c-1.16.67-2.642.28-3.32-.892zm0 17.517c.673-1.16 2.168-1.555 3.323-.89l4.22 2.437c1.164.67 1.566 2.15.89 3.322-.672 1.163-2.167 1.557-3.322.89l-4.218-2.436c-1.164-.67-1.566-2.15-.89-3.322h-.002zm-15.17 8.76c1.344 0 2.433 1.1 2.433 2.43v4.87c0 1.346-1.08 2.434-2.43 2.434-1.343 0-2.433-1.098-2.433-2.43v-4.87c0-1.344 1.08-2.432 2.433-2.432h-.002zm-15.17-8.76c.67 1.167.265 2.66-.89 3.325L4.61 42.54c-1.16.67-2.643.28-3.32-.893-.672-1.164-.266-2.656.89-3.322l4.217-2.436c1.162-.674 2.645-.28 3.32.89zm0-17.515c-.672 1.164-2.168 1.558-3.322.892L2.178 17.72c-1.163-.672-1.565-2.15-.89-3.323.673-1.164 2.168-1.558 3.323-.892l4.22 2.436c1.16.674 1.566 2.15.89 3.325z"/>
        </g>
    </g>
</svg>
