<svg width="220" height="444" viewBox="0 0 220 444" xmlns="http://www.w3.org/2000/svg">
    <title>
        Dates Mobile
    </title>
    <g fill="none" fill-rule="evenodd">
        <path d="M109.953 83.775v243m-.003 63.98v20" stroke="#008CDC" stroke-width="4"/>
        <g transform="rotate(90 55.863 57.09)" fill="#008CDC">
            <circle opacity=".5" cx="21.5" cy="3" r="2.5"/>
            <circle opacity=".7" cx="30.5" cy="3" r="2.5"/>
            <circle opacity=".9" cx="40.5" cy="3" r="2.5"/>
            <circle cx="50.5" cy="3" r="2.5"/>
            <circle cx="60.5" cy="3" r="2.5"/>
            <circle cx="70.5" cy="3" r="2.5"/>
            <circle opacity=".3" cx="11.5" cy="3" r="2.5"/>
            <circle opacity=".1" cx="2.5" cy="3" r="2.5"/>
        </g>
        <g transform="rotate(90 -15.138 208.09)">
            <rect fill="#CCE7F4" x="1" y="107" width="34" height="69" rx="5"/>
            <path d="M11.188 87.106c0 2.767 1.987 3.992 4.45 2.73l9.34-4.78c2.46-1.26 2.448-3.258-.034-4.47l-9.27-4.523c-2.478-1.21-4.486.047-4.486 2.82v8.223z" stroke="#008CDC" stroke-width="4" fill="#FFF"/>
            <path d="M12.572 51.77v-1.216c0-1.986-1.616-3.59-3.612-3.59-1.976 0-3.592 1.604-3.592 3.59v1.215c0 .318.247.565.566.565h6.072c.31 0 .566-.247.566-.566zM6.51 51.19v-.638c0-1.358 1.1-2.45 2.45-2.45 1.368 0 2.46 1.092 2.47 2.45v.638H6.51zm6.062-8.295c0-.73-.216-1.338-.68-1.842-.215-.237-.524-.134-.668 0-.165.134-.196.556.03.772.196.257.29.7.258 1.07-.03.36-.216.772-.463.988-.176.186-.444.3-.68.35v-3.272c0-.29-.165-.505-.412-.536-.02-.01-.072-.01-.093-.01h-.05c-1.39.082-2.39 1.142-2.39 2.48 0 1.41 1.174 2.5 2.574 2.51 1.4-.01 2.562-1.1 2.572-2.51zm-4.168 0c.072-.895.68-1.42 1.09-1.523v2.913c-.42-.083-1.05-.515-1.09-1.39zm4.168-6.37c0-.618-.226-1.194-.545-1.637-.206-.236-.536-.277-.762-.113-.247.206-.288.546-.113.772.195.267.33.606.33.977 0 .833-.68 1.523-1.473 1.523s-1.483-.69-1.483-1.523c0-.38.134-.71.33-.978.185-.238.144-.567-.103-.773-.227-.164-.577-.123-.762.113-.34.443-.566 1.02-.566 1.637.01 1.42 1.153 2.614 2.583 2.614 1.41 0 2.562-1.193 2.562-2.613zm0-5.62c0-.73-.216-1.337-.68-1.842-.215-.236-.524-.133-.668 0-.165.134-.196.556.03.772.196.258.29.7.258 1.07-.03.36-.216.773-.463.99-.176.184-.444.297-.68.35v-3.274c0-.288-.165-.504-.412-.535-.02-.01-.072-.01-.093-.01h-.05c-1.39.082-2.39 1.142-2.39 2.48 0 1.41 1.174 2.5 2.574 2.51 1.4-.01 2.562-1.1 2.572-2.51zm-4.168 0c.072-.895.68-1.42 1.09-1.523v2.913c-.42-.082-1.05-.515-1.09-1.39zm.123-9.488c0-.567.474-1.04 1.06-1.04h2.44c.298 0 .545-.258.545-.556 0-.3-.247-.546-.545-.546h-2.44c-1.193 0-2.16.957-2.16 2.14 0 .65.267 1.236.71 1.617-.443.39-.71.967-.71 1.615 0 .39.112.772.308 1.102-.196.082-.31.277-.31.494 0 .298.238.545.557.545h4.045c.267 0 .473-.195.535-.442 0-.03.01-.06.01-.102 0-.217-.144-.422-.33-.515h-.05c-.02-.02-.042-.02-.063-.03h-.03c-.022 0-.053-.01-.073-.01h-2.44c-.586 0-1.06-.474-1.06-1.04 0-.576.464-1.05 1.03-1.06H12.027c.298 0 .545-.267.545-.555 0-.3-.247-.546-.545-.546H9.557c-.566-.02-1.03-.485-1.03-1.07zm3.49-4.416c.298 0 .555-.247.555-.556 0-.278-.196-.494-.443-.545.267-.392.442-.886.442-1.4 0-1.39-1.173-2.5-2.563-2.5-1.41 0-2.584 1.11-2.584 2.5 0 .504.165.998.432 1.38H5.924c-.3 0-.556.246-.556.565 0 .31.257.556.556.556H12.015zM8.97 15.47c-.268-.257-.422-.586-.422-.967 0-.37.154-.71.422-.968.257-.257.628-.41 1.04-.41.39 0 .76.153 1.018.41.268.258.422.597.422.968 0 .38-.154.71-.422.967-.257.258-.628.412-1.02.412-.41 0-.78-.154-1.038-.412zm3.602-7.41c0-.73-.216-1.338-.68-1.842-.215-.237-.524-.134-.668 0-.165.134-.196.556.03.772.196.257.29.7.258 1.07-.03.36-.216.772-.463.988-.176.186-.444.3-.68.35V6.126c0-.29-.165-.505-.412-.536-.02-.01-.072-.01-.093-.01h-.05c-1.39.082-2.39 1.142-2.39 2.48 0 1.41 1.174 2.5 2.574 2.512 1.4-.01 2.562-1.102 2.572-2.512zm-4.168 0c.072-.895.68-1.42 1.09-1.523V9.45c-.42-.083-1.05-.515-1.09-1.39zm-.967-6.525c-.01.515.174.958.4 1.297.052.072.135.155.207.216h-.072c-.3 0-.535.258-.535.566 0 .3.236.546.535.546h4.055c.298 0 .545-.247.545-.546 0-.308-.247-.566-.545-.566H10.07c-.143-.05-.534-.175-.863-.422-.196-.123-.37-.277-.494-.473-.134-.175-.196-.38-.196-.618 0-.308-.257-.545-.545-.545-.3 0-.535.237-.535.545zM25.43 33.748v2.193l-1.76-1.945c-.484-.535-1.163-.813-1.832-.813-.587 0-1.194.206-1.657.638-.535.484-.812 1.163-.812 1.832 0 .587.205 1.194.638 1.657l.288.318c.216.237.566.247.803.042.236-.216.257-.566.04-.803l-.287-.32c-.227-.256-.34-.576-.34-.895 0-.36.134-.72.432-.988.258-.226.566-.34.896-.34.37 0 .72.135.988.433l2.758 3.046c.216.227.566.247.803.03.123-.102.185-.266.185-.42v-3.665c0-.32-.247-.566-.566-.566-.32 0-.576.247-.576.566zm0-2.686c.648-.432 1.142-1.1 1.142-1.914 0-.793-.494-1.472-1.142-1.904-.66-.443-1.524-.69-2.46-.69-.947 0-1.8.247-2.46.69-.66.432-1.142 1.11-1.142 1.904 0 .813.483 1.482 1.142 1.914.66.453 1.513.69 2.46.7.936-.01 1.8-.247 2.46-.7zm-.64-2.87c.444.297.64.637.64.956 0 .32-.196.67-.64.978-.43.288-1.09.494-1.82.494-.74 0-1.39-.206-1.832-.494-.432-.31-.638-.66-.628-.978-.01-.32.196-.66.628-.957.442-.287 1.09-.493 1.832-.493.73 0 1.39.206 1.82.494zm-4.887-5.827c-.02.02-.04.02-.072.02-.01 0-.03.01-.05.01-.01.012-.032.012-.052.022-.02 0-.03.01-.052.02-.01 0-.02.01-.03.01l-.02.01-.042.042c-.02.01-.03.02-.04.03-.012.01-.032.02-.043.04-.01.012-.02.032-.03.042-.01.02-.02.03-.03.042 0 .02-.01.03-.03.06-.012.012-.012.032-.012.043-.01.02-.02.03-.02.06 0 .012 0 .032-.01.042V22.97c0 .02 0 .052.01.073 0 .01 0 .03.01.04 0 .02.01.042.01.063.01.02.03.03.03.05.012.01.012.032.022.042l.75 1.266c.156.268.516.36.773.185.185-.1.288-.287.288-.482 0-.093-.02-.196-.08-.288l-.238-.412h5.064c.32 0 .566-.247.566-.566 0-.31-.247-.577-.566-.577h-6.102zm1.554-3.303c0 .226.03.463.093.69l-1.02-.124v-2.532c0-.33-.267-.587-.576-.587-.33 0-.586.257-.586.586v3.036c0 .103.02.185.06.268.012.01.012.02.022.03.01.01.01.02.02.042.093.134.237.226.412.257l2.666.308c.05.01.113.01.175 0 .01 0 .01-.01.02-.01.02 0 .042-.01.072-.01.01-.01.03-.02.052-.02 0-.012.01-.012.03-.012.042-.04.093-.072.135-.113.226-.226.226-.597 0-.823-.278-.268-.402-.638-.402-.988 0-.36.124-.71.402-.978.267-.278.617-.412.988-.412.35 0 .71.144.977.412.278.268.412.628.412.978 0 .37-.135.72-.413.988-.226.226-.226.607 0 .823.237.237.608.237.824 0 .505-.484.752-1.153.752-1.79v-.02c0-.65-.247-1.308-.75-1.802-.495-.493-1.154-.75-1.802-.75-.66 0-1.318.246-1.812.75-.504.495-.75 1.153-.75 1.802zM9.01 161.257c-1.226 0-2.214.988-2.214 2.213v1.842c0 .31.247.566.566.566h6.072c.31 0 .566-.257.566-.566 0-.32-.257-.576-.566-.576H11.2v-1.266c0-1.225-.987-2.213-2.19-2.213zm-1.072 3.48v-1.267c0-.597.474-1.06 1.07-1.07.577.01 1.05.473 1.05 1.07v1.266h-2.12zm.927-7.37c-.01.514.174.957.4 1.297.052.072.135.154.207.216H9.4c-.3 0-.535.257-.535.566 0 .298.236.545.535.545h4.055c.298 0 .545-.246.545-.544 0-.31-.247-.566-.545-.566H11.5c-.145-.052-.536-.175-.865-.422-.196-.124-.37-.278-.494-.474-.133-.175-.195-.38-.195-.617 0-.31-.257-.546-.545-.546-.3 0-.535.238-.535.547zm5.135-3.53c0-.73-.216-1.338-.68-1.842-.215-.237-.524-.134-.668 0-.165.133-.196.555.03.77.196.26.29.7.258 1.072-.03.36-.216.772-.463.988-.175.185-.443.298-.68.35v-3.273c0-.288-.164-.504-.41-.535-.022-.01-.073-.01-.094-.01h-.05c-1.39.082-2.39 1.142-2.39 2.48 0 1.41 1.174 2.5 2.574 2.51 1.4-.01 2.563-1.1 2.573-2.51zm-4.168 0c.072-.896.68-1.42 1.09-1.523v2.912c-.42-.082-1.05-.514-1.09-1.39zm1.626-4.446v-1.934c0-.33-.278-.607-.607-.607-.34 0-.617.277-.617.606v1.935c0 .33.278.608.618.608.33 0 .608-.278.608-.607zm2.573-6.112c0-.68-.298-1.297-.78-1.72-.454-.462-1.092-.72-1.813-.72-.7 0-1.307.258-1.8.72-.484.423-.783 1.04-.783 1.72 0 .71.3 1.307.782 1.77.494.442 1.102.71 1.8.71.722 0 1.36-.268 1.813-.71.482-.463.78-1.06.78-1.77zm-3.663.988c-.226-.258-.39-.597-.39-.988 0-.36.164-.69.39-.947.278-.256.648-.4 1.07-.4.443 0 .803.144 1.09.4.248.258.382.587.382.948 0 .39-.135.73-.382.988-.288.236-.648.37-1.09.37-.423 0-.793-.134-1.07-.37zm-1.502-7.596c-.01.515.174.958.4 1.297.052.072.135.155.207.216H9.4c-.3 0-.535.258-.535.566 0 .298.236.545.535.545h4.055c.298 0 .545-.247.545-.546 0-.31-.247-.567-.545-.567H11.5c-.145-.05-.536-.175-.865-.422-.196-.122-.37-.276-.494-.472-.133-.175-.195-.38-.195-.618 0-.308-.257-.545-.545-.545-.3 0-.535.237-.535.545zm2.572-6.298H7.352c-.3 0-.556.247-.556.556 0 .32.257.566.556.566h1.934c-.267.38-.432.875-.432 1.38 0 1.388 1.173 2.5 2.583 2.5 1.39 0 2.563-1.112 2.563-2.5 0-.516-.175-1.01-.443-1.4.247-.052.443-.268.443-.546 0-.31-.257-.556-.556-.556h-2.007zm-1.04 1.533c.258-.257.63-.41 1.04-.41.39 0 .762.153 1.02.41.267.258.42.587.42.968 0 .37-.153.71-.42.967-.258.258-.63.412-1.02.412-.41 0-.782-.154-1.04-.412-.267-.257-.42-.597-.42-.967 0-.38.153-.71.42-.968zm3.603-5.66c0-.73-.216-1.338-.68-1.842-.215-.237-.524-.134-.668 0-.165.134-.196.556.03.772.196.257.29.7.258 1.07-.03.36-.216.772-.463.988-.175.185-.443.3-.68.35v-3.273c0-.288-.164-.504-.41-.535-.022-.01-.073-.01-.094-.01h-.05c-1.39.082-2.39 1.142-2.39 2.48 0 1.41 1.174 2.5 2.574 2.51 1.4-.01 2.563-1.1 2.573-2.51zm-4.168 0c.072-.895.68-1.42 1.09-1.523v2.912c-.42-.082-1.05-.514-1.09-1.39zm-.967-6.525c-.01.515.174.957.4 1.297.052.072.135.154.207.216H9.4c-.3 0-.535.257-.535.566 0 .298.236.545.535.545h4.055c.298 0 .545-.247.545-.546 0-.31-.247-.567-.545-.567H11.5c-.145-.05-.536-.175-.865-.422-.196-.122-.37-.277-.494-.472-.133-.175-.195-.38-.195-.618 0-.308-.257-.545-.545-.545-.3 0-.535.237-.535.545zm18.096 35.033c.464-.587 1.02-1.523 1.03-2.635 0-.73-.216-1.4-.587-1.904-.37-.514-.936-.885-1.595-.885-.32 0-.628.092-.875.246-.38.237-.648.607-.854 1.03-.197.41-.33.895-.433 1.42v.02c-.103.556-.268 1.02-.453 1.287-.093.133-.185.226-.268.277-.082.052-.164.072-.288.072-.216 0-.442-.113-.648-.39-.206-.28-.35-.69-.35-1.153 0-.63.31-1.133.658-1.658.165-.247.093-.577-.154-.73-.237-.166-.566-.094-.73.143-.34.525-.824 1.256-.824 2.244 0 .668.196 1.295.546 1.78.35.473.885.822 1.502.822.31 0 .597-.082.844-.236.36-.227.617-.566.803-.957.185-.392.308-.845.4-1.33v-.02c.114-.607.29-1.11.485-1.41.103-.154.206-.246.31-.308.1-.062.194-.093.328-.093.257 0 .514.133.74.442.227.308.382.772.382 1.286.01.73-.422 1.513-.793 1.966-.185.226-.154.566.072.75.226.176.565.145.75-.08zm-4.106-8.583v.257h-1.492c-.32 0-.566.247-.566.566 0 .32.247.576.566.576h1.492v.298c0 .32.247.566.566.566.31 0 .566-.247.566-.566v-.3h2.872c.627 0 1.142-.513 1.142-1.14 0-.32-.247-.567-.566-.567-.32 0-.576.248-.576.567h-2.872v-.257c0-.31-.257-.577-.566-.577-.32 0-.566.268-.566.577zm.556-6.422c-.31 0-.556.247-.556.545 0 .268.196.474.453.535-.278.39-.453.854-.453 1.37 0 .7.3 1.306.772 1.75.463.44 1.1.698 1.81.698.7 0 1.34-.257 1.813-.7.462-.442.75-1.05.75-1.75 0-.514-.165-.977-.443-1.368.247-.06.443-.267.443-.535 0-.298-.247-.545-.545-.545H23.41zm3.087 1.492c.258.247.402.597.402.957 0 .37-.145.72-.403.957-.267.247-.638.39-1.06.39-.432 0-.802-.143-1.06-.39-.278-.237-.422-.586-.422-.957 0-.36.144-.71.422-.957.258-.247.628-.4 1.06-.4.422 0 .793.153 1.06.4zm-3.632-6.134c-.01.515.174.957.4 1.297.052.072.135.154.207.216H23.4c-.3 0-.535.256-.535.565 0 .3.236.546.535.546h4.055c.298 0 .545-.246.545-.545 0-.31-.247-.566-.545-.566H25.5c-.145-.052-.536-.176-.865-.423-.196-.123-.37-.278-.494-.473-.133-.175-.195-.38-.195-.618 0-.31-.257-.545-.545-.545-.3 0-.535.237-.535.546zm-.01-3.633v.258H21.36c-.32 0-.566.248-.566.567 0 .32.247.576.566.576h1.492v.298c0 .32.247.567.566.567.31 0 .566-.247.566-.566v-.297h2.872c.627 0 1.142-.515 1.142-1.142 0-.32-.247-.566-.566-.566-.32 0-.576.247-.576.567h-2.872v-.257c0-.31-.257-.576-.566-.576-.32 0-.566.267-.566.576z" fill="#008CDC"/>
        </g>
        <g transform="rotate(90 -46.137 230.09)">
            <circle stroke="#008CDC" stroke-width="4" fill="#FFF" cx="13.5" cy="74.5" r="9.5"/>
            <path d="M2.358 34.538c.05.124.205.186.33.124l6.606-2.78c.052-.01.093-.03.124-.06l.01-.01.02-.022c.03-.04.052-.092.052-.154 0-.05-.01-.103-.04-.144 0 0-.01-.01-.01-.02-.022-.02-.043-.042-.073-.052-.01-.01-.03-.02-.052-.02l-4.353-1.843 4.353-1.832c.01-.01.02-.01.03-.01.022-.01.052-.03.063-.04.02-.012.03-.032.04-.042.032-.042.042-.083.042-.124V27.457c-.01-.072-.072-.165-.165-.206l-6.648-2.8c-.124-.06-.278 0-.33.124-.06.144 0 .278.124.34l6.125 2.573-4.333 1.82c-.093.052-.154.144-.154.257 0 .093.06.186.154.237l4.333 1.832L2.48 34.21c-.122.05-.184.205-.122.328zm6.895-11.35c.134 0 .247-.115.247-.248 0-.144-.113-.258-.247-.258h-4.55c-.143 0-.246.114-.246.258 0 .133.103.247.247.247h4.55zm-5.96 0c.145 0 .27-.115.27-.248 0-.144-.125-.258-.27-.258h-.236c-.133 0-.247.114-.247.258 0 .133.114.247.247.247h.237zm5.96-6.485c.144 0 .247-.113.247-.247s-.103-.247-.247-.247H6.515c-1.12 0-2.048.915-2.048 2.047 0 .628.29 1.194.73 1.564h-.483c-.133 0-.247.104-.247.238 0 .144.114.247.247.247h4.6s.01-.01.02-.01c.012 0 .022 0 .032-.01.062-.03.113-.093.134-.165v-.062c0-.072-.03-.144-.093-.185-.03-.03-.072-.04-.113-.052H6.514c-.853-.02-1.553-.71-1.553-1.563 0-.864.7-1.554 1.555-1.554h2.738zm-4.796-4.22v.65H2.584c-.123 0-.247.133-.247.266 0 .123.124.246.247.246h1.873v.628c0 .247.124.247.247.247.124 0 .247 0 .247-.246v-.628h3.675c.505 0 .875-.38.875-.885 0-.122-.123-.256-.247-.256-.123 0-.257.134-.257.257 0 .125-.124.372-.37.372H4.95v-.65c0-.122-.122-.246-.246-.246-.123 0-.247.124-.247.247zM9.5 8.203c0-.855-.453-1.606-1.142-2.04-.124-.07-.268-.03-.35.084-.062.103-.04.257.082.33.566.34.916.956.916 1.625 0 1.04-.834 1.904-1.935 1.956V6.02c0-.133-.09-.247-.225-.247h-.04c-1.32.103-2.348 1.132-2.348 2.43 0 1.358 1.132 2.45 2.532 2.45 1.378 0 2.51-1.092 2.51-2.45zm-4.55 0c0-.927.69-1.73 1.637-1.895v3.82C5.63 9.94 4.95 9.147 4.95 8.2zM9.254 4.24c.144 0 .247-.113.247-.257 0-.124-.103-.237-.247-.237H7.04c-.02 0-.04 0-.082-.02-.206-.073-.72-.268-1.173-.608-.453-.35-.824-.803-.824-1.46 0-.135-.112-.248-.246-.248-.144 0-.247.113-.247.247 0 .967.638 1.636 1.235 2.017.042.03.083.05.124.072H4.714c-.144 0-.247.113-.247.237 0 .144.103.257.247.257h4.54zm14.175 24.916c.05-.04.072-.113.072-.185v-4.054c0-.134-.113-.247-.247-.247-.144 0-.257.112-.257.246v3.406l-2.604-2.88c-.473-.516-1.112-.773-1.75-.773-.555 0-1.12.194-1.574.616-.525.463-.772 1.1-.772 1.73 0 .565.206 1.14.607 1.594l.33.35c.082.103.246.113.35.01.102-.082.113-.246.01-.35l-.32-.35c-.318-.36-.473-.802-.473-1.255 0-.504.206-1.008.607-1.37.35-.318.793-.482 1.235-.482.515 0 1.01.216 1.38.617l3.035 3.365c.103.103.258.103.37.01zm-1.02-6.885c.65-.442 1.092-1.07 1.092-1.8s-.443-1.36-1.09-1.8c-.66-.434-1.545-.7-2.512-.7-.967 0-1.853.266-2.52.7-.64.44-1.082 1.07-1.082 1.8s.442 1.358 1.08 1.8c.67.443 1.555.69 2.522.69.967 0 1.852-.247 2.51-.69zm-4.743-.42c-.566-.372-.865-.866-.865-1.38 0-.515.3-1 .865-1.38.555-.37 1.348-.617 2.233-.617s1.677.247 2.233.618c.547.38.866.865.866 1.38 0 .514-.32 1.008-.865 1.38-.555.37-1.347.606-2.232.606-.885 0-1.678-.237-2.233-.607zm5.588-7.216c.134 0 .247-.113.247-.247 0-.144-.113-.247-.247-.247h-6.617c-.062-.01-.124 0-.186.03-.113.063-.154.228-.092.34l.844 1.39c.06.124.205.165.34.093.07-.04.123-.124.123-.216 0-.04-.02-.093-.04-.124l-.598-1.02h6.226zm-2.52-2.367c.163 0 .318 0 .472-.02 1.276-.04 2.295-1.09 2.295-2.378 0-1.328-1.06-2.388-2.377-2.388-1.307 0-2.378 1.06-2.378 2.387 0 .71.32 1.348.813 1.78-.514-.103-1.02-.268-1.44-.515-.752-.453-1.266-1.09-1.308-2.1-.01-.133-.123-.246-.267-.246-.134.01-.247.122-.237.256.04 1.194.69 2.027 1.565 2.52.855.495 1.904.69 2.862.7zm.39-.525c-1.03 0-1.873-.843-1.873-1.873 0-1.05.843-1.894 1.873-1.894s1.873.844 1.873 1.893c0 .946-.71 1.74-1.626 1.862-.02-.01-.042-.01-.072-.01-.042.01-.083.02-.134.02h-.04zM7.47 158.476c.474-.597 1.03-1.554 1.04-2.655 0-.72-.216-1.368-.566-1.852s-.864-.813-1.44-.813c-.577 0-1.05.32-1.36.793-.318.473-.524 1.11-.658 1.83v.022c-.123.648-.298 1.184-.545 1.544-.246.36-.514.525-.874.535-.37 0-.72-.207-.988-.567-.257-.36-.432-.885-.432-1.472 0-.79.39-1.41.76-1.975.073-.103.043-.247-.06-.31-.114-.07-.247-.04-.32.063-.37.566-.833 1.276-.833 2.223 0 .68.196 1.288.525 1.74.33.453.803.752 1.348.752.535 0 .967-.3 1.256-.74.298-.444.483-1.03.607-1.7v-.02c.133-.7.328-1.276.585-1.667.268-.39.577-.587.988-.587.402 0 .783.216 1.07.618.29.39.474.957.474 1.585.01.937-.494 1.832-.926 2.368-.08.092-.07.236.032.32.092.07.237.06.32-.032zm-4.013-8.51v.647H1.584c-.123 0-.247.134-.247.268 0 .124.124.248.247.248h1.873v.627c0 .247.124.247.247.247.124 0 .247 0 .247-.247v-.627h3.675c.505 0 .875-.38.875-.885 0-.124-.123-.258-.247-.258-.123 0-.257.134-.257.258 0 .123-.124.37-.37.37H3.95v-.648c0-.124-.122-.247-.246-.247-.123 0-.247.123-.247.247zm0-6.28c0 .135.103.248.247.248h.74c-.596.432-.987 1.122-.987 1.893 0 1.328 1.142 2.388 2.522 2.388 1.378 0 2.52-1.06 2.52-2.388 0-.77-.4-1.46-.998-1.893h.75c.135 0 .248-.113.248-.247s-.113-.247-.247-.247h-4.55c-.143 0-.246.113-.246.247zm4.55 2.14c0 1.03-.896 1.895-2.028 1.895-1.134 0-2.04-.863-2.04-1.893 0-1.04.906-1.893 2.04-1.893 1.13 0 2.026.854 2.026 1.893zm.246-4.527c.144 0 .247-.114.247-.258 0-.124-.103-.237-.247-.237H6.04c-.02 0-.04 0-.082-.02-.206-.072-.72-.268-1.173-.608-.453-.35-.824-.802-.824-1.46 0-.135-.112-.248-.246-.248-.144 0-.247.112-.247.246 0 .967.638 1.636 1.235 2.017.042.03.083.052.124.072H3.714c-.144 0-.247.113-.247.237 0 .144.103.257.247.257h4.54zm-4.796-6.032v.65H1.584c-.123 0-.247.132-.247.266 0 .124.124.247.247.247h1.873v.63c0 .246.124.246.247.246.124 0 .247 0 .247-.247v-.63h3.675c.505 0 .875-.38.875-.884 0-.123-.123-.257-.247-.257-.123 0-.257.133-.257.256 0 .124-.124.37-.37.37H3.95v-.648c0-.123-.122-.247-.246-.247-.123 0-.247.125-.247.248zm5.043-4.28c0-.855-.453-1.606-1.142-2.04-.124-.07-.268-.03-.35.084-.062.103-.04.257.082.33.566.34.916.956.916 1.625 0 1.04-.834 1.904-1.935 1.955v-4.137c0-.134-.09-.247-.225-.247h-.04c-1.32.103-2.348 1.132-2.348 2.43 0 1.357 1.132 2.448 2.532 2.448 1.378 0 2.51-1.09 2.51-2.45zm-4.55 0c0-.927.69-1.73 1.637-1.895v3.82c-.957-.187-1.636-.98-1.636-1.926zm4.303-3.963c.144 0 .247-.113.247-.258 0-.123-.103-.236-.247-.236H6.04c-.02 0-.04 0-.082-.02-.206-.072-.72-.267-1.173-.607-.453-.35-.824-.803-.824-1.46 0-.135-.112-.248-.246-.248-.144 0-.247.113-.247.247 0 .967.638 1.636 1.235 2.017.042.03.083.05.124.07H3.714c-.144 0-.247.114-.247.237 0 .145.103.258.247.258h4.54zm0-7.72c.134 0 .247-.112.247-.246 0-.145-.113-.258-.247-.258h-1.8l-1.586-1.585 3.54-2.79c.072-.05.093-.112.093-.184 0-.062-.01-.114-.05-.165-.104-.103-.248-.124-.362-.04l-3.58 2.82-2.76-2.76c-.102-.102-.267-.102-.36 0-.092.083-.092.248 0 .35l4.354 4.354H1.574c-.144 0-.258.113-.258.257 0 .133.114.246.258.246h6.68zm0-7.254c.134 0 .247-.113.247-.246 0-.145-.113-.258-.247-.258h-4.55c-.143 0-.246.113-.246.258 0 .133.103.247.247.247h4.55zm-5.96 0c.145 0 .27-.113.27-.246 0-.145-.125-.258-.27-.258h-.236c-.133 0-.247.113-.247.258 0 .133.114.247.247.247h.237zm1.164-4.394v.648H1.584c-.123 0-.247.134-.247.268 0 .123.124.247.247.247h1.873v.627c0 .247.124.247.247.247.124 0 .247 0 .247-.247v-.628h3.675c.505 0 .875-.382.875-.886 0-.124-.123-.257-.247-.257-.123 0-.257.133-.257.257 0 .123-.124.37-.37.37H3.95v-.648c0-.123-.122-.247-.246-.247-.123 0-.247.123-.247.246zm18.796 40.477c.134 0 .247-.113.247-.247s-.113-.247-.247-.247H15.8v-2.173c0-.134-.113-.247-.257-.247-.134 0-.247.113-.247.247v4.837c0 .134.113.247.247.247.144 0 .257-.112.257-.246v-2.17h6.453zm.247-5.393c0-.854-.453-1.606-1.142-2.038-.124-.072-.268-.03-.35.083-.062.102-.04.257.082.33.566.34.916.956.916 1.625 0 1.04-.834 1.904-1.935 1.955v-4.137c0-.134-.09-.247-.225-.247h-.04c-1.32.104-2.348 1.133-2.348 2.43 0 1.358 1.132 2.45 2.532 2.45 1.378 0 2.51-1.092 2.51-2.45zm-4.55 0c0-.926.69-1.73 1.637-1.894v3.82c-.957-.187-1.636-.98-1.636-1.926zm3.83-3.86c.33-.41.71-1.05.72-1.862 0-.494-.144-.906-.4-1.256-.26-.34-.598-.576-1.02-.576-.422 0-.813.237-1.03.566-.195.35-.34.74-.41 1.225v.02c-.073.463-.197.803-.35 1.03-.155.195-.3.288-.505.288-.206 0-.412-.114-.577-.32-.175-.216-.288-.545-.288-.957 0-.494.258-.864.505-1.235.072-.113.04-.267-.073-.34-.113-.07-.267-.04-.35.073-.246.39-.545.854-.545 1.502 0 .515.134.937.34 1.235.236.32.586.546.988.546.39 0 .72-.228.905-.547.206-.288.31-.69.39-1.142l.012-.02c.082-.494.206-.854.37-1.07.216-.257.38-.35.618-.36.226 0 .453.134.617.38.186.227.31.567.31.958 0 .638-.33 1.194-.588 1.544-.093.113-.073.267.03.35.103.082.237.072.33-.03zm-4.323-7.05v.65h-1.873c-.123 0-.247.133-.247.267 0 .123.124.247.247.247h1.873v.628c0 .247.124.247.247.247.124 0 .247 0 .247-.248v-.628h3.675c.505 0 .875-.38.875-.885 0-.125-.123-.26-.247-.26-.123 0-.257.135-.257.26 0 .122-.124.37-.37.37H17.95v-.65c0-.123-.122-.246-.246-.246-.123 0-.247.123-.247.247zm4.796-2.613c.134 0 .247-.113.247-.247 0-.144-.113-.257-.247-.257h-4.55c-.143 0-.246.113-.246.257 0 .134.103.247.247.247h4.55zm-5.96 0c.145 0 .27-.113.27-.247 0-.144-.125-.257-.27-.257h-.236c-.133 0-.247.113-.247.257 0 .134.114.247.247.247h.237zm5.96-6.484c.144 0 .247-.113.247-.247s-.103-.247-.247-.247h-2.738c-1.12 0-2.048.915-2.048 2.047 0 .628.29 1.194.73 1.565h-.483c-.133 0-.247.102-.247.236 0 .144.114.247.247.247h4.6s.01-.01.02-.01c.012 0 .022 0 .032-.01.062-.03.113-.093.134-.165v-.062c0-.072-.03-.144-.093-.185-.03-.03-.072-.04-.113-.05H19.514c-.853-.022-1.553-.712-1.553-1.566 0-.864.7-1.554 1.555-1.554h2.738zm-4.55-7.11c-.133 0-.246.112-.246.235 0 .144.113.258.247.258h.74c-.596.422-.987 1.11-.987 1.883 0 1.316 1.142 2.366 2.5 2.366 1.39 0 2.512-1.05 2.512-2.367 0-.773-.382-1.462-.99-1.884h.62c1.038 0 1.872.833 1.872 1.883 0 .308-.062.565-.186.822-.072.124-.02.268.114.33.113.06.257 0 .33-.103.143-.33.236-.68.236-1.05 0-1.318-1.06-2.378-2.367-2.378h-4.396zm4.282 2.376c0 1.028-.895 1.872-2.027 1.872-1.122 0-2.007-.844-2.007-1.873 0-1.04.886-1.884 2.008-1.884 1.132 0 2.027.844 2.027 1.883z" fill="#000"/>
        </g>
        <g transform="rotate(90 28.863 156.09)">
            <circle stroke="#008CDC" stroke-width="4" fill="#FFF" cx="12.5" cy="75" r="6"/>
            <path d="M8.907 30.04c.103-.042.165-.145.165-.238 0-.03-.01-.05-.01-.093-.052-.124-.206-.186-.33-.134l-6.68 2.5c-.09.03-.153.134-.153.248 0 .102.06.205.153.247l6.68 2.5c.123.053.277-.02.33-.143 0-.03.01-.072.01-.092 0-.103-.063-.196-.166-.237L7.21 33.96v-3.283l1.697-.638zm-6.072 2.273l3.87-1.45v2.912l-3.87-1.462zm4.18-4.024c1.13 0 2.057-.906 2.057-2.038 0-1.153-.926-2.07-2.058-2.07H4.266c-.144 0-.247.114-.247.258 0 .124.102.247.246.247h2.748c.864 0 1.554.7 1.564 1.565-.01.854-.7 1.543-1.564 1.543H4.266c-.144 0-.247.113-.247.247s.102.247.246.247h2.748zm-2.74-10.817c-.133 0-.246.113-.246.237 0 .144.112.257.246.257h.74c-.596.422-.987 1.11-.987 1.883 0 1.317 1.14 2.367 2.5 2.367 1.39 0 2.51-1.05 2.51-2.367 0-.772-.38-1.46-.987-1.883h.618c1.04 0 1.874.833 1.874 1.883 0 .31-.062.566-.186.823-.072.124-.02.268.114.33.113.062.257 0 .33-.103.143-.33.236-.68.236-1.05 0-1.317-1.06-2.377-2.367-2.377H4.277zm4.282 2.377c0 1.03-.895 1.873-2.027 1.873-1.122 0-2.007-.844-2.007-1.873 0-1.04.885-1.883 2.007-1.883 1.132 0 2.027.844 2.027 1.883zm-1.543-4.662c1.132 0 2.058-.906 2.058-2.038 0-1.152-.926-2.068-2.058-2.068H4.266c-.144 0-.247.113-.247.257 0 .123.102.246.246.246h2.748c.864 0 1.554.7 1.564 1.564-.01.855-.7 1.544-1.564 1.544H4.266c-.144 0-.247.113-.247.247 0 .135.102.248.246.248h2.748zm1.338-6.093c.33-.41.71-1.05.72-1.862 0-.494-.144-.906-.4-1.256-.26-.34-.598-.576-1.02-.576-.422 0-.813.238-1.03.567-.195.35-.34.74-.41 1.225v.02c-.073.463-.197.803-.35 1.03-.155.195-.3.287-.505.287-.206 0-.412-.114-.577-.32-.175-.216-.288-.545-.288-.957 0-.494.258-.864.505-1.235.072-.113.04-.267-.073-.34-.113-.07-.267-.04-.35.073-.246.392-.545.855-.545 1.503 0 .515.133.937.34 1.235.235.32.585.546.987.546.39 0 .72-.227.905-.546.206-.288.31-.69.39-1.142l.012-.02c.082-.495.206-.855.37-1.07.216-.258.38-.35.618-.36.226 0 .453.133.617.38.185.226.308.566.308.957 0 .638-.33 1.194-.587 1.543-.09.114-.07.268.032.35.103.083.237.072.33-.03zM4.03 2.045v.65H2.155c-.123 0-.247.133-.247.267 0 .123.123.247.246.247H4.03v.626c0 .247.123.247.246.247.124 0 .247 0 .247-.247V3.21h3.674c.505 0 .875-.382.875-.886 0-.124-.123-.258-.247-.258-.123 0-.257.134-.257.258 0 .123-.124.37-.37.37H4.522v-.648c0-.124-.123-.247-.247-.247-.123 0-.247.122-.247.246zM23 29c.05-.042.072-.114.072-.186V24.76c0-.135-.113-.248-.247-.248-.144 0-.257.113-.257.247v3.406l-2.604-2.882c-.473-.514-1.112-.772-1.75-.772-.555 0-1.12.196-1.574.618-.525.463-.772 1.1-.772 1.73 0 .565.206 1.14.607 1.594l.33.35c.082.103.246.113.35.01.102-.082.113-.247.01-.35l-.32-.35c-.318-.36-.473-.802-.473-1.255 0-.506.206-1.01.607-1.37.35-.32.792-.484 1.234-.484.515 0 1.01.216 1.38.618l3.035 3.365c.102.102.257.102.37.01zm-1.02-6.886c.65-.442 1.092-1.07 1.092-1.8s-.443-1.36-1.09-1.802c-.66-.432-1.545-.7-2.512-.7-.967 0-1.853.268-2.52.7-.64.443-1.082 1.07-1.082 1.8 0 .732.442 1.36 1.08 1.802.67.443 1.555.69 2.522.69.967 0 1.852-.247 2.51-.69zm-4.743-.422c-.566-.37-.865-.864-.865-1.38 0-.513.3-.997.865-1.378.555-.37 1.348-.617 2.233-.617s1.677.247 2.233.617c.546.38.865.865.865 1.38 0 .514-.32 1.008-.865 1.378-.556.37-1.348.608-2.233.608s-1.678-.237-2.233-.608zm5.588-7.214c.134 0 .247-.113.247-.247 0-.143-.113-.246-.247-.246h-6.617c-.062-.01-.124 0-.186.03-.113.063-.154.227-.092.34l.844 1.39c.06.123.205.164.34.092.07-.04.123-.123.123-.216 0-.04-.02-.092-.04-.123l-.598-1.02h6.225zm.247-4.158c0-.617-.247-1.255-.71-1.73-.474-.483-1.112-.71-1.73-.71-.637 0-1.255.227-1.728.71-.484.475-.71 1.092-.71 1.72 0 .432.113.854.33 1.225l-2.142-.258v-3.14c0-.143-.102-.256-.257-.256-.144 0-.257.114-.257.258v3.355c0 .062.02.124.062.165.04.062.103.103.185.103l2.902.35c.02 0 .04.01.052.01.03 0 .06 0 .08-.01.01 0 .02 0 .032-.01h.01c.03-.01.062-.03.082-.06.103-.094.103-.258 0-.36-.38-.382-.566-.866-.566-1.37 0-.494.186-.988.556-1.36.37-.37.865-.554 1.37-.554.493 0 .977.185 1.357.566.382.38.567.864.567 1.358 0 .494-.185.978-.555 1.36-.103.102-.103.266 0 .37.092.102.257.102.36 0 .473-.474.71-1.102.71-1.73zM9.253 145.224c.134 0 .247-.113.247-.247 0-.144-.113-.257-.247-.257H6.155v-3.026c0-.144-.113-.257-.247-.257-.144 0-.257.113-.257.257v3.026H2.8v-3.458c0-.134-.113-.247-.257-.247-.134 0-.247.113-.247.247v3.724c.01.135.113.238.247.238h6.71zm0-6.123c.134 0 .247-.113.247-.246 0-.144-.113-.258-.247-.258h-4.55c-.143 0-.246.114-.246.258 0 .133.103.247.247.247h4.55zm-5.96 0c.145 0 .27-.113.27-.246 0-.144-.125-.258-.27-.258h-.236c-.133 0-.247.114-.247.258 0 .133.114.247.247.247h.237zm6.207-4.97c0-.854-.453-1.606-1.142-2.038-.124-.072-.268-.03-.35.082-.062.103-.04.258.082.33.566.34.916.957.916 1.626 0 1.04-.834 1.904-1.935 1.955v-4.137c0-.134-.09-.247-.225-.247h-.04c-1.32.104-2.348 1.133-2.348 2.43 0 1.358 1.132 2.45 2.532 2.45 1.378 0 2.51-1.092 2.51-2.45zm-4.55 0c0-.926.69-1.73 1.637-1.894v3.818c-.957-.185-1.636-.977-1.636-1.924zm4.303-4.25c.134 0 .247-.114.247-.248 0-.144-.113-.257-.247-.257h-6.71c-.134 0-.247.113-.247.257 0 .134.113.247.247.247h6.71zm0-6.525c.134 0 .247-.114.247-.258 0-.134-.113-.247-.247-.247H2.542c-.134 0-.247.113-.247.247 0 .144.113.258.247.258h2.902c-.597.442-.988 1.142-.988 1.934 0 1.358 1.132 2.438 2.532 2.438 1.378 0 2.51-1.08 2.51-2.44 0-.79-.38-1.49-.978-1.933h.73zm-.257 1.934c0 1.06-.896 1.934-2.007 1.934-1.123 0-2.03-.875-2.03-1.935 0-1.04.866-1.894 1.947-1.935h.164c1.072.04 1.926.895 1.926 1.934zm14.257 33.684c.134 0 .247-.114.247-.247 0-.144-.113-.258-.247-.258h-6.71c-.134 0-.247.113-.247.257 0 .133.113.247.247.247h6.71zm0-6.556c.144 0 .247-.113.247-.247 0-.133-.103-.246-.247-.246h-2.738c-1.12 0-2.048.916-2.048 2.048 0 .628.29 1.194.73 1.564h-.483c-.133 0-.247.103-.247.237 0 .144.114.247.247.247h4.6s.01-.01.02-.01c.012 0 .022 0 .032-.01.062-.03.113-.093.134-.165v-.062c0-.072-.03-.144-.093-.185-.03-.03-.072-.04-.113-.052H20.514c-.853-.02-1.553-.71-1.553-1.564 0-.865.7-1.554 1.555-1.554h2.738zm-4.796-4.22v.65h-1.873c-.123 0-.247.133-.247.266 0 .124.124.247.247.247h1.873v.63c0 .246.124.246.247.246.124 0 .247 0 .247-.247v-.63h3.675c.505 0 .875-.38.875-.884 0-.123-.123-.257-.247-.257-.123 0-.257.133-.257.256 0 .124-.124.37-.37.37H18.95v-.648c0-.123-.122-.247-.246-.247-.123 0-.247.125-.247.248zm5.043-4.28c0-.855-.453-1.606-1.142-2.04-.124-.07-.268-.03-.35.084-.062.103-.04.257.082.33.566.34.916.956.916 1.625 0 1.04-.834 1.904-1.935 1.956v-4.138c0-.133-.09-.247-.225-.247h-.04c-1.32.103-2.348 1.132-2.348 2.43 0 1.358 1.132 2.45 2.532 2.45 1.378 0 2.51-1.092 2.51-2.45zm-4.55 0c0-.927.69-1.73 1.637-1.895v3.82c-.957-.187-1.636-.98-1.636-1.926zm4.303-3.963c.144 0 .247-.113.247-.257 0-.124-.103-.237-.247-.237H21.04c-.02 0-.04 0-.082-.02-.206-.072-.72-.267-1.173-.607-.453-.35-.824-.803-.824-1.46 0-.135-.112-.248-.246-.248-.144 0-.247.113-.247.247 0 .967.638 1.636 1.235 2.017.042.03.083.05.124.07h-1.112c-.144 0-.247.114-.247.238 0 .144.103.257.247.257h4.54zm.226-6.185c.01-.01.01-.01.01-.02.01-.032.01-.052.01-.083 0-.052-.02-.124-.072-.165-.04-.03-.082-.05-.124-.062l-4.466-1.883c-.124-.052-.268 0-.32.123-.05.124.01.278.135.32l3.972 1.677-3.972 1.678c-.124.04-.186.195-.134.32.05.112.194.174.318.122l4.508-1.894c.05-.02.082-.05.113-.082.01-.02.02-.03.02-.05zm-.227-4.333c.134 0 .247-.113.247-.247 0-.144-.113-.257-.247-.257h-4.55c-.143 0-.246.113-.246.257 0 .134.103.247.247.247h4.55zm-5.96 0c.145 0 .27-.113.27-.247 0-.144-.125-.257-.27-.257h-.236c-.133 0-.247.113-.247.257 0 .134.114.247.247.247h.237zm6.207-4.97c0-.855-.453-1.606-1.142-2.04-.124-.07-.268-.03-.35.084-.062.104-.04.258.082.33.566.34.916.957.916 1.626 0 1.04-.834 1.904-1.935 1.955v-4.136c0-.134-.09-.247-.225-.247h-.04c-1.32.103-2.348 1.132-2.348 2.43 0 1.358 1.132 2.448 2.532 2.448 1.378 0 2.51-1.09 2.51-2.45zm-4.55 0c0-.927.69-1.73 1.637-1.895v3.82c-.957-.187-1.636-.98-1.636-1.926zm4.53-5.65c.01-.032.02-.063.02-.094 0-.082-.062-.185-.154-.216-.01 0-.02-.01-.02-.01l-2.78-1.163 2.79-1.173.01-.01c.082-.02.144-.113.154-.195v-.052c0-.04-.02-.082-.05-.123-.032-.04-.073-.072-.125-.093l-4.487-1.883c-.124-.05-.268.01-.32.134-.05.113.01.267.135.32l3.972 1.666-2.768 1.163c-.093.04-.155.144-.155.247 0 .093.062.196.155.237l2.768 1.164-3.972 1.677c-.124.042-.186.197-.134.32.05.113.194.175.318.124l4.508-1.894c.05-.02.092-.05.113-.103.01-.01.02-.02.02-.04zm-.7-6.66c.33-.41.71-1.05.72-1.862 0-.494-.144-.906-.4-1.256-.26-.34-.598-.577-1.02-.577-.422 0-.813.236-1.03.566-.195.35-.34.74-.41 1.223v.02c-.073.464-.197.804-.35 1.03-.155.196-.3.288-.505.288-.206 0-.412-.112-.577-.318-.175-.216-.288-.545-.288-.957 0-.494.258-.864.505-1.235.072-.113.04-.267-.073-.34-.113-.072-.267-.04-.35.073-.246.39-.545.854-.545 1.502 0 .515.134.937.34 1.235.236.32.586.546.988.546.39 0 .72-.227.905-.546.206-.288.31-.69.39-1.142l.012-.02c.082-.495.206-.855.37-1.07.216-.258.38-.35.618-.36.226 0 .453.132.617.38.186.226.31.565.31.957 0 .638-.33 1.193-.588 1.543-.093.113-.073.268.03.35.103.083.237.072.33-.03z" fill="#000"/>
        </g>
        <g transform="rotate(90 51.363 128.59)">
            <circle stroke="#008CDC" stroke-width="4" fill="#FFF" cx="12.5" cy="70" r="5.75"/>
            <path d="M7.384 25.476c.978-.31 1.688-1.245 1.688-2.326 0-1.348-1.08-2.44-2.44-2.44H2.116c-.134 0-.247.114-.247.248s.113.247.247.247h4.518c1.07 0 1.935.875 1.935 1.945.01.865-.556 1.596-1.348 1.853-.124.03-.196.175-.155.31.04.132.185.204.32.163zm-.37-6.494c1.132 0 2.058-.905 2.058-2.038 0-1.152-.926-2.068-2.058-2.068H4.266c-.144 0-.247.113-.247.257 0 .124.102.247.246.247h2.748c.864 0 1.554.7 1.564 1.564-.01.855-.7 1.544-1.564 1.544H4.266c-.144 0-.247.113-.247.247s.102.247.246.247h2.748zm1.81-9.766c.145 0 .248-.114.248-.247 0-.135-.103-.248-.247-.248H6.087c-1.12 0-2.048.915-2.048 2.048 0 .627.288 1.193.73 1.564h-.484c-.133 0-.247.103-.247.237 0 .145.113.248.246.248h4.6s.01-.01.02-.01c.012 0 .022 0 .032-.01.062-.032.113-.094.134-.166v-.06c0-.073-.03-.146-.093-.187-.03-.03-.073-.04-.114-.05H6.086c-.853-.022-1.553-.71-1.553-1.565 0-.865.7-1.554 1.554-1.554h2.738zm.248-4.796c0-.855-.453-1.606-1.142-2.038-.124-.072-.268-.03-.35.082-.062.103-.04.258.082.33.566.34.916.957.916 1.626 0 1.04-.834 1.904-1.935 1.955V2.238c0-.134-.092-.247-.226-.247h-.04c-1.32.104-2.348 1.133-2.348 2.43 0 1.358 1.13 2.45 2.53 2.45 1.38 0 2.512-1.092 2.512-2.45zm-4.55 0c0-.927.69-1.73 1.637-1.894v3.818C5.2 6.16 4.522 5.366 4.522 4.42zM23 24.53c.05-.042.072-.114.072-.186V20.29c0-.135-.113-.248-.247-.248-.144 0-.257.113-.257.247v3.406l-2.604-2.882c-.473-.514-1.112-.772-1.75-.772-.555 0-1.12.196-1.574.618-.525.463-.772 1.1-.772 1.73 0 .565.206 1.14.607 1.594l.33.35c.082.103.246.113.35.01.102-.082.113-.247.01-.35l-.32-.35c-.318-.36-.473-.802-.473-1.255 0-.506.206-1.01.607-1.37.35-.32.792-.484 1.234-.484.515 0 1.01.216 1.38.618l3.035 3.365c.102.102.257.102.37.01zm-1.02-6.886c.65-.442 1.092-1.07 1.092-1.8s-.443-1.36-1.09-1.802c-.66-.432-1.545-.7-2.512-.7-.967 0-1.853.268-2.52.7-.64.443-1.082 1.07-1.082 1.8 0 .732.442 1.36 1.08 1.802.67.443 1.555.69 2.522.69.967 0 1.852-.247 2.51-.69zm-4.743-.422c-.566-.37-.865-.864-.865-1.38 0-.513.3-.997.865-1.378.555-.37 1.348-.617 2.233-.617s1.677.247 2.233.617c.546.38.865.865.865 1.38 0 .514-.32 1.008-.865 1.378-.556.37-1.348.608-2.233.608s-1.678-.237-2.233-.608zm5.588-7.214c.134 0 .247-.113.247-.247 0-.143-.113-.246-.247-.246h-6.617c-.062-.01-.124 0-.186.03-.113.063-.154.227-.092.34l.844 1.39c.06.123.205.164.34.092.07-.04.123-.123.123-.216 0-.04-.02-.092-.04-.123l-.598-1.02h6.225zm.247-4.158c0-.617-.247-1.255-.71-1.73-.474-.483-1.112-.71-1.73-.71-.637 0-1.255.227-1.728.71-.484.475-.71 1.092-.71 1.72 0 .432.113.854.33 1.225l-2.142-.258v-3.14c0-.143-.102-.256-.257-.256-.144 0-.257.114-.257.258v3.355c0 .062.02.124.062.165.04.062.103.103.185.103l2.902.35c.02 0 .04.01.052.01.03 0 .06 0 .08-.01.01 0 .02 0 .032-.01h.01c.03-.01.062-.03.082-.06.103-.094.103-.258 0-.36-.38-.382-.566-.866-.566-1.37 0-.494.186-.988.556-1.36.37-.37.865-.554 1.37-.554.493 0 .977.185 1.357.566.382.38.567.864.567 1.358 0 .494-.185.978-.555 1.36-.103.102-.103.266 0 .37.092.102.257.102.36 0 .473-.474.71-1.102.71-1.73zM5.867 157.258c2.007 0 3.633-1.678 3.633-3.747 0-.884-.298-1.697-.782-2.324-.082-.114-.268-.134-.36-.03-.124.07-.144.235-.062.36.453.534.7 1.234.7 1.995 0 1.803-1.41 3.243-3.13 3.243-1.76 0-3.17-1.44-3.17-3.242 0-.76.27-1.46.7-2.016.083-.103.073-.267-.05-.35-.093-.092-.268-.072-.36.042-.484.627-.793 1.44-.793 2.325.01 2.07 1.626 3.748 3.674 3.748zm1.112-7.8c1.367 0 2.52-1.072 2.52-2.39 0-1.327-1.153-2.387-2.52-2.387-1.37 0-2.523 1.06-2.523 2.39 0 1.316 1.153 2.387 2.522 2.387zm0-.495c-1.123 0-2.04-.865-2.04-1.894 0-1.03.917-1.895 2.04-1.895 1.12 0 2.026.865 2.026 1.894 0 1.028-.906 1.893-2.027 1.893zm2.273-9.777c.144 0 .247-.114.247-.247 0-.135-.103-.248-.247-.248H6.515c-1.12 0-2.048.916-2.048 2.048 0 .627.29 1.193.73 1.564h-.483c-.133 0-.247.103-.247.237 0 .145.114.248.247.248h4.6s.01-.01.02-.01c.012 0 .022 0 .032-.01.062-.032.113-.094.134-.166v-.06c0-.073-.03-.145-.093-.187-.03-.03-.072-.04-.113-.05H6.514c-.853-.022-1.553-.71-1.553-1.565 0-.865.7-1.554 1.555-1.554h2.738zm.247-4.94c0-.597-.206-1.163-.535-1.585-.093-.123-.247-.143-.36-.05-.093.082-.124.226-.042.34.278.36.443.812.443 1.296 0 1.173-.906 2.1-2.038 2.1-1.11 0-2.027-.927-2.027-2.1 0-.484.165-.937.454-1.297.082-.114.05-.258-.042-.34-.113-.093-.267-.073-.34.03-.35.443-.555 1.01-.555 1.606 0 1.44 1.112 2.593 2.51 2.593 1.422 0 2.533-1.154 2.533-2.594zm0-5.578c0-.855-.453-1.606-1.142-2.038-.124-.072-.268-.03-.35.082-.062.103-.04.258.082.33.566.34.916.957.916 1.626 0 1.04-.834 1.904-1.935 1.955v-4.137c0-.134-.09-.247-.225-.247h-.04c-1.32.102-2.348 1.13-2.348 2.428 0 1.358 1.132 2.45 2.532 2.45 1.378 0 2.51-1.092 2.51-2.45zm-4.55 0c0-.927.69-1.73 1.637-1.894v3.818c-.957-.185-1.636-.978-1.636-1.924zm6.413-4.18c.134 0 .247-.112.247-.246 0-.144-.113-.257-.247-.257H8.48c.598-.432.99-1.132.99-1.914 0-1.358-1.143-2.438-2.512-2.438-1.38 0-2.5 1.08-2.5 2.44 0 .78.39 1.48.977 1.913h-.73c-.135 0-.248.113-.248.257 0 .134.113.247.247.247h6.66zm-4.487-.503c-1.07-.04-1.915-.895-1.915-1.914 0-1.07.886-1.934 1.998-1.934 1.11 0 2.007.864 2.017 1.935-.01 1.04-.906 1.915-2.017 1.915h-.082zm-2.42-7.8v.647H2.585c-.123 0-.247.134-.247.268 0 .123.124.247.247.247h1.873v.628c0 .247.124.247.247.247.124 0 .247 0 .247-.247v-.628h3.675c.505 0 .875-.38.875-.885 0-.124-.123-.257-.247-.257-.123 0-.257.133-.257.257 0 .123-.124.37-.37.37H4.95v-.648c0-.124-.122-.247-.246-.247-.123 0-.247.123-.247.247zm2.986-2.502c1.132 0 2.058-.906 2.058-2.038 0-1.152-.926-2.068-2.058-2.068H4.694c-.144 0-.247.113-.247.257 0 .124.103.247.247.247h2.748c.864 0 1.554.7 1.564 1.565-.01.855-.7 1.544-1.564 1.544H4.694c-.144 0-.247.112-.247.246s.103.247.247.247h2.748zM4.457 103.29c0 .132.103.246.247.246h.74c-.596.432-.987 1.12-.987 1.893 0 1.327 1.142 2.387 2.522 2.387 1.378 0 2.52-1.06 2.52-2.388 0-.773-.4-1.462-.998-1.894h.75c.135 0 .248-.114.248-.247 0-.135-.113-.248-.247-.248h-4.55c-.143 0-.246.113-.246.247zm4.55 2.14c0 1.028-.896 1.893-2.028 1.893-1.134 0-2.04-.865-2.04-1.894 0-1.04.906-1.894 2.04-1.894 1.13 0 2.026.854 2.026 1.893zm-2.883-4.447V98.79c0-.102-.082-.194-.205-.194-.115 0-.187.092-.187.195v2.193c0 .113.072.196.186.196.122 0 .204-.084.204-.197zm17.13 44.14c.133 0 .246-.112.246-.246 0-.144-.113-.257-.247-.257h-6.71c-.134 0-.247.113-.247.257 0 .134.113.247.247.247h6.71zm0-2.5c.133 0 .246-.113.246-.247 0-.144-.113-.257-.247-.257h-4.55c-.143 0-.246.112-.246.256 0 .134.103.247.247.247h4.55zm-5.96 0c.144 0 .268-.113.268-.247 0-.144-.124-.257-.268-.257h-.237c-.133 0-.247.112-.247.256 0 .134.114.247.247.247h.237zm5.486-2.563c.33-.41.71-1.05.72-1.862 0-.494-.144-.906-.4-1.256-.26-.34-.598-.576-1.02-.576-.422 0-.813.236-1.03.566-.195.35-.34.74-.41 1.224v.02c-.073.464-.197.804-.35 1.03-.155.196-.3.288-.505.288-.206 0-.412-.113-.577-.32-.175-.215-.288-.544-.288-.956 0-.494.258-.864.505-1.235.072-.113.04-.267-.073-.34-.113-.07-.267-.04-.35.073-.246.39-.545.854-.545 1.502 0 .515.134.937.34 1.235.236.32.586.546.988.546.39 0 .72-.228.905-.547.206-.288.31-.69.39-1.142l.012-.02c.082-.494.206-.854.37-1.07.216-.257.38-.35.618-.36.226 0 .453.134.617.38.186.227.31.567.31.958 0 .638-.33 1.193-.588 1.543-.093.115-.073.27.03.35.103.084.237.073.33-.03zm-4.323-9.365c0 .134.103.247.247.247h.74c-.596.432-.987 1.122-.987 1.894 0 1.327 1.142 2.387 2.522 2.387 1.378 0 2.52-1.06 2.52-2.387 0-.772-.4-1.462-.998-1.894h.75c.135 0 .248-.113.248-.247s-.113-.247-.247-.247h-4.55c-.143 0-.246.113-.246.247zm4.55 2.14c0 1.03-.896 1.894-2.028 1.894-1.134 0-2.04-.865-2.04-1.894 0-1.04.906-1.894 2.04-1.894 1.13 0 2.026.854 2.026 1.894zm-4.55-6.04v.648h-1.873c-.123 0-.247.134-.247.268 0 .124.124.247.247.247h1.873v.628c0 .247.124.247.247.247.124 0 .247 0 .247-.247v-.628h3.675c.505 0 .875-.38.875-.885 0-.123-.123-.257-.247-.257-.123 0-.257.134-.257.257 0 .124-.124.37-.37.37H18.95v-.647c0-.124-.122-.247-.246-.247-.123 0-.247.123-.247.247zm4.796-2.615c.134 0 .247-.113.247-.247 0-.144-.113-.257-.247-.257h-4.55c-.143 0-.246.113-.246.257 0 .134.103.247.247.247h4.55zm-5.96 0c.145 0 .27-.113.27-.247 0-.144-.125-.257-.27-.257h-.236c-.133 0-.247.113-.247.257 0 .134.114.247.247.247h.237zm3.686-2.644c1.367 0 2.52-1.07 2.52-2.388 0-1.328-1.153-2.388-2.52-2.388-1.37 0-2.523 1.06-2.523 2.388 0 1.317 1.153 2.388 2.522 2.388zm0-.494c-1.123 0-2.04-.865-2.04-1.894 0-1.03.917-1.894 2.04-1.894 1.12 0 2.026.865 2.026 1.894 0 1.03-.906 1.894-2.027 1.894zm2.273-9.777c.144 0 .247-.114.247-.247 0-.134-.103-.247-.247-.247h-2.738c-1.12 0-2.048.917-2.048 2.05 0 .626.29 1.192.73 1.563h-.483c-.133 0-.247.103-.247.237 0 .144.114.247.247.247h4.6s.01-.01.02-.01c.012 0 .022 0 .032-.01.062-.032.113-.094.134-.166v-.06c0-.072-.03-.144-.093-.186-.03-.03-.072-.04-.113-.05H20.514c-.853-.022-1.553-.71-1.553-1.565 0-.866.7-1.555 1.555-1.555h2.738z" fill="#000"/>
        </g>
        <g fill="#000">
            <path d="M160.354 36.635c.042.103.145.165.237.165.032 0 .053-.01.094-.01.123-.052.185-.206.134-.33l-2.5-6.68c-.032-.09-.135-.153-.248-.153-.103 0-.206.062-.247.154l-2.5 6.68c-.053.124.02.278.143.33.03 0 .072.01.093.01.102 0 .194-.062.235-.165l.638-1.698h3.283l.638 1.698zm-2.274-6.072l1.45 3.87h-2.91l1.46-3.87zm4.23 8.1c0 .134.113.247.247.247.144 0 .257-.113.257-.247V35.78c.432.598 1.132.99 1.914.99 1.36 0 2.44-1.143 2.44-2.512 0-1.38-1.08-2.5-2.44-2.5-.782 0-1.482.39-1.914.977v-.73c0-.135-.113-.248-.257-.248-.134 0-.247.113-.247.247v6.66zm.504-4.487c.04-1.07.896-1.915 1.914-1.915 1.07 0 1.935.886 1.935 1.998 0 1.11-.864 2.007-1.935 2.017-1.04-.01-1.914-.906-1.914-2.017v-.082zm6.288 2.377c0 .144.114.247.258.247.123 0 .236-.103.236-.247V34.34c0-.02 0-.04.02-.082.073-.206.268-.72.608-1.173.35-.453.803-.824 1.46-.824.135 0 .248-.112.248-.246 0-.144-.113-.247-.247-.247-.967 0-1.636.638-2.017 1.235-.03.042-.05.083-.072.124v-1.112c0-.144-.113-.247-.236-.247-.144 0-.258.103-.258.247v4.54zm4.53 0c0 .134.112.247.246.247.144 0 .257-.113.257-.247v-4.55c0-.143-.113-.246-.257-.246-.134 0-.247.103-.247.247v4.55zm0-5.96c0 .145.112.27.246.27.144 0 .257-.125.257-.27v-.236c0-.133-.113-.247-.257-.247-.134 0-.247.114-.247.247v.237zm2.736 5.96c0 .134.113.247.247.247.144 0 .257-.113.257-.247v-6.71c0-.134-.113-.247-.257-.247-.134 0-.247.113-.247.247v6.71zm-21.02 14.175c.04.05.113.072.185.072h4.055c.134 0 .247-.113.247-.247 0-.144-.113-.257-.247-.257h-3.407l2.883-2.604c.514-.473.772-1.112.772-1.75 0-.555-.196-1.12-.618-1.574-.463-.525-1.1-.772-1.73-.772-.565 0-1.14.206-1.594.607l-.35.33c-.103.082-.113.246-.01.35.082.102.247.113.35.01l.35-.32c.36-.318.802-.473 1.255-.473.505 0 1.01.206 1.37.607.318.35.483.793.483 1.235 0 .515-.215 1.01-.617 1.38l-3.365 3.035c-.103.103-.103.258-.01.37zm6.885-1.02c.442.65 1.07 1.092 1.8 1.092s1.36-.443 1.802-1.09c.432-.66.7-1.545.7-2.512 0-.967-.268-1.853-.7-2.52-.443-.64-1.07-1.082-1.8-1.082-.732 0-1.36.442-1.802 1.08-.443.67-.69 1.555-.69 2.522 0 .967.247 1.852.69 2.51zm.422-4.743c.37-.566.864-.865 1.38-.865.513 0 .997.3 1.378.865.37.555.617 1.348.617 2.233s-.247 1.677-.617 2.233c-.38.547-.865.866-1.38.866-.514 0-1.008-.32-1.378-.865-.37-.555-.608-1.347-.608-2.232 0-.885.237-1.678.608-2.233zm7.214 5.588c0 .134.112.247.246.247.144 0 .247-.113.247-.247v-6.617c.01-.062 0-.124-.03-.186-.063-.113-.227-.154-.34-.092l-1.39.844c-.123.06-.164.205-.092.34.042.07.124.123.217.123.04 0 .092-.02.123-.04l1.02-.598v6.226zm4.157.247c.617 0 1.255-.247 1.73-.71.483-.474.71-1.112.71-1.73 0-.637-.227-1.255-.71-1.728-.475-.484-1.092-.71-1.72-.71-.432 0-.854.113-1.225.33l.258-2.142h3.14c.143 0 .256-.102.256-.257 0-.144-.113-.257-.257-.257h-3.356c-.062 0-.124.02-.165.062-.063.04-.104.103-.104.185l-.35 2.902c0 .02-.01.04-.01.052 0 .03 0 .06.01.082 0 .01 0 .02.01.03v.01c.01.03.03.062.062.082.093.103.257.103.36 0 .38-.38.865-.566 1.37-.566.493 0 .987.186 1.358.556.37.37.555.865.555 1.37 0 .493-.184.977-.565 1.357-.38.38-.864.565-1.358.565-.494 0-.978-.185-1.36-.555-.102-.103-.266-.103-.37 0-.102.092-.102.257 0 .36.474.473 1.102.71 1.73.71zM40.396 43.48c0 .135.103.248.237.248H42.7c1.133 0 2.06-.916 2.06-2.058 0-.906-.597-1.668-1.41-1.945.41-.33.69-.834.69-1.4 0-.998-.804-1.8-1.792-1.8h-1.604c-.135 0-.248.112-.248.246v6.71zm.504-.256v-3.108h1.8c.855 0 1.545.7 1.555 1.554-.01.864-.7 1.554-1.554 1.554h-1.8zm0-3.623V37.03h1.348c.71 0 1.287.577 1.287 1.297 0 .7-.577 1.276-1.287 1.276H40.9zm5.094 3.88c0 .135.114.248.247.248.146 0 .26-.113.26-.247v-4.548c0-.144-.114-.247-.26-.247-.132 0-.246.103-.246.247v4.55zm0-5.958c0 .144.114.268.247.268.146 0 .26-.124.26-.268v-.237c0-.133-.114-.247-.26-.247-.132 0-.246.114-.246.247v.237zm2.882 5.96c0 .143.113.246.257.246.124 0 .237-.103.237-.247V41.27c0-.02 0-.04.02-.082.073-.206.268-.72.608-1.173.35-.453.803-.824 1.46-.824.135 0 .248-.114.248-.248 0-.144-.113-.247-.247-.247-.968 0-1.637.638-2.018 1.235-.03.042-.05.083-.072.124v-1.112c0-.144-.113-.247-.237-.247-.144 0-.257.103-.257.247v4.54zm6.03-4.797h-.647v-1.873c0-.123-.135-.247-.27-.247-.123 0-.246.124-.246.247v1.873h-.628c-.247 0-.247.124-.247.247 0 .124 0 .247.246.247h.628v3.673c0 .505.38.875.885.875.123 0 .256-.123.256-.247 0-.122-.133-.256-.257-.256s-.37-.124-.37-.37v-3.675h.647c.123 0 .247-.124.247-.248 0-.123-.124-.247-.247-.247zm6.104 4.796c0 .135.113.248.247.248.144 0 .257-.113.257-.247v-2.81c0-1.162-.947-1.985-2.11-1.985-.638 0-1.214.288-1.595.74v-2.654c0-.133-.114-.246-.258-.246-.134 0-.247.113-.247.247v6.71c0 .032 0 .052.01.083.01.03.02.052.04.083.053.05.125.082.197.082h.05c.012 0 .022-.01.022-.01.072-.02.123-.062.154-.124.01-.01.01-.02.02-.04 0-.01.01-.022.01-.042v-2.84c0-.886.722-1.483 1.596-1.483.885 0 1.606.596 1.606 1.48v2.81z"/>
        </g>
        <g transform="rotate(90 5.862 183.09)">
            <circle stroke="#008CDC" stroke-width="4" fill="#FFF" cx="12.5" cy="79" r="6.75"/>
            <path d="M5.346 42.363C7.364 42.353 9 40.83 9 38.885c0-1.925-1.636-3.438-3.654-3.448-2.017.01-3.653 1.523-3.653 3.448 0 1.945 1.636 3.468 3.653 3.478zm0-.504c-1.78 0-3.138-1.34-3.138-2.975 0-1.585 1.358-2.923 3.138-2.934 1.76.012 3.15 1.35 3.15 2.935 0 1.636-1.39 2.974-3.15 2.974zM9 31.175c0-.597-.206-1.163-.535-1.585-.093-.122-.247-.143-.36-.05-.093.082-.124.226-.042.34.278.36.443.812.443 1.296 0 1.173-.906 2.1-2.038 2.1-1.11 0-2.027-.927-2.027-2.1 0-.484.165-.936.454-1.297.082-.114.05-.258-.042-.34-.113-.093-.267-.072-.34.03-.35.443-.555 1.01-.555 1.606 0 1.44 1.112 2.594 2.51 2.594C7.89 33.77 9 32.617 9 31.176zM3.957 26.02v.648H2.084c-.123 0-.247.134-.247.268 0 .123.124.247.247.247h1.873v.628c0 .248.124.248.247.248.124 0 .247 0 .247-.247v-.627h3.675c.505 0 .875-.38.875-.885 0-.124-.123-.257-.247-.257-.123 0-.257.134-.257.258 0 .123-.124.37-.37.37H4.45v-.648c0-.123-.122-.247-.246-.247-.123 0-.247.124-.247.247zm2.522-2.213c1.367 0 2.52-1.07 2.52-2.387 0-1.328-1.153-2.388-2.52-2.388-1.37 0-2.523 1.06-2.523 2.388 0 1.317 1.153 2.387 2.522 2.387zm0-.494c-1.123 0-2.04-.864-2.04-1.893 0-1.03.917-1.894 2.04-1.894 1.12 0 2.026.865 2.026 1.894 0 1.03-.906 1.893-2.027 1.893zm2.273-6.175c.134 0 .247-.113.247-.247 0-.143-.113-.256-.247-.256h-.73C8.618 16.192 9 15.492 9 14.7c0-1.36-1.132-2.44-2.51-2.44-1.4 0-2.533 1.08-2.533 2.44 0 .792.39 1.492.988 1.934H2.043c-.134 0-.247.113-.247.257 0 .135.113.248.247.248H8.75zm-2.346-.504c-1.08-.04-1.946-.895-1.946-1.935 0-1.07.907-1.936 2.03-1.936 1.11 0 2.006.865 2.006 1.935 0 1.06-.896 1.934-2.007 1.934h-.083zM9 8.257c0-.854-.453-1.606-1.142-2.038-.124-.073-.268-.032-.35.08-.062.104-.04.26.082.33.566.34.916.958.916 1.627 0 1.04-.834 1.904-1.935 1.955V6.075c0-.134-.09-.247-.225-.247h-.04c-1.32.103-2.348 1.132-2.348 2.43 0 1.357 1.132 2.448 2.532 2.448 1.378 0 2.51-1.09 2.51-2.45zm-4.55 0c0-.926.69-1.73 1.637-1.894v3.818C5.13 9.997 4.45 9.205 4.45 8.258zm4.303-3.962c.144 0 .247-.114.247-.258 0-.123-.103-.236-.247-.236H6.54c-.02 0-.04 0-.082-.02-.206-.072-.72-.268-1.173-.607-.453-.35-.824-.803-.824-1.462 0-.132-.112-.246-.246-.246-.144 0-.247.114-.247.247 0 .97.638 1.638 1.235 2.018.042.03.083.052.124.073H4.214c-.144 0-.247.114-.247.237 0 .144.103.258.247.258h4.54zM22.928 32.88c.05-.042.072-.114.072-.186V28.64c0-.135-.113-.248-.247-.248-.144 0-.257.113-.257.247v3.406l-2.604-2.882c-.473-.514-1.112-.772-1.75-.772-.555 0-1.12.196-1.574.618-.525.463-.772 1.1-.772 1.73 0 .565.206 1.14.607 1.594l.33.35c.082.103.246.113.35.01.102-.082.113-.247.01-.35l-.32-.35c-.318-.36-.473-.802-.473-1.255 0-.506.206-1.01.607-1.37.35-.32.793-.484 1.235-.484.515 0 1.01.216 1.38.618l3.035 3.365c.103.102.258.102.37.01zm-1.02-6.886c.65-.442 1.092-1.07 1.092-1.8s-.443-1.36-1.09-1.802c-.66-.432-1.545-.7-2.512-.7-.967 0-1.853.268-2.52.7-.64.443-1.082 1.07-1.082 1.8 0 .732.442 1.36 1.08 1.802.67.443 1.555.69 2.522.69.967 0 1.852-.247 2.51-.69zm-4.743-.422c-.566-.37-.865-.864-.865-1.38 0-.513.3-.997.865-1.378.555-.37 1.348-.617 2.233-.617s1.677.247 2.233.617c.547.38.866.865.866 1.38 0 .514-.32 1.008-.865 1.378-.555.37-1.347.608-2.232.608-.885 0-1.678-.237-2.233-.608zm5.588-7.214c.134 0 .247-.113.247-.247 0-.143-.113-.246-.247-.246h-6.617c-.062-.01-.124 0-.186.03-.113.063-.154.227-.092.34l.844 1.39c.06.123.205.164.34.092.07-.04.123-.123.123-.216 0-.04-.02-.092-.04-.123l-.598-1.02h6.226zM23 14.2c0-.617-.247-1.255-.71-1.73-.474-.483-1.112-.71-1.73-.71-.637 0-1.255.227-1.728.71-.484.475-.71 1.092-.71 1.72 0 .432.113.854.33 1.225l-2.142-.258v-3.14c0-.143-.102-.256-.257-.256-.144 0-.257.114-.257.258v3.355c0 .062.02.124.062.165.04.062.103.103.185.103l2.902.35c.02 0 .04.01.052.01.03 0 .06 0 .082-.01.01 0 .02 0 .03-.01h.01c.03-.01.062-.03.082-.06.103-.094.103-.258 0-.36-.38-.382-.566-.866-.566-1.37 0-.494.186-.988.556-1.36.37-.37.865-.554 1.37-.554.493 0 .977.185 1.357.566.38.38.565.864.565 1.358 0 .494-.185.978-.555 1.36-.103.102-.103.266 0 .37.092.102.257.102.36 0 .473-.474.71-1.102.71-1.73zM7.97 164.96c.474-.596 1.03-1.553 1.04-2.654 0-.72-.216-1.37-.566-1.852-.35-.484-.864-.813-1.44-.813-.577 0-1.05.32-1.36.793-.318.473-.524 1.11-.658 1.832v.02c-.123.65-.298 1.184-.545 1.544-.246.36-.514.524-.874.534-.37 0-.72-.205-.988-.566-.257-.36-.432-.885-.432-1.47 0-.794.39-1.41.76-1.977.073-.102.043-.246-.06-.308-.114-.072-.247-.04-.32.062-.37.566-.833 1.276-.833 2.223 0 .68.196 1.286.525 1.74.33.452.803.75 1.348.75.535 0 .967-.298 1.256-.74.298-.443.483-1.03.607-1.7v-.02c.133-.7.328-1.276.585-1.667.268-.39.577-.586.988-.586.402 0 .783.216 1.07.617.29.392.474.958.474 1.586.01.937-.494 1.832-.926 2.367-.08.093-.07.237.032.32.092.07.237.06.32-.032zm-4.013-8.51v.65H2.084c-.123 0-.247.132-.247.266 0 .124.124.247.247.247h1.873v.628c0 .248.124.248.247.248.124 0 .247 0 .247-.247v-.627h3.675c.505 0 .875-.38.875-.885 0-.123-.123-.257-.247-.257-.123 0-.257.135-.257.258 0 .124-.124.37-.37.37H4.45v-.648c0-.123-.122-.247-.246-.247-.123 0-.247.124-.247.247zm0-6.278c0 .134.103.247.247.247h.74c-.596.432-.987 1.12-.987 1.893 0 1.328 1.142 2.388 2.522 2.388 1.378 0 2.52-1.06 2.52-2.387 0-.772-.4-1.46-.998-1.894h.75c.135 0 .248-.114.248-.248 0-.133-.113-.247-.247-.247h-4.55c-.143 0-.246.114-.246.247zm4.55 2.14c0 1.03-.896 1.895-2.028 1.895-1.134 0-2.04-.865-2.04-1.894 0-1.04.906-1.894 2.04-1.894 1.13 0 2.026.853 2.026 1.893zm.246-4.527c.144 0 .247-.114.247-.258 0-.123-.103-.236-.247-.236H6.54c-.02 0-.04 0-.082-.02-.206-.072-.72-.268-1.173-.607-.453-.35-.824-.803-.824-1.462 0-.132-.112-.246-.246-.246-.144 0-.247.114-.247.247 0 .97.638 1.638 1.235 2.02.042.03.083.05.124.07H4.214c-.144 0-.247.114-.247.237 0 .144.103.258.247.258h4.54zm-4.796-6.03v.647H2.084c-.123 0-.247.134-.247.268 0 .123.124.247.247.247h1.873v.628c0 .247.124.247.247.247.124 0 .247 0 .247-.247v-.628h3.675c.505 0 .875-.38.875-.885 0-.124-.123-.258-.247-.258-.123 0-.257.134-.257.258 0 .123-.124.37-.37.37H4.45v-.648c0-.124-.122-.247-.246-.247-.123 0-.247.123-.247.247zM9 137.47c0-.854-.453-1.605-1.142-2.037-.124-.072-.268-.03-.35.082-.062.103-.04.257.082.33.566.34.916.957.916 1.625 0 1.04-.834 1.904-1.935 1.956v-4.137c0-.133-.09-.246-.225-.246h-.04c-1.32.103-2.348 1.132-2.348 2.428 0 1.36 1.132 2.45 2.532 2.45 1.378 0 2.51-1.09 2.51-2.45zm-4.55 0c0-.926.69-1.728 1.637-1.893v3.817c-.957-.185-1.636-.978-1.636-1.925zm4.303-3.962c.144 0 .247-.113.247-.257 0-.124-.103-.237-.247-.237H6.54c-.02 0-.04 0-.082-.02-.206-.072-.72-.268-1.173-.608-.453-.35-.824-.802-.824-1.46 0-.135-.112-.248-.246-.248-.144 0-.247.113-.247.247 0 .967.638 1.636 1.235 2.017.042.03.083.052.124.072H4.214c-.144 0-.247.113-.247.237 0 .144.103.257.247.257h4.54zm0-7.718c.134 0 .247-.114.247-.247 0-.145-.113-.258-.247-.258h-1.8l-1.586-1.585 3.54-2.79c.072-.05.093-.112.093-.184 0-.062-.01-.113-.05-.165-.104-.102-.248-.123-.362-.04l-3.58 2.82-2.76-2.76c-.102-.102-.267-.102-.36 0-.092.083-.092.248 0 .35l4.354 4.354H2.074c-.144 0-.258.113-.258.258 0 .133.114.247.258.247h6.68zm0-7.256c.134 0 .247-.113.247-.247 0-.145-.113-.258-.247-.258h-4.55c-.143 0-.246.113-.246.257 0 .133.103.246.247.246h4.55zm-5.96 0c.145 0 .27-.113.27-.247 0-.145-.125-.258-.27-.258h-.236c-.133 0-.247.113-.247.257 0 .133.114.246.247.246h.237zm1.164-4.395v.65H2.084c-.123 0-.247.134-.247.267 0 .124.124.247.247.247h1.873v.628c0 .247.124.247.247.247.124 0 .247 0 .247-.248v-.628h3.675c.505 0 .875-.38.875-.885 0-.124-.123-.258-.247-.258-.123 0-.257.134-.257.257s-.124.37-.37.37H4.45v-.65c0-.122-.122-.246-.246-.246-.123 0-.247.124-.247.247zM23 170.26c0-1.985-1.605-3.6-3.592-3.6-1.986 0-3.612 1.615-3.612 3.6v1.35c0 .133.113.247.247.247h6.71c.134 0 .237-.103.247-.227v-1.37zm-.504 1.092H16.3v-1.09c.01-1.71 1.39-3.098 3.108-3.098 1.71 0 3.088 1.39 3.088 3.097v1.092zm.504-8.87c0-.855-.453-1.606-1.142-2.04-.124-.07-.268-.03-.35.084-.062.103-.04.257.082.33.566.34.916.956.916 1.625 0 1.04-.834 1.905-1.935 1.956V160.3c0-.135-.09-.248-.225-.248h-.04c-1.32.103-2.348 1.132-2.348 2.43 0 1.358 1.132 2.448 2.532 2.448 1.378 0 2.51-1.09 2.51-2.45zm-4.55 0c0-.927.69-1.73 1.637-1.895v3.82c-.957-.187-1.636-.98-1.636-1.926zm4.53-5.59c.01-.01.01-.01.01-.02.01-.03.01-.05.01-.082 0-.052-.02-.124-.072-.165-.04-.03-.082-.05-.124-.062l-4.466-1.883c-.124-.05-.268 0-.32.124-.05.123.01.277.135.32l3.972 1.676-3.972 1.678c-.124.04-.186.195-.134.32.05.112.194.174.318.122l4.508-1.894c.05-.02.082-.05.113-.082.01-.02.02-.03.02-.05zm.02-6.102c0-.854-.453-1.606-1.142-2.038-.124-.072-.268-.03-.35.082-.062.103-.04.258.082.33.566.34.916.957.916 1.626 0 1.04-.834 1.904-1.935 1.955v-4.137c0-.134-.09-.247-.225-.247h-.04c-1.32.104-2.348 1.133-2.348 2.43 0 1.358 1.132 2.45 2.532 2.45 1.378 0 2.51-1.092 2.51-2.45zm-4.55 0c0-.926.69-1.73 1.637-1.894v3.818c-.957-.185-1.636-.977-1.636-1.924zm4.303-4.25c.134 0 .247-.114.247-.248 0-.144-.113-.257-.247-.257h-6.71c-.134 0-.247.113-.247.257 0 .134.113.247.247.247h6.71zm-2.274-2.254c1.367 0 2.52-1.07 2.52-2.388 0-1.328-1.153-2.388-2.52-2.388-1.37 0-2.523 1.06-2.523 2.388 0 1.317 1.153 2.388 2.522 2.388zm0-.494c-1.123 0-2.04-.865-2.04-1.894 0-1.03.917-1.894 2.04-1.894 1.12 0 2.026.865 2.026 1.894 0 1.03-.906 1.894-2.027 1.894zm4.383-6.175c.134 0 .247-.114.247-.247 0-.145-.113-.258-.247-.258H21.98c.598-.432.99-1.132.99-1.914 0-1.358-1.143-2.44-2.512-2.44-1.38 0-2.5 1.082-2.5 2.44 0 .782.39 1.482.977 1.914h-.73c-.135 0-.248.113-.248.258 0 .133.113.247.247.247h6.66zm-4.487-.505c-1.07-.04-1.915-.895-1.915-1.914 0-1.07.886-1.935 1.998-1.935 1.11 0 2.007.865 2.017 1.935-.01 1.04-.906 1.914-2.017 1.914h-.082zm2.387-13.502c.124 0 .237-.103.237-.237 0-.144-.113-.247-.237-.247h-2.748c-1.132 0-2.048.916-2.048 2.048 0 .772.433 1.45 1.07 1.81-.637.35-1.07 1.02-1.07 1.802 0 .628.278 1.184.72 1.554h-.483c-.134 0-.237.103-.237.247 0 .124.103.237.237.237h4.61c.093-.03.176-.113.186-.206v-.06c0-.022 0-.032-.01-.043 0-.02-.02-.05-.03-.06-.042-.073-.114-.115-.197-.115h-2.748c-.854 0-1.564-.69-1.564-1.554 0-.864.71-1.554 1.565-1.554H22.815c.01-.01.02-.01.03-.01.01-.01.02-.01.02-.01.012-.01.012-.01.022-.01 0-.01.01-.01.02-.02l.03-.032c.012-.01.022-.02.022-.03.01-.02.03-.042.03-.063 0 0 .01-.01.01-.02V126.985c0-.04-.01-.082-.03-.123-.032-.052-.073-.103-.135-.124h-.02s-.01-.01-.02-.01H20.014c-.854 0-1.564-.7-1.564-1.554 0-.864.71-1.544 1.565-1.564h2.748zm.237-4.662c0-.855-.453-1.606-1.142-2.038-.124-.072-.268-.03-.35.082-.062.103-.04.258.082.33.566.34.916.957.916 1.626 0 1.04-.834 1.904-1.935 1.955v-4.137c0-.134-.09-.247-.225-.247h-.04c-1.32.102-2.348 1.13-2.348 2.428 0 1.358 1.132 2.45 2.532 2.45 1.378 0 2.51-1.092 2.51-2.45zm-4.55 0c0-.927.69-1.73 1.637-1.894v3.818c-.957-.185-1.636-.978-1.636-1.924zm4.303-7.78c.144 0 .247-.114.247-.248s-.103-.247-.247-.247h-2.738c-1.12 0-2.048.916-2.048 2.048 0 .63.29 1.195.73 1.566h-.483c-.133 0-.247.102-.247.236 0 .144.114.247.247.247h4.6s.01-.01.02-.01c.012 0 .022 0 .032-.01.062-.032.113-.094.134-.166v-.062c0-.072-.03-.144-.093-.185-.03-.03-.072-.04-.113-.05H20.014c-.853-.022-1.553-.712-1.553-1.566 0-.863.7-1.553 1.555-1.553h2.738zm-4.796-4.22v.648h-1.873c-.123 0-.247.134-.247.268 0 .123.124.247.247.247h1.873v.628c0 .247.124.247.247.247.124 0 .247 0 .247-.247v-.627h3.675c.505 0 .875-.38.875-.884 0-.124-.123-.258-.247-.258-.123 0-.257.134-.257.258 0 .123-.124.37-.37.37H18.45v-.648c0-.124-.122-.247-.246-.247-.123 0-.247.124-.247.248z" fill="#000"/>
        </g>
        <path d="M103.13 410.1c-2.762 0-3.98 1.996-2.724 4.45l7.552 14.75c1.258 2.458 3.26 2.433 4.468-.04l7.16-14.67c1.21-2.48-.055-4.49-2.81-4.49H103.13z" stroke="#008CDC" stroke-width="4" fill="#008CDC"/>
        <path d="M32.456 417.48c0 .135.113.248.247.248.144 0 .257-.113.257-.247v-3.097h3.026c.144 0 .257-.113.257-.247 0-.144-.113-.257-.257-.257H32.96v-2.852h3.458c.134 0 .247-.113.247-.257 0-.133-.113-.246-.247-.246h-3.724c-.135.01-.238.113-.238.247v6.71zm8.048.248c.854 0 1.606-.453 2.038-1.142.072-.124.03-.268-.082-.35-.103-.062-.258-.04-.33.082-.34.566-.957.916-1.626.916-1.04 0-1.904-.834-1.955-1.935h4.136c.134 0 .247-.093.247-.227v-.04c-.103-1.32-1.132-2.348-2.43-2.348-1.357 0-2.448 1.132-2.448 2.532 0 1.38 1.09 2.51 2.45 2.51zm0-4.55c.926 0 1.73.69 1.894 1.637H38.58c.185-.957.977-1.636 1.924-1.636zm8.16-.493c-.132 0-.246.103-.246.247v.74c-.432-.596-1.12-.987-1.893-.987-1.328 0-2.388 1.142-2.388 2.522s1.06 2.52 2.388 2.52c.772 0 1.46-.4 1.893-.997v.75c0 .135.114.248.247.248.134 0 .247-.113.247-.247v-4.548c0-.144-.113-.247-.247-.247zm-2.14 4.55c-1.028 0-1.893-.896-1.893-2.028 0-1.133.866-2.038 1.895-2.038 1.04 0 1.893.904 1.893 2.037 0 1.132-.854 2.027-1.893 2.027zm6.042-4.55h-.65v-1.873c0-.123-.132-.247-.266-.247-.124 0-.247.124-.247.247v1.873h-.628c-.247 0-.247.124-.247.247 0 .124 0 .247.247.247h.628v3.673c0 .505.38.875.885.875.123 0 .257-.123.257-.247 0-.122-.134-.256-.257-.256-.124 0-.37-.124-.37-.37v-3.675h.648c.123 0 .247-.124.247-.248 0-.123-.124-.247-.247-.247zm2.5 2.985c0 1.132.906 2.058 2.038 2.058 1.153 0 2.07-.926 2.07-2.058v-2.748c0-.144-.114-.247-.258-.247-.124 0-.247.103-.247.247v2.748c0 .864-.7 1.554-1.566 1.564-.854-.01-1.543-.7-1.543-1.564v-2.748c0-.144-.113-.247-.246-.247-.134 0-.247.103-.247.247v2.748zm6.412 1.81c0 .145.114.248.258.248.123 0 .236-.103.236-.247v-2.212c0-.02 0-.04.02-.082.073-.206.27-.72.608-1.173.35-.453.803-.824 1.462-.824.133 0 .247-.114.247-.248 0-.144-.115-.247-.248-.247-.968 0-1.637.638-2.018 1.235-.03.042-.05.083-.072.124v-1.112c0-.144-.113-.247-.236-.247-.144 0-.258.103-.258.247v4.54zm6.093.248c.855 0 1.606-.453 2.04-1.142.07-.124.03-.268-.084-.35-.103-.062-.257-.04-.33.082-.34.566-.956.916-1.625.916-1.038 0-1.903-.834-1.954-1.935h4.137c.134 0 .247-.093.247-.227v-.04c-.103-1.32-1.132-2.348-2.43-2.348-1.358 0-2.448 1.132-2.448 2.532 0 1.38 1.09 2.51 2.45 2.51zm0-4.55c.927 0 1.73.69 1.895 1.637h-3.82c.187-.957.98-1.636 1.926-1.636zm-33.96 18.107c.112.227.328.33.462.33h.02c.062 0 .114-.01.124-.01.134-.052.196-.196.165-.33-.04-.113-.164-.175-.277-.164-.01-.01-.062-.05-.103-.174-.052-.155-.093-.412-.093-.834 0-.813-.494-1.338-.967-1.606-.04-.02-.072-.03-.103-.05.7-.33 1.183-1.04 1.183-1.864 0-1.142-.916-2.058-2.048-2.058H29.914c-.123.01-.226.123-.226.247v6.71c0 .135.113.248.247.248.144 0 .257-.113.257-.247v-2.85h1.75c.01 0 .02.01.05.02.135.02.516.135.835.36.32.238.586.567.586 1.092 0 .607.072.947.196 1.183zm-.084-4.703c0 .844-.68 1.534-1.512 1.554h-1.821v-3.108h1.78c.855 0 1.554.69 1.554 1.554zm4.61 5.146c.855 0 1.607-.453 2.04-1.142.07-.124.03-.268-.084-.35-.102-.062-.257-.04-.33.082-.338.566-.956.916-1.625.916-1.04 0-1.904-.834-1.955-1.935h4.137c.133 0 .246-.093.246-.227v-.04c-.103-1.32-1.132-2.348-2.43-2.348-1.357 0-2.448 1.132-2.448 2.532 0 1.38 1.09 2.51 2.45 2.51zm0-4.55c.927 0 1.73.69 1.895 1.637h-3.817c.185-.957.977-1.636 1.924-1.636zm4.25 4.303c0 .135.115.248.248.248.145 0 .258-.113.258-.247v-6.71c0-.133-.113-.246-.258-.246-.133 0-.247.113-.247.247v6.71zm5.044.248c.855 0 1.606-.453 2.038-1.142.072-.124.03-.268-.082-.35-.103-.062-.258-.04-.33.082-.34.566-.957.916-1.626.916-1.04 0-1.904-.834-1.955-1.935h4.137c.134 0 .247-.093.247-.227v-.04c-.104-1.32-1.133-2.348-2.43-2.348-1.358 0-2.45 1.132-2.45 2.532 0 1.38 1.092 2.51 2.45 2.51zm0-4.55c.927 0 1.73.69 1.894 1.637h-3.818c.185-.957.978-1.636 1.924-1.636zm8.162-.493c-.134 0-.247.103-.247.247v.74c-.433-.596-1.122-.987-1.894-.987-1.327 0-2.387 1.142-2.387 2.522s1.06 2.52 2.388 2.52c.773 0 1.462-.4 1.895-.997v.75c0 .135.113.248.247.248.133 0 .247-.113.247-.247v-4.548c0-.144-.115-.247-.248-.247zm-2.14 4.55c-1.03 0-1.895-.896-1.895-2.028 0-1.133.865-2.038 1.894-2.038 1.04 0 1.895.904 1.895 2.037 0 1.132-.855 2.027-1.894 2.027zm4.208-.227c.412.33 1.05.71 1.863.72.494 0 .906-.144 1.256-.4.338-.26.575-.598.575-1.02 0-.422-.237-.813-.566-1.03-.35-.195-.742-.34-1.226-.41h-.02c-.464-.073-.803-.197-1.03-.35-.195-.155-.288-.3-.288-.505 0-.206.113-.412.32-.577.215-.175.545-.288.956-.288.494 0 .865.258 1.235.505.114.072.268.04.34-.073.072-.113.04-.267-.072-.35-.39-.246-.854-.545-1.503-.545-.514 0-.936.134-1.235.34-.32.236-.545.586-.545.988 0 .39.226.72.545.905.29.206.69.31 1.143.39l.02.012c.494.082.855.206 1.07.37.258.216.35.38.36.618 0 .226-.133.453-.38.617-.226.186-.566.31-.957.31-.638 0-1.194-.33-1.544-.588-.114-.092-.268-.072-.35.03-.083.104-.073.238.03.33zm7.472.72c.854 0 1.605-.453 2.038-1.142.072-.124.03-.268-.083-.35-.103-.062-.257-.04-.33.082-.34.566-.956.916-1.625.916-1.04 0-1.904-.834-1.956-1.935h4.138c.133 0 .247-.093.247-.227v-.04c-.102-1.32-1.13-2.348-2.428-2.348-1.36 0-2.45 1.132-2.45 2.532 0 1.38 1.09 2.51 2.45 2.51zm0-4.55c.926 0 1.73.69 1.894 1.637h-3.82c.187-.957.98-1.636 1.926-1.636zm3.86 3.83c.41.33 1.05.71 1.862.72.494 0 .906-.144 1.256-.4.34-.26.576-.598.576-1.02 0-.422-.237-.813-.566-1.03-.35-.195-.74-.34-1.225-.41h-.02c-.464-.073-.803-.197-1.03-.35-.195-.155-.288-.3-.288-.505 0-.206.113-.412.32-.577.215-.175.545-.288.956-.288.494 0 .865.258 1.235.505.114.072.268.04.34-.073.072-.113.04-.267-.072-.35-.39-.246-.854-.545-1.503-.545-.514 0-.936.134-1.235.34-.32.236-.545.586-.545.988 0 .39.226.72.545.905.29.206.69.31 1.143.39l.02.012c.495.082.856.206 1.072.37.257.216.35.38.36.618 0 .226-.134.453-.38.617-.227.186-.567.31-.958.31-.638 0-1.194-.33-1.544-.588-.113-.092-.267-.072-.35.03-.082.104-.072.238.03.33zM144.992 417.7c.597.472 1.554 1.028 2.655 1.038.72 0 1.37-.216 1.853-.566.484-.35.813-.864.813-1.44 0-.577-.32-1.05-.792-1.36-.473-.318-1.11-.524-1.83-.658h-.022c-.648-.123-1.183-.298-1.544-.545-.36-.248-.525-.516-.535-.876 0-.37.205-.72.565-.988.36-.257.885-.432 1.472-.432.792 0 1.41.39 1.976.76.103.073.247.043.31-.06.07-.114.04-.247-.063-.32-.566-.37-1.276-.833-2.223-.833-.68 0-1.287.197-1.74.526-.452.33-.75.803-.75 1.348 0 .535.298.967.74 1.256.443.298 1.03.483 1.698.607h.02c.7.134 1.277.33 1.668.586.39.268.587.577.587.988 0 .403-.216.784-.618 1.072-.39.288-.957.473-1.585.473-.936.01-1.83-.494-2.367-.926-.092-.083-.236-.073-.32.03-.07.092-.06.237.032.32zm6.947-1.03c0 1.132.905 2.058 2.037 2.058 1.152 0 2.068-.926 2.068-2.058v-2.748c0-.144-.113-.247-.257-.247-.123 0-.247.103-.247.247v2.748c0 .864-.7 1.554-1.563 1.564-.854-.01-1.544-.7-1.544-1.564v-2.748c0-.144-.113-.247-.247-.247s-.247.103-.247.247v2.748zm13.625 1.82c0 .125.103.238.237.238.144 0 .247-.113.247-.237v-2.747c0-1.132-.917-2.048-2.05-2.048-.77 0-1.45.433-1.81 1.07-.35-.637-1.02-1.07-1.802-1.07-.627 0-1.183.278-1.554.72v-.483c0-.134-.102-.237-.247-.237-.123 0-.236.103-.236.237v4.61c.032.093.114.176.207.186h.06c.022 0 .032 0 .042-.01.02 0 .05-.02.06-.03.073-.042.114-.114.114-.197v-2.747c0-.854.69-1.564 1.554-1.564.865 0 1.554.71 1.554 1.563v2.8c.01.01.01.02.01.032.01.01.01.02.01.02.01.01.01.01.01.02.012 0 .012.01.022.02l.03.032c.01.01.02.02.032.02.02.01.04.032.06.032 0 0 .012.01.022.01h.05c.043 0 .084-.01.125-.03.05-.032.103-.073.123-.135v-.02s.01-.01.01-.02v-2.779c0-.854.7-1.564 1.555-1.564.865 0 1.545.71 1.565 1.563v2.748zm9.787 0c0 .125.103.238.237.238.143 0 .246-.113.246-.237v-2.747c0-1.132-.916-2.048-2.048-2.048-.772 0-1.45.433-1.81 1.07-.35-.637-1.02-1.07-1.802-1.07-.628 0-1.184.278-1.554.72v-.483c0-.134-.103-.237-.247-.237-.124 0-.237.103-.237.237v4.61c.03.093.113.176.206.186h.062c.02 0 .03 0 .04-.01.02 0 .052-.02.062-.03.073-.042.114-.114.114-.197v-2.747c0-.854.69-1.564 1.554-1.564.864 0 1.554.71 1.554 1.563v2.8c.01.01.01.02.01.032.01.01.01.02.01.02.01.01.01.01.01.02.01 0 .01.01.02.02l.032.032c.01.01.02.02.03.02.022.01.042.032.063.032 0 0 .01.01.02.01H171.977c.04 0 .082-.01.123-.03.052-.032.103-.073.124-.135v-.02s.01-.01.01-.02v-2.779c0-.854.7-1.564 1.554-1.564.865 0 1.544.71 1.564 1.563v2.748zm4.662.238c.855 0 1.606-.453 2.038-1.142.072-.124.03-.268-.082-.35-.103-.062-.257-.04-.33.082-.34.566-.957.916-1.626.916-1.04 0-1.903-.834-1.955-1.935h4.136c.134 0 .247-.093.247-.227v-.04c-.103-1.32-1.132-2.348-2.43-2.348-1.357 0-2.448 1.132-2.448 2.532 0 1.38 1.09 2.51 2.45 2.51zm0-4.55c.927 0 1.73.69 1.894 1.637h-3.818c.185-.957.978-1.636 1.924-1.636zm3.963 4.303c0 .145.113.248.257.248.124 0 .237-.103.237-.247v-2.212c0-.02 0-.04.02-.082.073-.206.27-.72.61-1.173.348-.453.8-.824 1.46-.824.134 0 .247-.114.247-.248 0-.144-.113-.247-.247-.247-.967 0-1.636.638-2.017 1.235-.03.042-.052.083-.072.124v-1.112c0-.144-.112-.247-.236-.247-.144 0-.257.103-.257.247v4.54zm-29.244 14.176c.04.05.113.072.185.072h4.055c.134 0 .247-.113.247-.247 0-.143-.113-.256-.247-.256h-3.406l2.88-2.604c.516-.473.773-1.112.773-1.75 0-.555-.195-1.12-.617-1.574-.463-.525-1.1-.772-1.73-.772-.565 0-1.14.206-1.594.607l-.35.33c-.104.083-.114.247-.012.35.083.103.247.114.35.01l.35-.318c.36-.32.803-.474 1.256-.474.504 0 1.008.206 1.37.607.318.35.482.793.482 1.235 0 .515-.216 1.01-.617 1.38l-3.366 3.035c-.103.103-.103.258-.01.37zm6.885-1.02c.443.65 1.07 1.092 1.8 1.092.732 0 1.36-.443 1.802-1.09.433-.66.7-1.545.7-2.512 0-.967-.267-1.853-.7-2.52-.442-.64-1.07-1.082-1.8-1.082s-1.36.442-1.802 1.08c-.442.67-.69 1.555-.69 2.522 0 .967.248 1.852.69 2.51zm.422-4.743c.37-.566.865-.865 1.38-.865.514 0 .998.3 1.378.865.37.555.618 1.348.618 2.233s-.247 1.677-.618 2.233c-.38.545-.864.864-1.38.864-.513 0-1.007-.32-1.378-.865-.37-.557-.607-1.35-.607-2.234 0-.885.237-1.678.607-2.233zm7.215 5.588c0 .135.113.248.247.248.144 0 .247-.113.247-.247v-6.616c.01-.062 0-.124-.032-.186-.062-.113-.227-.154-.34-.092l-1.39.844c-.123.06-.164.205-.092.34.04.07.124.123.216.123.04 0 .093-.02.124-.04l1.02-.598v6.226zm2.367-2.52c0 .164 0 .32.02.473.04 1.276 1.09 2.295 2.378 2.295 1.327 0 2.387-1.06 2.387-2.377 0-1.306-1.06-2.377-2.387-2.377-.71 0-1.35.32-1.78.813.102-.514.267-1.02.514-1.44.453-.752 1.09-1.266 2.1-1.308.133-.01.246-.123.246-.267-.01-.133-.123-.246-.257-.236-1.194.04-2.027.69-2.52 1.565-.495.853-.69 1.902-.7 2.86zm.525.39c0-1.03.843-1.872 1.873-1.872 1.05 0 1.893.843 1.893 1.873s-.844 1.874-1.893 1.874c-.947 0-1.74-.71-1.863-1.626.01-.02.01-.042.01-.072-.01-.042-.02-.083-.02-.134v-.04z" fill="#000"/>
        <g>
            <path d="M2.044 351.842c.782.618 2.03 1.36 3.513 1.372.974 0 1.866-.288 2.538-.782.686-.494 1.18-1.25 1.18-2.127 0-.425-.123-.837-.33-1.166-.315-.51-.81-.866-1.37-1.14-.55-.26-1.195-.44-1.895-.576h-.027c-.74-.138-1.36-.357-1.716-.604-.178-.124-.3-.247-.37-.357-.07-.11-.096-.22-.096-.384 0-.29.152-.59.522-.866.37-.274.92-.466 1.537-.466.836 0 1.51.41 2.208.878.33.22.77.123.975-.206.22-.315.123-.755-.192-.974-.7-.453-1.673-1.098-2.99-1.098-.893 0-1.73.26-2.375.727-.63.467-1.097 1.18-1.097 2.004 0 .41.11.795.315 1.124.302.48.755.823 1.276 1.07.52.247 1.124.412 1.77.535h.027c.81.15 1.482.384 1.88.644.206.138.33.275.41.412.084.137.125.26.125.44 0 .342-.178.685-.59.987-.412.302-1.03.508-1.715.508-.975.015-2.018-.562-2.62-1.056-.303-.247-.756-.206-1.003.096-.233.302-.192.755.11 1.002zm11.444-5.475h-.343v-1.99c0-.425-.33-.754-.755-.754s-.768.33-.768.754v1.99h-.398c-.426 0-.755.33-.755.755 0 .41.328.754.754.754h.398v3.83c0 .836.686 1.522 1.523 1.522.425 0 .755-.33.755-.755s-.33-.768-.755-.768v-3.83h.343c.412 0 .768-.342.768-.753 0-.426-.356-.755-.768-.755zm8.563.74c0-.41-.33-.74-.727-.74-.356 0-.63.26-.713.604-.522-.37-1.14-.603-1.825-.603-.933 0-1.743.398-2.333 1.03-.59.617-.933 1.467-.933 2.414 0 .934.342 1.785.932 2.416.59.618 1.4 1.002 2.333 1.002.686 0 1.303-.22 1.825-.59.082.33.357.59.713.59.398 0 .728-.33.728-.727V347.11zm-1.99 4.118c-.328.343-.795.535-1.275.535-.494 0-.96-.192-1.276-.535-.33-.357-.523-.85-.523-1.414 0-.575.192-1.07.522-1.412.314-.37.78-.563 1.275-.563.48 0 .947.192 1.276.563.33.343.536.837.536 1.413 0 .564-.206 1.058-.535 1.415zm8.18-4.844c-.687-.013-1.277.234-1.73.536-.096.068-.206.178-.288.274v-.096c0-.398-.343-.713-.755-.713-.398 0-.727.316-.727.714v5.407c0 .4.33.728.727.728.412 0 .755-.33.755-.727v-2.606c.07-.193.233-.714.563-1.153.164-.26.37-.493.63-.658.234-.178.51-.26.824-.26.41 0 .727-.344.727-.728 0-.398-.316-.713-.728-.713zm4.843-.013h-.343v-1.99c0-.425-.33-.754-.755-.754s-.768.33-.768.754v1.99h-.398c-.426 0-.756.33-.756.755 0 .41.33.754.755.754h.397v3.83c0 .836.686 1.522 1.523 1.522.426 0 .755-.33.755-.755s-.33-.768-.755-.768v-3.83h.343c.412 0 .77-.342.77-.753 0-.426-.358-.755-.77-.755zm5.49 6.86c.973 0 1.783-.287 2.455-.905.316-.288.18-.7 0-.892-.178-.22-.74-.26-1.03.042-.342.26-.932.384-1.426.343-.48-.042-1.03-.29-1.317-.618-.247-.233-.398-.59-.467-.906h4.364c.384 0 .672-.218.713-.547.014-.028.014-.096.014-.124v-.07c-.11-1.852-1.524-3.183-3.308-3.183-1.88 0-3.334 1.564-3.348 3.43.014 1.867 1.468 3.417 3.348 3.43zm0-5.556c1.193.097 1.893.906 2.03 1.455H36.72c.11-.563.686-1.4 1.852-1.454zm8.7-1.29c-.687-.013-1.277.234-1.73.536-.096.068-.206.178-.288.274v-.096c0-.398-.343-.713-.755-.713-.398 0-.727.316-.727.714v5.407c0 .4.33.728.727.728.412 0 .755-.33.755-.727v-2.606c.068-.193.233-.714.562-1.153.165-.26.37-.493.63-.658.235-.178.51-.26.825-.26.41 0 .727-.344.727-.728 0-.398-.317-.713-.728-.713zm7.546 6.848c.424 0 .754-.343.754-.755v-1.948L57 349.07l2.965 3.884c.15.178.357.274.562.274.18 0 .343-.055.48-.178.33-.26.385-.74.11-1.057L58.07 348l3.02-3.005c.288-.302.288-.782 0-1.07-.302-.302-.768-.302-1.07 0l-4.446 4.46v-3.94c0-.397-.33-.754-.755-.754-.426 0-.756.358-.756.756v8.027c0 .412.33.755.755.755zm9.66-6.847c-.412 0-.742.316-.742.755v5.352c0 .412.33.74.74.74.427 0 .742-.328.742-.74v-5.352c0-.44-.315-.754-.74-.754zm.74-2.016c0-.412-.315-.74-.74-.74-.412 0-.742.328-.742.74v.288c0 .41.33.754.74.754.427 0 .742-.343.742-.754v-.288zm4.68 2.003h-.343v-1.99c0-.425-.33-.754-.755-.754-.426 0-.77.33-.77.754v1.99h-.397c-.425 0-.754.33-.754.755 0 .41.33.754.755.754h.398v3.83c0 .836.686 1.522 1.524 1.522.425 0 .754-.33.754-.755s-.328-.768-.753-.768v-3.83h.343c.41 0 .768-.342.768-.753 0-.426-.357-.755-.768-.755zm-52.693 23.256c-.028-.138-.07-.398-.055-.81 0-.576-.18-1.084-.453-1.482-.138-.205-.303-.37-.48-.507.657-.55 1.07-1.345 1.07-2.25 0-1.633-1.305-2.95-2.937-2.95h-2.457c-.425 0-.754.33-.754.754v8.096c0 .412.33.755.754.755.426 0 .77-.343.77-.755v-2.977h1.618c.123.027.48.137.768.33.165.11.33.246.412.397.096.15.15.33.165.59 0 .755.095 1.25.287 1.647.11.192.26.37.44.48.19.123.397.15.534.15h.015c.137 0 .247-.027.302-.04.398-.138.617-.563.48-.96-.082-.234-.26-.4-.48-.467zm-2.854-3.65h-1.688v-2.827h1.688c.782 0 1.413.63 1.413 1.427 0 .768-.63 1.4-1.413 1.4zm8.137 5.255c.974 0 1.784-.288 2.456-.906.316-.288.178-.7 0-.892-.178-.22-.74-.26-1.03.042-.342.26-.932.384-1.426.343-.48-.042-1.03-.29-1.318-.618-.247-.233-.398-.59-.466-.906h4.363c.384 0 .672-.218.713-.547.014-.028.014-.096.014-.124v-.07c-.11-1.852-1.523-3.183-3.307-3.183-1.88 0-3.335 1.564-3.348 3.43.013 1.867 1.468 3.417 3.348 3.43zm0-5.557c1.194.097 1.893.906 2.03 1.455h-3.883c.11-.563.686-1.4 1.853-1.454zm5.585-3.293v8.096c0 .412.343.755.754.755.425 0 .768-.343.768-.755v-8.096c0-.41-.343-.754-.77-.754-.41 0-.753.343-.753.754zm6.806 8.85c.975 0 1.785-.287 2.457-.905.316-.288.178-.7 0-.892-.178-.22-.74-.26-1.03.042-.342.26-.932.384-1.426.343-.48-.042-1.028-.29-1.317-.618-.247-.233-.397-.59-.466-.906h4.364c.385 0 .673-.218.714-.547.014-.028.014-.096.014-.124v-.07c-.11-1.852-1.523-3.183-3.307-3.183-1.88 0-3.334 1.564-3.347 3.43.013 1.867 1.468 3.417 3.348 3.43zm0-5.556c1.195.097 1.894.906 2.032 1.455h-3.884c.11-.563.686-1.4 1.853-1.454zm11.294-.562c0-.412-.33-.74-.727-.74-.357 0-.63.26-.714.603-.52-.37-1.14-.603-1.825-.603-.933 0-1.743.398-2.333 1.03-.59.617-.933 1.467-.933 2.414 0 .934.343 1.785.933 2.416.59.618 1.4 1.002 2.333 1.002.686 0 1.304-.22 1.825-.59.083.33.357.59.714.59.398 0 .727-.33.727-.727V365.11zm-1.99 4.117c-.33.343-.796.535-1.276.535-.494 0-.96-.192-1.276-.535-.33-.357-.52-.85-.52-1.414 0-.575.19-1.07.52-1.412.316-.37.782-.563 1.276-.563.48 0 .947.192 1.276.563.33.343.536.837.536 1.413 0 .564-.206 1.058-.536 1.415zm4.446 1.056c.55.44 1.373.934 2.443.948.672 0 1.29-.206 1.784-.55.494-.356.864-.918.864-1.59 0-.316-.095-.632-.26-.906-.233-.385-.603-.645-.974-.81-.398-.192-.823-.316-1.276-.398h-.014l-.013-.014c-.467-.082-.824-.205-1.002-.33-.095-.054-.136-.11-.15-.136-.027-.04-.027-.055-.027-.11 0-.07.04-.192.22-.316.177-.137.48-.247.822-.247.44 0 .824.22 1.263.51.343.232.796.136 1.015-.193.206-.343.11-.796-.22-1.015-.438-.302-1.11-.755-2.058-.755-.63 0-1.207.178-1.687.508-.453.343-.81.878-.81 1.51 0 .315.082.617.233.864.248.37.578.616.948.794.357.165.77.275 1.194.357h.014c.494.097.905.248 1.097.385.11.07.165.124.18.165.026.04.04.07.04.137 0 .11-.055.247-.247.412-.22.136-.563.26-.933.26-.535.013-1.153-.302-1.51-.604-.3-.26-.782-.22-1.03.11-.246.302-.205.768.097 1.015zm9.853.948c.974 0 1.784-.288 2.456-.906.315-.288.177-.7 0-.892-.18-.22-.742-.26-1.03.042-.343.26-.933.384-1.427.343-.48-.042-1.03-.29-1.318-.618-.247-.233-.397-.59-.466-.906h4.363c.384 0 .672-.218.713-.547.014-.028.014-.096.014-.124v-.07c-.11-1.852-1.523-3.183-3.307-3.183-1.88 0-3.335 1.564-3.348 3.43.013 1.867 1.468 3.417 3.348 3.43zm0-5.557c1.194.097 1.893.906 2.03 1.455H56.63c.11-.563.686-1.4 1.853-1.454zM150 352.842c.783.618 2.032 1.36 3.514 1.372.974 0 1.866-.288 2.54-.782.685-.494 1.18-1.25 1.18-2.127 0-.425-.125-.837-.33-1.166-.316-.51-.81-.866-1.373-1.14-.548-.26-1.193-.44-1.892-.576h-.028c-.74-.138-1.358-.357-1.715-.604-.178-.124-.302-.247-.37-.357-.07-.11-.097-.22-.097-.384 0-.29.15-.59.522-.866.37-.274.92-.466 1.537-.466.837 0 1.51.41 2.21.878.328.22.767.123.973-.206.22-.315.124-.755-.192-.974-.7-.453-1.674-1.098-2.99-1.098-.893 0-1.73.26-2.375.727-.63.467-1.098 1.18-1.098 2.004 0 .41.11.795.316 1.124.303.48.755.823 1.277 1.07.52.247 1.125.412 1.77.535h.027c.81.15 1.482.384 1.88.644.206.138.33.275.412.412.082.137.123.26.123.44 0 .342-.18.685-.59.987-.412.302-1.03.508-1.716.508-.974.015-2.017-.562-2.62-1.056-.303-.247-.755-.206-1.002.096-.234.302-.193.755.11 1.002zm9.922 3.966c.44 0 .783-.357.783-.74v-2.416c.494.356 1.152.562 1.838.562 1.825 0 3.32-1.523 3.32-3.403 0-1.88-1.495-3.443-3.32-3.443-.7 0-1.358.233-1.866.563-.055-.302-.37-.563-.755-.563-.398 0-.727.33-.727.727v7.974c0 .384.33.74.727.74zm1.318-7.383c.343-.37.796-.562 1.303-.562.467 0 .933.192 1.29.562.316.357.535.85.535 1.386 0 .536-.22 1.058-.535 1.373-.357.385-.823.577-1.29.577-.507 0-.96-.192-1.303-.577-.357-.315-.535-.837-.535-1.372 0-.534.178-1.028.535-1.385zm10.51-2.044c-.685-.013-1.275.234-1.728.536-.096.068-.206.178-.288.274v-.096c0-.398-.343-.713-.755-.713-.4 0-.728.316-.728.714v5.407c0 .4.33.728.727.728.41 0 .754-.33.754-.727v-2.606c.068-.193.233-.714.562-1.153.165-.26.37-.493.632-.658.233-.178.507-.26.823-.26.412 0 .728-.344.728-.728 0-.398-.316-.713-.727-.713zm3.28 0c-.41 0-.74.316-.74.755v5.352c0 .412.33.74.74.74.426 0 .74-.328.74-.74v-5.352c0-.44-.314-.754-.74-.754zm.74-2.016c0-.412-.314-.74-.74-.74-.41 0-.74.328-.74.74v.288c0 .41.33.754.74.754.426 0 .74-.343.74-.754v-.288zm5.216 2.003c-.535 0-1.043.165-1.455.425-.122-.26-.383-.425-.67-.425-.413 0-.728.33-.728.727v5.407c0 .4.315.728.727.728.356 0 .658-.26.726-.59.028-.055.028-.096.028-.137v-3.28c0-.767.603-1.385 1.372-1.385.782 0 1.427.618 1.427 1.386v3.28c0 .4.343.728.727.728.398 0 .714-.33.714-.727v-3.28c0-1.55-1.276-2.853-2.868-2.853zm11.69 3.458v-2.73c0-.4-.315-.728-.726-.728-.357 0-.66.247-.728.576-.494-.356-1.125-.576-1.838-.576-.906 0-1.743.398-2.333 1.015-.59.645-.96 1.496-.96 2.443 0 .96.37 1.81.96 2.415.59.645 1.428 1.043 2.334 1.043.672 0 1.303-.206 1.797-.55-.177.838-.904 1.47-1.796 1.47-.288 0-.55-.07-.782-.193-.385-.165-.81-.027-.988.343-.193.37-.028.824.33.988.424.22.932.344 1.44.344 1.825 0 3.293-1.495 3.293-3.293v-2.565zm-1.99 1.413c-.355.37-.78.563-1.302.563-.48 0-.933-.19-1.263-.562-.328-.315-.548-.837-.548-1.413 0-.55.22-1.07.55-1.4.33-.384.78-.59 1.262-.59.52 0 .947.206 1.303.59.302.33.522.85.522 1.4 0 .576-.22 1.098-.523 1.413zm-28.39 18.467h-2.923l2.594-2.347c.714-.645 1.084-1.55 1.084-2.442 0-.782-.273-1.592-.85-2.21-.645-.713-1.55-1.083-2.442-1.083-.782 0-1.592.274-2.21.85l-.425.385c-.316.288-.33.754-.055 1.07.288.315.755.343 1.07.055l.426-.384c.343-.303.768-.454 1.194-.454.48 0 .96.178 1.317.576.302.343.453.755.453 1.194 0 .494-.18.96-.576 1.317l-4.062 3.678c-.302.29-.33.755-.04 1.07.136.166.355.248.56.248h4.885c.426 0 .755-.33.755-.755s-.328-.768-.754-.768zm3.582 0c.576.864 1.468 1.523 2.552 1.523 1.057 0 1.962-.66 2.54-1.523.59-.878.918-2.03.918-3.28 0-1.262-.33-2.4-.92-3.28-.576-.878-1.48-1.522-2.538-1.522-1.084 0-1.976.644-2.552 1.523-.604.878-.92 2.017-.933 3.28.013 1.248.33 2.4.933 3.28zm3.828-.85c-.398.59-.85.85-1.276.85-.425 0-.892-.26-1.304-.85-.384-.577-.658-1.455-.658-2.43 0-.988.274-1.852.658-2.442.412-.577.88-.85 1.304-.837.425-.014.878.26 1.276.837.384.59.66 1.454.66 2.442 0 .975-.276 1.853-.66 2.43zm7.767-6.52c-.027-.026-.027-.054-.027-.095 0-.014-.014-.04-.014-.07-.014-.012-.014-.04-.028-.067 0-.028-.013-.04-.027-.07 0-.013-.014-.026-.014-.04l-.014-.027-.055-.055c-.014-.027-.028-.04-.042-.054-.013-.014-.027-.04-.054-.055-.015-.013-.043-.027-.056-.04-.028-.014-.042-.028-.055-.04-.03 0-.042-.015-.084-.043-.013-.013-.04-.013-.054-.013-.028-.014-.042-.028-.083-.028-.015 0-.042 0-.056-.013h-.151c-.027 0-.068 0-.096.013-.013 0-.04 0-.055.014-.027 0-.054.014-.082.014-.027.013-.04.04-.07.04-.012.015-.04.015-.053.028l-1.688 1.002c-.358.206-.482.686-.248 1.03.137.246.384.383.645.383.123 0 .26-.027.384-.11l.55-.315v6.75c0 .427.33.756.755.756.41 0 .768-.33.768-.755v-8.136zm5.077 2.252c-.466 0-.92.096-1.317.274.055-.123.11-.246.178-.356.234-.41.523-.727.866-.96.356-.22.768-.37 1.29-.385.425-.042.754-.385.74-.796-.027-.426-.37-.74-.795-.728-.78.028-1.48.26-2.058.645-.864.578-1.427 1.442-1.77 2.348-.343.905-.48 1.893-.48 2.813 0 .26.014.522.027.783.013.014.013.014.013.027.165 1.674 1.578 2.978 3.307 2.978 1.84 0 3.335-1.482 3.335-3.32 0-1.84-1.496-3.32-3.335-3.32zm0 5.118c-1.002 0-1.797-.796-1.797-1.798 0-.988.795-1.81 1.797-1.81 1.002 0 1.81.822 1.81 1.81 0 1.002-.808 1.798-1.81 1.798z" fill="#008CDC"/>
            <g transform="rotate(90 -97.638 235.59)" fill="#FFCE29">
                <circle cx="25" cy="28" r="13"/>
                <path d="M24.888 10.504c-1.343 0-2.433-1.097-2.433-2.43v-4.87c0-1.344 1.08-2.432 2.433-2.432 1.344 0 2.433 1.097 2.433 2.43v4.87c0 1.344-1.08 2.432-2.43 2.432h-.002zm15.17 8.76c-.67-1.165-.265-2.657.89-3.323l4.218-2.434c1.163-.67 2.645-.28 3.322.892.67 1.164.266 2.656-.89 3.322l-4.217 2.435c-1.16.67-2.643.28-3.32-.892h-.002zm0 17.517c.673-1.162 2.168-1.556 3.323-.89l4.22 2.436c1.163.67 1.565 2.15.89 3.322-.673 1.164-2.168 1.558-3.323.892l-4.218-2.437c-1.164-.67-1.566-2.15-.89-3.322h-.002zm-15.17 8.76c1.344 0 2.433 1.098 2.433 2.43v4.87c0 1.345-1.08 2.433-2.43 2.433-1.344 0-2.434-1.098-2.434-2.43v-4.87c0-1.344 1.08-2.432 2.433-2.432h-.002zm-15.17-8.76c.67 1.166.265 2.658-.89 3.324L4.61 42.54c-1.16.67-2.643.28-3.32-.893-.672-1.164-.266-2.656.89-3.322l4.217-2.436c1.162-.673 2.645-.28 3.32.89zm0-17.516c-.672 1.164-2.168 1.558-3.322.892L2.178 17.72c-1.163-.672-1.565-2.15-.89-3.323.673-1.164 2.168-1.558 3.323-.892l4.22 2.436c1.16.673 1.565 2.15.888 3.324z"/>
            </g>
        </g>
    </g>
</svg>
