<?xml version="1.0" encoding="UTF-8" standalone="no"?>
<svg width="65px" height="64px" viewBox="0 0 65 64" version="1.1" xmlns="http://www.w3.org/2000/svg" xmlns:xlink="http://www.w3.org/1999/xlink" xmlns:sketch="http://www.bohemiancoding.com/sketch/ns">
    <!-- Generator: Sketch 3.3.3 (12081) - http://www.bohemiancoding.com/sketch -->
    <title>logo</title>
    <desc>Created with Sketch.</desc>
    <defs></defs>
    <g id="Page-1" stroke="none" stroke-width="1" fill="none" fill-rule="evenodd" sketch:type="MSPage">
        <g id="logo" sketch:type="MSLayerGroup" fill="#262D4C">
            <path d="M40.676243,63.488156 C36.978472,63.002172 34.121267,59.836936 34.122874,56.003906 C34.122874,51.834334 37.503986,48.45497 41.670062,48.45497 C45.836137,48.45497 49.217249,51.834334 49.217249,56.003906 C49.217249,59.836936 46.359915,63.002172 42.660775,63.488156 L40.676243,63.488156 M56.680521,14.965527 C52.514446,14.965527 49.135082,18.341394 49.135082,22.514463 C49.135082,26.684035 52.514446,30.063399 56.680521,30.065147 C60.850093,30.063399 64.231205,26.684035 64.232953,22.514463 C64.231205,18.341394 60.848345,14.965527 56.680521,14.965527 M44.145581,29.302911 C42.773207,27.927039 40.547687,27.927039 39.173563,29.302911 C37.801189,30.675286 37.801189,32.904302 39.173563,34.276677 L53.601856,48.713711 C54.977727,50.084337 57.203247,50.084337 58.575622,48.711962 C59.949745,47.339587 59.949745,45.112319 58.575622,43.739944 L44.145581,29.302911 M8.149151,33.573881 C3.981327,33.573881 0.600215,36.954993 0.598467,41.124565 C0.598467,45.294137 3.981327,48.676997 8.149151,48.676997 C12.315226,48.676997 15.69459,45.295885 15.69459,41.124565 C15.69459,36.956741 12.315226,33.573881 8.149151,33.573881 M20.68409,34.334369 C22.056465,35.708492 24.281985,35.708492 25.657857,34.336117 C27.028483,32.958498 27.028483,30.732978 25.656108,29.360603 L11.224319,14.923569 C9.853693,13.547698 7.624676,13.547698 6.252301,14.923569 C4.879927,16.294196 4.879927,18.521464 6.252301,19.899084 L20.68409,34.334369 M23.164855,15.278464 C27.33093,15.278464 30.710294,11.8991 30.710294,7.729528 C30.710294,3.561704 27.33093,0.178844 23.164855,0.178844 C18.997031,0.178844 15.615919,3.559956 15.614171,7.729528 C15.617667,11.8991 18.997031,15.278464 23.164855,15.278464 M29.948058,25.245227 C31.322181,26.621098 33.551197,26.622846 34.923572,25.245227 L49.353613,10.809941 C50.725988,9.437566 50.725988,7.210298 49.353613,5.834427 C47.981238,4.462052 45.75397,4.462052 44.378098,5.834427 L29.948058,20.273209 C28.575683,21.645584 28.575683,23.871104 29.948058,25.245227 M34.885111,38.486459 C33.510988,37.112335 31.283719,37.112335 29.909596,38.488207 L15.477807,52.925241 C14.105432,54.297615 14.105432,56.526632 15.477807,57.899007 C16.850182,59.271381 19.079199,59.271381 20.451573,57.899007 L34.883362,43.460225 C36.255737,42.08785 36.257485,39.858833 34.885111,38.486459" id="path-1" sketch:type="MSShapeGroup"></path>
        </g>
    </g>
</svg>