<?xml version="1.0" encoding="utf-8"?>
<!-- Generator: Adobe Illustrator 16.0.0, SVG Export Plug-In . SVG Version: 6.00 Build 0)  -->
<!DOCTYPE svg PUBLIC "-//W3C//DTD SVG 1.1//EN" "http://www.w3.org/Graphics/SVG/1.1/DTD/svg11.dtd">
<svg version="1.1" id="Слой_1" xmlns="http://www.w3.org/2000/svg" xmlns:xlink="http://www.w3.org/1999/xlink" x="0px" y="0px"
	 width="120px" height="120px" viewBox="0 0 120 120" enable-background="new 0 0 120 120" xml:space="preserve">
<path fill-rule="evenodd" clip-rule="evenodd" fill="#FF7403" d="M119.55,52.67c-0.25-2.11-0.62-4.18-1.09-6.21
	C112.33,19.84,88.48,0,60,0C26.86,0,0,26.86,0,60c0,5.54,0.75,10.91,2.16,16h115.68c1.41-5.1,2.16-10.46,2.16-16
	C120,57.52,119.85,55.07,119.55,52.67z"/>
<rect x="31" y="36" fill="#FFBA81" width="5" height="2"/>
<rect x="39" y="36" fill="#FFBA81" width="5" height="2"/>
<rect x="31" y="60" fill="#FFBA81" width="5" height="2"/>
<rect x="39" y="60" fill="#FFBA81" width="5" height="2"/>
<path opacity="0.2" fill-rule="evenodd" clip-rule="evenodd" d="M119.55,52.67L106.88,40l-1.337,0.833
	c1.93,1.83,3.125,4.233,3.125,7.083l-0.292,2.25c0,5.51-4.74,10.375-10.25,10.375l-45.709-0.083L47,62l18,18h51.58
	c2.22-6.26,3.42-12.99,3.42-20C120,57.52,119.85,55.07,119.55,52.67z"/>
<path fill="#FFD200" d="M117.84,76c-0.37,1.35-0.79,2.69-1.26,4c-8.23,23.31-30.45,40-56.58,40c-4.2,0-8.3-0.43-12.26-1.26
	C25.7,114.17,8.09,97.51,2.16,76H117.84z"/>
<g>
	<g>
		<path fill="#262D4C" d="M22.321,91.07c-0.143,0-0.255,0.044-0.335,0.132s-0.121,0.194-0.121,0.319s0.041,0.229,0.121,0.309
			c0.081,0.081,0.192,0.121,0.335,0.121s0.256-0.04,0.338-0.121c0.083-0.08,0.124-0.184,0.124-0.309s-0.041-0.231-0.124-0.319
			S22.464,91.07,22.321,91.07z M26.999,85.989c-0.802,0-1.407,0.317-1.815,0.95v-3.281h-0.639v8.25h0.602l0.027-0.795
			c0.416,0.602,1.028,0.902,1.837,0.902c0.677,0,1.216-0.266,1.617-0.797c0.401-0.532,0.602-1.251,0.602-2.157v-0.097
			c0-0.935-0.2-1.664-0.599-2.188C28.23,86.252,27.687,85.989,26.999,85.989z M28.135,90.828c-0.299,0.42-0.713,0.629-1.243,0.629
			c-0.816,0-1.386-0.365-1.708-1.096V87.74c0.147-0.391,0.363-0.687,0.65-0.889c0.287-0.203,0.636-0.304,1.047-0.304
			c0.541,0,0.959,0.209,1.257,0.626s0.446,1.009,0.446,1.775C28.583,89.783,28.434,90.41,28.135,90.828z M34.374,90.303
			c-0.247,0.77-0.836,1.154-1.767,1.154c-0.895,0-1.343-0.553-1.343-1.66v-3.7h-0.639v3.781c0.007,0.706,0.172,1.238,0.494,1.599
			c0.322,0.359,0.793,0.539,1.413,0.539c0.849,0,1.466-0.281,1.853-0.844l0.011,0.736h0.623v-5.812h-0.645V90.303z M37.043,90.501
			c0,0.498,0.1,0.875,0.301,1.131s0.521,0.384,0.961,0.384c0.29,0,0.519-0.03,0.688-0.09l-0.027-0.522
			c-0.24,0.036-0.414,0.054-0.521,0.054c-0.272,0-0.466-0.078-0.583-0.236c-0.117-0.158-0.175-0.398-0.175-0.721v-3.877h1.203
			v-0.526h-1.203v-1.487h-0.645v1.487h-1.069v0.526h1.069V90.501z M42.5,91.403c-0.24,0.036-0.414,0.054-0.521,0.054
			c-0.272,0-0.466-0.078-0.583-0.236c-0.116-0.158-0.174-0.398-0.174-0.721v-3.877h1.203v-0.526h-1.203v-1.487h-0.645v1.487h-1.069
			v0.526h1.069v3.878c0,0.498,0.1,0.875,0.301,1.131s0.521,0.384,0.961,0.384c0.29,0,0.519-0.03,0.688-0.09L42.5,91.403z
			 M45.895,92.016c0.505,0,0.954-0.121,1.348-0.365c0.394-0.243,0.699-0.59,0.916-1.039c0.217-0.449,0.325-0.955,0.325-1.518v-0.135
			c0-0.895-0.24-1.613-0.72-2.156c-0.48-0.542-1.106-0.813-1.88-0.813c-0.501,0-0.95,0.124-1.346,0.374
			c-0.396,0.248-0.702,0.597-0.918,1.044c-0.216,0.448-0.325,0.95-0.325,1.509v0.129c0,0.896,0.241,1.615,0.722,2.157
			C44.499,91.744,45.125,92.016,45.895,92.016z M43.939,88.976c0-0.727,0.181-1.315,0.542-1.765
			c0.361-0.449,0.829-0.674,1.402-0.674c0.383,0,0.723,0.102,1.021,0.304c0.297,0.202,0.528,0.487,0.693,0.856
			s0.247,0.775,0.247,1.219v0.124c0,0.73-0.18,1.319-0.54,1.765s-0.83,0.668-1.41,0.668c-0.583,0-1.056-0.223-1.416-0.668
			c-0.359-0.445-0.54-1.016-0.54-1.711V88.976z M53.223,86.93c0.217,0.254,0.327,0.641,0.331,1.16v3.818h0.639v-3.813
			c-0.004-0.702-0.158-1.228-0.462-1.579c-0.305-0.351-0.769-0.526-1.392-0.526c-0.394,0-0.753,0.095-1.079,0.282
			c-0.326,0.188-0.598,0.461-0.816,0.818l-0.021-0.993H49.81v5.812h0.639v-3.98c0.147-0.422,0.373-0.758,0.679-1.006
			c0.306-0.25,0.658-0.374,1.056-0.374C52.66,86.548,53.007,86.676,53.223,86.93z M59.94,91.645V90.42
			c0-0.862-0.329-1.432-0.988-1.707c0.659-0.262,0.988-0.833,0.988-1.714v-1.144c0-1.121,0.437-1.821,1.31-2.101l-0.139-0.425
			c-0.606,0.184-1.059,0.477-1.36,0.881c-0.301,0.405-0.453,0.936-0.456,1.59v1.23c0,0.935-0.413,1.402-1.241,1.402v0.559
			c0.828,0,1.241,0.471,1.241,1.412v1.188c0,0.669,0.151,1.206,0.456,1.611c0.305,0.404,0.758,0.695,1.36,0.875l0.156-0.43
			C60.396,93.358,59.955,92.69,59.94,91.645z M32.397,99.189c-0.802,0-1.407,0.317-1.815,0.95v-3.281h-0.639v8.25h0.602l0.027-0.795
			c0.416,0.602,1.027,0.902,1.837,0.902c0.677,0,1.216-0.266,1.617-0.798s0.602-1.251,0.602-2.156v-0.097
			c0-0.935-0.2-1.664-0.599-2.189C33.628,99.452,33.084,99.189,32.397,99.189z M33.533,104.028c-0.299,0.42-0.714,0.629-1.244,0.629
			c-0.816,0-1.386-0.365-1.708-1.096v-2.621c0.147-0.391,0.363-0.687,0.65-0.889c0.287-0.203,0.636-0.304,1.047-0.304
			c0.541,0,0.959,0.208,1.257,0.626c0.297,0.417,0.446,1.009,0.446,1.775C33.981,102.983,33.832,103.61,33.533,104.028z
			 M38.278,99.189c-0.501,0-0.95,0.124-1.346,0.373c-0.396,0.249-0.702,0.597-0.918,1.045c-0.216,0.448-0.325,0.95-0.325,1.509
			v0.129c0,0.896,0.241,1.614,0.723,2.156c0.481,0.543,1.107,0.814,1.877,0.814c0.505,0,0.954-0.121,1.348-0.365
			c0.394-0.244,0.699-0.59,0.916-1.039c0.216-0.449,0.325-0.955,0.325-1.518v-0.135c0-0.895-0.24-1.613-0.72-2.156
			S39.052,99.189,38.278,99.189z M40.239,102.24c0,0.73-0.18,1.318-0.54,1.765c-0.36,0.445-0.83,0.668-1.41,0.668
			c-0.583,0-1.056-0.223-1.415-0.668c-0.36-0.446-0.54-1.016-0.54-1.711v-0.118c0-0.728,0.181-1.315,0.542-1.765
			s0.829-0.674,1.402-0.674c0.383,0,0.723,0.102,1.021,0.303c0.297,0.203,0.528,0.488,0.693,0.857
			c0.165,0.369,0.247,0.775,0.247,1.219V102.24z M42.844,100.221l-0.011-0.924h-0.628v5.812h0.639v-3.99
			c0.118-0.427,0.316-0.752,0.593-0.976c0.278-0.224,0.617-0.335,1.018-0.335c0.154,0,0.299,0.012,0.435,0.037l0.016-0.586
			c-0.104-0.046-0.246-0.069-0.424-0.069C43.73,99.189,43.184,99.533,42.844,100.221z M49.584,100.118
			c-0.412-0.619-1.01-0.929-1.794-0.929c-0.691,0-1.238,0.268-1.641,0.803c-0.403,0.536-0.604,1.255-0.604,2.157v0.074
			c0,0.917,0.205,1.645,0.615,2.184c0.41,0.539,0.949,0.809,1.619,0.809c0.798,0,1.404-0.293,1.815-0.881l0.027,0.773h0.602v-8.25
			h-0.639V100.118z M49.584,103.61c-0.333,0.697-0.896,1.047-1.687,1.047c-0.541,0-0.96-0.214-1.257-0.643
			c-0.297-0.428-0.446-1.012-0.446-1.753c0-0.827,0.15-1.453,0.451-1.878c0.301-0.424,0.721-0.636,1.262-0.636
			c0.784,0,1.343,0.378,1.676,1.134V103.61z M54.048,99.189c-0.451,0-0.871,0.128-1.258,0.384s-0.688,0.607-0.905,1.056
			c-0.216,0.448-0.325,0.95-0.325,1.509v0.231c0,0.54,0.111,1.028,0.333,1.464c0.222,0.435,0.533,0.773,0.932,1.018
			c0.399,0.244,0.846,0.365,1.34,0.365c0.899,0,1.585-0.342,2.058-1.025l-0.403-0.307c-0.215,0.275-0.453,0.477-0.717,0.602
			s-0.566,0.188-0.91,0.188c-0.572,0-1.049-0.219-1.426-0.658c-0.378-0.438-0.567-0.986-0.567-1.646v-0.124h4.147v-0.359
			c0-0.834-0.207-1.492-0.621-1.975C55.312,99.431,54.753,99.189,54.048,99.189z M55.708,101.698h-3.486
			c0.071-0.599,0.273-1.074,0.604-1.43c0.332-0.354,0.738-0.531,1.223-0.531c0.486,0,0.881,0.176,1.182,0.526
			s0.459,0.806,0.478,1.364V101.698z M58.238,100.221l-0.012-0.924h-0.628v5.812h0.64v-3.99c0.117-0.427,0.315-0.752,0.593-0.976
			c0.278-0.224,0.616-0.335,1.019-0.335c0.153,0,0.299,0.012,0.435,0.037l0.017-0.586c-0.104-0.046-0.246-0.069-0.425-0.069
			C59.124,99.189,58.578,99.533,58.238,100.221z M61.6,104.271c-0.143,0-0.256,0.044-0.336,0.131
			c-0.08,0.088-0.121,0.195-0.121,0.32s0.041,0.229,0.121,0.309s0.193,0.121,0.336,0.121s0.256-0.041,0.338-0.121
			s0.125-0.184,0.125-0.309s-0.043-0.232-0.125-0.32C61.855,104.314,61.742,104.271,61.6,104.271z M61.611,99.313
			c-0.145,0-0.256,0.043-0.336,0.131c-0.082,0.088-0.121,0.194-0.121,0.32c0,0.125,0.039,0.228,0.121,0.309
			c0.08,0.08,0.191,0.121,0.336,0.121c0.143,0,0.256-0.041,0.338-0.121c0.082-0.081,0.123-0.184,0.123-0.309
			c0-0.126-0.041-0.232-0.123-0.32S61.754,99.313,61.611,99.313z M66.402,98.249v0.602l2.127-0.789v7.047h0.645v-7.848h-0.107
			L66.402,98.249z M74.824,99.189c-0.795,0-1.402,0.31-1.822,0.929l-0.031-0.821h-0.596v8.046h0.639v-2.965
			c0.422,0.559,1.031,0.838,1.826,0.838c0.672,0,1.209-0.266,1.611-0.798c0.4-0.532,0.602-1.251,0.602-2.156v-0.091
			c0-0.936-0.199-1.666-0.594-2.191C76.063,99.452,75.518,99.189,74.824,99.189z M75.953,104.026
			c-0.303,0.432-0.723,0.646-1.264,0.646c-0.391,0-0.729-0.088-1.016-0.263s-0.506-0.43-0.66-0.763v-2.787
			c0.15-0.362,0.367-0.638,0.65-0.828c0.281-0.189,0.621-0.284,1.014-0.284c0.545,0,0.969,0.215,1.273,0.645
			s0.457,1.015,0.457,1.757C76.408,102.969,76.256,103.595,75.953,104.026z M80.582,102.149l1.971-2.853h-0.764l-1.568,2.358
			l-1.568-2.358h-0.756l1.971,2.853l-2.053,2.959h0.758l1.654-2.46l1.654,2.46h0.758L80.582,102.149z"/>
	</g>
</g>
<rect x="85" y="97" fill="#262D4C" width="1" height="9"/>
<path opacity="0.2" fill-rule="evenodd" clip-rule="evenodd" d="M39.969,49.353c0.004-0.001,0.019-0.005,0.019-0.005l-0.048-0.049
	c-0.026-0.037-0.063-0.075-0.116-0.117l-1.833-1.833l-0.721,0.721c-0.218-0.081-0.449-0.166-0.704-0.259l-0.125-0.046l-0.483-1.177
	l0.052-0.121c1.466-3.387,1.365-3.488,1.121-3.733l-1.953-1.944c-0.08-0.08-0.221-0.138-0.341-0.138c-0.11,0-0.442,0-3.328,1.333
	l-0.116,0.053l-1.189-0.488l-0.048-0.121c-1.027-2.595-1.356-3.224-1.602-3.377c0.001,0,0.007-0.002,0.007-0.002l-2-2l-3,3
	c0,0,0.484,0.083,1.111,0.162c-0.212,0.503-0.485,1.211-0.856,2.224l-0.047,0.125l-1.185,0.492l-0.113-0.048
	c-1.952-0.839-3.093-1.266-3.39-1.266c-0.121,0-0.262,0.056-0.342,0.136l-1.955,1.949c-0.248,0.25-0.352,0.354,1.189,3.671
	l0.057,0.123l-0.484,1.176l-0.118,0.047c-1.29,0.508-2.275,0.981-3.004,1.393L14.1,48.746l-2,2l1.978,1.978
	c0.207,0.245,0.915,0.578,3.357,1.471l0.123,0.044l0.484,1.173l-0.052,0.119c-1.464,3.39-1.372,3.481-1.122,3.734l1.95,1.946
	c0.082,0.08,0.224,0.137,0.344,0.137c0.109,0,0.441,0,3.328-1.332l0.116-0.055l1.19,0.491l0.046,0.122
	c0.092,0.233,0.178,0.447,0.26,0.65l-0.696,0.696l1.937,1.937c0.018,0.019,0.034,0.075,0.05,0.09L25.406,64h0.002
	c0.095,0,0.175,0,0.271,0h2.759c0.347,0,0.489,0,1.749-3.435l0.047-0.125l1.186-0.489l0.113,0.047
	c1.951,0.842,3.091,1.267,3.386,1.267c0.12,0,0.263-0.053,0.344-0.135l1.958-1.954c0.246-0.251,0.349-0.354-1.195-3.667
	l-0.057-0.125l0.482-1.17l0.111-0.046C40.005,52.806,40,52.673,40,52.319v-2.756C40,49.488,40.003,49.422,39.969,49.353z M27,55.472
	c-2.466,0-4.472-2.007-4.472-4.471c0-2.465,2.006-4.469,4.472-4.469c2.464,0,4.47,2.004,4.47,4.469
	C31.47,53.465,29.464,55.472,27,55.472z"/>
<path fill="#FFD200" d="M34.565,45.81l-0.125-0.046l-0.483-1.177l0.052-0.121c1.466-3.387,1.365-3.488,1.121-3.733l-1.953-1.944
	c-0.08-0.08-0.221-0.138-0.341-0.138c-0.11,0-0.442,0-3.328,1.333l-0.116,0.053l-1.189-0.488l-0.048-0.121
	C26.798,36,26.659,36,26.321,36h-2.759c-0.336,0-0.489,0-1.747,3.433l-0.047,0.125l-1.185,0.492l-0.113-0.048
	c-1.952-0.839-3.093-1.266-3.39-1.266c-0.121,0-0.262,0.056-0.342,0.136l-1.955,1.949c-0.248,0.25-0.352,0.354,1.189,3.671
	l0.057,0.123l-0.484,1.176l-0.118,0.047c-3.438,1.354-3.438,1.487-3.438,1.84v2.757c0,0.354,0,0.501,3.444,1.761l0.123,0.044
	l0.484,1.173l-0.052,0.119c-1.464,3.39-1.372,3.481-1.122,3.734l1.95,1.946c0.082,0.08,0.224,0.137,0.344,0.137
	c0.109,0,0.441,0,3.328-1.332l0.116-0.055l1.19,0.491l0.046,0.122C23.2,62,23.341,62,23.679,62h2.759c0.347,0,0.489,0,1.749-3.435
	l0.047-0.125l1.186-0.489l0.113,0.047c1.951,0.842,3.091,1.267,3.386,1.267c0.12,0,0.263-0.053,0.344-0.135l1.958-1.954
	c0.246-0.251,0.349-0.354-1.195-3.667l-0.057-0.125l0.482-1.17l0.116-0.046c3.443-1.362,3.443-1.495,3.443-1.849v-2.756
	C38.01,47.21,38.01,47.063,34.565,45.81z M25,53.472c-2.466,0-4.472-2.007-4.472-4.471c0-2.465,2.006-4.469,4.472-4.469
	c2.464,0,4.47,2.004,4.47,4.469C29.47,51.465,27.464,53.472,25,53.472z"/>
<g>
	<g>
		<path fill="#FFFFFF" d="M52.192,48.447c-0.434-0.265-1.035-0.507-1.804-0.727c-0.769-0.22-1.313-0.462-1.632-0.727
			c-0.32-0.265-0.48-0.59-0.48-0.974c0-0.479,0.168-0.852,0.506-1.122c0.336-0.27,0.805-0.404,1.406-0.404
			c0.648,0,1.15,0.163,1.506,0.489c0.355,0.326,0.533,0.774,0.533,1.344h1.227c0-0.521-0.137-1-0.41-1.439s-0.658-0.783-1.156-1.033
			s-1.064-0.375-1.699-0.375c-0.932,0-1.688,0.242-2.271,0.726c-0.582,0.484-0.873,1.097-0.873,1.837
			c0,0.654,0.238,1.204,0.715,1.649c0.477,0.446,1.238,0.821,2.283,1.126c0.834,0.246,1.41,0.494,1.729,0.746
			c0.317,0.252,0.477,0.608,0.477,1.068s-0.172,0.824-0.516,1.091c-0.342,0.267-0.836,0.4-1.479,0.4
			c-0.69,0-1.241-0.165-1.655-0.494c-0.412-0.329-0.619-0.778-0.619-1.346h-1.226c0,0.547,0.149,1.035,0.448,1.465
			c0.299,0.431,0.723,0.77,1.273,1.017c0.551,0.248,1.143,0.372,1.778,0.372c0.979,0,1.76-0.229,2.345-0.688
			c0.584-0.458,0.876-1.068,0.876-1.83c0-0.478-0.104-0.893-0.314-1.246C52.948,49.021,52.626,48.711,52.192,48.447z M59.063,51.103
			c-0.297,0.68-0.894,1.02-1.792,1.02c-0.847,0-1.27-0.529-1.27-1.588v-4.512h-1.176v4.544c0.004,0.848,0.198,1.488,0.582,1.92
			c0.383,0.433,0.94,0.649,1.674,0.649c0.885,0,1.556-0.273,2.013-0.82l0.026,0.69h1.117v-6.984h-1.175V51.103z M65.16,45.894
			c-0.835,0-1.489,0.299-1.963,0.897v-3.699h-1.175v9.915h1.08l0.057-0.807c0.475,0.624,1.146,0.936,2.014,0.936
			c0.813,0,1.461-0.324,1.943-0.972c0.482-0.647,0.725-1.505,0.725-2.572v-0.104c0-1.114-0.238-1.992-0.715-2.634
			C66.649,46.214,65.995,45.894,65.16,45.894z M66.195,51.458c-0.313,0.443-0.751,0.665-1.314,0.665
			c-0.763,0-1.323-0.366-1.684-1.097v-3.021c0.339-0.732,0.896-1.098,1.671-1.098c0.58,0,1.024,0.222,1.334,0.665
			c0.309,0.443,0.463,1.071,0.463,1.885C66.665,50.348,66.509,51.015,66.195,51.458z M76.651,45.894c-0.5,0-0.934,0.104-1.299,0.31
			c-0.367,0.207-0.664,0.478-0.893,0.813c-0.348-0.749-1.002-1.124-1.963-1.124c-0.855,0-1.535,0.301-2.039,0.904l-0.032-0.774
			h-1.111v6.984h1.175v-5.1c0.283-0.667,0.811-1,1.582-1c0.979,0,1.467,0.508,1.467,1.523v4.577h1.182v-4.635
			c0.047-0.447,0.214-0.804,0.502-1.068s0.65-0.397,1.086-0.397c0.529,0,0.906,0.124,1.131,0.371s0.337,0.621,0.337,1.12v4.609
			h1.175v-4.68C78.925,46.705,78.158,45.894,76.651,45.894z M81.421,43.479c-0.229,0-0.4,0.067-0.518,0.2
			c-0.116,0.133-0.174,0.297-0.174,0.491c0,0.193,0.058,0.355,0.174,0.484c0.117,0.129,0.289,0.194,0.518,0.194
			s0.402-0.064,0.521-0.194c0.118-0.129,0.178-0.291,0.178-0.484c0-0.194-0.06-0.357-0.178-0.491
			C81.823,43.546,81.649,43.479,81.421,43.479z M80.824,53.007h1.175v-6.984h-1.175V53.007z M86.229,52.123
			c-0.275,0-0.47-0.07-0.584-0.21c-0.115-0.14-0.172-0.35-0.172-0.63v-4.337h1.283v-0.923h-1.283v-1.691h-1.175v1.691h-1.251v0.923
			h1.251v4.332c0,0.594,0.134,1.052,0.399,1.375c0.268,0.323,0.663,0.484,1.188,0.484c0.292,0,0.593-0.043,0.901-0.128v-0.963
			C86.552,52.097,86.365,52.123,86.229,52.123z"/>
	</g>
</g>
<path fill="#FFFFFF" d="M107.34,40.46C105.14,37.74,101.78,36,98,36H47v2h51c2.66,0,5.08,1.04,6.87,2.74
	C106.8,42.57,108,45.15,108,48v2c0,5.51-4.49,10-10,10H47v2h51c6.63,0,12-5.37,12-12v-2C110,45.14,109.01,42.52,107.34,40.46z"/>
</svg>
