<?xml version="1.0" encoding="utf-8"?>
<!-- Generator: Adobe Illustrator 16.0.0, SVG Export Plug-In . SVG Version: 6.00 Build 0)  -->
<!DOCTYPE svg PUBLIC "-//W3C//DTD SVG 1.1//EN" "http://www.w3.org/Graphics/SVG/1.1/DTD/svg11.dtd">
<svg version="1.1" id="Слой_1" xmlns="http://www.w3.org/2000/svg" xmlns:xlink="http://www.w3.org/1999/xlink" x="0px" y="0px"
	 width="120px" height="120px" viewBox="0 0 120 120" enable-background="new 0 0 120 120" xml:space="preserve">
<path fill-rule="evenodd" clip-rule="evenodd" fill="#A9A0FF" d="M119.97,58c-0.08-2.41-0.3-4.79-0.66-7.11
	c-0.52-3.4-1.319-6.71-2.39-9.89c-0.68-2.05-1.47-4.05-2.37-6c-0.46-1.02-0.95-2.02-1.479-3c-0.181-0.34-0.36-0.67-0.551-1
	c-0.939-1.72-1.97-3.39-3.09-5C98.63,10.3,80.52,0,60,0C26.86,0,0,26.86,0,60c0,31,23.51,56.51,53.67,59.67
	c2.08,0.22,4.19,0.33,6.33,0.33c0.98,0,1.95-0.02,2.92-0.08c9.8-0.46,18.99-3.29,27.01-7.92c3.23-1.85,6.261-4,9.07-6.42
	c3.34-2.85,6.36-6.061,9-9.58c0.74-0.98,1.44-1.98,2.11-3c2.29-3.47,4.229-7.2,5.77-11.12C118.54,75.1,120,67.72,120,60
	C120,59.33,119.99,58.66,119.97,58z"/>
<path opacity="0.2" fill-rule="evenodd" clip-rule="evenodd" d="M83,49l-46,54l16.67,16.67c2.08,0.22,4.19,0.33,6.33,0.33
	c0.98,0,1.95-0.02,2.92-0.08c9.8-0.46,18.99-3.29,27.01-7.92c3.23-1.85,6.261-4,9.07-6.42c3.34-2.85,6.36-6.061,9-9.58
	c0.74-0.98,1.44-1.98,2.11-3c2.29-3.47,4.229-7.2,5.77-11.12L83,49z"/>
<rect x="37" y="48.958" fill="#FFFFFF" width="45.75" height="54.042"/>
<g>
	<rect x="22" y="67" fill="#FFFFFF" width="16" height="2"/>
	<rect x="59" y="33" fill="#FFFFFF" width="2" height="17"/>
	<rect x="82" y="67" fill="#FFFFFF" width="15" height="2"/>
	<rect x="27" y="48" transform="matrix(-0.7071 -0.7071 0.7071 -0.7071 30.2218 110.5183)" fill="#FFFFFF" width="22" height="2"/>
	<rect x="70" y="49" transform="matrix(0.7071 -0.7071 0.7071 0.7071 -11.6315 71.9189)" fill="#FFFFFF" width="22" height="2"/>
</g>
<rect x="37" y="48.958" fill="#C8DDEA" width="45.75" height="7"/>
<circle opacity="0.2" cx="28" cy="38" r="9"/>
<circle opacity="0.2" cx="17" cy="69" r="9"/>
<circle opacity="0.2" cx="61" cy="26" r="9"/>
<circle opacity="0.2" cx="94" cy="38" r="9"/>
<circle opacity="0.2" cx="105" cy="69" r="9"/>
<circle fill="#FF4747" cx="40.5" cy="52.458" r="1.5"/>
<circle fill="#FFF72A" cx="45.5" cy="52.458" r="1.5"/>
<circle fill="#00CA13" cx="50.5" cy="52.458" r="1.5"/>
<path fill-rule="evenodd" clip-rule="evenodd" fill="#9296A5" d="M44,63h15v2H44V63z"/>
<path fill-rule="evenodd" clip-rule="evenodd" fill="#9296A5" d="M44,67h15v2H44V67z"/>
<path fill-rule="evenodd" clip-rule="evenodd" fill="#9296A5" d="M44,70.959h15v2H44V70.959z"/>
<path fill-rule="evenodd" clip-rule="evenodd" fill="#9296A5" d="M44,74.979h15v2H44V74.979z"/>
<rect x="62" y="63" fill="#CFCFCF" width="15" height="14"/>
<polygon opacity="0.2" enable-background="new    " points="60,90 48,90 47,89 59,84 60,85 "/>
<rect x="47" y="84" fill="#7D8FFC" width="12" height="5"/>
<polygon opacity="0.2" enable-background="new    " points="75,90 63,90 62,89 74,84 75,85 "/>
<rect x="62" y="84" fill="#7D8FFC" width="12" height="5"/>
<circle fill="#FFFFFF" cx="16" cy="68" r="9"/>
<circle fill="#FFFFFF" cx="27" cy="37" r="9"/>
<circle fill="#FFFFFF" cx="93" cy="37" r="9"/>
<circle fill="#FFFFFF" cx="104" cy="68" r="9"/>
<circle fill="#FFFFFF" cx="60" cy="25" r="9"/>
<g>
	<g>
		<path fill="#F8AA35" d="M24.178,33.277L22,39.999h1.67l0.508-1.725h2.041l0.55,1.725h1.734l-2.209-6.722H24.178z M24.411,37.137
			l0.423-1.427c0.117-0.388,0.222-0.897,0.328-1.296h0.021c0.105,0.399,0.232,0.898,0.359,1.296l0.444,1.427H24.411z M30.132,34.524
			c0.529,0,0.868-0.339,0.868-0.759c-0.011-0.438-0.339-0.767-0.858-0.767c-0.517,0-0.855,0.329-0.845,0.767
			C29.287,34.186,29.625,34.524,30.132,34.524z M29.339,39.999h1.607v-4.877h-1.607V39.999z"/>
	</g>
</g>
<path fill="#4183C4" d="M16.015,67.963c-0.004,0-0.009-0.001-0.013-0.001c-0.005,0-0.009,0-0.014,0
	c-1.117-0.008-2.099-0.298-2.685,0.231c-0.351,0.318-0.501,0.703-0.504,1.118c-0.013,1.737,1.377,1.96,3.164,1.974h0.026
	c1.787,0.014,3.18-0.189,3.193-1.926c0.003-0.415-0.142-0.803-0.487-1.125C18.118,67.695,17.132,67.971,16.015,67.963z
	 M14.478,70.324c-0.34-0.004-0.612-0.387-0.608-0.857c0.003-0.471,0.281-0.851,0.622-0.848c0.34,0.003,0.612,0.386,0.609,0.856
	C15.097,69.947,14.818,70.326,14.478,70.324z M17.49,70.346c-0.34-0.002-0.613-0.386-0.609-0.856
	c0.003-0.471,0.282-0.851,0.622-0.849c0.34,0.004,0.612,0.387,0.609,0.857C18.108,69.969,17.83,70.349,17.49,70.346z M16.795,71.71
	c-0.161-0.001-0.482-0.003-0.821-0.005c-0.339-0.004-0.66-0.006-0.821-0.008c-0.713-0.005-3.536-0.081-3.511-3.484
	c0.006-0.783,0.278-1.354,0.722-1.828c-0.068-0.174-0.065-1.156,0.316-2.095c0,0,0.857,0.101,2.148,1.001
	c0.273-0.072,0.734-0.106,1.194-0.104c0.461,0.004,0.921,0.045,1.193,0.122c1.305-0.882,2.163-0.97,2.163-0.97
	c0.367,0.944,0.356,1.928,0.285,2.1c0.436,0.48,0.7,1.057,0.694,1.839C20.333,71.683,17.508,71.715,16.795,71.71z"/>
<path fill-rule="evenodd" clip-rule="evenodd" fill="#ED821C" d="M96.453,33.847L94.563,33h-4.125l-1.891,0.847L87,35.711L92.501,43
	L98,35.711L96.453,33.847z M97.657,35.711l-1.72,1.356l-1.203-1.865l1.719-0.848L97.657,35.711z M95.251,37.237H89.75l1.031-1.864
	h3.438L95.251,37.237z M90.781,33.338h3.438l1.548,0.678l-1.376,0.848h-3.781l-1.375-0.848L90.781,33.338z M88.547,34.355
	l1.719,0.848l-1.203,1.865l-1.719-1.356L88.547,34.355z M88.032,36.729l1.202,1.017l2.063,3.39L88.032,36.729z M89.75,37.746h5.501
	l-2.75,4.576L89.75,37.746z M93.703,41.135l2.063-3.39l1.201-1.017L93.703,41.135z"/>
<g>
	<path fill-rule="evenodd" clip-rule="evenodd" fill="#205181" d="M104.5,71.141c-1.664,0-3.046-0.568-3.319-1.219l0.297,1.684
		c0,0.77,1.354,1.395,3.022,1.395s3.021-0.625,3.021-1.395l0.297-1.684C107.545,70.572,106.163,71.141,104.5,71.141z"/>
	<path fill-rule="evenodd" clip-rule="evenodd" fill="#205181" d="M104.5,63c-2.375,0-4.303,0.627-4.303,1.396
		c0,0.051,0.008,0.098,0.023,0.146l0.674,4.158c0,0.386,0.403,0.735,1.058,0.988c0.652,0.252,1.553,0.407,2.548,0.407
		c1.988,0,3.603-0.624,3.605-1.396l0.672-4.158c0.018-0.048,0.025-0.095,0.025-0.146C108.803,63.627,106.877,63,104.5,63z
		 M104.5,69.28c-0.771,0-1.396-0.626-1.396-1.396c0-0.771,0.625-1.396,1.396-1.396s1.396,0.625,1.396,1.396
		C105.896,68.654,105.271,69.28,104.5,69.28z M104.5,64.978c-1.542,0-2.791-0.313-2.791-0.699c0-0.384,1.249-0.697,2.791-0.697
		c1.539,0,2.79,0.313,2.79,0.697C107.29,64.664,106.039,64.978,104.5,64.978z"/>
	<circle fill-rule="evenodd" clip-rule="evenodd" fill="#205181" cx="104.5" cy="67.884" r="0.698"/>
</g>
<g>
	<path fill="#66595C" d="M63.74,23.692c-0.961-0.41-2.25-0.675-3.63-0.748c-0.222-0.012-0.436-0.018-0.64-0.019
		c1.021-1.244,2.113-2.08,2.832-2.108c0.143-0.005,0.262,0.024,0.359,0.086c0.309,0.202,0.396,0.778,0.238,1.581
		c-0.021,0.109,0.051,0.215,0.158,0.237c0.111,0.021,0.217-0.05,0.24-0.16c0.195-1.001,0.053-1.692-0.418-1.997
		c-0.168-0.109-0.365-0.16-0.596-0.151c-0.9,0.035-2.174,1.012-3.338,2.517c-0.51,0.016-0.988,0.058-1.426,0.126
		c-0.054-0.238-0.095-0.47-0.122-0.69c-0.111-0.912,0.029-1.539,0.385-1.72c0.061-0.031,0.126-0.049,0.201-0.054
		c0.307-0.024,0.731,0.175,1.193,0.56c0.086,0.071,0.213,0.059,0.284-0.027s0.059-0.213-0.026-0.284
		c-0.551-0.458-1.063-0.683-1.481-0.652c-0.127,0.009-0.246,0.042-0.354,0.098c-0.523,0.266-0.738,1.021-0.603,2.128
		c0.027,0.228,0.07,0.466,0.125,0.712c-1.444,0.29-2.364,0.868-2.403,1.595c-0.027,0.515,0.381,1.005,1.179,1.416
		c0.099,0.051,0.221,0.012,0.272-0.087c0.051-0.099,0.012-0.221-0.087-0.272c-0.637-0.329-0.979-0.696-0.961-1.036
		c0.025-0.476,0.783-0.963,2.095-1.224c0.118,0.438,0.274,0.895,0.464,1.36c-0.446,0.83-0.771,1.649-0.938,2.375
		c-0.25,1.085-0.116,1.858,0.376,2.178c0.159,0.103,0.342,0.154,0.548,0.154c0.411,0,0.909-0.203,1.473-0.606
		c0.091-0.064,0.112-0.19,0.047-0.281s-0.19-0.112-0.281-0.047c-0.681,0.485-1.252,0.646-1.567,0.442
		c-0.334-0.218-0.408-0.855-0.203-1.75c0.14-0.61,0.399-1.29,0.751-1.989c0.087,0.193,0.18,0.385,0.277,0.578
		c0.627,1.231,1.394,2.302,2.16,3.014c0.61,0.568,1.178,0.863,1.643,0.863c0.156,0,0.301-0.033,0.434-0.1
		c0.502-0.256,0.721-0.971,0.613-2.014c-0.098-0.971-0.467-2.159-1.037-3.342c-0.047-0.101-0.168-0.143-0.27-0.094
		c-0.1,0.048-0.141,0.168-0.094,0.27c1.186,2.464,1.27,4.481,0.602,4.821c-0.697,0.356-2.384-1.036-3.691-3.6
		c-0.145-0.283-0.277-0.566-0.396-0.849c0.149-0.268,0.311-0.537,0.484-0.805c0.174-0.267,0.354-0.523,0.539-0.769
		c0.058-0.001,0.115-0.002,0.173-0.002c0.238,0,0.496,0.006,0.763,0.02c1.335,0.07,2.575,0.324,3.495,0.715
		c0.842,0.359,1.314,0.793,1.295,1.192c-0.02,0.336-0.408,0.676-1.068,0.932c-0.104,0.041-0.154,0.158-0.115,0.261
		c0.031,0.081,0.107,0.129,0.189,0.129c0.023,0,0.049-0.005,0.072-0.014c0.838-0.325,1.299-0.771,1.324-1.287
		C65.313,24.69,64.766,24.128,63.74,23.692z M58.275,23.879c-0.118,0.182-0.23,0.365-0.338,0.548
		c-0.126-0.333-0.232-0.659-0.318-0.975c0.313-0.048,0.654-0.083,1.018-0.104C58.515,23.521,58.394,23.698,58.275,23.879z"/>
	<circle fill="#66595C" cx="60.034" cy="25.072" r="0.606"/>
</g>
</svg>
