<?xml version="1.0" encoding="utf-8"?>
<!-- Generator: Adobe Illustrator 16.0.0, SVG Export Plug-In . SVG Version: 6.00 Build 0)  -->
<!DOCTYPE svg PUBLIC "-//W3C//DTD SVG 1.1//EN" "http://www.w3.org/Graphics/SVG/1.1/DTD/svg11.dtd">
<svg version="1.1" id="Слой_1" xmlns="http://www.w3.org/2000/svg" xmlns:xlink="http://www.w3.org/1999/xlink" x="0px" y="0px"
	 width="120px" height="120px" viewBox="0 0 120 120" enable-background="new 0 0 120 120" xml:space="preserve">
<path fill-rule="evenodd" clip-rule="evenodd" fill="#7FCBFB" d="M118.46,46.46C112.33,19.84,88.48,0,60,0C26.86,0,0,26.86,0,60
	c0,28.94,20.48,53.09,47.74,58.74C51.7,119.57,55.8,120,60,120c33.14,0,60-26.86,60-60C120,55.34,119.47,50.81,118.46,46.46z"/>
<path opacity="0.2" fill-rule="evenodd" clip-rule="evenodd" d="M118.46,46.46L93,21L28,99l19.74,19.74C51.7,119.57,55.8,120,60,120
	c33.14,0,60-26.86,60-60C120,55.34,119.47,50.81,118.46,46.46z"/>
<rect x="28" y="21" fill="#FFFFFF" width="65" height="78"/>
<rect x="28" y="21" fill="#C8DDEA" width="65" height="7"/>
<circle fill="#FF4747" cx="31.5" cy="24.5" r="1.5"/>
<circle fill="#FFF72A" cx="36.5" cy="24.5" r="1.5"/>
<circle fill="#00CA13" cx="41.5" cy="24.5" r="1.5"/>
<rect x="31" y="35" fill="#CFCFCF" width="59" height="22"/>
<path fill-rule="evenodd" clip-rule="evenodd" fill="#FFFFFF" d="M60.5,38.5c4.143,0,7.5,3.358,7.5,7.5c0,4.142-3.357,7.5-7.5,7.5
	S53,50.142,53,46C53,41.858,56.357,38.5,60.5,38.5z"/>
<path fill-rule="evenodd" clip-rule="evenodd" fill="#7D8FFC" d="M57.75,42.5v7l7-3.5L57.75,42.5z"/>
<polygon opacity="0.2" points="60,91 43,91 42,90 59,85 60,86 "/>
<rect x="42" y="85" fill="#7D8FFC" width="17" height="5"/>
<polygon opacity="0.2" points="80,91 63,91 62,90 79,85 80,86 "/>
<rect x="62" y="85" fill="#7D8FFC" width="17" height="5"/>
<rect x="62" y="62" fill="#CFCFCF" width="28" height="16"/>
<rect x="31" y="62" fill="#9296A5" width="21" height="3"/>
<rect x="31" y="67" fill="#9296A5" width="28" height="1"/>
<rect x="31" y="69" fill="#9296A5" width="28" height="1"/>
<rect x="31" y="71" fill="#9296A5" width="28" height="1"/>
<rect x="31" y="73" fill="#9296A5" width="28" height="1"/>
<rect x="31" y="75" fill="#9296A5" width="28" height="1"/>
<rect x="31" y="77" fill="#9296A5" width="17" height="1"/>
</svg>
