<?xml version="1.0" encoding="UTF-8" standalone="no"?>
<svg width="307px" height="64px" viewBox="0 0 307 64" version="1.1" xmlns="http://www.w3.org/2000/svg" xmlns:xlink="http://www.w3.org/1999/xlink" xmlns:sketch="http://www.bohemiancoding.com/sketch/ns">
    <!-- Generator: Sketch 3.3.3 (12072) - http://www.bohemiancoding.com/sketch -->
    <title>Clip 2</title>
    <desc>Created with Sketch.</desc>
    <defs>
        <path d="M584.676243,173.488156 C580.978472,173.002172 578.121267,169.836936 578.122874,166.003906 C578.122874,161.834334 581.503986,158.45497 585.670062,158.45497 C589.836137,158.45497 593.217249,161.834334 593.217249,166.003906 C593.217249,169.836936 590.359915,173.002172 586.660775,173.488156 L584.676243,173.488156 M600.680521,124.965527 C596.514446,124.965527 593.135082,128.341394 593.135082,132.514463 C593.135082,136.684035 596.514446,140.063399 600.680521,140.065147 C604.850093,140.063399 608.231205,136.684035 608.232953,132.514463 C608.231205,128.341394 604.848345,124.965527 600.680521,124.965527 M588.145581,139.302911 C586.773207,137.927039 584.547687,137.927039 583.173563,139.302911 C581.801189,140.675286 581.801189,142.904302 583.173563,144.276677 L597.601856,158.713711 C598.977727,160.084337 601.203247,160.084337 602.575622,158.711962 C603.949745,157.339587 603.949745,155.112319 602.575622,153.739944 L588.145581,139.302911 M552.149151,143.573881 C547.981327,143.573881 544.600215,146.954993 544.598467,151.124565 C544.598467,155.294137 547.981327,158.676997 552.149151,158.676997 C556.315226,158.676997 559.69459,155.295885 559.69459,151.124565 C559.69459,146.956741 556.315226,143.573881 552.149151,143.573881 M564.68409,144.334369 C566.056465,145.708492 568.281985,145.708492 569.657857,144.336117 C571.028483,142.958498 571.028483,140.732978 569.656108,139.360603 L555.224319,124.923569 C553.853693,123.547698 551.624676,123.547698 550.252301,124.923569 C548.879927,126.294196 548.879927,128.521464 550.252301,129.899084 L564.68409,144.334369 M567.164855,125.278464 C571.33093,125.278464 574.710294,121.8991 574.710294,117.729528 C574.710294,113.561704 571.33093,110.178844 567.164855,110.178844 C562.997031,110.178844 559.615919,113.559956 559.614171,117.729528 C559.617667,121.8991 562.997031,125.278464 567.164855,125.278464 M573.948058,135.245227 C575.322181,136.621098 577.551197,136.622846 578.923572,135.245227 L593.353613,120.809941 C594.725988,119.437566 594.725988,117.210298 593.353613,115.834427 C591.981238,114.462052 589.75397,114.462052 588.378098,115.834427 L573.948058,130.273209 C572.575683,131.645584 572.575683,133.871104 573.948058,135.245227 M578.885111,148.486459 C577.510988,147.112335 575.283719,147.112335 573.909596,148.488207 L559.477807,162.925241 C558.105432,164.297615 558.105432,166.526632 559.477807,167.899007 C560.850182,169.271381 563.079199,169.271381 564.451573,167.899007 L578.883362,153.460225 C580.255737,152.08785 580.257485,149.858833 578.885111,148.486459 M833.772706,125.449792 C824.718529,125.449792 817.381131,132.790686 817.381131,141.850108 L817.381131,154.794138 C817.381131,156.739938 818.954555,158.31511 820.896858,158.31511 C822.839162,158.31511 824.412585,156.739938 824.412585,154.794138 L824.414334,141.850108 C824.412585,136.677042 828.603136,132.482994 833.772706,132.482994 C838.940528,132.482994 843.129331,136.677042 843.127582,141.846612 L843.129331,154.794138 C843.129331,156.741687 844.702754,158.316858 846.645058,158.31511 C848.587362,158.313362 850.162533,156.73819 850.162533,154.797635 L850.162533,141.846612 C850.162533,132.790686 842.823387,125.449792 833.772706,125.449792 M807.043739,125.556435 C805.101436,125.556435 803.528012,127.131607 803.528012,129.077407 L803.526264,154.795886 C803.528012,156.741687 805.101436,158.316858 807.043739,158.31511 C808.986043,158.313362 810.559467,156.73819 810.559467,154.797635 L810.559467,129.07391 C810.559467,127.12811 808.986043,125.554687 807.043739,125.556435 M780.540297,125.364128 C771.472133,125.364128 764.113756,132.722504 764.106763,141.794164 C764.105015,150.874566 771.449406,158.232942 780.526311,158.234691 L785.311266,158.231194 C787.25357,158.234691 788.828741,156.654274 788.826993,154.71197 C788.826993,152.769667 787.251821,151.194495 785.311266,151.196243 L780.526311,151.194495 C775.33751,151.194495 771.134721,146.98821 771.138218,141.801157 C771.143463,136.612357 775.353244,132.402575 780.538548,132.402575 L780.732604,132.402575 C784.746582,132.400827 788.174897,134.925297 789.517551,138.472493 L780.788548,138.472493 C778.846244,138.474241 777.272821,140.049413 777.272821,141.989968 C777.272821,143.932272 778.846244,145.509192 780.788548,145.509192 L793.641669,145.509192 C795.582224,145.509192 797.159144,143.930524 797.157396,141.989968 L797.159144,141.801157 C797.157396,132.722504 789.802516,125.364128 780.730856,125.364128 L780.540297,125.364128 M690.585933,125.886854 L682.57546,125.886854 C676.206592,125.886854 671.047511,131.049431 671.047511,137.421796 L671.047511,154.841341 C671.047511,156.785393 672.62618,158.362313 674.564987,158.362313 C676.509039,158.362313 678.082462,156.785393 678.08421,154.841341 L678.082462,137.421796 C678.082462,134.934038 680.092948,132.921805 682.57546,132.921805 L690.585933,132.921805 C692.528237,132.923553 694.103409,131.35013 694.103409,129.407826 C694.105157,127.463774 692.528237,125.886854 690.585933,125.886854 M756.174961,134.309914 C758.115517,134.311662 759.690689,132.73649 759.690689,130.792438 C759.690689,128.850135 758.115517,127.276711 756.173213,127.276711 L742.388276,127.276711 L742.388276,121.566933 C742.388276,119.621132 740.814853,118.045961 738.870801,118.045961 C736.928497,118.045961 735.355073,119.621132 735.355073,121.566933 L735.355073,146.762686 C735.355073,153.14554 740.526392,158.322103 746.912742,158.322103 L755.860277,158.322103 C757.799084,158.322103 759.376004,156.743435 759.376004,154.801131 C759.376004,152.860576 757.799084,151.283656 755.858528,151.281907 L746.912742,151.283656 C744.412747,151.283656 742.388276,149.259184 742.390024,146.762686 L742.388276,134.311662 L756.174961,134.309914 M712.991482,151.502187 C707.77471,151.502187 703.549194,147.271426 703.547446,142.051157 C703.547446,136.834384 707.77471,132.601875 712.991482,132.605372 C718.210003,132.601875 722.437267,136.834384 722.437267,142.051157 C722.437267,147.269678 718.210003,151.502187 712.991482,151.502187 M712.994979,125.565176 C703.893599,125.565176 696.515991,132.948028 696.514243,142.051157 C696.515991,151.157782 703.893599,158.537138 712.991482,158.535389 C722.092863,158.538886 729.472218,151.157782 729.47047,142.052905 C729.472218,132.948028 722.092863,125.565176 712.994979,125.565176 M655.32027,148.250445 C653.596498,150.16128 651.168181,151.234705 648.157698,151.236453 C645.288822,151.236453 642.940925,150.140301 641.201418,148.238207 C639.767854,146.673525 638.923451,144.694508 638.923451,143.418287 L638.923451,141.542417 C638.923451,136.50921 642.80631,132.365862 647.851754,132.362365 C653.148946,132.364114 657.841244,136.850118 657.842993,141.542417 C657.842993,144.024929 656.930407,146.465484 655.32027,148.250445 M647.851754,125.327415 C638.816807,125.327415 631.890248,132.720756 631.891996,141.542417 L631.890248,152.15778 L631.891996,159.110563 L631.891996,165.343068 C631.8885,167.288868 633.461923,168.862291 635.409472,168.862291 C637.350027,168.862291 638.923451,167.288868 638.923451,165.346564 L638.923451,155.507423 C641.537082,157.278399 644.669942,158.271404 648.157698,158.271404 C653.159436,158.271404 657.479357,156.355324 660.538791,152.967219 C663.33424,149.876316 664.874447,145.739961 664.874447,141.542417 C664.876195,132.890336 656.963624,125.327415 647.851754,125.327415" id="path-1"></path>
    </defs>
    <g id="Page-1" stroke="none" stroke-width="1" fill="none" fill-rule="evenodd" sketch:type="MSPage">
        <g id="Artboard-1" sketch:type="MSArtboardGroup" transform="translate(-544.000000, -110.000000)">
            <mask id="mask-2" sketch:name="Clip 2" fill="white">
                <use xlink:href="#path-1"></use>
            </mask>
            <use id="Clip-2" fill="#262D4C" sketch:type="MSShapeGroup" xlink:href="#path-1"></use>
        </g>
    </g>
</svg>