<?xml version="1.0" encoding="UTF-8" standalone="no"?>
<svg width="37px" height="37px" viewBox="0 0 37 37" version="1.1" xmlns="http://www.w3.org/2000/svg" xmlns:xlink="http://www.w3.org/1999/xlink">
    <title>Protein</title>
    <g stroke="none" stroke-width="1" fill="none" fill-rule="evenodd">
        <path d="M19.8811296,21.9015379 C19.1059585,21.1187386 17.849056,21.1187386 17.0738849,21.9015379 L8.9289166,30.1266579 C8.1537455,30.9094573 8.1537455,32.1787284 8.9289166,32.9616423 C9.7040878,33.744327 10.9608768,33.744327 11.7361613,32.9616423 L19.8811296,24.7362932 C20.6563007,23.9534939 20.6563007,22.6843373 19.8811296,21.9015379 L19.8811296,21.9015379 Z M23.7119541,27.5806702 C21.3594447,27.5806702 19.4523695,29.5063977 19.4523695,31.8821719 C19.4523695,34.2578315 21.3594447,36.183559 23.7119541,36.183559 C26.0644635,36.183559 27.9714253,34.2578315 27.9714253,31.8821719 C27.9714253,29.5063977 26.0644635,27.5806702 23.7119541,27.5806702 L23.7119541,27.5806702 Z M17.0965706,14.3581887 C17.8717418,15.140988 19.1286442,15.1411026 19.9038153,14.3581887 L28.0486702,6.1330687 C28.8239548,5.3502694 28.8239548,4.0811128 28.0486702,3.2983135 C27.2736125,2.5153996 26.0167101,2.5153996 25.2416524,3.2981989 L17.0965706,11.5233189 C16.3213995,12.3061182 16.3213995,13.5752749 17.0965706,14.3581887 L17.0965706,14.3581887 Z M13.2660864,8.6795146 C15.6185958,8.6795146 17.5256711,6.7536726 17.5256711,4.378013 C17.5256711,2.0023534 15.6185958,0.0765113 13.2660864,0.0765113 C10.9136905,0.0765113 9.0065018,2.0023534 9.0065018,4.378013 C9.0065018,6.7536726 10.9136905,8.6795146 13.2660864,8.6795146 L13.2660864,8.6795146 Z M11.8664908,19.5358437 C12.6417754,20.3186431 13.8985644,20.3186431 14.6737355,19.5358437 C15.4490201,18.7530444 15.4489066,17.4837733 14.6737355,16.7010885 L6.5286538,8.475854 C5.7534827,7.6930546 4.4966936,7.6930546 3.7215225,8.475854 C2.946238,9.2586533 2.946238,10.5279244 3.7215225,11.3107237 L11.8664908,19.5358437 L11.8664908,19.5358437 Z M4.790814,19.1029789 C2.4384181,19.1029789 0.5312294,21.0288209 0.5312294,23.4044805 C0.5312294,25.7800256 2.4384181,27.7059822 4.790814,27.7059822 C7.1433234,27.7059822 9.0503987,25.7800256 9.0503987,23.4044805 C9.0503987,21.0288209 7.1433234,19.1029789 4.790814,19.1029789 L4.790814,19.1029789 Z M25.1097349,16.6683287 C24.3345638,15.8855294 23.0777747,15.8855294 22.3024902,16.6683287 C21.5273191,17.4512425 21.5273191,18.7203992 22.3024902,19.5031985 L30.4474585,27.7283185 C31.222743,28.5111178 32.479532,28.5111178 33.2547032,27.7283185 C34.0298743,26.9455192 34.0299877,25.6763625 33.2548166,24.8935632 L25.1097349,16.6683287 L25.1097349,16.6683287 Z M32.1858654,8.4988775 C29.833356,8.4988775 27.9262807,10.4247195 27.9262807,12.8003791 C27.9262807,15.1759242 29.833356,17.1017663 32.1858654,17.1017663 C34.5383748,17.1017663 36.4453366,15.1759242 36.4453366,12.8003791 C36.4453366,10.4247195 34.5383748,8.4988775 32.1858654,8.4988775 L32.1858654,8.4988775 Z" id="logo" fill="#FFFFFF"></path>
    </g>
</svg>
