<?xml version="1.0" encoding="UTF-8" standalone="no"?>
<svg width="173px" height="37px" viewBox="0 0 173 37" version="1.1" xmlns="http://www.w3.org/2000/svg" xmlns:xlink="http://www.w3.org/1999/xlink" xmlns:sketch="http://www.bohemiancoding.com/sketch/ns">
    <!-- Generator: Sketch 3.3.3 (12081) - http://www.bohemiancoding.com/sketch -->
    <title>logo</title>
    <desc>Created with Sketch.</desc>
    <defs></defs>
    <g id="Page-1" stroke="none" stroke-width="1" fill="none" fill-rule="evenodd" sketch:type="MSPage">
        <g id="p_landing-copy" sketch:type="MSArtboardGroup" transform="translate(-39.000000, -35.000000)" fill="#FFFFFF">
            <g id="header-copy-3" sketch:type="MSLayerGroup" transform="translate(-3.000000, 0.000000)">
                <path d="M100.808922,43.7066618 C95.7083772,43.7066618 91.8007616,47.918933 91.8007616,52.9442434 L91.8007616,58.9931264 L91.8007616,62.9537427 L91.8007616,65.4990432 L91.8007616,66.5056631 C91.8007616,67.6126242 92.6894747,68.5101974 93.7857623,68.5101974 C94.8820498,68.5101974 95.7708764,67.6126242 95.7708764,66.505434 L95.7708764,60.9021304 C97.2452215,61.9097812 99.0135735,62.4773508 100.981333,62.4773508 C103.804798,62.4773508 106.243853,61.3833332 107.969897,59.4546275 C109.548596,57.6908663 110.418026,55.3385739 110.418026,52.9442434 C110.418026,48.0156089 105.952342,43.7066618 100.808922,43.7066618 L100.808922,43.7066618 Z M105.024723,56.7664896 C104.051165,57.8540927 102.682309,58.4680529 100.981447,58.4680529 C99.3637276,58.4680529 98.0397889,57.8433255 97.0567031,56.7603042 C96.24739,55.8690309 95.7708764,54.7401917 95.7708764,54.0136339 L95.7708764,52.9441289 C95.7708764,50.0764993 97.9611829,47.715616 100.809148,47.715616 C103.79924,47.715616 106.447912,50.2714546 106.447912,52.9441289 C106.447912,54.3593302 105.933853,55.750477 105.024723,56.7664896 Z M137.577033,43.8425119 C132.440191,43.8425119 128.275887,48.047796 128.275887,53.2351873 C128.275887,58.4225786 132.440191,62.6278627 137.577033,62.6278627 C142.713874,62.6278627 146.878179,58.4225786 146.878179,53.2351873 C146.878179,48.047796 142.713874,43.8425119 137.577033,43.8425119 Z M137.577033,58.6187939 C134.632766,58.6187939 132.245888,56.2084272 132.245888,53.2351873 C132.245888,50.2618328 134.632766,47.8515807 137.577033,47.8515807 C140.521299,47.8515807 142.908178,50.2618328 142.908178,53.2351873 C142.908178,56.2084272 140.521299,58.6187939 137.577033,58.6187939 Z M161.949892,48.8252117 C163.04618,48.8252117 163.934893,47.927753 163.934893,46.8206773 C163.934893,45.7136016 163.04618,44.8161429 161.949892,44.8161429 L154.169257,44.8161429 L154.169257,41.5632991 C154.169257,40.4562234 153.28043,39.5587647 152.184256,39.5587647 C151.088082,39.5587647 150.199255,40.4562234 150.199255,41.5632991 L150.199255,55.9187434 C150.199255,59.5562287 153.118794,62.5041543 156.721627,62.5041543 L161.771356,62.5041543 C162.867643,62.5041543 163.756356,61.6066956 163.756356,60.4996199 C163.756356,59.3925442 162.867643,58.4950855 161.771356,58.4950855 L156.721627,58.4950855 C155.311142,58.4950855 154.169257,57.3420773 154.169257,55.9187434 L154.169257,48.8252117 L161.949892,48.8252117 Z M124.929743,44.0258982 L120.408818,44.0258982 C116.815287,44.0258982 113.903007,46.9672947 113.903007,50.5959601 L113.903007,60.5226434 C113.903007,61.6297191 114.79172,62.5271778 115.888008,62.5271778 C116.984295,62.5271778 117.872895,61.6297191 117.872895,60.5226434 L117.872895,50.5959601 C117.872895,49.1813315 119.007975,48.0349669 120.408818,48.0349669 L124.929743,48.0349669 C126.02603,48.0349669 126.914743,47.1375083 126.914743,46.0304326 C126.914743,44.9233569 126.02603,44.0258982 124.929743,44.0258982 Z M175.702884,43.7279671 C170.583171,43.7279671 166.430096,47.9190476 166.42692,53.0893717 C166.42363,58.2612995 170.572622,62.4534109 175.693924,62.4534109 L178.395113,62.4534109 C179.491514,62.4534109 180.380113,61.5558377 180.380113,60.4488765 C180.380113,59.3416863 179.491514,58.4443421 178.395113,58.4443421 L175.693924,58.4443421 C172.766104,58.4443421 170.394993,56.0486372 170.396921,53.0918917 C170.398622,50.1348026 172.774952,47.7370359 175.702884,47.7370359 L175.810415,47.7370359 C178.077512,47.7370359 180.011243,49.1746879 180.769173,51.1959458 L175.842402,51.1959458 C174.746001,51.1959458 173.857401,52.0934045 173.857401,53.2004802 C173.857401,54.3074414 174.746001,55.2050146 175.842402,55.2050146 L183.096955,55.2050146 C184.193016,55.2050146 185.081956,54.3074414 185.081956,53.2004802 L185.081956,53.0905172 C185.081956,47.9198494 180.930696,43.7279671 175.810415,43.7279671 L175.702884,43.7279671 Z M190.661623,43.8366701 C189.565335,43.8366701 188.676622,44.7342434 188.676622,45.8412045 L188.676622,60.4967563 C188.676622,61.6037174 189.565335,62.5012906 190.661623,62.5012906 C191.75791,62.5012906 192.646624,61.6039465 192.646624,60.4967563 L192.646624,45.8412045 C192.646624,44.7341288 191.75791,43.8366701 190.661623,43.8366701 Z M205.747742,43.7753887 C200.638123,43.7756177 196.495597,47.9594819 196.495597,53.1192679 L196.495597,60.4959544 C196.495597,61.6030301 197.384537,62.5004888 198.480711,62.5004888 C199.576998,62.5004888 200.465711,61.6030301 200.465711,60.4959544 L200.465711,53.1192679 C200.465711,50.1734042 202.831038,47.784572 205.747968,47.7844574 C208.665806,47.7843429 211.029999,50.1722588 211.029999,53.1189243 L211.029999,60.4959544 C211.029999,61.6030301 211.918712,62.5004888 213.014999,62.5004888 C214.111173,62.5004888 215,61.6031447 215,60.496069 L215,53.1189243 C215,47.9581074 210.858381,43.7751596 205.747742,43.7753887 Z M61.8811296,56.9015379 C61.1059585,56.1187386 59.849056,56.1187386 59.0738849,56.9015379 L50.9289166,65.1266579 C50.1537455,65.9094573 50.1537455,67.1787284 50.9289166,67.9616423 C51.7040878,68.744327 52.9608768,68.744327 53.7361613,67.9616423 L61.8811296,59.7362932 C62.6563007,58.9534939 62.6563007,57.6843373 61.8811296,56.9015379 Z M65.7119541,62.5806702 C63.3594447,62.5806702 61.4523695,64.5063977 61.4523695,66.8821719 C61.4523695,69.2578315 63.3594447,71.183559 65.7119541,71.183559 C68.0644635,71.183559 69.9714253,69.2578315 69.9714253,66.8821719 C69.9714253,64.5063977 68.0644635,62.5806702 65.7119541,62.5806702 Z M59.0965706,49.3581887 C59.8717418,50.140988 61.1286442,50.1411026 61.9038153,49.3581887 L70.0486702,41.1330687 C70.8239548,40.3502694 70.8239548,39.0811128 70.0486702,38.2983135 C69.2736125,37.5153996 68.0167101,37.5153996 67.2416524,38.2981989 L59.0965706,46.5233189 C58.3213995,47.3061182 58.3213995,48.5752749 59.0965706,49.3581887 Z M55.2660864,43.6795146 C57.6185958,43.6795146 59.5256711,41.7536726 59.5256711,39.378013 C59.5256711,37.0023534 57.6185958,35.0765113 55.2660864,35.0765113 C52.9136905,35.0765113 51.0065018,37.0023534 51.0065018,39.378013 C51.0065018,41.7536726 52.9136905,43.6795146 55.2660864,43.6795146 Z M53.8664908,54.5358437 C54.6417754,55.3186431 55.8985644,55.3186431 56.6737355,54.5358437 C57.4490201,53.7530444 57.4489066,52.4837733 56.6737355,51.7010885 L48.5286538,43.475854 C47.7534827,42.6930546 46.4966936,42.6930546 45.7215225,43.475854 C44.946238,44.2586533 44.946238,45.5279244 45.7215225,46.3107237 L53.8664908,54.5358437 Z M46.790814,54.1029789 C44.4384181,54.1029789 42.5312294,56.0288209 42.5312294,58.4044805 C42.5312294,60.7800256 44.4384181,62.7059822 46.790814,62.7059822 C49.1433234,62.7059822 51.0503987,60.7800256 51.0503987,58.4044805 C51.0503987,56.0288209 49.1433234,54.1029789 46.790814,54.1029789 Z M67.1097349,51.6683287 C66.3345638,50.8855294 65.0777747,50.8855294 64.3024902,51.6683287 C63.5273191,52.4512425 63.5273191,53.7203992 64.3024902,54.5031985 L72.4474585,62.7283185 C73.222743,63.5111178 74.479532,63.5111178 75.2547032,62.7283185 C76.0298743,61.9455192 76.0299877,60.6763625 75.2548166,59.8935632 L67.1097349,51.6683287 Z M74.1858654,43.4988775 C71.833356,43.4988775 69.9262807,45.4247195 69.9262807,47.8003791 C69.9262807,50.1759242 71.833356,52.1017663 74.1858654,52.1017663 C76.5383748,52.1017663 78.4453366,50.1759242 78.4453366,47.8003791 C78.4453366,45.4247195 76.5383748,43.4988775 74.1858654,43.4988775 Z" id="logo" sketch:type="MSShapeGroup"></path>
            </g>
        </g>
    </g>
</svg>