<svg width="101" height="100" viewBox="0 0 101 100" xmlns="http://www.w3.org/2000/svg">
    <g fill="none" fill-rule="evenodd">
        <path d="M9.436 16.534c-1.567 0-2.837 1.276-2.837 2.85v31.36H3.76c-1.567 0-2.837 1.277-2.838 2.85v22.81c0 1.573 1.27 2.85 2.838 2.85H15.11c1.567 0 2.837-1.277 2.837-2.85V67.85h48.798v8.555c0 1.574 1.27 2.85 2.837 2.85h28.37c1.567 0 2.837-1.276 2.838-2.85v-28.51c0-1.573-1.27-2.85-2.837-2.85H91.71v-25.66c0-1.575-1.27-2.85-2.836-2.85H9.436zm2.837 5.702h73.764v22.81H69.582c-1.567 0-2.837 1.276-2.837 2.85v14.252H17.947v-8.553c0-1.574-1.27-2.85-2.837-2.85h-2.837v-28.51zm60.146 28.51h22.695v22.808H72.42V50.747zm-65.82 5.7h5.673v17.106H6.6V56.446z" fill="#3B4572"/>
        <path d="M43.48 73.552c-1.023-.015-1.974.525-2.49 1.413-.516.888-.516 1.987 0 2.875.516.888 1.467 1.428 2.49 1.413h11.35c1.022.015 1.974-.525 2.49-1.413.515-.888.515-1.987 0-2.875-.516-.888-1.468-1.428-2.49-1.413H43.48z" fill="#3B4572"/>
        <path d="M18.514 25.657c-1.566 0-2.837 1.276-2.837 2.85v11.08c-.014 1.027.523 1.984 1.407 2.502.884.517 1.977.517 2.86 0 .884-.52 1.422-1.476 1.407-2.504V31.36h8.513c1.023.013 1.974-.527 2.49-1.415.516-.888.516-1.986 0-2.874-.516-.888-1.467-1.428-2.49-1.413h-11.35z" fill="#00B4F0"/>
    </g>
</svg>
