<svg width="170" height="100" xmlns="http://www.w3.org/2000/svg" viewBox="-228 347 154 100">
    <ellipse cx="-217.3" cy="397" rx="9.1" ry="9.2" fill="none" stroke="#FFBF57" stroke-width="3"/>
    <ellipse cx="-217.3" cy="363.7" rx="9.1" ry="9.2" fill="none" stroke="#FFBF57" stroke-width="3"/>
    <ellipse cx="-217.3" cy="430.3" rx="9.1" ry="9.2" fill="none" stroke="#FFBF57" stroke-width="3"/>
    <path d="M-167.9 401h-5.6c-3.9 0-7.1 4.1-7.1 9.2v12.4c0 3.5-2.8 6.3-6.3 6.3h-8.9l3-3c.6-.6.6-1.5 0-2-.6-.6-1.5-.6-2 0l-5.5 5.5c-.1.1-.2.3-.3.5-.1.4-.1.8 0 1.1.1.2.2.3.3.5l5.5 5.5c.3.3.6.4 1 .4s.7-.1 1-.4c.6-.6.6-1.5 0-2l-3-3h8.9c5 0 9.1-4.1 9.1-9.2v-12.4c0-3.4 1.9-6.3 4.2-6.3h5.6c.8 0 1.4-.6 1.4-1.4.2-1-.5-1.7-1.3-1.7zM-167.9 395.6h-27.9l3-3c.6-.6.6-1.5 0-2-.6-.6-1.5-.6-2 0l-5.5 5.5c-.1.1-.2.3-.3.5-.1.4-.1.7 0 1.1.1.2.2.3.3.5l5.5 5.5c.3.3.6.4 1 .4s.7-.1 1-.4c.6-.6.6-1.5 0-2l-3-3h27.9c.8 0 1.4-.6 1.4-1.4s-.6-1.7-1.4-1.7zM-167.9 390.1h-5.6c-2.3 0-4.2-2.9-4.2-6.3v-12.4c0-5.1-4.1-9.2-9.1-9.2h-8.9l3-3c.6-.6.6-1.5 0-2-.6-.6-1.5-.6-2 0l-5.5 5.5c-.1.1-.2.3-.3.5-.1.4-.1.7 0 1.1.1.2.2.3.3.5l5.5 5.5c.3.3.6.4 1 .4s.7-.1 1-.4c.6-.6.6-1.5 0-2l-3-3h8.9c3.5 0 6.3 2.8 6.3 6.3V384c0 5 3.2 9.2 7.1 9.2h5.6c.8 0 1.4-.6 1.4-1.4 0-1-.7-1.7-1.5-1.7z" fill="#FFC057"/>
    <ellipse cx="-84.7" cy="397" rx="9.1" ry="9.2" fill="none" stroke="#64C800" stroke-width="3"/>
    <ellipse cx="-84.7" cy="363.7" rx="9.1" ry="9.2" fill="none" stroke="#64C800" stroke-width="3"/>
    <ellipse cx="-84.7" cy="430.3" rx="9.1" ry="9.2" fill="none" stroke="#64C800" stroke-width="3"/>
    <path d="M-101.5 429.8c-.1-.2-.2-.3-.3-.5l-5.5-5.5c-.6-.6-1.5-.6-2 0-.6.6-.6 1.5 0 2l3 3h-8.9c-3.5 0-6.3-2.8-6.3-6.3v-12.4c0-5-3.2-9.2-7.1-9.2h-5.6c-.8 0-1.4.6-1.4 1.4s.6 1.4 1.4 1.4h5.6c2.3 0 4.2 2.9 4.2 6.3v12.4c0 5.1 4.1 9.2 9.1 9.2h8.9l-3 3c-.6.6-.6 1.5 0 2 .3.3.6.4 1 .4s.7-.1 1-.4l5.5-5.5c.1-.1.2-.3.3-.5.3-.1.3-.5.1-.8zM-101.8 396l-5.5-5.5c-.6-.6-1.5-.6-2 0-.6.6-.6 1.5 0 2l3 3h-27.9c-.8 0-1.4.6-1.4 1.4s.6 1.4 1.4 1.4h27.9l-3 3c-.6.6-.6 1.5 0 2 .3.3.6.4 1 .4s.7-.1 1-.4l5.5-5.5c.1-.1.2-.3.3-.5.1-.4.1-.7 0-1.1 0 .1-.2-.1-.3-.2zM-101.8 362.6l-5.5-5.5c-.6-.6-1.5-.6-2 0-.6.6-.6 1.5 0 2l3 3h-8.9c-5 0-9.1 4.1-9.1 9.2v12.4c0 3.4-1.9 6.3-4.2 6.3h-5.6c-.8 0-1.4.6-1.4 1.4s.6 1.4 1.4 1.4h5.6c3.9 0 7.1-4.1 7.1-9.2v-12.4c0-3.5 2.8-6.3 6.3-6.3h8.9l-3 3c-.6.6-.6 1.5 0 2 .3.3.6.4 1 .4s.7-.1 1-.4l5.5-5.5c.1-.1.2-.3.3-.5.1-.4.1-.7 0-1.1-.1.1-.3 0-.4-.2z" fill="#64C800"/>
    <path d="M-149.9 399.4c-.5-.5-1.3-.5-1.8 0l-5.3 5.3c-.5.5-.5 1.3 0 1.8s1.3.5 1.8 0l5.3-5.3c.5-.4.5-1.3 0-1.8zm2.5 3.7c-1.5 0-2.8 1.2-2.8 2.8 0 1.5 1.2 2.8 2.8 2.8 1.5 0 2.8-1.2 2.8-2.8-.1-1.5-1.3-2.8-2.8-2.8zm-4.3-8.5c.5.5 1.3.5 1.8 0l5.3-5.3c.5-.5.5-1.3 0-1.8s-1.3-.5-1.8 0l-5.3 5.3c-.5.4-.5 1.3 0 1.8zm-2.5-3.7c1.5 0 2.8-1.2 2.8-2.8 0-1.5-1.2-2.8-2.8-2.8-1.5 0-2.8 1.2-2.8 2.8.1 1.5 1.3 2.8 2.8 2.8zm-.9 7c.5.5 1.3.5 1.8 0s.5-1.3 0-1.8l-5.3-5.3c-.5-.5-1.3-.5-1.8 0s-.5 1.3 0 1.8l5.3 5.3zm-4.6-.3c-1.5 0-2.8 1.2-2.8 2.8 0 1.5 1.2 2.8 2.8 2.8 1.5 0 2.8-1.2 2.8-2.8 0-1.5-1.2-2.8-2.8-2.8zm13.2-1.5c-.5-.5-1.3-.5-1.8 0s-.5 1.3 0 1.8l5.3 5.3c.5.5 1.3.5 1.8 0s.5-1.3 0-1.8l-5.3-5.3zm4.6-5.3c-1.5 0-2.8 1.2-2.8 2.8 0 1.5 1.2 2.8 2.8 2.8 1.5 0 2.8-1.2 2.8-2.8-.1-1.6-1.3-2.8-2.8-2.8z" fill="#3B4572"/>
</svg>
