<svg width="27" height="34" viewBox="0 0 27 34" xmlns="http://www.w3.org/2000/svg">
    <path d="M20.65 8.394c.78 1.2 2.58 1.422 4.02.487 1.435-.93 1.97-2.667 1.188-3.87l-2.34-3.6C22.732.205 20.935-.01 19.5.92c-1.44.934-1.968 2.663-1.19 3.87l2.34 3.604zM13 15.54c.534.362.62 1.165.185 1.803-.423.64-1.2.863-1.73.505L7.88 15.452c-.532-.36-.62-1.167-.193-1.805.433-.64 1.21-.865 1.74-.506L13 15.54zM6.396 33.084c1.398.298 2.825-.82 3.182-2.498.357-1.68-.493-3.28-1.895-3.577l-4.197-.894c-1.41-.296-2.833.82-3.19 2.497-.356 1.68.49 3.272 1.898 3.577l4.202.894z" fill="#BCFF77" fill-rule="evenodd"/>
</svg>
