<svg width="263" height="42" viewBox="0 0 263 42" xmlns="http://www.w3.org/2000/svg"><title>Group 13</title><g fill="#FFB200" fill-rule="evenodd"><g transform="rotate(135 21.55 21.245)"><path d="M38.742 15.602H25.84a2.218 2.218 0 0 0-2.223 2.213c0 1.223.995 2.214 2.223 2.214h12.9a2.218 2.218 0 0 0 2.224-2.214 2.218 2.218 0 0 0-2.223-2.213z"/><ellipse transform="rotate(45 28.425 6.957)" cx="28.425" cy="6.957" rx="4.807" ry="4.849"/><path d="M4.731 28.252h12.901a2.218 2.218 0 0 0 2.223-2.214 2.218 2.218 0 0 0-2.223-2.214h-12.9a2.218 2.218 0 0 0-2.224 2.214c0 1.222.995 2.214 2.223 2.214z"/><ellipse transform="rotate(45 15.257 37.107)" cx="15.257" cy="37.107" rx="4.807" ry="4.849"/><path d="M28.007 39.08V26.068c0-1.239-.983-2.243-2.195-2.243-1.212 0-2.194 1.004-2.194 2.243V39.08c0 1.238.982 2.242 2.194 2.242s2.195-1.004 2.195-2.242z"/><ellipse transform="rotate(45 36.785 28.673)" cx="36.785" cy="28.673" rx="4.807" ry="4.849"/><path d="M15.466 4.773v13.013c0 1.239.983 2.243 2.195 2.243 1.212 0 2.194-1.004 2.194-2.243V4.773c0-1.239-.982-2.243-2.194-2.243s-2.195 1.004-2.195 2.243z"/><ellipse transform="rotate(45 6.897 15.18)" cx="6.897" cy="15.18" rx="4.807" ry="4.849"/></g><path d="M162.285 14.773c-5.02 0-8.865 4.137-8.865 9.072v13.318c0 1.087.875 1.969 1.953 1.969a1.961 1.961 0 0 0 1.954-1.97V31.66c1.45.99 3.191 1.547 5.128 1.547 2.778 0 5.179-1.074 6.877-2.969 1.554-1.732 2.41-4.042 2.41-6.393 0-4.84-4.395-9.072-9.457-9.072zm4.149 12.826c-.958 1.068-2.305 1.67-3.98 1.67-1.591 0-2.894-.613-3.862-1.677-.796-.875-1.265-1.983-1.265-2.697v-1.05c0-2.816 2.156-5.135 4.958-5.135 2.943 0 5.55 2.51 5.55 5.135 0 1.39-.506 2.756-1.401 3.754zM207.392 14.773h-4.45c-3.536 0-6.402 2.889-6.402 6.452v9.749c0 1.087.875 1.968 1.954 1.968a1.961 1.961 0 0 0 1.953-1.968v-9.749a2.505 2.505 0 0 1 2.496-2.515h4.449a1.961 1.961 0 0 0 1.953-1.969 1.961 1.961 0 0 0-1.953-1.968M260.676 14.773h-4.449c-3.536 0-6.402 2.889-6.402 6.452v9.749c0 1.087.874 1.968 1.953 1.968a1.961 1.961 0 0 0 1.953-1.968v-9.749a2.505 2.505 0 0 1 2.496-2.515h4.45a1.961 1.961 0 0 0 1.953-1.969 1.961 1.961 0 0 0-1.954-1.968M184.02 14.773c-5.054 0-9.153 4.13-9.153 9.224s4.099 9.224 9.154 9.224 9.153-4.13 9.153-9.224-4.098-9.224-9.153-9.224zm0 14.511c-2.897 0-5.246-2.367-5.246-5.287s2.35-5.287 5.247-5.287 5.246 2.367 5.246 5.287-2.349 5.287-5.246 5.287zM103.27 31.465a8.92 8.92 0 0 1-5.34 1.756c-5.055 0-9.153-4.13-9.153-9.224s4.098-9.224 9.153-9.224c5.034 0 9.021 4.094 9.055 9.159.03.222.046.435.046.63v6.883a1.874 1.874 0 0 1-1.88 1.877 1.885 1.885 0 0 1-1.88-1.857zm-5.34-2.18c-2.897 0-5.246-2.368-5.246-5.288 0-2.92 2.349-5.287 5.246-5.287 2.898 0 5.247 2.367 5.247 5.287s-2.35 5.287-5.247 5.287zM224.328 19.447a1.961 1.961 0 0 0 1.953-1.969 1.961 1.961 0 0 0-1.953-1.968h-7.657v-3.195a1.961 1.961 0 0 0-1.954-1.969 1.961 1.961 0 0 0-1.953 1.969v14.098c0 3.572 2.873 6.467 6.419 6.467h4.97a1.961 1.961 0 0 0 1.953-1.968 1.961 1.961 0 0 0-1.954-1.969h-4.97a2.52 2.52 0 0 1-2.511-2.53v-6.966h7.657M68.028 19.236a1.961 1.961 0 0 0 1.953-1.969 1.961 1.961 0 0 0-1.953-1.968H60.37v-3.195a1.961 1.961 0 0 0-1.954-1.968 1.961 1.961 0 0 0-1.953 1.968v14.098c0 3.572 2.873 6.468 6.418 6.468h4.97a1.961 1.961 0 0 0 1.953-1.97 1.961 1.961 0 0 0-1.953-1.968h-4.97a2.52 2.52 0 0 1-2.511-2.53v-6.966h7.657M237.146 14.773c-5.038 0-9.125 4.116-9.128 9.193-.003 5.08 4.08 9.197 9.12 9.197h2.658a1.961 1.961 0 0 0 1.953-1.97 1.96 1.96 0 0 0-1.953-1.968h-2.658c-2.882 0-5.215-2.352-5.213-5.256.001-2.904 2.34-5.259 5.221-5.259h.106c2.231 0 4.134 1.412 4.88 3.397h-4.848a1.961 1.961 0 0 0-1.954 1.969c0 1.087.875 1.968 1.954 1.968h7.139a1.961 1.961 0 0 0 1.953-1.968v-.108c0-5.078-4.085-9.195-9.124-9.195h-.106zM119.689 14.773c-5.029 0-9.105 4.109-9.105 9.176v7.245c0 1.087.874 1.968 1.953 1.968a1.961 1.961 0 0 0 1.954-1.968v-7.245c0-2.893 2.327-5.239 5.198-5.239 2.872 0 5.198 2.345 5.198 5.239v7.245c0 1.087.875 1.968 1.954 1.968a1.961 1.961 0 0 0 1.953-1.968v-7.245c0-5.068-4.076-9.176-9.105-9.176M84.868 14.773h-4.45c-3.536 0-6.402 2.889-6.402 6.452v9.749c0 1.087.875 1.968 1.954 1.968a1.961 1.961 0 0 0 1.953-1.968v-9.749a2.505 2.505 0 0 1 2.496-2.515h4.449a1.961 1.961 0 0 0 1.953-1.969 1.961 1.961 0 0 0-1.953-1.968M146.574 14.773h-8.587c-3.23 0-5.848 2.642-5.848 5.9h3.76v-.866h-3.76c0 3.259 2.62 5.9 5.85 5.9h5.851c1.155 0 2.09.943 2.09 2.11h3.761v-.82h-3.761a2.1 2.1 0 0 1-2.09 2.11h-8.985c-1.038 0-1.88.849-1.88 1.896 0 1.048.842 1.897 1.88 1.897h8.985c3.232 0 5.851-2.643 5.851-5.903h-3.761v.82h3.761c0-3.262-2.619-5.904-5.851-5.904h-5.85a2.098 2.098 0 0 1-2.09-2.106h-3.761v.866h3.76c0-1.163.936-2.106 2.088-2.106h8.587c1.039 0 1.88-.85 1.88-1.897a1.889 1.889 0 0 0-1.88-1.897z"/></g></svg>