<svg width="211" height="41" viewBox="0 0 211 41" xmlns="http://www.w3.org/2000/svg"><title>Group 14</title><g fill="none" fill-rule="evenodd"><path d="M65.658 30.827c4.769 0 8.423-3.866 8.423-8.478V9.904c0-1.016-.831-1.84-1.856-1.84a1.848 1.848 0 0 0-1.856 1.84v5.142c-1.379-.925-3.032-1.446-4.872-1.446-2.64 0-4.92 1.004-6.534 2.774-1.476 1.62-2.29 3.778-2.29 5.975 0 4.523 4.176 8.478 8.985 8.478zM61.716 18.84c.91-.998 2.19-1.561 3.78-1.561 1.513 0 2.751.573 3.67 1.567.757.818 1.203 1.854 1.203 2.52v.982c0 2.632-2.048 4.799-4.711 4.799-2.796 0-5.272-2.346-5.272-4.799 0-1.298.48-2.575 1.33-3.508zM170.352 13.782c.536 0 .985.177 1.346.533.36.356.541.809.541 1.36v13.421c0 .528-.18.97-.541 1.325a1.82 1.82 0 0 1-1.328.534c-.525 0-.973-.184-1.346-.551a1.773 1.773 0 0 1-.56-1.308V15.674c0-.55.182-1.003.543-1.359.36-.356.81-.533 1.345-.533zM140.564 30.92a2.093 2.093 0 0 1-1.084-.654c-.28-.32-.42-.7-.42-1.135v-8.959c0-1.764 1.504-6.425 7.27-6.425 2.237 0 4.066.792 5.487 2.375 1.375-1.583 3.134-2.375 5.277-2.375 2.144 0 3.926.706 5.347 2.117 1.421 1.41 2.132 3.114 2.132 5.11v8.157c0 .504-.18.935-.542 1.29a1.8 1.8 0 0 1-1.31.534c-.513 0-.955-.178-1.328-.534a1.718 1.718 0 0 1-.56-1.29v-8.157c0-.986-.349-1.824-1.048-2.512-.699-.688-1.532-1.032-2.499-1.032a3.5 3.5 0 0 0-2.498.998 3.49 3.49 0 0 0-1.119 2.443v8.26c0 .504-.18.935-.541 1.29a1.779 1.779 0 0 1-1.294.534c-.5 0-.943-.184-1.328-.551-.384-.367-.576-.792-.576-1.273v-8.26c-.024-.94-.385-1.75-1.084-2.426a3.468 3.468 0 0 0-2.498-1.015c-.967 0-1.8.344-2.5 1.032-.698.688-1.048 1.526-1.048 2.512v8.157l-.035.24v.104l-.104.206v.172c-.373.735-.956 1.102-1.748 1.102l-.35-.035zM105.709 13.106c-4.777 0-8.65 3.84-8.65 8.575v6.77c0 1.016.83 1.84 1.855 1.84a1.848 1.848 0 0 0 1.856-1.84v-6.77c0-2.703 2.212-4.896 4.94-4.896 2.727 0 4.938 2.192 4.938 4.896v6.77c0 1.016.83 1.84 1.856 1.84a1.848 1.848 0 0 0 1.856-1.84v-6.77c0-4.736-3.873-8.575-8.651-8.575M5.326 16.26A4.448 4.448 0 0 0 .87 20.702a4.448 4.448 0 0 0 4.455 4.441 4.448 4.448 0 0 0 4.454-4.441 4.448 4.448 0 0 0-4.454-4.442M17.87 16.26a4.448 4.448 0 0 0-4.455 4.442 4.448 4.448 0 0 0 4.455 4.441 4.448 4.448 0 0 0 4.454-4.441 4.448 4.448 0 0 0-4.454-4.442" fill="#8ABA9D"/><path stroke="#8ABA9D" stroke-width="4.489" stroke-linecap="round" stroke-linejoin="round" d="M11.323 28.83v9.537l29.379-17.973-29.38-17.402.091 9.616"/><path d="M77.795 22.499v-7.553c0-1.016.83-1.84 1.856-1.84 1.025 0 1.856.824 1.856 1.84v7.553c0 2.703 1.218 4.112 3.946 4.112h4.144V14.946c0-1.016.83-1.84 1.856-1.84 1.025 0 1.856.824 1.856 1.84V30.29h-7.857c-4.777 0-7.657-3.057-7.657-7.792z" fill="#8ABA9D"/><path d="M82.995 36.586h4.229c3.36 0 6.085-2.682 6.085-5.992v-9.053c0-1.01-.832-1.828-1.857-1.828s-1.856.818-1.856 1.828v9.053c0 1.29-1.062 2.336-2.372 2.336h-4.229c-1.025 0-1.856.819-1.856 1.828 0 1.01.83 1.828 1.856 1.828M131.522 28.886a8.61 8.61 0 0 1-5.076 1.632c-4.805 0-8.7-3.835-8.7-8.566 0-4.732 3.895-8.567 8.7-8.567 4.798 0 8.595 3.825 8.605 8.548.029.208.044.407.044.589v6.3c0 .988-.793 1.79-1.787 1.79a1.79 1.79 0 0 1-1.786-1.726zm-5.076-2.024c-2.754 0-4.987-2.199-4.987-4.91 0-2.712 2.233-4.91 4.987-4.91 2.753 0 4.986 2.198 4.986 4.91 0 2.711-2.233 4.91-4.986 4.91zM184.33 31.132h6.183c1.016 0 1.84-.831 1.84-1.856a1.848 1.848 0 0 0-1.84-1.856h-6.182c-2.704 0-4.896-2.211-4.896-4.939s2.191-4.938 4.895-4.938h6.183c1.016 0 1.84-.831 1.84-1.856a1.848 1.848 0 0 0-1.84-1.856h-6.183c-4.736 0-8.575 3.872-8.574 8.65 0 4.778 3.84 8.651 8.575 8.651z" fill="#8ABA9D"/><path d="M207.925 15.734h-8.174a3.764 3.764 0 0 0-3.759 3.761v-.891a3.762 3.762 0 0 0 3.756 3.761h5.595a3.762 3.762 0 0 1 3.756 3.77v-.86a3.767 3.767 0 0 1-3.76 3.77h-8.552" stroke="#8ABA9D" stroke-width="3.564" stroke-linecap="round"/></g></svg>