<?xml version="1.0" encoding="utf-8"?>
<!-- Generator: Adobe Illustrator 16.0.0, SVG Export Plug-In . SVG Version: 6.00 Build 0)  -->
<!DOCTYPE svg PUBLIC "-//W3C//DTD SVG 1.1//EN" "http://www.w3.org/Graphics/SVG/1.1/DTD/svg11.dtd">
<svg version="1.1" id="Слой_1" xmlns="http://www.w3.org/2000/svg" xmlns:xlink="http://www.w3.org/1999/xlink" x="0px" y="0px"
	 width="120px" height="120px" viewBox="0 0 120 120" enable-background="new 0 0 120 120" xml:space="preserve">
<path fill-rule="evenodd" clip-rule="evenodd" fill="#9FE76F" d="M119.97,58c-0.08-2.41-0.3-4.79-0.66-7.11
	c-0.52-3.4-1.319-6.71-2.39-9.89c-0.68-2.05-1.47-4.05-2.37-6c-0.46-1.02-0.95-2.02-1.479-3c-0.181-0.34-0.36-0.67-0.551-1
	c-0.939-1.72-1.97-3.39-3.09-5C98.63,10.3,80.52,0,60,0C26.86,0,0,26.86,0,60c0,33.14,26.86,60,60,60c0.98,0,1.95-0.02,2.92-0.08
	c9.8-0.46,18.99-3.29,27.01-7.92c3.23-1.85,6.261-4,9.07-6.42c3.34-2.85,6.36-6.061,9-9.58c0.74-0.98,1.44-1.98,2.11-3
	c6.25-9.47,9.89-20.81,9.89-33C120,59.33,119.99,58.66,119.97,58z"/>
<path opacity="0.2" fill-rule="evenodd" clip-rule="evenodd" d="M119.97,58c-0.08-2.41-0.3-4.79-0.66-7.11L116,46l-28-6L70,22L26,51
	l35,35l-6,26l7.92,7.92C81.35,119.05,97.61,109.84,108,96c0.74-0.98,1.44-1.98,2.11-3c6.25-9.47,9.89-20.81,9.89-33
	C120,59.33,119.99,58.66,119.97,58z"/>
<path fill="#FFFFFF" d="M99,77v28.58c-2.81,2.42-5.84,4.57-9.07,6.42H55V77H99z"/>
<rect x="26" y="22" fill="#C8DDEA" width="44" height="4"/>
<rect x="26" y="26" fill="#FFFFFF" width="44" height="25"/>
<circle fill="#FF4747" cx="29" cy="23.958" r="1"/>
<circle fill="#FFF72A" cx="32" cy="24" r="1"/>
<circle fill="#00CA13" cx="35" cy="24" r="1"/>
<polygon fill="#C8DDEA" points="106.42,22 83,22 83,26 109.43,26 "/>
<circle fill="#FF4747" cx="86" cy="23.958" r="1"/>
<circle fill="#FFF72A" cx="89" cy="24" r="1"/>
<circle fill="#00CA13" cx="92" cy="24" r="1"/>
<rect x="55" y="73" fill="#C8DDEA" width="44" height="4"/>
<circle fill="#FF4747" cx="58" cy="74.959" r="1"/>
<circle fill="#FFF72A" cx="61" cy="75" r="1"/>
<circle fill="#00CA13" cx="64" cy="75" r="1"/>
<rect x="31" y="31" fill="#CFCFCF" width="34" height="10"/>
<rect x="31" y="43" fill="#CFCFCF" width="25" height="4"/>
<path fill="#FFFFFF" d="M119.97,58H83V26h26.43c1.33,1.92,2.54,3.92,3.641,6c0.529,0.98,1.02,1.98,1.479,3
	C117.79,42.04,119.7,49.81,119.97,58z"/>
<rect x="88" y="31" fill="#CFCFCF" width="10" height="10"/>
<rect x="100" y="31" fill="#CFCFCF" width="10" height="10"/>
<path fill="#CFCFCF" d="M116.92,41H112V31h0.52c0.19,0.33,0.37,0.66,0.551,1c0.529,0.98,1.02,1.98,1.479,3
	C115.45,36.95,116.24,38.95,116.92,41z"/>
<rect x="83" y="82" fill="#CFCFCF" width="11" height="11"/>
<polygon opacity="0.2" enable-background="new    " points="86,107 71,107 70,106 85,101 86,102 "/>
<rect x="70" y="101" fill="#7D8FFC" width="15" height="5"/>
<polygon opacity="0.2" enable-background="new    " points="113,52 98,52 97,51 112,46 113,47 "/>
<rect x="97" y="46" fill="#7D8FFC" width="15" height="5"/>
<rect x="60" y="82" fill="#9296A5" width="21" height="2"/>
<rect x="60" y="86" fill="#9296A5" width="21" height="2"/>
<rect x="60" y="90" fill="#9296A5" width="21" height="2"/>
<rect x="60" y="94" fill="#9296A5" width="21" height="2"/>
<path fill-rule="evenodd" clip-rule="evenodd" fill="#262D4C" d="M105,47c1.657,0,3,1.343,3,3s-1.343,3-3,3c-1.656,0-3-1.343-3-3
	S103.344,47,105,47z"/>
<path fill-rule="evenodd" clip-rule="evenodd" fill="#262D4C" d="M59,33c1.657,0,3,1.343,3,3s-1.343,3-3,3c-1.656,0-3-1.343-3-3
	S57.344,33,59,33z"/>
<rect x="60" y="35" fill-rule="evenodd" clip-rule="evenodd" fill="#262D4C" width="23" height="2"/>
<rect x="76" y="64" fill-rule="evenodd" clip-rule="evenodd" fill="#262D4C" width="2" height="9"/>
<rect x="76" y="64" fill-rule="evenodd" clip-rule="evenodd" fill="#262D4C" width="30" height="2"/>
<rect x="104" y="51" fill-rule="evenodd" clip-rule="evenodd" fill="#262D4C" width="2" height="14"/>
</svg>
