<?xml version="1.0" encoding="utf-8"?>
<!-- Generator: Adobe Illustrator 16.0.0, SVG Export Plug-In . SVG Version: 6.00 Build 0)  -->
<!DOCTYPE svg PUBLIC "-//W3C//DTD SVG 1.1//EN" "http://www.w3.org/Graphics/SVG/1.1/DTD/svg11.dtd">
<svg version="1.1" id="Слой_1" xmlns="http://www.w3.org/2000/svg" xmlns:xlink="http://www.w3.org/1999/xlink" x="0px" y="0px"
	 width="120px" height="120px" viewBox="0 0 120 120" enable-background="new 0 0 120 120" xml:space="preserve">
<path fill-rule="evenodd" clip-rule="evenodd" fill="#FF61C5" d="M114.55,35c-0.46-1.02-0.95-2.02-1.479-3
	C103.02,12.97,83.03,0,60,0C26.86,0,0,26.86,0,60c0,33.14,26.86,60,60,60c19.63,0,37.06-9.43,48-24c0.74-0.98,1.44-1.98,2.11-3
	c6.25-9.47,9.89-20.81,9.89-33C120,51.08,118.05,42.61,114.55,35z"/>
<path fill-rule="evenodd" clip-rule="evenodd" fill="#AA7DFC" d="M114.55,35H73c-11.05,0-20,8.95-20,20v18c0,11.05,8.95,20,20,20
	h37.11c6.25-9.47,9.89-20.81,9.89-33C120,51.08,118.05,42.61,114.55,35z"/>
<path fill-rule="evenodd" clip-rule="evenodd" fill="#8265C7" d="M73,35c11.046,0,20,8.955,20,20c0,11.045-8.954,20-20,20
	s-20-8.955-20-20C53,43.955,61.954,35,73,35z"/>
<path fill="#FFFFFF" d="M53,73V55c0-11.05,8.95-20,20-20h41.55c-0.46-1.02-0.95-2.02-1.479-3H73c-12.68,0-23,10.32-23,23v18
	c0,12.68,10.32,23,23,23h35c0.74-0.98,1.44-1.98,2.11-3H73C61.95,93,53,84.05,53,73z"/>
<polygon fill="#262D4C" points="108,96 36,96 36,77 117.56,77 117.84,76 36,76 36,45 35,45 35,76 29,76 29,77 35,77 35,96 29,96 
	29,97 35,97 35,107 36,107 36,97 107.23,97 "/>
<g>
	<g>
		<path fill="#262D4C" d="M32.279,25.839c0.573-0.647,0.974-1.188,1.201-1.621c0.227-0.434,0.341-0.833,0.341-1.198
			c0-0.648-0.201-1.16-0.604-1.536c-0.402-0.376-0.962-0.564-1.679-0.564c-0.469,0-0.887,0.104-1.254,0.309
			c-0.367,0.206-0.649,0.49-0.849,0.852c-0.198,0.362-0.298,0.764-0.298,1.203h0.639c0-0.537,0.162-0.974,0.486-1.311
			c0.324-0.336,0.749-0.505,1.275-0.505c0.509,0,0.908,0.145,1.198,0.433s0.435,0.68,0.435,1.174c0,0.314-0.086,0.639-0.258,0.973
			c-0.172,0.332-0.479,0.755-0.924,1.268l-2.68,3.039v0.494h4.898v-0.542h-4.109L32.279,25.839z M37.715,20.919
			c-0.784,0-1.38,0.283-1.788,0.849c-0.408,0.566-0.612,1.399-0.612,2.498v1.401c0.011,1.071,0.222,1.887,0.634,2.447
			c0.411,0.561,1.004,0.84,1.777,0.84c0.788,0,1.384-0.285,1.789-0.856c0.404-0.571,0.606-1.407,0.606-2.511v-1.434
			c-0.015-1.064-0.226-1.869-0.634-2.415S38.488,20.919,37.715,20.919z M39.477,25.688c-0.003,0.893-0.153,1.568-0.448,2.031
			c-0.295,0.461-0.73,0.692-1.303,0.692c-0.576,0-1.016-0.236-1.318-0.709s-0.454-1.155-0.454-2.046V24.12
			c0.008-0.873,0.158-1.533,0.451-1.981c0.294-0.448,0.73-0.672,1.311-0.672c0.591,0,1.032,0.229,1.324,0.688
			c0.292,0.459,0.438,1.136,0.438,2.03V25.688z M44.048,22.929c-0.795,0-1.402,0.309-1.821,0.929l-0.032-0.821h-0.596v8.045h0.639
			v-2.965c0.422,0.559,1.031,0.838,1.826,0.838c0.674,0,1.211-0.266,1.611-0.797c0.4-0.532,0.602-1.251,0.602-2.156v-0.092
			c0-0.935-0.197-1.665-0.594-2.191C45.287,23.191,44.742,22.929,44.048,22.929z M45.179,27.765
			c-0.303,0.432-0.725,0.647-1.266,0.647c-0.391,0-0.729-0.088-1.016-0.263c-0.286-0.176-0.506-0.43-0.66-0.764v-2.787
			c0.15-0.361,0.367-0.637,0.65-0.827c0.282-0.19,0.621-0.284,1.015-0.284c0.544,0,0.969,0.215,1.272,0.645
			c0.305,0.43,0.457,1.015,0.457,1.756C45.632,26.708,45.48,27.333,45.179,27.765z M49.806,25.888l1.971-2.852h-0.763l-1.568,2.357
			l-1.568-2.357H47.12l1.971,2.852l-2.052,2.959h0.757l1.654-2.459l1.654,2.459h0.758L49.806,25.888z"/>
	</g>
</g>
<g>
	<g>
		<path fill="#262D4C" d="M30.305,68.401l-2.466-2.181c-0.647-0.573-1.188-0.974-1.621-1.201c-0.434-0.227-0.833-0.341-1.198-0.341
			c-0.648,0-1.16,0.201-1.536,0.604c-0.376,0.402-0.564,0.962-0.564,1.679c0,0.469,0.104,0.887,0.309,1.254
			c0.206,0.367,0.49,0.649,0.852,0.849c0.362,0.198,0.764,0.298,1.203,0.298v-0.639c-0.537,0-0.974-0.162-1.311-0.486
			c-0.336-0.324-0.505-0.749-0.505-1.275c0-0.509,0.145-0.908,0.433-1.198s0.68-0.435,1.174-0.435c0.314,0,0.639,0.086,0.973,0.258
			c0.332,0.172,0.755,0.479,1.268,0.924l3.039,2.68h0.494v-4.898h-0.542V68.401z M30.098,58.985
			c-0.571-0.404-1.407-0.606-2.511-0.606h-1.434c-1.064,0.015-1.869,0.226-2.415,0.634s-0.819,0.999-0.819,1.772
			c0,0.784,0.283,1.38,0.849,1.788c0.566,0.408,1.399,0.612,2.498,0.612h1.401c1.071-0.011,1.887-0.222,2.447-0.634
			c0.561-0.411,0.84-1.004,0.84-1.777C30.954,59.986,30.669,59.391,30.098,58.985z M29.703,62.093
			c-0.473,0.303-1.155,0.454-2.046,0.454H26.12c-0.873-0.008-1.533-0.158-1.981-0.451c-0.448-0.294-0.672-0.73-0.672-1.311
			c0-0.591,0.229-1.032,0.688-1.324c0.459-0.292,1.136-0.438,2.03-0.438h1.504c0.893,0.003,1.568,0.153,2.031,0.448
			c0.461,0.295,0.692,0.73,0.692,1.303C30.412,61.351,30.176,61.79,29.703,62.093z M30.116,56.263
			c0.559-0.422,0.838-1.031,0.838-1.826c0-0.674-0.266-1.211-0.797-1.611c-0.532-0.4-1.251-0.602-2.156-0.602h-0.092
			c-0.935,0-1.665,0.197-2.191,0.594c-0.526,0.396-0.789,0.94-0.789,1.635c0,0.795,0.309,1.402,0.929,1.821l-0.821,0.032v0.596
			h8.045v-0.639H30.116z M29.386,56.263h-2.787c-0.361-0.15-0.637-0.367-0.827-0.65c-0.19-0.282-0.284-0.621-0.284-1.015
			c0-0.544,0.215-0.969,0.645-1.272c0.43-0.305,1.015-0.457,1.756-0.457c0.82,0,1.445,0.151,1.877,0.453
			c0.432,0.303,0.647,0.725,0.647,1.266c0,0.391-0.088,0.729-0.263,1.016C29.974,55.889,29.72,56.108,29.386,56.263z M30.847,51.461
			v-0.757l-2.459-1.654l2.459-1.654v-0.758l-2.959,2.057l-2.852-1.971v0.763l2.357,1.568l-2.357,1.568v0.757l2.852-1.971
			L30.847,51.461z"/>
	</g>
</g>
<path fill-rule="evenodd" clip-rule="evenodd" fill="#262D4C" d="M30.897,71.501l4.593,4.998l4.413-4.994"/>
<path fill-rule="evenodd" clip-rule="evenodd" fill="#262D4C" d="M30.897,102.399l4.593-5.998l4.413,5.994"/>
<path fill-rule="evenodd" clip-rule="evenodd" fill="#262D4C" d="M65.641,41.211l-6.781-0.287l0.411,6.652"/>
<path fill-rule="evenodd" clip-rule="evenodd" fill="#262D4C" d="M73,53c1.104,0,2,0.896,2,2s-0.896,2-2,2s-2-0.896-2-2
	S71.896,53,73,53z"/>
<path fill="none" stroke="#262D4C" stroke-miterlimit="10" d="M30,33.5"/>
<path fill="none" stroke="#262D4C" stroke-miterlimit="10" d="M29.138,33.5"/>
<path fill="#262D4C" d="M51.71,33H29v1h22.29l20.17,20h1.4L51.71,33z"/>
<path fill="#FFFFFF" d="M103.178,75.973V55.775h6.603c2.192,0,3.841,0.453,4.945,1.359c1.105,0.907,1.658,2.248,1.658,4.023
	c0,0.943-0.269,1.778-0.805,2.504s-1.268,1.288-2.191,1.686c1.091,0.306,1.953,0.886,2.587,1.741c0.633,0.855,0.95,1.875,0.95,3.059
	c0,1.813-0.588,3.236-1.762,4.272c-1.175,1.036-2.835,1.554-4.98,1.554H103.178z M105.841,64.39h4.022
	c1.166,0,2.098-0.292,2.796-0.876s1.047-1.377,1.047-2.377c0-1.112-0.323-1.921-0.971-2.426c-0.647-0.505-1.633-0.758-2.955-0.758
	h-3.939V64.39z M105.841,66.525v7.27h4.397c1.239,0,2.217-0.321,2.934-0.965c0.717-0.643,1.075-1.527,1.075-2.656
	c0-2.432-1.322-3.648-3.967-3.648H105.841z"/>
</svg>
