<?xml version="1.0" encoding="utf-8"?>
<!-- Generator: Adobe Illustrator 16.0.0, SVG Export Plug-In . SVG Version: 6.00 Build 0)  -->
<!DOCTYPE svg PUBLIC "-//W3C//DTD SVG 1.1//EN" "http://www.w3.org/Graphics/SVG/1.1/DTD/svg11.dtd">
<svg version="1.1" id="Слой_1" xmlns="http://www.w3.org/2000/svg" xmlns:xlink="http://www.w3.org/1999/xlink" x="0px" y="0px"
	 width="120px" height="120px" viewBox="0 0 120 120" enable-background="new 0 0 120 120" xml:space="preserve">
<path fill="#FF61C5" d="M86,93h24.11c-0.67,1.02-1.37,2.02-2.11,3c-10.94,14.57-28.37,24-48,24C26.86,120,0,93.14,0,60
	C0,26.86,26.86,0,60,0c23.03,0,43.02,12.97,53.07,32c0.529,0.98,1.02,1.98,1.479,3H86V93z"/>
<path fill="#AA7DFC" d="M114.55,35H73c-11.05,0-20,8.95-20,20v18c0,11.05,8.95,20,20,20h37.109c6.25-9.471,9.891-20.811,9.891-33
	C120,51.08,118.05,42.61,114.55,35z"/>
<path fill="#8265C7" d="M73,35c11.046,0,20,8.955,20,20s-8.954,20-20,20s-20-8.955-20-20S61.954,35,73,35z"/>
<path fill="#FFFFFF" d="M53,73V55c0-11.05,8.95-20,20-20h41.55c-0.46-1.02-0.95-2.02-1.479-3H73c-12.68,0-23,10.32-23,23v18
	c0,12.68,10.32,23,23,23h35c0.74-0.98,1.439-1.98,2.109-3H73C61.95,93,53,84.05,53,73z"/>
<polygon fill="#262D4C" points="108,96 36,96 36,77 117.561,77 117.84,76 36,76 36,45 35,45 35,76 29,76 29,77 35,77 35,96 29,96 
	29,97 35,97 35,107 36,107 36,97 107.23,97 "/>
<g>
	<g>
		<path fill="#262D4C" d="M32.143,25.757c0.572-0.647,0.974-1.188,1.201-1.621c0.227-0.434,0.34-0.833,0.34-1.198
			c0-0.648-0.2-1.16-0.604-1.536c-0.402-0.376-0.962-0.564-1.679-0.564c-0.47,0-0.888,0.104-1.254,0.309
			c-0.367,0.206-0.649,0.49-0.849,0.852C29.1,22.361,29,22.763,29,23.202h0.639c0-0.537,0.162-0.974,0.486-1.311
			c0.324-0.336,0.749-0.505,1.275-0.505c0.509,0,0.908,0.145,1.197,0.433c0.291,0.288,0.436,0.68,0.436,1.174
			c0,0.314-0.086,0.639-0.258,0.973c-0.172,0.332-0.479,0.755-0.924,1.268l-2.68,3.039v0.494h4.897v-0.542h-4.108L32.143,25.757z
			 M37.578,20.837c-0.783,0-1.38,0.283-1.788,0.849c-0.407,0.566-0.612,1.399-0.612,2.498v1.401
			c0.012,1.071,0.223,1.887,0.635,2.447c0.41,0.561,1.004,0.84,1.777,0.84c0.787,0,1.383-0.285,1.789-0.856
			c0.403-0.571,0.605-1.407,0.605-2.511v-1.434c-0.016-1.064-0.227-1.869-0.635-2.415C38.942,21.11,38.352,20.837,37.578,20.837z
			 M39.34,25.606c-0.002,0.893-0.152,1.568-0.447,2.031c-0.295,0.461-0.73,0.692-1.303,0.692c-0.576,0-1.017-0.236-1.318-0.709
			c-0.303-0.473-0.454-1.155-0.454-2.046v-1.536c0.008-0.873,0.157-1.533,0.45-1.981c0.295-0.448,0.73-0.672,1.312-0.672
			c0.591,0,1.032,0.229,1.324,0.688c0.292,0.459,0.438,1.136,0.438,2.03v1.503H39.34z M43.911,22.847
			c-0.795,0-1.401,0.309-1.821,0.929l-0.031-0.821h-0.596V31h0.639v-2.965c0.422,0.559,1.031,0.838,1.826,0.838
			c0.674,0,1.211-0.266,1.61-0.797c0.4-0.532,0.603-1.251,0.603-2.156v-0.092c0-0.935-0.197-1.665-0.594-2.191
			C45.15,23.109,44.605,22.847,43.911,22.847z M45.043,27.683c-0.304,0.432-0.726,0.647-1.267,0.647
			c-0.392,0-0.729-0.088-1.017-0.263c-0.285-0.176-0.506-0.43-0.66-0.764v-2.787c0.15-0.361,0.367-0.637,0.65-0.827
			c0.282-0.19,0.621-0.284,1.016-0.284c0.543,0,0.969,0.215,1.271,0.645c0.305,0.43,0.457,1.015,0.457,1.756
			C45.495,26.626,45.344,27.251,45.043,27.683z M49.67,25.806l1.971-2.852h-0.764l-1.568,2.357l-1.567-2.357h-0.758l1.971,2.852
			l-2.052,2.959h0.757l1.654-2.459l1.653,2.459h0.758L49.67,25.806z"/>
	</g>
</g>
<g>
	<g>
		<path fill="#262D4C" d="M30.223,68.039l-2.466-2.18c-0.647-0.574-1.188-0.975-1.621-1.201c-0.434-0.227-0.833-0.342-1.198-0.342
			c-0.647,0-1.16,0.201-1.536,0.605c-0.376,0.4-0.564,0.961-0.564,1.678c0,0.469,0.104,0.887,0.309,1.254
			c0.206,0.367,0.49,0.65,0.852,0.85C24.361,68.9,24.764,69,25.202,69v-0.639c-0.537,0-0.974-0.162-1.311-0.486
			c-0.336-0.322-0.505-0.748-0.505-1.273c0-0.51,0.145-0.908,0.433-1.199c0.289-0.289,0.68-0.434,1.174-0.434
			c0.313,0,0.639,0.086,0.973,0.258c0.332,0.172,0.755,0.479,1.269,0.924l3.039,2.68h0.494v-4.898h-0.543v4.107H30.223z
			 M30.016,58.624c-0.57-0.404-1.406-0.606-2.511-0.606H26.07c-1.063,0.015-1.868,0.226-2.415,0.634
			c-0.546,0.408-0.819,0.998-0.819,1.771c0,0.783,0.283,1.381,0.849,1.789c0.566,0.406,1.399,0.611,2.498,0.611h1.401
			c1.071-0.012,1.888-0.223,2.446-0.635c0.562-0.41,0.841-1.004,0.841-1.777C30.872,59.625,30.587,59.03,30.016,58.624z
			 M29.621,61.732c-0.473,0.303-1.155,0.453-2.046,0.453h-1.537c-0.873-0.008-1.533-0.158-1.981-0.451
			c-0.448-0.293-0.672-0.729-0.672-1.311c0-0.592,0.229-1.031,0.688-1.324c0.46-0.292,1.137-0.438,2.031-0.438h1.504
			c0.893,0.003,1.567,0.153,2.031,0.448c0.461,0.295,0.691,0.729,0.691,1.302C30.33,60.99,30.094,61.43,29.621,61.732z
			 M30.034,55.902c0.559-0.422,0.838-1.031,0.838-1.826c0-0.674-0.267-1.211-0.797-1.611c-0.532-0.4-1.251-0.602-2.156-0.602h-0.092
			c-0.935,0-1.665,0.197-2.191,0.594c-0.526,0.396-0.788,0.94-0.788,1.635c0,0.795,0.309,1.402,0.928,1.821l-0.82,0.032v0.596H33
			v-0.639H30.034z M29.304,55.902h-2.786c-0.361-0.15-0.638-0.367-0.828-0.65c-0.189-0.282-0.283-0.621-0.283-1.015
			c0-0.544,0.215-0.969,0.645-1.272c0.43-0.305,1.016-0.457,1.756-0.457c0.82,0,1.445,0.151,1.877,0.453
			c0.433,0.303,0.647,0.725,0.647,1.266c0,0.391-0.088,0.729-0.263,1.016C29.893,55.528,29.639,55.747,29.304,55.902z M30.766,51.1
			v-0.757l-2.459-1.654l2.459-1.654v-0.758l-2.959,2.057l-2.853-1.971v0.763l2.356,1.568l-2.356,1.568v0.757l2.853-1.971
			L30.766,51.1z"/>
	</g>
</g>
<path fill="#262D4C" d="M30.896,71l4.594,4.998l4.412-4.994"/>
<path fill="#262D4C" d="M30.896,102.998L35.49,97l4.412,5.994"/>
<path fill="#262D4C" d="M65.641,41.211l-6.781-0.287l0.412,6.652"/>
<path fill="#262D4C" d="M73,53c1.104,0,2,0.896,2,2s-0.896,2-2,2s-2-0.896-2-2S71.896,53,73,53z"/>
<path fill="none" stroke="#262D4C" stroke-miterlimit="10" d="M30,33.5"/>
<path fill="none" stroke="#262D4C" stroke-miterlimit="10" d="M29.139,33.5"/>
<path fill="#262D4C" d="M51.71,33H29v1h22.29l20.17,20h1.399L51.71,33z"/>
<path fill="#FFFFFF" d="M103.178,76V55.803h6.604c2.191,0,3.841,0.453,4.945,1.359c1.104,0.907,1.657,2.248,1.657,4.024
	c0,0.941-0.269,1.777-0.805,2.504c-0.536,0.725-1.269,1.287-2.19,1.686c1.09,0.305,1.952,0.885,2.586,1.74
	c0.633,0.855,0.95,1.875,0.95,3.059c0,1.814-0.588,3.236-1.762,4.273c-1.175,1.035-2.835,1.553-4.979,1.553H103.178z
	 M105.841,64.418h4.022c1.166,0,2.098-0.293,2.796-0.877s1.047-1.377,1.047-2.377c0-1.111-0.323-1.92-0.972-2.425
	c-0.646-0.505-1.633-0.758-2.955-0.758h-3.938V64.418z M105.841,66.553v7.27h4.397c1.238,0,2.217-0.32,2.934-0.965
	c0.717-0.643,1.075-1.527,1.075-2.656c0-2.432-1.322-3.648-3.968-3.648H105.841L105.841,66.553z"/>
</svg>
