<svg width="40" height="40" viewBox="0 0 40 40" xmlns="http://www.w3.org/2000/svg">
    <title>
        medium
    </title>
    <g fill="none" fill-rule="evenodd">
        <g transform="translate(2 2)">
            <circle stroke="#FFF" cx="18" cy="18" r="18"/>
            <path d="M26.182 13.383h-.647c-.24 0-.58.35-.58.575v8.128c0 .224.34.53.58.53h.647v1.93h-5.864v-1.93h1.227v-8.544h-.06L18.62 24.545H16.4l-2.83-10.473h-.07v8.544h1.227v1.93h-4.91v-1.93h.63c.26 0 .6-.306.6-.53v-8.128c0-.224-.34-.575-.6-.575h-.63v-1.928h6.14l2.016 7.578h.054l2.035-7.578h6.12v1.928" fill="#FFF"/>
        </g>
    </g>
</svg>
