<svg width="40" height="40" viewBox="0 0 40 40" xmlns="http://www.w3.org/2000/svg">
    <title>
        twitter
    </title>
    <g fill="none" fill-rule="evenodd">
        <g transform="translate(2.256 2)">
            <path d="M24.976 13.783c.728-.46 1.287-1.188 1.55-2.056-.683.426-1.436.735-2.24.902-.64-.724-1.558-1.175-2.573-1.175-1.946 0-3.523 1.664-3.523 3.717 0 .29.03.575.09.847-2.93-.157-5.526-1.635-7.266-3.886-.303.55-.477 1.19-.477 1.87 0 1.29.622 2.427 1.568 3.095-.577-.02-1.12-.19-1.597-.465v.045c0 1.802 1.214 3.305 2.83 3.645-.298.088-.608.13-.93.13-.228 0-.45-.02-.664-.065.448 1.477 1.75 2.553 3.293 2.582-1.207.997-2.727 1.59-4.378 1.59-.285 0-.566-.015-.842-.05 1.56 1.054 3.413 1.67 5.404 1.67 6.484 0 10.028-5.665 10.028-10.578 0-.162-.002-.322-.01-.48.69-.525 1.29-1.18 1.76-1.926-.632.296-1.312.496-2.024.585z"/>
        </g>
    </g>
</svg>
