<svg width="50" height="50" viewBox="0 0 50 50" xmlns="http://www.w3.org/2000/svg">
    <g fill="none" fill-rule="evenodd">
        <path d="M11.227 16.066c-.578-.578-1.514-.578-2.09 0l-7.393 7.392c-.577.577-.577 1.513 0 2.09l7.392 7.392c.29.29.667.433 1.045.433.38 0 .76-.144 1.05-.432.58-.57.58-1.51 0-2.09l-6.35-6.34 6.35-6.34c.58-.574.58-1.51 0-2.09zm29.48 0c-.577-.578-1.513-.578-2.09 0-.578.577-.578 1.513 0 2.09l6.346 6.347-6.347 6.347c-.577.577-.577 1.513 0 2.09.29.29.667.433 1.046.433.378 0 .756-.144 1.045-.432l7.392-7.39c.57-.57.57-1.51 0-2.09l-7.4-7.39z" fill="#64C800"/>
        <path d="M29.788 7.28c-.257-.083-.53-.107-.806-.07-.995.133-1.928 1.032-2.32 2.24l-.748 2.3-7.486 23.04c-.023.07-.032.143-.035.214 0 .043.38 7.824.38 7.824.01.22.122.392.288.446.06.017.11.02.17.014.12-.016.24-.088.34-.205l4.875-6.058.06-.09c.028-.047.053-.098.07-.152l7.486-23.037.75-2.305c.248-.76.256-1.56.02-2.24-.24-.68-.69-1.15-1.276-1.34L29.8 7.29z" fill="#FFC057"/>
    </g>
</svg>
