<svg width="50" height="50" viewBox="0 0 50 50" xmlns="http://www.w3.org/2000/svg">
    <g fill="none" fill-rule="evenodd">
        <path d="M26.77 27.664c-.324 0-.585.258-.585.578-.002-.32.26-.578.585-.578.325 0 .586.26.586.578 0-.32-.26-.578-.586-.578zm-.587.58c0 .32.263.578.587.578-.324 0-.587-.26-.587-.578zm.587.578c.324 0 .586-.26.586-.578 0 .32-.26.578-.586.578z"/>
        <path d="M14.057 41.047c-7 0-12.693-5.732-12.693-12.776 0-6.66 5.094-12.15 11.567-12.724C15.74 8.606 22.45 4.02 29.97 4.02c10.143 0 18.395 8.304 18.395 18.514 0 .798-.05 1.6-.15 2.382-.114.88-.915 1.5-1.787 1.387-.874-.114-1.49-.92-1.378-1.798.082-.647.125-1.31.125-1.972 0-8.438-6.82-15.304-15.205-15.304-6.52 0-12.31 4.173-14.403 10.387l-.367 1.09h-1.143c-5.24 0-9.503 4.29-9.503 9.564s4.264 9.566 9.503 9.566c.88 0 1.595.72 1.595 1.606 0 .888-.714 1.607-1.595 1.607z" fill="#008CDC"/>
        <path d="M21.895 43.345c1.176 2.234 3.964 3.106 6.227 1.947 1.85-.946 2.81-3.037 2.447-4.96l3.757-1.922c1.382 1.4 3.677 1.828 5.527.882 2.265-1.158 3.148-3.908 1.973-6.14-.915-1.743-2.827-2.827-4.692-2.593l-1.77-3.373c1.266-1.37 1.414-3.64.498-5.383-1.175-2.233-3.962-3.105-6.225-1.947-2.266 1.16-3.15 3.91-1.976 6.142.96 1.825 3.02 2.945 4.967 2.584l1.772 3.372c-1.037.998-1.673 2.35-1.493 3.756l-3.76 1.924c-1.39-1.25-3.513-1.336-5.28-.432-2.266 1.157-3.15 3.906-1.976 6.14z" fill="#FFC057"/>
    </g>
</svg>
