<svg width="50" height="50" viewBox="0 0 50 50" xmlns="http://www.w3.org/2000/svg">
    <g fill="none" fill-rule="evenodd">
        <path d="M44.38 4.938H15.25c-.856 0-.856 0-.856.856v29.13c0 .857 0 .857.857.857h29.13c.858 0 .858 0 .858-.855V5.795c0-.857 0-.857-.857-.857zm-2.57 27.416H17.82V8.364h23.99v23.99z" fill="#008CDC"/>
        <path d="M34.1 15.22H4.97c-.857 0-.857 0-.857.855v29.13c0 .857 0 .857.857.857H34.1c.857 0 .857 0 .857-.856v-29.13c0-.857 0-.857-.857-.857zm-2.57 27.416H7.54v-23.99h23.99v23.99z" fill="#FFC057"/>
        <path d="M16.108 10.078c1.713 0 3.426-1.713 3.426-3.427 0-1.712-1.713-3.426-3.426-3.426-1.714 0-3.427 1.714-3.427 3.427 0 1.714 1.714 3.428 3.428 3.428zM16.108 37.495c1.713 0 3.426-1.714 3.426-3.427 0-1.714-1.713-3.427-3.426-3.427-1.714 0-3.427 1.714-3.427 3.428 0 1.713 1.714 3.427 3.428 3.427zM43.524 10.078c1.714 0 3.427-1.713 3.427-3.427 0-1.712-1.712-3.426-3.426-3.426-1.713 0-3.427 1.714-3.427 3.427 0 1.714 1.714 3.428 3.427 3.428zM43.524 37.495c1.714 0 3.427-1.714 3.427-3.427 0-1.714-1.712-3.427-3.426-3.427-1.713 0-3.427 1.714-3.427 3.428 0 1.713 1.714 3.427 3.427 3.427z" fill="#008CDC"/>
        <path d="M33.243 20.36c1.714 0 3.427-1.714 3.427-3.427 0-1.714-1.713-3.427-3.427-3.427-1.713 0-3.427 1.713-3.427 3.427 0 1.713 1.714 3.427 3.427 3.427zM33.243 47.776c1.714 0 3.427-1.714 3.427-3.427 0-1.714-1.713-3.428-3.427-3.428-1.713 0-3.427 1.714-3.427 3.427 0 1.712 1.714 3.426 3.427 3.426zM5.826 20.36c1.714 0 3.427-1.714 3.427-3.427 0-1.714-1.713-3.427-3.427-3.427-1.713 0-3.427 1.713-3.427 3.426 0 1.714 1.713 3.428 3.426 3.428zM5.826 47.776c1.714 0 3.427-1.714 3.427-3.427 0-1.714-1.713-3.428-3.427-3.428-1.713 0-3.427 1.714-3.427 3.427 0 1.712 1.713 3.426 3.426 3.426z" fill="#FFC057"/>
    </g>
</svg>
