<?xml version="1.0" encoding="utf-8"?>
<!-- Generator: Adobe Illustrator 19.0.0, SVG Export Plug-In . SVG Version: 6.00 Build 0)  -->
<svg version="1.1" id="Layer_1" xmlns="http://www.w3.org/2000/svg" xmlns:xlink="http://www.w3.org/1999/xlink" x="0px" y="0px"
	 width="220px" height="444px" viewBox="-195 175 220 444" style="enable-background:new -195 175 220 444;" xml:space="preserve">
<style type="text/css">
	.st0{fill:none;stroke:#008CDC;stroke-width:4;}
	.st1{opacity:0.5;fill:#008CDC;enable-background:new    ;}
	.st2{opacity:0.7;fill:#008CDC;enable-background:new    ;}
	.st3{opacity:0.9;fill:#008CDC;enable-background:new    ;}
	.st4{fill:#008CDC;}
	.st5{opacity:0.3;fill:#008CDC;enable-background:new    ;}
	.st6{opacity:0.1;fill:#008CDC;enable-background:new    ;}
	.st7{fill:#CCE7F4;}
	.st8{fill:#FFFFFF;stroke:#008CDC;stroke-width:4;}
	.st9{fill:#008CDC;stroke:#008CDC;stroke-width:4;}
	.st10{fill:#FFCE29;}
</style>
<title>Dates Mobile</title>
<g>
	<path class="st0" d="M-85,258.8v243 M-85,565.8v20"/>
	<g transform="rotate(90 55.863 57.09)">
		<circle class="st1" cx="196.5" cy="198" r="2.5"/>
		<circle class="st2" cx="205.5" cy="198" r="2.5"/>
		<circle class="st3" cx="215.5" cy="198" r="2.5"/>
		<circle class="st4" cx="225.5" cy="198" r="2.5"/>
		<circle class="st4" cx="235.5" cy="198" r="2.5"/>
		<circle class="st4" cx="245.5" cy="198" r="2.5"/>
		<circle class="st5" cx="186.5" cy="198" r="2.5"/>
		<circle class="st6" cx="177.5" cy="198" r="2.5"/>
	</g>
	<g transform="rotate(90 -15.138 208.09)">
		<path class="st7" d="M181,302h24c2.8,0,5,2.2,5,5v59c0,2.8-2.2,5-5,5h-24c-2.8,0-5-2.2-5-5v-59C176,304.2,178.2,302,181,302z"/>
		<path class="st8" d="M186.2,282.1c0,2.8,2,4,4.4,2.7l9.3-4.8c2.5-1.3,2.4-3.3,0-4.5l-9.3-4.5c-2.5-1.2-4.5,0-4.5,2.8V282.1z"/>
		<path class="st4" d="M187.6,246.8v-1.2c0-2-1.6-3.6-3.6-3.6c-2,0-3.6,1.6-3.6,3.6v1.2c0,0.3,0.2,0.6,0.6,0.6h6.1
			C187.3,247.3,187.6,247.1,187.6,246.8L187.6,246.8z M181.5,246.2v-0.6c0-1.4,1.1-2.4,2.5-2.4c1.4,0,2.5,1.1,2.5,2.4v0.6H181.5z
			 M187.6,237.9c0-0.7-0.2-1.3-0.7-1.8c-0.2-0.2-0.5-0.1-0.7,0c-0.2,0.1-0.2,0.6,0,0.8c0.2,0.3,0.3,0.7,0.3,1.1c0,0.4-0.2,0.8-0.5,1
			c-0.2,0.2-0.4,0.3-0.7,0.4V236c0-0.3-0.2-0.5-0.4-0.5c0,0-0.1,0-0.1,0h-0.1c-1.4,0.1-2.4,1.1-2.4,2.5c0,1.4,1.2,2.5,2.6,2.5
			C186.4,240.4,187.6,239.3,187.6,237.9L187.6,237.9z M183.4,237.9c0.1-0.9,0.7-1.4,1.1-1.5v2.9
			C184.1,239.2,183.4,238.8,183.4,237.9z M187.6,231.5c0-0.6-0.2-1.2-0.5-1.6c-0.2-0.2-0.5-0.3-0.8-0.1c-0.2,0.2-0.3,0.5-0.1,0.8
			c0.2,0.3,0.3,0.6,0.3,1c0,0.8-0.7,1.5-1.5,1.5s-1.5-0.7-1.5-1.5c0-0.4,0.1-0.7,0.3-1c0.2-0.2,0.1-0.6-0.1-0.8
			c-0.2-0.2-0.6-0.1-0.8,0.1c-0.3,0.4-0.6,1-0.6,1.6c0,1.4,1.2,2.6,2.6,2.6C186.4,234.1,187.6,232.9,187.6,231.5L187.6,231.5z
			 M187.6,225.9c0-0.7-0.2-1.3-0.7-1.8c-0.2-0.2-0.5-0.1-0.7,0c-0.2,0.1-0.2,0.6,0,0.8c0.2,0.3,0.3,0.7,0.3,1.1c0,0.4-0.2,0.8-0.5,1
			c-0.2,0.2-0.4,0.3-0.7,0.3V224c0-0.3-0.2-0.5-0.4-0.5c0,0-0.1,0-0.1,0h-0.1c-1.4,0.1-2.4,1.1-2.4,2.5c0,1.4,1.2,2.5,2.6,2.5
			C186.4,228.4,187.6,227.3,187.6,225.9L187.6,225.9z M183.4,225.9c0.1-0.9,0.7-1.4,1.1-1.5v2.9
			C184.1,227.2,183.4,226.8,183.4,225.9z M183.5,216.4c0-0.6,0.5-1,1.1-1h2.4c0.3,0,0.5-0.3,0.5-0.6c0-0.3-0.2-0.5-0.5-0.5h-2.4
			c-1.2,0-2.2,1-2.2,2.1c0,0.7,0.3,1.2,0.7,1.6c-0.4,0.4-0.7,1-0.7,1.6c0,0.4,0.1,0.8,0.3,1.1c-0.2,0.1-0.3,0.3-0.3,0.5
			c0,0.3,0.2,0.5,0.6,0.5h4c0.3,0,0.5-0.2,0.5-0.4c0,0,0-0.1,0-0.1c0-0.2-0.1-0.4-0.3-0.5h-0.1c0,0,0,0-0.1,0h0c0,0-0.1,0-0.1,0
			h-2.4c-0.6,0-1.1-0.5-1.1-1c0-0.6,0.5-1.1,1-1.1h2.5c0.3,0,0.5-0.3,0.5-0.6c0-0.3-0.2-0.5-0.5-0.5h-2.5
			C184,217.5,183.5,217,183.5,216.4L183.5,216.4z M187,212c0.3,0,0.6-0.2,0.6-0.6c0-0.3-0.2-0.5-0.4-0.5c0.3-0.4,0.4-0.9,0.4-1.4
			c0-1.4-1.2-2.5-2.6-2.5c-1.4,0-2.6,1.1-2.6,2.5c0,0.5,0.2,1,0.4,1.4h-1.9c-0.3,0-0.6,0.2-0.6,0.6c0,0.3,0.3,0.6,0.6,0.6H187
			L187,212z M184,210.5c-0.3-0.3-0.4-0.6-0.4-1c0-0.4,0.2-0.7,0.4-1c0.3-0.3,0.6-0.4,1-0.4c0.4,0,0.8,0.2,1,0.4
			c0.3,0.3,0.4,0.6,0.4,1c0,0.4-0.2,0.7-0.4,1c-0.3,0.3-0.6,0.4-1,0.4C184.6,210.9,184.2,210.7,184,210.5z M187.6,203.1
			c0-0.7-0.2-1.3-0.7-1.8c-0.2-0.2-0.5-0.1-0.7,0c-0.2,0.1-0.2,0.6,0,0.8c0.2,0.3,0.3,0.7,0.3,1.1c0,0.4-0.2,0.8-0.5,1
			c-0.2,0.2-0.4,0.3-0.7,0.3v-3.3c0-0.3-0.2-0.5-0.4-0.5c0,0-0.1,0-0.1,0h-0.1c-1.4,0.1-2.4,1.1-2.4,2.5c0,1.4,1.2,2.5,2.6,2.5
			C186.4,205.6,187.6,204.5,187.6,203.1L187.6,203.1z M183.4,203.1c0.1-0.9,0.7-1.4,1.1-1.5v2.9
			C184.1,204.4,183.4,203.9,183.4,203.1z M182.4,196.5c0,0.5,0.2,1,0.4,1.3c0.1,0.1,0.1,0.2,0.2,0.2H183c-0.3,0-0.5,0.3-0.5,0.6
			c0,0.3,0.2,0.5,0.5,0.5h4.1c0.3,0,0.5-0.2,0.5-0.5c0-0.3-0.2-0.6-0.5-0.6h-2c-0.1-0.1-0.5-0.2-0.9-0.4c-0.2-0.1-0.4-0.3-0.5-0.5
			c-0.1-0.2-0.2-0.4-0.2-0.6c0-0.3-0.3-0.5-0.5-0.5C182.7,196,182.4,196.2,182.4,196.5z M200.4,228.7v2.2l-1.8-1.9
			c-0.5-0.5-1.2-0.8-1.8-0.8c-0.6,0-1.2,0.2-1.7,0.6c-0.5,0.5-0.8,1.2-0.8,1.8c0,0.6,0.2,1.2,0.6,1.7l0.3,0.3c0.2,0.2,0.6,0.2,0.8,0
			c0.2-0.2,0.3-0.6,0-0.8l-0.3-0.3c-0.2-0.3-0.3-0.6-0.3-0.9c0-0.4,0.1-0.7,0.4-1c0.3-0.2,0.6-0.3,0.9-0.3c0.4,0,0.7,0.1,1,0.4
			l2.8,3c0.2,0.2,0.6,0.2,0.8,0c0.1-0.1,0.2-0.3,0.2-0.4v-3.7c0-0.3-0.2-0.6-0.6-0.6C200.7,228.2,200.4,228.4,200.4,228.7
			L200.4,228.7z M200.4,226.1c0.6-0.4,1.1-1.1,1.1-1.9c0-0.8-0.5-1.5-1.1-1.9c-0.7-0.4-1.5-0.7-2.5-0.7c-0.9,0-1.8,0.2-2.5,0.7
			c-0.7,0.4-1.1,1.1-1.1,1.9c0,0.8,0.5,1.5,1.1,1.9c0.7,0.5,1.5,0.7,2.5,0.7C198.9,226.8,199.8,226.5,200.4,226.1z M199.8,223.2
			c0.4,0.3,0.6,0.6,0.6,1c0,0.3-0.2,0.7-0.6,1c-0.4,0.3-1.1,0.5-1.8,0.5c-0.7,0-1.4-0.2-1.8-0.5c-0.4-0.3-0.6-0.7-0.6-1
			c0-0.3,0.2-0.7,0.6-1c0.4-0.3,1.1-0.5,1.8-0.5C198.7,222.7,199.4,222.9,199.8,223.2z M194.9,217.4
			C194.9,217.4,194.9,217.4,194.9,217.4c-0.1,0-0.1,0-0.1,0c0,0,0,0-0.1,0c0,0,0,0-0.1,0c0,0,0,0,0,0l0,0l0,0c0,0,0,0,0,0
			c0,0,0,0,0,0c0,0,0,0,0,0c0,0,0,0,0,0c0,0,0,0,0,0.1c0,0,0,0,0,0c0,0,0,0,0,0.1c0,0,0,0,0,0v0.1c0,0,0,0.1,0,0.1c0,0,0,0,0,0
			c0,0,0,0,0,0.1c0,0,0,0,0,0.1c0,0,0,0,0,0l0.8,1.3c0.2,0.3,0.5,0.4,0.8,0.2c0.2-0.1,0.3-0.3,0.3-0.5c0-0.1,0-0.2-0.1-0.3l-0.2-0.4
			h5.1c0.3,0,0.6-0.2,0.6-0.6c0-0.3-0.2-0.6-0.6-0.6L194.9,217.4L194.9,217.4z M196.5,214.1c0,0.2,0,0.5,0.1,0.7l-1-0.1v-2.5
			c0-0.3-0.3-0.6-0.6-0.6c-0.3,0-0.6,0.3-0.6,0.6v3c0,0.1,0,0.2,0.1,0.3c0,0,0,0,0,0c0,0,0,0,0,0c0.1,0.1,0.2,0.2,0.4,0.3l2.7,0.3
			c0,0,0.1,0,0.2,0c0,0,0,0,0,0c0,0,0,0,0.1,0c0,0,0,0,0.1,0c0,0,0,0,0,0c0,0,0.1-0.1,0.1-0.1c0.2-0.2,0.2-0.6,0-0.8
			c-0.3-0.3-0.4-0.6-0.4-1c0-0.4,0.1-0.7,0.4-1c0.3-0.3,0.6-0.4,1-0.4c0.3,0,0.7,0.1,1,0.4c0.3,0.3,0.4,0.6,0.4,1
			c0,0.4-0.1,0.7-0.4,1c-0.2,0.2-0.2,0.6,0,0.8c0.2,0.2,0.6,0.2,0.8,0c0.5-0.5,0.8-1.2,0.8-1.8v0c0-0.7-0.2-1.3-0.8-1.8
			c-0.5-0.5-1.2-0.8-1.8-0.8c-0.7,0-1.3,0.2-1.8,0.8C196.7,212.8,196.5,213.4,196.5,214.1L196.5,214.1z M184,356.3
			c-1.2,0-2.2,1-2.2,2.2v1.8c0,0.3,0.2,0.6,0.6,0.6h6.1c0.3,0,0.6-0.3,0.6-0.6c0-0.3-0.3-0.6-0.6-0.6h-2.2v-1.3
			C186.2,357.2,185.2,356.3,184,356.3L184,356.3z M182.9,359.7v-1.3c0-0.6,0.5-1.1,1.1-1.1c0.6,0,1.1,0.5,1.1,1.1v1.3L182.9,359.7
			L182.9,359.7z M183.9,352.4c0,0.5,0.2,1,0.4,1.3c0.1,0.1,0.1,0.2,0.2,0.2h-0.1c-0.3,0-0.5,0.3-0.5,0.6c0,0.3,0.2,0.5,0.5,0.5h4.1
			c0.3,0,0.5-0.2,0.5-0.5c0-0.3-0.2-0.6-0.5-0.6h-2c-0.1-0.1-0.5-0.2-0.9-0.4c-0.2-0.1-0.4-0.3-0.5-0.5c-0.1-0.2-0.2-0.4-0.2-0.6
			c0-0.3-0.3-0.5-0.5-0.5C184.1,351.8,183.9,352.1,183.9,352.4L183.9,352.4z M189,348.8c0-0.7-0.2-1.3-0.7-1.8
			c-0.2-0.2-0.5-0.1-0.7,0c-0.2,0.1-0.2,0.6,0,0.8c0.2,0.3,0.3,0.7,0.3,1.1c0,0.4-0.2,0.8-0.5,1c-0.2,0.2-0.4,0.3-0.7,0.4v-3.3
			c0-0.3-0.2-0.5-0.4-0.5c0,0-0.1,0-0.1,0h-0.1c-1.4,0.1-2.4,1.1-2.4,2.5c0,1.4,1.2,2.5,2.6,2.5C187.8,351.3,189,350.2,189,348.8
			L189,348.8z M184.8,348.8c0.1-0.9,0.7-1.4,1.1-1.5v2.9C185.5,350.1,184.9,349.7,184.8,348.8L184.8,348.8z M186.5,344.4v-1.9
			c0-0.3-0.3-0.6-0.6-0.6c-0.3,0-0.6,0.3-0.6,0.6v1.9c0,0.3,0.3,0.6,0.6,0.6C186.2,345,186.5,344.7,186.5,344.4L186.5,344.4z
			 M189,338.3c0-0.7-0.3-1.3-0.8-1.7c-0.5-0.5-1.1-0.7-1.8-0.7c-0.7,0-1.3,0.3-1.8,0.7c-0.5,0.4-0.8,1-0.8,1.7
			c0,0.7,0.3,1.3,0.8,1.8c0.5,0.4,1.1,0.7,1.8,0.7c0.7,0,1.4-0.3,1.8-0.7C188.7,339.6,189,339,189,338.3L189,338.3z M185.4,339.3
			c-0.2-0.3-0.4-0.6-0.4-1c0-0.4,0.2-0.7,0.4-0.9c0.3-0.3,0.6-0.4,1.1-0.4c0.4,0,0.8,0.1,1.1,0.4c0.2,0.3,0.4,0.6,0.4,0.9
			c0,0.4-0.1,0.7-0.4,1c-0.3,0.2-0.6,0.4-1.1,0.4C186,339.6,185.6,339.5,185.4,339.3L185.4,339.3z M183.9,331.7c0,0.5,0.2,1,0.4,1.3
			c0.1,0.1,0.1,0.2,0.2,0.2h-0.1c-0.3,0-0.5,0.3-0.5,0.6c0,0.3,0.2,0.5,0.5,0.5h4.1c0.3,0,0.5-0.2,0.5-0.5c0-0.3-0.2-0.6-0.5-0.6h-2
			c-0.1,0-0.5-0.2-0.9-0.4c-0.2-0.1-0.4-0.3-0.5-0.5c-0.1-0.2-0.2-0.4-0.2-0.6c0-0.3-0.3-0.5-0.5-0.5
			C184.1,331.1,183.9,331.4,183.9,331.7L183.9,331.7z M186.4,325.4h-4.1c-0.3,0-0.6,0.2-0.6,0.6c0,0.3,0.3,0.6,0.6,0.6h1.9
			c-0.3,0.4-0.4,0.9-0.4,1.4c0,1.4,1.2,2.5,2.6,2.5c1.4,0,2.6-1.1,2.6-2.5c0-0.5-0.2-1-0.4-1.4c0.2-0.1,0.4-0.3,0.4-0.5
			c0-0.3-0.3-0.6-0.6-0.6H186.4L186.4,325.4z M185.4,326.9c0.3-0.3,0.6-0.4,1-0.4c0.4,0,0.8,0.2,1,0.4c0.3,0.3,0.4,0.6,0.4,1
			c0,0.4-0.2,0.7-0.4,1c-0.3,0.3-0.6,0.4-1,0.4c-0.4,0-0.8-0.2-1-0.4c-0.3-0.3-0.4-0.6-0.4-1C185,327.5,185.1,327.2,185.4,326.9z
			 M189,321.2c0-0.7-0.2-1.3-0.7-1.8c-0.2-0.2-0.5-0.1-0.7,0c-0.2,0.1-0.2,0.6,0,0.8c0.2,0.3,0.3,0.7,0.3,1.1c0,0.4-0.2,0.8-0.5,1
			c-0.2,0.2-0.4,0.3-0.7,0.4v-3.3c0-0.3-0.2-0.5-0.4-0.5c0,0-0.1,0-0.1,0h0c-1.4,0.1-2.4,1.1-2.4,2.5c0,1.4,1.2,2.5,2.6,2.5
			C187.8,323.7,189,322.7,189,321.2z M184.8,321.2c0.1-0.9,0.7-1.4,1.1-1.5v2.9C185.5,322.6,184.9,322.1,184.8,321.2L184.8,321.2z
			 M183.9,314.7c0,0.5,0.2,1,0.4,1.3c0.1,0.1,0.1,0.2,0.2,0.2h-0.1c-0.3,0-0.5,0.3-0.5,0.6c0,0.3,0.2,0.5,0.5,0.5h4.1
			c0.3,0,0.5-0.2,0.5-0.5c0-0.3-0.2-0.6-0.5-0.6h-2c-0.1-0.1-0.5-0.2-0.9-0.4c-0.2-0.1-0.4-0.3-0.5-0.5c-0.1-0.2-0.2-0.4-0.2-0.6
			c0-0.3-0.3-0.5-0.5-0.5C184.1,314.2,183.9,314.4,183.9,314.7L183.9,314.7z M202,349.8c0.5-0.6,1-1.5,1-2.6c0-0.7-0.2-1.4-0.6-1.9
			c-0.4-0.5-0.9-0.9-1.6-0.9c-0.3,0-0.6,0.1-0.9,0.2c-0.4,0.2-0.6,0.6-0.9,1c-0.2,0.4-0.3,0.9-0.4,1.4v0c-0.1,0.6-0.3,1-0.5,1.3
			c-0.1,0.1-0.2,0.2-0.3,0.3c-0.1,0.1-0.2,0.1-0.3,0.1c-0.2,0-0.4-0.1-0.6-0.4c-0.2-0.3-0.3-0.7-0.3-1.2c0-0.6,0.3-1.1,0.7-1.7
			c0.2-0.2,0.1-0.6-0.2-0.7c-0.2-0.2-0.6-0.1-0.7,0.1c-0.3,0.5-0.8,1.3-0.8,2.2c0,0.7,0.2,1.3,0.5,1.8c0.4,0.5,0.9,0.8,1.5,0.8
			c0.3,0,0.6-0.1,0.8-0.2c0.4-0.2,0.6-0.6,0.8-1c0.2-0.4,0.3-0.8,0.4-1.3v0c0.1-0.6,0.3-1.1,0.5-1.4c0.1-0.2,0.2-0.2,0.3-0.3
			c0.1-0.1,0.2-0.1,0.3-0.1c0.3,0,0.5,0.1,0.7,0.4c0.2,0.3,0.4,0.8,0.4,1.3c0,0.7-0.4,1.5-0.8,2c-0.2,0.2-0.2,0.6,0.1,0.8
			C201.4,350,201.8,350,202,349.8L202,349.8z M197.9,341.2v0.3h-1.5c-0.3,0-0.6,0.2-0.6,0.6c0,0.3,0.2,0.6,0.6,0.6h1.5v0.3
			c0,0.3,0.2,0.6,0.6,0.6c0.3,0,0.6-0.2,0.6-0.6v-0.3h2.9c0.6,0,1.1-0.5,1.1-1.1c0-0.3-0.2-0.6-0.6-0.6c-0.3,0-0.6,0.2-0.6,0.6H199
			v-0.3c0-0.3-0.3-0.6-0.6-0.6C198.1,340.6,197.9,340.9,197.9,341.2z M198.4,334.7c-0.3,0-0.6,0.2-0.6,0.5c0,0.3,0.2,0.5,0.5,0.5
			c-0.3,0.4-0.5,0.9-0.5,1.4c0,0.7,0.3,1.3,0.8,1.8c0.5,0.4,1.1,0.7,1.8,0.7c0.7,0,1.3-0.3,1.8-0.7c0.5-0.4,0.8-1,0.8-1.8
			c0-0.5-0.2-1-0.4-1.4c0.2-0.1,0.4-0.3,0.4-0.5c0-0.3-0.2-0.5-0.5-0.5H198.4L198.4,334.7z M201.5,336.2c0.3,0.2,0.4,0.6,0.4,1
			c0,0.4-0.1,0.7-0.4,1c-0.3,0.2-0.6,0.4-1.1,0.4c-0.4,0-0.8-0.1-1.1-0.4c-0.3-0.2-0.4-0.6-0.4-1c0-0.4,0.1-0.7,0.4-1
			c0.3-0.2,0.6-0.4,1.1-0.4C200.9,335.8,201.2,336,201.5,336.2L201.5,336.2z M197.9,330.1c0,0.5,0.2,1,0.4,1.3
			c0.1,0.1,0.1,0.2,0.2,0.2h-0.1c-0.3,0-0.5,0.3-0.5,0.6c0,0.3,0.2,0.5,0.5,0.5h4.1c0.3,0,0.5-0.2,0.5-0.5c0-0.3-0.2-0.6-0.5-0.6h-2
			c-0.1-0.1-0.5-0.2-0.9-0.4c-0.2-0.1-0.4-0.3-0.5-0.5c-0.1-0.2-0.2-0.4-0.2-0.6c0-0.3-0.3-0.5-0.5-0.5
			C198.1,329.6,197.9,329.8,197.9,330.1L197.9,330.1z M197.9,326.5v0.3h-1.5c-0.3,0-0.6,0.2-0.6,0.6c0,0.3,0.2,0.6,0.6,0.6h1.5v0.3
			c0,0.3,0.2,0.6,0.6,0.6c0.3,0,0.6-0.2,0.6-0.6v-0.3h2.9c0.6,0,1.1-0.5,1.1-1.1c0-0.3-0.2-0.6-0.6-0.6c-0.3,0-0.6,0.2-0.6,0.6H199
			v-0.3c0-0.3-0.3-0.6-0.6-0.6C198.1,325.9,197.9,326.2,197.9,326.5L197.9,326.5z"/>
	</g>
	<g transform="rotate(90 -46.137 230.09)">
		<circle class="st8" cx="188.5" cy="269.5" r="9.5"/>
		<path d="M177.4,229.5c0.1,0.1,0.2,0.2,0.3,0.1l6.6-2.8c0.1,0,0.1,0,0.1-0.1l0,0l0,0c0,0,0.1-0.1,0.1-0.2c0-0.1,0-0.1,0-0.1
			c0,0,0,0,0,0c0,0,0,0-0.1-0.1c0,0,0,0-0.1,0l-4.4-1.8l4.4-1.8c0,0,0,0,0,0c0,0,0.1,0,0.1,0c0,0,0,0,0,0c0,0,0-0.1,0-0.1v-0.1
			c0-0.1-0.1-0.2-0.2-0.2l-6.6-2.8c-0.1-0.1-0.3,0-0.3,0.1c-0.1,0.1,0,0.3,0.1,0.3l6.1,2.6l-4.3,1.8c-0.1,0.1-0.2,0.1-0.2,0.3
			c0,0.1,0.1,0.2,0.2,0.2l4.3,1.8l-6.1,2.6C177.4,229.3,177.3,229.4,177.4,229.5z M184.3,218.2c0.1,0,0.2-0.1,0.2-0.2
			c0-0.1-0.1-0.3-0.2-0.3h-4.6c-0.1,0-0.2,0.1-0.2,0.3c0,0.1,0.1,0.2,0.2,0.2L184.3,218.2L184.3,218.2z M178.3,218.2
			c0.1,0,0.3-0.1,0.3-0.2c0-0.1-0.1-0.3-0.3-0.3h-0.2c-0.1,0-0.2,0.1-0.2,0.3c0,0.1,0.1,0.2,0.2,0.2L178.3,218.2L178.3,218.2z
			 M184.3,211.7c0.1,0,0.2-0.1,0.2-0.2c0-0.1-0.1-0.2-0.2-0.2h-2.7c-1.1,0-2,0.9-2,2c0,0.6,0.3,1.2,0.7,1.6h-0.5
			c-0.1,0-0.2,0.1-0.2,0.2c0,0.1,0.1,0.2,0.2,0.2h4.6c0,0,0,0,0,0c0,0,0,0,0,0c0.1,0,0.1-0.1,0.1-0.2v-0.1c0-0.1,0-0.1-0.1-0.2
			c0,0-0.1,0-0.1-0.1h-2.8c-0.9,0-1.6-0.7-1.6-1.6c0-0.9,0.7-1.6,1.6-1.6L184.3,211.7L184.3,211.7z M179.5,207.5v0.6h-1.9
			c-0.1,0-0.2,0.1-0.2,0.3c0,0.1,0.1,0.2,0.2,0.2h1.9v0.6c0,0.2,0.1,0.2,0.2,0.2c0.1,0,0.2,0,0.2-0.2v-0.6h3.7
			c0.5,0,0.9-0.4,0.9-0.9c0-0.1-0.1-0.3-0.2-0.3c-0.1,0-0.3,0.1-0.3,0.3c0,0.1-0.1,0.4-0.4,0.4h-3.7v-0.7c0-0.1-0.1-0.2-0.2-0.2
			C179.6,207.2,179.5,207.4,179.5,207.5L179.5,207.5z M184.5,203.2c0-0.9-0.5-1.6-1.1-2c-0.1-0.1-0.3,0-0.4,0.1
			c-0.1,0.1,0,0.3,0.1,0.3c0.6,0.3,0.9,1,0.9,1.6c0,1-0.8,1.9-1.9,2V201c0-0.1-0.1-0.2-0.2-0.2h0c-1.3,0.1-2.3,1.1-2.3,2.4
			c0,1.4,1.1,2.4,2.5,2.4C183.4,205.7,184.5,204.6,184.5,203.2z M179.9,203.2c0-0.9,0.7-1.7,1.6-1.9v3.8
			C180.6,204.9,179.9,204.1,179.9,203.2L179.9,203.2z M184.3,199.2c0.1,0,0.2-0.1,0.2-0.3c0-0.1-0.1-0.2-0.2-0.2H182c0,0,0,0-0.1,0
			c-0.2-0.1-0.7-0.3-1.2-0.6c-0.5-0.3-0.8-0.8-0.8-1.5c0-0.1-0.1-0.2-0.2-0.2c-0.1,0-0.2,0.1-0.2,0.2c0,1,0.6,1.6,1.2,2
			c0,0,0.1,0.1,0.1,0.1h-1.1c-0.1,0-0.2,0.1-0.2,0.2c0,0.1,0.1,0.3,0.2,0.3H184.3z M198.4,224.2c0.1,0,0.1-0.1,0.1-0.2v-4.1
			c0-0.1-0.1-0.2-0.2-0.2c-0.1,0-0.3,0.1-0.3,0.2v3.4l-2.6-2.9c-0.5-0.5-1.1-0.8-1.8-0.8c-0.6,0-1.1,0.2-1.6,0.6
			c-0.5,0.5-0.8,1.1-0.8,1.7c0,0.6,0.2,1.1,0.6,1.6l0.3,0.4c0.1,0.1,0.2,0.1,0.3,0c0.1-0.1,0.1-0.2,0-0.3l-0.3-0.4
			c-0.3-0.4-0.5-0.8-0.5-1.3c0-0.5,0.2-1,0.6-1.4c0.4-0.3,0.8-0.5,1.2-0.5c0.5,0,1,0.2,1.4,0.6l3,3.4
			C198.2,224.2,198.3,224.2,198.4,224.2L198.4,224.2z M197.4,217.3c0.7-0.4,1.1-1.1,1.1-1.8c0-0.7-0.4-1.4-1.1-1.8
			c-0.7-0.4-1.5-0.7-2.5-0.7c-1,0-1.9,0.3-2.5,0.7c-0.6,0.4-1.1,1.1-1.1,1.8c0,0.7,0.4,1.4,1.1,1.8c0.7,0.4,1.6,0.7,2.5,0.7
			C195.9,218,196.8,217.7,197.4,217.3z M192.7,216.9c-0.6-0.4-0.9-0.9-0.9-1.4c0-0.5,0.3-1,0.9-1.4c0.6-0.4,1.3-0.6,2.2-0.6
			c0.9,0,1.7,0.2,2.2,0.6c0.5,0.4,0.9,0.9,0.9,1.4c0,0.5-0.3,1-0.9,1.4c-0.6,0.4-1.3,0.6-2.2,0.6C194,217.5,193.2,217.2,192.7,216.9
			L192.7,216.9z M198.3,209.6c0.1,0,0.2-0.1,0.2-0.2c0-0.1-0.1-0.2-0.2-0.2h-6.6c-0.1,0-0.1,0-0.2,0c-0.1,0.1-0.2,0.2-0.1,0.3
			l0.8,1.4c0.1,0.1,0.2,0.2,0.3,0.1c0.1,0,0.1-0.1,0.1-0.2c0,0,0-0.1,0-0.1l-0.6-1L198.3,209.6L198.3,209.6z M195.7,207.3
			c0.2,0,0.3,0,0.5,0c1.3,0,2.3-1.1,2.3-2.4c0-1.3-1.1-2.4-2.4-2.4c-1.3,0-2.4,1.1-2.4,2.4c0,0.7,0.3,1.3,0.8,1.8
			c-0.5-0.1-1-0.3-1.4-0.5c-0.8-0.5-1.3-1.1-1.3-2.1c0-0.1-0.1-0.2-0.3-0.2c-0.1,0-0.2,0.1-0.2,0.3c0,1.2,0.7,2,1.6,2.5
			C193.7,207.1,194.8,207.3,195.7,207.3L195.7,207.3z M196.1,206.7c-1,0-1.9-0.8-1.9-1.9c0-1,0.8-1.9,1.9-1.9s1.9,0.8,1.9,1.9
			c0,0.9-0.7,1.7-1.6,1.9c0,0,0,0-0.1,0C196.3,206.7,196.2,206.7,196.1,206.7L196.1,206.7L196.1,206.7z"/>
	</g>
	<g transform="rotate(90 28.863 156.09)">
		<circle class="st8" cx="187.5" cy="270" r="6"/>
		<path d="M183.9,225c0.1,0,0.2-0.1,0.2-0.2c0,0,0-0.1,0-0.1c-0.1-0.1-0.2-0.2-0.3-0.1l-6.7,2.5c-0.1,0-0.2,0.1-0.2,0.2
			c0,0.1,0.1,0.2,0.2,0.2l6.7,2.5c0.1,0.1,0.3,0,0.3-0.1c0,0,0-0.1,0-0.1c0-0.1-0.1-0.2-0.2-0.2l-1.7-0.6v-3.3L183.9,225L183.9,225z
			 M177.8,227.3l3.9-1.4v2.9C181.7,228.8,177.8,227.3,177.8,227.3z M182,223.3c1.1,0,2.1-0.9,2.1-2c0-1.2-0.9-2.1-2.1-2.1h-2.7
			c-0.1,0-0.2,0.1-0.2,0.3c0,0.1,0.1,0.2,0.2,0.2h2.7c0.9,0,1.6,0.7,1.6,1.6c0,0.9-0.7,1.5-1.6,1.5h-2.7c-0.1,0-0.2,0.1-0.2,0.2
			s0.1,0.2,0.2,0.2L182,223.3L182,223.3z M179.3,212.5c-0.1,0-0.2,0.1-0.2,0.2c0,0.1,0.1,0.3,0.2,0.3h0.7c-0.6,0.4-1,1.1-1,1.9
			c0,1.3,1.1,2.4,2.5,2.4c1.4,0,2.5-1.1,2.5-2.4c0-0.8-0.4-1.5-1-1.9h0.6c1,0,1.9,0.8,1.9,1.9c0,0.3-0.1,0.6-0.2,0.8
			c-0.1,0.1,0,0.3,0.1,0.3c0.1,0.1,0.3,0,0.3-0.1c0.1-0.3,0.2-0.7,0.2-1.1c0-1.3-1.1-2.4-2.4-2.4H179.3L179.3,212.5z M183.6,214.8
			c0,1-0.9,1.9-2,1.9c-1.1,0-2-0.8-2-1.9c0-1,0.9-1.9,2-1.9C182.7,213,183.6,213.8,183.6,214.8z M182,210.2c1.1,0,2.1-0.9,2.1-2
			c0-1.2-0.9-2.1-2.1-2.1h-2.7c-0.1,0-0.2,0.1-0.2,0.3c0,0.1,0.1,0.2,0.2,0.2h2.7c0.9,0,1.6,0.7,1.6,1.6c0,0.9-0.7,1.5-1.6,1.5h-2.7
			c-0.1,0-0.2,0.1-0.2,0.2c0,0.1,0.1,0.2,0.2,0.2H182L182,210.2z M183.4,204.1c0.3-0.4,0.7-1,0.7-1.9c0-0.5-0.1-0.9-0.4-1.3
			c-0.3-0.3-0.6-0.6-1-0.6c-0.4,0-0.8,0.2-1,0.6c-0.2,0.4-0.3,0.7-0.4,1.2v0c-0.1,0.5-0.2,0.8-0.4,1c-0.2,0.2-0.3,0.3-0.5,0.3
			c-0.2,0-0.4-0.1-0.6-0.3c-0.2-0.2-0.3-0.5-0.3-1c0-0.5,0.3-0.9,0.5-1.2c0.1-0.1,0-0.3-0.1-0.3c-0.1-0.1-0.3,0-0.3,0.1
			c-0.2,0.4-0.5,0.9-0.5,1.5c0,0.5,0.1,0.9,0.3,1.2c0.2,0.3,0.6,0.5,1,0.5c0.4,0,0.7-0.2,0.9-0.5c0.2-0.3,0.3-0.7,0.4-1.1l0,0
			c0.1-0.5,0.2-0.9,0.4-1.1c0.2-0.3,0.4-0.3,0.6-0.4c0.2,0,0.5,0.1,0.6,0.4c0.2,0.2,0.3,0.6,0.3,1c0,0.6-0.3,1.2-0.6,1.5
			c-0.1,0.1-0.1,0.3,0,0.4C183.1,204.2,183.3,204.2,183.4,204.1L183.4,204.1z M179,197v0.7h-1.9c-0.1,0-0.2,0.1-0.2,0.3
			c0,0.1,0.1,0.2,0.2,0.2h1.9v0.6c0,0.2,0.1,0.2,0.2,0.2c0.1,0,0.2,0,0.2-0.2v-0.6h3.7c0.5,0,0.9-0.4,0.9-0.9c0-0.1-0.1-0.3-0.2-0.3
			c-0.1,0-0.3,0.1-0.3,0.3c0,0.1-0.1,0.4-0.4,0.4h-3.7V197c0-0.1-0.1-0.2-0.2-0.2C179.2,196.8,179,196.9,179,197L179,197z M198,224
			c0.1,0,0.1-0.1,0.1-0.2v-4.1c0-0.1-0.1-0.2-0.2-0.2c-0.1,0-0.3,0.1-0.3,0.2v3.4l-2.6-2.9c-0.5-0.5-1.1-0.8-1.8-0.8
			c-0.6,0-1.1,0.2-1.6,0.6c-0.5,0.5-0.8,1.1-0.8,1.7c0,0.6,0.2,1.1,0.6,1.6l0.3,0.4c0.1,0.1,0.2,0.1,0.3,0c0.1-0.1,0.1-0.2,0-0.4
			l-0.3-0.3c-0.3-0.4-0.5-0.8-0.5-1.3c0-0.5,0.2-1,0.6-1.4c0.4-0.3,0.8-0.5,1.2-0.5c0.5,0,1,0.2,1.4,0.6l3,3.4
			C197.7,224.1,197.9,224.1,198,224L198,224z M197,217.1c0.7-0.4,1.1-1.1,1.1-1.8c0-0.7-0.4-1.4-1.1-1.8c-0.7-0.4-1.5-0.7-2.5-0.7
			s-1.9,0.3-2.5,0.7c-0.6,0.4-1.1,1.1-1.1,1.8c0,0.7,0.4,1.4,1.1,1.8c0.7,0.4,1.6,0.7,2.5,0.7S196.3,217.6,197,217.1z M192.2,216.7
			c-0.6-0.4-0.9-0.9-0.9-1.4c0-0.5,0.3-1,0.9-1.4c0.6-0.4,1.3-0.6,2.2-0.6s1.7,0.2,2.2,0.6c0.5,0.4,0.9,0.9,0.9,1.4
			c0,0.5-0.3,1-0.9,1.4c-0.6,0.4-1.3,0.6-2.2,0.6S192.8,217.1,192.2,216.7z M197.8,209.5c0.1,0,0.2-0.1,0.2-0.2
			c0-0.1-0.1-0.2-0.2-0.2h-6.6c-0.1,0-0.1,0-0.2,0c-0.1,0.1-0.2,0.2-0.1,0.3l0.8,1.4c0.1,0.1,0.2,0.2,0.3,0.1c0.1,0,0.1-0.1,0.1-0.2
			c0,0,0-0.1,0-0.1l-0.6-1H197.8L197.8,209.5z M198.1,205.3c0-0.6-0.2-1.3-0.7-1.7c-0.5-0.5-1.1-0.7-1.7-0.7c-0.6,0-1.3,0.2-1.7,0.7
			c-0.5,0.5-0.7,1.1-0.7,1.7c0,0.4,0.1,0.9,0.3,1.2l-2.1-0.3v-3.1c0-0.1-0.1-0.3-0.3-0.3c-0.1,0-0.3,0.1-0.3,0.3v3.4
			c0,0.1,0,0.1,0.1,0.2c0,0.1,0.1,0.1,0.2,0.1l2.9,0.4c0,0,0,0,0.1,0c0,0,0.1,0,0.1,0c0,0,0,0,0,0h0c0,0,0.1,0,0.1-0.1
			c0.1-0.1,0.1-0.3,0-0.4c-0.4-0.4-0.6-0.9-0.6-1.4c0-0.5,0.2-1,0.6-1.4c0.4-0.4,0.9-0.6,1.4-0.6c0.5,0,1,0.2,1.4,0.6
			c0.4,0.4,0.6,0.9,0.6,1.4c0,0.5-0.2,1-0.6,1.4c-0.1,0.1-0.1,0.3,0,0.4c0.1,0.1,0.3,0.1,0.4,0C197.8,206.6,198.1,205.9,198.1,205.3
			L198.1,205.3z M184.3,340.2c0.1,0,0.2-0.1,0.2-0.2c0-0.1-0.1-0.3-0.2-0.3h-3.1v-3c0-0.1-0.1-0.3-0.2-0.3c-0.1,0-0.3,0.1-0.3,0.3v3
			h-2.9v-3.5c0-0.1-0.1-0.2-0.3-0.2c-0.1,0-0.2,0.1-0.2,0.2v3.7c0,0.1,0.1,0.2,0.2,0.2L184.3,340.2L184.3,340.2z M184.3,334.1
			c0.1,0,0.2-0.1,0.2-0.2c0-0.1-0.1-0.3-0.2-0.3h-4.6c-0.1,0-0.2,0.1-0.2,0.3c0,0.1,0.1,0.2,0.2,0.2L184.3,334.1L184.3,334.1z
			 M178.3,334.1c0.1,0,0.3-0.1,0.3-0.2c0-0.1-0.1-0.3-0.3-0.3h-0.2c-0.1,0-0.2,0.1-0.2,0.3c0,0.1,0.1,0.2,0.2,0.2L178.3,334.1
			L178.3,334.1z M184.5,329.1c0-0.9-0.5-1.6-1.1-2c-0.1-0.1-0.3,0-0.4,0.1c-0.1,0.1,0,0.3,0.1,0.3c0.6,0.3,0.9,1,0.9,1.6
			c0,1-0.8,1.9-1.9,2v-4.1c0-0.1-0.1-0.2-0.2-0.2h0c-1.3,0.1-2.3,1.1-2.3,2.4c0,1.4,1.1,2.5,2.5,2.5
			C183.4,331.6,184.5,330.5,184.5,329.1L184.5,329.1z M179.9,329.1c0-0.9,0.7-1.7,1.6-1.9v3.8C180.6,330.9,180,330.1,179.9,329.1
			L179.9,329.1z M184.3,324.9c0.1,0,0.2-0.1,0.2-0.2c0-0.1-0.1-0.3-0.2-0.3h-6.7c-0.1,0-0.2,0.1-0.2,0.3c0,0.1,0.1,0.2,0.2,0.2
			L184.3,324.9L184.3,324.9z M184.3,318.4c0.1,0,0.2-0.1,0.2-0.3c0-0.1-0.1-0.2-0.2-0.2h-6.7c-0.1,0-0.2,0.1-0.2,0.2
			c0,0.1,0.1,0.3,0.2,0.3h2.9c-0.6,0.4-1,1.1-1,1.9c0,1.4,1.1,2.4,2.5,2.4c1.4,0,2.5-1.1,2.5-2.4c0-0.8-0.4-1.5-1-1.9L184.3,318.4
			L184.3,318.4z M184,320.3c0,1.1-0.9,1.9-2,1.9c-1.1,0-2-0.9-2-1.9c0-1,0.9-1.9,1.9-1.9h0.2C183.1,318.4,184,319.2,184,320.3
			L184,320.3z M198.3,354c0.1,0,0.2-0.1,0.2-0.2c0-0.1-0.1-0.3-0.2-0.3h-6.7c-0.1,0-0.2,0.1-0.2,0.3c0,0.1,0.1,0.2,0.2,0.2
			L198.3,354L198.3,354z M198.3,347.4c0.1,0,0.2-0.1,0.2-0.2c0-0.1-0.1-0.2-0.2-0.2h-2.7c-1.1,0-2,0.9-2,2c0,0.6,0.3,1.2,0.7,1.6
			h-0.5c-0.1,0-0.2,0.1-0.2,0.2c0,0.1,0.1,0.2,0.2,0.2h4.6c0,0,0,0,0,0c0,0,0,0,0,0c0.1,0,0.1-0.1,0.1-0.2v-0.1c0-0.1,0-0.1-0.1-0.2
			c0,0-0.1,0-0.1-0.1h-2.8c-0.9,0-1.6-0.7-1.6-1.6c0-0.9,0.7-1.6,1.6-1.6L198.3,347.4L198.3,347.4z M193.5,343.2v0.6h-1.9
			c-0.1,0-0.2,0.1-0.2,0.3c0,0.1,0.1,0.2,0.2,0.2h1.9v0.6c0,0.2,0.1,0.2,0.2,0.2c0.1,0,0.2,0,0.2-0.2v-0.6h3.7
			c0.5,0,0.9-0.4,0.9-0.9c0-0.1-0.1-0.3-0.2-0.3c-0.1,0-0.3,0.1-0.3,0.3c0,0.1-0.1,0.4-0.4,0.4h-3.7v-0.6c0-0.1-0.1-0.2-0.2-0.2
			C193.6,343,193.5,343.1,193.5,343.2z M198.5,338.9c0-0.9-0.5-1.6-1.1-2c-0.1-0.1-0.3,0-0.4,0.1c-0.1,0.1,0,0.3,0.1,0.3
			c0.6,0.3,0.9,1,0.9,1.6c0,1-0.8,1.9-1.9,2v-4.1c0-0.1-0.1-0.2-0.2-0.2h0c-1.3,0.1-2.3,1.1-2.3,2.4c0,1.4,1.1,2.5,2.5,2.5
			C197.4,341.4,198.5,340.3,198.5,338.9z M193.9,338.9c0-0.9,0.7-1.7,1.6-1.9v3.8C194.6,340.7,194,339.9,193.9,338.9L193.9,338.9z
			 M198.3,335c0.1,0,0.2-0.1,0.2-0.3c0-0.1-0.1-0.2-0.2-0.2H196c0,0,0,0-0.1,0c-0.2-0.1-0.7-0.3-1.2-0.6c-0.5-0.4-0.8-0.8-0.8-1.5
			c0-0.1-0.1-0.2-0.2-0.2c-0.1,0-0.2,0.1-0.2,0.2c0,1,0.6,1.6,1.2,2c0,0,0.1,0.1,0.1,0.1h-1.1c-0.1,0-0.2,0.1-0.2,0.2
			c0,0.1,0.1,0.3,0.2,0.3H198.3L198.3,335z M198.5,328.8C198.5,328.8,198.5,328.8,198.5,328.8c0-0.1,0-0.1,0-0.1
			c0-0.1,0-0.1-0.1-0.2c0,0-0.1,0-0.1-0.1l-4.5-1.9c-0.1-0.1-0.3,0-0.3,0.1c-0.1,0.1,0,0.3,0.1,0.3l4,1.7l-4,1.7
			c-0.1,0-0.2,0.2-0.1,0.3c0,0.1,0.2,0.2,0.3,0.1l4.5-1.9C198.4,328.9,198.4,328.9,198.5,328.8C198.5,328.8,198.5,328.8,198.5,328.8
			L198.5,328.8z M198.3,324.4c0.1,0,0.2-0.1,0.2-0.2c0-0.1-0.1-0.3-0.2-0.3h-4.6c-0.1,0-0.2,0.1-0.2,0.3c0,0.1,0.1,0.2,0.2,0.2
			H198.3L198.3,324.4z M192.3,324.4c0.1,0,0.3-0.1,0.3-0.2c0-0.1-0.1-0.3-0.3-0.3h-0.2c-0.1,0-0.2,0.1-0.2,0.3
			c0,0.1,0.1,0.2,0.2,0.2H192.3L192.3,324.4z M198.5,319.5c0-0.9-0.5-1.6-1.1-2c-0.1-0.1-0.3,0-0.3,0.1c-0.1,0.1,0,0.3,0.1,0.3
			c0.6,0.3,0.9,1,0.9,1.6c0,1-0.8,1.9-1.9,2v-4.1c0-0.1-0.1-0.2-0.2-0.2h0c-1.3,0.1-2.3,1.1-2.3,2.4c0,1.4,1.1,2.4,2.5,2.4
			C197.4,321.9,198.5,320.8,198.5,319.5z M193.9,319.5c0-0.9,0.7-1.7,1.6-1.9v3.8C194.6,321.2,193.9,320.4,193.9,319.5L193.9,319.5z
			 M198.5,313.8C198.5,313.8,198.5,313.8,198.5,313.8c0-0.2,0-0.3-0.1-0.3c0,0,0,0,0,0l-2.8-1.2l2.8-1.2l0,0c0.1,0,0.1-0.1,0.2-0.2
			v-0.1c0,0,0-0.1-0.1-0.1c0,0-0.1-0.1-0.1-0.1l-4.5-1.9c-0.1,0-0.3,0-0.3,0.1c0,0.1,0,0.3,0.1,0.3l4,1.7l-2.8,1.2
			c-0.1,0-0.2,0.1-0.2,0.2c0,0.1,0.1,0.2,0.2,0.2l2.8,1.2l-4,1.7c-0.1,0-0.2,0.2-0.1,0.3c0.1,0.1,0.2,0.2,0.3,0.1l4.5-1.9
			C198.4,313.9,198.4,313.9,198.5,313.8C198.5,313.9,198.5,313.8,198.5,313.8L198.5,313.8z M197.8,307.2c0.3-0.4,0.7-1,0.7-1.9
			c0-0.5-0.1-0.9-0.4-1.3c-0.3-0.3-0.6-0.6-1-0.6c-0.4,0-0.8,0.2-1,0.6c-0.2,0.4-0.3,0.7-0.4,1.2v0c-0.1,0.5-0.2,0.8-0.4,1
			c-0.2,0.2-0.3,0.3-0.5,0.3c-0.2,0-0.4-0.1-0.6-0.3c-0.2-0.2-0.3-0.5-0.3-1c0-0.5,0.3-0.9,0.5-1.2c0.1-0.1,0-0.3-0.1-0.3
			c-0.1-0.1-0.3,0-0.3,0.1c-0.2,0.4-0.5,0.9-0.5,1.5c0,0.5,0.1,0.9,0.3,1.2c0.2,0.3,0.6,0.5,1,0.5c0.4,0,0.7-0.2,0.9-0.5
			c0.2-0.3,0.3-0.7,0.4-1.1l0,0c0.1-0.5,0.2-0.9,0.4-1.1c0.2-0.3,0.4-0.4,0.6-0.4c0.2,0,0.5,0.1,0.6,0.4c0.2,0.2,0.3,0.6,0.3,1
			c0,0.6-0.3,1.2-0.6,1.5c-0.1,0.1-0.1,0.3,0,0.4C197.6,307.3,197.7,307.3,197.8,307.2L197.8,307.2z"/>
	</g>
	<g transform="rotate(90 51.363 128.59)">
		<circle class="st8" cx="187.5" cy="265" r="5.8"/>
		<path d="M182.4,220.5c1-0.3,1.7-1.2,1.7-2.3c0-1.3-1.1-2.4-2.4-2.4h-4.5c-0.1,0-0.2,0.1-0.2,0.2c0,0.1,0.1,0.2,0.2,0.2h4.5
			c1.1,0,1.9,0.9,1.9,1.9c0,0.9-0.6,1.6-1.3,1.9c-0.1,0-0.2,0.2-0.2,0.3C182.1,220.4,182.3,220.5,182.4,220.5L182.4,220.5z M182,214
			c1.1,0,2.1-0.9,2.1-2c0-1.2-0.9-2.1-2.1-2.1h-2.7c-0.1,0-0.2,0.1-0.2,0.3c0,0.1,0.1,0.2,0.2,0.2h2.7c0.9,0,1.6,0.7,1.6,1.6
			c0,0.9-0.7,1.5-1.6,1.5h-2.7c-0.1,0-0.2,0.1-0.2,0.2s0.1,0.2,0.2,0.2H182L182,214z M183.8,204.2c0.1,0,0.2-0.1,0.2-0.2
			c0-0.1-0.1-0.2-0.2-0.2h-2.7c-1.1,0-2,0.9-2,2c0,0.6,0.3,1.2,0.7,1.6h-0.5c-0.1,0-0.2,0.1-0.2,0.2c0,0.1,0.1,0.2,0.2,0.2h4.6
			c0,0,0,0,0,0c0,0,0,0,0,0c0.1,0,0.1-0.1,0.1-0.2v-0.1c0-0.1,0-0.1-0.1-0.2c0,0-0.1,0-0.1,0h-2.8c-0.9,0-1.6-0.7-1.6-1.6
			c0-0.9,0.7-1.6,1.6-1.6H183.8L183.8,204.2z M184.1,199.4c0-0.9-0.5-1.6-1.1-2c-0.1-0.1-0.3,0-0.3,0.1c-0.1,0.1,0,0.3,0.1,0.3
			c0.6,0.3,0.9,1,0.9,1.6c0,1-0.8,1.9-1.9,2v-4.1c0-0.1-0.1-0.2-0.2-0.2h0c-1.3,0.1-2.3,1.1-2.3,2.4c0,1.4,1.1,2.4,2.5,2.4
			C182.9,201.9,184.1,200.8,184.1,199.4L184.1,199.4z M179.5,199.4c0-0.9,0.7-1.7,1.6-1.9v3.8C180.2,201.2,179.5,200.4,179.5,199.4z
			 M198,219.5c0.1,0,0.1-0.1,0.1-0.2v-4.1c0-0.1-0.1-0.2-0.2-0.2c-0.1,0-0.3,0.1-0.3,0.2v3.4l-2.6-2.9c-0.5-0.5-1.1-0.8-1.8-0.8
			c-0.6,0-1.1,0.2-1.6,0.6c-0.5,0.5-0.8,1.1-0.8,1.7c0,0.6,0.2,1.1,0.6,1.6l0.3,0.4c0.1,0.1,0.2,0.1,0.3,0c0.1-0.1,0.1-0.2,0-0.4
			l-0.3-0.3c-0.3-0.4-0.5-0.8-0.5-1.3c0-0.5,0.2-1,0.6-1.4c0.4-0.3,0.8-0.5,1.2-0.5c0.5,0,1,0.2,1.4,0.6l3,3.4
			C197.7,219.6,197.9,219.6,198,219.5L198,219.5z M197,212.6c0.7-0.4,1.1-1.1,1.1-1.8c0-0.7-0.4-1.4-1.1-1.8
			c-0.7-0.4-1.5-0.7-2.5-0.7s-1.9,0.3-2.5,0.7c-0.6,0.4-1.1,1.1-1.1,1.8c0,0.7,0.4,1.4,1.1,1.8c0.7,0.4,1.6,0.7,2.5,0.7
			S196.3,213.1,197,212.6z M192.2,212.2c-0.6-0.4-0.9-0.9-0.9-1.4c0-0.5,0.3-1,0.9-1.4c0.6-0.4,1.3-0.6,2.2-0.6s1.7,0.2,2.2,0.6
			c0.5,0.4,0.9,0.9,0.9,1.4c0,0.5-0.3,1-0.9,1.4c-0.6,0.4-1.3,0.6-2.2,0.6S192.8,212.6,192.2,212.2z M197.8,205
			c0.1,0,0.2-0.1,0.2-0.2c0-0.1-0.1-0.2-0.2-0.2h-6.6c-0.1,0-0.1,0-0.2,0c-0.1,0.1-0.2,0.2-0.1,0.3l0.8,1.4c0.1,0.1,0.2,0.2,0.3,0.1
			c0.1,0,0.1-0.1,0.1-0.2c0,0,0-0.1,0-0.1l-0.6-1H197.8L197.8,205z M198.1,200.9c0-0.6-0.2-1.3-0.7-1.7c-0.5-0.5-1.1-0.7-1.7-0.7
			c-0.6,0-1.3,0.2-1.7,0.7c-0.5,0.5-0.7,1.1-0.7,1.7c0,0.4,0.1,0.9,0.3,1.2l-2.1-0.3v-3.1c0-0.1-0.1-0.3-0.3-0.3
			c-0.1,0-0.3,0.1-0.3,0.3v3.4c0,0.1,0,0.1,0.1,0.2c0,0.1,0.1,0.1,0.2,0.1l2.9,0.4c0,0,0,0,0.1,0c0,0,0.1,0,0.1,0c0,0,0,0,0,0h0
			c0,0,0.1,0,0.1-0.1c0.1-0.1,0.1-0.3,0-0.4c-0.4-0.4-0.6-0.9-0.6-1.4c0-0.5,0.2-1,0.6-1.4c0.4-0.4,0.9-0.6,1.4-0.6
			c0.5,0,1,0.2,1.4,0.6c0.4,0.4,0.6,0.9,0.6,1.4c0,0.5-0.2,1-0.6,1.4c-0.1,0.1-0.1,0.3,0,0.4c0.1,0.1,0.3,0.1,0.4,0
			C197.8,202.1,198.1,201.5,198.1,200.9L198.1,200.9z M180.9,352.3c2,0,3.6-1.7,3.6-3.7c0-0.9-0.3-1.7-0.8-2.3
			c-0.1-0.1-0.3-0.1-0.4,0c-0.1,0.1-0.1,0.2-0.1,0.4c0.5,0.5,0.7,1.2,0.7,2c0,1.8-1.4,3.2-3.1,3.2c-1.8,0-3.2-1.4-3.2-3.2
			c0-0.8,0.3-1.5,0.7-2c0.1-0.1,0.1-0.3-0.1-0.4c-0.1-0.1-0.3-0.1-0.4,0c-0.5,0.6-0.8,1.4-0.8,2.3
			C177.2,350.6,178.8,352.3,180.9,352.3L180.9,352.3z M182,344.5c1.4,0,2.5-1.1,2.5-2.4c0-1.3-1.2-2.4-2.5-2.4
			c-1.4,0-2.5,1.1-2.5,2.4C179.5,343.4,180.6,344.5,182,344.5L182,344.5z M182,344c-1.1,0-2-0.9-2-1.9c0-1,0.9-1.9,2-1.9
			c1.1,0,2,0.9,2,1.9C184,343.1,183.1,344,182,344L182,344z M184.3,334.2c0.1,0,0.2-0.1,0.2-0.2c0-0.1-0.1-0.2-0.2-0.2h-2.7
			c-1.1,0-2,0.9-2,2c0,0.6,0.3,1.2,0.7,1.6h-0.5c-0.1,0-0.2,0.1-0.2,0.2c0,0.1,0.1,0.2,0.2,0.2h4.6c0,0,0,0,0,0c0,0,0,0,0,0
			c0.1,0,0.1-0.1,0.1-0.2v-0.1c0-0.1,0-0.1-0.1-0.2c0,0-0.1,0-0.1-0.1h-2.8c-0.9,0-1.6-0.7-1.6-1.6c0-0.9,0.7-1.6,1.6-1.6
			L184.3,334.2L184.3,334.2z M184.5,329.2c0-0.6-0.2-1.2-0.5-1.6c-0.1-0.1-0.2-0.1-0.4-0.1c-0.1,0.1-0.1,0.2,0,0.3
			c0.3,0.4,0.4,0.8,0.4,1.3c0,1.2-0.9,2.1-2,2.1c-1.1,0-2-0.9-2-2.1c0-0.5,0.2-0.9,0.5-1.3c0.1-0.1,0.1-0.3,0-0.3
			c-0.1-0.1-0.3-0.1-0.3,0c-0.3,0.4-0.6,1-0.6,1.6c0,1.4,1.1,2.6,2.5,2.6C183.4,331.8,184.5,330.7,184.5,329.2L184.5,329.2z
			 M184.5,323.7c0-0.9-0.5-1.6-1.1-2c-0.1-0.1-0.3,0-0.3,0.1c-0.1,0.1,0,0.3,0.1,0.3c0.6,0.3,0.9,1,0.9,1.6c0,1-0.8,1.9-1.9,2v-4.1
			c0-0.1-0.1-0.2-0.2-0.2h0c-1.3,0.1-2.3,1.1-2.3,2.4c0,1.4,1.1,2.5,2.5,2.5C183.4,326.1,184.5,325,184.5,323.7L184.5,323.7z
			 M179.9,323.7c0-0.9,0.7-1.7,1.6-1.9v3.8C180.6,325.4,179.9,324.6,179.9,323.7L179.9,323.7z M186.4,319.5c0.1,0,0.2-0.1,0.2-0.2
			c0-0.1-0.1-0.3-0.2-0.3h-2.9c0.6-0.4,1-1.1,1-1.9c0-1.4-1.1-2.4-2.5-2.4c-1.4,0-2.5,1.1-2.5,2.4c0,0.8,0.4,1.5,1,1.9h-0.7
			c-0.1,0-0.2,0.1-0.2,0.3c0,0.1,0.1,0.2,0.2,0.2L186.4,319.5L186.4,319.5z M181.9,319c-1.1,0-1.9-0.9-1.9-1.9c0-1.1,0.9-1.9,2-1.9
			c1.1,0,2,0.9,2,1.9C184,318.1,183.1,319,181.9,319L181.9,319L181.9,319z M179.5,311.2v0.6h-1.9c-0.1,0-0.2,0.1-0.2,0.3
			c0,0.1,0.1,0.2,0.2,0.2h1.9v0.6c0,0.2,0.1,0.2,0.2,0.2c0.1,0,0.2,0,0.2-0.2v-0.6h3.7c0.5,0,0.9-0.4,0.9-0.9c0-0.1-0.1-0.3-0.2-0.3
			c-0.1,0-0.3,0.1-0.3,0.3c0,0.1-0.1,0.4-0.4,0.4h-3.7v-0.6c0-0.1-0.1-0.2-0.2-0.2C179.6,310.9,179.5,311.1,179.5,311.2L179.5,311.2
			z M182.4,308.7c1.1,0,2.1-0.9,2.1-2c0-1.2-0.9-2.1-2.1-2.1h-2.7c-0.1,0-0.2,0.1-0.2,0.3c0,0.1,0.1,0.2,0.2,0.2h2.7
			c0.9,0,1.6,0.7,1.6,1.6c0,0.9-0.7,1.5-1.6,1.5h-2.7c-0.1,0-0.2,0.1-0.2,0.2s0.1,0.2,0.2,0.2H182.4L182.4,308.7z M179.5,298.3
			c0,0.1,0.1,0.2,0.2,0.2h0.7c-0.6,0.4-1,1.1-1,1.9c0,1.3,1.1,2.4,2.5,2.4c1.4,0,2.5-1.1,2.5-2.4c0-0.8-0.4-1.5-1-1.9h0.8
			c0.1,0,0.2-0.1,0.2-0.2c0-0.1-0.1-0.2-0.2-0.2h-4.6C179.6,298,179.5,298.2,179.5,298.3L179.5,298.3z M184,300.4c0,1-0.9,1.9-2,1.9
			c-1.1,0-2-0.9-2-1.9c0-1,0.9-1.9,2-1.9C183.1,298.5,184,299.4,184,300.4L184,300.4z M181.1,296v-2.2c0-0.1-0.1-0.2-0.2-0.2
			c-0.1,0-0.2,0.1-0.2,0.2v2.2c0,0.1,0.1,0.2,0.2,0.2C181,296.2,181.1,296.1,181.1,296L181.1,296z M198.3,340.1
			c0.1,0,0.2-0.1,0.2-0.2c0-0.1-0.1-0.3-0.2-0.3h-6.7c-0.1,0-0.2,0.1-0.2,0.3c0,0.1,0.1,0.2,0.2,0.2L198.3,340.1L198.3,340.1z
			 M198.3,337.6c0.1,0,0.2-0.1,0.2-0.2c0-0.1-0.1-0.3-0.2-0.3h-4.6c-0.1,0-0.2,0.1-0.2,0.3c0,0.1,0.1,0.2,0.2,0.2L198.3,337.6
			L198.3,337.6z M192.3,337.6c0.1,0,0.3-0.1,0.3-0.2c0-0.1-0.1-0.3-0.3-0.3h-0.2c-0.1,0-0.2,0.1-0.2,0.3c0,0.1,0.1,0.2,0.2,0.2
			L192.3,337.6L192.3,337.6z M197.8,335.1c0.3-0.4,0.7-1,0.7-1.9c0-0.5-0.1-0.9-0.4-1.3c-0.3-0.3-0.6-0.6-1-0.6s-0.8,0.2-1,0.6
			c-0.2,0.4-0.3,0.7-0.4,1.2v0c-0.1,0.5-0.2,0.8-0.4,1c-0.2,0.2-0.3,0.3-0.5,0.3c-0.2,0-0.4-0.1-0.6-0.3c-0.2-0.2-0.3-0.5-0.3-1
			c0-0.5,0.3-0.9,0.5-1.2c0.1-0.1,0-0.3-0.1-0.3c-0.1-0.1-0.3,0-0.4,0.1c-0.2,0.4-0.5,0.9-0.5,1.5c0,0.5,0.1,0.9,0.3,1.2
			c0.2,0.3,0.6,0.5,1,0.5c0.4,0,0.7-0.2,0.9-0.5c0.2-0.3,0.3-0.7,0.4-1.1l0,0c0.1-0.5,0.2-0.9,0.4-1.1c0.2-0.3,0.4-0.4,0.6-0.4
			c0.2,0,0.5,0.1,0.6,0.4c0.2,0.2,0.3,0.6,0.3,1c0,0.6-0.3,1.2-0.6,1.5c-0.1,0.1-0.1,0.3,0,0.4C197.6,335.2,197.7,335.2,197.8,335.1
			L197.8,335.1z M193.5,325.7c0,0.1,0.1,0.2,0.2,0.2h0.7c-0.6,0.4-1,1.1-1,1.9c0,1.3,1.1,2.4,2.5,2.4c1.4,0,2.5-1.1,2.5-2.4
			c0-0.8-0.4-1.5-1-1.9h0.8c0.1,0,0.2-0.1,0.2-0.2c0-0.1-0.1-0.2-0.2-0.2h-4.6C193.6,325.4,193.5,325.6,193.5,325.7L193.5,325.7z
			 M198,327.8c0,1-0.9,1.9-2,1.9c-1.1,0-2-0.9-2-1.9c0-1,0.9-1.9,2-1.9C197.1,325.9,198,326.8,198,327.8L198,327.8z M193.5,321.8
			v0.6h-1.9c-0.1,0-0.2,0.1-0.2,0.3c0,0.1,0.1,0.2,0.2,0.2h1.9v0.6c0,0.2,0.1,0.2,0.2,0.2c0.1,0,0.2,0,0.2-0.2V323h3.7
			c0.5,0,0.9-0.4,0.9-0.9c0-0.1-0.1-0.3-0.2-0.3c-0.1,0-0.3,0.1-0.3,0.3c0,0.1-0.1,0.4-0.4,0.4h-3.7v-0.6c0-0.1-0.1-0.2-0.2-0.2
			C193.6,321.5,193.5,321.7,193.5,321.8L193.5,321.8z M198.3,319.2c0.1,0,0.2-0.1,0.2-0.2c0-0.1-0.1-0.3-0.2-0.3h-4.6
			c-0.1,0-0.2,0.1-0.2,0.3c0,0.1,0.1,0.2,0.2,0.2H198.3L198.3,319.2z M192.3,319.2c0.1,0,0.3-0.1,0.3-0.2c0-0.1-0.1-0.3-0.3-0.3
			h-0.2c-0.1,0-0.2,0.1-0.2,0.3c0,0.1,0.1,0.2,0.2,0.2H192.3L192.3,319.2z M196,316.5c1.4,0,2.5-1.1,2.5-2.4c0-1.3-1.2-2.4-2.5-2.4
			c-1.4,0-2.5,1.1-2.5,2.4C193.5,315.5,194.6,316.5,196,316.5L196,316.5z M196,316c-1.1,0-2-0.9-2-1.9c0-1,0.9-1.9,2-1.9
			c1.1,0,2,0.9,2,1.9C198,315.2,197.1,316,196,316L196,316z M198.3,306.3c0.1,0,0.2-0.1,0.2-0.2c0-0.1-0.1-0.2-0.2-0.2h-2.7
			c-1.1,0-2,0.9-2,2c0,0.6,0.3,1.2,0.7,1.6h-0.5c-0.1,0-0.2,0.1-0.2,0.2c0,0.1,0.1,0.2,0.2,0.2h4.6c0,0,0,0,0,0c0,0,0,0,0,0
			c0.1,0,0.1-0.1,0.1-0.2v-0.1c0-0.1,0-0.1-0.1-0.2c0,0-0.1,0-0.1-0.1h-2.8c-0.9,0-1.6-0.7-1.6-1.6c0-0.9,0.7-1.6,1.6-1.6
			L198.3,306.3L198.3,306.3z"/>
	</g>
	<g>
		<path d="M-34.6,211.6c0,0.1,0.1,0.2,0.2,0.2c0,0,0.1,0,0.1,0c0.1-0.1,0.2-0.2,0.1-0.3l-2.5-6.7c0-0.1-0.1-0.2-0.2-0.2
			c-0.1,0-0.2,0.1-0.2,0.2l-2.5,6.7c-0.1,0.1,0,0.3,0.1,0.3c0,0,0.1,0,0.1,0c0.1,0,0.2-0.1,0.2-0.2l0.6-1.7h3.3L-34.6,211.6
			L-34.6,211.6z M-36.9,205.6l1.4,3.9h-2.9C-38.4,209.4-36.9,205.6-36.9,205.6z M-32.7,213.7c0,0.1,0.1,0.2,0.2,0.2
			c0.1,0,0.3-0.1,0.3-0.2v-2.9c0.4,0.6,1.1,1,1.9,1c1.4,0,2.4-1.1,2.4-2.5c0-1.4-1.1-2.5-2.4-2.5c-0.8,0-1.5,0.4-1.9,1V207
			c0-0.1-0.1-0.2-0.3-0.2c-0.1,0-0.2,0.1-0.2,0.2V213.7L-32.7,213.7z M-32.2,209.2c0-1.1,0.9-1.9,1.9-1.9c1.1,0,1.9,0.9,1.9,2
			c0,1.1-0.9,2-1.9,2C-31.3,211.3-32.2,210.4-32.2,209.2L-32.2,209.2L-32.2,209.2z M-25.9,211.6c0,0.1,0.1,0.2,0.3,0.2
			c0.1,0,0.2-0.1,0.2-0.2v-2.2c0,0,0,0,0-0.1c0.1-0.2,0.3-0.7,0.6-1.2c0.4-0.5,0.8-0.8,1.5-0.8c0.1,0,0.2-0.1,0.2-0.2
			c0-0.1-0.1-0.2-0.2-0.2c-1,0-1.6,0.6-2,1.2c0,0-0.1,0.1-0.1,0.1V207c0-0.1-0.1-0.2-0.2-0.2c-0.1,0-0.3,0.1-0.3,0.2L-25.9,211.6
			L-25.9,211.6z M-21.4,211.6c0,0.1,0.1,0.2,0.2,0.2c0.1,0,0.3-0.1,0.3-0.2V207c0-0.1-0.1-0.2-0.3-0.2c-0.1,0-0.2,0.1-0.2,0.2
			L-21.4,211.6L-21.4,211.6z M-21.4,205.6c0,0.1,0.1,0.3,0.2,0.3c0.1,0,0.3-0.1,0.3-0.3v-0.2c0-0.1-0.1-0.2-0.3-0.2
			c-0.1,0-0.2,0.1-0.2,0.2L-21.4,205.6L-21.4,205.6z M-18.6,211.6c0,0.1,0.1,0.2,0.2,0.2c0.1,0,0.3-0.1,0.3-0.2v-6.7
			c0-0.1-0.1-0.2-0.3-0.2c-0.1,0-0.2,0.1-0.2,0.2V211.6z M-39.7,225.7c0,0.1,0.1,0.1,0.2,0.1h4.1c0.1,0,0.2-0.1,0.2-0.2
			c0-0.1-0.1-0.3-0.2-0.3h-3.4l2.9-2.6c0.5-0.5,0.8-1.1,0.8-1.8c0-0.6-0.2-1.1-0.6-1.6c-0.5-0.5-1.1-0.8-1.7-0.8
			c-0.6,0-1.1,0.2-1.6,0.6l-0.4,0.3c-0.1,0.1-0.1,0.2,0,0.4c0.1,0.1,0.2,0.1,0.4,0l0.4-0.3c0.4-0.3,0.8-0.5,1.3-0.5
			c0.5,0,1,0.2,1.4,0.6c0.3,0.4,0.5,0.8,0.5,1.2c0,0.5-0.2,1-0.6,1.4l-3.4,3C-39.7,225.5-39.7,225.6-39.7,225.7L-39.7,225.7z
			 M-32.8,224.7c0.4,0.7,1.1,1.1,1.8,1.1s1.4-0.4,1.8-1.1c0.4-0.7,0.7-1.5,0.7-2.5c0-1-0.3-1.9-0.7-2.5c-0.4-0.6-1.1-1.1-1.8-1.1
			c-0.7,0-1.4,0.4-1.8,1.1c-0.4,0.7-0.7,1.6-0.7,2.5C-33.5,223.2-33.2,224-32.8,224.7z M-32.3,220c0.4-0.6,0.9-0.9,1.4-0.9
			c0.5,0,1,0.3,1.4,0.9c0.4,0.6,0.6,1.3,0.6,2.2s-0.2,1.7-0.6,2.2c-0.4,0.5-0.9,0.9-1.4,0.9c-0.5,0-1-0.3-1.4-0.9
			c-0.4-0.6-0.6-1.3-0.6-2.2S-32.7,220.5-32.3,220L-32.3,220z M-25.1,225.6c0,0.1,0.1,0.2,0.2,0.2c0.1,0,0.2-0.1,0.2-0.2v-6.6
			c0-0.1,0-0.1,0-0.2c-0.1-0.1-0.2-0.2-0.3-0.1l-1.4,0.8c-0.1,0.1-0.2,0.2-0.1,0.3c0,0.1,0.1,0.1,0.2,0.1c0,0,0.1,0,0.1,0l1-0.6
			L-25.1,225.6L-25.1,225.6z M-21,225.8c0.6,0,1.3-0.2,1.7-0.7c0.5-0.5,0.7-1.1,0.7-1.7c0-0.6-0.2-1.3-0.7-1.7
			c-0.5-0.5-1.1-0.7-1.7-0.7c-0.4,0-0.9,0.1-1.2,0.3l0.3-2.1h3.1c0.1,0,0.3-0.1,0.3-0.3c0-0.1-0.1-0.3-0.3-0.3h-3.4
			c-0.1,0-0.1,0-0.2,0.1c-0.1,0-0.1,0.1-0.1,0.2l-0.4,2.9c0,0,0,0,0,0.1c0,0,0,0.1,0,0.1c0,0,0,0,0,0v0c0,0,0,0.1,0.1,0.1
			c0.1,0.1,0.3,0.1,0.4,0c0.4-0.4,0.9-0.6,1.4-0.6c0.5,0,1,0.2,1.4,0.6c0.4,0.4,0.6,0.9,0.6,1.4c0,0.5-0.2,1-0.6,1.4
			c-0.4,0.4-0.9,0.6-1.4,0.6s-1-0.2-1.4-0.6c-0.1-0.1-0.3-0.1-0.4,0c-0.1,0.1-0.1,0.3,0,0.4C-22.2,225.6-21.6,225.8-21,225.8
			L-21,225.8z M-154.6,218.5c0,0.1,0.1,0.2,0.2,0.2h2.1c1.1,0,2.1-0.9,2.1-2.1c0-0.9-0.6-1.7-1.4-1.9c0.4-0.3,0.7-0.8,0.7-1.4
			c0-1-0.8-1.8-1.8-1.8h-1.6c-0.1,0-0.2,0.1-0.2,0.2V218.5L-154.6,218.5z M-154.1,218.2v-3.1h1.8c0.9,0,1.5,0.7,1.6,1.6
			c0,0.9-0.7,1.6-1.6,1.6H-154.1L-154.1,218.2z M-154.1,214.6V212h1.3c0.7,0,1.3,0.6,1.3,1.3c0,0.7-0.6,1.3-1.3,1.3L-154.1,214.6
			L-154.1,214.6z M-149,218.5c0,0.1,0.1,0.2,0.2,0.2c0.1,0,0.3-0.1,0.3-0.2v-4.5c0-0.1-0.1-0.2-0.3-0.2c-0.1,0-0.2,0.1-0.2,0.2
			L-149,218.5L-149,218.5z M-149,212.5c0,0.1,0.1,0.3,0.2,0.3c0.1,0,0.3-0.1,0.3-0.3v-0.2c0-0.1-0.1-0.2-0.3-0.2
			c-0.1,0-0.2,0.1-0.2,0.2L-149,212.5L-149,212.5z M-146.1,218.5c0,0.1,0.1,0.2,0.3,0.2c0.1,0,0.2-0.1,0.2-0.2v-2.2c0,0,0,0,0-0.1
			c0.1-0.2,0.3-0.7,0.6-1.2c0.4-0.5,0.8-0.8,1.5-0.8c0.1,0,0.2-0.1,0.2-0.2c0-0.1-0.1-0.2-0.2-0.2c-1,0-1.6,0.6-2,1.2
			c0,0-0.1,0.1-0.1,0.1v-1.1c0-0.1-0.1-0.2-0.2-0.2c-0.1,0-0.3,0.1-0.3,0.2L-146.1,218.5L-146.1,218.5z M-140.1,213.7h-0.6v-1.9
			c0-0.1-0.1-0.2-0.3-0.2c-0.1,0-0.2,0.1-0.2,0.2v1.9h-0.6c-0.2,0-0.2,0.1-0.2,0.2c0,0.1,0,0.2,0.2,0.2h0.6v3.7
			c0,0.5,0.4,0.9,0.9,0.9c0.1,0,0.3-0.1,0.3-0.2c0-0.1-0.1-0.3-0.3-0.3c-0.1,0-0.4-0.1-0.4-0.4v-3.7h0.6c0.1,0,0.2-0.1,0.2-0.2
			C-139.8,213.8-140,213.7-140.1,213.7L-140.1,213.7z M-134,218.5c0,0.1,0.1,0.2,0.2,0.2c0.1,0,0.3-0.1,0.3-0.2v-2.8
			c0-1.2-0.9-2-2.1-2c-0.6,0-1.2,0.3-1.6,0.7v-2.7c0-0.1-0.1-0.2-0.3-0.2c-0.1,0-0.2,0.1-0.2,0.2v6.7c0,0,0,0.1,0,0.1
			c0,0,0,0.1,0,0.1c0.1,0.1,0.1,0.1,0.2,0.1h0.1c0,0,0,0,0,0c0.1,0,0.1-0.1,0.2-0.1c0,0,0,0,0,0c0,0,0,0,0,0v-2.8
			c0-0.9,0.7-1.5,1.6-1.5c0.9,0,1.6,0.6,1.6,1.5L-134,218.5L-134,218.5z"/>
	</g>
	<g transform="rotate(90 5.862 183.09)">
		<circle class="st8" cx="187.5" cy="274" r="6.8"/>
		<path d="M180.3,237.4c2,0,3.7-1.5,3.7-3.5c0-1.9-1.6-3.4-3.7-3.4c-2,0-3.7,1.5-3.7,3.4C176.7,235.8,178.3,237.4,180.3,237.4z
			 M180.3,236.9c-1.8,0-3.1-1.3-3.1-3c0-1.6,1.4-2.9,3.1-2.9c1.8,0,3.2,1.4,3.2,2.9C183.5,235.5,182.1,236.9,180.3,236.9z
			 M184,226.2c0-0.6-0.2-1.2-0.5-1.6c-0.1-0.1-0.2-0.1-0.4,0c-0.1,0.1-0.1,0.2,0,0.3c0.3,0.4,0.4,0.8,0.4,1.3c0,1.2-0.9,2.1-2,2.1
			c-1.1,0-2-0.9-2-2.1c0-0.5,0.2-0.9,0.5-1.3c0.1-0.1,0.1-0.3,0-0.3c-0.1-0.1-0.3-0.1-0.3,0c-0.4,0.4-0.6,1-0.6,1.6
			c0,1.4,1.1,2.6,2.5,2.6C182.9,228.8,184,227.6,184,226.2L184,226.2z M179,221v0.6h-1.9c-0.1,0-0.2,0.1-0.2,0.3
			c0,0.1,0.1,0.2,0.2,0.2h1.9v0.6c0,0.2,0.1,0.2,0.2,0.2c0.1,0,0.2,0,0.2-0.2v-0.6h3.7c0.5,0,0.9-0.4,0.9-0.9c0-0.1-0.1-0.3-0.2-0.3
			c-0.1,0-0.3,0.1-0.3,0.3c0,0.1-0.1,0.4-0.4,0.4h-3.7V221c0-0.1-0.1-0.2-0.2-0.2C179.1,220.8,179,220.9,179,221L179,221z
			 M181.5,218.8c1.4,0,2.5-1.1,2.5-2.4c0-1.3-1.2-2.4-2.5-2.4c-1.4,0-2.5,1.1-2.5,2.4C179,217.7,180.1,218.8,181.5,218.8
			L181.5,218.8z M181.5,218.3c-1.1,0-2-0.9-2-1.9c0-1,0.9-1.9,2-1.9c1.1,0,2,0.9,2,1.9C183.5,217.4,182.6,218.3,181.5,218.3
			L181.5,218.3z M183.8,212.1c0.1,0,0.2-0.1,0.2-0.2c0-0.1-0.1-0.3-0.2-0.3H183c0.6-0.4,1-1.1,1-1.9c0-1.4-1.1-2.4-2.5-2.4
			c-1.4,0-2.5,1.1-2.5,2.4c0,0.8,0.4,1.5,1,1.9H177c-0.1,0-0.2,0.1-0.2,0.3c0,0.1,0.1,0.2,0.2,0.2L183.8,212.1L183.8,212.1z
			 M181.4,211.6c-1.1,0-1.9-0.9-1.9-1.9c0-1.1,0.9-1.9,2-1.9c1.1,0,2,0.9,2,1.9C183.5,210.8,182.6,211.6,181.4,211.6L181.4,211.6
			L181.4,211.6z M184,203.3c0-0.9-0.5-1.6-1.1-2c-0.1-0.1-0.3,0-0.4,0.1c-0.1,0.1,0,0.3,0.1,0.3c0.6,0.3,0.9,1,0.9,1.6
			c0,1-0.8,1.9-1.9,2v-4.1c0-0.1-0.1-0.2-0.2-0.2h0c-1.3,0.1-2.3,1.1-2.3,2.4c0,1.4,1.1,2.4,2.5,2.4
			C182.9,205.7,184,204.6,184,203.3L184,203.3z M179.4,203.3c0-0.9,0.7-1.7,1.6-1.9v3.8C180.1,205,179.4,204.2,179.4,203.3
			L179.4,203.3z M183.8,199.3c0.1,0,0.2-0.1,0.2-0.3c0-0.1-0.1-0.2-0.2-0.2h-2.2c0,0,0,0-0.1,0c-0.2-0.1-0.7-0.3-1.2-0.6
			c-0.5-0.3-0.8-0.8-0.8-1.5c0-0.1-0.1-0.2-0.2-0.2c-0.1,0-0.2,0.1-0.2,0.2c0,1,0.6,1.6,1.2,2c0,0,0.1,0.1,0.1,0.1h-1.1
			c-0.1,0-0.2,0.1-0.2,0.2c0,0.1,0.1,0.3,0.2,0.3L183.8,199.3L183.8,199.3z M197.9,227.9c0.1,0,0.1-0.1,0.1-0.2v-4.1
			c0-0.1-0.1-0.2-0.2-0.2c-0.1,0-0.3,0.1-0.3,0.2v3.4l-2.6-2.9c-0.5-0.5-1.1-0.8-1.8-0.8c-0.6,0-1.1,0.2-1.6,0.6
			c-0.5,0.5-0.8,1.1-0.8,1.7c0,0.6,0.2,1.1,0.6,1.6l0.3,0.3c0.1,0.1,0.2,0.1,0.3,0c0.1-0.1,0.1-0.2,0-0.3l-0.3-0.4
			c-0.3-0.4-0.5-0.8-0.5-1.3c0-0.5,0.2-1,0.6-1.4c0.4-0.3,0.8-0.5,1.2-0.5c0.5,0,1,0.2,1.4,0.6l3,3.4
			C197.7,228,197.8,228,197.9,227.9L197.9,227.9z M196.9,221c0.6-0.4,1.1-1.1,1.1-1.8s-0.4-1.4-1.1-1.8c-0.7-0.4-1.5-0.7-2.5-0.7
			c-1,0-1.9,0.3-2.5,0.7c-0.6,0.4-1.1,1.1-1.1,1.8c0,0.7,0.4,1.4,1.1,1.8c0.7,0.4,1.6,0.7,2.5,0.7S196.2,221.4,196.9,221z
			 M192.2,220.6c-0.6-0.4-0.9-0.9-0.9-1.4c0-0.5,0.3-1,0.9-1.4c0.6-0.4,1.3-0.6,2.2-0.6c0.9,0,1.7,0.2,2.2,0.6
			c0.5,0.4,0.9,0.9,0.9,1.4c0,0.5-0.3,1-0.9,1.4c-0.6,0.4-1.3,0.6-2.2,0.6C193.5,221.2,192.7,220.9,192.2,220.6L192.2,220.6z
			 M197.8,213.4c0.1,0,0.2-0.1,0.2-0.2c0-0.1-0.1-0.2-0.2-0.2h-6.6c-0.1,0-0.1,0-0.2,0c-0.1,0.1-0.2,0.2-0.1,0.3l0.8,1.4
			c0.1,0.1,0.2,0.2,0.3,0.1c0.1,0,0.1-0.1,0.1-0.2c0,0,0-0.1,0-0.1l-0.6-1C191.5,213.4,197.8,213.4,197.8,213.4z M198,209.2
			c0-0.6-0.2-1.3-0.7-1.7c-0.5-0.5-1.1-0.7-1.7-0.7c-0.6,0-1.3,0.2-1.7,0.7c-0.5,0.5-0.7,1.1-0.7,1.7c0,0.4,0.1,0.9,0.3,1.2
			l-2.1-0.3V207c0-0.1-0.1-0.3-0.3-0.3c-0.1,0-0.3,0.1-0.3,0.3v3.4c0,0.1,0,0.1,0.1,0.2c0,0.1,0.1,0.1,0.2,0.1l2.9,0.4
			c0,0,0,0,0.1,0c0,0,0.1,0,0.1,0c0,0,0,0,0,0h0c0,0,0.1,0,0.1-0.1c0.1-0.1,0.1-0.3,0-0.4c-0.4-0.4-0.6-0.9-0.6-1.4
			c0-0.5,0.2-1,0.6-1.4c0.4-0.4,0.9-0.6,1.4-0.6c0.5,0,1,0.2,1.4,0.6c0.4,0.4,0.6,0.9,0.6,1.4c0,0.5-0.2,1-0.6,1.4
			c-0.1,0.1-0.1,0.3,0,0.4c0.1,0.1,0.3,0.1,0.4,0C197.8,210.5,198,209.8,198,209.2L198,209.2z M183,360c0.5-0.6,1-1.6,1-2.7
			c0-0.7-0.2-1.4-0.6-1.9c-0.4-0.5-0.9-0.8-1.4-0.8c-0.6,0-1.1,0.3-1.4,0.8c-0.3,0.5-0.5,1.1-0.7,1.8v0c-0.1,0.6-0.3,1.2-0.5,1.5
			c-0.2,0.4-0.5,0.5-0.9,0.5c-0.4,0-0.7-0.2-1-0.6c-0.3-0.4-0.4-0.9-0.4-1.5c0-0.8,0.4-1.4,0.8-2c0.1-0.1,0-0.2-0.1-0.3
			c-0.1-0.1-0.2,0-0.3,0.1c-0.4,0.6-0.8,1.3-0.8,2.2c0,0.7,0.2,1.3,0.5,1.7c0.3,0.5,0.8,0.8,1.3,0.8c0.5,0,1-0.3,1.3-0.7
			c0.3-0.4,0.5-1,0.6-1.7v0c0.1-0.7,0.3-1.3,0.6-1.7c0.3-0.4,0.6-0.6,1-0.6c0.4,0,0.8,0.2,1.1,0.6c0.3,0.4,0.5,1,0.5,1.6
			c0,0.9-0.5,1.8-0.9,2.4c-0.1,0.1-0.1,0.2,0,0.3C182.7,360.1,182.9,360.1,183,360L183,360z M179,351.5v0.6h-1.9
			c-0.1,0-0.2,0.1-0.2,0.3c0,0.1,0.1,0.2,0.2,0.2h1.9v0.6c0,0.2,0.1,0.2,0.2,0.2c0.1,0,0.2,0,0.2-0.2v-0.6h3.7
			c0.5,0,0.9-0.4,0.9-0.9c0-0.1-0.1-0.3-0.2-0.3c-0.1,0-0.3,0.1-0.3,0.3c0,0.1-0.1,0.4-0.4,0.4h-3.7v-0.6c0-0.1-0.1-0.2-0.2-0.2
			C179.1,351.2,179,351.3,179,351.5L179,351.5z M179,345.2c0,0.1,0.1,0.2,0.2,0.2h0.7c-0.6,0.4-1,1.1-1,1.9c0,1.3,1.1,2.4,2.5,2.4
			c1.4,0,2.5-1.1,2.5-2.4c0-0.8-0.4-1.5-1-1.9h0.8c0.1,0,0.2-0.1,0.2-0.2c0-0.1-0.1-0.2-0.2-0.2h-4.6C179.1,344.9,179,345,179,345.2
			L179,345.2z M183.5,347.3c0,1-0.9,1.9-2,1.9c-1.1,0-2-0.9-2-1.9c0-1,0.9-1.9,2-1.9C182.6,345.4,183.5,346.3,183.5,347.3
			L183.5,347.3z M183.8,342.8c0.1,0,0.2-0.1,0.2-0.3c0-0.1-0.1-0.2-0.2-0.2h-2.2c0,0,0,0-0.1,0c-0.2-0.1-0.7-0.3-1.2-0.6
			c-0.5-0.4-0.8-0.8-0.8-1.5c0-0.1-0.1-0.2-0.2-0.2c-0.1,0-0.2,0.1-0.2,0.2c0,1,0.6,1.6,1.2,2c0,0,0.1,0.1,0.1,0.1h-1.1
			c-0.1,0-0.2,0.1-0.2,0.2c0,0.1,0.1,0.3,0.2,0.3L183.8,342.8L183.8,342.8z M179,336.8v0.6h-1.9c-0.1,0-0.2,0.1-0.2,0.3
			c0,0.1,0.1,0.2,0.2,0.2h1.9v0.6c0,0.2,0.1,0.2,0.2,0.2c0.1,0,0.2,0,0.2-0.2v-0.6h3.7c0.5,0,0.9-0.4,0.9-0.9c0-0.1-0.1-0.3-0.2-0.3
			c-0.1,0-0.3,0.1-0.3,0.3c0,0.1-0.1,0.4-0.4,0.4h-3.7v-0.6c0-0.1-0.1-0.2-0.2-0.2C179.1,336.5,179,336.6,179,336.8L179,336.8z
			 M184,332.5c0-0.9-0.5-1.6-1.1-2c-0.1-0.1-0.3,0-0.4,0.1c-0.1,0.1,0,0.3,0.1,0.3c0.6,0.3,0.9,1,0.9,1.6c0,1-0.8,1.9-1.9,2v-4.1
			c0-0.1-0.1-0.2-0.2-0.2h0c-1.3,0.1-2.3,1.1-2.3,2.4c0,1.4,1.1,2.4,2.5,2.4C182.9,334.9,184,333.8,184,332.5L184,332.5z
			 M179.4,332.5c0-0.9,0.7-1.7,1.6-1.9v3.8C180.1,334.2,179.5,333.4,179.4,332.5L179.4,332.5z M183.8,328.5c0.1,0,0.2-0.1,0.2-0.3
			c0-0.1-0.1-0.2-0.2-0.2h-2.2c0,0,0,0-0.1,0c-0.2-0.1-0.7-0.3-1.2-0.6c-0.5-0.4-0.8-0.8-0.8-1.5c0-0.1-0.1-0.2-0.2-0.2
			c-0.1,0-0.2,0.1-0.2,0.2c0,1,0.6,1.6,1.2,2c0,0,0.1,0.1,0.1,0.1h-1.1c-0.1,0-0.2,0.1-0.2,0.2c0,0.1,0.1,0.3,0.2,0.3H183.8
			L183.8,328.5z M183.8,320.8c0.1,0,0.2-0.1,0.2-0.2c0-0.1-0.1-0.3-0.2-0.3H182l-1.6-1.6l3.5-2.8c0.1-0.1,0.1-0.1,0.1-0.2
			c0-0.1,0-0.1-0.1-0.2c-0.1-0.1-0.2-0.1-0.4,0l-3.6,2.8l-2.8-2.8c-0.1-0.1-0.3-0.1-0.4,0c-0.1,0.1-0.1,0.2,0,0.4l4.4,4.4h-4.2
			c-0.1,0-0.3,0.1-0.3,0.3c0,0.1,0.1,0.2,0.3,0.2H183.8L183.8,320.8z M183.8,313.5c0.1,0,0.2-0.1,0.2-0.2c0-0.1-0.1-0.3-0.2-0.3
			h-4.6c-0.1,0-0.2,0.1-0.2,0.3c0,0.1,0.1,0.2,0.2,0.2L183.8,313.5L183.8,313.5z M177.8,313.5c0.1,0,0.3-0.1,0.3-0.2
			c0-0.1-0.1-0.3-0.3-0.3h-0.2c-0.1,0-0.2,0.1-0.2,0.3c0,0.1,0.1,0.2,0.2,0.2L177.8,313.5L177.8,313.5z M179,309.1v0.6h-1.9
			c-0.1,0-0.2,0.1-0.2,0.3c0,0.1,0.1,0.2,0.2,0.2h1.9v0.6c0,0.2,0.1,0.2,0.2,0.2c0.1,0,0.2,0,0.2-0.2v-0.6h3.7
			c0.5,0,0.9-0.4,0.9-0.9c0-0.1-0.1-0.3-0.2-0.3c-0.1,0-0.3,0.1-0.3,0.3c0,0.1-0.1,0.4-0.4,0.4h-3.7v-0.6c0-0.1-0.1-0.2-0.2-0.2
			C179.1,308.9,179,309,179,309.1L179,309.1z M198,365.3c0-2-1.6-3.6-3.6-3.6c-2,0-3.6,1.6-3.6,3.6v1.4c0,0.1,0.1,0.2,0.2,0.2h6.7
			c0.1,0,0.2-0.1,0.2-0.2C198,366.6,198,365.3,198,365.3z M197.5,366.4h-6.2v-1.1c0-1.7,1.4-3.1,3.1-3.1c1.7,0,3.1,1.4,3.1,3.1
			V366.4L197.5,366.4z M198,357.5c0-0.9-0.5-1.6-1.1-2c-0.1-0.1-0.3,0-0.4,0.1c-0.1,0.1,0,0.3,0.1,0.3c0.6,0.3,0.9,1,0.9,1.6
			c0,1-0.8,1.9-1.9,2v-4.1c0-0.1-0.1-0.2-0.2-0.2h0c-1.3,0.1-2.3,1.1-2.3,2.4c0,1.4,1.1,2.4,2.5,2.4
			C196.9,359.9,198,358.8,198,357.5L198,357.5z M193.4,357.5c0-0.9,0.7-1.7,1.6-1.9v3.8C194.1,359.2,193.5,358.4,193.4,357.5
			L193.4,357.5z M198,351.9C198,351.9,198,351.9,198,351.9c0,0,0-0.1,0-0.1c0-0.1,0-0.1-0.1-0.2c0,0-0.1,0-0.1-0.1l-4.5-1.9
			c-0.1-0.1-0.3,0-0.3,0.1c-0.1,0.1,0,0.3,0.1,0.3l4,1.7l-4,1.7c-0.1,0-0.2,0.2-0.1,0.3c0.1,0.1,0.2,0.2,0.3,0.1l4.5-1.9
			C197.9,352,197.9,352,198,351.9C198,351.9,198,351.9,198,351.9L198,351.9z M198,345.8c0-0.9-0.5-1.6-1.1-2c-0.1-0.1-0.3,0-0.4,0.1
			c-0.1,0.1,0,0.3,0.1,0.3c0.6,0.3,0.9,1,0.9,1.6c0,1-0.8,1.9-1.9,2v-4.1c0-0.1-0.1-0.2-0.2-0.2h0c-1.3,0.1-2.3,1.1-2.3,2.4
			c0,1.4,1.1,2.5,2.5,2.5C196.9,348.2,198,347.1,198,345.8L198,345.8z M193.4,345.8c0-0.9,0.7-1.7,1.6-1.9v3.8
			C194.1,347.5,193.5,346.7,193.4,345.8L193.4,345.8z M197.8,341.5c0.1,0,0.2-0.1,0.2-0.2c0-0.1-0.1-0.3-0.2-0.3H191
			c-0.1,0-0.2,0.1-0.2,0.3c0,0.1,0.1,0.2,0.2,0.2L197.8,341.5L197.8,341.5z M195.5,339.3c1.4,0,2.5-1.1,2.5-2.4
			c0-1.3-1.2-2.4-2.5-2.4c-1.4,0-2.5,1.1-2.5,2.4C193,338.2,194.1,339.3,195.5,339.3L195.5,339.3z M195.5,338.8c-1.1,0-2-0.9-2-1.9
			c0-1,0.9-1.9,2-1.9c1.1,0,2,0.9,2,1.9C197.5,337.9,196.6,338.8,195.5,338.8L195.5,338.8z M199.9,332.6c0.1,0,0.2-0.1,0.2-0.2
			c0-0.1-0.1-0.3-0.2-0.3H197c0.6-0.4,1-1.1,1-1.9c0-1.4-1.1-2.4-2.5-2.4c-1.4,0-2.5,1.1-2.5,2.4c0,0.8,0.4,1.5,1,1.9h-0.7
			c-0.1,0-0.2,0.1-0.2,0.3c0,0.1,0.1,0.2,0.2,0.2H199.9L199.9,332.6z M195.4,332.1c-1.1,0-1.9-0.9-1.9-1.9c0-1.1,0.9-1.9,2-1.9
			c1.1,0,2,0.9,2,1.9C197.5,331.2,196.6,332.1,195.4,332.1L195.4,332.1L195.4,332.1z M197.8,318.6c0.1,0,0.2-0.1,0.2-0.2
			c0-0.1-0.1-0.2-0.2-0.2H195c-1.1,0-2,0.9-2,2c0,0.8,0.4,1.5,1.1,1.8c-0.6,0.4-1.1,1-1.1,1.8c0,0.6,0.3,1.2,0.7,1.6h-0.5
			c-0.1,0-0.2,0.1-0.2,0.2c0,0.1,0.1,0.2,0.2,0.2h4.6c0.1,0,0.2-0.1,0.2-0.2v-0.1c0,0,0,0,0,0c0,0,0,0,0-0.1c0-0.1-0.1-0.1-0.2-0.1
			H195c-0.9,0-1.6-0.7-1.6-1.6c0-0.9,0.7-1.6,1.6-1.6h2.8c0,0,0,0,0,0c0,0,0,0,0,0c0,0,0,0,0,0c0,0,0,0,0,0l0,0c0,0,0,0,0,0
			c0,0,0,0,0-0.1c0,0,0,0,0,0V322c0,0,0-0.1,0-0.1c0-0.1-0.1-0.1-0.1-0.1h0c0,0,0,0,0,0H195c-0.9,0-1.6-0.7-1.6-1.6
			c0-0.9,0.7-1.5,1.6-1.6H197.8L197.8,318.6z M198,313.9c0-0.9-0.5-1.6-1.1-2c-0.1-0.1-0.3,0-0.3,0.1c-0.1,0.1,0,0.3,0.1,0.3
			c0.6,0.3,0.9,1,0.9,1.6c0,1-0.8,1.9-1.9,2v-4.1c0-0.1-0.1-0.2-0.2-0.2h0c-1.3,0.1-2.3,1.1-2.3,2.4c0,1.4,1.1,2.4,2.5,2.4
			C196.9,316.4,198,315.3,198,313.9L198,313.9z M193.4,313.9c0-0.9,0.7-1.7,1.6-1.9v3.8C194.1,315.7,193.4,314.9,193.4,313.9
			L193.4,313.9z M197.8,306.2c0.1,0,0.2-0.1,0.2-0.2s-0.1-0.2-0.2-0.2H195c-1.1,0-2,0.9-2,2c0,0.6,0.3,1.2,0.7,1.6h-0.5
			c-0.1,0-0.2,0.1-0.2,0.2c0,0.1,0.1,0.2,0.2,0.2h4.6c0,0,0,0,0,0c0,0,0,0,0,0c0.1,0,0.1-0.1,0.1-0.2v-0.1c0-0.1,0-0.1-0.1-0.2
			c0,0-0.1,0-0.1,0H195c-0.9,0-1.6-0.7-1.6-1.6c0-0.9,0.7-1.6,1.6-1.6L197.8,306.2L197.8,306.2z M193,301.9v0.6h-1.9
			c-0.1,0-0.2,0.1-0.2,0.3c0,0.1,0.1,0.2,0.2,0.2h1.9v0.6c0,0.2,0.1,0.2,0.2,0.2c0.1,0,0.2,0,0.2-0.2v-0.6h3.7
			c0.5,0,0.9-0.4,0.9-0.9c0-0.1-0.1-0.3-0.2-0.3c-0.1,0-0.3,0.1-0.3,0.3c0,0.1-0.1,0.4-0.4,0.4h-3.7v-0.6c0-0.1-0.1-0.2-0.2-0.2
			C193.1,301.7,193,301.8,193,301.9L193,301.9z"/>
	</g>
	<path class="st9" d="M-91.9,585.1c-2.8,0-4,2-2.7,4.5l7.6,14.8c1.3,2.5,3.3,2.4,4.5,0l7.2-14.7c1.2-2.5-0.1-4.5-2.8-4.5H-91.9z"/>
	<path d="M-162.5,592.5c0,0.1,0.1,0.2,0.2,0.2c0.1,0,0.3-0.1,0.3-0.2v-3.1h3c0.1,0,0.3-0.1,0.3-0.2c0-0.1-0.1-0.3-0.3-0.3h-3V586
		h3.5c0.1,0,0.2-0.1,0.2-0.3c0-0.1-0.1-0.2-0.2-0.2h-3.7c-0.1,0-0.2,0.1-0.2,0.2V592.5L-162.5,592.5z M-154.5,592.7
		c0.9,0,1.6-0.5,2-1.1c0.1-0.1,0-0.3-0.1-0.4c-0.1-0.1-0.3,0-0.3,0.1c-0.3,0.6-1,0.9-1.6,0.9c-1,0-1.9-0.8-2-1.9h4.1
		c0.1,0,0.2-0.1,0.2-0.2v0c-0.1-1.3-1.1-2.3-2.4-2.3c-1.4,0-2.4,1.1-2.4,2.5C-156.9,591.6-155.9,592.7-154.5,592.7L-154.5,592.7z
		 M-154.5,588.2c0.9,0,1.7,0.7,1.9,1.6h-3.8C-156.2,588.9-155.4,588.2-154.5,588.2L-154.5,588.2z M-146.3,587.7
		c-0.1,0-0.2,0.1-0.2,0.2v0.7c-0.4-0.6-1.1-1-1.9-1c-1.3,0-2.4,1.1-2.4,2.5s1.1,2.5,2.4,2.5c0.8,0,1.5-0.4,1.9-1v0.8
		c0,0.1,0.1,0.2,0.2,0.2c0.1,0,0.2-0.1,0.2-0.2v-4.5C-146.1,587.8-146.2,587.7-146.3,587.7L-146.3,587.7z M-148.5,592.2
		c-1,0-1.9-0.9-1.9-2c0-1.1,0.9-2,1.9-2c1,0,1.9,0.9,1.9,2C-146.6,591.3-147.4,592.2-148.5,592.2L-148.5,592.2z M-142.4,587.7h-0.7
		v-1.9c0-0.1-0.1-0.2-0.3-0.2c-0.1,0-0.2,0.1-0.2,0.2v1.9h-0.6c-0.2,0-0.2,0.1-0.2,0.2c0,0.1,0,0.2,0.2,0.2h0.6v3.7
		c0,0.5,0.4,0.9,0.9,0.9c0.1,0,0.3-0.1,0.3-0.2c0-0.1-0.1-0.3-0.3-0.3c-0.1,0-0.4-0.1-0.4-0.4v-3.7h0.6c0.1,0,0.2-0.1,0.2-0.2
		C-142.2,587.8-142.3,587.7-142.4,587.7L-142.4,587.7z M-139.9,590.7c0,1.1,0.9,2.1,2,2.1c1.2,0,2.1-0.9,2.1-2.1v-2.7
		c0-0.1-0.1-0.2-0.3-0.2c-0.1,0-0.2,0.1-0.2,0.2v2.7c0,0.9-0.7,1.6-1.6,1.6c-0.9,0-1.5-0.7-1.5-1.6v-2.7c0-0.1-0.1-0.2-0.2-0.2
		c-0.1,0-0.2,0.1-0.2,0.2L-139.9,590.7L-139.9,590.7z M-133.5,592.5c0,0.1,0.1,0.2,0.3,0.2c0.1,0,0.2-0.1,0.2-0.2v-2.2
		c0,0,0,0,0-0.1c0.1-0.2,0.3-0.7,0.6-1.2c0.3-0.5,0.8-0.8,1.5-0.8c0.1,0,0.2-0.1,0.2-0.2c0-0.1-0.1-0.2-0.2-0.2c-1,0-1.6,0.6-2,1.2
		c0,0,0,0.1-0.1,0.1v-1.1c0-0.1-0.1-0.2-0.2-0.2c-0.1,0-0.3,0.1-0.3,0.2L-133.5,592.5L-133.5,592.5z M-127.4,592.7
		c0.9,0,1.6-0.5,2-1.1c0.1-0.1,0-0.3-0.1-0.3c-0.1-0.1-0.3,0-0.3,0.1c-0.3,0.6-1,0.9-1.6,0.9c-1,0-1.9-0.8-2-1.9h4.1
		c0.1,0,0.2-0.1,0.2-0.2v0c-0.1-1.3-1.1-2.3-2.4-2.3c-1.4,0-2.4,1.1-2.4,2.5C-129.9,591.6-128.8,592.7-127.4,592.7L-127.4,592.7z
		 M-127.4,588.2c0.9,0,1.7,0.7,1.9,1.6h-3.8C-129.2,588.9-128.4,588.2-127.4,588.2L-127.4,588.2z M-161.4,606.3
		c0.1,0.2,0.3,0.3,0.5,0.3h0c0.1,0,0.1,0,0.1,0c0.1-0.1,0.2-0.2,0.2-0.3c0-0.1-0.2-0.2-0.3-0.2c0,0-0.1,0-0.1-0.2
		c-0.1-0.2-0.1-0.4-0.1-0.8c0-0.8-0.5-1.3-1-1.6c0,0-0.1,0-0.1,0c0.7-0.3,1.2-1,1.2-1.9c0-1.1-0.9-2.1-2-2.1h-2.1
		c-0.1,0-0.2,0.1-0.2,0.2v6.7c0,0.1,0.1,0.2,0.2,0.2c0.1,0,0.3-0.1,0.3-0.2v-2.8h1.8c0,0,0,0,0.1,0c0.1,0,0.5,0.1,0.8,0.4
		c0.3,0.2,0.6,0.6,0.6,1.1C-161.6,605.7-161.5,606.1-161.4,606.3L-161.4,606.3z M-161.5,601.6c0,0.8-0.7,1.5-1.5,1.6h-1.8V600h1.8
		C-162.2,600-161.5,600.7-161.5,601.6L-161.5,601.6z M-156.9,606.7c0.9,0,1.6-0.5,2-1.1c0.1-0.1,0-0.3-0.1-0.3
		c-0.1-0.1-0.3,0-0.3,0.1c-0.3,0.6-1,0.9-1.6,0.9c-1,0-1.9-0.8-2-1.9h4.1c0.1,0,0.2-0.1,0.2-0.2v0c-0.1-1.3-1.1-2.3-2.4-2.3
		c-1.4,0-2.4,1.1-2.4,2.5C-159.3,605.6-158.2,606.7-156.9,606.7L-156.9,606.7z M-156.9,602.2c0.9,0,1.7,0.7,1.9,1.6h-3.8
		C-158.6,602.9-157.8,602.2-156.9,602.2L-156.9,602.2z M-152.6,606.5c0,0.1,0.1,0.2,0.2,0.2c0.1,0,0.3-0.1,0.3-0.2v-6.7
		c0-0.1-0.1-0.2-0.3-0.2c-0.1,0-0.2,0.1-0.2,0.2L-152.6,606.5L-152.6,606.5z M-147.6,606.7c0.9,0,1.6-0.5,2-1.1
		c0.1-0.1,0-0.3-0.1-0.4c-0.1-0.1-0.3,0-0.3,0.1c-0.3,0.6-1,0.9-1.6,0.9c-1,0-1.9-0.8-2-1.9h4.1c0.1,0,0.2-0.1,0.2-0.2v0
		c-0.1-1.3-1.1-2.3-2.4-2.3c-1.4,0-2.4,1.1-2.4,2.5C-150,605.6-148.9,606.7-147.6,606.7L-147.6,606.7z M-147.6,602.2
		c0.9,0,1.7,0.7,1.9,1.6h-3.8C-149.3,602.9-148.5,602.2-147.6,602.2L-147.6,602.2z M-139.4,601.7c-0.1,0-0.2,0.1-0.2,0.2v0.7
		c-0.4-0.6-1.1-1-1.9-1c-1.3,0-2.4,1.1-2.4,2.5s1.1,2.5,2.4,2.5c0.8,0,1.5-0.4,1.9-1v0.8c0,0.1,0.1,0.2,0.2,0.2
		c0.1,0,0.2-0.1,0.2-0.2v-4.5C-139.2,601.8-139.3,601.7-139.4,601.7L-139.4,601.7z M-141.5,606.2c-1,0-1.9-0.9-1.9-2
		c0-1.1,0.9-2,1.9-2c1,0,1.9,0.9,1.9,2C-139.7,605.3-140.5,606.2-141.5,606.2L-141.5,606.2z M-137.3,606c0.4,0.3,1.1,0.7,1.9,0.7
		c0.5,0,0.9-0.1,1.3-0.4c0.3-0.3,0.6-0.6,0.6-1s-0.2-0.8-0.6-1c-0.4-0.2-0.7-0.3-1.2-0.4h0c-0.5-0.1-0.8-0.2-1-0.4
		c-0.2-0.2-0.3-0.3-0.3-0.5c0-0.2,0.1-0.4,0.3-0.6c0.2-0.2,0.5-0.3,1-0.3c0.5,0,0.9,0.3,1.2,0.5c0.1,0.1,0.3,0,0.3-0.1
		s0-0.3-0.1-0.4c-0.4-0.2-0.9-0.5-1.5-0.5c-0.5,0-0.9,0.1-1.2,0.3c-0.3,0.2-0.5,0.6-0.5,1c0,0.4,0.2,0.7,0.5,0.9
		c0.3,0.2,0.7,0.3,1.1,0.4l0,0c0.5,0.1,0.9,0.2,1.1,0.4c0.3,0.2,0.3,0.4,0.4,0.6c0,0.2-0.1,0.5-0.4,0.6c-0.2,0.2-0.6,0.3-1,0.3
		c-0.6,0-1.2-0.3-1.5-0.6c-0.1-0.1-0.3-0.1-0.4,0C-137.5,605.8-137.4,605.9-137.3,606L-137.3,606z M-129.9,606.7
		c0.9,0,1.6-0.5,2-1.1c0.1-0.1,0-0.3-0.1-0.4c-0.1-0.1-0.3,0-0.3,0.1c-0.3,0.6-1,0.9-1.6,0.9c-1,0-1.9-0.8-2-1.9h4.1
		c0.1,0,0.2-0.1,0.2-0.2v0c-0.1-1.3-1.1-2.3-2.4-2.3c-1.4,0-2.5,1.1-2.5,2.5C-132.3,605.6-131.2,606.7-129.9,606.7L-129.9,606.7z
		 M-129.9,602.2c0.9,0,1.7,0.7,1.9,1.6h-3.8C-131.6,602.9-130.8,602.2-129.9,602.2L-129.9,602.2z M-126,606c0.4,0.3,1.1,0.7,1.9,0.7
		c0.5,0,0.9-0.1,1.3-0.4c0.3-0.3,0.6-0.6,0.6-1s-0.2-0.8-0.6-1c-0.3-0.2-0.7-0.3-1.2-0.4h0c-0.5-0.1-0.8-0.2-1-0.4
		c-0.2-0.2-0.3-0.3-0.3-0.5c0-0.2,0.1-0.4,0.3-0.6c0.2-0.2,0.5-0.3,1-0.3c0.5,0,0.9,0.3,1.2,0.5c0.1,0.1,0.3,0,0.3-0.1
		s0-0.3-0.1-0.4c-0.4-0.2-0.9-0.5-1.5-0.5c-0.5,0-0.9,0.1-1.2,0.3c-0.3,0.2-0.5,0.6-0.5,1c0,0.4,0.2,0.7,0.5,0.9
		c0.3,0.2,0.7,0.3,1.1,0.4l0,0c0.5,0.1,0.9,0.2,1.1,0.4c0.3,0.2,0.3,0.4,0.4,0.6c0,0.2-0.1,0.5-0.4,0.6c-0.2,0.2-0.6,0.3-1,0.3
		c-0.6,0-1.2-0.3-1.5-0.6c-0.1-0.1-0.3-0.1-0.3,0C-126.1,605.8-126.1,605.9-126,606L-126,606z M-50,592.7c0.6,0.5,1.6,1,2.7,1
		c0.7,0,1.4-0.2,1.9-0.6c0.5-0.3,0.8-0.9,0.8-1.4c0-0.6-0.3-1-0.8-1.4c-0.5-0.3-1.1-0.5-1.8-0.7h0c-0.6-0.1-1.2-0.3-1.5-0.5
		c-0.4-0.2-0.5-0.5-0.5-0.9c0-0.4,0.2-0.7,0.6-1c0.4-0.3,0.9-0.4,1.5-0.4c0.8,0,1.4,0.4,2,0.8c0.1,0.1,0.2,0,0.3-0.1
		c0.1-0.1,0-0.2-0.1-0.3c-0.6-0.4-1.3-0.8-2.2-0.8c-0.7,0-1.3,0.2-1.7,0.5c-0.5,0.3-0.8,0.8-0.8,1.3c0,0.5,0.3,1,0.7,1.3
		c0.4,0.3,1,0.5,1.7,0.6h0c0.7,0.1,1.3,0.3,1.7,0.6c0.4,0.3,0.6,0.6,0.6,1c0,0.4-0.2,0.8-0.6,1.1c-0.4,0.3-1,0.5-1.6,0.5
		c-0.9,0-1.8-0.5-2.4-0.9c-0.1-0.1-0.2-0.1-0.3,0C-50.1,592.5-50.1,592.6-50,592.7L-50,592.7z M-43.1,591.7c0,1.1,0.9,2.1,2,2.1
		c1.2,0,2.1-0.9,2.1-2.1v-2.7c0-0.1-0.1-0.2-0.3-0.2c-0.1,0-0.2,0.1-0.2,0.2v2.7c0,0.9-0.7,1.6-1.6,1.6c-0.9,0-1.5-0.7-1.5-1.6v-2.7
		c0-0.1-0.1-0.2-0.2-0.2s-0.2,0.1-0.2,0.2V591.7z M-29.4,593.5c0,0.1,0.1,0.2,0.2,0.2c0.1,0,0.2-0.1,0.2-0.2v-2.7c0-1.1-0.9-2-2.1-2
		c-0.8,0-1.4,0.4-1.8,1.1c-0.4-0.6-1-1.1-1.8-1.1c-0.6,0-1.2,0.3-1.6,0.7v-0.5c0-0.1-0.1-0.2-0.2-0.2c-0.1,0-0.2,0.1-0.2,0.2v4.6
		c0,0.1,0.1,0.2,0.2,0.2h0.1c0,0,0,0,0,0c0,0,0.1,0,0.1,0c0.1,0,0.1-0.1,0.1-0.2v-2.7c0-0.9,0.7-1.6,1.6-1.6c0.9,0,1.6,0.7,1.6,1.6
		v2.8c0,0,0,0,0,0c0,0,0,0,0,0c0,0,0,0,0,0c0,0,0,0,0,0l0,0c0,0,0,0,0,0c0,0,0,0,0.1,0c0,0,0,0,0,0h0.1c0,0,0.1,0,0.1,0
		c0.1,0,0.1-0.1,0.1-0.1v0c0,0,0,0,0,0v-2.8c0-0.9,0.7-1.6,1.6-1.6c0.9,0,1.5,0.7,1.6,1.6L-29.4,593.5L-29.4,593.5z M-19.6,593.5
		c0,0.1,0.1,0.2,0.2,0.2c0.1,0,0.2-0.1,0.2-0.2v-2.7c0-1.1-0.9-2-2-2c-0.8,0-1.4,0.4-1.8,1.1c-0.4-0.6-1-1.1-1.8-1.1
		c-0.6,0-1.2,0.3-1.6,0.7v-0.5c0-0.1-0.1-0.2-0.2-0.2c-0.1,0-0.2,0.1-0.2,0.2v4.6c0,0.1,0.1,0.2,0.2,0.2h0.1c0,0,0,0,0,0
		c0,0,0.1,0,0.1,0c0.1,0,0.1-0.1,0.1-0.2v-2.7c0-0.9,0.7-1.6,1.6-1.6s1.6,0.7,1.6,1.6v2.8c0,0,0,0,0,0c0,0,0,0,0,0c0,0,0,0,0,0
		c0,0,0,0,0,0l0,0c0,0,0,0,0,0c0,0,0,0,0.1,0c0,0,0,0,0,0h0.1c0,0,0.1,0,0.1,0c0.1,0,0.1-0.1,0.1-0.1v0c0,0,0,0,0,0v-2.8
		c0-0.9,0.7-1.6,1.6-1.6c0.9,0,1.5,0.7,1.6,1.6L-19.6,593.5L-19.6,593.5z M-15,593.7c0.9,0,1.6-0.5,2-1.1c0.1-0.1,0-0.3-0.1-0.4
		c-0.1-0.1-0.3,0-0.3,0.1c-0.3,0.6-1,0.9-1.6,0.9c-1,0-1.9-0.8-2-1.9h4.1c0.1,0,0.2-0.1,0.2-0.2v0c-0.1-1.3-1.1-2.3-2.4-2.3
		c-1.4,0-2.4,1.1-2.4,2.5C-17.4,592.6-16.3,593.7-15,593.7L-15,593.7z M-15,589.2c0.9,0,1.7,0.7,1.9,1.6h-3.8
		C-16.7,589.9-15.9,589.2-15,589.2L-15,589.2z M-11,593.5c0,0.1,0.1,0.2,0.3,0.2c0.1,0,0.2-0.1,0.2-0.2v-2.2c0,0,0,0,0-0.1
		c0.1-0.2,0.3-0.7,0.6-1.2c0.3-0.5,0.8-0.8,1.5-0.8c0.1,0,0.2-0.1,0.2-0.2c0-0.1-0.1-0.2-0.2-0.2c-1,0-1.6,0.6-2,1.2
		c0,0-0.1,0.1-0.1,0.1v-1.1c0-0.1-0.1-0.2-0.2-0.2c-0.1,0-0.3,0.1-0.3,0.2L-11,593.5L-11,593.5z M-40.3,607.7c0,0,0.1,0.1,0.2,0.1
		h4.1c0.1,0,0.2-0.1,0.2-0.2c0-0.1-0.1-0.3-0.2-0.3h-3.4l2.9-2.6c0.5-0.5,0.8-1.1,0.8-1.8c0-0.6-0.2-1.1-0.6-1.6
		c-0.5-0.5-1.1-0.8-1.7-0.8c-0.6,0-1.1,0.2-1.6,0.6l-0.4,0.3c-0.1,0.1-0.1,0.2,0,0.3c0.1,0.1,0.2,0.1,0.4,0l0.4-0.3
		c0.4-0.3,0.8-0.5,1.3-0.5c0.5,0,1,0.2,1.4,0.6c0.3,0.4,0.5,0.8,0.5,1.2c0,0.5-0.2,1-0.6,1.4l-3.4,3
		C-40.4,607.4-40.4,607.5-40.3,607.7L-40.3,607.7z M-33.4,606.6c0.4,0.6,1.1,1.1,1.8,1.1c0.7,0,1.4-0.4,1.8-1.1
		c0.4-0.7,0.7-1.5,0.7-2.5c0-1-0.3-1.9-0.7-2.5c-0.4-0.6-1.1-1.1-1.8-1.1s-1.4,0.4-1.8,1.1c-0.4,0.7-0.7,1.6-0.7,2.5
		S-33.8,606-33.4,606.6L-33.4,606.6z M-33,601.9c0.4-0.6,0.9-0.9,1.4-0.9c0.5,0,1,0.3,1.4,0.9c0.4,0.6,0.6,1.3,0.6,2.2
		s-0.2,1.7-0.6,2.2c-0.4,0.5-0.9,0.9-1.4,0.9c-0.5,0-1-0.3-1.4-0.9c-0.4-0.6-0.6-1.4-0.6-2.2C-33.6,603.2-33.3,602.4-33,601.9
		L-33,601.9z M-25.7,607.5c0,0.1,0.1,0.2,0.2,0.2c0.1,0,0.2-0.1,0.2-0.2v-6.6c0-0.1,0-0.1,0-0.2c-0.1-0.1-0.2-0.2-0.3-0.1l-1.4,0.8
		c-0.1,0.1-0.2,0.2-0.1,0.3c0,0.1,0.1,0.1,0.2,0.1c0,0,0.1,0,0.1,0l1-0.6V607.5L-25.7,607.5z M-23.4,605c0,0.2,0,0.3,0,0.5
		c0,1.3,1.1,2.3,2.4,2.3c1.3,0,2.4-1.1,2.4-2.4c0-1.3-1.1-2.4-2.4-2.4c-0.7,0-1.4,0.3-1.8,0.8c0.1-0.5,0.3-1,0.5-1.4
		c0.5-0.8,1.1-1.3,2.1-1.3c0.1,0,0.2-0.1,0.2-0.3c0-0.1-0.1-0.2-0.3-0.2c-1.2,0-2,0.7-2.5,1.6C-23.2,603-23.4,604-23.4,605
		L-23.4,605z M-22.9,605.4c0-1,0.8-1.9,1.9-1.9c1.1,0,1.9,0.8,1.9,1.9c0,1-0.8,1.9-1.9,1.9c-0.9,0-1.7-0.7-1.9-1.6c0,0,0,0,0-0.1
		C-22.8,605.5-22.9,605.4-22.9,605.4L-22.9,605.4L-22.9,605.4z"/>
	<g>
		<path class="st4" d="M-193,526.8c0.8,0.6,2,1.4,3.5,1.4c1,0,1.9-0.3,2.5-0.8c0.7-0.5,1.2-1.2,1.2-2.1c0-0.4-0.1-0.8-0.3-1.2
			c-0.3-0.5-0.8-0.9-1.4-1.1c-0.6-0.3-1.2-0.4-1.9-0.6h0c-0.7-0.1-1.4-0.4-1.7-0.6c-0.2-0.1-0.3-0.2-0.4-0.4
			c-0.1-0.1-0.1-0.2-0.1-0.4c0-0.3,0.2-0.6,0.5-0.9c0.4-0.3,0.9-0.5,1.5-0.5c0.8,0,1.5,0.4,2.2,0.9c0.3,0.2,0.8,0.1,1-0.2
			c0.2-0.3,0.1-0.8-0.2-1c-0.7-0.5-1.7-1.1-3-1.1c-0.9,0-1.7,0.3-2.4,0.7c-0.6,0.5-1.1,1.2-1.1,2c0,0.4,0.1,0.8,0.3,1.1
			c0.3,0.5,0.8,0.8,1.3,1.1c0.5,0.2,1.1,0.4,1.8,0.5h0c0.8,0.1,1.5,0.4,1.9,0.6c0.2,0.1,0.3,0.3,0.4,0.4c0.1,0.1,0.1,0.3,0.1,0.4
			c0,0.3-0.2,0.7-0.6,1s-1,0.5-1.7,0.5c-1,0-2-0.6-2.6-1.1c-0.3-0.2-0.8-0.2-1,0.1C-193.3,526.1-193.3,526.6-193,526.8L-193,526.8z
			 M-181.5,521.4h-0.3v-2c0-0.4-0.3-0.8-0.8-0.8s-0.8,0.3-0.8,0.8v2h-0.4c-0.4,0-0.8,0.3-0.8,0.8c0,0.4,0.3,0.8,0.8,0.8h0.4v3.8
			c0,0.8,0.7,1.5,1.5,1.5c0.4,0,0.8-0.3,0.8-0.8c0-0.4-0.3-0.8-0.8-0.8v-3.8h0.3c0.4,0,0.8-0.3,0.8-0.8
			C-180.7,521.7-181.1,521.4-181.5,521.4L-181.5,521.4z M-172.9,522.1c0-0.4-0.3-0.7-0.7-0.7c-0.4,0-0.6,0.3-0.7,0.6
			c-0.5-0.4-1.1-0.6-1.8-0.6c-0.9,0-1.7,0.4-2.3,1c-0.6,0.6-0.9,1.5-0.9,2.4c0,0.9,0.3,1.8,0.9,2.4c0.6,0.6,1.4,1,2.3,1
			c0.7,0,1.3-0.2,1.8-0.6c0.1,0.3,0.4,0.6,0.7,0.6c0.4,0,0.7-0.3,0.7-0.7V522.1L-172.9,522.1z M-174.9,526.2
			c-0.3,0.3-0.8,0.5-1.3,0.5c-0.5,0-1-0.2-1.3-0.5c-0.3-0.4-0.5-0.8-0.5-1.4c0-0.6,0.2-1.1,0.5-1.4c0.3-0.4,0.8-0.6,1.3-0.6
			c0.5,0,0.9,0.2,1.3,0.6c0.3,0.3,0.5,0.8,0.5,1.4C-174.4,525.4-174.6,525.9-174.9,526.2L-174.9,526.2z M-166.8,521.4
			c-0.7,0-1.3,0.2-1.7,0.5c-0.1,0.1-0.2,0.2-0.3,0.3v-0.1c0-0.4-0.3-0.7-0.8-0.7c-0.4,0-0.7,0.3-0.7,0.7v5.4c0,0.4,0.3,0.7,0.7,0.7
			c0.4,0,0.8-0.3,0.8-0.7v-2.6c0.1-0.2,0.2-0.7,0.6-1.2c0.2-0.3,0.4-0.5,0.6-0.7c0.2-0.2,0.5-0.3,0.8-0.3c0.4,0,0.7-0.3,0.7-0.7
			C-166,521.7-166.3,521.4-166.8,521.4L-166.8,521.4z M-161.9,521.4h-0.3v-2c0-0.4-0.3-0.8-0.8-0.8c-0.4,0-0.8,0.3-0.8,0.8v2h-0.4
			c-0.4,0-0.8,0.3-0.8,0.8c0,0.4,0.3,0.8,0.8,0.8h0.4v3.8c0,0.8,0.7,1.5,1.5,1.5c0.4,0,0.8-0.3,0.8-0.8s-0.3-0.8-0.8-0.8v-3.8h0.3
			c0.4,0,0.8-0.3,0.8-0.8C-161.1,521.7-161.5,521.4-161.9,521.4L-161.9,521.4z M-156.4,528.2c1,0,1.8-0.3,2.5-0.9
			c0.3-0.3,0.2-0.7,0-0.9c-0.2-0.2-0.7-0.3-1,0c-0.3,0.3-0.9,0.4-1.4,0.3c-0.5,0-1-0.3-1.3-0.6c-0.2-0.2-0.4-0.6-0.5-0.9h4.4
			c0.4,0,0.7-0.2,0.7-0.5c0,0,0-0.1,0-0.1v-0.1c-0.1-1.9-1.5-3.2-3.3-3.2c-1.9,0-3.3,1.6-3.3,3.4
			C-159.8,526.7-158.3,528.2-156.4,528.2L-156.4,528.2z M-156.4,522.7c1.2,0.1,1.9,0.9,2,1.5h-3.9
			C-158.2,523.6-157.6,522.7-156.4,522.7L-156.4,522.7z M-147.7,521.4c-0.7,0-1.3,0.2-1.7,0.5c-0.1,0.1-0.2,0.2-0.3,0.3v-0.1
			c0-0.4-0.3-0.7-0.8-0.7c-0.4,0-0.7,0.3-0.7,0.7v5.4c0,0.4,0.3,0.7,0.7,0.7c0.4,0,0.8-0.3,0.8-0.7v-2.6c0.1-0.2,0.2-0.7,0.6-1.2
			c0.2-0.3,0.4-0.5,0.6-0.7c0.2-0.2,0.5-0.3,0.8-0.3c0.4,0,0.7-0.3,0.7-0.7C-147,521.7-147.3,521.4-147.7,521.4L-147.7,521.4z
			 M-140.2,528.2c0.4,0,0.8-0.3,0.8-0.8v-1.9l1.4-1.5l3,3.9c0.2,0.2,0.4,0.3,0.6,0.3c0.2,0,0.3-0.1,0.5-0.2c0.3-0.3,0.4-0.7,0.1-1.1
			l-3-4l3-3c0.3-0.3,0.3-0.8,0-1.1c-0.3-0.3-0.8-0.3-1.1,0l-4.4,4.5v-3.9c0-0.4-0.3-0.8-0.8-0.8c-0.4,0-0.8,0.4-0.8,0.8v8
			C-140.9,527.9-140.6,528.2-140.2,528.2L-140.2,528.2z M-130.5,521.4c-0.4,0-0.7,0.3-0.7,0.8v5.4c0,0.4,0.3,0.7,0.7,0.7
			c0.4,0,0.7-0.3,0.7-0.7v-5.4C-129.8,521.7-130.1,521.4-130.5,521.4L-130.5,521.4z M-129.8,519.4c0-0.4-0.3-0.7-0.7-0.7
			c-0.4,0-0.7,0.3-0.7,0.7v0.3c0,0.4,0.3,0.8,0.7,0.8c0.4,0,0.7-0.3,0.7-0.8V519.4z M-125.1,521.4h-0.3v-2c0-0.4-0.3-0.8-0.8-0.8
			c-0.4,0-0.8,0.3-0.8,0.8v2h-0.4c-0.4,0-0.8,0.3-0.8,0.8c0,0.4,0.3,0.8,0.8,0.8h0.4v3.8c0,0.8,0.7,1.5,1.5,1.5
			c0.4,0,0.8-0.3,0.8-0.8c0-0.4-0.3-0.8-0.8-0.8v-3.8h0.3c0.4,0,0.8-0.3,0.8-0.8C-124.3,521.7-124.7,521.4-125.1,521.4L-125.1,521.4
			z M-177.8,544.6c0-0.1-0.1-0.4-0.1-0.8c0-0.6-0.2-1.1-0.5-1.5c-0.1-0.2-0.3-0.4-0.5-0.5c0.7-0.5,1.1-1.3,1.1-2.2
			c0-1.6-1.3-3-2.9-3h-2.5c-0.4,0-0.8,0.3-0.8,0.8v8.1c0,0.4,0.3,0.8,0.8,0.8c0.4,0,0.8-0.3,0.8-0.8v-3h1.6c0.1,0,0.5,0.1,0.8,0.3
			c0.2,0.1,0.3,0.2,0.4,0.4c0.1,0.1,0.1,0.3,0.2,0.6c0,0.8,0.1,1.2,0.3,1.6c0.1,0.2,0.3,0.4,0.4,0.5c0.2,0.1,0.4,0.1,0.5,0.1h0
			c0.1,0,0.2,0,0.3,0c0.4-0.1,0.6-0.6,0.5-1C-177.4,544.9-177.6,544.7-177.8,544.6L-177.8,544.6z M-180.6,541h-1.7v-2.8h1.7
			c0.8,0,1.4,0.6,1.4,1.4C-179.2,540.3-179.9,541-180.6,541z M-172.5,546.2c1,0,1.8-0.3,2.5-0.9c0.3-0.3,0.2-0.7,0-0.9
			c-0.2-0.2-0.7-0.3-1,0c-0.3,0.3-0.9,0.4-1.4,0.3c-0.5,0-1-0.3-1.3-0.6c-0.2-0.2-0.4-0.6-0.5-0.9h4.4c0.4,0,0.7-0.2,0.7-0.5
			c0,0,0-0.1,0-0.1v-0.1c-0.1-1.9-1.5-3.2-3.3-3.2c-1.9,0-3.3,1.6-3.3,3.4C-175.8,544.7-174.4,546.2-172.5,546.2L-172.5,546.2z
			 M-172.5,540.7c1.2,0.1,1.9,0.9,2,1.5h-3.9C-174.3,541.6-173.7,540.7-172.5,540.7L-172.5,540.7z M-166.9,537.4v8.1
			c0,0.4,0.3,0.8,0.8,0.8c0.4,0,0.8-0.3,0.8-0.8v-8.1c0-0.4-0.3-0.8-0.8-0.8C-166.6,536.6-166.9,537-166.9,537.4L-166.9,537.4z
			 M-160.1,546.2c1,0,1.8-0.3,2.5-0.9c0.3-0.3,0.2-0.7,0-0.9c-0.2-0.2-0.7-0.3-1,0c-0.3,0.3-0.9,0.4-1.4,0.3c-0.5,0-1-0.3-1.3-0.6
			c-0.2-0.2-0.4-0.6-0.5-0.9h4.4c0.4,0,0.7-0.2,0.7-0.5c0,0,0-0.1,0-0.1v-0.1c-0.1-1.9-1.5-3.2-3.3-3.2c-1.9,0-3.3,1.6-3.3,3.4
			C-163.5,544.7-162,546.2-160.1,546.2L-160.1,546.2z M-160.1,540.7c1.2,0.1,1.9,0.9,2,1.5h-3.9
			C-161.9,541.6-161.3,540.7-160.1,540.7L-160.1,540.7z M-148.8,540.1c0-0.4-0.3-0.7-0.7-0.7c-0.4,0-0.6,0.3-0.7,0.6
			c-0.5-0.4-1.1-0.6-1.8-0.6c-0.9,0-1.7,0.4-2.3,1c-0.6,0.6-0.9,1.5-0.9,2.4c0,0.9,0.3,1.8,0.9,2.4c0.6,0.6,1.4,1,2.3,1
			c0.7,0,1.3-0.2,1.8-0.6c0.1,0.3,0.4,0.6,0.7,0.6c0.4,0,0.7-0.3,0.7-0.7V540.1L-148.8,540.1z M-150.8,544.2
			c-0.3,0.3-0.8,0.5-1.3,0.5c-0.5,0-1-0.2-1.3-0.5c-0.3-0.4-0.5-0.8-0.5-1.4c0-0.6,0.2-1.1,0.5-1.4c0.3-0.4,0.8-0.6,1.3-0.6
			c0.5,0,0.9,0.2,1.3,0.6c0.3,0.3,0.5,0.8,0.5,1.4C-150.3,543.4-150.5,543.9-150.8,544.2L-150.8,544.2z M-146.4,545.3
			c0.6,0.4,1.4,0.9,2.4,0.9c0.7,0,1.3-0.2,1.8-0.5c0.5-0.4,0.9-0.9,0.9-1.6c0-0.3-0.1-0.6-0.3-0.9c-0.2-0.4-0.6-0.6-1-0.8
			c-0.4-0.2-0.8-0.3-1.3-0.4h0l0,0c-0.5-0.1-0.8-0.2-1-0.3c-0.1-0.1-0.1-0.1-0.1-0.1c0,0,0-0.1,0-0.1c0-0.1,0-0.2,0.2-0.3
			c0.2-0.1,0.5-0.2,0.8-0.2c0.4,0,0.8,0.2,1.3,0.5c0.3,0.2,0.8,0.1,1-0.2c0.2-0.3,0.1-0.8-0.2-1c-0.4-0.3-1.1-0.8-2.1-0.8
			c-0.6,0-1.2,0.2-1.7,0.5c-0.5,0.3-0.8,0.9-0.8,1.5c0,0.3,0.1,0.6,0.2,0.9c0.2,0.4,0.6,0.6,0.9,0.8c0.4,0.2,0.8,0.3,1.2,0.4h0
			c0.5,0.1,0.9,0.2,1.1,0.4c0.1,0.1,0.2,0.1,0.2,0.2c0,0,0,0.1,0,0.1c0,0.1-0.1,0.2-0.2,0.4c-0.2,0.1-0.6,0.3-0.9,0.3
			c-0.5,0-1.2-0.3-1.5-0.6c-0.3-0.3-0.8-0.2-1,0.1C-146.7,544.6-146.7,545-146.4,545.3L-146.4,545.3z M-136.5,546.2
			c1,0,1.8-0.3,2.5-0.9c0.3-0.3,0.2-0.7,0-0.9c-0.2-0.2-0.7-0.3-1,0c-0.3,0.3-0.9,0.4-1.4,0.3c-0.5,0-1-0.3-1.3-0.6
			c-0.2-0.2-0.4-0.6-0.5-0.9h4.4c0.4,0,0.7-0.2,0.7-0.5c0,0,0-0.1,0-0.1v-0.1c-0.1-1.9-1.5-3.2-3.3-3.2c-1.9,0-3.3,1.6-3.3,3.4
			C-139.9,544.7-138.4,546.2-136.5,546.2L-136.5,546.2z M-136.5,540.7c1.2,0.1,1.9,0.9,2,1.5h-3.9
			C-138.3,541.6-137.7,540.7-136.5,540.7L-136.5,540.7z M-45,527.8c0.8,0.6,2,1.4,3.5,1.4c1,0,1.9-0.3,2.5-0.8
			c0.7-0.5,1.2-1.2,1.2-2.1c0-0.4-0.1-0.8-0.3-1.2c-0.3-0.5-0.8-0.9-1.4-1.1c-0.5-0.3-1.2-0.4-1.9-0.6h0c-0.7-0.1-1.4-0.4-1.7-0.6
			c-0.2-0.1-0.3-0.2-0.4-0.4c-0.1-0.1-0.1-0.2-0.1-0.4c0-0.3,0.1-0.6,0.5-0.9c0.4-0.3,0.9-0.5,1.5-0.5c0.8,0,1.5,0.4,2.2,0.9
			c0.3,0.2,0.8,0.1,1-0.2c0.2-0.3,0.1-0.8-0.2-1c-0.7-0.5-1.7-1.1-3-1.1c-0.9,0-1.7,0.3-2.4,0.7c-0.6,0.5-1.1,1.2-1.1,2
			c0,0.4,0.1,0.8,0.3,1.1c0.3,0.5,0.8,0.8,1.3,1.1c0.5,0.2,1.1,0.4,1.8,0.5h0c0.8,0.1,1.5,0.4,1.9,0.6c0.2,0.1,0.3,0.3,0.4,0.4
			s0.1,0.3,0.1,0.4c0,0.3-0.2,0.7-0.6,1c-0.4,0.3-1,0.5-1.7,0.5c-1,0-2-0.6-2.6-1.1c-0.3-0.2-0.8-0.2-1,0.1
			C-45.3,527.1-45.3,527.6-45,527.8L-45,527.8z M-35.1,531.8c0.4,0,0.8-0.4,0.8-0.7v-2.4c0.5,0.4,1.2,0.6,1.8,0.6
			c1.8,0,3.3-1.5,3.3-3.4s-1.5-3.4-3.3-3.4c-0.7,0-1.4,0.2-1.9,0.6c-0.1-0.3-0.4-0.6-0.8-0.6c-0.4,0-0.7,0.3-0.7,0.7v8
			C-35.8,531.5-35.5,531.8-35.1,531.8L-35.1,531.8z M-33.8,524.4c0.3-0.4,0.8-0.6,1.3-0.6c0.5,0,0.9,0.2,1.3,0.6
			c0.3,0.4,0.5,0.8,0.5,1.4s-0.2,1.1-0.5,1.4c-0.4,0.4-0.8,0.6-1.3,0.6c-0.5,0-1-0.2-1.3-0.6c-0.4-0.3-0.5-0.8-0.5-1.4
			C-34.3,525.3-34.1,524.8-33.8,524.4L-33.8,524.4z M-23.3,522.4c-0.7,0-1.3,0.2-1.7,0.5c-0.1,0.1-0.2,0.2-0.3,0.3v-0.1
			c0-0.4-0.3-0.7-0.8-0.7c-0.4,0-0.7,0.3-0.7,0.7v5.4c0,0.4,0.3,0.7,0.7,0.7c0.4,0,0.8-0.3,0.8-0.7v-2.6c0.1-0.2,0.2-0.7,0.6-1.2
			c0.2-0.3,0.4-0.5,0.6-0.7c0.2-0.2,0.5-0.3,0.8-0.3c0.4,0,0.7-0.3,0.7-0.7C-22.5,522.7-22.8,522.4-23.3,522.4L-23.3,522.4z
			 M-20,522.4c-0.4,0-0.7,0.3-0.7,0.8v5.4c0,0.4,0.3,0.7,0.7,0.7c0.4,0,0.7-0.3,0.7-0.7v-5.4C-19.2,522.7-19.5,522.4-20,522.4
			L-20,522.4z M-19.2,520.4c0-0.4-0.3-0.7-0.7-0.7c-0.4,0-0.7,0.3-0.7,0.7v0.3c0,0.4,0.3,0.8,0.7,0.8c0.4,0,0.7-0.3,0.7-0.8V520.4z
			 M-14,522.4c-0.5,0-1,0.2-1.5,0.4c-0.1-0.3-0.4-0.4-0.7-0.4c-0.4,0-0.7,0.3-0.7,0.7v5.4c0,0.4,0.3,0.7,0.7,0.7
			c0.4,0,0.7-0.3,0.7-0.6c0-0.1,0-0.1,0-0.1v-3.3c0-0.8,0.6-1.4,1.4-1.4c0.8,0,1.4,0.6,1.4,1.4v3.3c0,0.4,0.3,0.7,0.7,0.7
			c0.4,0,0.7-0.3,0.7-0.7v-3.3C-11.1,523.7-12.4,522.4-14,522.4L-14,522.4z M-2.3,525.8v-2.7c0-0.4-0.3-0.7-0.7-0.7
			c-0.4,0-0.7,0.2-0.7,0.6c-0.5-0.4-1.1-0.6-1.8-0.6c-0.9,0-1.7,0.4-2.3,1c-0.6,0.6-1,1.5-1,2.4c0,1,0.4,1.8,1,2.4
			c0.6,0.6,1.4,1,2.3,1c0.7,0,1.3-0.2,1.8-0.6c-0.2,0.8-0.9,1.5-1.8,1.5c-0.3,0-0.6-0.1-0.8-0.2c-0.4-0.2-0.8,0-1,0.3
			c-0.2,0.4,0,0.8,0.3,1c0.4,0.2,0.9,0.3,1.4,0.3c1.8,0,3.3-1.5,3.3-3.3L-2.3,525.8L-2.3,525.8z M-4.3,527.2
			c-0.4,0.4-0.8,0.6-1.3,0.6c-0.5,0-0.9-0.2-1.3-0.6c-0.3-0.3-0.5-0.8-0.5-1.4c0-0.6,0.2-1.1,0.6-1.4c0.3-0.4,0.8-0.6,1.3-0.6
			c0.5,0,0.9,0.2,1.3,0.6c0.3,0.3,0.5,0.8,0.5,1.4C-3.8,526.4-4,526.9-4.3,527.2L-4.3,527.2z M-32.7,545.7h-2.9l2.6-2.3
			c0.7-0.6,1.1-1.5,1.1-2.4c0-0.8-0.3-1.6-0.9-2.2c-0.6-0.7-1.6-1.1-2.4-1.1c-0.8,0-1.6,0.3-2.2,0.9l-0.4,0.4
			c-0.3,0.3-0.3,0.8-0.1,1.1c0.3,0.3,0.8,0.3,1.1,0.1l0.4-0.4c0.3-0.3,0.8-0.5,1.2-0.5c0.5,0,1,0.2,1.3,0.6c0.3,0.3,0.5,0.8,0.5,1.2
			c0,0.5-0.2,1-0.6,1.3l-4.1,3.7c-0.3,0.3-0.3,0.8,0,1.1c0.1,0.2,0.4,0.2,0.6,0.2h4.9c0.4,0,0.8-0.3,0.8-0.8
			C-31.9,546-32.3,545.7-32.7,545.7L-32.7,545.7z M-29.1,545.7c0.6,0.9,1.5,1.5,2.6,1.5c1.1,0,2-0.7,2.5-1.5c0.6-0.9,0.9-2,0.9-3.3
			c0-1.3-0.3-2.4-0.9-3.3c-0.6-0.9-1.5-1.5-2.5-1.5c-1.1,0-2,0.6-2.6,1.5c-0.6,0.9-0.9,2-0.9,3.3C-30,543.7-29.7,544.8-29.1,545.7
			L-29.1,545.7z M-25.3,544.9c-0.4,0.6-0.9,0.9-1.3,0.9c-0.4,0-0.9-0.3-1.3-0.9c-0.4-0.6-0.7-1.5-0.7-2.4c0-1,0.3-1.9,0.7-2.4
			c0.4-0.6,0.9-0.8,1.3-0.8c0.4,0,0.9,0.3,1.3,0.8c0.4,0.6,0.7,1.5,0.7,2.4C-24.6,543.4-24.9,544.3-25.3,544.9z M-17.5,538.3
			C-17.6,538.3-17.6,538.3-17.5,538.3c0-0.1,0-0.1,0-0.2c0,0,0,0,0-0.1c0,0,0,0,0-0.1c0,0,0,0,0,0l0,0l-0.1-0.1c0,0,0,0,0-0.1
			c0,0,0,0-0.1-0.1c0,0,0,0-0.1,0c0,0,0,0-0.1,0c0,0,0,0-0.1,0c0,0,0,0-0.1,0c0,0,0,0-0.1,0c0,0,0,0-0.1,0h-0.2c0,0-0.1,0-0.1,0
			c0,0,0,0-0.1,0c0,0-0.1,0-0.1,0c0,0,0,0-0.1,0c0,0,0,0-0.1,0l-1.7,1c-0.4,0.2-0.5,0.7-0.2,1c0.1,0.2,0.4,0.4,0.6,0.4
			c0.1,0,0.3,0,0.4-0.1l0.6-0.3v6.8c0,0.4,0.3,0.8,0.8,0.8c0.4,0,0.8-0.3,0.8-0.8L-17.5,538.3L-17.5,538.3z M-12.5,540.6
			c-0.5,0-0.9,0.1-1.3,0.3c0.1-0.1,0.1-0.2,0.2-0.4c0.2-0.4,0.5-0.7,0.9-1c0.4-0.2,0.8-0.4,1.3-0.4c0.4,0,0.8-0.4,0.7-0.8
			c0-0.4-0.4-0.7-0.8-0.7c-0.8,0-1.5,0.3-2.1,0.6c-0.9,0.6-1.4,1.4-1.8,2.3c-0.3,0.9-0.5,1.9-0.5,2.8c0,0.3,0,0.5,0,0.8c0,0,0,0,0,0
			c0.2,1.7,1.6,3,3.3,3c1.8,0,3.3-1.5,3.3-3.3C-9.1,542.1-10.6,540.6-12.5,540.6L-12.5,540.6z M-12.5,545.7c-1,0-1.8-0.8-1.8-1.8
			c0-1,0.8-1.8,1.8-1.8s1.8,0.8,1.8,1.8C-10.6,544.9-11.4,545.7-12.5,545.7z"/>
		<g transform="rotate(90 -97.638 235.59)">
			<circle class="st10" cx="200" cy="223" r="13"/>
			<path class="st10" d="M199.9,205.5c-1.3,0-2.4-1.1-2.4-2.4v-4.9c0-1.3,1.1-2.4,2.4-2.4c1.3,0,2.4,1.1,2.4,2.4v4.9
				C202.3,204.4,201.2,205.5,199.9,205.5L199.9,205.5L199.9,205.5z M215.1,214.3c-0.7-1.2-0.3-2.7,0.9-3.3l4.2-2.4
				c1.2-0.7,2.6-0.3,3.3,0.9c0.7,1.2,0.3,2.7-0.9,3.3l-4.2,2.4C217.2,215.8,215.7,215.4,215.1,214.3L215.1,214.3L215.1,214.3z
				 M215.1,231.8c0.7-1.2,2.2-1.6,3.3-0.9l4.2,2.4c1.2,0.7,1.6,2.2,0.9,3.3c-0.7,1.2-2.2,1.6-3.3,0.9l-4.2-2.4
				C214.8,234.4,214.4,233,215.1,231.8L215.1,231.8L215.1,231.8z M199.9,240.5c1.3,0,2.4,1.1,2.4,2.4v4.9c0,1.3-1.1,2.4-2.4,2.4
				c-1.3,0-2.4-1.1-2.4-2.4V243C197.5,241.6,198.5,240.5,199.9,240.5L199.9,240.5L199.9,240.5z M184.7,231.8
				c0.7,1.2,0.3,2.7-0.9,3.3l-4.2,2.4c-1.2,0.7-2.6,0.3-3.3-0.9c-0.7-1.2-0.3-2.7,0.9-3.3l4.2-2.4
				C182.6,230.2,184,230.6,184.7,231.8L184.7,231.8z M184.7,214.3c-0.7,1.2-2.2,1.6-3.3,0.9l-4.2-2.4c-1.2-0.7-1.6-2.1-0.9-3.3
				c0.7-1.2,2.2-1.6,3.3-0.9l4.2,2.4C185,211.6,185.4,213.1,184.7,214.3L184.7,214.3z"/>
		</g>
	</g>
</g>
<g>
	<path d="M-170.6,459.3c0.1-0.1,0.2-0.1,0.3,0c0.6,0.5,1.5,1,2.5,1c0.7,0,1.3-0.2,1.7-0.5c0.4-0.3,0.7-0.7,0.7-1.1
		c0-0.4-0.2-0.8-0.6-1.1c-0.4-0.3-1-0.5-1.8-0.6h0c-0.7-0.1-1.3-0.3-1.8-0.6c-0.5-0.3-0.8-0.8-0.8-1.3c0-0.6,0.3-1.1,0.8-1.4
		c0.5-0.4,1.1-0.6,1.9-0.6c1,0,1.8,0.5,2.4,0.9c0.1,0.1,0.1,0.2,0.1,0.3c-0.1,0.1-0.2,0.1-0.3,0.1c-0.6-0.4-1.3-0.8-2.1-0.8
		c-0.6,0-1.2,0.2-1.6,0.5c-0.4,0.3-0.6,0.7-0.6,1.1c0,0.4,0.2,0.7,0.6,0.9c0.4,0.3,1,0.5,1.7,0.6h0c0.8,0.1,1.5,0.4,2,0.7
		c0.5,0.3,0.8,0.8,0.8,1.5s-0.4,1.2-0.9,1.5s-1.2,0.6-2,0.6c-1.2,0-2.2-0.6-2.8-1.1C-170.7,459.5-170.7,459.4-170.6,459.3z"/>
	<path d="M-161.2,455.6c0,0.1-0.1,0.3-0.3,0.3h-0.7v3.9c0,0.3,0.3,0.4,0.4,0.4c0.1,0,0.3,0.1,0.3,0.3s-0.1,0.3-0.3,0.3
		c-0.5,0-0.9-0.4-0.9-0.9v-3.9h-0.7c-0.3,0-0.3-0.1-0.3-0.3c0-0.1,0-0.3,0.3-0.3h0.7v-2c0-0.1,0.1-0.3,0.3-0.3
		c0.1,0,0.3,0.1,0.3,0.3v2h0.7C-161.4,455.3-161.2,455.5-161.2,455.6z"/>
	<path d="M-154.5,455.6v4.9c0,0.1-0.1,0.3-0.3,0.3s-0.3-0.1-0.3-0.3v-0.8c-0.5,0.6-1.2,1.1-2,1.1c-1.4,0-2.6-1.2-2.6-2.7
		c0-1.5,1.1-2.7,2.6-2.7c0.8,0,1.6,0.4,2,1.1v-0.8c0-0.2,0.1-0.3,0.3-0.3S-154.5,455.4-154.5,455.6z M-155.1,458
		c0-1.2-0.9-2.2-2-2.2c-1.1,0-2,1-2,2.2s0.9,2.2,2,2.2C-156,460.2-155.1,459.2-155.1,458z"/>
	<path d="M-152.2,455.6c0-0.2,0.1-0.3,0.3-0.3c0.1,0,0.3,0.1,0.3,0.3v1.2c0,0,0-0.1,0.1-0.1c0.4-0.6,1.1-1.3,2.2-1.3
		c0.1,0,0.3,0.1,0.3,0.3c0,0.1-0.1,0.3-0.3,0.3c-0.7,0-1.2,0.4-1.6,0.9c-0.4,0.5-0.6,1-0.6,1.3c0,0,0,0.1,0,0.1v2.4
		c0,0.2-0.1,0.3-0.3,0.3c-0.2,0-0.3-0.1-0.3-0.3V455.6z"/>
	<path d="M-145.5,455.6c0,0.1-0.1,0.3-0.3,0.3h-0.7v3.9c0,0.3,0.3,0.4,0.4,0.4c0.1,0,0.3,0.1,0.3,0.3s-0.1,0.3-0.3,0.3
		c-0.5,0-0.9-0.4-0.9-0.9v-3.9h-0.7c-0.3,0-0.3-0.1-0.3-0.3c0-0.1,0-0.3,0.3-0.3h0.7v-2c0-0.1,0.1-0.3,0.3-0.3
		c0.1,0,0.3,0.1,0.3,0.3v2h0.7C-145.7,455.3-145.5,455.5-145.5,455.6z"/>
	<path d="M-143.8,458c0-1.5,1.2-2.7,2.6-2.7c1.4,0,2.5,1.1,2.6,2.5v0v0c0,0.1-0.1,0.2-0.3,0.2h-4.4c0.1,1.2,1,2.1,2.1,2.1
		c0.7,0,1.4-0.4,1.7-1c0.1-0.1,0.2-0.2,0.4-0.1c0.1,0.1,0.2,0.2,0.1,0.4c-0.5,0.7-1.3,1.2-2.2,1.2
		C-142.7,460.7-143.8,459.5-143.8,458z M-143.3,457.6h4.1c-0.2-1-1-1.7-2-1.7C-142.2,455.9-143.1,456.6-143.3,457.6z"/>
	<path d="M-137,455.6c0-0.2,0.1-0.3,0.3-0.3c0.1,0,0.3,0.1,0.3,0.3v1.2c0,0,0-0.1,0.1-0.1c0.4-0.6,1.1-1.3,2.2-1.3
		c0.1,0,0.3,0.1,0.3,0.3c0,0.1-0.1,0.3-0.3,0.3c-0.7,0-1.2,0.4-1.6,0.9c-0.4,0.5-0.6,1-0.6,1.3c0,0,0,0.1,0,0.1v2.4
		c0,0.2-0.1,0.3-0.3,0.3c-0.2,0-0.3-0.1-0.3-0.3V455.6z"/>
	<path d="M-128.7,453.3c0-0.2,0.1-0.3,0.3-0.3c0.2,0,0.3,0.1,0.3,0.3v4.5l4.7-4.7c0.1-0.1,0.3-0.1,0.4,0c0.1,0.1,0.1,0.3,0,0.4
		l-2.9,2.9l3,3.8c0.1,0.1,0.1,0.3,0,0.4c-0.1,0-0.1,0.1-0.2,0.1c-0.1,0-0.1,0-0.2-0.1l-3-3.8l-1.7,1.7v1.9c0,0.1-0.1,0.3-0.3,0.3
		c-0.1,0-0.3-0.1-0.3-0.3V453.3z"/>
	<path d="M-121,453.8c0-0.1,0.1-0.3,0.3-0.3c0.2,0,0.3,0.1,0.3,0.3v0.3c0,0.2-0.1,0.3-0.3,0.3c-0.1,0-0.3-0.1-0.3-0.3V453.8z
		 M-121,455.6c0-0.2,0.1-0.3,0.3-0.3c0.2,0,0.3,0.1,0.3,0.3v4.9c0,0.1-0.1,0.3-0.3,0.3c-0.1,0-0.3-0.1-0.3-0.3V455.6z"/>
	<path d="M-116,455.6c0,0.1-0.1,0.3-0.3,0.3h-0.7v3.9c0,0.3,0.3,0.4,0.4,0.4c0.1,0,0.3,0.1,0.3,0.3s-0.1,0.3-0.3,0.3
		c-0.5,0-0.9-0.4-0.9-0.9v-3.9h-0.7c-0.3,0-0.3-0.1-0.3-0.3c0-0.1,0-0.3,0.3-0.3h0.7v-2c0-0.1,0.1-0.3,0.3-0.3
		c0.1,0,0.3,0.1,0.3,0.3v2h0.7C-116.2,455.3-116,455.5-116,455.6z"/>
	<path d="M-175,467.3c0-0.1,0.1-0.3,0.3-0.3h0h1.7c1.1,0,1.9,0.9,1.9,1.9c0,0.6-0.3,1.1-0.7,1.5c0.9,0.3,1.5,1.1,1.5,2.1
		c0,1.2-1,2.2-2.2,2.2h-2.2h0h0c-0.1,0-0.3-0.1-0.3-0.3V467.3z M-173,470.3c0.8,0,1.4-0.6,1.4-1.4c0-0.8-0.6-1.4-1.4-1.4h-1.4v2.8
		H-173z M-172.6,474.2c0.9,0,1.7-0.7,1.7-1.7c0-0.9-0.7-1.7-1.7-1.7h-1.9v3.3H-172.6z"/>
	<path d="M-169,472c0-1.5,1.2-2.7,2.6-2.7c1.4,0,2.5,1.1,2.6,2.5v0v0c0,0.1-0.1,0.2-0.3,0.2h-4.4c0.1,1.2,1,2.1,2.1,2.1
		c0.7,0,1.4-0.4,1.7-1c0.1-0.1,0.2-0.2,0.4-0.1c0.1,0.1,0.2,0.2,0.1,0.4c-0.5,0.7-1.3,1.2-2.2,1.2C-167.8,474.7-169,473.5-169,472z
		 M-168.4,471.6h4.1c-0.2-1-1-1.7-2-1.7C-167.4,469.9-168.2,470.6-168.4,471.6z"/>
	<path d="M-160.5,469.6c0,0.1-0.1,0.3-0.3,0.3h-0.7v3.9c0,0.3,0.3,0.4,0.4,0.4c0.1,0,0.3,0.1,0.3,0.3s-0.1,0.3-0.3,0.3
		c-0.5,0-0.9-0.4-0.9-0.9v-3.9h-0.7c-0.3,0-0.3-0.1-0.3-0.3c0-0.1,0-0.3,0.3-0.3h0.7v-2c0-0.1,0.1-0.3,0.3-0.3
		c0.1,0,0.3,0.1,0.3,0.3v2h0.7C-160.6,469.3-160.5,469.5-160.5,469.6z"/>
	<path d="M-153.8,469.6v4.9c0,0.1-0.1,0.3-0.3,0.3s-0.3-0.1-0.3-0.3v-0.8c-0.5,0.6-1.2,1.1-2,1.1c-1.4,0-2.6-1.2-2.6-2.7
		c0-1.5,1.1-2.7,2.6-2.7c0.8,0,1.6,0.4,2,1.1v-0.8c0-0.2,0.1-0.3,0.3-0.3S-153.8,469.4-153.8,469.6z M-154.3,472
		c0-1.2-0.9-2.2-2-2.2c-1.1,0-2,1-2,2.2s0.9,2.2,2,2.2C-155.2,474.2-154.3,473.2-154.3,472z"/>
	<path d="M-146.1,467.6h-2.3c-0.1,0-0.3-0.1-0.3-0.3c0-0.1,0.1-0.3,0.3-0.3h5.2c0.1,0,0.3,0.1,0.3,0.3c0,0.2-0.1,0.3-0.3,0.3h-2.3
		v6.9c0,0.1-0.1,0.3-0.3,0.3s-0.3-0.1-0.3-0.3V467.6z"/>
	<path d="M-142.9,472c0-1.5,1.2-2.7,2.6-2.7c1.4,0,2.5,1.1,2.6,2.5v0v0c0,0.1-0.1,0.2-0.3,0.2h-4.4c0.1,1.2,1,2.1,2.1,2.1
		c0.7,0,1.4-0.4,1.7-1c0.1-0.1,0.2-0.2,0.4-0.1c0.1,0.1,0.2,0.2,0.1,0.4c-0.5,0.7-1.3,1.2-2.2,1.2
		C-141.8,474.7-142.9,473.5-142.9,472z M-142.4,471.6h4.1c-0.2-1-1-1.7-2-1.7C-141.3,469.9-142.2,470.6-142.4,471.6z"/>
	<path d="M-136.2,473.6c0.1-0.1,0.3-0.1,0.4,0c0.4,0.3,1,0.6,1.7,0.6c0.4,0,0.8-0.1,1-0.3c0.3-0.2,0.4-0.4,0.4-0.7
		c0-0.3-0.1-0.4-0.4-0.7c-0.2-0.2-0.6-0.3-1.1-0.4l0,0c-0.5-0.1-0.9-0.2-1.2-0.4c-0.3-0.2-0.6-0.6-0.6-1c0-0.4,0.2-0.8,0.6-1.1
		c0.3-0.2,0.8-0.4,1.3-0.4c0.7,0,1.2,0.3,1.6,0.6c0.1,0.1,0.2,0.3,0.1,0.4c-0.1,0.1-0.2,0.2-0.4,0.1c-0.4-0.3-0.8-0.5-1.3-0.5
		c-0.4,0-0.8,0.1-1,0.3c-0.2,0.2-0.3,0.4-0.3,0.6c0,0.2,0.1,0.4,0.3,0.5c0.2,0.2,0.6,0.3,1.1,0.4h0c0.5,0.1,0.9,0.2,1.3,0.4
		c0.4,0.2,0.6,0.6,0.6,1.1c0,0.5-0.3,0.8-0.6,1.1c-0.4,0.3-0.8,0.4-1.3,0.4c-0.9,0-1.6-0.4-2-0.8
		C-136.3,473.9-136.3,473.7-136.2,473.6z"/>
	<path d="M-128.4,469.6c0,0.1-0.1,0.3-0.3,0.3h-0.7v3.9c0,0.3,0.3,0.4,0.4,0.4c0.1,0,0.3,0.1,0.3,0.3s-0.1,0.3-0.3,0.3
		c-0.5,0-0.9-0.4-0.9-0.9v-3.9h-0.7c-0.3,0-0.3-0.1-0.3-0.3c0-0.1,0-0.3,0.3-0.3h0.7v-2c0-0.1,0.1-0.3,0.3-0.3
		c0.1,0,0.3,0.1,0.3,0.3v2h0.7C-128.5,469.3-128.4,469.5-128.4,469.6z"/>
	<path d="M-125.8,467.8c0-0.1,0.1-0.3,0.3-0.3c0.2,0,0.3,0.1,0.3,0.3v0.3c0,0.2-0.1,0.3-0.3,0.3c-0.1,0-0.3-0.1-0.3-0.3V467.8z
		 M-125.8,469.6c0-0.2,0.1-0.3,0.3-0.3c0.2,0,0.3,0.1,0.3,0.3v4.9c0,0.1-0.1,0.3-0.3,0.3c-0.1,0-0.3-0.1-0.3-0.3V469.6z"/>
	<path d="M-118.9,471.5c0-0.9-0.7-1.7-1.7-1.7c-0.9,0-1.7,0.7-1.7,1.7v2.9v0c0,0,0,0.1-0.1,0.1c0,0.1-0.1,0.1-0.2,0.1h-0.1
		c-0.1,0-0.1-0.1-0.2-0.1c0,0,0,0,0,0s0,0,0,0v-0.1v-2.9v-0.1v-1.8c0-0.1,0.1-0.3,0.3-0.3c0.1,0,0.3,0.1,0.3,0.3v0.5
		c0.4-0.5,1-0.8,1.7-0.8c1.2,0,2.2,1,2.2,2.2v2.9c0,0.2-0.1,0.3-0.3,0.3s-0.3-0.1-0.3-0.3V471.5z"/>
	<path d="M-111.3,474.3c0,1.4-1.1,2.5-2.5,2.5c-0.4,0-0.8-0.1-1.1-0.3c-0.1-0.1-0.2-0.2-0.1-0.4c0.1-0.1,0.2-0.2,0.4-0.1
		c0.3,0.1,0.5,0.2,0.9,0.2c1.1,0,2-0.9,2-2v-0.7c-0.5,0.6-1.2,1.1-2,1.1c-1.4,0-2.5-1.2-2.5-2.7c0-1.5,1.1-2.7,2.5-2.7
		c0.8,0,1.6,0.4,2,1.1v-0.8c0-0.1,0.1-0.3,0.3-0.3c0.1,0,0.3,0.1,0.3,0.3V474.3z M-111.8,472c0-1.2-0.9-2.1-2-2.1
		c-1.1,0-2,0.9-2,2.1c0,1.2,0.9,2.2,2,2.2C-112.7,474.2-111.8,473.2-111.8,472z"/>
</g>
</svg>
