<svg width="170" height="100" xmlns="http://www.w3.org/2000/svg" viewBox="-255 347 101 100">
    <g fill="#3B4572">
        <path d="M-203.6 371.3c1 0 1.8.8 1.8 1.8s-.8 1.8-1.8 1.8-1.8-.8-1.8-1.8.8-1.8 1.8-1.8zM-196.3 371.3c1 0 1.8.8 1.8 1.8s-.8 1.8-1.8 1.8-1.8-.8-1.8-1.8.8-1.8 1.8-1.8zM-189 371.3c1 0 1.8.8 1.8 1.8s-.8 1.8-1.8 1.8-1.8-.8-1.8-1.8.8-1.8 1.8-1.8zM-181.7 371.3c1 0 1.8.8 1.8 1.8s-.8 1.8-1.8 1.8-1.8-.8-1.8-1.8c-.1-1 .8-1.8 1.8-1.8zM-174.5 371.3c1 0 1.8.8 1.8 1.8s-.8 1.8-1.8 1.8-1.8-.8-1.8-1.8.8-1.8 1.8-1.8zM-174.5 378.6c1 0 1.8.8 1.8 1.8s-.8 1.8-1.8 1.8-1.8-.8-1.8-1.8.8-1.8 1.8-1.8zM-174.5 386c1 0 1.8.8 1.8 1.8s-.8 1.8-1.8 1.8-1.8-.8-1.8-1.8.8-1.8 1.8-1.8zM-174.5 393.3c1 0 1.8.8 1.8 1.8s-.8 1.8-1.8 1.8-1.8-.8-1.8-1.8.8-1.8 1.8-1.8zM-179.3 402.6c-.7-.9-.3-1.6.8-1.6h7.9c1.1 0 1.5.7.8 1.6l-3.6 4.8c-.7.9-1.7.9-2.4 0 .1 0-3.5-4.8-3.5-4.8z"/>
    </g>
    <g fill="#3B4572">
        <path d="M-243.6 426.2c1 0 1.8.8 1.8 1.8s-.8 1.8-1.8 1.8-1.8-.8-1.8-1.8.8-1.8 1.8-1.8zM-236.3 426.2c1 0 1.8.8 1.8 1.8s-.8 1.8-1.8 1.8-1.8-.8-1.8-1.8.8-1.8 1.8-1.8zM-229 426.2c1 0 1.8.8 1.8 1.8s-.8 1.8-1.8 1.8-1.8-.8-1.8-1.8c-.1-1 .8-1.8 1.8-1.8zM-221.8 426.2c1 0 1.8.8 1.8 1.8s-.8 1.8-1.8 1.8-1.8-.8-1.8-1.8.8-1.8 1.8-1.8zM-214.5 426.2c1 0 1.8.8 1.8 1.8s-.8 1.8-1.8 1.8-1.8-.8-1.8-1.8.8-1.8 1.8-1.8zM-243.6 404.3c1 0 1.8.8 1.8 1.8s-.8 1.8-1.8 1.8-1.8-.8-1.8-1.8.8-1.8 1.8-1.8zM-243.6 411.6c1 0 1.8.8 1.8 1.8s-.8 1.8-1.8 1.8-1.8-.8-1.8-1.8.8-1.8 1.8-1.8zM-243.6 418.9c1 0 1.8.8 1.8 1.8s-.8 1.8-1.8 1.8-1.8-.8-1.8-1.8.8-1.8 1.8-1.8zM-248.3 398.4c-.7.9-.3 1.6.8 1.6h7.9c1.1 0 1.5-.7.8-1.6l-3.6-4.8c-.7-.9-1.7-.9-2.4 0l-3.5 4.8z"/>
    </g>
    <path d="M-252 367.4l17.7 19.6 17.7-19.6-8.9-10.8h-18.8l-7.7 10.8z" fill="none" stroke="#FFC057" stroke-width="4" stroke-linecap="square"/>
    <path d="M-198.2 428.2l.2-.3s0-.1.1-.1c0-.1.1-.2.2-.2l8.9-9c.4-.4.9-.6 1.4-.6.6 0 1 .2 1.4.6.4.4.6.9.6 1.4s-.2 1-.6 1.4l-7.5 7.5 7.5 7.5c.4.4.6.9.6 1.4s-.2 1-.6 1.4c-.4.4-.9.6-1.4.6s-1-.2-1.4-.6l-8.9-9c-.1 0-.1-.1-.2-.2s-.1-.2-.2-.3c-.1 0-.1-.1-.1-.1 0-.1 0-.1-.1-.2 0 0 0-.1-.1-.2v-.8l.1-.3c0 .2.1.2.1.1 0 .1 0 .1 0 0zM-154.4 429.5l-.2.4-.2.3-9.1 9.2c-.4.4-.8.6-1.4.6s-1-.2-1.5-.6c-.4-.4-.6-.9-.6-1.4s.2-1 .6-1.4l7.5-7.5-7.5-7.5c-.4-.4-.6-.9-.6-1.4s.2-1 .6-1.4c.4-.4.9-.6 1.4-.6.6 0 1 .2 1.4.6l9.1 9.2c0 .1.1.2.1.2 0 .1.1.1.1.1l.1.4v.8zM-179.3 439c-.3.7-.8 1-1.5 1s-1.2-.3-1.5-.8c-.3-.5-.4-1.1-.1-1.6l7.7-18.4c.2-.4.5-.8.9-.9.4-.2.9-.2 1.3 0s.8.5.9.9.2.9 0 1.3l-7.7 18.5z" fill="#64C800"/>
</svg>
