<svg width="1044" height="172" viewBox="0 0 1044 172" xmlns="http://www.w3.org/2000/svg">
    <g transform="translate(.453 -3.272)" fill="none" fill-rule="evenodd">
        <rect fill="#CCE7F4" x="560" y="111" width="69" height="32" rx="5"/>
        <path d="M149.547 90h697M918.522 90h102.027" stroke="#008CDC" stroke-width="4" stroke-linecap="round"/>
        <circle stroke="#008CDC" stroke-width="4" stroke-linecap="square" fill="#FFF" cx="740.5" cy="90.5" r="9.5"/>
        <circle stroke="#008CDC" stroke-width="4" stroke-linecap="square" fill="#FFF" cx="290.5" cy="90" r="6"/>
        <circle stroke="#008CDC" stroke-width="4" stroke-linecap="square" fill="#FFF" cx="158.5" cy="90" r="5.75"/>
        <g transform="translate(0 87)" fill="#008CDC">
            <circle opacity=".5" cx="41.5" cy="3" r="2.5"/>
            <circle opacity=".6" cx="50.5" cy="3" r="2.5"/>
            <circle opacity=".7" cx="60.5" cy="3" r="2.5"/>
            <circle opacity=".8" cx="70.5" cy="3" r="2.5"/>
            <circle opacity=".9" cx="80.5" cy="3" r="2.5"/>
            <circle cx="90.5" cy="3" r="2.5"/>
            <circle cx="100.5" cy="3" r="2.5"/>
            <circle cx="110.5" cy="3" r="2.5"/>
            <circle cx="120.5" cy="3" r="2.5"/>
            <circle cx="130.5" cy="3" r="2.5"/>
            <circle cx="140.5" cy="3" r="2.5"/>
            <circle opacity=".4" cx="32.5" cy="3" r="2.5"/>
            <circle opacity=".3" cx="22.5" cy="3" r="2.5"/>
            <circle opacity=".2" cx="12.5" cy="3" r="2.5"/>
            <circle opacity=".1" cx="2.5" cy="3" r="2.5"/>
        </g>
        <ellipse stroke="#008CDC" stroke-width="4" stroke-linecap="square" fill="#FFF" cx="439.5" cy="90" rx="6.75" ry="6.75"/>
        <path d="M1006.873 96.823c0 2.762 1.995 3.98 4.448 2.724l14.752-7.552c2.457-1.258 2.432-3.26-.042-4.468l-14.668-7.16c-2.48-1.21-4.49.055-4.49 2.81v13.646z" stroke="#008CDC" stroke-width="4" stroke-linecap="square" fill="#008CDC"/>
        <path d="M588.188 94.106c0 2.767 1.987 3.992 4.45 2.73l9.34-4.78c2.46-1.26 2.448-3.258-.034-4.47l-9.27-4.523c-2.478-1.21-4.486.047-4.486 2.82v8.223z" stroke="#008CDC" stroke-width="4" stroke-linecap="square" fill="#FFF"/>
        <ellipse fill="#FFCE29" cx="884" cy="90" rx="13" ry="13"/>
        <text font-family="Quicksand" font-size="12" fill="#000">
            <tspan x="716.99" y="50">January </tspan> <tspan x="727.838" y="64">2016 </tspan>
        </text>
        <text font-family="Quicksand" font-size="12" font-weight="bold" fill="#008CDC">
            <tspan x="564.998" y="50.072">December </tspan> <tspan x="582.56" y="64.072">2015</tspan>
        </text>
        <text opacity=".814" font-family="Quicksand" font-size="12" fill="#000">
            <tspan x="414.576" y="50">October </tspan> <tspan x="426.06" y="64">2015</tspan>
        </text>
        <text opacity=".619" font-family="Quicksand" font-size="12" fill="#000">
            <tspan x="269.956" y="50.072">August </tspan> <tspan x="277.06" y="64.072">2015</tspan>
        </text>
        <text opacity=".556" font-family="Quicksand" font-size="12" fill="#000">
            <tspan x="145.926" y="50.072">June </tspan> <tspan x="147.06" y="64.072">2015</tspan>
        </text>
        <text opacity=".411" font-family="Quicksand" font-size="12" fill="#000">
            <tspan x="37.85" y="50.072">April</tspan> <tspan x="38.06" y="64.072">2015</tspan>
        </text>
        <text font-family="Quicksand" font-size="12" font-weight="bold" fill="#008CDC">
            <tspan x="565.634" y="124">Pre-order</tspan> <tspan x="579.35" y="138">Start</tspan>
        </text>
        <text font-family="Quicksand" font-size="12" fill="#000">
            <tspan x="709.386" y="124">Starter Kit </tspan> <tspan x="718.782" y="138">Testing</tspan>
        </text>
        <text opacity=".619" font-family="Quicksand" font-size="12" fill="#000">
            <tspan x="274.076" y="124">Field </tspan> <tspan x="257.354" y="138">Interviews</tspan>
        </text>
        <text opacity=".556" font-family="Quicksand" font-size="12" fill="#000">
            <tspan x="126.166" y="124">Conceptua-</tspan> <tspan x="140.14" y="138">lisation</tspan>
        </text>
        <text opacity=".411" font-family="Quicksand" font-size="12" fill="#000">
            <tspan x="34.538" y="124">Birth</tspan>
        </text>
        <text font-family="Quicksand" font-size="16" font-weight="bold" fill="#008CDC">
            <tspan x="843.848" y="154">Starter Kit </tspan> <tspan x="855.504" y="175">Release</tspan>
        </text>
        <text opacity=".814" font-family="Quicksand" font-size="12" fill="#000">
            <tspan x="408.886" y="123">Starter Kit </tspan> <tspan x="400.744" y="137">Development</tspan>
        </text>
        <text font-family="Quicksand" font-size="12" fill="#000">
            <tspan x="995.136" y="123">Feature</tspan> <tspan x="992.676" y="137">Releases</tspan>
        </text>
        <text font-family="Quicksand" font-size="16" font-weight="bold" fill="#008CDC">
            <tspan x="867.592" y="15">May </tspan> <tspan x="865.784" y="36">2016</tspan>
        </text>
        <text font-family="Quicksand" font-size="12" fill="#000">
            <tspan x="1002.426" y="50">June </tspan> <tspan x="1003.338" y="64">2016</tspan>
        </text>
        <path d="M883.888 72.504c-1.343 0-2.433-1.097-2.433-2.43v-4.87c0-1.344 1.08-2.432 2.433-2.432 1.344 0 2.433 1.097 2.433 2.43v4.87c0 1.344-1.08 2.432-2.432 2.432zm15.17 8.76c-.67-1.165-.265-2.657.89-3.323l4.218-2.435c1.163-.67 2.645-.28 3.322.892.67 1.164.266 2.656-.89 3.322l-4.217 2.435c-1.162.67-2.644.28-3.32-.892zm0 17.517c.673-1.163 2.168-1.557 3.323-.89l4.22 2.435c1.162.67 1.564 2.15.888 3.322-.672 1.164-2.167 1.558-3.322.892l-4.218-2.437c-1.163-.67-1.565-2.15-.89-3.322zm-15.17 8.76c1.344 0 2.433 1.097 2.433 2.43v4.87c0 1.344-1.08 2.432-2.432 2.432-1.343 0-2.433-1.098-2.433-2.43v-4.87c0-1.344 1.08-2.432 2.433-2.432zm-15.17-8.76c.67 1.165.265 2.657-.89 3.323l-4.217 2.436c-1.162.67-2.644.28-3.32-.893-.673-1.164-.267-2.656.888-3.322l4.218-2.436c1.162-.672 2.645-.28 3.32.89zm0-17.517c-.672 1.164-2.168 1.558-3.322.892l-4.218-2.436c-1.163-.672-1.565-2.15-.89-3.323.673-1.164 2.168-1.558 3.323-.892l4.22 2.436c1.16.672 1.564 2.15.887 3.323z" stroke="#FFCE29" stroke-width="4" stroke-linecap="square"/>
    </g>
</svg>
