<svg width="91" height="100" viewBox="0 0 91 100" xmlns="http://www.w3.org/2000/svg">
    <g fill="none" fill-rule="evenodd">
        <path d="M45.928 27.18c-12.4 0-22.432 10.043-22.432 22.432 0 12.393 10.032 22.436 22.432 22.436 12.38 0 22.41-10.043 22.41-22.436 0-12.39-10.03-22.432-22.41-22.432zM41.08 62.25V37.538l16.604 12.355-16.603 12.36z" fill="#64C800"/>
        <path d="M32.256 13.994c.253.588-.112 1.31-.82 1.61-.705.305-1.485.07-1.738-.52l-1.683-3.957c-.257-.592.113-1.313.814-1.615.71-.304 1.486-.068 1.735.523l1.69 3.96zM16.782 24.83c1.012 1.013 2.818.855 4.032-.36 1.21-1.21 1.372-3.02.358-4.03l-3.037-3.037c-1.02-1.016-2.822-.854-4.032.357-1.214 1.212-1.372 3.013-.36 4.033l3.04 3.037zM11.07 34.086c.595.243.847 1.01.554 1.725-.28.716-.996 1.095-1.588.855l-3.995-1.6c-.594-.243-.847-1.014-.563-1.726.29-.716 1.005-1.1 1.597-.858l3.995 1.604zM7.792 52.694c1.43 0 2.593-1.39 2.593-3.105 0-1.718-1.164-3.106-2.597-3.106h-4.29c-1.44.003-2.6 1.392-2.6 3.105 0 1.716 1.158 3.098 2.6 3.104H7.79zM58.744 13.994c-.253.588.113 1.31.82 1.61.705.305 1.485.07 1.738-.52l1.683-3.957c.257-.592-.112-1.313-.813-1.615-.712-.304-1.488-.068-1.738.523l-1.69 3.96zM74.22 24.83c-1.014 1.013-2.82.855-4.034-.36-1.21-1.21-1.37-3.02-.36-4.03l3.04-3.037c1.018-1.016 2.82-.854 4.03.357 1.216 1.212 1.373 3.013.36 4.033L74.22 24.83zM79.93 34.086c-.594.243-.848 1.01-.553 1.725.28.716.995 1.095 1.587.855l3.995-1.6c.594-.243.847-1.014.563-1.726-.29-.716-1.006-1.1-1.598-.858l-3.994 1.604zM83.207 52.694c-1.43 0-2.592-1.39-2.592-3.105 0-1.718 1.162-3.106 2.596-3.106h4.294c1.44.003 2.6 1.392 2.6 3.105 0 1.716-1.16 3.098-2.6 3.104h-4.297zM10.296 63.277c.592-.25 1.314.116 1.607.824.31.706.076 1.482-.516 1.735l-3.958 1.69c-.592.25-1.318-.12-1.62-.82-.303-.713-.067-1.492.524-1.738l3.962-1.69zM21.136 78.75c1.01-1.012.852-2.814-.362-4.028-1.214-1.214-3.02-1.375-4.032-.362l-3.035 3.037c-1.016 1.02-.854 2.822.36 4.036 1.21 1.21 3.01 1.368 4.032.355l3.036-3.037zM30.388 84.463c.244-.592 1.014-.848 1.725-.554.72.28 1.094.994.855 1.593L31.36 89.49c-.232.604-1.005.853-1.72.57-.715-.292-1.1-1.007-.855-1.603l1.603-3.994zM48.996 87.74c0-1.43-1.39-2.593-3.106-2.593-1.717 0-3.105 1.163-3.105 2.593v4.296c.004 1.44 1.393 2.6 3.11 2.6 1.713 0 3.095-1.16 3.102-2.6V87.74zM48.996 7.23c0-1.43-1.39-2.594-3.106-2.594-1.717 0-3.105 1.163-3.105 2.593v4.295c.004 1.44 1.393 2.6 3.11 2.6 1.713 0 3.095-1.16 3.102-2.6V7.23zM59.58 85.237c-.25-.592.11-1.31.826-1.61.698-.306 1.475-.07 1.725.52l1.69 3.96c.26.59-.11 1.31-.814 1.615-.715.305-1.49.068-1.734-.523l-1.693-3.963zM75.053 74.397c-1.012-1.01-2.814-.852-4.03.362-1.213 1.214-1.374 3.02-.36 4.032l3.036 3.037c1.02 1.012 2.82.85 4.035-.363 1.21-1.21 1.368-3.01.356-4.032l-3.037-3.038zM80.766 65.145c-.596-.24-.85-1.013-.555-1.725.28-.715.993-1.098 1.592-.854l3.99 1.604c.6.236.85 1.013.565 1.72-.29.723-1.002 1.106-1.597.856l-3.994-1.6z" fill="#FFC057"/>
    </g>
</svg>
