<svg width="81" height="100" viewBox="0 0 81 100" xmlns="http://www.w3.org/2000/svg">
    <g fill="none" fill-rule="evenodd">
        <g transform="translate(.81 9.636)">
            <circle fill-opacity=".593" fill="#00B4F0" cx="40.095" cy="40.095" r="2.462"/>
            <circle fill="#00B4F0" cx="40.095" cy="29.997" r="3.118"/>
            <circle fill="#008CDC" cx="40.095" cy="18.265" r="4.009"/>
            <circle fill="#3B4572" cx="29.105" cy="13.148" r="4.009"/>
            <circle fill="#3B4572" cx="13.27" cy="28.811" r="4.009"/>
            <circle fill="#3B4572" cx="13.148" cy="51.084" r="4.009"/>
            <circle fill="#3B4572" cx="28.811" cy="66.92" r="4.009"/>
            <circle fill="#3B4572" cx="51.084" cy="67.042" r="4.009"/>
            <path d="M69.756 48.543c1.565 1.567 1.565 4.104-.002 5.67-1.565 1.564-4.102 1.567-5.67 0-1.565-1.566-1.565-4.106 0-5.67 1.567-1.566 4.104-1.565 5.672 0zM67.043 25.096c2.214 0 4.008 1.795 4.008 4.01 0 2.212-1.793 4.01-4.01 4.01-2.212 0-4.01-1.798-4.01-4.01 0-2.216 1.798-4.01 4.013-4.01zM48.543 10.433c1.567-1.565 4.104-1.565 5.67.002 1.564 1.565 1.567 4.102 0 5.67-1.566 1.565-4.106 1.565-5.67 0-1.566-1.567-1.565-4.104 0-5.672z" fill="#3B4572"/>
            <circle fill="#3B4572" cx="40.095" cy="5.373" r="5.346"/>
            <circle fill="#00B4F0" cx="32.953" cy="32.954" r="3.118"/>
            <circle fill="#008CDC" cx="24.658" cy="24.658" r="4.009"/>
            <circle fill="#3B4572" cx="15.542" cy="15.542" r="5.346"/>
            <circle fill="#00B4F0" cx="29.996" cy="40.095" r="3.118"/>
            <circle fill="#008CDC" cx="18.264" cy="40.095" r="4.009"/>
            <circle fill="#3B4572" cx="5.373" cy="40.095" r="5.346"/>
            <circle fill="#00B4F0" cx="32.953" cy="47.236" r="3.118"/>
            <circle fill="#008CDC" cx="24.658" cy="55.531" r="4.009"/>
            <circle fill="#3B4572" cx="15.542" cy="64.647" r="5.346"/>
            <circle fill="#00B4F0" cx="40.095" cy="50.193" r="3.118"/>
            <circle fill="#3B4572" cx="40.095" cy="61.924" r="4.009"/>
            <circle fill="#3B4572" cx="40.095" cy="74.816" r="5.345"/>
            <circle fill="#00B4F0" cx="47.236" cy="47.236" r="3.118"/>
            <path d="M58.366 52.696c1.567 1.567 1.566 4.105 0 5.67-1.565 1.566-4.104 1.567-5.67 0-1.567-1.565-1.564-4.105 0-5.67 1.566-1.565 4.104-1.567 5.67 0z" fill="#008CDC"/>
            <circle fill="#3B4572" cx="64.647" cy="64.647" r="5.345"/>
            <circle fill="#00B4F0" cx="50.193" cy="40.095" r="3.118"/>
            <circle fill="#008CDC" cx="61.924" cy="40.095" r="4.01"/>
            <circle fill="#3B4572" cx="74.816" cy="40.095" r="5.345"/>
            <circle fill="#00B4F0" cx="47.236" cy="32.954" r="3.118"/>
            <path d="M52.695 21.823c1.567-1.566 4.105-1.565 5.67 0 1.567 1.565 1.568 4.104 0 5.67-1.564 1.567-4.104 1.564-5.668 0-1.566-1.566-1.568-4.104-.002-5.67z" fill="#008CDC"/>
            <path d="M60.866 11.764c2.088-2.09 5.472-2.09 7.56 0 2.087 2.086 2.087 5.473-.002 7.56-2.085 2.086-5.472 2.086-7.56 0-2.085-2.088-2.085-5.473.002-7.56z" fill="#3B4572"/>
        </g>
    </g>
</svg>
