<svg width="228" height="110" viewBox="0 0 228 110" xmlns="http://www.w3.org/2000/svg">
    <g fill="none" fill-rule="evenodd">
        <path d="M51.224 5.855c0-1.976 1.583-3.557 3.56-3.557H73.97c1.977 0 3.56 1.58 3.56 3.557V52.69c0 1.977-1.583 3.558-3.56 3.558H54.783c-1.977 0-3.56-1.58-3.56-3.558V5.855zm-1.977 0V52.69c0 3.162 2.57 5.534 5.537 5.534H73.97c3.163 0 5.537-2.57 5.537-5.534V5.855c0-3.162-2.57-5.534-5.538-5.534H54.783c-3.164 0-5.537 2.373-5.537 5.535zm50.235-3.557h26.502v53.95H99.482V2.298zM97.504.32v57.904h30.458V.32H97.504zm50.434 8.894l6.922-6.916h19.58v53.95h-26.502V9.214zm-1.978-.79v49.8h30.458V.32h-22.35l-8.108 8.104zM1.978 29.174C1.978 17.91 8.308 8.62 16.02 8.62c7.713 0 14.042 9.29 14.042 20.554s-6.33 20.552-14.042 20.552c-7.713 0-14.042-9.09-14.042-20.552zm-1.978 0c0 12.45 7.12 22.528 16.02 22.528 8.9 0 16.02-10.078 16.02-22.528s-7.12-22.53-16.02-22.53C7.12 6.645 0 16.725 0 29.175zm197.95 0c0-7.707 6.328-14.03 14.04-14.03 7.714 0 14.043 6.323 14.043 14.03 0 7.707-6.33 14.03-14.042 14.03s-14.04-6.323-14.04-14.03zm-1.98 0c0 8.893 7.12 16.007 16.02 16.007 8.9 0 16.02-7.113 16.02-16.006s-7.12-16.007-16.02-16.007c-8.9 0-16.02 7.114-16.02 16.007zM96.12 91.226l16.02-16.007 16.02 16.006-16.02 16.007-16.02-16.007zm-2.77 0L112.14 110l18.79-18.774-18.79-18.774-18.79 18.774zm-27.886-.988V58.224h-1.977v33.99H89v-1.976H65.464zM32.238 28.186v1.976h13.45v-1.976h-13.45zm47.466 0v1.976h13.45v-1.976h-13.45zm48.258 0v1.976h13.45v-1.976h-13.45zM160.2 58.224v32.014h-25.513v1.976h27.293v-33.99h-1.78zM44.5 31.94l3.758-2.766-3.758-2.767v5.533zm47.862 0l3.758-2.766-3.758-2.767v5.533zm-3.758 61.855l3.758-2.766-3.758-2.768v5.533zM140.62 31.94l3.758-2.766-3.758-2.767v5.533zm-4.747 56.52l-3.757 2.766 3.757 2.767V88.46zm54.046-60.176H176V30h13.92v-1.716zm-.595 3.758l3.755-2.77-3.755-2.768v5.538z" fill-opacity=".325" fill="#3264B4"/>
    </g>
</svg>
