<svg width="425" height="171" viewBox="0 0 425 171" xmlns="http://www.w3.org/2000/svg">
    <g transform="translate(4 2)" fill="none" fill-rule="evenodd">
        <g font-weight="bold" font-family="Quicksand" fill="#BCFF77" font-size="28.676">
            <text transform="translate(377.882 1)">
                <tspan x=".998" y="27.647">&lt;</tspan>
            </text>
            <text transform="translate(377.882 1)">
                <tspan x="25.317" y="27.647">&gt;</tspan>
            </text>
            <text transform="translate(377.882 1)">
                <tspan x="13.804" y="27.647">/</tspan>
            </text>
        </g>
        <g font-weight="bold" font-family="Quicksand" fill="#BCFF77" font-size="28.676">
            <text transform="translate(379.627 64.905)">
                <tspan x=".201" y="27.249">&lt;</tspan>
            </text>
            <text transform="translate(379.627 64.905)">
                <tspan x="24.52" y="27.249">&gt;</tspan>
            </text>
            <text transform="translate(379.627 64.905)">
                <tspan x="13.007" y="27.249">/</tspan>
            </text>
        </g>
        <g font-size="28.676" font-family="Quicksand" fill="#BCFF77" font-weight="bold">
            <text transform="translate(380.402 127.74)">
                <tspan x=".224" y="27">&lt;</tspan>
            </text>
            <text transform="translate(380.402 127.74)">
                <tspan x="24.543" y="27">&gt;</tspan>
            </text>
            <text transform="translate(380.402 127.74)">
                <tspan x="13.03" y="27">/</tspan>
            </text>
        </g>
        <ellipse stroke="#FFF" stroke-width="3" stroke-linecap="square" cx="198.284" cy="87.648" rx="37.912" ry="37.947"/>
        <circle stroke="#FFF" stroke-width="3" stroke-linecap="square" cx="360.093" cy="10.247" r="8.5"/>
        <circle stroke="#FFF" stroke-width="3" stroke-linecap="square" cx="360.093" cy="73.295" r="8.5"/>
        <circle stroke="#FFF" stroke-width="3" stroke-linecap="square" cx="360.093" cy="138.736" r="8.5"/>
        <path d="M374.716 37.862v-7.968c0-4.41-3.582-7.993-8-7.993h-14.298c-4.42 0-8 3.58-8 7.994v7.968h30.298zM374.716 100.91v-7.97c0-4.408-3.582-7.992-8-7.992h-14.298c-4.42 0-8 3.58-8 7.993v7.97h30.298zM374.716 166.35v-7.967c0-4.41-3.582-7.993-8-7.993h-14.298c-4.42 0-8 3.578-8 7.993v7.968h30.298zM248.61 75.617c45.493.01 46.56-49.23 85.03-49.23M248.27 103.954c45.49-.01 46.558 49.23 85.027 49.23M248.27 89.242h82.535M148.32 75.617c-40.245.01-41.19-49.23-75.22-49.23M148.018 103.954c-40.245-.01-41.19 49.23-75.222 49.23M147.69 89.242H74.675" stroke="#FFF" stroke-width="3" stroke-linecap="square"/>
        <circle stroke="#FFF" stroke-width="3" stroke-linecap="square" cx="49.51" cy="8.5" r="8.5"/>
        <ellipse stroke="#F3D87F" stroke-width="3" stroke-linecap="square" fill="#41AA28" cx="95.15" cy="35.283" rx="6.5" ry="6.508"/>
        <ellipse stroke="#BCFF77" stroke-width="3" stroke-linecap="square" fill="#41AA28" cx="312.958" cy="33.535" rx="6.5" ry="6.508"/>
        <ellipse stroke="#BCFF77" stroke-width="3" stroke-linecap="square" fill="#41AA28" cx="312.958" cy="89.159" rx="6.5" ry="6.508"/>
        <ellipse stroke="#BCFF77" stroke-width="3" stroke-linecap="square" fill="#41AA28" cx="312.958" cy="146.62" rx="6.5" ry="6.508"/>
        <circle stroke="#FFF" stroke-width="3" stroke-linecap="square" cx="49.51" cy="71.547" r="8.5"/>
        <circle stroke="#FFF" stroke-width="3" stroke-linecap="square" cx="49.51" cy="136.989" r="8.5"/>
        <path d="M64.132 36.115v-7.968c0-4.41-3.58-7.993-8-7.993H41.834c-4.42 0-8 3.578-8 7.993v7.968h30.298zM64.132 99.162v-7.968c0-4.41-3.58-7.993-8-7.993H41.834c-4.42 0-8 3.58-8 7.994v7.968h30.298zM64.132 164.604v-7.97c0-4.408-3.58-7.992-8-7.992H41.834c-4.42 0-8 3.58-8 7.993v7.97h30.298z" stroke="#FFF" stroke-width="3" stroke-linecap="square"/>
        <path d="M.217 14.04L12.433 27.56 24.65 14.04l-6.156-7.447H5.537L.217 14.04zM.217 78.34l12.216 13.523L24.65 78.34l-6.156-7.445H5.537L.217 78.34zM.217 143.1l12.216 13.523L24.65 143.1l-6.156-7.445H5.537L.217 143.1z" stroke="#F3D87F" stroke-width="3" stroke-linecap="square"/>
        <path d="M200.14 92.772c-.973-.983-2.55-.983-3.523 0l-10.223 10.322c-.973.983-.973 2.576 0 3.558.973.983 2.55.983 3.524 0L200.14 96.33c.973-.983.973-2.576 0-3.558zm4.808 7.127c-2.953 0-5.346 2.416-5.346 5.398 0 2.98 2.393 5.398 5.346 5.398 2.952 0 5.345-2.417 5.345-5.398 0-2.982-2.393-5.4-5.345-5.4zm-8.303-16.596c.973.983 2.55.983 3.523 0l10.222-10.322c.973-.983.973-2.576 0-3.558-.972-.983-2.55-.983-3.523 0l-10.222 10.323c-.973.982-.973 2.575 0 3.557zm-4.807-7.126c2.952 0 5.346-2.417 5.346-5.4 0-2.98-2.394-5.398-5.346-5.398-2.953 0-5.346 2.417-5.346 5.4 0 2.98 2.393 5.398 5.346 5.398zm-1.757 13.625c.974.982 2.55.982 3.524 0 .973-.983.973-2.576 0-3.558l-10.222-10.323c-.973-.983-2.55-.983-3.523 0-.974.982-.974 2.575 0 3.558l10.22 10.323zm-8.88-.544c-2.95 0-5.345 2.416-5.345 5.398 0 2.98 2.394 5.398 5.346 5.398 2.953 0 5.347-2.417 5.347-5.398 0-2.982-2.394-5.4-5.346-5.4zm25.502-3.056c-.973-.983-2.55-.983-3.523 0-.974.982-.974 2.575 0 3.558l10.22 10.322c.974.983 2.55.983 3.524 0 .973-.982.973-2.575 0-3.557l-10.222-10.323zm8.88-10.253c-2.952 0-5.345 2.418-5.345 5.4 0 2.98 2.393 5.398 5.346 5.398 2.952 0 5.345-2.417 5.345-5.4 0-2.98-2.393-5.397-5.345-5.397z" fill="#FFF"/>
    </g>
</svg>
