<svg width="154" height="100" viewBox="0 0 154 100" xmlns="http://www.w3.org/2000/svg">
    <g fill="none" fill-rule="evenodd">
        <g transform="translate(.527 7)">
            <ellipse fill="#D9E2E8" cx="76.676" cy="43" rx="11.51" ry="11.541"/>
            <ellipse stroke="#FFBF57" stroke-width="3" cx="10.133" cy="43" rx="9.133" ry="9.157"/>
            <ellipse stroke="#FFBF57" stroke-width="3" cx="10.133" cy="9.664" rx="9.133" ry="9.157"/>
            <ellipse stroke="#FFBF57" stroke-width="3" cx="10.133" cy="76.336" rx="9.133" ry="9.157"/>
            <path d="M59.615 47.018h-5.637c-3.896 0-7.066 4.11-7.066 9.158V68.61c0 3.47-2.816 6.293-6.277 6.293h-8.92l3.02-3.028c.558-.56.558-1.466 0-2.024-.56-.56-1.463-.56-2.02 0l-5.458 5.476c-.132.133-.237.297-.31.467-.145.355-.145.75 0 1.096.073.172.178.336.31.465l5.457 5.476c.28.284.645.424 1.01.424.366 0 .73-.14 1.01-.423.56-.558.56-1.466 0-2.023l-3.02-3.025h8.92c5.036 0 9.133-4.11 9.133-9.16V56.188c0-3.413 1.927-6.29 4.208-6.29h5.637c.79 0 1.43-.64 1.43-1.433 0-.795-.638-1.446-1.427-1.446zM59.615 41.567h-27.9l3.02-3.028c.558-.56.558-1.468 0-2.027-.56-.56-1.463-.56-2.02 0l-5.458 5.473c-.132.132-.237.29-.31.466-.145.35-.145.745 0 1.096.073.175.178.336.31.466l5.457 5.476c.28.28.645.42 1.01.42.366 0 .73-.14 1.01-.42.56-.562.56-1.47 0-2.026l-3.02-3.023h27.9c.79 0 1.43-.64 1.43-1.432 0-.792-.64-1.44-1.43-1.44zM59.615 36.115h-5.637c-2.28 0-4.207-2.882-4.207-6.292V17.39c0-5.05-4.097-9.16-9.134-9.16h-8.92l3.018-3.027c.56-.56.56-1.467 0-2.026-.56-.56-1.462-.56-2.02 0L27.257 8.65c-.132.132-.237.29-.31.466-.145.35-.145.745 0 1.096.073.175.178.334.31.466l5.457 5.472c.28.28.645.42 1.01.42.366 0 .73-.14 1.01-.42.56-.56.56-1.466 0-2.025l-3.02-3.028h8.92c3.46 0 6.276 2.822 6.276 6.293v12.433c0 5.05 3.17 9.16 7.066 9.16h5.637c.79 0 1.43-.643 1.43-1.434 0-.793-.64-1.435-1.428-1.435z" fill="#FFC057"/>
            <ellipse stroke="#64C800" stroke-width="3" cx="142.813" cy="43" rx="9.133" ry="9.157"/>
            <ellipse stroke="#64C800" stroke-width="3" cx="142.813" cy="9.664" rx="9.133" ry="9.157"/>
            <ellipse stroke="#64C800" stroke-width="3" cx="142.813" cy="76.336" rx="9.133" ry="9.157"/>
            <path d="M126.002 75.788c-.074-.173-.18-.334-.306-.466l-5.46-5.472c-.56-.564-1.464-.564-2.02 0-.56.56-.56 1.466 0 2.024l3.02 3.027h-8.92c-3.46 0-6.27-2.82-6.27-6.29V56.17c0-5.048-3.17-9.157-7.067-9.157H93.34c-.79 0-1.43.64-1.43 1.43 0 .792.64 1.43 1.43 1.43h5.637c2.283 0 4.202 2.886 4.202 6.293v12.436c0 5.05 4.097 9.16 9.135 9.16h8.92l-3.022 3.023c-.56.563-.56 1.47 0 2.025.284.283.645.423 1.015.423.37 0 .73-.14 1.01-.423l5.462-5.476c.13-.13.235-.29.31-.466.132-.335.132-.73-.01-1.082zM125.69 41.986l-5.46-5.473c-.56-.56-1.462-.56-2.018 0-.563.56-.563 1.467 0 2.026l3.02 3.027h-27.9c-.79 0-1.43.64-1.43 1.433 0 .792.64 1.433 1.43 1.433h27.9l-3.024 3.026c-.56.56-.56 1.47 0 2.025.283.28.645.42 1.014.42.368 0 .73-.14 1.01-.42l5.46-5.475c.13-.13.234-.292.31-.467.142-.35.142-.745 0-1.096-.074-.17-.18-.33-.31-.46zM125.69 8.65l-5.46-5.47c-.56-.562-1.462-.562-2.018 0-.563.558-.563 1.466 0 2.025l3.02 3.027h-8.918c-5.038 0-9.136 4.11-9.136 9.16v12.432c0 3.412-1.926 6.293-4.205 6.293h-5.637c-.79 0-1.43.642-1.43 1.433 0 .792.64 1.433 1.43 1.433h5.637c3.896 0 7.066-4.108 7.066-9.16V17.392c0-3.47 2.812-6.29 6.274-6.29h8.92l-3.022 3.026c-.563.56-.563 1.467 0 2.026.28.28.644.42 1.01.42.368 0 .732-.14 1.01-.42l5.46-5.472c.13-.132.236-.292.31-.467.143-.35.143-.745 0-1.095-.074-.177-.18-.335-.31-.467z" fill="#64C800"/>
        </g>
    </g>
</svg>
