<svg width="105" height="100" viewBox="0 0 105 100" xmlns="http://www.w3.org/2000/svg">
    <g fill="none" fill-rule="evenodd">
        <g stroke="#3264B4" stroke-width="3">
            <path d="M9.635 54.475c0-4.64 3.75-8.408 8.375-8.408 4.632 0 8.382 3.767 8.382 8.408 0 4.647-3.75 8.415-8.382 8.415-4.624 0-8.375-3.768-8.375-8.415zM52.7 62.89c4.63 0 8.38-3.768 8.38-8.415 0-4.64-3.75-8.408-8.38-8.408-4.625 0-8.375 3.767-8.375 8.408 0 4.647 3.75 8.415 8.374 8.415zm34.81 0c4.632 0 8.382-3.768 8.382-8.415 0-4.64-3.75-8.408-8.382-8.408-4.625 0-8.375 3.767-8.375 8.408 0 4.647 3.75 8.415 8.375 8.415zm-52.4-18.46c4.63 0 8.38-3.767 8.38-8.414 0-4.64-3.75-8.408-8.38-8.408-4.625 0-8.375 3.767-8.375 8.408 0 4.647 3.75 8.414 8.374 8.414zm34.75 0c4.63 0 8.38-3.767 8.38-8.414 0-4.64-3.75-8.408-8.38-8.408-4.625 0-8.375 3.767-8.375 8.408 0 4.647 3.75 8.414 8.374 8.414zM52.7 27.078c4.63 0 8.38-3.767 8.38-8.414 0-4.64-3.75-8.408-8.38-8.408-4.625 0-8.375 3.767-8.375 8.408 0 4.647 3.75 8.414 8.374 8.414z"/>
            <path d="M33.327 81.96v-7.967c0-4.41-3.58-7.993-8-7.993H11.03c-4.42 0-8 3.58-8 7.993v7.968h30.297zM67.65 81.96v-7.967c0-4.41-3.583-7.993-8-7.993h-14.3c-4.42 0-8 3.58-8 7.993v7.968h30.3zM101.97 81.96v-7.967c0-4.41-3.58-7.993-8-7.993H79.674c-4.42 0-8 3.58-8 7.993v7.968h30.298z" stroke-linecap="square"/>
        </g>
    </g>
</svg>
