<svg width="129" height="100" viewBox="0 0 129 100" xmlns="http://www.w3.org/2000/svg">
    <g fill="none" fill-rule="evenodd">
        <path d="M1.5 69.25c0-4.154 3.357-7.527 7.497-7.527 4.146 0 7.503 3.372 7.503 7.526 0 4.16-3.357 7.532-7.503 7.532-4.14 0-7.497-3.373-7.497-7.533zM111.675 68.585c0-4.153 3.357-7.526 7.497-7.526 4.146 0 7.503 3.37 7.503 7.525 0 4.16-3.357 7.533-7.503 7.533-4.14 0-7.497-3.373-7.497-7.533z" stroke="#64C800" stroke-width="3" stroke-linecap="square"/>
        <path d="M111.675 24.585c0-4.153 3.357-7.526 7.497-7.526 4.146 0 7.503 3.37 7.503 7.525 0 4.16-3.357 7.533-7.503 7.533-4.14 0-7.497-3.373-7.497-7.533zM84.396 24.527c0-4.154 3.357-7.527 7.497-7.527 4.147 0 7.503 3.372 7.503 7.527 0 4.16-3.356 7.532-7.503 7.532-4.14 0-7.497-3.373-7.497-7.533zM56.175 24.527c0-4.154 3.357-7.527 7.497-7.527 4.146 0 7.503 3.372 7.503 7.527 0 4.16-3.357 7.532-7.503 7.532-4.14 0-7.497-3.373-7.497-7.533z" stroke="#FFC057" stroke-width="3" stroke-linecap="square"/>
        <path d="M55.4 23.533h-9.918c-5.04 0-9.136 4.108-9.136 9.16l.045 28.816c0 3.41-3.95 6.24-6.23 6.24h-5.637c-.79 0-1.43.64-1.43 1.433 0 .79.64 1.433 1.43 1.433h5.637c3.896 0 9.09-4.057 9.09-9.107l-.044-28.818c0-3.47 2.813-6.293 6.276-6.293H55.4v-2.867z" fill="#FFC057"/>
        <path fill="#64C800" d="M17.257 67.723h94v3h-94z"/>
        <path fill="#FFC057" d="M100.396 23.53h11.885v3h-11.884zM71.396 23.53H83.28v3H71.397zM113.872 46.67c-.66-.89-.31-1.61.802-1.61h8.887c1.105 0 1.462.723.803 1.61l-4.05 5.45c-.66.89-1.734.887-2.392 0l-4.048-5.45z"/>
        <path stroke="#FFC057" stroke-width="4" stroke-linecap="square" d="M117.675 33.06h3v13h-3z"/>
    </g>
</svg>
