<svg width="100" height="100" viewBox="0 0 98 100" xmlns="http://www.w3.org/2000/svg">
    <g fill="none" fill-rule="evenodd">
        <g stroke-width="3">
            <path d="M53.106 27.468c0 2.266-1.844 4.102-4.106 4.102-2.27 0-4.106-1.836-4.106-4.102V7.308c0-2.272 1.837-4.103 4.106-4.103 2.262 0 4.106 1.83 4.106 4.102v20.16z" stroke="#8DD700"/>
            <path d="M53.106 92.69c0 2.266-1.844 4.105-4.106 4.105-2.27 0-4.106-1.84-4.106-4.106V72.533c0-2.27 1.837-4.106 4.106-4.106 2.262 0 4.106 1.835 4.106 4.106V92.69z" stroke="#008CDC"/>
            <path d="M26.463 45.898c2.27 0 4.107 1.827 4.107 4.098 0 2.27-1.836 4.11-4.107 4.11H6.305c-2.267 0-4.102-1.84-4.102-4.11 0-2.27 1.835-4.098 4.102-4.098h20.159z" stroke="#F3D87F"/>
            <path d="M91.69 45.898c2.266 0 4.105 1.827 4.105 4.098 0 2.27-1.84 4.11-4.106 4.11H71.54c-2.272 0-4.116-1.84-4.116-4.11 0-2.27 1.844-4.098 4.115-4.098h20.15z" stroke="#33A032"/>
            <path d="M35.97 31.162c1.605 1.598 1.603 4.202 0 5.804-1.606 1.607-4.206 1.607-5.81.004L15.907 22.717c-1.603-1.607-1.603-4.203 0-5.814 1.602-1.602 4.198-1.602 5.804 0l14.258 14.26z" stroke="#FFBF57"/>
            <path d="M82.088 77.284c1.607 1.602 1.607 4.206.004 5.813-1.606 1.598-4.202 1.598-5.808-.013l-14.252-14.24c-1.602-1.608-1.602-4.216 0-5.814 1.602-1.607 4.206-1.607 5.81 0l14.246 14.254z" stroke="#00B4F0"/>
            <path d="M30.16 63.032c1.604-1.607 4.204-1.607 5.81 0 1.603 1.598 1.605 4.206 0 5.813L21.712 83.1c-1.6 1.597-4.202 1.597-5.804-.014-1.603-1.602-1.603-4.198 0-5.8l14.25-14.254z" stroke="#3B4572"/>
            <path d="M76.284 16.903c1.606-1.602 4.202-1.602 5.804 0 1.607 1.603 1.607 4.21.004 5.814l-14.254 14.25c-1.602 1.603-4.206 1.603-5.808-.003-1.603-1.602-1.603-4.207 0-5.805l14.254-14.257z" stroke="#64C800"/>
        </g>
    </g>
</svg>
