<?xml version="1.0" encoding="utf-8"?>
<!-- Generator: Adobe Illustrator 16.0.0, SVG Export Plug-In . SVG Version: 6.00 Build 0)  -->
<!DOCTYPE svg PUBLIC "-//W3C//DTD SVG 1.1//EN" "http://www.w3.org/Graphics/SVG/1.1/DTD/svg11.dtd">
<svg version="1.1" id="Слой_1" xmlns="http://www.w3.org/2000/svg" xmlns:xlink="http://www.w3.org/1999/xlink" x="0px" y="0px"
	 width="915.942px" height="798px" viewBox="0 0 915.942 798" enable-background="new 0 0 915.942 798" xml:space="preserve">
<path fill-rule="evenodd" clip-rule="evenodd" fill="#FFCC66" d="M837.65,272.88C784.87,114.32,635.28,0,459,0
	C325.46,0,207.24,65.6,134.82,166.34C87.73,231.83,60,312.18,60,399c0,220.36,178.64,399,399,399c220.36,0,399-178.64,399-399
	C858,354.92,850.85,312.52,837.65,272.88z"/>
<path fill-rule="evenodd" clip-rule="evenodd" fill="#CCA352" d="M858,399c0,220.36-178.64,399-399,399C238.64,798,60,619.36,60,399
	c0-86.82,27.73-167.17,74.82-232.66l103.8-52.72L354.25,229H550l26.88-117.12l116.68,116.68l144.091,44.32
	C850.85,312.52,858,354.92,858,399z"/>
<rect x="340" y="112" fill-rule="evenodd" clip-rule="evenodd" fill="#F2F4FF" width="238" height="140"/>
<rect y="113" fill-rule="evenodd" clip-rule="evenodd" fill="#F2F4FF" width="238" height="225"/>
<path opacity="0.2" fill-rule="evenodd" clip-rule="evenodd" d="M420.576,218h77.848c0.871,0,1.576,0.724,1.576,1.616v17.769
	c0,0.892-0.705,1.615-1.576,1.615h-77.848c-0.871,0-1.576-0.723-1.576-1.615v-17.769C419,218.724,419.705,218,420.576,218z"/>
<path fill-rule="evenodd" clip-rule="evenodd" fill="#7D8FFC" d="M419.576,217h77.848c0.871,0,1.576,0.724,1.576,1.616v17.769
	c0,0.892-0.705,1.615-1.576,1.615h-77.848c-0.871,0-1.576-0.723-1.576-1.615v-17.769C418,217.724,418.705,217,419.576,217z"/>
<g>
	<path fill="#FFFFFF" d="M447.577,230.338v-5.688h1.66c0.591,0,1.051,0.125,1.381,0.373c0.33,0.249,0.494,0.624,0.494,1.124
		c0,0.292-0.083,0.546-0.248,0.762s-0.39,0.366-0.674,0.449c0.346,0.063,0.627,0.225,0.844,0.488
		c0.216,0.263,0.324,0.566,0.324,0.91c0,0.507-0.165,0.898-0.494,1.171c-0.33,0.273-0.77,0.41-1.322,0.41H447.577z M448.042,227.202
		h1.309c0.412,0,0.73-0.09,0.955-0.271s0.338-0.447,0.338-0.799c0-0.359-0.12-0.629-0.359-0.811s-0.588-0.271-1.047-0.271h-1.195
		V227.202z M448.042,227.6v2.34h1.5c0.419,0,0.749-0.103,0.988-0.31c0.24-0.206,0.359-0.495,0.359-0.866
		c0-0.34-0.109-0.619-0.326-0.837c-0.217-0.218-0.533-0.327-0.947-0.327H448.042z"/>
	<path fill="#FFFFFF" d="M455.175,229.647c-0.135,0.248-0.318,0.438-0.547,0.572s-0.5,0.201-0.813,0.201
		c-0.445,0-0.794-0.151-1.047-0.453s-0.379-0.771-0.379-1.406v-2.449h0.469v2.462c0,0.517,0.088,0.887,0.264,1.112
		c0.176,0.224,0.425,0.336,0.748,0.336c0.354,0,0.637-0.08,0.848-0.239s0.358-0.378,0.441-0.658v-3.014h0.469v4.227h-0.414
		L455.175,229.647z"/>
	<path fill="#FFFFFF" d="M457.593,225.03v1.082h0.93v0.383h-0.93v2.754c0,0.276,0.05,0.472,0.15,0.588s0.234,0.174,0.4,0.174
		c0.076,0,0.149-0.003,0.221-0.01s0.154-0.018,0.248-0.033l0.07,0.348c-0.078,0.034-0.173,0.06-0.285,0.078
		s-0.224,0.027-0.336,0.027c-0.297,0-0.528-0.094-0.693-0.281s-0.248-0.484-0.248-0.891v-2.754h-0.73v-0.383h0.73v-1.082H457.593z"
		/>
	<path fill="#FFFFFF" d="M460.249,225.03v1.082h0.93v0.383h-0.93v2.754c0,0.276,0.05,0.472,0.15,0.588s0.234,0.174,0.4,0.174
		c0.076,0,0.149-0.003,0.221-0.01s0.154-0.018,0.248-0.033l0.07,0.348c-0.078,0.034-0.173,0.06-0.285,0.078
		s-0.224,0.027-0.336,0.027c-0.297,0-0.528-0.094-0.693-0.281s-0.248-0.484-0.248-0.891v-2.754h-0.73v-0.383h0.73v-1.082H460.249z"
		/>
	<path fill="#FFFFFF" d="M461.831,228.163c0-0.623,0.17-1.133,0.512-1.531s0.793-0.598,1.355-0.598c0.565,0,1.019,0.199,1.359,0.598
		s0.512,0.909,0.512,1.531v0.129c0,0.625-0.17,1.136-0.51,1.533s-0.791,0.596-1.354,0.596c-0.568,0-1.022-0.199-1.363-0.596
		s-0.512-0.908-0.512-1.533V228.163z M462.3,228.29c0,0.489,0.124,0.9,0.371,1.233s0.592,0.5,1.035,0.5
		c0.435,0,0.776-0.167,1.025-0.5s0.373-0.744,0.373-1.233v-0.129c0-0.481-0.125-0.89-0.375-1.225s-0.594-0.503-1.031-0.503
		s-0.78,0.168-1.027,0.503s-0.371,0.744-0.371,1.225V228.29z"/>
	<path fill="#FFFFFF" d="M466.96,226.112l0.043,0.738c0.136-0.26,0.318-0.461,0.549-0.604s0.503-0.213,0.818-0.213
		c0.458,0,0.808,0.14,1.047,0.42s0.359,0.717,0.359,1.311v2.574h-0.469v-2.575c0-0.485-0.091-0.829-0.271-1.03
		c-0.181-0.201-0.438-0.301-0.771-0.301c-0.328,0-0.596,0.087-0.803,0.26s-0.356,0.404-0.447,0.691v2.955h-0.469v-4.227H466.96z"/>
</g>
<rect x="340" y="443" fill-rule="evenodd" clip-rule="evenodd" fill="#F2F4FF" width="238" height="271"/>
<path opacity="0.2" fill-rule="evenodd" clip-rule="evenodd" d="M80.576,303h77.848c0.872,0,1.577,0.724,1.577,1.616v17.769
	c0,0.892-0.705,1.615-1.577,1.615H80.576c-0.871,0-1.576-0.723-1.576-1.615v-17.769C79,303.724,79.705,303,80.576,303z"/>
<path opacity="0.2" fill-rule="evenodd" clip-rule="evenodd" d="M419.576,681h77.848c0.871,0,1.576,0.724,1.576,1.615v17.77
	c0,0.893-0.705,1.615-1.576,1.615h-77.848c-0.871,0-1.576-0.723-1.576-1.615v-17.77C418,681.724,418.705,681,419.576,681z"/>
<path fill-rule="evenodd" clip-rule="evenodd" fill="#7D8FFC" d="M418.576,680h77.848c0.871,0,1.576,0.724,1.576,1.615v17.77
	c0,0.893-0.705,1.615-1.576,1.615h-77.848c-0.871,0-1.576-0.723-1.576-1.615v-17.77C417,680.724,417.705,680,418.576,680z"/>
<g>
	<path fill="#FFFFFF" d="M446.577,693.338v-5.688h1.66c0.591,0,1.052,0.125,1.381,0.373c0.329,0.25,0.494,0.624,0.494,1.125
		c0,0.291-0.083,0.545-0.248,0.762s-0.39,0.365-0.674,0.449c0.347,0.063,0.628,0.225,0.844,0.488
		c0.216,0.263,0.324,0.566,0.324,0.91c0,0.507-0.165,0.897-0.494,1.17c-0.329,0.273-0.771,0.41-1.322,0.41H446.577z
		 M447.042,690.201h1.309c0.411,0,0.729-0.09,0.955-0.271c0.226-0.181,0.338-0.447,0.338-0.799c0-0.359-0.12-0.629-0.359-0.811
		c-0.239-0.181-0.589-0.271-1.047-0.271h-1.195V690.201z M447.042,690.6v2.34h1.5c0.419,0,0.749-0.103,0.988-0.309
		c0.239-0.207,0.359-0.496,0.359-0.867c0-0.34-0.108-0.619-0.326-0.836c-0.218-0.219-0.533-0.328-0.947-0.328H447.042z"/>
	<path fill="#FFFFFF" d="M454.175,692.646c-0.136,0.248-0.317,0.438-0.547,0.572c-0.229,0.135-0.5,0.201-0.813,0.201
		c-0.445,0-0.794-0.15-1.047-0.453c-0.253-0.302-0.379-0.771-0.379-1.406v-2.449h0.469v2.463c0,0.516,0.088,0.887,0.264,1.111
		s0.425,0.336,0.748,0.336c0.354,0,0.637-0.079,0.848-0.238s0.358-0.379,0.441-0.658v-3.014h0.469v4.227h-0.414L454.175,692.646z"/>
	<path fill="#FFFFFF" d="M456.593,688.029v1.082h0.93v0.383h-0.93v2.754c0,0.276,0.05,0.473,0.15,0.588
		c0.101,0.116,0.233,0.174,0.4,0.174c0.075,0,0.149-0.003,0.221-0.01c0.071-0.006,0.154-0.018,0.248-0.033l0.07,0.348
		c-0.078,0.034-0.173,0.061-0.285,0.078c-0.112,0.019-0.224,0.027-0.336,0.027c-0.297,0-0.528-0.094-0.693-0.281
		s-0.248-0.484-0.248-0.891v-2.754h-0.73v-0.383h0.73v-1.082H456.593z"/>
	<path fill="#FFFFFF" d="M459.249,688.029v1.082h0.93v0.383h-0.93v2.754c0,0.276,0.05,0.473,0.15,0.588
		c0.101,0.116,0.233,0.174,0.4,0.174c0.075,0,0.149-0.003,0.221-0.01c0.071-0.006,0.154-0.018,0.248-0.033l0.07,0.348
		c-0.078,0.034-0.173,0.061-0.285,0.078c-0.112,0.019-0.224,0.027-0.336,0.027c-0.297,0-0.528-0.094-0.693-0.281
		s-0.248-0.484-0.248-0.891v-2.754h-0.73v-0.383h0.73v-1.082H459.249z"/>
	<path fill="#FFFFFF" d="M460.831,691.162c0-0.622,0.171-1.133,0.512-1.531s0.793-0.598,1.355-0.598
		c0.565,0,1.019,0.199,1.359,0.598s0.512,0.909,0.512,1.531v0.129c0,0.625-0.17,1.137-0.51,1.533
		c-0.34,0.397-0.791,0.596-1.354,0.596c-0.567,0-1.022-0.198-1.363-0.596c-0.341-0.396-0.512-0.908-0.512-1.533V691.162z
		 M461.3,691.289c0,0.49,0.124,0.9,0.371,1.233s0.593,0.499,1.035,0.499c0.435,0,0.776-0.166,1.025-0.499s0.373-0.743,0.373-1.233
		v-0.129c0-0.48-0.125-0.889-0.375-1.225s-0.594-0.504-1.031-0.504s-0.78,0.168-1.027,0.504s-0.371,0.744-0.371,1.225V691.289z"/>
	<path fill="#FFFFFF" d="M465.96,689.111l0.043,0.738c0.136-0.26,0.318-0.461,0.549-0.604c0.23-0.142,0.503-0.213,0.818-0.213
		c0.458,0,0.808,0.141,1.047,0.42c0.239,0.28,0.359,0.717,0.359,1.311v2.574h-0.469v-2.574c0-0.486-0.091-0.829-0.271-1.03
		c-0.181-0.2-0.438-0.302-0.771-0.302c-0.328,0-0.596,0.088-0.803,0.261s-0.356,0.403-0.447,0.69v2.955h-0.469v-4.227H465.96z"/>
</g>
<path fill-rule="evenodd" clip-rule="evenodd" fill="#7D8FFC" d="M79.576,302h77.848c0.872,0,1.577,0.724,1.577,1.616v17.769
	c0,0.892-0.705,1.615-1.577,1.615H79.576c-0.871,0-1.576-0.723-1.576-1.615v-17.769C78,302.724,78.705,302,79.576,302z"/>
<g>
	<path fill="#FFFFFF" d="M107.577,315.338v-5.688h1.66c0.591,0,1.051,0.125,1.381,0.373c0.33,0.249,0.494,0.624,0.494,1.124
		c0,0.292-0.083,0.546-0.248,0.762s-0.39,0.366-0.674,0.449c0.346,0.063,0.627,0.225,0.844,0.488
		c0.216,0.263,0.324,0.566,0.324,0.91c0,0.507-0.165,0.898-0.494,1.171c-0.33,0.273-0.77,0.41-1.322,0.41H107.577z M108.042,312.202
		h1.309c0.412,0,0.73-0.09,0.955-0.271s0.338-0.447,0.338-0.799c0-0.359-0.12-0.629-0.359-0.811s-0.588-0.271-1.047-0.271h-1.195
		V312.202z M108.042,312.6v2.34h1.5c0.419,0,0.749-0.103,0.988-0.31c0.24-0.206,0.359-0.495,0.359-0.866
		c0-0.34-0.109-0.619-0.326-0.837c-0.217-0.218-0.533-0.327-0.947-0.327H108.042z"/>
	<path fill="#FFFFFF" d="M115.175,314.647c-0.135,0.248-0.318,0.438-0.547,0.572s-0.5,0.201-0.813,0.201
		c-0.445,0-0.794-0.151-1.047-0.453s-0.379-0.771-0.379-1.406v-2.449h0.469v2.462c0,0.517,0.088,0.887,0.264,1.112
		c0.176,0.224,0.425,0.336,0.748,0.336c0.354,0,0.637-0.08,0.848-0.239s0.358-0.378,0.441-0.658v-3.014h0.469v4.227h-0.414
		L115.175,314.647z"/>
	<path fill="#FFFFFF" d="M117.593,310.03v1.082h0.93v0.383h-0.93v2.754c0,0.276,0.05,0.472,0.15,0.588s0.234,0.174,0.4,0.174
		c0.076,0,0.149-0.003,0.221-0.01s0.154-0.018,0.248-0.033l0.07,0.348c-0.078,0.034-0.173,0.06-0.285,0.078
		s-0.224,0.027-0.336,0.027c-0.297,0-0.528-0.094-0.693-0.281s-0.248-0.484-0.248-0.891v-2.754h-0.73v-0.383h0.73v-1.082H117.593z"
		/>
	<path fill="#FFFFFF" d="M120.249,310.03v1.082h0.93v0.383h-0.93v2.754c0,0.276,0.05,0.472,0.15,0.588s0.234,0.174,0.4,0.174
		c0.076,0,0.149-0.003,0.221-0.01s0.154-0.018,0.248-0.033l0.07,0.348c-0.078,0.034-0.173,0.06-0.285,0.078
		s-0.224,0.027-0.336,0.027c-0.297,0-0.528-0.094-0.693-0.281s-0.248-0.484-0.248-0.891v-2.754h-0.73v-0.383h0.73v-1.082H120.249z"
		/>
	<path fill="#FFFFFF" d="M121.831,313.163c0-0.623,0.17-1.133,0.512-1.531s0.793-0.598,1.355-0.598c0.565,0,1.018,0.199,1.359,0.598
		s0.512,0.909,0.512,1.531v0.129c0,0.625-0.17,1.136-0.51,1.533s-0.791,0.596-1.354,0.596c-0.568,0-1.022-0.199-1.363-0.596
		s-0.512-0.908-0.512-1.533V313.163z M122.3,313.29c0,0.489,0.124,0.9,0.371,1.233s0.592,0.5,1.035,0.5
		c0.435,0,0.777-0.167,1.025-0.5s0.373-0.744,0.373-1.233v-0.129c0-0.481-0.125-0.89-0.375-1.225s-0.594-0.503-1.031-0.503
		s-0.78,0.168-1.027,0.503s-0.371,0.744-0.371,1.225V313.29z"/>
	<path fill="#FFFFFF" d="M126.96,311.112l0.043,0.738c0.135-0.26,0.318-0.461,0.549-0.604s0.503-0.213,0.818-0.213
		c0.458,0,0.807,0.14,1.047,0.42s0.359,0.717,0.359,1.311v2.574h-0.469v-2.575c0-0.485-0.09-0.829-0.271-1.03
		c-0.181-0.201-0.438-0.301-0.771-0.301c-0.328,0-0.596,0.087-0.803,0.26s-0.356,0.404-0.447,0.691v2.955h-0.469v-4.227H126.96z"/>
</g>
<rect x="14" y="159" fill-rule="evenodd" clip-rule="evenodd" fill="#C7CAD8" width="210" height="67"/>
<rect x="354" y="490" fill-rule="evenodd" clip-rule="evenodd" fill="#C7CAD8" width="210" height="67"/>
<rect x="124" y="249" fill-rule="evenodd" clip-rule="evenodd" fill="#C7CAD8" width="99" height="41"/>
<rect x="678" y="112" fill-rule="evenodd" clip-rule="evenodd" fill="#F2F4FF" width="238" height="202"/>
<rect x="678" y="443" fill-rule="evenodd" clip-rule="evenodd" fill="#F2F4FF" width="238" height="116"/>
<path opacity="0.2" fill-rule="evenodd" clip-rule="evenodd" d="M759.576,276h77.848c0.871,0,1.576,0.724,1.576,1.616v17.769
	c0,0.892-0.705,1.615-1.576,1.615h-77.848c-0.871,0-1.576-0.723-1.576-1.615v-17.769C758,276.724,758.705,276,759.576,276z"/>
<path fill-rule="evenodd" clip-rule="evenodd" fill="#7D8FFC" d="M758.576,275h77.848c0.871,0,1.576,0.724,1.576,1.616v17.769
	c0,0.892-0.705,1.615-1.576,1.615h-77.848c-0.871,0-1.576-0.723-1.576-1.615v-17.769C757,275.724,757.705,275,758.576,275z"/>
<path opacity="0.2" fill-rule="evenodd" clip-rule="evenodd" d="M804.576,496h77.848c0.871,0,1.576,0.724,1.576,1.615v17.77
	c0,0.893-0.705,1.615-1.576,1.615h-77.848c-0.871,0-1.576-0.723-1.576-1.615v-17.77C803,496.724,803.705,496,804.576,496z"/>
<path fill-rule="evenodd" clip-rule="evenodd" fill="#7D8FFC" d="M803.576,495h77.848c0.871,0,1.576,0.724,1.576,1.615v17.77
	c0,0.893-0.705,1.615-1.576,1.615h-77.848c-0.871,0-1.576-0.723-1.576-1.615v-17.77C802,495.724,802.705,495,803.576,495z"/>
<g>
	<path fill="#FFFFFF" d="M835.801,508.338v-5.688h1.66c0.591,0,1.052,0.125,1.381,0.373c0.329,0.25,0.494,0.624,0.494,1.125
		c0,0.291-0.083,0.545-0.248,0.762s-0.39,0.365-0.674,0.449c0.347,0.063,0.628,0.225,0.844,0.488
		c0.216,0.263,0.324,0.566,0.324,0.91c0,0.507-0.165,0.897-0.494,1.17c-0.329,0.273-0.771,0.41-1.322,0.41H835.801z
		 M836.266,505.201h1.309c0.411,0,0.729-0.09,0.955-0.271c0.226-0.181,0.338-0.447,0.338-0.799c0-0.359-0.12-0.629-0.359-0.811
		c-0.239-0.181-0.589-0.271-1.047-0.271h-1.195V505.201z M836.266,505.6v2.34h1.5c0.419,0,0.749-0.103,0.988-0.309
		c0.239-0.207,0.359-0.496,0.359-0.867c0-0.34-0.108-0.619-0.326-0.836c-0.218-0.219-0.533-0.328-0.947-0.328H836.266z"/>
	<path fill="#FFFFFF" d="M843.398,507.646c-0.136,0.248-0.317,0.438-0.547,0.572c-0.229,0.135-0.5,0.201-0.813,0.201
		c-0.445,0-0.794-0.15-1.047-0.453c-0.253-0.302-0.379-0.771-0.379-1.406v-2.449h0.469v2.463c0,0.516,0.088,0.887,0.264,1.111
		s0.425,0.336,0.748,0.336c0.354,0,0.637-0.079,0.848-0.238s0.358-0.379,0.441-0.658v-3.014h0.469v4.227h-0.414L843.398,507.646z"/>
	<path fill="#FFFFFF" d="M845.816,503.029v1.082h0.93v0.383h-0.93v2.754c0,0.276,0.05,0.473,0.15,0.588
		c0.101,0.116,0.233,0.174,0.4,0.174c0.075,0,0.149-0.003,0.221-0.01c0.071-0.006,0.154-0.018,0.248-0.033l0.07,0.348
		c-0.078,0.034-0.173,0.061-0.285,0.078c-0.112,0.019-0.224,0.027-0.336,0.027c-0.297,0-0.528-0.094-0.693-0.281
		s-0.248-0.484-0.248-0.891v-2.754h-0.73v-0.383h0.73v-1.082H845.816z"/>
	<path fill="#FFFFFF" d="M848.473,503.029v1.082h0.93v0.383h-0.93v2.754c0,0.276,0.05,0.473,0.15,0.588
		c0.101,0.116,0.233,0.174,0.4,0.174c0.075,0,0.149-0.003,0.221-0.01c0.071-0.006,0.154-0.018,0.248-0.033l0.07,0.348
		c-0.078,0.034-0.173,0.061-0.285,0.078c-0.112,0.019-0.224,0.027-0.336,0.027c-0.297,0-0.528-0.094-0.693-0.281
		S848,507.654,848,507.248v-2.754h-0.73v-0.383H848v-1.082H848.473z"/>
	<path fill="#FFFFFF" d="M850.055,506.162c0-0.622,0.171-1.133,0.512-1.531s0.793-0.598,1.355-0.598
		c0.565,0,1.019,0.199,1.359,0.598s0.512,0.909,0.512,1.531v0.129c0,0.625-0.17,1.137-0.51,1.533
		c-0.34,0.397-0.791,0.596-1.354,0.596c-0.567,0-1.022-0.198-1.363-0.596c-0.341-0.396-0.512-0.908-0.512-1.533V506.162z
		 M850.523,506.289c0,0.49,0.124,0.9,0.371,1.233s0.593,0.499,1.035,0.499c0.435,0,0.776-0.166,1.025-0.499s0.373-0.743,0.373-1.233
		v-0.129c0-0.48-0.125-0.889-0.375-1.225s-0.594-0.504-1.031-0.504s-0.78,0.168-1.027,0.504s-0.371,0.744-0.371,1.225V506.289z"/>
	<path fill="#FFFFFF" d="M855.184,504.111l0.043,0.738c0.136-0.26,0.318-0.461,0.549-0.604c0.23-0.142,0.503-0.213,0.818-0.213
		c0.458,0,0.808,0.141,1.047,0.42c0.239,0.28,0.359,0.717,0.359,1.311v2.574h-0.469v-2.574c0-0.486-0.091-0.829-0.271-1.03
		c-0.181-0.2-0.438-0.302-0.771-0.302c-0.328,0-0.596,0.088-0.803,0.261s-0.356,0.403-0.447,0.69v2.955h-0.469v-4.227H855.184z"/>
</g>
<g>
	<path fill="#FFFFFF" d="M786.577,288.338v-5.688h1.66c0.591,0,1.052,0.125,1.381,0.373c0.329,0.249,0.494,0.624,0.494,1.124
		c0,0.292-0.083,0.546-0.248,0.762s-0.39,0.366-0.674,0.449c0.347,0.063,0.628,0.225,0.844,0.488
		c0.216,0.263,0.324,0.566,0.324,0.91c0,0.507-0.165,0.898-0.494,1.171c-0.329,0.273-0.771,0.41-1.322,0.41H786.577z
		 M787.042,285.202h1.309c0.411,0,0.729-0.09,0.955-0.271s0.338-0.447,0.338-0.799c0-0.359-0.12-0.629-0.359-0.811
		s-0.589-0.271-1.047-0.271h-1.195V285.202z M787.042,285.6v2.34h1.5c0.419,0,0.749-0.103,0.988-0.31
		c0.239-0.206,0.359-0.495,0.359-0.866c0-0.34-0.108-0.619-0.326-0.837c-0.218-0.218-0.533-0.327-0.947-0.327H787.042z"/>
	<path fill="#FFFFFF" d="M794.175,287.647c-0.136,0.248-0.317,0.438-0.547,0.572s-0.5,0.201-0.813,0.201
		c-0.445,0-0.794-0.151-1.047-0.453s-0.379-0.771-0.379-1.406v-2.449h0.469v2.462c0,0.517,0.088,0.887,0.264,1.112
		c0.176,0.224,0.425,0.336,0.748,0.336c0.354,0,0.637-0.08,0.848-0.239s0.358-0.378,0.441-0.658v-3.014h0.469v4.227h-0.414
		L794.175,287.647z"/>
	<path fill="#FFFFFF" d="M796.593,283.03v1.082h0.93v0.383h-0.93v2.754c0,0.276,0.05,0.472,0.15,0.588s0.233,0.174,0.4,0.174
		c0.075,0,0.149-0.003,0.221-0.01s0.154-0.018,0.248-0.033l0.07,0.348c-0.078,0.034-0.173,0.06-0.285,0.078
		s-0.224,0.027-0.336,0.027c-0.297,0-0.528-0.094-0.693-0.281s-0.248-0.484-0.248-0.891v-2.754h-0.73v-0.383h0.73v-1.082H796.593z"
		/>
	<path fill="#FFFFFF" d="M799.249,283.03v1.082h0.93v0.383h-0.93v2.754c0,0.276,0.05,0.472,0.15,0.588s0.233,0.174,0.4,0.174
		c0.075,0,0.149-0.003,0.221-0.01s0.154-0.018,0.248-0.033l0.07,0.348c-0.078,0.034-0.173,0.06-0.285,0.078
		s-0.224,0.027-0.336,0.027c-0.297,0-0.528-0.094-0.693-0.281s-0.248-0.484-0.248-0.891v-2.754h-0.73v-0.383h0.73v-1.082H799.249z"
		/>
	<path fill="#FFFFFF" d="M800.831,286.163c0-0.623,0.171-1.133,0.512-1.531s0.793-0.598,1.355-0.598
		c0.565,0,1.019,0.199,1.359,0.598s0.512,0.909,0.512,1.531v0.129c0,0.625-0.17,1.136-0.51,1.533s-0.791,0.596-1.354,0.596
		c-0.567,0-1.022-0.199-1.363-0.596s-0.512-0.908-0.512-1.533V286.163z M801.3,286.29c0,0.489,0.124,0.9,0.371,1.233
		s0.593,0.5,1.035,0.5c0.435,0,0.776-0.167,1.025-0.5s0.373-0.744,0.373-1.233v-0.129c0-0.481-0.125-0.89-0.375-1.225
		s-0.594-0.503-1.031-0.503s-0.78,0.168-1.027,0.503s-0.371,0.744-0.371,1.225V286.29z"/>
	<path fill="#FFFFFF" d="M805.96,284.112l0.043,0.738c0.136-0.26,0.318-0.461,0.549-0.604s0.503-0.213,0.818-0.213
		c0.458,0,0.808,0.14,1.047,0.42s0.359,0.717,0.359,1.311v2.574h-0.469v-2.575c0-0.485-0.091-0.829-0.271-1.03
		c-0.181-0.201-0.438-0.301-0.771-0.301c-0.328,0-0.596,0.087-0.803,0.26s-0.356,0.404-0.447,0.691v2.955h-0.469v-4.227H805.96z"/>
</g>
<rect y="443" fill-rule="evenodd" clip-rule="evenodd" fill="#F2F4FF" width="238" height="216"/>
<path fill="#8C90A5" d="M792,515h-84v-20h84V515z M709,514h82v-18h-82V514z"/>
<rect x="726" y="163" fill-rule="evenodd" clip-rule="evenodd" fill="#C7CAD8" width="31" height="31"/>
<rect x="723" y="198" fill-rule="evenodd" clip-rule="evenodd" fill="#8C90A5" width="37" height="3"/>
<rect x="783" y="163" fill-rule="evenodd" clip-rule="evenodd" fill="#C7CAD8" width="31" height="31"/>
<rect x="780" y="198" fill-rule="evenodd" clip-rule="evenodd" fill="#8C90A5" width="37" height="3"/>
<rect x="840" y="163" fill-rule="evenodd" clip-rule="evenodd" fill="#C7CAD8" width="31" height="31"/>
<rect x="837" y="198" fill-rule="evenodd" clip-rule="evenodd" fill="#8C90A5" width="37" height="3"/>
<circle fill-rule="evenodd" clip-rule="evenodd" fill="#C7CAD8" cx="376.5" cy="598.5" r="23.5"/>
<rect x="391" y="163" fill-rule="evenodd" clip-rule="evenodd" fill="#C7CAD8" width="63" height="32"/>
<rect x="464" y="163" fill-rule="evenodd" clip-rule="evenodd" fill="#C7CAD8" width="63" height="32"/>
<circle fill-rule="evenodd" clip-rule="evenodd" fill="#C7CAD8" cx="459.5" cy="598.5" r="23.5"/>
<circle fill-rule="evenodd" clip-rule="evenodd" fill="#C7CAD8" cx="541.5" cy="598.5" r="23.5"/>
<rect x="14" y="551" fill-rule="evenodd" clip-rule="evenodd" fill="#C7CAD8" width="31" height="31"/>
<rect x="14" y="501" fill-rule="evenodd" clip-rule="evenodd" fill="#C7CAD8" width="31" height="31"/>
<path opacity="0.3" fill-rule="evenodd" clip-rule="evenodd" fill="#666633" d="M340.996,192.5L325,188.998V192H221.45
	c-0.245-1.694-1.688-3-3.45-3c-1.933,0-3.5,1.567-3.5,3.5c0,1.933,1.567,3.5,3.5,3.5c1.762,0,3.205-1.306,3.45-3H325v3.001
	L340.996,192.5z"/>
<path opacity="0.09" fill-rule="evenodd" clip-rule="evenodd" fill="#666633" d="M341.996,193.5L326,189.998V193H222.45
	c-0.245-1.694-1.688-3-3.45-3c-1.933,0-3.5,1.567-3.5,3.5c0,1.933,1.567,3.5,3.5,3.5c1.762,0,3.205-1.306,3.45-3H326v3.001
	L341.996,193.5z"/>
<path fill-rule="evenodd" clip-rule="evenodd" fill="#FFFFFF" d="M339.996,191.5L324,187.998V191H220.45
	c-0.245-1.694-1.688-3-3.45-3c-1.933,0-3.5,1.567-3.5,3.5c0,1.933,1.567,3.5,3.5,3.5c1.762,0,3.205-1.306,3.45-3H324v3.001
	L339.996,191.5z"/>
<path opacity="0.3" fill-rule="evenodd" clip-rule="evenodd" fill="#666633" d="M679.996,524.5L664,520.998V524H560.701
	c-0.244-1.693-1.688-3-3.449-3c-1.934,0-3.5,1.567-3.5,3.5c0,1.934,1.566,3.5,3.5,3.5c1.762,0,3.205-1.306,3.449-3H664v3.002
	L679.996,524.5z"/>
<path opacity="0.09" fill-rule="evenodd" clip-rule="evenodd" fill="#666633" d="M680.996,525.5L665,521.998V525H561.701
	c-0.244-1.693-1.688-3-3.449-3c-1.934,0-3.5,1.567-3.5,3.5c0,1.934,1.566,3.5,3.5,3.5c1.762,0,3.205-1.306,3.449-3H665v3.002
	L680.996,525.5z"/>
<path fill-rule="evenodd" clip-rule="evenodd" fill="#FFFFFF" d="M678.996,523.5L663,519.998V523H559.701
	c-0.244-1.693-1.688-3-3.449-3c-1.934,0-3.5,1.567-3.5,3.5c0,1.934,1.566,3.5,3.5,3.5c1.762,0,3.205-1.306,3.449-3H663v3.002
	L678.996,523.5z"/>
<path opacity="0.09" fill-rule="evenodd" clip-rule="evenodd" fill="#666633" d="M800.115,443.996L803.617,428H800V300.327
	c2-0.244,3.309-1.688,3.309-3.449c0-1.934-1.414-3.5-3.348-3.5s-3.729,1.566-3.729,3.5c0,1.762,1.769,3.205,2.769,3.449V428h-2.387
	L800.115,443.996z"/>
<path opacity="0.3" fill-rule="evenodd" clip-rule="evenodd" fill="#666633" d="M799.115,443.996L802.617,428H799V300.327
	c2-0.244,3.309-1.688,3.309-3.449c0-1.934-1.414-3.5-3.348-3.5s-3.729,1.566-3.729,3.5c0,1.762,1.769,3.205,2.769,3.449V428h-2.387
	L799.115,443.996z"/>
<path fill-rule="evenodd" clip-rule="evenodd" fill="#FFFFFF" d="M798.115,442.996L801.617,427H798V299.327
	c2-0.244,3.309-1.688,3.309-3.449c0-1.934-1.414-3.5-3.348-3.5s-3.729,1.566-3.729,3.5c0,1.762,1.769,3.205,2.769,3.449V427h-2.387
	L798.115,442.996z"/>
<path opacity="0.3" fill-rule="evenodd" clip-rule="evenodd" fill="#666633" d="M461.115,443.996L464.617,428H461V241.327
	c2-0.244,3.309-1.688,3.309-3.449c0-1.934-1.414-3.5-3.348-3.5s-3.729,1.566-3.729,3.5c0,1.762,1.769,3.205,2.769,3.449V428h-2.387
	L461.115,443.996z"/>
<path opacity="0.3" fill-rule="evenodd" clip-rule="evenodd" fill="#666633" d="M462.115,444.996L465.617,429H462V242.327
	c2-0.244,3.309-1.688,3.309-3.449c0-1.934-1.414-3.5-3.348-3.5s-3.729,1.566-3.729,3.5c0,1.762,1.769,3.205,2.769,3.449V429h-2.387
	L462.115,444.996z"/>
<path fill-rule="evenodd" clip-rule="evenodd" fill="#FFFFFF" d="M460.115,442.996L463.617,427H460V240.327
	c2-0.244,3.309-1.688,3.309-3.449c0-1.934-1.414-3.5-3.348-3.5s-3.729,1.566-3.729,3.5c0,1.762,1.769,3.205,2.769,3.449V427h-2.387
	L460.115,442.996z"/>
<path opacity="0.09" fill-rule="evenodd" clip-rule="evenodd" fill="#666633" d="M121.115,444.996L124.617,429H121v-98.673
	c2-0.244,3.309-1.688,3.309-3.449c0-1.934-1.414-3.5-3.348-3.5s-3.729,1.566-3.729,3.5c0,1.762,1.769,3.205,2.769,3.449V429h-2.387
	L121.115,444.996z"/>
<path opacity="0.3" fill-rule="evenodd" clip-rule="evenodd" fill="#666633" d="M120.115,443.996L123.617,428H120v-98.673
	c2-0.244,3.309-1.688,3.309-3.449c0-1.934-1.414-3.5-3.348-3.5s-3.729,1.566-3.729,3.5c0,1.762,1.769,3.205,2.769,3.449V428h-2.387
	L120.115,443.996z"/>
<path fill-rule="evenodd" clip-rule="evenodd" fill="#FFFFFF" d="M119.115,442.996L122.617,427H119v-98.673
	c2-0.244,3.309-1.688,3.309-3.449c0-1.934-1.414-3.5-3.348-3.5s-3.729,1.566-3.729,3.5c0,1.762,1.769,3.205,2.769,3.449V427h-2.387
	L119.115,442.996z"/>
<g opacity="0.09">
	<polygon fill-rule="evenodd" clip-rule="evenodd" fill="#666633" points="666,153.998 666,161.001 681.996,157.5 	"/>
	<path fill-rule="evenodd" clip-rule="evenodd" fill="#666633" d="M449,157v1v9.55c-1.694,0.245-3,1.688-3,3.45
		c0,1.933,1.566,3.5,3.5,3.5s3.5-1.567,3.5-3.5c0-1.762-1.306-3.205-3-3.45V158h216v-1H450H449z"/>
</g>
<g opacity="0.3">
	<polygon fill-rule="evenodd" clip-rule="evenodd" fill="#666633" points="665,152.998 665,160.001 680.996,156.5 	"/>
	<path fill-rule="evenodd" clip-rule="evenodd" fill="#666633" d="M448,156v1v9.55c-1.694,0.245-3,1.688-3,3.45
		c0,1.933,1.566,3.5,3.5,3.5s3.5-1.567,3.5-3.5c0-1.762-1.306-3.205-3-3.45V157h216v-1H449H448z"/>
</g>
<g>
	<polygon fill-rule="evenodd" clip-rule="evenodd" fill="#FFFFFF" points="664,151.998 664,159.001 679.996,155.5 	"/>
	<path fill-rule="evenodd" clip-rule="evenodd" fill="#FFFFFF" d="M447,155v1v9.55c-1.694,0.245-3,1.688-3,3.45
		c0,1.933,1.566,3.5,3.5,3.5s3.5-1.567,3.5-3.5c0-1.762-1.306-3.205-3-3.45V156h216v-1H448H447z"/>
</g>
<path opacity="0.09" fill-rule="evenodd" clip-rule="evenodd" fill="#666633" d="M681.996,473L666,469.499V472h-36V181v-1h-1
	H526.338c-0.433-1.442-1.754-2.5-3.338-2.5c-1.934,0-3.5,1.567-3.5,3.5c0,1.933,1.566,3.5,3.5,3.5s3.5-1.567,3.5-3.5H629v291v1h1h36
	v3.502L681.996,473z"/>
<path opacity="0.3" fill-rule="evenodd" clip-rule="evenodd" fill="#666633" d="M680.996,472L665,468.499V471h-36V180v-1h-1H525.338
	c-0.433-1.442-1.754-2.5-3.338-2.5c-1.934,0-3.5,1.567-3.5,3.5c0,1.933,1.566,3.5,3.5,3.5s3.5-1.567,3.5-3.5H628v291v1h1h36v3.502
	L680.996,472z"/>
<path opacity="0.09" fill-rule="evenodd" clip-rule="evenodd" fill="#666633" d="M718.93,561.004L715.428,577H719v115H495.5
	c0-1.934-1.566-3.5-3.5-3.5s-3.5,1.566-3.5,3.5c0,1.933,1.566,3.5,3.5,3.5c1.583,0,2.905-1.058,3.338-2.5H719h1v-1V577h2.432
	L718.93,561.004z"/>
<path fill-rule="evenodd" clip-rule="evenodd" fill="#FFFFFF" d="M679.996,471L664,467.499V470h-36V179v-1h-1H524.338
	c-0.433-1.442-1.754-2.5-3.338-2.5c-1.934,0-3.5,1.567-3.5,3.5c0,1.933,1.566,3.5,3.5,3.5s3.5-1.567,3.5-3.5H627v291v1h1h36v3.502
	L679.996,471z"/>
<path opacity="0.3" fill-rule="evenodd" clip-rule="evenodd" fill="#666633" d="M717.93,560.004L714.428,576H718v115H494.5
	c0-1.934-1.566-3.5-3.5-3.5s-3.5,1.566-3.5,3.5c0,1.933,1.566,3.5,3.5,3.5c1.583,0,2.905-1.058,3.338-2.5H718h1v-1V576h2.432
	L717.93,560.004z"/>
<path fill-rule="evenodd" clip-rule="evenodd" fill="#FFFFFF" d="M716.93,559.004L713.428,575H717v115H493.5
	c0-1.934-1.566-3.5-3.5-3.5s-3.5,1.566-3.5,3.5c0,1.933,1.566,3.5,3.5,3.5c1.583,0,2.905-1.058,3.338-2.5H717h1v-1V575h2.432
	L716.93,559.004z"/>
<g>
	<path fill="#555459" d="M110.92,140.667h-0.316v-4.072h-5.449v4.072h-0.316v-8.531h0.316v4.143h5.449v-4.143h0.316V140.667z"/>
	<path fill="#555459" d="M112.602,137.374c0-0.93,0.257-1.689,0.771-2.279s1.181-0.885,2.001-0.885c0.824,0,1.493,0.295,2.007,0.885
		s0.771,1.35,0.771,2.279v0.246c0,0.934-0.257,1.695-0.771,2.285s-1.179,0.885-1.995,0.885c-0.824,0-1.494-0.295-2.01-0.885
		s-0.773-1.352-0.773-2.285V137.374z M112.918,137.62c0,0.797,0.223,1.472,0.668,2.024s1.045,0.829,1.799,0.829
		c0.742,0,1.336-0.277,1.781-0.832s0.668-1.229,0.668-2.021v-0.246c0-0.777-0.225-1.446-0.674-2.007s-1.045-0.841-1.787-0.841
		c-0.746,0-1.342,0.28-1.787,0.841s-0.668,1.229-0.668,2.007V137.62z"/>
	<path fill="#555459" d="M119.879,134.327l0.041,1.307c0.191-0.449,0.467-0.799,0.826-1.049s0.797-0.375,1.313-0.375
		c0.547,0,0.991,0.14,1.333,0.419s0.577,0.71,0.706,1.292c0.168-0.539,0.442-0.96,0.823-1.263s0.856-0.454,1.427-0.454
		c0.699,0,1.23,0.229,1.594,0.686s0.545,1.176,0.545,2.156v3.615h-0.322v-3.627c0-0.918-0.164-1.566-0.492-1.945
		s-0.766-0.568-1.313-0.568c-0.672,0-1.18,0.202-1.523,0.606s-0.559,0.927-0.645,1.567c0,0.078,0.002,0.146,0.006,0.202
		s0.006,0.112,0.006,0.167v3.604h-0.322v-3.627c0-0.922-0.164-1.571-0.492-1.948s-0.768-0.565-1.318-0.565
		c-0.656,0-1.154,0.192-1.494,0.577s-0.557,0.884-0.65,1.497v4.066h-0.322v-6.34H119.879z"/>
	<path fill="#555459" d="M132.588,140.79c-0.723,0-1.347-0.292-1.872-0.876s-0.788-1.31-0.788-2.177v-0.375
		c0-0.91,0.254-1.663,0.762-2.259s1.135-0.894,1.881-0.894c0.715,0,1.298,0.234,1.749,0.703s0.677,1.098,0.677,1.887v0.486h-4.752
		v0.076v0.375c0,0.766,0.225,1.413,0.674,1.942s1.006,0.794,1.67,0.794c0.473,0,0.868-0.064,1.187-0.193s0.591-0.322,0.817-0.58
		l0.17,0.246c-0.25,0.277-0.554,0.487-0.911,0.63S133.073,140.79,132.588,140.79z M132.571,134.526c-0.629,0-1.152,0.229-1.57,0.688
		s-0.654,1.032-0.709,1.72l0.018,0.035h4.371v-0.193c0-0.645-0.195-1.181-0.586-1.608S133.196,134.526,132.571,134.526z"/>
</g>
<g>
	<path fill="#555459" d="M432.016,136.452h-3.105v8.215h-0.316v-8.215h-3.105v-0.316h6.527V136.452z"/>
	<path fill="#555459" d="M433.739,136.335h-0.316v-0.809h0.316V136.335z M433.739,144.667h-0.316v-6.34h0.316V144.667z"/>
	<path fill="#555459" d="M436.475,136.616v1.711h1.559v0.322h-1.559v4.383c0,0.52,0.088,0.89,0.264,1.11s0.408,0.331,0.697,0.331
		c0.105,0,0.199-0.004,0.281-0.012s0.195-0.021,0.34-0.041l0.059,0.287c-0.098,0.031-0.199,0.053-0.305,0.064
		s-0.225,0.018-0.357,0.018c-0.426,0-0.749-0.139-0.97-0.416s-0.331-0.725-0.331-1.342v-4.383h-1.172v-0.322h1.172v-1.711H436.475z"
		/>
	<path fill="#555459" d="M439.92,144.667h-0.316v-9.141h0.316V144.667z"/>
	<path fill="#555459" d="M444.163,144.79c-0.723,0-1.347-0.292-1.872-0.876s-0.788-1.31-0.788-2.177v-0.375
		c0-0.91,0.254-1.663,0.762-2.259s1.135-0.894,1.881-0.894c0.715,0,1.298,0.234,1.749,0.703s0.677,1.098,0.677,1.887v0.486h-4.752
		v0.076v0.375c0,0.766,0.225,1.413,0.674,1.942s1.006,0.794,1.67,0.794c0.473,0,0.868-0.064,1.187-0.193s0.591-0.322,0.817-0.58
		l0.17,0.246c-0.25,0.277-0.554,0.487-0.911,0.63S444.647,144.79,444.163,144.79z M444.145,138.526c-0.629,0-1.152,0.229-1.57,0.688
		s-0.654,1.032-0.709,1.72l0.018,0.035h4.371v-0.193c0-0.645-0.195-1.181-0.586-1.608S444.77,138.526,444.145,138.526z"/>
	<path fill="#555459" d="M450.42,141.374c0-0.93,0.257-1.689,0.771-2.279s1.181-0.885,2.001-0.885c0.824,0,1.493,0.295,2.007,0.885
		s0.771,1.35,0.771,2.279v0.246c0,0.934-0.257,1.695-0.771,2.285s-1.179,0.885-1.995,0.885c-0.824,0-1.494-0.295-2.01-0.885
		s-0.773-1.352-0.773-2.285V141.374z M450.737,141.62c0,0.797,0.223,1.472,0.668,2.024s1.045,0.829,1.799,0.829
		c0.742,0,1.336-0.277,1.781-0.832s0.668-1.229,0.668-2.021v-0.246c0-0.777-0.225-1.446-0.674-2.007s-1.045-0.841-1.787-0.841
		c-0.746,0-1.342,0.28-1.787,0.841s-0.668,1.229-0.668,2.007V141.62z"/>
	<path fill="#555459" d="M457.967,144.667v-6.018h-1.102v-0.322h1.102v-1.043c0-0.598,0.146-1.061,0.437-1.389
		s0.698-0.492,1.222-0.492c0.129,0,0.257,0.008,0.384,0.023s0.249,0.041,0.366,0.076l-0.047,0.305
		c-0.125-0.031-0.235-0.054-0.331-0.067s-0.218-0.021-0.366-0.021c-0.422,0-0.752,0.139-0.99,0.416s-0.357,0.66-0.357,1.148v1.043
		h1.676v0.322h-1.676v6.018H457.967z"/>
	<path fill="#555459" d="M468.982,141.614c0,0.977-0.211,1.75-0.633,2.32s-1.004,0.855-1.746,0.855c-0.496,0-0.928-0.1-1.297-0.299
		s-0.658-0.469-0.865-0.809v3.422h-0.316v-8.777h0.246l0.064,1.137c0.211-0.391,0.498-0.697,0.861-0.92s0.795-0.334,1.295-0.334
		c0.746,0,1.332,0.296,1.756,0.888s0.635,1.39,0.635,2.394V141.614z M468.66,141.491c0-0.879-0.176-1.593-0.529-2.142
		s-0.865-0.823-1.533-0.823c-0.613,0-1.09,0.154-1.43,0.463s-0.582,0.688-0.727,1.137v2.965c0.156,0.422,0.418,0.758,0.785,1.008
		s0.828,0.375,1.383,0.375c0.668,0,1.178-0.258,1.527-0.773s0.523-1.211,0.523-2.086V141.491z"/>
	<path fill="#555459" d="M474.684,143.495c-0.219,0.383-0.545,0.694-0.979,0.935s-0.959,0.36-1.576,0.36
		c-0.59,0-1.053-0.161-1.389-0.483s-0.504-0.757-0.504-1.304c0-0.531,0.252-0.977,0.754-1.336s1.129-0.539,1.883-0.539h1.811v-0.926
		c0-0.527-0.168-0.938-0.506-1.233s-0.814-0.442-1.428-0.442c-0.574,0-1.035,0.139-1.385,0.416s-0.525,0.635-0.525,1.072
		l-0.264-0.012l-0.012-0.029c-0.023-0.492,0.168-0.909,0.574-1.251s0.943-0.513,1.611-0.513c0.68,0,1.225,0.172,1.635,0.516
		s0.615,0.84,0.615,1.488v3.176c0,0.223,0.014,0.439,0.039,0.65s0.066,0.42,0.125,0.627h-0.352
		c-0.051-0.277-0.084-0.485-0.102-0.624s-0.027-0.288-0.027-0.448V143.495z M472.129,144.479c0.629,0,1.162-0.139,1.598-0.416
		s0.754-0.674,0.957-1.189v-1.424h-1.793c-0.656,0-1.209,0.151-1.66,0.454s-0.678,0.677-0.678,1.122
		c0,0.426,0.145,0.774,0.432,1.046S471.652,144.479,472.129,144.479z"/>
	<path fill="#555459" d="M476.74,141.491c0-1.004,0.211-1.802,0.633-2.394s1.008-0.888,1.758-0.888c0.492,0,0.92,0.111,1.283,0.334
		s0.652,0.529,0.867,0.92l0.047-1.137h0.27v6.375c0,0.805-0.211,1.427-0.635,1.866s-1.012,0.659-1.762,0.659
		c-0.309,0-0.629-0.032-0.963-0.097s-0.627-0.153-0.877-0.267l0.094-0.316c0.285,0.125,0.561,0.218,0.826,0.278
		s0.568,0.091,0.908,0.091c0.684,0,1.203-0.19,1.557-0.571s0.529-0.929,0.529-1.644v-1.008c-0.215,0.336-0.506,0.603-0.873,0.8
		s-0.795,0.296-1.283,0.296c-0.746,0-1.328-0.285-1.748-0.855s-0.631-1.344-0.631-2.32V141.491z M477.063,141.614
		c0,0.875,0.174,1.57,0.521,2.086s0.857,0.773,1.529,0.773c0.551,0,1.008-0.124,1.371-0.372s0.627-0.579,0.791-0.993v-3
		c-0.156-0.449-0.402-0.825-0.74-1.128s-0.809-0.454-1.41-0.454c-0.672,0-1.184,0.274-1.535,0.823s-0.527,1.263-0.527,2.142V141.614
		z"/>
	<path fill="#555459" d="M485.77,144.79c-0.723,0-1.346-0.292-1.871-0.876s-0.789-1.31-0.789-2.177v-0.375
		c0-0.91,0.254-1.663,0.762-2.259s1.135-0.894,1.881-0.894c0.715,0,1.299,0.234,1.75,0.703s0.676,1.098,0.676,1.887v0.486h-4.752
		v0.076v0.375c0,0.766,0.225,1.413,0.674,1.942s1.006,0.794,1.67,0.794c0.473,0,0.869-0.064,1.188-0.193s0.59-0.322,0.816-0.58
		l0.17,0.246c-0.25,0.277-0.553,0.487-0.91,0.63S486.254,144.79,485.77,144.79z M485.752,138.526c-0.629,0-1.152,0.229-1.57,0.688
		s-0.654,1.032-0.709,1.72l0.018,0.035h4.371v-0.193c0-0.645-0.195-1.181-0.586-1.608S486.377,138.526,485.752,138.526z"/>
</g>
<g>
	<path fill="#555459" d="M771.016,136.452h-3.105v8.215h-0.316v-8.215h-3.105v-0.316h6.527V136.452z"/>
	<path fill="#555459" d="M772.738,136.335h-0.316v-0.809h0.316V136.335z M772.738,144.667h-0.316v-6.34h0.316V144.667z"/>
	<path fill="#555459" d="M775.475,136.616v1.711h1.559v0.322h-1.559v4.383c0,0.52,0.088,0.89,0.264,1.11s0.408,0.331,0.697,0.331
		c0.105,0,0.199-0.004,0.281-0.012s0.195-0.021,0.34-0.041l0.059,0.287c-0.098,0.031-0.199,0.053-0.305,0.064
		s-0.225,0.018-0.357,0.018c-0.426,0-0.748-0.139-0.969-0.416s-0.332-0.725-0.332-1.342v-4.383h-1.172v-0.322h1.172v-1.711H775.475z
		"/>
	<path fill="#555459" d="M778.92,144.667h-0.316v-9.141h0.316V144.667z"/>
	<path fill="#555459" d="M783.162,144.79c-0.723,0-1.346-0.292-1.871-0.876s-0.789-1.31-0.789-2.177v-0.375
		c0-0.91,0.254-1.663,0.762-2.259s1.135-0.894,1.881-0.894c0.715,0,1.299,0.234,1.75,0.703s0.676,1.098,0.676,1.887v0.486h-4.752
		v0.076v0.375c0,0.766,0.225,1.413,0.674,1.942s1.006,0.794,1.67,0.794c0.473,0,0.869-0.064,1.188-0.193s0.59-0.322,0.816-0.58
		l0.17,0.246c-0.25,0.277-0.553,0.487-0.91,0.63S783.646,144.79,783.162,144.79z M783.145,138.526c-0.629,0-1.152,0.229-1.57,0.688
		s-0.654,1.032-0.709,1.72l0.018,0.035h4.371v-0.193c0-0.645-0.195-1.181-0.586-1.608S783.77,138.526,783.145,138.526z"/>
	<path fill="#555459" d="M789.42,141.374c0-0.93,0.258-1.689,0.771-2.279s1.18-0.885,2-0.885c0.824,0,1.494,0.295,2.008,0.885
		s0.77,1.35,0.77,2.279v0.246c0,0.934-0.256,1.695-0.77,2.285s-1.18,0.885-1.996,0.885c-0.824,0-1.494-0.295-2.01-0.885
		s-0.773-1.352-0.773-2.285V141.374z M789.736,141.62c0,0.797,0.223,1.472,0.668,2.024s1.045,0.829,1.799,0.829
		c0.742,0,1.336-0.277,1.781-0.832s0.668-1.229,0.668-2.021v-0.246c0-0.777-0.225-1.446-0.674-2.007s-1.045-0.841-1.787-0.841
		c-0.746,0-1.342,0.28-1.787,0.841s-0.668,1.229-0.668,2.007V141.62z"/>
	<path fill="#555459" d="M796.967,144.667v-6.018h-1.102v-0.322h1.102v-1.043c0-0.598,0.146-1.061,0.438-1.389
		s0.697-0.492,1.221-0.492c0.129,0,0.258,0.008,0.385,0.023s0.248,0.041,0.365,0.076l-0.047,0.305
		c-0.125-0.031-0.234-0.054-0.33-0.067s-0.219-0.021-0.367-0.021c-0.422,0-0.752,0.139-0.99,0.416s-0.357,0.66-0.357,1.148v1.043
		h1.676v0.322h-1.676v6.018H796.967z"/>
	<path fill="#555459" d="M807.982,141.614c0,0.977-0.211,1.75-0.633,2.32s-1.004,0.855-1.746,0.855c-0.496,0-0.928-0.1-1.297-0.299
		s-0.658-0.469-0.865-0.809v3.422h-0.316v-8.777h0.246l0.064,1.137c0.211-0.391,0.498-0.697,0.861-0.92s0.795-0.334,1.295-0.334
		c0.746,0,1.332,0.296,1.756,0.888s0.635,1.39,0.635,2.394V141.614z M807.66,141.491c0-0.879-0.176-1.593-0.529-2.142
		s-0.865-0.823-1.533-0.823c-0.613,0-1.09,0.154-1.43,0.463s-0.582,0.688-0.727,1.137v2.965c0.156,0.422,0.418,0.758,0.785,1.008
		s0.828,0.375,1.383,0.375c0.668,0,1.178-0.258,1.527-0.773s0.523-1.211,0.523-2.086V141.491z"/>
	<path fill="#555459" d="M813.684,143.495c-0.219,0.383-0.545,0.694-0.979,0.935s-0.959,0.36-1.576,0.36
		c-0.59,0-1.053-0.161-1.389-0.483s-0.504-0.757-0.504-1.304c0-0.531,0.252-0.977,0.754-1.336s1.129-0.539,1.883-0.539h1.811v-0.926
		c0-0.527-0.168-0.938-0.506-1.233s-0.814-0.442-1.428-0.442c-0.574,0-1.035,0.139-1.385,0.416s-0.525,0.635-0.525,1.072
		l-0.264-0.012l-0.012-0.029c-0.023-0.492,0.168-0.909,0.574-1.251s0.943-0.513,1.611-0.513c0.68,0,1.225,0.172,1.635,0.516
		s0.615,0.84,0.615,1.488v3.176c0,0.223,0.014,0.439,0.039,0.65s0.066,0.42,0.125,0.627h-0.352
		c-0.051-0.277-0.084-0.485-0.102-0.624s-0.027-0.288-0.027-0.448V143.495z M811.129,144.479c0.629,0,1.162-0.139,1.598-0.416
		s0.754-0.674,0.957-1.189v-1.424h-1.793c-0.656,0-1.209,0.151-1.66,0.454s-0.678,0.677-0.678,1.122
		c0,0.426,0.145,0.774,0.432,1.046S810.652,144.479,811.129,144.479z"/>
	<path fill="#555459" d="M815.74,141.491c0-1.004,0.211-1.802,0.633-2.394s1.008-0.888,1.758-0.888c0.492,0,0.92,0.111,1.283,0.334
		s0.652,0.529,0.867,0.92l0.047-1.137h0.27v6.375c0,0.805-0.211,1.427-0.635,1.866s-1.012,0.659-1.762,0.659
		c-0.309,0-0.629-0.032-0.963-0.097s-0.627-0.153-0.877-0.267l0.094-0.316c0.285,0.125,0.561,0.218,0.826,0.278
		s0.568,0.091,0.908,0.091c0.684,0,1.203-0.19,1.557-0.571s0.529-0.929,0.529-1.644v-1.008c-0.215,0.336-0.506,0.603-0.873,0.8
		s-0.795,0.296-1.283,0.296c-0.746,0-1.328-0.285-1.748-0.855s-0.631-1.344-0.631-2.32V141.491z M816.063,141.614
		c0,0.875,0.174,1.57,0.521,2.086s0.857,0.773,1.529,0.773c0.551,0,1.008-0.124,1.371-0.372s0.627-0.579,0.791-0.993v-3
		c-0.156-0.449-0.402-0.825-0.74-1.128s-0.809-0.454-1.41-0.454c-0.672,0-1.184,0.274-1.535,0.823s-0.527,1.263-0.527,2.142V141.614
		z"/>
	<path fill="#555459" d="M824.77,144.79c-0.723,0-1.346-0.292-1.871-0.876s-0.789-1.31-0.789-2.177v-0.375
		c0-0.91,0.254-1.663,0.762-2.259s1.135-0.894,1.881-0.894c0.715,0,1.299,0.234,1.75,0.703s0.676,1.098,0.676,1.887v0.486h-4.752
		v0.076v0.375c0,0.766,0.225,1.413,0.674,1.942s1.006,0.794,1.67,0.794c0.473,0,0.869-0.064,1.188-0.193s0.59-0.322,0.816-0.58
		l0.17,0.246c-0.25,0.277-0.553,0.487-0.91,0.63S825.254,144.79,824.77,144.79z M824.752,138.526c-0.629,0-1.152,0.229-1.57,0.688
		s-0.654,1.032-0.709,1.72l0.018,0.035h4.371v-0.193c0-0.645-0.195-1.181-0.586-1.608S825.377,138.526,824.752,138.526z"/>
</g>
<g>
	<path fill="#555459" d="M433.016,461.452h-3.105v8.215h-0.316v-8.215h-3.105v-0.316h6.527V461.452z"/>
	<path fill="#555459" d="M434.739,461.335h-0.316v-0.809h0.316V461.335z M434.739,469.667h-0.316v-6.34h0.316V469.667z"/>
	<path fill="#555459" d="M437.475,461.616v1.711h1.559v0.322h-1.559v4.383c0,0.52,0.088,0.89,0.264,1.11s0.408,0.331,0.697,0.331
		c0.105,0,0.199-0.004,0.281-0.012s0.195-0.021,0.34-0.041l0.059,0.287c-0.098,0.031-0.199,0.053-0.305,0.064
		s-0.225,0.018-0.357,0.018c-0.426,0-0.749-0.139-0.97-0.416s-0.331-0.725-0.331-1.342v-4.383h-1.172v-0.322h1.172v-1.711H437.475z"
		/>
	<path fill="#555459" d="M440.92,469.667h-0.316v-9.141h0.316V469.667z"/>
	<path fill="#555459" d="M445.163,469.79c-0.723,0-1.347-0.292-1.872-0.876s-0.788-1.31-0.788-2.177v-0.375
		c0-0.91,0.254-1.663,0.762-2.259s1.135-0.894,1.881-0.894c0.715,0,1.298,0.234,1.749,0.703s0.677,1.098,0.677,1.887v0.486h-4.752
		v0.076v0.375c0,0.766,0.225,1.413,0.674,1.942s1.006,0.794,1.67,0.794c0.473,0,0.868-0.064,1.187-0.193s0.591-0.322,0.817-0.58
		l0.17,0.246c-0.25,0.277-0.554,0.487-0.911,0.63S445.647,469.79,445.163,469.79z M445.145,463.526c-0.629,0-1.152,0.229-1.57,0.688
		s-0.654,1.032-0.709,1.72l0.018,0.035h4.371v-0.193c0-0.645-0.195-1.181-0.586-1.608S445.77,463.526,445.145,463.526z"/>
	<path fill="#555459" d="M451.42,466.374c0-0.93,0.257-1.689,0.771-2.279s1.181-0.885,2.001-0.885c0.824,0,1.493,0.295,2.007,0.885
		s0.771,1.35,0.771,2.279v0.246c0,0.934-0.257,1.695-0.771,2.285s-1.179,0.885-1.995,0.885c-0.824,0-1.494-0.295-2.01-0.885
		s-0.773-1.352-0.773-2.285V466.374z M451.737,466.62c0,0.797,0.223,1.472,0.668,2.024s1.045,0.829,1.799,0.829
		c0.742,0,1.336-0.277,1.781-0.832s0.668-1.229,0.668-2.021v-0.246c0-0.777-0.225-1.446-0.674-2.007s-1.045-0.841-1.787-0.841
		c-0.746,0-1.342,0.28-1.787,0.841s-0.668,1.229-0.668,2.007V466.62z"/>
	<path fill="#555459" d="M458.967,469.667v-6.018h-1.102v-0.322h1.102v-1.043c0-0.598,0.146-1.061,0.437-1.389
		s0.698-0.492,1.222-0.492c0.129,0,0.257,0.008,0.384,0.023s0.249,0.041,0.366,0.076l-0.047,0.305
		c-0.125-0.031-0.235-0.054-0.331-0.067s-0.218-0.021-0.366-0.021c-0.422,0-0.752,0.139-0.99,0.416s-0.357,0.66-0.357,1.148v1.043
		h1.676v0.322h-1.676v6.018H458.967z"/>
	<path fill="#555459" d="M469.982,466.614c0,0.977-0.211,1.75-0.633,2.32s-1.004,0.855-1.746,0.855c-0.496,0-0.928-0.1-1.297-0.299
		s-0.658-0.469-0.865-0.809v3.422h-0.316v-8.777h0.246l0.064,1.137c0.211-0.391,0.498-0.697,0.861-0.92s0.795-0.334,1.295-0.334
		c0.746,0,1.332,0.296,1.756,0.888s0.635,1.39,0.635,2.394V466.614z M469.66,466.491c0-0.879-0.176-1.593-0.529-2.142
		s-0.865-0.823-1.533-0.823c-0.613,0-1.09,0.154-1.43,0.463s-0.582,0.688-0.727,1.137v2.965c0.156,0.422,0.418,0.758,0.785,1.008
		s0.828,0.375,1.383,0.375c0.668,0,1.178-0.258,1.527-0.773s0.523-1.211,0.523-2.086V466.491z"/>
	<path fill="#555459" d="M475.684,468.495c-0.219,0.383-0.545,0.694-0.979,0.935s-0.959,0.36-1.576,0.36
		c-0.59,0-1.053-0.161-1.389-0.483s-0.504-0.757-0.504-1.304c0-0.531,0.252-0.977,0.754-1.336s1.129-0.539,1.883-0.539h1.811v-0.926
		c0-0.527-0.168-0.938-0.506-1.233s-0.814-0.442-1.428-0.442c-0.574,0-1.035,0.139-1.385,0.416s-0.525,0.635-0.525,1.072
		l-0.264-0.012l-0.012-0.029c-0.023-0.492,0.168-0.909,0.574-1.251s0.943-0.513,1.611-0.513c0.68,0,1.225,0.172,1.635,0.516
		s0.615,0.84,0.615,1.488v3.176c0,0.223,0.014,0.439,0.039,0.65s0.066,0.42,0.125,0.627h-0.352
		c-0.051-0.277-0.084-0.485-0.102-0.624s-0.027-0.288-0.027-0.448V468.495z M473.129,469.479c0.629,0,1.162-0.139,1.598-0.416
		s0.754-0.674,0.957-1.189v-1.424h-1.793c-0.656,0-1.209,0.151-1.66,0.454s-0.678,0.677-0.678,1.122
		c0,0.426,0.145,0.774,0.432,1.046S472.652,469.479,473.129,469.479z"/>
	<path fill="#555459" d="M477.74,466.491c0-1.004,0.211-1.802,0.633-2.394s1.008-0.888,1.758-0.888c0.492,0,0.92,0.111,1.283,0.334
		s0.652,0.529,0.867,0.92l0.047-1.137h0.27v6.375c0,0.805-0.211,1.427-0.635,1.866s-1.012,0.659-1.762,0.659
		c-0.309,0-0.629-0.032-0.963-0.097s-0.627-0.153-0.877-0.267l0.094-0.316c0.285,0.125,0.561,0.218,0.826,0.278
		s0.568,0.091,0.908,0.091c0.684,0,1.203-0.19,1.557-0.571s0.529-0.929,0.529-1.644v-1.008c-0.215,0.336-0.506,0.603-0.873,0.8
		s-0.795,0.296-1.283,0.296c-0.746,0-1.328-0.285-1.748-0.855s-0.631-1.344-0.631-2.32V466.491z M478.063,466.614
		c0,0.875,0.174,1.57,0.521,2.086s0.857,0.773,1.529,0.773c0.551,0,1.008-0.124,1.371-0.372s0.627-0.579,0.791-0.993v-3
		c-0.156-0.449-0.402-0.825-0.74-1.128s-0.809-0.454-1.41-0.454c-0.672,0-1.184,0.274-1.535,0.823s-0.527,1.263-0.527,2.142V466.614
		z"/>
	<path fill="#555459" d="M486.77,469.79c-0.723,0-1.346-0.292-1.871-0.876s-0.789-1.31-0.789-2.177v-0.375
		c0-0.91,0.254-1.663,0.762-2.259s1.135-0.894,1.881-0.894c0.715,0,1.299,0.234,1.75,0.703s0.676,1.098,0.676,1.887v0.486h-4.752
		v0.076v0.375c0,0.766,0.225,1.413,0.674,1.942s1.006,0.794,1.67,0.794c0.473,0,0.869-0.064,1.188-0.193s0.59-0.322,0.816-0.58
		l0.17,0.246c-0.25,0.277-0.553,0.487-0.91,0.63S487.254,469.79,486.77,469.79z M486.752,463.526c-0.629,0-1.152,0.229-1.57,0.688
		s-0.654,1.032-0.709,1.72l0.018,0.035h4.371v-0.193c0-0.645-0.195-1.181-0.586-1.608S487.377,463.526,486.752,463.526z"/>
</g>
<g>
	<path fill="#555459" d="M772.016,461.452h-3.105v8.215h-0.316v-8.215h-3.105v-0.316h6.527V461.452z"/>
	<path fill="#555459" d="M773.738,461.335h-0.316v-0.809h0.316V461.335z M773.738,469.667h-0.316v-6.34h0.316V469.667z"/>
	<path fill="#555459" d="M776.475,461.616v1.711h1.559v0.322h-1.559v4.383c0,0.52,0.088,0.89,0.264,1.11s0.408,0.331,0.697,0.331
		c0.105,0,0.199-0.004,0.281-0.012s0.195-0.021,0.34-0.041l0.059,0.287c-0.098,0.031-0.199,0.053-0.305,0.064
		s-0.225,0.018-0.357,0.018c-0.426,0-0.748-0.139-0.969-0.416s-0.332-0.725-0.332-1.342v-4.383h-1.172v-0.322h1.172v-1.711H776.475z
		"/>
	<path fill="#555459" d="M779.92,469.667h-0.316v-9.141h0.316V469.667z"/>
	<path fill="#555459" d="M784.162,469.79c-0.723,0-1.346-0.292-1.871-0.876s-0.789-1.31-0.789-2.177v-0.375
		c0-0.91,0.254-1.663,0.762-2.259s1.135-0.894,1.881-0.894c0.715,0,1.299,0.234,1.75,0.703s0.676,1.098,0.676,1.887v0.486h-4.752
		v0.076v0.375c0,0.766,0.225,1.413,0.674,1.942s1.006,0.794,1.67,0.794c0.473,0,0.869-0.064,1.188-0.193s0.59-0.322,0.816-0.58
		l0.17,0.246c-0.25,0.277-0.553,0.487-0.91,0.63S784.646,469.79,784.162,469.79z M784.145,463.526c-0.629,0-1.152,0.229-1.57,0.688
		s-0.654,1.032-0.709,1.72l0.018,0.035h4.371v-0.193c0-0.645-0.195-1.181-0.586-1.608S784.77,463.526,784.145,463.526z"/>
	<path fill="#555459" d="M790.42,466.374c0-0.93,0.258-1.689,0.771-2.279s1.18-0.885,2-0.885c0.824,0,1.494,0.295,2.008,0.885
		s0.77,1.35,0.77,2.279v0.246c0,0.934-0.256,1.695-0.77,2.285s-1.18,0.885-1.996,0.885c-0.824,0-1.494-0.295-2.01-0.885
		s-0.773-1.352-0.773-2.285V466.374z M790.736,466.62c0,0.797,0.223,1.472,0.668,2.024s1.045,0.829,1.799,0.829
		c0.742,0,1.336-0.277,1.781-0.832s0.668-1.229,0.668-2.021v-0.246c0-0.777-0.225-1.446-0.674-2.007s-1.045-0.841-1.787-0.841
		c-0.746,0-1.342,0.28-1.787,0.841s-0.668,1.229-0.668,2.007V466.62z"/>
	<path fill="#555459" d="M797.967,469.667v-6.018h-1.102v-0.322h1.102v-1.043c0-0.598,0.146-1.061,0.438-1.389
		s0.697-0.492,1.221-0.492c0.129,0,0.258,0.008,0.385,0.023s0.248,0.041,0.365,0.076l-0.047,0.305
		c-0.125-0.031-0.234-0.054-0.33-0.067s-0.219-0.021-0.367-0.021c-0.422,0-0.752,0.139-0.99,0.416s-0.357,0.66-0.357,1.148v1.043
		h1.676v0.322h-1.676v6.018H797.967z"/>
	<path fill="#555459" d="M808.982,466.614c0,0.977-0.211,1.75-0.633,2.32s-1.004,0.855-1.746,0.855c-0.496,0-0.928-0.1-1.297-0.299
		s-0.658-0.469-0.865-0.809v3.422h-0.316v-8.777h0.246l0.064,1.137c0.211-0.391,0.498-0.697,0.861-0.92s0.795-0.334,1.295-0.334
		c0.746,0,1.332,0.296,1.756,0.888s0.635,1.39,0.635,2.394V466.614z M808.66,466.491c0-0.879-0.176-1.593-0.529-2.142
		s-0.865-0.823-1.533-0.823c-0.613,0-1.09,0.154-1.43,0.463s-0.582,0.688-0.727,1.137v2.965c0.156,0.422,0.418,0.758,0.785,1.008
		s0.828,0.375,1.383,0.375c0.668,0,1.178-0.258,1.527-0.773s0.523-1.211,0.523-2.086V466.491z"/>
	<path fill="#555459" d="M814.684,468.495c-0.219,0.383-0.545,0.694-0.979,0.935s-0.959,0.36-1.576,0.36
		c-0.59,0-1.053-0.161-1.389-0.483s-0.504-0.757-0.504-1.304c0-0.531,0.252-0.977,0.754-1.336s1.129-0.539,1.883-0.539h1.811v-0.926
		c0-0.527-0.168-0.938-0.506-1.233s-0.814-0.442-1.428-0.442c-0.574,0-1.035,0.139-1.385,0.416s-0.525,0.635-0.525,1.072
		l-0.264-0.012l-0.012-0.029c-0.023-0.492,0.168-0.909,0.574-1.251s0.943-0.513,1.611-0.513c0.68,0,1.225,0.172,1.635,0.516
		s0.615,0.84,0.615,1.488v3.176c0,0.223,0.014,0.439,0.039,0.65s0.066,0.42,0.125,0.627h-0.352
		c-0.051-0.277-0.084-0.485-0.102-0.624s-0.027-0.288-0.027-0.448V468.495z M812.129,469.479c0.629,0,1.162-0.139,1.598-0.416
		s0.754-0.674,0.957-1.189v-1.424h-1.793c-0.656,0-1.209,0.151-1.66,0.454s-0.678,0.677-0.678,1.122
		c0,0.426,0.145,0.774,0.432,1.046S811.652,469.479,812.129,469.479z"/>
	<path fill="#555459" d="M816.74,466.491c0-1.004,0.211-1.802,0.633-2.394s1.008-0.888,1.758-0.888c0.492,0,0.92,0.111,1.283,0.334
		s0.652,0.529,0.867,0.92l0.047-1.137h0.27v6.375c0,0.805-0.211,1.427-0.635,1.866s-1.012,0.659-1.762,0.659
		c-0.309,0-0.629-0.032-0.963-0.097s-0.627-0.153-0.877-0.267l0.094-0.316c0.285,0.125,0.561,0.218,0.826,0.278
		s0.568,0.091,0.908,0.091c0.684,0,1.203-0.19,1.557-0.571s0.529-0.929,0.529-1.644v-1.008c-0.215,0.336-0.506,0.603-0.873,0.8
		s-0.795,0.296-1.283,0.296c-0.746,0-1.328-0.285-1.748-0.855s-0.631-1.344-0.631-2.32V466.491z M817.063,466.614
		c0,0.875,0.174,1.57,0.521,2.086s0.857,0.773,1.529,0.773c0.551,0,1.008-0.124,1.371-0.372s0.627-0.579,0.791-0.993v-3
		c-0.156-0.449-0.402-0.825-0.74-1.128s-0.809-0.454-1.41-0.454c-0.672,0-1.184,0.274-1.535,0.823s-0.527,1.263-0.527,2.142V466.614
		z"/>
	<path fill="#555459" d="M825.77,469.79c-0.723,0-1.346-0.292-1.871-0.876s-0.789-1.31-0.789-2.177v-0.375
		c0-0.91,0.254-1.663,0.762-2.259s1.135-0.894,1.881-0.894c0.715,0,1.299,0.234,1.75,0.703s0.676,1.098,0.676,1.887v0.486h-4.752
		v0.076v0.375c0,0.766,0.225,1.413,0.674,1.942s1.006,0.794,1.67,0.794c0.473,0,0.869-0.064,1.188-0.193s0.59-0.322,0.816-0.58
		l0.17,0.246c-0.25,0.277-0.553,0.487-0.91,0.63S826.254,469.79,825.77,469.79z M825.752,463.526c-0.629,0-1.152,0.229-1.57,0.688
		s-0.654,1.032-0.709,1.72l0.018,0.035h4.371v-0.193c0-0.645-0.195-1.181-0.586-1.608S826.377,463.526,825.752,463.526z"/>
</g>
<g>
	<path fill="#555459" d="M93.016,461.452h-3.105v8.215h-0.316v-8.215h-3.105v-0.316h6.527V461.452z"/>
	<path fill="#555459" d="M94.739,461.335h-0.316v-0.809h0.316V461.335z M94.739,469.667h-0.316v-6.34h0.316V469.667z"/>
	<path fill="#555459" d="M97.475,461.616v1.711h1.559v0.322h-1.559v4.383c0,0.52,0.088,0.89,0.264,1.11s0.408,0.331,0.697,0.331
		c0.105,0,0.199-0.004,0.281-0.012s0.195-0.021,0.34-0.041l0.059,0.287c-0.098,0.031-0.199,0.053-0.305,0.064
		s-0.225,0.018-0.357,0.018c-0.426,0-0.749-0.139-0.97-0.416s-0.331-0.725-0.331-1.342v-4.383h-1.172v-0.322h1.172v-1.711H97.475z"
		/>
	<path fill="#555459" d="M100.92,469.667h-0.316v-9.141h0.316V469.667z"/>
	<path fill="#555459" d="M105.163,469.79c-0.723,0-1.347-0.292-1.872-0.876s-0.788-1.31-0.788-2.177v-0.375
		c0-0.91,0.254-1.663,0.762-2.259s1.135-0.894,1.881-0.894c0.715,0,1.298,0.234,1.749,0.703s0.677,1.098,0.677,1.887v0.486h-4.752
		v0.076v0.375c0,0.766,0.225,1.413,0.674,1.942s1.006,0.794,1.67,0.794c0.473,0,0.868-0.064,1.187-0.193s0.591-0.322,0.817-0.58
		l0.17,0.246c-0.25,0.277-0.554,0.487-0.911,0.63S105.647,469.79,105.163,469.79z M105.145,463.526c-0.629,0-1.152,0.229-1.57,0.688
		s-0.654,1.032-0.709,1.72l0.018,0.035h4.371v-0.193c0-0.645-0.195-1.181-0.586-1.608S105.77,463.526,105.145,463.526z"/>
	<path fill="#555459" d="M111.42,466.374c0-0.93,0.257-1.689,0.771-2.279s1.181-0.885,2.001-0.885c0.824,0,1.493,0.295,2.007,0.885
		s0.771,1.35,0.771,2.279v0.246c0,0.934-0.257,1.695-0.771,2.285s-1.179,0.885-1.995,0.885c-0.824,0-1.494-0.295-2.01-0.885
		s-0.773-1.352-0.773-2.285V466.374z M111.737,466.62c0,0.797,0.223,1.472,0.668,2.024s1.045,0.829,1.799,0.829
		c0.742,0,1.336-0.277,1.781-0.832s0.668-1.229,0.668-2.021v-0.246c0-0.777-0.225-1.446-0.674-2.007s-1.045-0.841-1.787-0.841
		c-0.746,0-1.342,0.28-1.787,0.841s-0.668,1.229-0.668,2.007V466.62z"/>
	<path fill="#555459" d="M118.967,469.667v-6.018h-1.102v-0.322h1.102v-1.043c0-0.598,0.146-1.061,0.437-1.389
		s0.698-0.492,1.222-0.492c0.129,0,0.257,0.008,0.384,0.023s0.249,0.041,0.366,0.076l-0.047,0.305
		c-0.125-0.031-0.235-0.054-0.331-0.067s-0.218-0.021-0.366-0.021c-0.422,0-0.752,0.139-0.99,0.416s-0.357,0.66-0.357,1.148v1.043
		h1.676v0.322h-1.676v6.018H118.967z"/>
	<path fill="#555459" d="M129.983,466.614c0,0.977-0.211,1.75-0.633,2.32s-1.004,0.855-1.746,0.855c-0.496,0-0.929-0.1-1.298-0.299
		s-0.657-0.469-0.864-0.809v3.422h-0.316v-8.777h0.246l0.064,1.137c0.211-0.391,0.498-0.697,0.861-0.92s0.795-0.334,1.295-0.334
		c0.746,0,1.331,0.296,1.755,0.888s0.636,1.39,0.636,2.394V466.614z M129.661,466.491c0-0.879-0.177-1.593-0.53-2.142
		s-0.864-0.823-1.532-0.823c-0.613,0-1.09,0.154-1.43,0.463s-0.582,0.688-0.727,1.137v2.965c0.156,0.422,0.418,0.758,0.785,1.008
		s0.828,0.375,1.383,0.375c0.668,0,1.177-0.258,1.526-0.773s0.524-1.211,0.524-2.086V466.491z"/>
	<path fill="#555459" d="M135.684,468.495c-0.219,0.383-0.545,0.694-0.979,0.935s-0.959,0.36-1.576,0.36
		c-0.59,0-1.053-0.161-1.389-0.483s-0.504-0.757-0.504-1.304c0-0.531,0.251-0.977,0.753-1.336s1.13-0.539,1.884-0.539h1.811v-0.926
		c0-0.527-0.169-0.938-0.507-1.233s-0.813-0.442-1.427-0.442c-0.574,0-1.036,0.139-1.386,0.416s-0.524,0.635-0.524,1.072
		l-0.264-0.012l-0.012-0.029c-0.023-0.492,0.168-0.909,0.574-1.251s0.943-0.513,1.611-0.513c0.68,0,1.225,0.172,1.635,0.516
		s0.615,0.84,0.615,1.488v3.176c0,0.223,0.013,0.439,0.038,0.65s0.067,0.42,0.126,0.627h-0.352
		c-0.051-0.277-0.085-0.485-0.103-0.624s-0.026-0.288-0.026-0.448V468.495z M133.129,469.479c0.629,0,1.161-0.139,1.597-0.416
		s0.755-0.674,0.958-1.189v-1.424h-1.793c-0.656,0-1.21,0.151-1.661,0.454s-0.677,0.677-0.677,1.122
		c0,0.426,0.144,0.774,0.431,1.046S132.653,469.479,133.129,469.479z"/>
	<path fill="#555459" d="M137.741,466.491c0-1.004,0.211-1.802,0.633-2.394s1.008-0.888,1.758-0.888c0.492,0,0.92,0.111,1.283,0.334
		s0.652,0.529,0.867,0.92l0.047-1.137h0.27v6.375c0,0.805-0.212,1.427-0.636,1.866s-1.011,0.659-1.761,0.659
		c-0.309,0-0.63-0.032-0.964-0.097s-0.626-0.153-0.876-0.267l0.094-0.316c0.285,0.125,0.561,0.218,0.826,0.278
		s0.568,0.091,0.908,0.091c0.684,0,1.202-0.19,1.556-0.571s0.53-0.929,0.53-1.644v-1.008c-0.215,0.336-0.506,0.603-0.873,0.8
		s-0.795,0.296-1.283,0.296c-0.746,0-1.329-0.285-1.749-0.855s-0.63-1.344-0.63-2.32V466.491z M138.063,466.614
		c0,0.875,0.174,1.57,0.521,2.086s0.857,0.773,1.529,0.773c0.551,0,1.008-0.124,1.371-0.372s0.627-0.579,0.791-0.993v-3
		c-0.156-0.449-0.403-0.825-0.741-1.128s-0.808-0.454-1.409-0.454c-0.672,0-1.184,0.274-1.535,0.823s-0.527,1.263-0.527,2.142
		V466.614z"/>
	<path fill="#555459" d="M146.77,469.79c-0.723,0-1.347-0.292-1.872-0.876s-0.788-1.31-0.788-2.177v-0.375
		c0-0.91,0.254-1.663,0.762-2.259s1.135-0.894,1.881-0.894c0.715,0,1.298,0.234,1.749,0.703s0.677,1.098,0.677,1.887v0.486h-4.752
		v0.076v0.375c0,0.766,0.225,1.413,0.674,1.942s1.006,0.794,1.67,0.794c0.473,0,0.868-0.064,1.187-0.193s0.591-0.322,0.817-0.58
		l0.17,0.246c-0.25,0.277-0.554,0.487-0.911,0.63S147.254,469.79,146.77,469.79z M146.752,463.526c-0.629,0-1.152,0.229-1.57,0.688
		s-0.654,1.032-0.709,1.72l0.018,0.035h4.371v-0.193c0-0.645-0.195-1.181-0.586-1.608S147.377,463.526,146.752,463.526z"/>
</g>
<path opacity="0.5" fill-rule="evenodd" clip-rule="evenodd" fill="#FFFFFF" d="M119.375,166.039c11.598,0,21,9.402,21,21
	c0,11.598-9.402,21-21,21c-11.598,0-21-9.402-21-21C98.375,175.441,107.777,166.039,119.375,166.039z"/>
<path fill-rule="evenodd" clip-rule="evenodd" fill="#FF9999" d="M119.375,169.039c9.941,0,18,8.059,18,18c0,9.941-8.059,18-18,18
	c-9.941,0-18-8.059-18-18C101.375,177.098,109.434,169.039,119.375,169.039z"/>
<g>
	<path d="M112.304,190.882h-0.762v-8.493l-2.349,0.273v-0.533l3.11-0.559V190.882z"/>
	<path d="M117.763,185.804h0.882c0.673,0,1.183-0.168,1.53-0.504s0.521-0.77,0.521-1.298c0-0.576-0.163-1.035-0.489-1.377
		s-0.811-0.514-1.454-0.514c-0.592,0-1.078,0.175-1.457,0.524c-0.378,0.349-0.568,0.809-0.568,1.38h-0.711l-0.013-0.038
		c-0.021-0.719,0.23-1.318,0.755-1.796s1.189-0.717,1.993-0.717c0.825,0,1.482,0.227,1.971,0.679s0.733,1.081,0.733,1.885
		c0,0.436-0.135,0.845-0.406,1.229c-0.271,0.383-0.652,0.667-1.143,0.854c0.576,0.165,1.006,0.443,1.292,0.835
		c0.286,0.391,0.429,0.854,0.429,1.387c0,0.821-0.266,1.466-0.797,1.936c-0.531,0.47-1.213,0.705-2.047,0.705
		c-0.808,0-1.502-0.229-2.082-0.688c-0.58-0.459-0.859-1.097-0.838-1.914l0.013-0.038h0.711c0,0.586,0.204,1.065,0.612,1.437
		c0.409,0.371,0.937,0.557,1.584,0.557c0.656,0,1.168-0.17,1.536-0.51c0.368-0.34,0.552-0.827,0.552-1.46
		c0-0.646-0.192-1.125-0.578-1.436s-0.935-0.466-1.65-0.466h-0.882V185.804z"/>
	<path d="M129.017,190.837h-5.738v-0.59l3.028-3.428c0.559-0.63,0.953-1.158,1.184-1.583c0.231-0.425,0.346-0.833,0.346-1.222
		c0-0.576-0.162-1.037-0.486-1.384s-0.782-0.521-1.374-0.521c-0.703,0-1.236,0.195-1.6,0.584s-0.546,0.91-0.546,1.562h-0.705
		l-0.013-0.038c-0.021-0.77,0.229-1.422,0.749-1.955s1.225-0.8,2.114-0.8c0.795,0,1.433,0.229,1.911,0.686s0.717,1.071,0.717,1.841
		c0,0.508-0.16,1.023-0.479,1.546c-0.319,0.522-0.765,1.105-1.336,1.749l-2.545,2.875l0.013,0.032h4.761V190.837z"/>
</g>
<path opacity="0.5" fill-rule="evenodd" clip-rule="evenodd" fill="#FFFFFF" d="M30,495c11.598,0,21,9.402,21,21s-9.402,21-21,21
	c-11.598,0-21-9.402-21-21S18.402,495,30,495z"/>
<path fill-rule="evenodd" clip-rule="evenodd" fill="#FF9999" d="M30,498c9.941,0,18,8.059,18,18s-8.059,18-18,18
	c-9.941,0-18-8.059-18-18S20.059,498,30,498z"/>
<g>
	<path d="M22.929,519.844h-0.762v-8.494l-2.349,0.273v-0.533l3.11-0.559V519.844z"/>
	<path d="M32.438,519.799h-5.738v-0.59l3.028-3.428c0.559-0.631,0.953-1.158,1.184-1.584c0.231-0.426,0.346-0.833,0.346-1.223
		c0-0.575-0.162-1.036-0.486-1.383c-0.324-0.348-0.782-0.521-1.374-0.521c-0.703,0-1.236,0.195-1.6,0.584
		c-0.364,0.39-0.546,0.91-0.546,1.563h-0.705l-0.013-0.039c-0.021-0.77,0.229-1.422,0.749-1.955s1.225-0.799,2.114-0.799
		c0.795,0,1.433,0.229,1.911,0.686s0.717,1.07,0.717,1.84c0,0.508-0.16,1.023-0.479,1.547c-0.319,0.521-0.765,1.105-1.336,1.748
		l-2.545,2.875l0.013,0.032h4.761V519.799z"/>
	<path d="M34.234,515.615l0.514-5.059h4.488v0.705h-3.84l-0.343,3.294c0.233-0.212,0.489-0.374,0.768-0.489
		c0.279-0.113,0.658-0.178,1.136-0.189c0.787-0.014,1.422,0.252,1.904,0.793s0.724,1.27,0.724,2.184c0,0.936-0.234,1.682-0.702,2.24
		c-0.467,0.559-1.171,0.838-2.11,0.838c-0.762,0-1.396-0.212-1.904-0.637c-0.508-0.426-0.751-1.056-0.73-1.889l0.013-0.039h0.679
		c0,0.621,0.177,1.096,0.53,1.424c0.354,0.329,0.824,0.494,1.413,0.494c0.686,0,1.199-0.207,1.539-0.621
		c0.341-0.414,0.511-1.015,0.511-1.801c0-0.689-0.17-1.242-0.511-1.658c-0.34-0.416-0.817-0.624-1.431-0.624
		c-0.592,0-1.044,0.095-1.355,0.282c-0.311,0.188-0.536,0.473-0.676,0.854L34.234,515.615z"/>
</g>
<path opacity="0.5" fill-rule="evenodd" clip-rule="evenodd" fill="#FFFFFF" d="M883,484c11.598,0,21,9.402,21,21s-9.402,21-21,21
	s-21-9.402-21-21S871.402,484,883,484z"/>
<path fill-rule="evenodd" clip-rule="evenodd" fill="#FF9999" d="M883,487c9.941,0,18,8.059,18,18s-8.059,18-18,18s-18-8.059-18-18
	S873.059,487,883,487z"/>
<g>
	<path d="M875.929,508.844h-0.762v-8.494l-2.349,0.273v-0.533l3.11-0.559V508.844z"/>
	<path d="M884.358,505.822h1.447v0.646h-1.447v2.33h-0.755v-2.33h-4.336v-0.436l4.26-6.477h0.831V505.822z M880.169,505.822h3.435
		v-5.27l-0.039-0.012l-0.323,0.691L880.169,505.822z"/>
	<path d="M887.234,504.615l0.514-5.059h4.488v0.705h-3.841l-0.343,3.294c0.232-0.212,0.488-0.374,0.768-0.489
		c0.279-0.113,0.658-0.178,1.137-0.189c0.787-0.014,1.422,0.252,1.904,0.793s0.724,1.27,0.724,2.184c0,0.936-0.233,1.682-0.702,2.24
		c-0.467,0.559-1.17,0.838-2.109,0.838c-0.762,0-1.396-0.212-1.904-0.637c-0.508-0.426-0.752-1.056-0.73-1.889l0.013-0.039h0.679
		c0,0.621,0.178,1.096,0.53,1.424c0.354,0.329,0.824,0.494,1.413,0.494c0.686,0,1.198-0.207,1.539-0.621
		c0.34-0.414,0.511-1.015,0.511-1.801c0-0.689-0.171-1.242-0.511-1.658c-0.341-0.416-0.818-0.624-1.432-0.624
		c-0.592,0-1.045,0.095-1.355,0.282c-0.311,0.188-0.536,0.473-0.676,0.854L887.234,504.615z"/>
</g>
<path opacity="0.5" fill-rule="evenodd" clip-rule="evenodd" fill="#FFFFFF" d="M835,263c11.598,0,21,9.402,21,21s-9.402,21-21,21
	s-21-9.402-21-21S823.402,263,835,263z"/>
<path fill-rule="evenodd" clip-rule="evenodd" fill="#FF9999" d="M835,266c9.941,0,18,8.059,18,18s-8.059,18-18,18s-18-8.059-18-18
	S825.059,266,835,266z"/>
<g>
	<path d="M827.929,287.843h-0.762v-8.493l-2.349,0.273v-0.533l3.11-0.559V287.843z"/>
	<path d="M837.438,287.799h-5.738v-0.59l3.027-3.428c0.559-0.63,0.953-1.158,1.184-1.583c0.231-0.425,0.347-0.833,0.347-1.222
		c0-0.576-0.162-1.037-0.485-1.384c-0.324-0.347-0.782-0.521-1.375-0.521c-0.702,0-1.235,0.195-1.6,0.584
		c-0.363,0.389-0.545,0.91-0.545,1.562h-0.705l-0.013-0.038c-0.021-0.77,0.229-1.422,0.749-1.955s1.225-0.8,2.113-0.8
		c0.796,0,1.434,0.229,1.911,0.686s0.718,1.071,0.718,1.841c0,0.508-0.16,1.023-0.48,1.546c-0.318,0.522-0.764,1.105-1.336,1.749
		l-2.545,2.875l0.013,0.032h4.761V287.799z"/>
	<path d="M842.141,278.423c0.318,0,0.631,0.036,0.939,0.108c0.31,0.072,0.584,0.176,0.826,0.311l-0.197,0.622
		c-0.241-0.135-0.48-0.235-0.717-0.298c-0.237-0.063-0.521-0.095-0.852-0.095c-0.686,0-1.254,0.267-1.704,0.8
		s-0.676,1.233-0.676,2.101v0.819c0.254-0.33,0.577-0.595,0.972-0.793c0.393-0.199,0.829-0.298,1.307-0.298
		c0.83,0,1.486,0.286,1.969,0.857s0.723,1.316,0.723,2.234c0,0.91-0.259,1.661-0.777,2.253c-0.518,0.592-1.191,0.889-2.021,0.889
		c-0.851,0-1.553-0.317-2.104-0.952s-0.828-1.504-0.828-2.609v-2.33c0-1.066,0.303-1.936,0.907-2.609
		C840.512,278.76,841.257,278.423,842.141,278.423z M841.887,282.321c-0.512,0-0.959,0.133-1.342,0.399s-0.645,0.609-0.784,1.027
		v0.679c0,0.883,0.203,1.581,0.609,2.092s0.927,0.767,1.562,0.767c0.617,0,1.111-0.242,1.482-0.726
		c0.37-0.484,0.555-1.075,0.555-1.772c0-0.74-0.18-1.335-0.539-1.788C843.07,282.547,842.556,282.321,841.887,282.321z"/>
</g>
<path opacity="0.5" fill-rule="evenodd" clip-rule="evenodd" fill="#FFFFFF" d="M507,508.5c8.561,0,15.5,6.939,15.5,15.5
	s-6.939,15.5-15.5,15.5s-15.5-6.939-15.5-15.5S498.439,508.5,507,508.5z"/>
<path fill-rule="evenodd" clip-rule="evenodd" fill="#FFCC66" d="M507,511.5c6.903,0,12.5,5.596,12.5,12.5s-5.597,12.5-12.5,12.5
	s-12.5-5.596-12.5-12.5S500.097,511.5,507,511.5z"/>
<g>
	<path d="M506.117,520.938c0,0.499-0.146,0.936-0.438,1.311c-0.293,0.374-0.682,0.646-1.168,0.815
		c0.563,0.174,1.014,0.462,1.355,0.866c0.34,0.404,0.51,0.877,0.51,1.419c0,0.829-0.275,1.468-0.83,1.914s-1.268,0.669-2.141,0.669
		c-0.889,0-1.605-0.222-2.154-0.666c-0.547-0.444-0.822-1.083-0.822-1.917c0-0.546,0.168-1.021,0.502-1.425s0.783-0.693,1.346-0.866
		c-0.486-0.17-0.873-0.44-1.158-0.813c-0.285-0.373-0.43-0.809-0.43-1.308c0-0.796,0.252-1.414,0.754-1.854
		c0.5-0.44,1.15-0.66,1.951-0.66c0.795,0,1.449,0.221,1.959,0.663S506.117,520.146,506.117,520.938z M505.615,525.353
		c0-0.583-0.211-1.057-0.635-1.423c-0.422-0.365-0.951-0.548-1.586-0.548c-0.643,0-1.172,0.183-1.588,0.548
		c-0.414,0.366-0.621,0.84-0.621,1.423c0,0.604,0.205,1.078,0.615,1.42s0.945,0.514,1.605,0.514c0.645,0,1.174-0.173,1.588-0.517
		C505.408,526.425,505.615,525.953,505.615,525.353z M505.355,520.932c0-0.533-0.188-0.977-0.561-1.33
		c-0.375-0.354-0.842-0.529-1.4-0.529c-0.572,0-1.039,0.169-1.402,0.508c-0.365,0.338-0.547,0.789-0.547,1.352
		c0,0.546,0.184,0.982,0.549,1.311c0.367,0.328,0.838,0.492,1.412,0.492c0.564,0,1.029-0.164,1.396-0.492
		C505.172,521.914,505.355,521.478,505.355,520.932z"/>
	<path d="M513.322,520.938c0,0.499-0.146,0.936-0.439,1.311c-0.291,0.374-0.68,0.646-1.168,0.815
		c0.564,0.174,1.016,0.462,1.355,0.866c0.342,0.404,0.512,0.877,0.512,1.419c0,0.829-0.277,1.468-0.832,1.914
		s-1.268,0.669-2.139,0.669c-0.889,0-1.607-0.222-2.154-0.666c-0.549-0.444-0.822-1.083-0.822-1.917c0-0.546,0.166-1.021,0.5-1.425
		c0.336-0.404,0.783-0.693,1.346-0.866c-0.486-0.17-0.871-0.44-1.158-0.813c-0.285-0.373-0.428-0.809-0.428-1.308
		c0-0.796,0.25-1.414,0.752-1.854c0.502-0.44,1.152-0.66,1.951-0.66c0.797,0,1.449,0.221,1.959,0.663
		S513.322,520.146,513.322,520.938z M512.82,525.353c0-0.583-0.211-1.057-0.635-1.423c-0.424-0.365-0.953-0.548-1.588-0.548
		c-0.643,0-1.172,0.183-1.586,0.548c-0.414,0.366-0.623,0.84-0.623,1.423c0,0.604,0.207,1.078,0.617,1.42s0.945,0.514,1.605,0.514
		c0.643,0,1.172-0.173,1.586-0.517C512.613,526.425,512.82,525.953,512.82,525.353z M512.561,520.932
		c0-0.533-0.188-0.977-0.563-1.33s-0.842-0.529-1.4-0.529c-0.57,0-1.037,0.169-1.402,0.508c-0.363,0.338-0.545,0.789-0.545,1.352
		c0,0.546,0.182,0.982,0.549,1.311c0.365,0.328,0.836,0.492,1.412,0.492c0.563,0,1.027-0.164,1.396-0.492
		C512.375,521.914,512.561,521.478,512.561,520.932z"/>
</g>
<path opacity="0.5" fill-rule="evenodd" clip-rule="evenodd" fill="#FFFFFF" d="M727,488.998c8.561,0,15.5,6.939,15.5,15.5
	s-6.939,15.5-15.5,15.5s-15.5-6.939-15.5-15.5S718.439,488.998,727,488.998z"/>
<path fill-rule="evenodd" clip-rule="evenodd" fill="#FFCC66" d="M727,491.998c6.903,0,12.5,5.596,12.5,12.5s-5.597,12.5-12.5,12.5
	s-12.5-5.596-12.5-12.5S720.097,491.998,727,491.998z"/>
<g>
	<path d="M723.039,507.784c0.703,0,1.262-0.234,1.676-0.703s0.621-1.14,0.621-2.014v-0.927c-0.223,0.389-0.525,0.689-0.904,0.901
		c-0.379,0.211-0.801,0.317-1.266,0.317c-0.842,0-1.52-0.292-2.035-0.876c-0.514-0.584-0.771-1.34-0.771-2.267
		c0-0.936,0.271-1.718,0.811-2.349s1.207-0.945,2.002-0.945c0.893,0,1.609,0.29,2.146,0.872s0.805,1.428,0.805,2.536v2.724
		c0,1.07-0.283,1.9-0.85,2.491c-0.566,0.59-1.313,0.885-2.234,0.885c-0.33,0-0.662-0.031-0.994-0.096s-0.648-0.162-0.949-0.295
		l0.141-0.637c0.287,0.135,0.572,0.232,0.854,0.292C722.371,507.754,722.688,507.784,723.039,507.784z M723.166,504.712
		c0.551,0,1.01-0.141,1.381-0.422c0.369-0.281,0.633-0.629,0.789-1.043v-0.977c0-0.875-0.191-1.544-0.574-2.007
		c-0.383-0.462-0.902-0.693-1.559-0.693c-0.596,0-1.088,0.258-1.475,0.773s-0.582,1.139-0.582,1.87c0,0.71,0.184,1.304,0.547,1.781
		S722.549,504.712,723.166,504.712z"/>
	<path d="M733.551,499.703c-1,1.185-1.764,2.388-2.293,3.608c-0.527,1.221-0.881,2.625-1.059,4.212l-0.07,0.774h-0.762l0.07-0.774
		c0.178-1.565,0.545-2.982,1.104-4.25s1.299-2.457,2.223-3.57h-5.275v-0.647h6.063V499.703z"/>
</g>
<path opacity="0.5" fill-rule="evenodd" clip-rule="evenodd" fill="#FFFFFF" d="M494.535,163c8.561,0,15.5,6.939,15.5,15.5
	s-6.939,15.5-15.5,15.5s-15.5-6.939-15.5-15.5S485.975,163,494.535,163z"/>
<path fill-rule="evenodd" clip-rule="evenodd" fill="#FFCC66" d="M494.535,166c6.903,0,12.5,5.596,12.5,12.5s-5.597,12.5-12.5,12.5
	s-12.5-5.596-12.5-12.5S487.632,166,494.535,166z"/>
<g>
	<path d="M490.574,181.786c0.703,0,1.262-0.234,1.676-0.703s0.621-1.14,0.621-2.014v-0.927c-0.223,0.389-0.525,0.689-0.904,0.901
		c-0.379,0.211-0.801,0.317-1.266,0.317c-0.842,0-1.52-0.292-2.035-0.876c-0.514-0.584-0.771-1.34-0.771-2.267
		c0-0.936,0.271-1.718,0.811-2.349s1.207-0.945,2.002-0.945c0.893,0,1.609,0.29,2.146,0.872s0.805,1.428,0.805,2.536v2.724
		c0,1.07-0.283,1.9-0.85,2.491c-0.566,0.59-1.313,0.885-2.234,0.885c-0.33,0-0.662-0.031-0.994-0.096s-0.648-0.162-0.949-0.295
		l0.141-0.637c0.287,0.135,0.572,0.232,0.854,0.292C489.906,181.756,490.223,181.786,490.574,181.786z M490.701,178.714
		c0.551,0,1.01-0.141,1.381-0.422c0.369-0.281,0.633-0.629,0.789-1.043v-0.977c0-0.875-0.191-1.544-0.574-2.007
		c-0.383-0.462-0.902-0.693-1.559-0.693c-0.596,0-1.088,0.258-1.475,0.773s-0.582,1.139-0.582,1.87c0,0.71,0.184,1.304,0.547,1.781
		S490.084,178.714,490.701,178.714z"/>
	<path d="M498.641,172.925c0.318,0,0.631,0.035,0.939,0.107c0.311,0.072,0.584,0.176,0.826,0.312l-0.197,0.622
		c-0.24-0.136-0.48-0.235-0.717-0.299s-0.521-0.095-0.852-0.095c-0.686,0-1.252,0.267-1.703,0.8s-0.676,1.233-0.676,2.101v0.819
		c0.254-0.33,0.576-0.595,0.971-0.794c0.393-0.199,0.83-0.298,1.307-0.298c0.83,0,1.486,0.285,1.969,0.856s0.723,1.316,0.723,2.234
		c0,0.91-0.258,1.661-0.777,2.254c-0.518,0.592-1.191,0.888-2.021,0.888c-0.85,0-1.551-0.316-2.104-0.951s-0.828-1.505-0.828-2.609
		v-2.329c0-1.066,0.303-1.937,0.906-2.609C497.012,173.261,497.758,172.925,498.641,172.925z M498.387,176.822
		c-0.512,0-0.959,0.133-1.342,0.398c-0.383,0.267-0.645,0.609-0.783,1.027v0.679c0,0.883,0.203,1.58,0.609,2.092
		s0.926,0.768,1.561,0.768c0.619,0,1.113-0.242,1.482-0.727c0.371-0.483,0.555-1.074,0.555-1.771c0-0.739-0.18-1.336-0.539-1.788
		S499.057,176.822,498.387,176.822z"/>
</g>
<path opacity="0.5" fill-rule="evenodd" clip-rule="evenodd" fill="#FFFFFF" d="M418.833,163c8.561,0,15.5,6.939,15.5,15.5
	s-6.939,15.5-15.5,15.5s-15.5-6.939-15.5-15.5S410.273,163,418.833,163z"/>
<path fill-rule="evenodd" clip-rule="evenodd" fill="#CCFF99" d="M418.833,166c6.903,0,12.5,5.596,12.5,12.5s-5.597,12.5-12.5,12.5
	s-12.5-5.596-12.5-12.5S411.93,166,418.833,166z"/>
<g>
	<path d="M414.187,177.267h0.883c0.673,0,1.183-0.169,1.529-0.505c0.348-0.337,0.521-0.77,0.521-1.298
		c0-0.576-0.162-1.035-0.488-1.378s-0.811-0.514-1.454-0.514c-0.592,0-1.077,0.174-1.456,0.523c-0.379,0.349-0.568,0.81-0.568,1.381
		h-0.711l-0.013-0.038c-0.021-0.72,0.23-1.318,0.755-1.797c0.525-0.479,1.189-0.717,1.993-0.717c0.825,0,1.482,0.226,1.972,0.679
		c0.488,0.453,0.732,1.081,0.732,1.886c0,0.436-0.135,0.845-0.406,1.228c-0.271,0.383-0.651,0.668-1.143,0.854
		c0.576,0.165,1.007,0.442,1.292,0.834c0.286,0.392,0.429,0.854,0.429,1.388c0,0.82-0.266,1.466-0.797,1.936
		s-1.213,0.704-2.047,0.704c-0.809,0-1.502-0.229-2.082-0.688s-0.859-1.097-0.838-1.913l0.013-0.038h0.711
		c0,0.586,0.204,1.064,0.612,1.436s0.937,0.558,1.584,0.558c0.656,0,1.168-0.171,1.536-0.511s0.552-0.827,0.552-1.461
		c0-0.646-0.192-1.124-0.577-1.435s-0.936-0.466-1.65-0.466h-0.883V177.267z"/>
	<path d="M422.939,172.925c0.317,0,0.631,0.035,0.939,0.107c0.31,0.072,0.584,0.176,0.825,0.312l-0.196,0.622
		c-0.241-0.136-0.48-0.235-0.718-0.299c-0.236-0.063-0.521-0.095-0.851-0.095c-0.686,0-1.253,0.267-1.704,0.8
		c-0.45,0.533-0.676,1.233-0.676,2.101v0.819c0.254-0.33,0.577-0.595,0.971-0.794s0.83-0.298,1.308-0.298
		c0.83,0,1.485,0.285,1.968,0.856s0.724,1.316,0.724,2.234c0,0.91-0.259,1.661-0.777,2.254c-0.519,0.592-1.192,0.888-2.021,0.888
		c-0.851,0-1.552-0.316-2.104-0.951c-0.552-0.635-0.828-1.505-0.828-2.609v-2.329c0-1.066,0.303-1.937,0.907-2.609
		C421.311,173.261,422.056,172.925,422.939,172.925z M422.686,176.822c-0.512,0-0.959,0.133-1.342,0.398
		c-0.383,0.267-0.645,0.609-0.784,1.027v0.679c0,0.883,0.203,1.58,0.609,2.092s0.927,0.768,1.562,0.768
		c0.618,0,1.112-0.242,1.482-0.727c0.37-0.483,0.555-1.074,0.555-1.771c0-0.739-0.18-1.336-0.539-1.788
		S423.354,176.822,422.686,176.822z"/>
</g>
<path opacity="0.5" fill-rule="evenodd" clip-rule="evenodd" fill="#FFFFFF" d="M487.166,211.001c8.561,0,15.5,6.939,15.5,15.5
	s-6.939,15.5-15.5,15.5s-15.5-6.939-15.5-15.5S478.605,211.001,487.166,211.001z"/>
<path fill-rule="evenodd" clip-rule="evenodd" fill="#FFFF99" d="M487.166,214.001c6.903,0,12.5,5.596,12.5,12.5
	s-5.597,12.5-12.5,12.5s-12.5-5.596-12.5-12.5S480.263,214.001,487.166,214.001z"/>
<g>
	<path d="M486.512,221.707c-0.998,1.185-1.762,2.388-2.291,3.608s-0.883,2.625-1.061,4.212l-0.07,0.774h-0.762l0.07-0.774
		c0.178-1.565,0.547-2.982,1.105-4.25s1.299-2.457,2.221-3.57h-5.275v-0.647h6.063V221.707z"/>
	<path d="M492.693,227.325h1.447v0.647h-1.447v2.329h-0.754v-2.329h-4.336v-0.437l4.26-6.477h0.83V227.325z M488.504,227.325h3.436
		v-5.269l-0.039-0.013l-0.324,0.691L488.504,227.325z"/>
</g>
<path opacity="0.5" fill-rule="evenodd" clip-rule="evenodd" fill="#FFFFFF" d="M185.333,254.799c8.561,0,15.5,6.939,15.5,15.5
	s-6.939,15.5-15.5,15.5s-15.5-6.939-15.5-15.5S176.773,254.799,185.333,254.799z"/>
<path fill-rule="evenodd" clip-rule="evenodd" fill="#FFFF99" d="M185.333,257.799c6.903,0,12.5,5.596,12.5,12.5
	s-5.597,12.5-12.5,12.5s-12.5-5.596-12.5-12.5S178.43,257.799,185.333,257.799z"/>
<g>
	<path d="M184.68,265.504c-0.999,1.185-1.763,2.388-2.292,3.608c-0.528,1.221-0.882,2.625-1.06,4.212l-0.07,0.774h-0.762l0.07-0.774
		c0.178-1.565,0.546-2.982,1.104-4.25s1.299-2.457,2.222-3.57h-5.275v-0.647h6.063V265.504z"/>
	<path d="M191.94,274.099h-5.738v-0.59l3.028-3.428c0.559-0.631,0.953-1.159,1.184-1.584c0.23-0.426,0.346-0.833,0.346-1.222
		c0-0.576-0.161-1.037-0.485-1.384c-0.323-0.348-0.781-0.521-1.374-0.521c-0.702,0-1.235,0.194-1.6,0.584
		c-0.364,0.389-0.546,0.909-0.546,1.562h-0.705l-0.013-0.038c-0.021-0.771,0.229-1.422,0.749-1.955s1.226-0.8,2.114-0.8
		c0.796,0,1.433,0.229,1.91,0.686c0.479,0.457,0.718,1.07,0.718,1.841c0,0.508-0.16,1.022-0.479,1.545s-0.765,1.105-1.336,1.749
		l-2.546,2.876l0.013,0.031h4.761V274.099z"/>
</g>
<path opacity="0.5" fill-rule="evenodd" clip-rule="evenodd" fill="#FFFFFF" d="M150,298c8.561,0,15.5,6.939,15.5,15.5
	S158.561,329,150,329s-15.5-6.939-15.5-15.5S141.439,298,150,298z"/>
<path fill-rule="evenodd" clip-rule="evenodd" fill="#CCFF99" d="M150,301c6.903,0,12.5,5.596,12.5,12.5S156.903,326,150,326
	s-12.5-5.596-12.5-12.5S143.097,301,150,301z"/>
<g>
	<path d="M143.995,313.117l0.515-5.06h4.487v0.705h-3.84l-0.343,3.294c0.232-0.212,0.488-0.374,0.768-0.488s0.658-0.178,1.137-0.19
		c0.787-0.013,1.422,0.251,1.904,0.793s0.724,1.27,0.724,2.184c0,0.936-0.233,1.683-0.701,2.241s-1.172,0.837-2.111,0.837
		c-0.762,0-1.396-0.212-1.904-0.638c-0.508-0.425-0.751-1.055-0.729-1.888l0.013-0.038h0.679c0,0.619,0.177,1.094,0.53,1.423
		s0.824,0.494,1.412,0.494c0.686,0,1.199-0.207,1.54-0.622c0.341-0.414,0.511-1.014,0.511-1.8c0-0.688-0.17-1.241-0.511-1.658
		c-0.341-0.416-0.818-0.624-1.432-0.624c-0.593,0-1.044,0.094-1.355,0.282c-0.311,0.188-0.536,0.474-0.676,0.854L143.995,313.117z"
		/>
	<path d="M156.607,317.3h-5.738v-0.59l3.028-3.428c0.559-0.631,0.953-1.159,1.184-1.584c0.23-0.426,0.346-0.833,0.346-1.222
		c0-0.576-0.161-1.037-0.485-1.384c-0.323-0.348-0.781-0.521-1.374-0.521c-0.702,0-1.235,0.194-1.6,0.584
		c-0.364,0.389-0.546,0.909-0.546,1.562h-0.705l-0.013-0.038c-0.021-0.771,0.229-1.422,0.749-1.955s1.226-0.8,2.114-0.8
		c0.796,0,1.433,0.229,1.91,0.686c0.479,0.457,0.718,1.07,0.718,1.841c0,0.508-0.16,1.022-0.479,1.545s-0.765,1.105-1.336,1.749
		l-2.546,2.876l0.013,0.031h4.761V317.3z"/>
</g>
<path opacity="0.5" fill-rule="evenodd" clip-rule="evenodd" fill="#FFFFFF" d="M30,550.504c8.561,0,15.5,6.939,15.5,15.5
	s-6.939,15.5-15.5,15.5s-15.5-6.939-15.5-15.5S21.439,550.504,30,550.504z"/>
<path fill-rule="evenodd" clip-rule="evenodd" fill="#FFFF99" d="M30,553.504c6.903,0,12.5,5.596,12.5,12.5s-5.597,12.5-12.5,12.5
	s-12.5-5.596-12.5-12.5S23.097,553.504,30,553.504z"/>
<g>
	<path d="M29.346,561.209c-0.999,1.185-1.763,2.388-2.292,3.608c-0.528,1.221-0.882,2.625-1.06,4.212l-0.07,0.774h-0.762l0.07-0.774
		c0.178-1.565,0.546-2.982,1.104-4.25s1.299-2.457,2.222-3.57h-5.275v-0.647h6.063V561.209z"/>
	<path d="M34.303,569.848h-0.762v-8.492l-2.349,0.272v-0.533l3.11-0.559V569.848z"/>
</g>
<path opacity="0.5" fill-rule="evenodd" clip-rule="evenodd" fill="#FFFFFF" d="M376.25,582.75c8.561,0,15.5,6.939,15.5,15.5
	s-6.939,15.5-15.5,15.5s-15.5-6.939-15.5-15.5S367.689,582.75,376.25,582.75z"/>
<path fill-rule="evenodd" clip-rule="evenodd" fill="#CCFF99" d="M376.25,585.75c6.903,0,12.5,5.596,12.5,12.5
	s-5.597,12.5-12.5,12.5s-12.5-5.596-12.5-12.5S369.347,585.75,376.25,585.75z"/>
<g>
	<path d="M371.603,597.017h0.883c0.673,0,1.183-0.169,1.529-0.505c0.348-0.337,0.521-0.77,0.521-1.298
		c0-0.576-0.162-1.035-0.488-1.378s-0.811-0.514-1.454-0.514c-0.592,0-1.077,0.174-1.456,0.523c-0.379,0.349-0.568,0.81-0.568,1.381
		h-0.711l-0.013-0.038c-0.021-0.72,0.23-1.318,0.755-1.797c0.525-0.479,1.189-0.717,1.993-0.717c0.825,0,1.482,0.226,1.972,0.679
		c0.488,0.453,0.732,1.081,0.732,1.886c0,0.436-0.135,0.845-0.406,1.228c-0.271,0.383-0.651,0.668-1.143,0.854
		c0.576,0.165,1.007,0.442,1.292,0.834c0.286,0.392,0.429,0.854,0.429,1.388c0,0.82-0.266,1.466-0.797,1.936
		s-1.213,0.704-2.047,0.704c-0.809,0-1.502-0.229-2.082-0.688s-0.859-1.097-0.838-1.913l0.013-0.038h0.711
		c0,0.586,0.204,1.064,0.612,1.436s0.937,0.558,1.584,0.558c0.656,0,1.168-0.171,1.536-0.511s0.552-0.827,0.552-1.461
		c0-0.646-0.192-1.124-0.577-1.435s-0.936-0.466-1.65-0.466h-0.883V597.017z"/>
	<path d="M380.356,592.675c0.317,0,0.631,0.035,0.939,0.107c0.31,0.072,0.584,0.176,0.825,0.312l-0.196,0.622
		c-0.241-0.136-0.48-0.235-0.718-0.299c-0.236-0.063-0.521-0.095-0.851-0.095c-0.686,0-1.253,0.267-1.704,0.8
		c-0.45,0.533-0.676,1.233-0.676,2.101v0.819c0.254-0.33,0.577-0.595,0.971-0.794s0.83-0.298,1.308-0.298
		c0.83,0,1.485,0.285,1.968,0.856s0.724,1.316,0.724,2.234c0,0.91-0.259,1.661-0.777,2.254c-0.519,0.592-1.192,0.888-2.021,0.888
		c-0.851,0-1.552-0.316-2.104-0.951c-0.552-0.635-0.828-1.505-0.828-2.609v-2.329c0-1.066,0.303-1.937,0.907-2.609
		C378.727,593.011,379.472,592.675,380.356,592.675z M380.102,596.572c-0.512,0-0.959,0.133-1.342,0.398
		c-0.383,0.267-0.645,0.609-0.784,1.027v0.679c0,0.883,0.203,1.58,0.609,2.092s0.927,0.768,1.562,0.768
		c0.618,0,1.112-0.242,1.482-0.727c0.37-0.483,0.555-1.074,0.555-1.771c0-0.739-0.18-1.336-0.539-1.788
		S380.771,596.572,380.102,596.572z"/>
</g>
<path opacity="0.5" fill-rule="evenodd" clip-rule="evenodd" fill="#FFFFFF" d="M427.167,675c8.561,0,15.5,6.939,15.5,15.5
	s-6.939,15.5-15.5,15.5s-15.5-6.939-15.5-15.5S418.606,675,427.167,675z"/>
<path fill-rule="evenodd" clip-rule="evenodd" fill="#FFFF99" d="M427.167,678c6.903,0,12.5,5.596,12.5,12.5s-5.597,12.5-12.5,12.5
	s-12.5-5.596-12.5-12.5S420.263,678,427.167,678z"/>
<g>
	<path d="M426.513,685.705c-0.999,1.185-1.763,2.388-2.292,3.608c-0.528,1.221-0.882,2.625-1.06,4.212l-0.07,0.774h-0.762
		l0.07-0.774c0.178-1.565,0.546-2.982,1.104-4.25s1.299-2.457,2.222-3.57h-5.275v-0.647h6.063V685.705z"/>
	<path d="M432.694,691.323h1.447v0.647h-1.447v2.329h-0.755v-2.329h-4.336v-0.437l4.26-6.477h0.831V691.323z M428.505,691.323h3.435
		v-5.269l-0.038-0.013l-0.324,0.691L428.505,691.323z"/>
</g>
<path opacity="0.5" fill-rule="evenodd" clip-rule="evenodd" fill="#FFFFFF" d="M742,162.5c8.561,0,15.5,6.939,15.5,15.5
	s-6.939,15.5-15.5,15.5s-15.5-6.939-15.5-15.5S733.439,162.5,742,162.5z"/>
<path fill-rule="evenodd" clip-rule="evenodd" fill="#CCFF99" d="M742,165.5c6.903,0,12.5,5.596,12.5,12.5s-5.597,12.5-12.5,12.5
	s-12.5-5.596-12.5-12.5S735.097,165.5,742,165.5z"/>
<g>
	<path d="M741.402,181.8h-5.738v-0.59l3.029-3.428c0.559-0.631,0.953-1.159,1.184-1.584c0.23-0.426,0.346-0.833,0.346-1.222
		c0-0.576-0.162-1.037-0.486-1.384c-0.322-0.348-0.781-0.521-1.373-0.521c-0.703,0-1.236,0.194-1.6,0.584
		c-0.365,0.389-0.547,0.909-0.547,1.562h-0.705l-0.012-0.038c-0.021-0.771,0.229-1.422,0.748-1.955c0.521-0.533,1.227-0.8,2.115-0.8
		c0.795,0,1.432,0.229,1.91,0.686s0.717,1.07,0.717,1.841c0,0.508-0.16,1.022-0.479,1.545c-0.32,0.522-0.766,1.105-1.336,1.749
		l-2.547,2.876l0.014,0.031h4.76V181.8z"/>
	<path d="M747.527,178.823h1.447v0.647h-1.447v2.329h-0.754v-2.329h-4.336v-0.437l4.26-6.477h0.83V178.823z M743.338,178.823h3.436
		v-5.269l-0.039-0.013l-0.324,0.691L743.338,178.823z"/>
</g>
<path opacity="0.5" fill-rule="evenodd" clip-rule="evenodd" fill="#FFFFFF" d="M798.924,163c8.561,0,15.5,6.939,15.5,15.5
	s-6.939,15.5-15.5,15.5s-15.5-6.939-15.5-15.5S790.363,163,798.924,163z"/>
<path fill-rule="evenodd" clip-rule="evenodd" fill="#CCFF99" d="M798.924,166c6.903,0,12.5,5.596,12.5,12.5s-5.597,12.5-12.5,12.5
	s-12.5-5.596-12.5-12.5S792.021,166,798.924,166z"/>
<g>
	<path d="M796.181,182.344h-0.75v-8.493l-2.315,0.273v-0.533l3.065-0.559V182.344z"/>
	<path d="M802.236,181.786c0.692,0,1.243-0.234,1.652-0.703c0.408-0.469,0.612-1.14,0.612-2.014v-0.927
		c-0.221,0.389-0.518,0.69-0.891,0.901c-0.374,0.211-0.79,0.317-1.248,0.317c-0.83,0-1.499-0.292-2.006-0.876
		c-0.506-0.584-0.76-1.339-0.76-2.266c0-0.935,0.266-1.718,0.798-2.349c0.531-0.63,1.189-0.946,1.974-0.946
		c0.88,0,1.585,0.291,2.114,0.873c0.529,0.582,0.795,1.427,0.795,2.536v2.723c0,1.071-0.279,1.901-0.839,2.492
		c-0.559,0.59-1.293,0.885-2.202,0.885c-0.325,0-0.651-0.032-0.979-0.096s-0.64-0.163-0.936-0.295l0.138-0.637
		c0.284,0.135,0.564,0.233,0.842,0.292S801.891,181.786,802.236,181.786z M802.362,178.713c0.542,0,0.995-0.141,1.36-0.421
		c0.364-0.281,0.624-0.629,0.778-1.043v-0.977c0-0.875-0.188-1.543-0.565-2.006c-0.378-0.463-0.89-0.694-1.536-0.694
		c-0.588,0-1.073,0.258-1.454,0.773c-0.382,0.516-0.573,1.139-0.573,1.87c0,0.71,0.18,1.304,0.538,1.782
		C801.27,178.475,801.753,178.713,802.362,178.713z"/>
</g>
<rect x="14" y="261" fill-rule="evenodd" clip-rule="evenodd" fill="#C7CAD8" width="100" height="3"/>
<rect x="14" y="266" fill-rule="evenodd" clip-rule="evenodd" fill="#C7CAD8" width="100" height="3"/>
<rect x="14" y="271" fill-rule="evenodd" clip-rule="evenodd" fill="#C7CAD8" width="100" height="3"/>
<rect x="14" y="276" fill-rule="evenodd" clip-rule="evenodd" fill="#C7CAD8" width="100" height="3"/>
<rect x="14" y="281" fill-rule="evenodd" clip-rule="evenodd" fill="#C7CAD8" width="100" height="3"/>
<rect x="14" y="286" fill-rule="evenodd" clip-rule="evenodd" fill="#C7CAD8" width="100" height="3"/>
<rect x="14" y="248" fill-rule="evenodd" clip-rule="evenodd" fill="#8C90A5" width="58" height="3"/>
<rect x="124" y="500" fill-rule="evenodd" clip-rule="evenodd" fill="#C7CAD8" width="100" height="130"/>
<rect x="55" y="559" fill-rule="evenodd" clip-rule="evenodd" fill="#C7CAD8" width="59" height="3"/>
<rect x="55" y="565" fill-rule="evenodd" clip-rule="evenodd" fill="#C7CAD8" width="59" height="3"/>
<rect x="55" y="571" fill-rule="evenodd" clip-rule="evenodd" fill="#C7CAD8" width="59" height="3"/>
<rect x="55" y="577" fill-rule="evenodd" clip-rule="evenodd" fill="#C7CAD8" width="59" height="3"/>
<rect x="55" y="551" fill-rule="evenodd" clip-rule="evenodd" fill="#8C90A5" width="31" height="4"/>
<rect x="55" y="607" fill-rule="evenodd" clip-rule="evenodd" fill="#C7CAD8" width="59" height="3"/>
<rect x="55" y="613" fill-rule="evenodd" clip-rule="evenodd" fill="#C7CAD8" width="59" height="3"/>
<rect x="55" y="619" fill-rule="evenodd" clip-rule="evenodd" fill="#C7CAD8" width="59" height="3"/>
<rect x="55" y="625" fill-rule="evenodd" clip-rule="evenodd" fill="#C7CAD8" width="59" height="3"/>
<rect x="55" y="599" fill-rule="evenodd" clip-rule="evenodd" fill="#8C90A5" width="31" height="4"/>
<rect x="55" y="509" fill-rule="evenodd" clip-rule="evenodd" fill="#C7CAD8" width="59" height="3"/>
<rect x="55" y="515" fill-rule="evenodd" clip-rule="evenodd" fill="#C7CAD8" width="59" height="3"/>
<rect x="55" y="521" fill-rule="evenodd" clip-rule="evenodd" fill="#C7CAD8" width="59" height="3"/>
<rect x="55" y="527" fill-rule="evenodd" clip-rule="evenodd" fill="#C7CAD8" width="59" height="3"/>
<rect x="55" y="501" fill-rule="evenodd" clip-rule="evenodd" fill="#8C90A5" width="31" height="4"/>
<rect x="14" y="599" fill-rule="evenodd" clip-rule="evenodd" fill="#C7CAD8" width="31" height="31"/>
<circle fill-rule="evenodd" clip-rule="evenodd" fill="#8C90A5" cx="109.5" cy="216.5" r="2.5"/>
<circle fill-rule="evenodd" clip-rule="evenodd" fill="#8C90A5" cx="118.5" cy="216.5" r="2.5"/>
<circle fill-rule="evenodd" clip-rule="evenodd" fill="#8C90A5" cx="127.5" cy="216.5" r="2.5"/>
<rect x="353" y="639" fill-rule="evenodd" clip-rule="evenodd" fill="#C7CAD8" width="45" height="3"/>
<rect x="353" y="644" fill-rule="evenodd" clip-rule="evenodd" fill="#C7CAD8" width="45" height="3"/>
<rect x="353" y="649" fill-rule="evenodd" clip-rule="evenodd" fill="#C7CAD8" width="45" height="3"/>
<rect x="360" y="631" fill-rule="evenodd" clip-rule="evenodd" fill="#8C90A5" width="31" height="4"/>
<rect x="437" y="639" fill-rule="evenodd" clip-rule="evenodd" fill="#C7CAD8" width="45" height="3"/>
<rect x="437" y="644" fill-rule="evenodd" clip-rule="evenodd" fill="#C7CAD8" width="45" height="3"/>
<rect x="437" y="649" fill-rule="evenodd" clip-rule="evenodd" fill="#C7CAD8" width="45" height="3"/>
<rect x="444" y="631" fill-rule="evenodd" clip-rule="evenodd" fill="#8C90A5" width="31" height="4"/>
<rect x="519" y="639" fill-rule="evenodd" clip-rule="evenodd" fill="#C7CAD8" width="45" height="3"/>
<rect x="519" y="644" fill-rule="evenodd" clip-rule="evenodd" fill="#C7CAD8" width="45" height="3"/>
<rect x="519" y="649" fill-rule="evenodd" clip-rule="evenodd" fill="#C7CAD8" width="45" height="3"/>
<rect x="526" y="631" fill-rule="evenodd" clip-rule="evenodd" fill="#8C90A5" width="31" height="4"/>
<rect x="404" y="202" fill-rule="evenodd" clip-rule="evenodd" fill="#8C90A5" width="37" height="3"/>
<rect x="477" y="202" fill-rule="evenodd" clip-rule="evenodd" fill="#8C90A5" width="37" height="3"/>
<rect x="767" y="526" fill-rule="evenodd" clip-rule="evenodd" fill="#8C90A5" width="60" height="3"/>
<rect x="767" y="531" fill-rule="evenodd" clip-rule="evenodd" fill="#8C90A5" width="60" height="3"/>
<rect x="726" y="215" fill-rule="evenodd" clip-rule="evenodd" fill="#C7CAD8" width="31" height="31"/>
<rect x="723" y="250" fill-rule="evenodd" clip-rule="evenodd" fill="#8C90A5" width="37" height="3"/>
<rect x="783" y="215" fill-rule="evenodd" clip-rule="evenodd" fill="#C7CAD8" width="31" height="31"/>
<rect x="780" y="250" fill-rule="evenodd" clip-rule="evenodd" fill="#8C90A5" width="37" height="3"/>
<rect x="840" y="215" fill-rule="evenodd" clip-rule="evenodd" fill="#C7CAD8" width="31" height="31"/>
<rect x="837" y="250" fill-rule="evenodd" clip-rule="evenodd" fill="#8C90A5" width="37" height="3"/>
<path opacity="0.1" fill-rule="evenodd" clip-rule="evenodd" fill="#000033" d="M620.147,375H416.853
	c-16.211,0-31.352,9.995-33.817,22.5c-2.466,12.506,8.677,22.5,24.888,22.5H547.32l-34.82,96.714L566.387,420h44.831
	c16.211,0,31.352-9.994,33.817-22.5C647.501,384.995,636.358,375,620.147,375z"/>
<path fill-rule="evenodd" clip-rule="evenodd" fill="#333333" d="M591.647,332H388.353C372.142,332,359,345.207,359,361.5
	c0,16.292,13.142,29.5,29.353,29.5H527.75L512,517l34.815-126h44.832C607.858,391,621,377.792,621,361.5
	C621,345.207,607.858,332,591.647,332z"/>
<g>
	<path fill="#FFFFFF" d="M413.478,347.499c0,0.691-0.202,1.296-0.606,1.815s-0.943,0.895-1.617,1.129
		c0.779,0.24,1.404,0.64,1.876,1.2s0.708,1.214,0.708,1.964c0,1.148-0.384,2.032-1.151,2.65s-1.755,0.927-2.962,0.927
		c-1.23,0-2.226-0.308-2.984-0.923s-1.138-1.5-1.138-2.654c0-0.756,0.231-1.414,0.694-1.973s1.084-0.959,1.863-1.2
		c-0.674-0.234-1.209-0.609-1.604-1.125s-0.593-1.119-0.593-1.811c0-1.102,0.347-1.957,1.041-2.566s1.596-0.914,2.703-0.914
		c1.102,0,2.005,0.306,2.711,0.918S413.478,346.403,413.478,347.499z M412.784,353.611c0-0.807-0.293-1.464-0.879-1.97
		c-0.586-0.506-1.318-0.759-2.197-0.759c-0.891,0-1.623,0.253-2.197,0.759c-0.574,0.506-0.861,1.163-0.861,1.97
		c0,0.836,0.284,1.492,0.853,1.966c0.568,0.474,1.31,0.71,2.224,0.71c0.891,0,1.623-0.238,2.197-0.715
		C412.497,355.096,412.784,354.442,412.784,353.611z M412.423,347.49c0-0.738-0.26-1.352-0.778-1.841s-1.164-0.734-1.938-0.734
		c-0.791,0-1.438,0.234-1.942,0.703s-0.756,1.093-0.756,1.872c0,0.756,0.253,1.361,0.76,1.815s1.159,0.681,1.956,0.681
		c0.779,0,1.424-0.227,1.934-0.681S412.423,348.246,412.423,347.49z"/>
	<path fill="#FFFFFF" d="M423.454,347.499c0,0.691-0.202,1.296-0.606,1.815s-0.943,0.895-1.617,1.129
		c0.779,0.24,1.404,0.64,1.876,1.2s0.708,1.214,0.708,1.964c0,1.148-0.384,2.032-1.151,2.65s-1.755,0.927-2.962,0.927
		c-1.23,0-2.226-0.308-2.984-0.923s-1.138-1.5-1.138-2.654c0-0.756,0.231-1.414,0.694-1.973s1.084-0.959,1.863-1.2
		c-0.674-0.234-1.209-0.609-1.604-1.125s-0.593-1.119-0.593-1.811c0-1.102,0.347-1.957,1.041-2.566s1.596-0.914,2.703-0.914
		c1.102,0,2.005,0.306,2.711,0.918S423.454,346.403,423.454,347.499z M422.759,353.611c0-0.807-0.293-1.464-0.879-1.97
		c-0.586-0.506-1.318-0.759-2.197-0.759c-0.891,0-1.623,0.253-2.197,0.759c-0.574,0.506-0.861,1.163-0.861,1.97
		c0,0.836,0.284,1.492,0.853,1.966c0.568,0.474,1.31,0.71,2.224,0.71c0.891,0,1.623-0.238,2.197-0.715
		C422.472,355.096,422.759,354.442,422.759,353.611z M422.399,347.49c0-0.738-0.26-1.352-0.778-1.841s-1.164-0.734-1.938-0.734
		c-0.791,0-1.438,0.234-1.942,0.703s-0.756,1.093-0.756,1.872c0,0.756,0.253,1.361,0.76,1.815s1.159,0.681,1.956,0.681
		c0.779,0,1.424-0.227,1.934-0.681S422.399,348.246,422.399,347.49z"/>
	<path fill="#FFFFFF" d="M433.965,356.288c0.697,0,1.313-0.198,1.846-0.595s0.8-0.949,0.8-1.655h0.932l0.018,0.053
		c0.029,0.879-0.322,1.614-1.055,2.206s-1.579,0.888-2.54,0.888c-1.295,0-2.296-0.444-3.002-1.332s-1.059-2.029-1.059-3.423v-0.369
		c0-1.383,0.354-2.52,1.063-3.41s1.705-1.336,2.988-1.336c1.043,0,1.911,0.308,2.605,0.923s1.03,1.424,1.007,2.426l-0.018,0.053
		h-0.94c0-0.762-0.257-1.37-0.77-1.824s-1.141-0.681-1.885-0.681c-1.02,0-1.774,0.364-2.264,1.093
		c-0.489,0.729-0.733,1.646-0.733,2.752v0.369c0,1.124,0.243,2.048,0.729,2.774C432.175,355.925,432.934,356.288,433.965,356.288z"
		/>
	<path fill="#FFFFFF" d="M440.944,357h-1.046v-13.711h1.046V357z"/>
	<path fill="#FFFFFF" d="M445.031,344.765h-1.046v-1.477h1.046V344.765z M445.031,357h-1.046v-9.51h1.046V357z"/>
	<path fill="#FFFFFF" d="M451.464,356.288c0.697,0,1.313-0.198,1.846-0.595s0.8-0.949,0.8-1.655h0.932l0.018,0.053
		c0.029,0.879-0.322,1.614-1.055,2.206s-1.579,0.888-2.54,0.888c-1.295,0-2.296-0.444-3.002-1.332s-1.059-2.029-1.059-3.423v-0.369
		c0-1.383,0.354-2.52,1.063-3.41s1.705-1.336,2.988-1.336c1.043,0,1.911,0.308,2.605,0.923s1.03,1.424,1.007,2.426l-0.018,0.053
		h-0.94c0-0.762-0.257-1.37-0.77-1.824s-1.141-0.681-1.885-0.681c-1.02,0-1.774,0.364-2.264,1.093
		c-0.489,0.729-0.733,1.646-0.733,2.752v0.369c0,1.124,0.243,2.048,0.729,2.774C449.674,355.925,450.433,356.288,451.464,356.288z"
		/>
	<path fill="#FFFFFF" d="M459.542,352.359h-1.213V357h-1.055v-13.711h1.055v8.174h1.107l3.533-3.973h1.23l0.018,0.044l-3.805,4.286
		l4.202,5.136L464.586,357h-1.204L459.542,352.359z"/>
	<path fill="#FFFFFF" d="M471.803,354.578c0-0.444-0.184-0.833-0.551-1.166c-0.365-0.333-1.025-0.605-1.98-0.815
		c-1.137-0.246-1.977-0.571-2.52-0.976c-0.541-0.404-0.813-0.976-0.813-1.714c0-0.727,0.307-1.34,0.918-1.841
		c0.613-0.501,1.424-0.751,2.432-0.751c1.072,0,1.922,0.265,2.549,0.795s0.926,1.194,0.896,1.991l-0.018,0.053h-0.977
		c0-0.521-0.221-0.976-0.664-1.362c-0.441-0.387-1.037-0.58-1.787-0.58c-0.768,0-1.344,0.165-1.729,0.494
		c-0.383,0.33-0.574,0.716-0.574,1.159c0,0.437,0.164,0.799,0.496,1.084c0.33,0.286,0.992,0.536,1.982,0.752
		c1.131,0.253,1.977,0.598,2.539,1.036s0.844,1.033,0.844,1.786c0,0.793-0.32,1.436-0.963,1.926
		c-0.641,0.491-1.488,0.736-2.543,0.736c-1.154,0-2.063-0.275-2.721-0.826c-0.66-0.551-0.971-1.207-0.936-1.969l0.018-0.053h0.967
		c0.041,0.683,0.32,1.178,0.838,1.487c0.52,0.31,1.131,0.464,1.834,0.464c0.762,0,1.361-0.167,1.801-0.5
		C471.582,355.455,471.803,355.051,471.803,354.578z"/>
</g>
<g>
	<path fill="#FFFFFF" d="M401.51,372.36c0-1.772,0.339-3.362,1.018-4.768s1.436-2.349,2.271-2.827l0.044,0.007l0.19,0.535
		c-0.708,0.503-1.326,1.396-1.853,2.681s-0.791,2.734-0.791,4.351v0.146c0,1.616,0.264,3.066,0.791,4.351s1.145,2.188,1.853,2.71
		l-0.19,0.513h-0.044c-0.845-0.488-1.604-1.421-2.278-2.798s-1.011-2.974-1.011-4.79V372.36z"/>
	<path fill="#FFFFFF" d="M408.124,370.858h1.018c0.776,0,1.365-0.194,1.765-0.582s0.601-0.888,0.601-1.498
		c0-0.664-0.188-1.194-0.564-1.589s-0.935-0.593-1.677-0.593c-0.684,0-1.244,0.202-1.681,0.604s-0.655,0.934-0.655,1.593h-0.82
		l-0.015-0.044c-0.024-0.83,0.266-1.521,0.872-2.073s1.372-0.828,2.3-0.828c0.952,0,1.71,0.261,2.274,0.784s0.846,1.248,0.846,2.175
		c0,0.503-0.156,0.976-0.469,1.417s-0.752,0.77-1.318,0.985c0.664,0.19,1.161,0.512,1.49,0.963s0.495,0.985,0.495,1.6
		c0,0.947-0.307,1.692-0.919,2.234s-1.4,0.813-2.362,0.813c-0.933,0-1.733-0.265-2.402-0.794s-0.991-1.266-0.967-2.208l0.015-0.044
		h0.82c0,0.677,0.235,1.229,0.707,1.657s1.081,0.643,1.828,0.643c0.757,0,1.348-0.196,1.772-0.588
		c0.425-0.393,0.637-0.955,0.637-1.686c0-0.746-0.222-1.298-0.667-1.656s-1.079-0.538-1.904-0.538h-1.018V370.858z"/>
	<path fill="#FFFFFF" d="M421.11,376.667h-6.621v-0.681l3.494-3.955c0.645-0.728,1.1-1.336,1.366-1.827s0.399-0.961,0.399-1.41
		c0-0.664-0.187-1.196-0.561-1.597s-0.902-0.601-1.585-0.601c-0.811,0-1.426,0.225-1.846,0.674s-0.63,1.05-0.63,1.802h-0.813
		l-0.015-0.044c-0.024-0.889,0.264-1.641,0.864-2.256s1.414-0.923,2.439-0.923c0.918,0,1.653,0.264,2.205,0.791
		s0.828,1.235,0.828,2.124c0,0.586-0.185,1.181-0.553,1.784s-0.882,1.275-1.542,2.018l-2.937,3.318l0.015,0.037h5.493V376.667z"/>
	<path fill="#FFFFFF" d="M422.604,368.053c0-0.62,0.191-1.143,0.575-1.567s0.888-0.637,1.513-0.637c0.62,0,1.122,0.212,1.505,0.637
		s0.575,0.947,0.575,1.567v0.564c0,0.615-0.19,1.134-0.571,1.557s-0.879,0.633-1.494,0.633c-0.63,0-1.138-0.211-1.523-0.633
		s-0.579-0.941-0.579-1.557V368.053z M423.307,368.617c0,0.43,0.121,0.796,0.362,1.099s0.587,0.454,1.037,0.454
		c0.435,0,0.77-0.151,1.007-0.454s0.355-0.669,0.355-1.099v-0.564c0-0.43-0.12-0.798-0.359-1.106s-0.579-0.461-1.018-0.461
		s-0.78,0.154-1.022,0.461s-0.362,0.676-0.362,1.106V368.617z M425.167,375.78l-0.542-0.352l5.208-8.335l0.542,0.352L425.167,375.78
		z M427.965,374.059c0-0.615,0.191-1.135,0.575-1.56s0.888-0.637,1.513-0.637c0.62,0,1.123,0.212,1.509,0.637
		s0.579,0.945,0.579,1.56v0.571c0,0.615-0.192,1.134-0.575,1.557s-0.882,0.633-1.498,0.633c-0.63,0-1.138-0.211-1.523-0.633
		s-0.579-0.941-0.579-1.557V374.059z M428.676,374.63c0,0.43,0.12,0.796,0.359,1.099s0.583,0.454,1.033,0.454
		c0.435,0,0.77-0.151,1.007-0.454s0.355-0.669,0.355-1.099v-0.571c0-0.444-0.12-0.815-0.359-1.113s-0.579-0.447-1.018-0.447
		s-0.779,0.15-1.018,0.451s-0.359,0.67-0.359,1.109V374.63z"/>
	<path fill="#FFFFFF" d="M437.201,372.587c0-1.167,0.32-2.124,0.959-2.871s1.487-1.121,2.542-1.121c1.06,0,1.909,0.374,2.549,1.121
		s0.959,1.704,0.959,2.871v0.242c0,1.172-0.319,2.13-0.956,2.875s-1.483,1.117-2.538,1.117c-1.064,0-1.917-0.372-2.556-1.117
		s-0.959-1.703-0.959-2.875V372.587z M438.08,372.825c0,0.917,0.232,1.688,0.696,2.312c0.464,0.625,1.111,0.937,1.941,0.937
		c0.815,0,1.456-0.312,1.922-0.937c0.466-0.624,0.7-1.395,0.7-2.312v-0.241c0-0.902-0.234-1.668-0.703-2.297
		c-0.469-0.629-1.113-0.944-1.934-0.944s-1.462,0.314-1.926,0.944c-0.464,0.629-0.696,1.395-0.696,2.297V372.825z"/>
	<path fill="#FFFFFF" d="M446.679,376.667v-7.207h-1.311v-0.718h1.311v-1.157c0-0.796,0.199-1.411,0.597-1.846
		s0.956-0.652,1.674-0.652c0.161,0,0.325,0.012,0.491,0.037s0.334,0.059,0.505,0.103l-0.11,0.725
		c-0.117-0.029-0.238-0.052-0.363-0.069s-0.27-0.026-0.436-0.026c-0.479,0-0.845,0.151-1.099,0.454s-0.381,0.728-0.381,1.274v1.157
		h1.89v0.718h-1.89v7.207H446.679z"/>
	<path fill="#FFFFFF" d="M460.998,372.924c0,1.187-0.269,2.133-0.806,2.838s-1.277,1.058-2.219,1.058
		c-0.557,0-1.044-0.105-1.461-0.315s-0.758-0.51-1.021-0.901v4.109h-0.879v-10.972h0.74l0.11,1.23
		c0.264-0.439,0.604-0.779,1.021-1.018s0.91-0.359,1.476-0.359c0.952,0,1.697,0.38,2.234,1.139s0.806,1.771,0.806,3.036V372.924z
		 M460.119,372.759c0-1.007-0.2-1.828-0.601-2.464c-0.4-0.635-0.986-0.953-1.758-0.953c-0.591,0-1.071,0.141-1.439,0.421
		c-0.369,0.281-0.646,0.646-0.831,1.096v3.813c0.2,0.435,0.489,0.777,0.868,1.026c0.378,0.25,0.851,0.374,1.417,0.374
		c0.767,0,1.349-0.289,1.747-0.865s0.597-1.342,0.597-2.295V372.759z"/>
	<path fill="#FFFFFF" d="M467.984,376.667c-0.059-0.269-0.1-0.5-0.124-0.696s-0.036-0.393-0.036-0.593
		c-0.293,0.415-0.684,0.759-1.172,1.033s-1.038,0.41-1.648,0.41c-0.771,0-1.371-0.205-1.798-0.615s-0.641-0.959-0.641-1.648
		c0-0.732,0.316-1.318,0.948-1.758s1.486-0.659,2.56-0.659h1.751v-0.981c0-0.566-0.183-1.011-0.547-1.333
		c-0.363-0.322-0.872-0.483-1.526-0.483c-0.61,0-1.117,0.154-1.521,0.461c-0.402,0.308-0.604,0.684-0.604,1.128l-0.806-0.007
		l-0.015-0.044c-0.029-0.591,0.24-1.119,0.809-1.585s1.292-0.7,2.171-0.7c0.875,0,1.578,0.222,2.109,0.667
		c0.533,0.444,0.799,1.082,0.799,1.912v3.896c0,0.278,0.016,0.549,0.047,0.813c0.032,0.264,0.085,0.525,0.158,0.784H467.984z
		 M465.106,376.044c0.63,0,1.187-0.147,1.67-0.443s0.833-0.673,1.048-1.132v-1.655h-1.766c-0.796,0-1.432,0.17-1.908,0.509
		c-0.476,0.339-0.714,0.76-0.714,1.263c0,0.43,0.147,0.78,0.443,1.051S464.584,376.044,465.106,376.044z"/>
	<path fill="#FFFFFF" d="M470.688,372.77c0-1.265,0.27-2.276,0.809-3.036c0.54-0.759,1.291-1.139,2.253-1.139
		c0.562,0,1.048,0.124,1.458,0.37s0.749,0.594,1.018,1.043l0.103-1.267h0.739v7.822c0,1.021-0.281,1.826-0.846,2.417
		s-1.349,0.886-2.354,0.886c-0.381,0-0.786-0.046-1.216-0.139s-0.806-0.22-1.128-0.381l0.228-0.74
		c0.313,0.156,0.642,0.274,0.988,0.355s0.718,0.121,1.113,0.121c0.771,0,1.354-0.222,1.746-0.667c0.394-0.444,0.59-1.062,0.59-1.853
		v-0.996c-0.268,0.4-0.607,0.709-1.018,0.927c-0.41,0.217-0.889,0.326-1.436,0.326c-0.952,0-1.698-0.354-2.238-1.062
		c-0.539-0.708-0.809-1.653-0.809-2.834V372.77z M471.566,372.925c0,0.957,0.195,1.72,0.586,2.292s0.972,0.857,1.743,0.857
		c0.566,0,1.038-0.131,1.417-0.392s0.67-0.622,0.875-1.08v-3.677c-0.189-0.463-0.47-0.843-0.838-1.139
		c-0.369-0.295-0.849-0.443-1.439-0.443c-0.771,0-1.355,0.319-1.75,0.957c-0.396,0.637-0.594,1.461-0.594,2.471V372.925z"/>
	<path fill="#FFFFFF" d="M482.362,376.82c-0.991,0-1.815-0.366-2.472-1.099c-0.657-0.732-0.985-1.66-0.985-2.783v-0.403
		c0-1.133,0.325-2.073,0.978-2.82s1.441-1.121,2.369-1.121c0.973,0,1.736,0.308,2.293,0.923s0.835,1.436,0.835,2.461v0.747h-5.596
		v0.212c0,0.892,0.237,1.637,0.71,2.236c0.475,0.599,1.097,0.899,1.868,0.899c0.547,0,1.013-0.076,1.399-0.227
		c0.385-0.151,0.715-0.369,0.988-0.652l0.373,0.601c-0.297,0.314-0.675,0.563-1.131,0.748
		C483.535,376.728,482.992,376.82,482.362,376.82z M482.252,369.342c-0.648,0-1.193,0.247-1.633,0.741
		c-0.439,0.495-0.695,1.114-0.77,1.859l0.016,0.037h4.643v-0.219c0-0.687-0.202-1.261-0.607-1.724S482.945,369.342,482.252,369.342z
		"/>
	<path fill="#FFFFFF" d="M493.02,374.682l0.256,0.93h0.044l0.278-0.93l2.153-5.94h0.908l-3.011,7.925h-0.703l-3.018-7.925h0.908
		L493.02,374.682z"/>
	<path fill="#FFFFFF" d="M499.084,366.471h-0.872v-1.23h0.872V366.471z M499.084,376.667h-0.872v-7.925h0.872V376.667z"/>
	<path fill="#FFFFFF" d="M506.254,374.648c0-0.37-0.152-0.694-0.458-0.972c-0.306-0.278-0.855-0.504-1.651-0.68
		c-0.947-0.205-1.646-0.476-2.099-0.813s-0.677-0.813-0.677-1.428c0-0.605,0.254-1.117,0.765-1.534s1.186-0.626,2.025-0.626
		c0.894,0,1.602,0.221,2.124,0.663s0.771,0.995,0.747,1.659l-0.015,0.044h-0.813c0-0.435-0.186-0.813-0.554-1.135
		s-0.865-0.483-1.49-0.483c-0.64,0-1.12,0.137-1.439,0.412c-0.319,0.275-0.479,0.597-0.479,0.966c0,0.364,0.138,0.666,0.414,0.904
		c0.275,0.238,0.826,0.447,1.651,0.626c0.942,0.21,1.647,0.499,2.116,0.863c0.469,0.365,0.703,0.861,0.703,1.488
		c0,0.662-0.268,1.197-0.802,1.606c-0.534,0.409-1.241,0.613-2.12,0.613c-0.962,0-1.718-0.229-2.268-0.688
		c-0.549-0.459-0.809-1.006-0.779-1.641l0.015-0.044h0.806c0.034,0.569,0.268,0.982,0.699,1.24c0.432,0.257,0.941,0.386,1.527,0.386
		c0.635,0,1.135-0.139,1.502-0.417C506.07,375.379,506.254,375.043,506.254,374.648z"/>
	<path fill="#FFFFFF" d="M510.129,366.471h-0.872v-1.23h0.872V366.471z M510.129,376.667h-0.872v-7.925h0.872V376.667z"/>
	<path fill="#FFFFFF" d="M513.93,366.713v2.029h1.742v0.718h-1.742v5.164c0,0.518,0.094,0.885,0.281,1.103s0.438,0.326,0.751,0.326
		c0.142,0,0.278-0.006,0.413-0.018s0.289-0.033,0.465-0.063l0.133,0.652c-0.146,0.063-0.324,0.112-0.535,0.146
		c-0.209,0.034-0.42,0.051-0.629,0.051c-0.557,0-0.99-0.176-1.301-0.527s-0.465-0.908-0.465-1.67v-5.164h-1.369v-0.718h1.369v-2.029
		H513.93z"/>
	<path fill="#FFFFFF" d="M522.279,374.648c0-0.37-0.152-0.694-0.459-0.972c-0.305-0.278-0.855-0.504-1.65-0.68
		c-0.947-0.205-1.646-0.476-2.1-0.813c-0.451-0.337-0.678-0.813-0.678-1.428c0-0.605,0.256-1.117,0.766-1.534
		c0.512-0.417,1.186-0.626,2.025-0.626c0.895,0,1.602,0.221,2.125,0.663c0.521,0.442,0.771,0.995,0.746,1.659l-0.014,0.044h-0.814
		c0-0.435-0.184-0.813-0.553-1.135c-0.367-0.322-0.865-0.483-1.49-0.483c-0.639,0-1.119,0.137-1.439,0.412
		c-0.318,0.275-0.479,0.597-0.479,0.966c0,0.364,0.137,0.666,0.414,0.904c0.275,0.238,0.826,0.447,1.65,0.626
		c0.943,0.21,1.648,0.499,2.117,0.863c0.469,0.365,0.703,0.861,0.703,1.488c0,0.662-0.268,1.197-0.803,1.606
		c-0.533,0.409-1.24,0.613-2.119,0.613c-0.963,0-1.719-0.229-2.268-0.688s-0.809-1.006-0.779-1.641l0.014-0.044h0.807
		c0.033,0.569,0.268,0.982,0.699,1.24c0.432,0.257,0.941,0.386,1.527,0.386c0.635,0,1.135-0.139,1.5-0.417
		C522.096,375.379,522.279,375.043,522.279,374.648z"/>
	<path fill="#FFFFFF" d="M527.662,372.47c0,1.816-0.336,3.413-1.01,4.79s-1.432,2.31-2.271,2.798h-0.043l-0.191-0.513
		c0.703-0.498,1.32-1.394,1.85-2.688s0.795-2.751,0.795-4.373v-0.146c0-1.606-0.27-3.06-0.809-4.361
		c-0.541-1.301-1.152-2.201-1.836-2.699l0.191-0.513h0.043c0.83,0.479,1.584,1.421,2.264,2.827c0.678,1.406,1.018,2.996,1.018,4.768
		V372.47z"/>
</g>
</svg>
