<svg width="135" height="31" viewBox="0 0 135 31" xmlns="http://www.w3.org/2000/svg"><title>logo</title><path d="M9.871 4.372C4.281 4.372 0 8.812 0 14.108V28.4c0 1.167.974 2.113 2.175 2.113 1.201 0 2.175-.946 2.175-2.113v-5.906c1.616 1.062 3.554 1.66 5.71 1.66 3.094 0 5.767-1.153 7.658-3.186a10.11 10.11 0 0 0 2.683-6.861c0-5.195-4.894-9.736-10.53-9.736zm4.62 13.764c-1.067 1.147-2.567 1.794-4.43 1.794-1.774 0-3.224-.659-4.302-1.8-.886-.94-1.409-2.13-1.409-2.895v-1.127c0-3.023 2.4-5.511 5.521-5.511 3.277 0 6.18 2.694 6.18 5.51 0 1.492-.564 2.958-1.56 4.03zM50.16 4.515c-5.629 0-10.192 4.432-10.192 9.9 0 5.467 4.563 9.899 10.192 9.899 5.629 0 10.192-4.432 10.192-9.9 0-5.467-4.563-9.9-10.192-9.9zm0 15.574c-3.226 0-5.842-2.54-5.842-5.675 0-3.133 2.616-5.674 5.842-5.674 3.226 0 5.842 2.54 5.842 5.674 0 3.134-2.616 5.675-5.842 5.675zM76.868 9.766c1.202 0 2.176-.945 2.176-2.112 0-1.167-.974-2.113-2.176-2.113h-8.525V2.113C68.343.946 67.369 0 66.167 0c-1.2 0-2.175.946-2.175 2.113v15.13c0 3.834 3.2 6.94 7.147 6.94h5.534c1.201 0 2.175-.945 2.175-2.112 0-1.167-.974-2.113-2.175-2.113h-5.534c-1.545 0-2.796-1.215-2.796-2.715V9.766h8.525zM36.302 4.708h-4.954c-3.937 0-7.129 3.1-7.129 6.925v10.462c0 1.167.974 2.113 2.175 2.113 1.202 0 2.175-.946 2.175-2.113V11.633c0-1.491 1.244-2.7 2.78-2.7h4.953c1.202 0 2.175-.945 2.175-2.112 0-1.167-.973-2.113-2.175-2.113zm55.637-.314c-5.61 0-10.161 4.417-10.165 9.867-.003 5.45 4.543 9.87 10.155 9.87h2.96c1.201 0 2.175-.947 2.175-2.114 0-1.167-.974-2.112-2.175-2.112h-2.96c-3.208 0-5.807-2.525-5.804-5.642.001-3.116 2.605-5.643 5.814-5.643h.118c2.484 0 4.603 1.515 5.433 3.645h-5.398c-1.202 0-2.175.946-2.175 2.113s.973 2.113 2.175 2.113h7.95c1.2 0 2.174-.946 2.174-2.113v-.116c0-5.45-4.549-9.868-10.16-9.868h-.117zm16.391.115c-1.2 0-2.175.946-2.175 2.112v15.447c0 1.167.974 2.113 2.175 2.113 1.202 0 2.175-.946 2.175-2.113V6.62c0-1.166-.973-2.112-2.175-2.112zm16.532-.065c-5.6 0-10.139 4.41-10.139 9.848v7.775c0 1.167.974 2.113 2.175 2.113 1.202 0 2.176-.946 2.176-2.113v-7.775c0-3.105 2.591-5.622 5.788-5.622s5.788 2.516 5.788 5.622v7.775c0 1.167.974 2.113 2.175 2.113 1.201 0 2.175-.946 2.175-2.113v-7.775c0-5.44-4.538-9.848-10.138-9.848z" fill="#669" fill-rule="evenodd"/></svg>