<svg width="50" height="50" viewBox="0 0 50 50" xmlns="http://www.w3.org/2000/svg">
    <g fill="none" fill-rule="evenodd">
        <path d="M49.262 23.963c.118 8.227-6.435 15.143-14.582 15.44-2.184.06-4.25-.357-6.14-1.132-.944-.416-1.357-1.55-.885-2.503v-.06c.413-.774 1.358-1.132 2.125-.774 1.77.775 3.778 1.073 5.904.775 5.254-.716 9.386-5.068 9.918-10.373.708-7.273-5.313-13.414-12.575-12.698-5.195.476-9.564 4.71-10.213 10.075-.177 1.49-.118 2.92.236 4.232.177.656-.06 1.312-.53 1.73-1.005.893-2.6.416-2.894-.895-.472-1.968-.59-4.115-.177-6.32 1.18-6.498 6.493-11.566 12.987-12.34 8.973-1.074 16.707 5.96 16.825 14.843z" fill="#FFC057"/>
        <path d="M17.737 39.88c6.494-.774 11.807-5.842 12.988-12.34.413-2.205.295-4.352-.177-6.378-.296-1.312-1.89-1.85-2.893-.895-.472.418-.65 1.073-.532 1.73.355 1.37.414 2.8.237 4.29-.71 5.307-5.018 9.54-10.332 10.076-7.26.656-13.283-5.425-12.574-12.698.53-5.305 4.663-9.657 9.918-10.373 2.125-.298 4.132.06 5.903.775.827.358 1.712 0 2.126-.775v-.06c.473-.953.12-2.086-.885-2.503-2.184-.895-4.664-1.313-7.26-1.015C7.168 10.43 1.5 16.333.91 23.545c-.766 9.54 7.263 17.468 16.827 16.336z" fill="#64C800"/>
    </g>
</svg>
