<svg width="50" height="50" viewBox="0 0 50 50" xmlns="http://www.w3.org/2000/svg">
    <g fill="none" fill-rule="evenodd">
        <path d="M45.21 33.23l-3.663 3.692c-.303.3-.707.47-1.127.47-.425 0-.83-.17-1.132-.47l-3.663-3.692c-.627-.626-.627-1.642 0-2.27.622-.63 1.632-.63 2.254 0l.79.8c-.733-3.806-4.07-6.69-8.063-6.69-2.196 0-4.26.862-5.805 2.424-.628.626-1.638.626-2.26 0-.622-.63-.622-1.648 0-2.274 2.153-2.167 5.02-3.36 8.065-3.36 5.837 0 10.664 4.43 11.33 10.13l1.02-1.03c.622-.63 1.632-.63 2.253 0 .627.628.627 1.644 0 2.27zM38.67 41.454c-2.152 2.168-5.017 3.366-8.063 3.366-5.837 0-10.66-4.436-11.324-10.135l-1.026 1.033c-.622.626-1.632.626-2.254 0-.622-.626-.622-1.643 0-2.27l3.668-3.69c.597-.605 1.66-.605 2.255 0l3.668 3.69c.622.627.622 1.644 0 2.27-.314.31-.717.47-1.127.47-.41 0-.82-.16-1.127-.47l-.798-.803c.734 3.81 4.072 6.694 8.065 6.694 2.195 0 4.258-.862 5.81-2.424.622-.626 1.632-.626 2.254 0 .623.626.623 1.642 0 2.268z" fill="#64C800"/>
        <path d="M13.816 41.885c-6.998 0-12.693-5.73-12.693-12.776 0-6.664 5.094-12.152 11.568-12.727 2.806-6.94 9.52-11.526 17.04-11.526 10.142 0 18.393 8.305 18.393 18.514 0 .8-.05 1.6-.15 2.383-.113.88-.914 1.5-1.786 1.387-.874-.113-1.49-.918-1.378-1.798.082-.647.124-1.31.124-1.97 0-8.44-6.82-15.305-15.204-15.305-6.522 0-12.31 4.174-14.403 10.387l-.367 1.09h-1.143c-5.24 0-9.503 4.29-9.503 9.565 0 5.272 4.263 9.564 9.503 9.564.88 0 1.594.718 1.594 1.605 0 .886-.713 1.605-1.594 1.605z" fill="#008CDC"/>
    </g>
</svg>
