<svg width="50" height="50" viewBox="0 0 50 50" xmlns="http://www.w3.org/2000/svg" xmlns:xlink="http://www.w3.org/1999/xlink">
    <defs>
        <path id="a" d="M.192.146h45.9v29.52H.19z"/>
    </defs>
    <g fill="none" fill-rule="evenodd">
        <g transform="translate(4.202 31.157)">
            <mask id="b" fill="#fff">
                <use xlink:href="#a"/>
            </mask>
            <path d="M36.588-22.11V7.565H6.915V-22.11h29.673zm.927-3.708H5.988c-1.536 0-2.782 1.246-2.782 2.782V8.492c0 1.536 1.246 2.78 2.782 2.78h31.527c1.537 0 2.782-1.244 2.782-2.78v-31.528c0-1.536-1.245-2.782-2.782-2.782z" fill="#008CDC" mask="url(#b)"/>
        </g>
        <path d="M34.58 13.66l-7.212-7.212c-.724-.724-1.9-.724-2.622 0-.725.725-.725 1.898 0 2.622l7.21 7.214c.726.723 1.9.723 2.624 0 .724-.724.724-1.9 0-2.624z" fill="#64C800"/>
        <path d="M27.162 6.448c-.724-.724-1.898-.724-2.622 0l-7.212 7.212c-.725.724-.725 1.9 0 2.624.724.723 1.898.723 2.622 0l7.21-7.214c.726-.724.726-1.897.002-2.622z" fill="#64C800"/>
        <path d="M9.263 22.956c-1.025 0-1.855.832-1.855 1.855V37.8c0 1.024.83 1.854 1.855 1.854 1.024 0 1.854-.83 1.854-1.854V24.81c0-1.022-.83-1.854-1.854-1.854zm33.382 0c-1.024 0-1.855.832-1.855 1.855V37.8c0 1.024.83 1.854 1.855 1.854 1.023 0 1.853-.83 1.853-1.854V24.81c0-1.022-.83-1.854-1.853-1.854z" fill="#008CDC"/>
        <path d="M25.954 6.265c-1.024 0-1.854.832-1.854 1.855v14.836c0 1.025.83 1.854 1.854 1.854s1.854-.83 1.854-1.854V8.12c0-1.023-.83-1.855-1.854-1.855z" fill="#64C800"/>
        <path d="M25.954 11.828c-1.024 0-1.854.832-1.854 1.855V28.52c0 1.023.83 1.854 1.854 1.854s1.854-.83 1.854-1.855V13.68c0-1.024-.83-1.856-1.854-1.856z" fill="#64C800"/>
    </g>
</svg>
