<svg width="40" height="40" viewBox="0 0 40 40" xmlns="http://www.w3.org/2000/svg">
    <title>
        github
    </title>
    <g fill="none" fill-rule="evenodd">
        <g transform="translate(1.828 2)">
            <path d="M8.182 18.25c0 4.446 2.813 8.22 6.714 9.55.49.094.67-.217.67-.484 0-.24-.008-.872-.013-1.712-2.73.608-3.307-1.35-3.307-1.35-.447-1.163-1.09-1.472-1.09-1.472-.892-.625.067-.612.067-.612.986.07 1.504 1.037 1.504 1.037.876 1.54 2.298 1.094 2.858.836.09-.65.343-1.093.623-1.346-2.18-.254-4.472-1.117-4.472-4.974 0-1.1.382-1.998 1.01-2.702-.1-.254-.437-1.277.097-2.663 0 0 .824-.27 2.7 1.03.783-.222 1.623-.333 2.457-.337.834.004 1.674.115 2.46.338 1.873-1.302 2.696-1.03 2.696-1.03.535 1.385.198 2.408.098 2.663.63.705 1.01 1.603 1.01 2.703 0 3.866-2.297 4.717-4.484 4.967.353.31.666.925.666 1.864 0 1.346-.01 2.432-.01 2.762 0 .27.175.582.674.484 3.898-1.334 6.708-5.104 6.708-9.55 0-5.56-4.396-10.068-9.82-10.068-5.42 0-9.816 4.507-9.816 10.067z"/>
        </g>
    </g>
</svg>
